<svg width="24" height="24" viewBox="0 0 24 24" fill="none" xmlns="http://www.w3.org/2000/svg">
<g id="box-open 1" clip-path="url(#clip0_6002_155)">
<path id="Vector" d="M2.99997 3L12 0L21 3L12.008 6.001L2.99997 2.989V3ZM1.99997 5L0.299966 7.834C-0.367034 8.946 0.166966 10.389 1.39697 10.799L6.47797 12.493C7.36697 12.789 8.34297 12.428 8.82497 11.625L11 8.001L1.99997 5ZM13 8L15.175 11.624C15.657 12.428 16.633 12.789 17.522 12.492L22.64 10.786C23.851 10.382 24.377 8.961 23.72 7.866L22 5L13 8ZM10.54 12.654C9.79797 13.89 8.49597 14.599 7.12497 14.599C6.69997 14.599 6.26897 14.532 5.84497 14.39L1.99997 13.109V21.001L11 24.001V11.887L10.54 12.653V12.654ZM18.155 14.39C17.731 14.532 17.3 14.599 16.875 14.599C15.504 14.599 14.202 13.891 13.46 12.654L13 11.888V24.001L22 21.001V13.109L18.155 14.39Z" fill="black"/>
</g>
<defs>
<clipPath id="clip0_6002_155">
<rect width="24" height="24" fill="white"/>
</clipPath>
</defs>
</svg>
