<svg width="24" height="24" viewBox="0 0 24 24" fill="none" xmlns="http://www.w3.org/2000/svg">
<g id="plug-alt 1" clip-path="url(#clip0_6002_157)">
<path id="Vector" d="M20.003 3.05792C17.465 0.784921 14.053 -0.298079 10.638 0.0749213C5.12603 0.683921 0.684026 5.12592 0.0750262 10.6389C-0.594974 16.7029 3.23003 22.4039 8.97203 23.8959C9.24203 23.9659 9.51403 23.9999 9.78503 23.9999C10.486 23.9999 11.171 23.7689 11.743 23.3259C12.541 22.7089 12.999 21.7769 12.999 20.7689V17.8989C15.278 17.4339 16.999 15.4139 16.999 12.9999V11.9999C17.552 11.9999 17.999 11.5529 17.999 10.9999C17.999 10.4469 17.552 9.99992 16.999 9.99992H14.999V6.99992C14.999 6.44692 14.552 5.99992 13.999 5.99992C13.446 5.99992 12.999 6.44692 12.999 6.99992V9.99992H10.999V6.99992C10.999 6.44692 10.551 5.99992 9.99903 5.99992C9.44703 5.99992 8.99903 6.44692 8.99903 6.99992V9.99992H6.99903C6.44703 9.99992 5.99903 10.4469 5.99903 10.9999C5.99903 11.5529 6.44703 11.9999 6.99903 11.9999V12.9999C6.99903 15.4139 8.72003 17.4349 10.999 17.8989V20.7689C10.999 21.1529 10.824 21.5069 10.52 21.7429C10.219 21.9749 9.83903 22.0539 9.47503 21.9599C4.76603 20.7349 1.51003 15.8589 2.06303 10.8569C2.57003 6.26892 6.26903 2.56992 10.857 2.06292C13.748 1.74692 16.522 2.62492 18.669 4.54692C20.786 6.44292 22 9.15892 22 11.9989C22 16.1499 19.502 19.8089 15.637 21.3169C15.122 21.5179 14.867 22.0979 15.069 22.6119C15.27 23.1279 15.85 23.3819 16.364 23.1799C21.004 21.3689 24.001 16.9799 24.001 11.9979C24.001 8.58992 22.544 5.33092 20.004 3.05592L20.003 3.05792Z" fill="black"/>
</g>
<defs>
<clipPath id="clip0_6002_157">
<rect width="24" height="24" fill="white"/>
</clipPath>
</defs>
</svg>
