<svg width="24" height="24" viewBox="0 0 24 24" fill="none" xmlns="http://www.w3.org/2000/svg">
<g id="recycle 1" clip-path="url(#clip0_6002_153)">
<path id="Vector" d="M7.72595 3.043L8.34495 2.043C8.73563 1.42716 9.27555 0.920008 9.91461 0.568609C10.5537 0.21721 11.2712 0.032959 12.0005 0.032959C12.7298 0.032959 13.4472 0.21721 14.0863 0.568609C14.7254 0.920008 15.2653 1.42716 15.656 2.043L17.787 5.431L19.145 4.504C19.3898 4.33685 19.6788 4.24603 19.9753 4.243C20.2717 4.23997 20.5625 4.32488 20.8107 4.48699C21.059 4.6491 21.2536 4.88115 21.3701 5.15383C21.4865 5.4265 21.5195 5.72757 21.465 6.019L20.729 9.962C20.6436 10.4206 20.4009 10.8352 20.0428 11.1341C19.6847 11.4331 19.2335 11.5979 18.767 11.6C18.637 11.6 14.467 10.792 14.467 10.792C14.177 10.7348 13.9105 10.5932 13.7007 10.385C13.491 10.1768 13.3474 9.91135 13.288 9.62185C13.2286 9.33236 13.256 9.03177 13.3669 8.75782C13.4777 8.48387 13.667 8.24876 13.911 8.082L15.306 7.129L13.106 3.636C12.9901 3.44818 12.8283 3.29294 12.6359 3.18491C12.4435 3.07688 12.2267 3.01962 12.006 3.01852C11.7853 3.01742 11.568 3.07252 11.3745 3.17862C11.181 3.28473 11.0177 3.43834 10.9 3.625L10.279 4.625C10.1751 4.79264 10.0392 4.93817 9.87908 5.05329C9.71896 5.16841 9.53774 5.25086 9.34575 5.29595C9.15377 5.34103 8.95478 5.34786 8.76016 5.31604C8.56554 5.28422 8.37909 5.21438 8.21145 5.1105C8.04382 5.00663 7.89829 4.87075 7.78317 4.71063C7.66805 4.55051 7.58559 4.36929 7.54051 4.1773C7.49543 3.98532 7.4886 3.78633 7.52042 3.59171C7.55224 3.39709 7.62208 3.21063 7.72595 3.043ZM23.353 14.462L22.775 13.531C22.6723 13.3612 22.5371 13.2135 22.377 13.0963C22.2169 12.9792 22.0351 12.895 21.8423 12.8486C21.6494 12.8021 21.4492 12.7944 21.2534 12.8259C21.0575 12.8573 20.8698 12.9273 20.7012 13.0318C20.5325 13.1363 20.3863 13.2732 20.2709 13.4346C20.1556 13.596 20.0734 13.7786 20.0291 13.972C19.9848 14.1654 19.9793 14.3656 20.0129 14.5611C20.0465 14.7566 20.1186 14.9435 20.225 15.111L20.803 16.043C20.9235 16.239 20.9896 16.4636 20.9943 16.6936C20.999 16.9236 20.9422 17.1507 20.8297 17.3514C20.7173 17.5522 20.5533 17.7192 20.3547 17.8353C20.156 17.9515 19.93 18.0125 19.7 18.012H15V16.5C15.0004 16.2077 14.9154 15.9217 14.7554 15.6771C14.5955 15.4325 14.3675 15.2399 14.0996 15.1231C13.8317 15.0062 13.5355 14.9702 13.2474 15.0194C12.9593 15.0686 12.6919 15.2009 12.478 15.4L9.69995 17.992C9.486 18.1769 9.31368 18.405 9.19436 18.6614C9.07505 18.9177 9.01145 19.1965 9.00777 19.4792C9.00408 19.762 9.06039 20.0423 9.17298 20.3017C9.28558 20.5611 9.45189 20.7936 9.66095 20.984L12.479 23.6C12.6929 23.7988 12.9603 23.9308 13.2482 23.9798C13.5362 24.0289 13.8321 23.9927 14.0998 23.8759C14.3675 23.7591 14.5953 23.5667 14.7552 23.3223C14.9151 23.0779 15.0002 22.7921 15 22.5V21.012H19.7C20.465 21.0132 21.2165 20.81 21.8766 20.4232C22.5367 20.0365 23.0814 19.4803 23.4544 18.8123C23.8274 18.1443 24.015 17.3888 23.9979 16.6239C23.9807 15.859 23.7595 15.1126 23.357 14.462H23.353ZM8.09995 8.381C8.05 8.1217 7.94938 7.8748 7.80387 7.65444C7.65837 7.43408 7.47082 7.24458 7.25198 7.09679C7.03313 6.94901 6.78729 6.84584 6.52852 6.7932C6.26975 6.74056 6.00314 6.73947 5.74395 6.79L1.83795 7.559C1.54777 7.61604 1.28091 7.75758 1.07094 7.96584C0.86096 8.17409 0.71723 8.43977 0.657814 8.72948C0.598397 9.01919 0.625946 9.32 0.736996 9.5941C0.848046 9.86819 1.03764 10.1033 1.28195 10.27L2.66195 11.212L0.647954 14.462C0.240429 15.1091 0.0159228 15.8546 -0.00168568 16.6192C-0.0192942 17.3838 0.170653 18.1388 0.547954 18.804C0.918109 19.4791 1.46457 20.041 2.12905 20.4299C2.79353 20.8187 3.5511 21.0199 4.32095 21.012L5.51495 21C5.91278 20.996 6.29273 20.8342 6.57122 20.5501C6.84971 20.2659 7.00393 19.8828 6.99995 19.485C6.99598 19.0872 6.83413 18.7072 6.55001 18.4287C6.26589 18.1502 5.88278 17.996 5.48495 18L4.29995 18.012C4.06998 18.012 3.84417 17.9507 3.64584 17.8343C3.4475 17.7179 3.28382 17.5507 3.17171 17.3499C3.05959 17.1491 3.0031 16.922 3.00806 16.6921C3.01303 16.4622 3.07927 16.2378 3.19995 16.042L5.14395 12.906L6.51595 13.843C6.76077 14.01 7.04959 14.1008 7.34595 14.1039C7.64231 14.1069 7.93293 14.0221 8.18113 13.8601C8.42933 13.6981 8.62399 13.4663 8.74053 13.1938C8.85707 12.9213 8.89028 12.6204 8.83595 12.329L8.09995 8.381Z" fill="black"/>
</g>
<defs>
<clipPath id="clip0_6002_153">
<rect width="24" height="24" fill="white"/>
</clipPath>
</defs>
</svg>
