<svg width="24" height="24" viewBox="0 0 24 24" fill="none" xmlns="http://www.w3.org/2000/svg">
<g id="hook 1">
<path id="Vector" d="M19.3927 4.69298L17.8927 0.942984C17.6649 0.373547 17.1134 0 16.5 0H7.49998C6.88658 0 6.33505 0.373547 6.10728 0.942984L4.60728 4.69298C4.46408 5.05041 4.46408 5.44959 4.60728 5.80702L6.10728 9.55702C6.33505 10.1265 6.88658 10.5 7.49998 10.5H8.24998C8.24998 11.3284 8.92161 12 9.74998 12H10.5V12.576C10.5 14.3599 11.4759 15.9888 12.9858 16.7263C13.7655 17.1075 14.25 17.8828 14.25 18.7496C14.25 19.9482 13.1982 21 11.9996 21C10.7592 21 9.74998 19.9907 9.74998 18.75C9.74998 17.9216 9.07836 17.25 8.24998 17.25C7.42161 17.25 6.74998 17.9216 6.74998 18.75C6.74998 21.6449 9.10508 24 11.9996 24C14.8454 24 17.25 21.5955 17.25 18.7496C17.25 16.7274 16.1206 14.9194 14.3027 14.031C13.8149 13.7926 13.5 13.2217 13.5 12.576V12H14.25C15.0784 12 15.75 11.3284 15.75 10.5H16.5C17.1134 10.5 17.6649 10.1265 17.8927 9.55702L19.3927 5.80702C19.5359 5.44959 19.5359 5.05041 19.3927 4.69298ZM8.50001 8.25H6.91873L8.9187 2.25H10.5L8.50001 8.25ZM11.7906 8.25H10.2094L12.2093 2.25H13.7906L11.7906 8.25ZM15.0813 8.25H13.5L15.5 2.25H17.0812L15.0813 8.25Z" fill="black"/>
</g>
</svg>
