<svg width="58" height="58" viewBox="0 0 58 58" fill="none" xmlns="http://www.w3.org/2000/svg">
<path d="M29 24.36C23.1228 24.36 17.5879 26.651 13.4142 30.8119C13.1961 31.0288 13.0732 31.3246 13.0732 31.632C13.0732 31.94 13.195 32.2358 13.4131 32.4533L18.3309 37.3711C18.7839 37.8241 19.5181 37.8241 19.9711 37.3711C22.3781 34.9653 25.5844 33.64 29 33.64C32.4156 33.64 35.6218 34.9653 38.0283 37.3717C38.255 37.5985 38.5514 37.7116 38.8484 37.7116C39.1453 37.7116 39.4417 37.5985 39.6685 37.3717L44.5863 32.4539C44.8044 32.2364 44.9262 31.9406 44.9262 31.6326C44.9262 31.3252 44.8032 31.0294 44.5852 30.8125C40.4121 26.651 34.8771 24.36 29 24.36ZM38.8176 34.9421C36.0887 32.5983 32.6447 31.32 29 31.32C25.3553 31.32 21.9112 32.5983 19.1823 34.9421L15.8984 31.6581C19.5205 28.4391 24.1297 26.68 29 26.68C33.8702 26.68 38.4795 28.4391 42.1016 31.6581L38.8176 34.9421ZM54.4237 20.9763C47.6302 14.1816 38.6013 10.44 29 10.44C19.3987 10.44 10.3698 14.1816 3.57627 20.9763C3.35877 21.1938 3.23639 21.489 3.23639 21.7964C3.23639 22.1038 3.35877 22.399 3.57627 22.6165L8.49467 27.5343C8.94707 27.9867 9.68077 27.9879 10.1343 27.5355C15.1861 22.4953 21.8857 19.72 29 19.72C36.1143 19.72 42.8138 22.4953 47.8651 27.5361C48.0918 27.7623 48.3882 27.8748 48.6846 27.8748C48.9816 27.8748 49.2779 27.7617 49.5047 27.5349L54.4231 22.6171C54.6406 22.3996 54.763 22.1044 54.763 21.797C54.763 21.4896 54.6412 21.1938 54.4237 20.9763ZM48.6678 25.0908C43.286 20.1225 36.3463 17.4 29 17.4C21.6537 17.4 14.714 20.1225 9.33219 25.0908L6.05113 21.8103C12.3018 15.9651 20.4067 12.76 29 12.76C37.5933 12.76 45.6982 15.9651 51.9488 21.8103L48.6678 25.0908ZM29 38.28C26.4416 38.28 24.36 40.3616 24.36 42.92C24.36 45.4784 26.4416 47.56 29 47.56C31.5584 47.56 33.64 45.4784 33.64 42.92C33.64 40.3616 31.5584 38.28 29 38.28ZM29 45.24C27.7205 45.24 26.68 44.1995 26.68 42.92C26.68 41.6405 27.7205 40.6 29 40.6C30.2795 40.6 31.32 41.6405 31.32 42.92C31.32 44.1995 30.2795 45.24 29 45.24Z" fill="white"/>
</svg>
