<svg xmlns="http://www.w3.org/2000/svg" width="17" height="17" viewBox="0 0 17 17" fill="none">
  <path d="M14.0114 9.12647C14.3451 9.12647 14.6156 8.85597 14.6156 8.5223C14.6156 8.18862 14.3451 7.91813 14.0114 7.91813V9.12647ZM3.7002 7.91813C3.36652 7.91813 3.09602 8.18862 3.09602 8.5223C3.09602 8.85597 3.36652 9.12647 3.7002 9.12647V7.91813ZM5.85269 12.1737C6.08968 12.4086 6.47222 12.4068 6.70711 12.1699C6.942 11.9329 6.94029 11.5503 6.7033 11.3154L5.85269 12.1737ZM5.14185 10.6185L5.56715 10.1894H5.56715L5.14185 10.6185ZM5.14185 6.4261L4.71655 5.99699V5.99699L5.14185 6.4261ZM6.7033 5.72916C6.94029 5.49428 6.942 5.11174 6.70711 4.87475C6.47222 4.63775 6.08969 4.63604 5.85269 4.87093L6.7033 5.72916ZM3.71301 8.72423L3.11369 8.80062L3.11369 8.80062L3.71301 8.72423ZM3.71301 8.32037L3.11369 8.24398L3.11369 8.24398L3.71301 8.32037ZM14.0114 7.91813H3.7002V9.12647H14.0114V7.91813ZM6.7033 11.3154L5.56715 10.1894L4.71655 11.0476L5.85269 12.1737L6.7033 11.3154ZM5.56715 6.85522L6.7033 5.72916L5.85269 4.87093L4.71655 5.99699L5.56715 6.85522ZM5.56715 10.1894C5.10404 9.73038 4.79361 9.42142 4.58489 9.16152C4.38382 8.91116 4.32734 8.76558 4.31234 8.64783L3.11369 8.80062C3.16844 9.23014 3.37335 9.58269 3.64275 9.91814C3.9045 10.2441 4.27361 10.6086 4.71655 11.0476L5.56715 10.1894ZM4.71655 5.99699C4.27361 6.43599 3.9045 6.80053 3.64275 7.12645C3.37335 7.46191 3.16844 7.81446 3.11369 8.24398L4.31234 8.39676C4.32734 8.27902 4.38382 8.13344 4.58489 7.88308C4.79361 7.62318 5.10404 7.31422 5.56715 6.85522L4.71655 5.99699ZM4.31234 8.64784C4.30171 8.56447 4.30171 8.48012 4.31234 8.39676L3.11369 8.24398C3.09013 8.42879 3.09013 8.61581 3.11369 8.80062L4.31234 8.64784Z" fill="white"/>
</svg>