<svg xmlns="http://www.w3.org/2000/svg" width="18" height="18" viewBox="0 0 18 18" fill="none">
  <path d="M11.8125 9.5625C11.8125 9.71168 11.7532 9.85476 11.6477 9.96025C11.5423 10.0657 11.3992 10.125 11.25 10.125H9.5625V11.8125C9.5625 11.9617 9.50324 12.1048 9.39775 12.2102C9.29226 12.3157 9.14918 12.375 9 12.375C8.85082 12.375 8.70774 12.3157 8.60225 12.2102C8.49676 12.1048 8.4375 11.9617 8.4375 11.8125V10.125H6.75C6.60082 10.125 6.45774 10.0657 6.35225 9.96025C6.24676 9.85476 6.1875 9.71168 6.1875 9.5625C6.1875 9.41332 6.24676 9.27024 6.35225 9.16475C6.45774 9.05926 6.60082 9 6.75 9H8.4375V7.3125C8.4375 7.16332 8.49676 7.02024 8.60225 6.91475C8.70774 6.80926 8.85082 6.75 9 6.75C9.14918 6.75 9.29226 6.80926 9.39775 6.91475C9.50324 7.02024 9.5625 7.16332 9.5625 7.3125V9H11.25C11.3992 9 11.5423 9.05926 11.6477 9.16475C11.7532 9.27024 11.8125 9.41332 11.8125 9.5625ZM16.3125 5.625V13.5C16.3125 13.9476 16.1347 14.3768 15.8182 14.6932C15.5018 15.0097 15.0726 15.1875 14.625 15.1875H3.375C2.92745 15.1875 2.49822 15.0097 2.18176 14.6932C1.86529 14.3768 1.6875 13.9476 1.6875 13.5V5.625C1.6875 5.17745 1.86529 4.74822 2.18176 4.43176C2.49822 4.11529 2.92745 3.9375 3.375 3.9375H5.32406L6.11719 2.75062C6.21974 2.59691 6.35858 2.47082 6.52144 2.38351C6.6843 2.2962 6.86615 2.25034 7.05094 2.25H10.9491C11.1338 2.25034 11.3157 2.2962 11.4786 2.38351C11.6414 2.47082 11.7803 2.59691 11.8828 2.75062L12.6759 3.9375H14.625C15.0726 3.9375 15.5018 4.11529 15.8182 4.43176C16.1347 4.74822 16.3125 5.17745 16.3125 5.625ZM15.1875 5.625C15.1875 5.47582 15.1282 5.33274 15.0227 5.22725C14.9173 5.12176 14.7742 5.0625 14.625 5.0625H12.375C12.2824 5.06256 12.1912 5.03974 12.1095 4.99608C12.0278 4.95241 11.9581 4.88924 11.9067 4.81219L10.9491 3.375H7.05094L6.09328 4.81219C6.04187 4.88924 5.97223 4.95241 5.89053 4.99608C5.80884 5.03974 5.71763 5.06256 5.625 5.0625H3.375C3.22582 5.0625 3.08274 5.12176 2.97725 5.22725C2.87176 5.33274 2.8125 5.47582 2.8125 5.625V13.5C2.8125 13.6492 2.87176 13.7923 2.97725 13.8977C3.08274 14.0032 3.22582 14.0625 3.375 14.0625H14.625C14.7742 14.0625 14.9173 14.0032 15.0227 13.8977C15.1282 13.7923 15.1875 13.6492 15.1875 13.5V5.625Z" fill="white"/>
</svg>