<svg width="8" height="13" viewBox="0 0 8 13" fill="none" xmlns="http://www.w3.org/2000/svg">
<path d="M3.0918 12.148V10.86C2.38246 10.7947 1.78513 10.6313 1.2998 10.37C0.814464 10.1087 0.394464 9.782 0.0397969 9.39L1.2998 8.242C1.57046 8.522 1.86913 8.75533 2.1958 8.942C2.52246 9.11933 2.8818 9.236 3.2738 9.292V6.772C2.21913 6.55733 1.46313 6.22133 1.0058 5.764C0.548464 5.30667 0.319797 4.73733 0.319797 4.056C0.319797 3.31867 0.55313 2.71667 1.0198 2.25C1.4958 1.78333 2.18646 1.49867 3.0918 1.396V0.0799996H4.6878V1.396C5.2478 1.46133 5.7378 1.60133 6.1578 1.816C6.5778 2.02133 6.9418 2.30133 7.2498 2.656L5.9758 3.804C5.8078 3.61733 5.60713 3.44933 5.3738 3.3C5.14046 3.15067 4.8558 3.03867 4.5198 2.964V5.288C5.50913 5.512 6.23713 5.834 6.7038 6.254C7.1798 6.674 7.4178 7.24333 7.4178 7.962C7.4178 8.65267 7.1938 9.25933 6.7458 9.782C6.30713 10.3047 5.62113 10.6453 4.6878 10.804V12.148H3.0918ZM2.2518 4C2.2518 4.27067 2.33113 4.48067 2.4898 4.63C2.6578 4.77933 2.91913 4.90533 3.2738 5.008V2.936C2.91913 3.01067 2.6578 3.14133 2.4898 3.328C2.33113 3.50533 2.2518 3.72933 2.2518 4ZM5.4858 8.116C5.4858 7.91067 5.42513 7.71467 5.3038 7.528C5.18246 7.332 4.92113 7.17333 4.5198 7.052V9.264C4.84646 9.17067 5.08913 9.026 5.2478 8.83C5.40646 8.62467 5.4858 8.38667 5.4858 8.116Z" fill="#FFFFFF"/>
</svg>
