<svg xmlns="http://www.w3.org/2000/svg" width="22" height="22" viewBox="0 0 22 22" fill="none">
  <path d="M19.25 4.12463V8.24963C19.25 8.43196 19.1776 8.60683 19.0486 8.73576C18.9197 8.8647 18.7448 8.93713 18.5625 8.93713H14.4375C14.3014 8.93724 14.1684 8.89697 14.0553 8.82144C13.9421 8.7459 13.8539 8.63849 13.8018 8.5128C13.7497 8.38711 13.7361 8.24879 13.7627 8.11536C13.7893 7.98192 13.8548 7.85937 13.9511 7.76322L15.5246 6.18713C14.2588 4.97433 12.5751 4.29465 10.8221 4.28877H10.7834C8.98713 4.28525 7.26166 4.98914 5.98039 6.24814C5.8491 6.37071 5.67505 6.43703 5.49548 6.43291C5.31592 6.42879 5.1451 6.35456 5.01956 6.2261C4.89402 6.09765 4.82374 5.92516 4.82375 5.74555C4.82376 5.56594 4.89406 5.39346 5.01961 5.26502C6.5522 3.76763 8.60724 2.92523 10.7499 2.91609C12.8925 2.90695 14.9547 3.73177 16.5 5.21603L18.0778 3.63822C18.1741 3.54255 18.2965 3.4775 18.4296 3.45127C18.5627 3.42504 18.7007 3.43879 18.826 3.4908C18.9513 3.54281 19.0585 3.63075 19.1339 3.74354C19.2094 3.85633 19.2498 3.98893 19.25 4.12463ZM16.0196 15.7511C14.7461 16.9949 13.0399 17.6963 11.2598 17.7077C9.47975 17.7191 7.76466 17.0396 6.47539 15.8121L8.04891 14.2386C8.14606 14.1426 8.2124 14.0198 8.23949 13.886C8.26658 13.7521 8.25317 13.6132 8.20098 13.4869C8.1488 13.3607 8.0602 13.2529 7.94648 13.1772C7.83276 13.1016 7.69909 13.0615 7.5625 13.0621H3.4375C3.25516 13.0621 3.0803 13.1346 2.95136 13.2635C2.82243 13.3924 2.75 13.5673 2.75 13.7496V17.8746C2.74989 18.0107 2.79016 18.1437 2.86569 18.2569C2.94123 18.37 3.04864 18.4582 3.17433 18.5103C3.30002 18.5624 3.43834 18.576 3.57177 18.5494C3.70521 18.5229 3.82776 18.4573 3.92391 18.361L5.5 16.7832C7.02298 18.2531 9.05531 19.0771 11.1719 19.0829H11.2174C13.3728 19.0885 15.4436 18.2446 16.9813 16.7342C17.1068 16.6058 17.1771 16.4333 17.1771 16.2537C17.1771 16.0741 17.1068 15.9016 16.9813 15.7732C16.8558 15.6447 16.6849 15.5705 16.5054 15.5663C16.3258 15.5622 16.1518 15.6285 16.0205 15.7511H16.0196Z" fill="url(#paint0_radial_191_289)"/>
  <defs>
    <radialGradient id="paint0_radial_191_289" cx="0" cy="0" r="1" gradientUnits="userSpaceOnUse" gradientTransform="translate(11 19.0829) rotate(-90) scale(16.9753 17.325)">
      <stop stop-color="#3B9A6C"/>
      <stop offset="1" stop-color="#3FB991"/>
    </radialGradient>
  </defs>
</svg>