<svg width="25" height="24" viewBox="0 0 25 24" fill="none" xmlns="http://www.w3.org/2000/svg">
<g id="phone">
<path id="Icon" d="M8.88028 8.85335C9.57627 10.303 10.5251 11.6616 11.7266 12.8632C12.9282 14.0648 14.2869 15.0136 15.7365 15.7096C15.8612 15.7694 15.9235 15.7994 16.0024 15.8224C16.2828 15.9041 16.627 15.8454 16.8644 15.6754C16.9313 15.6275 16.9884 15.5704 17.1027 15.4561C17.4523 15.1064 17.6271 14.9316 17.8029 14.8174C18.4658 14.3864 19.3204 14.3864 19.9833 14.8174C20.1591 14.9316 20.3339 15.1064 20.6835 15.4561L20.8783 15.6509C21.4098 16.1824 21.6755 16.4481 21.8198 16.7335C22.1069 17.301 22.1069 17.9713 21.8198 18.5389C21.6755 18.8242 21.4098 19.09 20.8783 19.6214L20.7207 19.779C20.1911 20.3087 19.9263 20.5735 19.5662 20.7757C19.1667 21.0001 18.5462 21.1615 18.088 21.1601C17.6751 21.1589 17.3928 21.0788 16.8284 20.9186C13.795 20.0576 10.9326 18.4332 8.54466 16.0452C6.15668 13.6572 4.53221 10.7948 3.67124 7.76144C3.51103 7.19699 3.43092 6.91477 3.4297 6.50182C3.42833 6.0436 3.58969 5.42311 3.81411 5.0236C4.01636 4.66357 4.28117 4.39876 4.8108 3.86913L4.96843 3.7115C5.49987 3.18006 5.7656 2.91433 6.05098 2.76999C6.61854 2.48292 7.2888 2.48292 7.85636 2.76999C8.14174 2.91433 8.40747 3.18006 8.93891 3.7115L9.13378 3.90637C9.48338 4.25597 9.65819 4.43078 9.77247 4.60655C10.2035 5.26945 10.2035 6.12403 9.77247 6.78692C9.65819 6.96269 9.48338 7.1375 9.13378 7.4871C9.01947 7.60142 8.96231 7.65857 8.91447 7.72538C8.74446 7.96281 8.68576 8.30707 8.76748 8.58743C8.79048 8.66632 8.82041 8.72866 8.88028 8.85335Z" stroke="#2B7EE0" stroke-width="2" stroke-linecap="round" stroke-linejoin="round"/>
</g>
</svg>
