<svg width="68" height="68" viewBox="0 0 68 68" fill="none" xmlns="http://www.w3.org/2000/svg">
<rect width="68" height="68" rx="11" fill="#151419"/>
<path d="M42.1378 40.1778C48.1553 41.9371 53.4407 45.5991 57.2018 50.615C60.9629 55.6309 62.9973 61.7306 63 68H5C5.00129 61.7302 7.03509 55.6299 10.7964 50.6137C14.5578 45.5975 19.8439 41.9358 25.8622 40.1778L34 52.3846L42.1378 40.1778ZM48.5 24.5C48.5 28.3456 46.9723 32.0338 44.253 34.753C41.5338 37.4723 37.8456 39 34 39C30.1544 39 26.4662 37.4723 23.747 34.753C21.0277 32.0338 19.5 28.3456 19.5 24.5C19.5 20.6544 21.0277 16.9662 23.747 14.247C26.4662 11.5277 30.1544 10 34 10C37.8456 10 41.5338 11.5277 44.253 14.247C46.9723 16.9662 48.5 20.6544 48.5 24.5Z" fill="url(#paint0_linear_320_46)"/>
<defs>
<linearGradient id="paint0_linear_320_46" x1="34" y1="10" x2="34" y2="68" gradientUnits="userSpaceOnUse">
<stop stop-color="#26252C"/>
<stop offset="1" stop-color="#7E7B92" stop-opacity="0"/>
</linearGradient>
</defs>
</svg>
