<svg width="20" height="21" viewBox="0 0 20 21" fill="none" xmlns="http://www.w3.org/2000/svg">
<path d="M15.834 11.7031H10.834V16.7031C10.834 16.9241 10.7462 17.1361 10.5899 17.2924C10.4336 17.4487 10.2217 17.5365 10.0007 17.5365C9.77964 17.5365 9.56768 17.4487 9.4114 17.2924C9.25512 17.1361 9.16732 16.9241 9.16732 16.7031V11.7031H4.16732C3.9463 11.7031 3.73434 11.6153 3.57806 11.459C3.42178 11.3028 3.33398 11.0908 3.33398 10.8698C3.33398 10.6488 3.42178 10.4368 3.57806 10.2805C3.73434 10.1243 3.9463 10.0365 4.16732 10.0365H9.16732V5.03646C9.16732 4.81544 9.25512 4.60348 9.4114 4.4472C9.56768 4.29092 9.77964 4.20312 10.0007 4.20312C10.2217 4.20312 10.4336 4.29092 10.5899 4.4472C10.7462 4.60348 10.834 4.81544 10.834 5.03646V10.0365H15.834C16.055 10.0365 16.267 10.1243 16.4232 10.2805C16.5795 10.4368 16.6673 10.6488 16.6673 10.8698C16.6673 11.0908 16.5795 11.3028 16.4232 11.459C16.267 11.6153 16.055 11.7031 15.834 11.7031Z" fill="#F5F5F5"/>
</svg>
