<svg xmlns="http://www.w3.org/2000/svg" width="16" height="16" viewBox="0 0 16 16" fill="none">
  <path d="M2.48885 7.37359C2.15518 7.37359 1.88468 7.64409 1.88468 7.97776C1.88468 8.31144 2.15518 8.58194 2.48885 8.58194L2.48885 7.37359ZM12.8 8.58194C13.1337 8.58194 13.4042 8.31144 13.4042 7.97776C13.4042 7.64409 13.1337 7.37359 12.8 7.37359L12.8 8.58194ZM10.6476 4.3264C10.4106 4.09151 10.028 4.09322 9.79313 4.33021C9.55824 4.5672 9.55995 4.94974 9.79695 5.18463L10.6476 4.3264ZM11.3584 5.88157L10.9331 6.31068L10.9331 6.31068L11.3584 5.88157ZM11.3584 10.074L11.7837 10.5031L11.7837 10.5031L11.3584 10.074ZM9.79695 10.7709C9.55995 11.0058 9.55824 11.3883 9.79313 11.6253C10.028 11.8623 10.4106 11.864 10.6476 11.6291L9.79695 10.7709ZM12.7872 7.77584L13.3866 7.69945L13.3866 7.69944L12.7872 7.77584ZM12.7872 8.17969L13.3866 8.25608L13.3866 8.25608L12.7872 8.17969ZM2.48885 8.58194L12.8 8.58194L12.8 7.37359L2.48885 7.37359L2.48885 8.58194ZM9.79695 5.18463L10.9331 6.31068L11.7837 5.45245L10.6476 4.3264L9.79695 5.18463ZM10.9331 9.64484L9.79695 10.7709L10.6476 11.6291L11.7837 10.5031L10.9331 9.64484ZM10.9331 6.31068C11.3962 6.76969 11.7066 7.07865 11.9154 7.33854C12.1164 7.5889 12.1729 7.73449 12.1879 7.85223L13.3866 7.69944C13.3318 7.26992 13.1269 6.91737 12.8575 6.58192C12.5957 6.256 12.2266 5.89145 11.7837 5.45245L10.9331 6.31068ZM11.7837 10.5031C12.2266 10.0641 12.5957 9.69953 12.8575 9.37361C13.1269 9.03815 13.3318 8.6856 13.3866 8.25608L12.1879 8.1033C12.1729 8.22104 12.1164 8.36662 11.9154 8.61699C11.7066 8.87688 11.3962 9.18584 10.9331 9.64484L11.7837 10.5031ZM12.1879 7.85223C12.1985 7.93559 12.1985 8.01994 12.1879 8.1033L13.3866 8.25608C13.4101 8.07127 13.4101 7.88425 13.3866 7.69945L12.1879 7.85223Z" fill="white"/>
</svg>