<svg width="16" height="16" viewBox="0 0 16 16" fill="none" xmlns="http://www.w3.org/2000/svg">
<path d="M1.5 3.66602H2.94444H14.5" stroke="white" stroke-width="1.44444" stroke-linecap="round" stroke-linejoin="round"/>
<path d="M5.111 3.66623V2.22179C5.111 1.8387 5.26318 1.4713 5.53407 1.20041C5.80496 0.929526 6.17236 0.777344 6.55545 0.777344H9.44434C9.82743 0.777344 10.1948 0.929526 10.4657 1.20041C10.7366 1.4713 10.8888 1.8387 10.8888 2.22179V3.66623M13.0554 3.66623V13.7773C13.0554 14.1604 12.9033 14.5278 12.6324 14.7987C12.3615 15.0696 11.9941 15.2218 11.611 15.2218H4.38878C4.00569 15.2218 3.63829 15.0696 3.3674 14.7987C3.09652 14.5278 2.94434 14.1604 2.94434 13.7773V3.66623H13.0554Z" stroke="white" stroke-width="1.44444" stroke-linecap="round" stroke-linejoin="round"/>
</svg>
