<svg width="22" height="22" viewBox="0 0 22 22" fill="none" xmlns="http://www.w3.org/2000/svg">
<path d="M8.09135 4.46875V7.90625H4.38942C4.31929 7.90625 4.25204 7.87003 4.20245 7.80557C4.15286 7.7411 4.125 7.65367 4.125 7.5625V5.5C4.125 5.13533 4.23644 4.78559 4.43479 4.52773C4.63315 4.26987 4.90217 4.125 5.18269 4.125H7.82692C7.89705 4.125 7.96431 4.16122 8.0139 4.22568C8.06349 4.29015 8.09135 4.37758 8.09135 4.46875ZM9.14904 17.5312C9.14904 17.6224 9.1769 17.7099 9.22649 17.7743C9.27607 17.8388 9.34333 17.875 9.41346 17.875H12.5865C12.6567 17.875 12.7239 17.8388 12.7735 17.7743C12.8231 17.7099 12.851 17.6224 12.851 17.5312V14.0938H9.14904V17.5312ZM4.125 9.625V12.375C4.125 12.4662 4.15286 12.5536 4.20245 12.6181C4.25204 12.6825 4.31929 12.7188 4.38942 12.7188H8.09135V9.28125H4.38942C4.31929 9.28125 4.25204 9.31747 4.20245 9.38193C4.15286 9.4464 4.125 9.53383 4.125 9.625ZM12.5865 4.125H9.41346C9.34333 4.125 9.27607 4.16122 9.22649 4.22568C9.1769 4.29015 9.14904 4.37758 9.14904 4.46875V7.90625H12.851V4.46875C12.851 4.37758 12.8231 4.29015 12.7735 4.22568C12.7239 4.16122 12.6567 4.125 12.5865 4.125ZM17.6106 9.28125H13.9087V12.7188H17.6106C17.6807 12.7188 17.748 12.6825 17.7976 12.6181C17.8471 12.5536 17.875 12.4662 17.875 12.375V9.625C17.875 9.53383 17.8471 9.4464 17.7976 9.38193C17.748 9.31747 17.6807 9.28125 17.6106 9.28125ZM9.14904 12.7188H12.851V9.28125H9.14904V12.7188ZM16.8173 4.125H14.1731C14.1029 4.125 14.0357 4.16122 13.9861 4.22568C13.9365 4.29015 13.9087 4.37758 13.9087 4.46875V7.90625H17.6106C17.6807 7.90625 17.748 7.87003 17.7976 7.80557C17.8471 7.7411 17.875 7.65367 17.875 7.5625V5.5C17.875 5.13533 17.7636 4.78559 17.5652 4.52773C17.3669 4.26987 17.0978 4.125 16.8173 4.125Z" fill="black"/>
</svg>
