<svg width="128" height="128" viewBox="0 0 128 128" fill="none" xmlns="http://www.w3.org/2000/svg">
<rect width="128" height="128" rx="50" fill="url(#paint0_radial_19_543)"/>
<rect x="0.5" y="0.5" width="127" height="127" rx="49.5" stroke="white" stroke-opacity="0.25" style="mix-blend-mode:overlay"/>
<path d="M89.8503 60.451C89.7019 60.1021 89.4505 59.8039 89.128 59.5941C88.8055 59.3843 88.4263 59.2723 88.0384 59.2722H78.231V33.909C78.231 33.4027 78.0243 32.9172 77.6565 32.5591C77.2886 32.2011 76.7897 32 76.2695 32H52.7319C52.2116 32 51.7127 32.2011 51.3449 32.5591C50.977 32.9172 50.7704 33.4027 50.7704 33.909V59.2722H40.963C40.5749 59.2719 40.1953 59.3837 39.8725 59.5934C39.5496 59.8032 39.298 60.1014 39.1494 60.4505C39.0008 60.7995 38.962 61.1835 39.0378 61.554C39.1136 61.9246 39.3006 62.2649 39.5753 62.5318L63.1129 85.4401C63.2951 85.6176 63.5114 85.7584 63.7496 85.8545C63.9877 85.9506 64.2429 86 64.5007 86C64.7585 86 65.0137 85.9506 65.2518 85.8545C65.4899 85.7584 65.7063 85.6176 65.8884 85.4401L89.4261 62.5318C89.7003 62.2647 89.887 61.9244 89.9625 61.554C90.038 61.1837 89.9989 60.7998 89.8503 60.451Z" fill="#F1FFE9"/>
<path d="M42.6513 91.7322C42.2343 92.2011 42 92.837 42 93.5C42 94.163 42.2343 94.7989 42.6513 95.2678C43.0684 95.7366 43.634 96 44.2238 96H84.7762C85.366 96 85.9316 95.7366 86.3487 95.2678C86.7657 94.7989 87 94.163 87 93.5C87 92.837 86.7657 92.2011 86.3487 91.7322C85.9316 91.2634 85.366 91 84.7762 91H44.2238C43.634 91 43.0684 91.2634 42.6513 91.7322Z" fill="#F1FFE9"/>
<defs>
<radialGradient id="paint0_radial_19_543" cx="0" cy="0" r="1" gradientUnits="userSpaceOnUse" gradientTransform="translate(64 128) rotate(-90) scale(128)">
<stop stop-color="#7C5FFF"/>
<stop offset="1" stop-color="#5D5AFF"/>
</radialGradient>
</defs>
</svg>
