<svg width="128" height="128" viewBox="0 0 128 128" fill="none" xmlns="http://www.w3.org/2000/svg">
<rect width="128" height="128" rx="35" fill="url(#paint0_radial_1_50)"/>
<rect x="0.5" y="0.5" width="127" height="127" rx="34.5" stroke="white" stroke-opacity="0.25"/>
<rect x="20" y="20" width="42" height="42" rx="15" fill="#FFE8BD"/>
<path d="M53.5 41C53.5 41.3978 53.342 41.7794 53.0607 42.0607C52.7794 42.342 52.3978 42.5 52 42.5H42.5V52C42.5 52.3978 42.342 52.7794 42.0607 53.0607C41.7794 53.342 41.3978 53.5 41 53.5C40.6022 53.5 40.2206 53.342 39.9393 53.0607C39.658 52.7794 39.5 52.3978 39.5 52V42.5H30C29.6022 42.5 29.2206 42.342 28.9393 42.0607C28.658 41.7794 28.5 41.3978 28.5 41C28.5 40.6022 28.658 40.2206 28.9393 39.9393C29.2206 39.658 29.6022 39.5 30 39.5H39.5V30C39.5 29.6022 39.658 29.2206 39.9393 28.9393C40.2206 28.658 40.6022 28.5 41 28.5C41.3978 28.5 41.7794 28.658 42.0607 28.9393C42.342 29.2206 42.5 29.6022 42.5 30V39.5H52C52.3978 39.5 52.7794 39.658 53.0607 39.9393C53.342 40.2206 53.5 40.6022 53.5 41Z" fill="#FDA222"/>
<rect x="20" y="66" width="42" height="42" rx="15" fill="#FFE8BD"/>
<rect x="66" y="20" width="42" height="42" rx="15" fill="#FFE8BD"/>
<path d="M99.5 41C99.5 41.3978 99.342 41.7794 99.0607 42.0607C98.7794 42.342 98.3978 42.5 98 42.5H76C75.6022 42.5 75.2206 42.342 74.9393 42.0607C74.658 41.7794 74.5 41.3978 74.5 41C74.5 40.6022 74.658 40.2206 74.9393 39.9393C75.2206 39.658 75.6022 39.5 76 39.5H98C98.3978 39.5 98.7794 39.658 99.0607 39.9393C99.342 40.2206 99.5 40.6022 99.5 41Z" fill="#FDA222"/>
<rect x="66" y="66" width="42" height="42" rx="15" fill="#FFE8BD"/>
<path d="M99.5 91C99.5 91.3978 99.342 91.7794 99.0607 92.0607C98.7794 92.342 98.3978 92.5 98 92.5H76C75.6022 92.5 75.2206 92.342 74.9393 92.0607C74.658 91.7794 74.5 91.3978 74.5 91C74.5 90.6022 74.658 90.2206 74.9393 89.9393C75.2206 89.658 75.6022 89.5 76 89.5H98C98.3978 89.5 98.7794 89.658 99.0607 89.9393C99.342 90.2206 99.5 90.6022 99.5 91ZM76 84.5H98C98.3978 84.5 98.7794 84.342 99.0607 84.0607C99.342 83.7794 99.5 83.3978 99.5 83C99.5 82.6022 99.342 82.2206 99.0607 81.9393C98.7794 81.658 98.3978 81.5 98 81.5H76C75.6022 81.5 75.2206 81.658 74.9393 81.9393C74.658 82.2206 74.5 82.6022 74.5 83C74.5 83.3978 74.658 83.7794 74.9393 84.0607C75.2206 84.342 75.6022 84.5 76 84.5Z" fill="#FDA222"/>
<g clip-path="url(#clip0_1_50)">
<path d="M49.8388 78.1612C50.1201 78.4425 50.2782 78.824 50.2782 79.2218C50.2782 79.6197 50.1201 80.0012 49.8388 80.2825L43.1213 87L49.8388 93.7175C50.1201 93.9988 50.2782 94.3803 50.2782 94.7782C50.2782 95.176 50.1201 95.5575 49.8388 95.8388C49.5575 96.1201 49.176 96.2782 48.7782 96.2782C48.3803 96.2782 47.9988 96.1201 47.7175 95.8388L41 89.1213L34.2825 95.8388C34.0012 96.1201 33.6196 96.2782 33.2218 96.2782C32.824 96.2782 32.4425 96.1201 32.1612 95.8388C31.8799 95.5575 31.7218 95.176 31.7218 94.7782C31.7218 94.3803 31.8799 93.9988 32.1612 93.7175L38.8787 87L32.1612 80.2825C31.8799 80.0012 31.7218 79.6197 31.7218 79.2218C31.7218 78.824 31.8799 78.4425 32.1612 78.1612C32.4425 77.8799 32.824 77.7218 33.2218 77.7218C33.6196 77.7218 34.0012 77.8799 34.2825 78.1612L41 84.8787L47.7175 78.1612C47.9988 77.8799 48.3803 77.7218 48.7782 77.7218C49.176 77.7218 49.5575 77.8799 49.8388 78.1612Z" fill="#FDA222"/>
</g>
<defs>
<radialGradient id="paint0_radial_1_50" cx="0" cy="0" r="1" gradientUnits="userSpaceOnUse" gradientTransform="translate(64 128) rotate(-90) scale(128)">
<stop stop-color="#FDA120"/>
<stop offset="1" stop-color="#FEBE44"/>
</radialGradient>
<clipPath id="clip0_1_50">
<rect width="32" height="32" fill="white" transform="translate(25 71)"/>
</clipPath>
</defs>
</svg>
