<svg width="292" height="292" viewBox="0 0 292 292" fill="none" xmlns="http://www.w3.org/2000/svg">
<g clip-path="url(#clip0_41_633)">
<rect width="292" height="292" fill="#00BF8F"/>
<path d="M-71.4763 201.301L-182 245.62L-15.5026 245.62H33.2688H71.783H78.5015L94.3488 245.62H138.94H177.454H185.384L307 245.62L208.337 208.515L198.633 189.963L128.545 40L64.9261 95.6564L-5.16206 43.092L-71.4763 201.301Z" fill="#06080F"/>
<path d="M73.0132 238.92C73.0132 241.273 72.579 243.53 71.783 245.62C68.9204 253.136 61.3789 258.503 52.5259 258.503C43.6729 258.503 36.1314 253.136 33.2688 245.62C32.4728 243.53 32.0386 241.273 32.0386 238.92C32.0386 228.105 41.2111 219.337 52.5259 219.337C63.8408 219.337 73.0132 228.105 73.0132 238.92Z" fill="#06080F"/>
<path d="M178.685 238.92C178.685 241.273 178.25 243.53 177.454 245.62C174.592 253.136 167.05 258.503 158.197 258.503C149.344 258.503 141.803 253.136 138.94 245.62C138.144 243.53 137.71 241.273 137.71 238.92C137.71 228.105 146.883 219.337 158.197 219.337C169.512 219.337 178.685 228.105 178.685 238.92Z" fill="#06080F"/>
<path fill-rule="evenodd" clip-rule="evenodd" d="M82.7178 225.521C82.7178 227.261 82.6285 228.98 82.4544 230.675L90.5208 230.675C90.3521 228.98 90.2657 227.261 90.2657 225.521C90.2657 197.629 112.473 175.018 139.867 175.018C167.26 175.018 189.467 197.629 189.467 225.521C189.467 227.261 189.381 228.98 189.212 230.675H204.563L218.581 292L-72.0154 292L-64.4675 230.675H-19.4555C-19.6296 228.98 -19.7188 227.261 -19.7188 225.521C-19.7188 197.629 3.21237 175.018 31.4995 175.018C59.7865 175.018 82.7178 197.629 82.7178 225.521ZM78.5015 245.62H71.783C68.9204 253.136 61.3789 258.503 52.5259 258.503C43.6729 258.503 36.1314 253.136 33.2688 245.62H-15.5026C-7.62296 263.511 10.4563 276.025 31.4995 276.025C52.5426 276.025 70.6219 263.511 78.5015 245.62ZM158.197 258.503C167.05 258.503 174.592 253.136 177.454 245.62H185.384C177.754 263.511 160.245 276.025 139.867 276.025C119.488 276.025 101.98 263.511 94.3488 245.62H138.94C141.803 253.136 149.344 258.503 158.197 258.503Z" fill="#06080F"/>
</g>
<defs>
<clipPath id="clip0_41_633">
<rect width="292" height="292" fill="white"/>
</clipPath>
</defs>
</svg>
