<svg width="55" height="55" viewBox="0 0 55 55" fill="none" xmlns="http://www.w3.org/2000/svg">
<rect width="55" height="55" rx="6" fill="#FDFDFD"/>
<path fill-rule="evenodd" clip-rule="evenodd" d="M31.0594 55C27.0926 43.0329 15.7797 34.3971 2.44305 34.3971C1.6206 34.3971 0.80584 34.43 2.87991e-05 34.4944V52.7175C2.87991e-05 53.3228 0.241469 53.9034 0.67124 54.3315C1.10101 54.7595 1.6839 55 2.29169 55H31.0594Z" fill="#FF8000"/>
<path fill-rule="evenodd" clip-rule="evenodd" d="M2.87991e-05 30.9082C9.64877 26.4789 16.5473 17.1163 17.4413 6.06389L1.34351 22.0975C0.915844 22.5203 0.576836 23.0235 0.346194 23.578C0.115553 24.1325 -0.00211594 24.7271 2.87991e-05 25.3272V30.9082Z" fill="#FF8000"/>
<path fill-rule="evenodd" clip-rule="evenodd" d="M17.349 0C17.9661 1.39771 18.6867 2.73838 19.5006 4.0128C25.0681 12.7299 35.005 18.3472 46.1122 17.9155C47.1508 17.8752 48.175 17.7829 49.1824 17.6413" fill="#FF8000"/>
<path fill-rule="evenodd" clip-rule="evenodd" d="M51.5792 20.0285C39.8391 24.4987 31.7134 36.0479 32.2302 49.2579C32.3073 51.2293 32.5735 53.1489 33.0106 55H52.7083C53.3161 55 53.899 54.7595 54.3288 54.3315C54.7585 53.9034 55 53.3228 55 52.7175V25.3272C55.0021 24.7271 54.8844 24.1325 54.6538 23.578C54.4232 23.0235 54.0842 22.5203 53.6565 22.0975L51.5792 20.0285Z" fill="#FF8000"/>
</svg>
