<svg width="24" height="24" viewBox="0 0 24 24" fill="none" xmlns="http://www.w3.org/2000/svg">
<g id="Frame 4682">
<path id="@" d="M11.5736 17.0822C10.6348 17.0822 9.77837 16.8584 9.0043 16.4108C8.24669 15.9467 7.63731 15.3085 7.17615 14.4962C6.715 13.684 6.48443 12.7474 6.48443 11.6865C6.48443 10.6256 6.715 9.68901 7.17615 8.87676C7.63731 8.0645 8.25492 7.43459 9.029 6.98703C9.80308 6.52288 10.6513 6.29081 11.5736 6.29081C12.3806 6.29081 13.0888 6.48144 13.6982 6.8627C14.324 7.22739 14.8099 7.74126 15.1557 8.40432C15.5181 9.06739 15.6992 9.8382 15.6992 10.7168C15.6992 10.8991 15.691 11.0897 15.6745 11.2886C15.6581 11.471 15.6251 11.6616 15.5757 11.8605L14.9334 11.587C14.9334 10.9737 14.8099 10.4432 14.5628 9.99568C14.3323 9.53153 14.0029 9.17513 13.5747 8.92649C13.1629 8.66126 12.677 8.52865 12.1171 8.52865C11.5571 8.52865 11.063 8.66955 10.6348 8.95135C10.2066 9.23315 9.86896 9.61442 9.62191 10.0951C9.37487 10.5593 9.25134 11.0897 9.25134 11.6865C9.25134 12.2832 9.37487 12.822 9.62191 13.3027C9.86896 13.7668 10.2148 14.1398 10.6595 14.4216C11.1042 14.7034 11.6148 14.8443 12.1912 14.8443C12.8006 14.8443 13.3358 14.7034 13.797 14.4216C14.2746 14.1232 14.6452 13.7337 14.9087 13.253C15.1887 12.7723 15.3369 12.2418 15.3534 11.6616L16.0698 12.0843C16.218 13.0458 16.1028 13.9077 15.724 14.6703C15.3616 15.4162 14.8099 16.0047 14.0687 16.4357C13.3276 16.8667 12.4959 17.0822 11.5736 17.0822ZM18.1697 18.2757L20.0473 20.4886C19.6026 20.9362 19.0097 21.3506 18.2685 21.7319C17.5439 22.1132 16.6957 22.4198 15.724 22.6519C14.7687 22.884 13.7393 23 12.6359 23C10.9724 23 9.43251 22.7099 8.01611 22.1297C6.61618 21.5661 5.38919 20.7705 4.33512 19.7427C3.28106 18.715 2.45757 17.5132 1.86466 16.1373C1.28822 14.7614 1 13.2695 1 11.6616C1 10.004 1.29646 8.47063 1.88937 7.06162C2.49875 5.63604 3.3387 4.40108 4.40924 3.35676C5.49624 2.29586 6.75618 1.47531 8.18904 0.895134C9.63838 0.298378 11.203 0 12.8829 0C14.4805 0 15.9545 0.281802 17.305 0.845405C18.6556 1.40901 19.8332 2.1964 20.8378 3.20757C21.8425 4.20216 22.6165 5.36252 23.16 6.68865C23.72 8.01477 24 9.44036 24 10.9654C24 12.8717 23.5553 14.3719 22.666 15.4659C21.7766 16.5434 20.5331 17.0822 18.9356 17.0822C17.7497 17.0822 16.7863 16.7175 16.0451 15.9881C15.304 15.2422 14.9334 14.2641 14.9334 13.0541V9.39892L14.9581 9.29946V6.61405H17.6509V12.5568C17.6509 13.253 17.7909 13.7586 18.0709 14.0735C18.3509 14.3885 18.7297 14.5459 19.2073 14.5459C19.8496 14.5459 20.3437 14.2476 20.6896 13.6508C21.0354 13.0541 21.2084 12.2004 21.2084 11.0897C21.2084 9.46522 20.8543 8.01477 20.1461 6.73838C19.4379 5.4454 18.4579 4.43423 17.2062 3.70486C15.9545 2.95892 14.5134 2.58595 12.8829 2.58595C11.5983 2.58595 10.4042 2.81802 9.30075 3.28216C8.19728 3.74631 7.2338 4.39279 6.41031 5.22162C5.58682 6.03387 4.9445 6.99531 4.48335 8.10595C4.03867 9.2 3.81633 10.3935 3.81633 11.6865C3.81633 12.8966 4.03867 14.0321 4.48335 15.093C4.92803 16.1539 5.54565 17.0822 6.3362 17.8778C7.12675 18.6735 8.05729 19.2951 9.12782 19.7427C10.1984 20.1903 11.3595 20.4141 12.6112 20.4141C13.8299 20.4141 14.9334 20.2151 15.9216 19.8173C16.9098 19.4195 17.6591 18.9056 18.1697 18.2757Z" fill="#7F50CC"/>
</g>
</svg>
