<svg width="30" height="30" viewBox="0 0 30 30" fill="none" xmlns="http://www.w3.org/2000/svg">
<g id="message-dots-circle">
<path id="Icon" d="M9.375 15H9.3875M15 15H15.0125M20.625 15H20.6375M15 26.25C21.2132 26.25 26.25 21.2132 26.25 15C26.25 8.7868 21.2132 3.75 15 3.75C8.7868 3.75 3.75 8.7868 3.75 15C3.75 16.4964 4.04217 17.9246 4.57258 19.2306C4.67409 19.4806 4.72485 19.6056 4.74749 19.7066C4.76964 19.8054 4.77775 19.8786 4.77776 19.9798C4.77777 20.0834 4.75898 20.1961 4.72139 20.4217L3.98016 24.869C3.90254 25.3348 3.86373 25.5676 3.93595 25.736C3.99916 25.8834 4.1166 26.0008 4.26398 26.0641C4.43237 26.1363 4.66523 26.0975 5.13095 26.0198L9.57831 25.2786C9.80386 25.241 9.91663 25.2222 10.0202 25.2222C10.1214 25.2223 10.1946 25.2304 10.2934 25.2525C10.3944 25.2752 10.5194 25.3259 10.7694 25.4274C12.0754 25.9578 13.5036 26.25 15 26.25ZM10 15C10 15.3452 9.72018 15.625 9.375 15.625C9.02982 15.625 8.75 15.3452 8.75 15C8.75 14.6548 9.02982 14.375 9.375 14.375C9.72018 14.375 10 14.6548 10 15ZM15.625 15C15.625 15.3452 15.3452 15.625 15 15.625C14.6548 15.625 14.375 15.3452 14.375 15C14.375 14.6548 14.6548 14.375 15 14.375C15.3452 14.375 15.625 14.6548 15.625 15ZM21.25 15C21.25 15.3452 20.9702 15.625 20.625 15.625C20.2798 15.625 20 15.3452 20 15C20 14.6548 20.2798 14.375 20.625 14.375C20.9702 14.375 21.25 14.6548 21.25 15Z" stroke="white" stroke-width="2.5" stroke-linecap="round" stroke-linejoin="round"/>
</g>
</svg>
