<svg width="16" height="16" viewBox="0 0 16 16" fill="none" xmlns="http://www.w3.org/2000/svg">
<path d="M1.5 3.66675H2.94444H14.5" stroke="white" stroke-width="1.44444" stroke-linecap="round" stroke-linejoin="round"/>
<path d="M5.111 3.66672V2.22228C5.111 1.83919 5.26318 1.47179 5.53407 1.2009C5.80496 0.930014 6.17236 0.777832 6.55545 0.777832H9.44434C9.82743 0.777832 10.1948 0.930014 10.4657 1.2009C10.7366 1.47179 10.8888 1.83919 10.8888 2.22228V3.66672M13.0554 3.66672V13.7778C13.0554 14.1609 12.9033 14.5283 12.6324 14.7992C12.3615 15.0701 11.9941 15.2223 11.611 15.2223H4.38878C4.00569 15.2223 3.63829 15.0701 3.3674 14.7992C3.09652 14.5283 2.94434 14.1609 2.94434 13.7778V3.66672H13.0554Z" stroke="white" stroke-width="1.44444" stroke-linecap="round" stroke-linejoin="round"/>
</svg>
