<svg width="22" height="23" viewBox="0 0 22 23" fill="none" xmlns="http://www.w3.org/2000/svg">
<path d="M17.6526 14.2915C16.8284 14.8153 15.8818 15.0907 14.9172 15.0875C14.1092 15.0808 13.3103 14.908 12.566 14.579C11.9924 15.4256 11.6854 16.438 11.6877 17.4755V20.125C11.6879 20.2235 11.6687 20.3211 11.6314 20.4115C11.594 20.502 11.5393 20.5834 11.4705 20.6509C11.4018 20.7183 11.3205 20.7702 11.2318 20.8034C11.143 20.8365 11.0487 20.8503 10.9547 20.8438C10.778 20.8277 10.6136 20.7424 10.4945 20.6049C10.3755 20.4674 10.3105 20.288 10.3127 20.1026V18.9849L6.99381 15.5151C6.50044 15.7076 5.97866 15.8082 5.45209 15.8125C4.72718 15.8144 4.01585 15.607 3.39646 15.2133C1.52389 14.0237 0.51584 11.2862 0.710918 7.8874C0.72074 7.71156 0.79198 7.54561 0.911113 7.42107C1.03025 7.29652 1.18898 7.22204 1.35717 7.21177C4.60818 7.01142 7.2267 8.06169 8.36107 10.0194C8.80676 10.7867 9.00133 11.6849 8.91537 12.5781C8.91003 12.6473 8.88562 12.7135 8.84511 12.7685C8.80459 12.8235 8.7497 12.865 8.68707 12.8881C8.62444 12.9112 8.55675 12.9149 8.49219 12.8986C8.42762 12.8823 8.36895 12.8468 8.32326 12.7965L6.67326 10.9906C6.54328 10.8615 6.3702 10.7906 6.19093 10.793C6.01166 10.7954 5.84037 10.8709 5.71359 11.0034C5.58682 11.136 5.51458 11.3151 5.51229 11.5025C5.50999 11.6899 5.57782 11.8708 5.70131 12.0067L10.3316 16.9706C10.3368 16.9005 10.3428 16.8304 10.3497 16.7613C10.5 15.4287 11.0625 14.1838 11.9515 13.216L16.2991 8.41298C16.4281 8.27824 16.5006 8.09543 16.5007 7.90479C16.5008 7.71414 16.4284 7.53127 16.2995 7.3964C16.1707 7.26153 15.9958 7.18572 15.8134 7.18564C15.6311 7.18555 15.4562 7.2612 15.3272 7.39595L11.1162 12.0517C11.0741 12.0983 11.0207 12.1324 10.9618 12.1502C10.9028 12.168 10.8403 12.169 10.7808 12.153C10.7214 12.1371 10.6671 12.1048 10.6236 12.0594C10.5801 12.0141 10.549 11.9575 10.5336 11.8953C10.1262 10.3249 10.3058 8.76158 11.0836 7.41931C12.6184 4.77072 16.19 3.35298 20.6381 3.62611C20.8063 3.63638 20.965 3.71086 21.0842 3.8354C21.2033 3.95995 21.2745 4.1259 21.2844 4.30173C21.5422 8.95294 20.1861 12.6869 17.6526 14.2915Z" fill="#808288"/>
</svg>
