<svg width="15" height="15" viewBox="0 0 15 15" fill="none" xmlns="http://www.w3.org/2000/svg">
<g id="trashbin-icon">
<path id="Vector" d="M13.125 3.28125C13.125 3.40557 13.0756 3.5248 12.9877 3.61271C12.8998 3.70061 12.7806 3.75 12.6562 3.75H12.1875V12.1875C12.1875 12.4361 12.0887 12.6746 11.9129 12.8504C11.7371 13.0262 11.4986 13.125 11.25 13.125H3.75C3.50136 13.125 3.2629 13.0262 3.08709 12.8504C2.91127 12.6746 2.8125 12.4361 2.8125 12.1875V3.75H2.34375C2.21943 3.75 2.1002 3.70061 2.01229 3.61271C1.92439 3.5248 1.875 3.40557 1.875 3.28125C1.875 3.15693 1.92439 3.0377 2.01229 2.94979C2.1002 2.86189 2.21943 2.8125 2.34375 2.8125H12.6562C12.7806 2.8125 12.8998 2.86189 12.9877 2.94979C13.0756 3.0377 13.125 3.15693 13.125 3.28125ZM5.15625 1.875H9.84375C9.96807 1.875 10.0873 1.82561 10.1752 1.73771C10.2631 1.6498 10.3125 1.53057 10.3125 1.40625C10.3125 1.28193 10.2631 1.1627 10.1752 1.07479C10.0873 0.986886 9.96807 0.9375 9.84375 0.9375H5.15625C5.03193 0.9375 4.9127 0.986886 4.82479 1.07479C4.73689 1.1627 4.6875 1.28193 4.6875 1.40625C4.6875 1.53057 4.73689 1.6498 4.82479 1.73771C4.9127 1.82561 5.03193 1.875 5.15625 1.875Z" fill="#7C7C7C"/>
</g>
</svg>
