<svg width="22" height="23" viewBox="0 0 22 23" fill="none" xmlns="http://www.w3.org/2000/svg">
<g id="category-btn-garage" clip-path="url(#clip0_174_1033)">
<path id="Vector" d="M20.625 10.0625H18.1595L14.4375 6.17137C14.3103 6.03731 14.1588 5.93102 13.992 5.85868C13.8251 5.78634 13.6462 5.7494 13.4655 5.75001H3.80531C3.57946 5.75044 3.35719 5.80904 3.15815 5.9206C2.9591 6.03217 2.78941 6.19328 2.66406 6.3897L0.115156 10.3824C0.0402633 10.5007 0.000224175 10.6394 0 10.7813L0 15.0938C0 15.475 0.144866 15.8406 0.402728 16.1102C0.660591 16.3798 1.01033 16.5313 1.375 16.5313H2.83594C2.98739 17.1497 3.33142 17.6978 3.81378 18.0892C4.29613 18.4807 4.88938 18.6931 5.5 18.6931C6.11062 18.6931 6.70387 18.4807 7.18622 18.0892C7.66858 17.6978 8.01261 17.1497 8.16406 16.5313H13.8359C13.9874 17.1497 14.3314 17.6978 14.8138 18.0892C15.2961 18.4807 15.8894 18.6931 16.5 18.6931C17.1106 18.6931 17.7039 18.4807 18.1862 18.0892C18.6686 17.6978 19.0126 17.1497 19.1641 16.5313H20.625C20.9897 16.5313 21.3394 16.3798 21.5973 16.1102C21.8551 15.8406 22 15.475 22 15.0938V11.5C22 11.1188 21.8551 10.7531 21.5973 10.4835C21.3394 10.214 20.9897 10.0625 20.625 10.0625ZM3.80531 7.18751H13.4655L16.2155 10.0625H1.97656L3.80531 7.18751ZM5.5 17.25C5.22805 17.25 4.96221 17.1657 4.73609 17.0077C4.50997 16.8498 4.33374 16.6253 4.22967 16.3626C4.1256 16.0999 4.09837 15.8109 4.15142 15.5321C4.20447 15.2532 4.33543 14.9971 4.52773 14.796C4.72003 14.595 4.96503 14.4581 5.23175 14.4026C5.49847 14.3472 5.77494 14.3756 6.02619 14.4844C6.27744 14.5932 6.49218 14.7775 6.64327 15.0139C6.79436 15.2503 6.875 15.5282 6.875 15.8125C6.875 16.1938 6.73013 16.5594 6.47227 16.829C6.21441 17.0986 5.86467 17.25 5.5 17.25ZM16.5 17.25C16.2281 17.25 15.9622 17.1657 15.7361 17.0077C15.51 16.8498 15.3337 16.6253 15.2297 16.3626C15.1256 16.0999 15.0984 15.8109 15.1514 15.5321C15.2045 15.2532 15.3354 14.9971 15.5277 14.796C15.72 14.595 15.965 14.4581 16.2318 14.4026C16.4985 14.3472 16.7749 14.3756 17.0262 14.4844C17.2774 14.5932 17.4922 14.7775 17.6433 15.0139C17.7944 15.2503 17.875 15.5282 17.875 15.8125C17.875 16.1938 17.7301 16.5594 17.4723 16.829C17.2144 17.0986 16.8647 17.25 16.5 17.25Z" fill="#808288"/>
</g>
<defs>
<clipPath id="clip0_174_1033">
<rect width="22" height="23" fill="white"/>
</clipPath>
</defs>
</svg>
