<svg width="21" height="20" viewBox="0 0 21 20" fill="none" xmlns="http://www.w3.org/2000/svg">
<g id="logo-app-nav">
<path fill-rule="evenodd" clip-rule="evenodd" d="M0.5 0.888889C0.5 0.397969 0.897969 0 1.38889 0H19.6111C20.102 0 20.5 0.397969 20.5 0.888889V19.1111C20.5 19.602 20.102 20 19.6111 20H7.5953L6.58953 15.5904L12.4176 12.56L11.3994 10.6636L6.09491 13.4219L5.81316 12.1866L11.6412 9.15611L10.623 7.25978L5.31853 10.018L5.03678 8.78271L10.8648 5.75225L9.84661 3.85592L2.51927 7.666L2.55029 7.72378L2.53333 7.72764L3.29564 11.0699L4.07202 14.4737L5.3325 20H1.38889C0.897969 20 0.5 19.602 0.5 19.1111V0.888889ZM11.8722 7.66128L10.854 5.76495L18.0005 2.07475L17.8986 4.54085L11.8722 7.66128ZM11.6304 9.16881L12.6486 11.0651L17.7374 8.44082L17.8385 5.99541L11.6304 9.16881ZM13.425 14.469L12.4068 12.5727L17.6764 9.91836L17.5755 12.3591L13.425 14.469Z" fill="#FF001A"/>
<path d="M4.07202 14.4737L5.09021 16.3701L6.58953 15.5904L6.09491 13.4219L4.07202 14.4737Z" fill="#FDFDFD"/>
<path d="M12.4176 12.56L11.3994 10.6636L6.09491 13.4219L6.58953 15.5904L12.4176 12.56Z" fill="#FDFDFD"/>
<path d="M3.29564 11.0699L4.31383 12.9662L5.81316 12.1866L5.31853 10.018L3.29564 11.0699Z" fill="#FDFDFD"/>
<path d="M4.31383 12.9662L3.29564 11.0699L4.07202 14.4737L6.09491 13.4219L5.81316 12.1866L4.31383 12.9662Z" fill="#FDFDFD"/>
<path d="M11.6412 9.15611L10.623 7.25978L5.31853 10.018L5.81316 12.1866L11.6412 9.15611Z" fill="#FDFDFD"/>
<path d="M2.53333 7.72764L3.29564 11.0699L5.31853 10.018L5.03678 8.78271L3.53745 9.56234L2.55029 7.72378L2.53333 7.72764Z" fill="#FDFDFD"/>
<path d="M2.55029 7.72378L3.53745 9.56234L5.03678 8.78271L4.68423 7.23705L2.55029 7.72378Z" fill="#FDFDFD"/>
<path d="M9.84661 3.85592L2.51927 7.666L2.55029 7.72378L4.68423 7.23705L5.03678 8.78271L10.8648 5.75225L9.84661 3.85592Z" fill="#FDFDFD"/>
<path d="M11.8722 7.66128L10.854 5.76495L18.0005 2.07475L17.8986 4.54085L11.8722 7.66128Z" fill="#FDFDFD"/>
<path d="M12.6486 11.0651L11.6304 9.16881L17.8385 5.99541L17.7374 8.44082L12.6486 11.0651Z" fill="#FDFDFD"/>
<path d="M13.425 14.469L12.4068 12.5727L17.6764 9.91836L17.5755 12.3591L13.425 14.469Z" fill="#FDFDFD"/>
<path d="M5.09021 16.3701L4.07202 14.4737L5.3325 20H7.5953L6.58953 15.5904L5.09021 16.3701Z" fill="#FDFDFD"/>
</g>
</svg>
