<svg width="16" height="16" viewBox="0 0 16 16" fill="#000000" xmlns="http://www.w3.org/2000/svg">
<g id="Frame">
<path id="Vector" d="M14.9998 3.5V7.5C14.9999 7.59895 14.9706 7.69569 14.9157 7.77799C14.8607 7.86029 14.7826 7.92444 14.6912 7.96231C14.5998 8.00019 14.4992 8.01009 14.4021 7.99076C14.3051 7.97144 14.216 7.92376 14.146 7.85375L12.4998 6.20688L8.85354 9.85375C8.8071 9.90024 8.75196 9.93712 8.69126 9.96228C8.63056 9.98744 8.5655 10.0004 8.49979 10.0004C8.43408 10.0004 8.36902 9.98744 8.30832 9.96228C8.24762 9.93712 8.19248 9.90024 8.14604 9.85375L5.99979 7.70687L1.85354 11.8538C1.75972 11.9476 1.63247 12.0003 1.49979 12.0003C1.36711 12.0003 1.23986 11.9476 1.14604 11.8538C1.05222 11.7599 0.999512 11.6327 0.999512 11.5C0.999512 11.3673 1.05222 11.2401 1.14604 11.1462L5.64604 6.64625C5.69248 6.59976 5.74762 6.56288 5.80832 6.53772C5.86902 6.51256 5.93408 6.49961 5.99979 6.49961C6.0655 6.49961 6.13056 6.51256 6.19126 6.53772C6.25196 6.56288 6.3071 6.59976 6.35354 6.64625L8.49979 8.79313L11.7929 5.5L10.146 3.85375C10.076 3.78382 10.0284 3.6947 10.009 3.59765C9.9897 3.50061 9.9996 3.40002 10.0375 3.30861C10.0754 3.21719 10.1395 3.13908 10.2218 3.08414C10.3041 3.0292 10.4008 2.99992 10.4998 3H14.4998C14.6324 3 14.7596 3.05268 14.8533 3.14645C14.9471 3.24022 14.9998 3.36739 14.9998 3.5Z" fill="#000000"/>
</g>
</svg>
