<svg xmlns="http://www.w3.org/2000/svg" width="16" height="16" viewBox="0 0 16 16" fill="none">
  <path d="M2.48861 8.62641C2.15493 8.62641 1.88444 8.35591 1.88444 8.02224C1.88444 7.68856 2.15493 7.41806 2.48861 7.41806V8.62641ZM12.7998 7.41806C13.1335 7.41806 13.404 7.68856 13.404 8.02224C13.404 8.35591 13.1335 8.62641 12.7998 8.62641V7.41806ZM10.6473 11.6736C10.4103 11.9085 10.0278 11.9068 9.79289 11.6698C9.558 11.4328 9.55971 11.0503 9.7967 10.8154L10.6473 11.6736ZM11.3582 10.1184L10.9328 9.68932H10.9328L11.3582 10.1184ZM11.3582 5.92604L11.7835 5.49692V5.49692L11.3582 5.92604ZM9.7967 5.2291C9.55971 4.99421 9.558 4.61168 9.79289 4.37468C10.0278 4.13769 10.4103 4.13598 10.6473 4.37087L9.7967 5.2291ZM12.787 8.22416L13.3863 8.30055L13.3863 8.30056L12.787 8.22416ZM12.787 7.82031L13.3863 7.74392L13.3863 7.74392L12.787 7.82031ZM2.48861 8.02224V7.41806H12.7998V8.02224V8.62641H2.48861V8.02224ZM10.222 11.2445L9.7967 10.8154L10.9328 9.68932L11.3582 10.1184L11.7835 10.5475L10.6473 11.6736L10.222 11.2445ZM11.3582 5.92604L10.9328 6.35516L9.7967 5.2291L10.222 4.79999L10.6473 4.37087L11.7835 5.49692L11.3582 5.92604ZM11.3582 10.1184L10.9328 9.68932C11.396 9.23031 11.7064 8.92135 11.9151 8.66146C12.1162 8.4111 12.1727 8.26551 12.1877 8.14777L12.787 8.22416L13.3863 8.30056C13.3316 8.73008 13.1266 9.08263 12.8572 9.41808C12.5955 9.744 12.2264 10.1085 11.7835 10.5475L11.3582 10.1184ZM11.3582 5.92604L11.7835 5.49692C12.2264 5.93593 12.5955 6.30047 12.8572 6.62639C13.1266 6.96185 13.3316 7.3144 13.3863 7.74392L12.787 7.82031L12.1877 7.8967C12.1727 7.77896 12.1162 7.63338 11.9151 7.38301C11.7064 7.12312 11.396 6.81416 10.9328 6.35516L11.3582 5.92604ZM12.787 8.22416L12.1877 8.14777C12.1983 8.06441 12.1983 7.98006 12.1877 7.8967L12.787 7.82031L13.3863 7.74392C13.4099 7.92873 13.4099 8.11575 13.3863 8.30055L12.787 8.22416Z" fill="#000000"/>
</svg>