<svg xmlns="http://www.w3.org/2000/svg" width="20" height="20" viewBox="0 0 20 20" fill="#000000">
  <path d="M13.1826 17.3625C13.1826 17.5283 13.1167 17.6872 12.9995 17.8044C12.8823 17.9217 12.7233 17.9875 12.5576 17.9875H7.55755C7.39179 17.9875 7.23282 17.9217 7.11561 17.8044C6.9984 17.6872 6.93255 17.5283 6.93255 17.3625C6.93255 17.1967 6.9984 17.0378 7.11561 16.9206C7.23282 16.8033 7.39179 16.7375 7.55755 16.7375H12.5576C12.7233 16.7375 12.8823 16.8033 12.9995 16.9206C13.1167 17.0378 13.1826 17.1967 13.1826 17.3625ZM17.8224 4.575C17.12 3.20207 16.0652 2.04054 14.7661 1.20937C14.6967 1.16504 14.6193 1.13486 14.5381 1.12056C14.457 1.10627 14.3739 1.10816 14.2935 1.1261C14.2131 1.14405 14.1371 1.1777 14.0698 1.22513C14.0024 1.27257 13.9451 1.33284 13.9012 1.40249C13.8572 1.47213 13.8274 1.54978 13.8136 1.63097C13.7997 1.71216 13.8021 1.79528 13.8205 1.87557C13.8388 1.95585 13.8729 2.03171 13.9207 2.09878C13.9685 2.16586 14.0291 2.22282 14.099 2.26641C15.2135 2.97539 16.1165 3.97148 16.713 5.15C16.7919 5.29245 16.9232 5.39851 17.079 5.44563C17.2348 5.49274 17.4029 5.47718 17.5475 5.40226C17.692 5.32734 17.8016 5.19897 17.853 5.04447C17.9043 4.88997 17.8933 4.72153 17.8224 4.575ZM2.84739 5.4875C2.9619 5.48745 3.07419 5.45595 3.172 5.39643C3.26982 5.33691 3.34941 5.25167 3.40208 5.15C3.99865 3.97148 4.90163 2.97539 6.01614 2.26641C6.08603 2.22282 6.14661 2.16586 6.19441 2.09878C6.2422 2.03171 6.27627 1.95585 6.29465 1.87557C6.31303 1.79528 6.31536 1.71216 6.30151 1.63097C6.28766 1.54978 6.2579 1.47213 6.21394 1.40249C6.16997 1.33284 6.11268 1.27257 6.04535 1.22513C5.97802 1.1777 5.90198 1.14405 5.82159 1.1261C5.74121 1.10816 5.65808 1.10627 5.57696 1.12056C5.49585 1.13486 5.41837 1.16504 5.34896 1.20937C4.04991 2.04054 2.99515 3.20207 2.29271 4.575C2.24336 4.67025 2.21936 4.7766 2.22302 4.88381C2.22668 4.99102 2.25787 5.09548 2.31359 5.18715C2.36931 5.27881 2.44769 5.35459 2.54118 5.4072C2.63467 5.4598 2.74012 5.48745 2.84739 5.4875ZM16.3076 8.6125C16.3076 6.9549 15.6491 5.36518 14.477 4.19308C13.3049 3.02098 11.7152 2.3625 10.0576 2.3625C8.39995 2.3625 6.81024 3.02098 5.63813 4.19308C4.46603 5.36518 3.80755 6.9549 3.80755 8.6125C3.80755 10.6656 3.43411 12.393 2.72864 13.6078C2.61792 13.7977 2.55922 14.0134 2.55846 14.2332C2.55771 14.453 2.61493 14.6691 2.72435 14.8598C2.83377 15.0504 2.99152 15.2088 3.1817 15.319C3.37187 15.4292 3.58775 15.4873 3.80755 15.4875H16.3076C16.5272 15.4871 16.7429 15.4288 16.9329 15.3184C17.1228 15.2081 17.2803 15.0497 17.3896 14.8591C17.4988 14.6685 17.5559 14.4525 17.5551 14.2328C17.5543 14.0131 17.4956 13.7976 17.3849 13.6078C16.681 12.3922 16.3076 10.6648 16.3076 8.6125Z" fill="#000000"/>
</svg>