<svg xmlns="http://www.w3.org/2000/svg" width="32" height="33" viewBox="0 0 32 33" fill="#000000">
  <g clip-path="url(#clip0_118_4483)">
    <path d="M30 14.5H26.4137L21 9.08626C20.815 8.89973 20.5947 8.75185 20.352 8.65121C20.1093 8.55057 19.849 8.49917 19.5863 8.50001H5.535C5.20649 8.50062 4.88319 8.58214 4.59367 8.73736C4.30415 8.89259 4.05732 9.11674 3.875 9.39001L0.1675 14.945C0.0585648 15.1096 0.000326072 15.3026 0 15.5L0 21.5C0 22.0304 0.210714 22.5392 0.585786 22.9142C0.960859 23.2893 1.46957 23.5 2 23.5H4.125C4.3453 24.3604 4.8457 25.123 5.54731 25.6676C6.24892 26.2122 7.11183 26.5079 8 26.5079C8.88817 26.5079 9.75108 26.2122 10.4527 25.6676C11.1543 25.123 11.6547 24.3604 11.875 23.5H20.125C20.3453 24.3604 20.8457 25.123 21.5473 25.6676C22.2489 26.2122 23.1118 26.5079 24 26.5079C24.8882 26.5079 25.7511 26.2122 26.4527 25.6676C27.1543 25.123 27.6547 24.3604 27.875 23.5H30C30.5304 23.5 31.0391 23.2893 31.4142 22.9142C31.7893 22.5392 32 22.0304 32 21.5V16.5C32 15.9696 31.7893 15.4609 31.4142 15.0858C31.0391 14.7107 30.5304 14.5 30 14.5ZM5.535 10.5H19.5863L23.5863 14.5H2.875L5.535 10.5ZM8 24.5C7.60444 24.5 7.21776 24.3827 6.88886 24.1629C6.55996 23.9432 6.30362 23.6308 6.15224 23.2654C6.00087 22.8999 5.96126 22.4978 6.03843 22.1098C6.1156 21.7219 6.30608 21.3655 6.58579 21.0858C6.86549 20.8061 7.22186 20.6156 7.60982 20.5384C7.99778 20.4613 8.39991 20.5009 8.76537 20.6523C9.13082 20.8036 9.44318 21.06 9.66294 21.3889C9.8827 21.7178 10 22.1044 10 22.5C10 23.0304 9.78929 23.5392 9.41421 23.9142C9.03914 24.2893 8.53043 24.5 8 24.5ZM24 24.5C23.6044 24.5 23.2178 24.3827 22.8889 24.1629C22.56 23.9432 22.3036 23.6308 22.1522 23.2654C22.0009 22.8999 21.9613 22.4978 22.0384 22.1098C22.1156 21.7219 22.3061 21.3655 22.5858 21.0858C22.8655 20.8061 23.2219 20.6156 23.6098 20.5384C23.9978 20.4613 24.3999 20.5009 24.7654 20.6523C25.1308 20.8036 25.4432 21.06 25.6629 21.3889C25.8827 21.7178 26 22.1044 26 22.5C26 23.0304 25.7893 23.5392 25.4142 23.9142C25.0391 24.2893 24.5304 24.5 24 24.5Z" fill="#000000"/>
  </g>
  <defs>
    <clipPath id="clip0_118_4483">
      <rect width="32" height="32" fill="#000000" transform="translate(0 0.5)"/>
    </clipPath>
  </defs>
</svg>