<svg xmlns="http://www.w3.org/2000/svg" width="18" height="18" viewBox="0 0 18 18" fill="#000000">
  <path d="M8.375 11.6516V16.7563C8.3753 16.8005 8.36619 16.8443 8.34829 16.8848C8.33039 16.9252 8.3041 16.9614 8.27116 16.991C8.23822 17.0205 8.19938 17.0427 8.15722 17.0561C8.11505 17.0696 8.07052 17.0739 8.02657 17.0688C6.58239 16.8914 5.21206 16.3305 4.058 15.4443C2.90394 14.5582 2.00827 13.3791 1.46407 12.0297C1.4478 11.9887 1.4404 11.9447 1.44237 11.9006C1.44434 11.8565 1.45562 11.8133 1.47547 11.7739C1.49533 11.7345 1.5233 11.6998 1.55756 11.6719C1.59181 11.6441 1.63157 11.6239 1.67422 11.6125L6.60313 10.2891C6.66622 10.2725 6.73292 10.2761 6.79386 10.2994C6.85481 10.3226 6.90695 10.3644 6.94297 10.4188C7.24141 10.8505 7.66722 11.1783 8.16094 11.3563C8.22305 11.3769 8.27712 11.4165 8.31552 11.4695C8.35393 11.5224 8.37473 11.5861 8.375 11.6516ZM9.00469 0.875018C8.92222 0.874399 8.84044 0.890109 8.76407 0.921241C8.6877 0.952373 8.61825 0.998312 8.55972 1.05641C8.50118 1.11451 8.45472 1.18362 8.42302 1.25975C8.39132 1.33589 8.375 1.41755 8.375 1.50002V5.87502C8.37375 6.0394 8.43781 6.19756 8.55309 6.31475C8.66838 6.43194 8.82546 6.49857 8.98985 6.50002C9.58011 6.49747 10.1522 6.70386 10.6049 7.08266C11.0576 7.46145 11.3617 7.98821 11.4633 8.56967C11.5649 9.15113 11.4575 9.74979 11.1601 10.2597C10.8627 10.7695 10.3944 11.1577 9.83828 11.3555C9.7762 11.3763 9.72221 11.416 9.68394 11.4692C9.64567 11.5223 9.62505 11.5861 9.625 11.6516V16.7563C9.62472 16.8004 9.63381 16.8442 9.65167 16.8846C9.66952 16.925 9.69574 16.9611 9.72859 16.9907C9.76144 17.0202 9.80018 17.0424 9.84225 17.0559C9.88432 17.0693 9.92877 17.0737 9.97266 17.0688C12.0316 16.8252 13.9196 15.8038 15.25 14.2136C16.5804 12.6235 17.2526 10.5848 17.1289 8.51521C17.0052 6.44558 16.0949 4.50154 14.5846 3.08116C13.0742 1.66079 11.078 0.871533 9.00469 0.875018ZM6.50469 8.80392C6.53378 8.43474 6.64452 8.07664 6.82891 7.75549V7.75002C6.89084 7.64305 6.91966 7.52012 6.91174 7.39678C6.90381 7.27343 6.85949 7.15521 6.78438 7.05705C6.73183 6.98953 6.66653 6.93299 6.59219 6.89064L2.81641 4.70783C2.74527 4.66681 2.66674 4.64021 2.58531 4.62955C2.50389 4.61889 2.42116 4.62439 2.34186 4.64572C2.26256 4.66705 2.18824 4.7038 2.12314 4.75387C2.05805 4.80394 2.00346 4.86634 1.9625 4.93752C1.05321 6.51234 0.697838 8.34642 0.953128 10.1469C0.959152 10.1908 0.974461 10.233 0.998038 10.2706C1.02161 10.3081 1.05292 10.3403 1.08987 10.3648C1.12682 10.3893 1.16857 10.4057 1.21235 10.4129C1.25612 10.42 1.30092 10.4178 1.34375 10.4063L6.28282 9.07814C6.34403 9.06123 6.3985 9.02579 6.43879 8.9767C6.47907 8.92761 6.50318 8.86726 6.50782 8.80392H6.50469Z" fill="#000000"/>
</svg>