<svg xmlns="http://www.w3.org/2000/svg" width="26" height="26" viewBox="0 0 26 26" fill="none">
  <path d="M21.3571 19.7692H19.4286V6.23077C19.4286 5.90435 19.2931 5.5913 19.052 5.36048C18.8109 5.12967 18.4838 5 18.1429 5H7.85714C7.51615 5 7.18912 5.12967 6.94801 5.36048C6.70689 5.5913 6.57143 5.90435 6.57143 6.23077V19.7692H4.64286C4.47236 19.7692 4.30885 19.8341 4.18829 19.9495C4.06773 20.0649 4 20.2214 4 20.3846C4 20.5478 4.06773 20.7044 4.18829 20.8198C4.30885 20.9352 4.47236 21 4.64286 21H21.3571C21.5276 21 21.6912 20.9352 21.8117 20.8198C21.9323 20.7044 22 20.5478 22 20.3846C22 20.2214 21.9323 20.0649 21.8117 19.9495C21.6912 19.8341 21.5276 19.7692 21.3571 19.7692ZM16.2143 19.7692H7.85714V6.23077H16.2143V19.7692ZM13 13.3077C13 13.1251 13.0566 12.9467 13.1625 12.7949C13.2685 12.6431 13.4191 12.5247 13.5953 12.4549C13.7715 12.385 13.9654 12.3667 14.1524 12.4024C14.3395 12.438 14.5113 12.5259 14.6461 12.655C14.781 12.7841 14.8728 12.9486 14.91 13.1276C14.9473 13.3067 14.9282 13.4923 14.8552 13.6609C14.7822 13.8296 14.6586 13.9738 14.5 14.0752C14.3414 14.1766 14.155 14.2308 13.9643 14.2308C13.7085 14.2308 13.4633 14.1335 13.2824 13.9604C13.1016 13.7873 13 13.5525 13 13.3077Z" fill="#000000"/>
</svg>