<svg width="33" height="33" viewBox="0 0 33 33" fill="#000000" xmlns="http://www.w3.org/2000/svg">
<g id="Frame">
<path id="Vector" d="M16.5 3.5C13.9288 3.5 11.4154 4.26244 9.27759 5.6909C7.13975 7.11935 5.47351 9.14968 4.48957 11.5251C3.50563 13.9006 3.24819 16.5144 3.7498 19.0362C4.25141 21.5579 5.48953 23.8743 7.30762 25.6924C9.1257 27.5105 11.4421 28.7486 13.9638 29.2502C16.4856 29.7518 19.0995 29.4944 21.4749 28.5104C23.8503 27.5265 25.8807 25.8603 27.3091 23.7224C28.7376 21.5846 29.5 19.0712 29.5 16.5C29.4964 13.0533 28.1256 9.74882 25.6884 7.31163C23.2512 4.87445 19.9467 3.50364 16.5 3.5ZM12 12.5C12.2967 12.5 12.5867 12.588 12.8334 12.7528C13.08 12.9176 13.2723 13.1519 13.3858 13.426C13.4994 13.7001 13.5291 14.0017 13.4712 14.2926C13.4133 14.5836 13.2704 14.8509 13.0607 15.0607C12.8509 15.2704 12.5836 15.4133 12.2926 15.4712C12.0017 15.5291 11.7001 15.4994 11.426 15.3858C11.1519 15.2723 10.9176 15.08 10.7528 14.8334C10.588 14.5867 10.5 14.2967 10.5 14C10.5 13.6022 10.658 13.2206 10.9393 12.9393C11.2206 12.658 11.6022 12.5 12 12.5ZM22.365 20C21.0788 22.2238 18.9413 23.5 16.5 23.5C14.0588 23.5 11.9213 22.225 10.635 20C10.5627 19.8862 10.5141 19.7589 10.4922 19.6258C10.4703 19.4927 10.4755 19.3566 10.5076 19.2256C10.5397 19.0946 10.598 18.9715 10.6789 18.8636C10.7598 18.7557 10.8617 18.6652 10.9785 18.5978C11.0952 18.5303 11.2245 18.4871 11.3583 18.4708C11.4922 18.4546 11.628 18.4655 11.7575 18.5031C11.8871 18.5407 12.0077 18.6041 12.1121 18.6895C12.2164 18.7749 12.3025 18.8805 12.365 19C13.2988 20.6138 14.7663 21.5 16.5 21.5C18.2338 21.5 19.7013 20.6125 20.635 19C20.6975 18.8805 20.7836 18.7749 20.888 18.6895C20.9924 18.6041 21.1129 18.5407 21.2425 18.5031C21.372 18.4655 21.5078 18.4546 21.6417 18.4708C21.7756 18.4871 21.9048 18.5303 22.0215 18.5978C22.1383 18.6652 22.2402 18.7557 22.3211 18.8636C22.402 18.9715 22.4603 19.0946 22.4924 19.2256C22.5245 19.3566 22.5297 19.4927 22.5078 19.6258C22.4859 19.7589 22.4374 19.8862 22.365 20ZM21 15.5C20.7033 15.5 20.4133 15.412 20.1667 15.2472C19.92 15.0824 19.7277 14.8481 19.6142 14.574C19.5007 14.2999 19.471 13.9983 19.5288 13.7074C19.5867 13.4164 19.7296 13.1491 19.9393 12.9393C20.1491 12.7296 20.4164 12.5867 20.7074 12.5288C20.9983 12.4709 21.2999 12.5006 21.574 12.6142C21.8481 12.7277 22.0824 12.92 22.2472 13.1666C22.412 13.4133 22.5 13.7033 22.5 14C22.5 14.3978 22.342 14.7794 22.0607 15.0607C21.7794 15.342 21.3978 15.5 21 15.5Z" fill="#000000"/>
</g>
</svg>
