<svg xmlns="http://www.w3.org/2000/svg" width="19" height="26" viewBox="0 0 19 26" fill="none">
  <path d="M18.5 6.455V2C18.5 1.46957 18.2893 0.960859 17.9142 0.585786C17.5391 0.210714 17.0304 0 16.5 0H2.5C1.96957 0 1.46086 0.210714 1.08579 0.585786C0.710714 0.960859 0.5 1.46957 0.5 2V6.5C0.500918 6.81046 0.573739 7.11649 0.712755 7.39408C0.85177 7.67168 1.0532 7.9133 1.30125 8.1L7.83375 13L1.3 17.9C1.05211 18.0868 0.850867 18.3284 0.712065 18.606C0.573262 18.8836 0.500676 19.1896 0.5 19.5V24C0.5 24.5304 0.710714 25.0391 1.08579 25.4142C1.46086 25.7893 1.96957 26 2.5 26H16.5C17.0304 26 17.5391 25.7893 17.9142 25.4142C18.2893 25.0391 18.5 24.5304 18.5 24V19.545C18.5 19.2356 18.4282 18.9303 18.2903 18.6534C18.1523 18.3764 17.952 18.1352 17.705 17.9487L11.1575 13L17.705 8.05125C17.9516 7.86448 18.1517 7.62322 18.2896 7.34631C18.4275 7.0694 18.4995 6.76435 18.5 6.455Z" fill="#000000"/>
</svg>