<svg xmlns="http://www.w3.org/2000/svg" width="20" height="20" viewBox="0 0 20 20" fill="#000000">
  <path d="M18.75 14.375H18.125V4.52343L18.8805 4.36093C18.9625 4.34556 19.0405 4.31392 19.1101 4.26789C19.1797 4.22186 19.2394 4.16236 19.2856 4.09291C19.3318 4.02346 19.3636 3.94546 19.3792 3.86351C19.3948 3.78156 19.3939 3.69731 19.3764 3.61574C19.3589 3.53417 19.3253 3.45692 19.2775 3.38855C19.2297 3.32017 19.1687 3.26206 19.0981 3.21764C19.0275 3.17321 18.9487 3.14337 18.8664 3.12988C18.784 3.11638 18.6999 3.1195 18.6188 3.13906L1.11875 6.88906C0.967988 6.92159 0.834578 7.00872 0.744183 7.13368C0.653788 7.25865 0.612791 7.41263 0.629078 7.566C0.645365 7.71937 0.717786 7.8613 0.83241 7.96449C0.947035 8.06769 1.09577 8.12485 1.25 8.125C1.29438 8.12492 1.33863 8.1202 1.38203 8.11093L1.875 8.00546V14.375H1.25C1.08424 14.375 0.925268 14.4408 0.808058 14.5581C0.690848 14.6753 0.625 14.8342 0.625 15C0.625 15.1658 0.690848 15.3247 0.808058 15.4419C0.925268 15.5591 1.08424 15.625 1.25 15.625H18.75C18.9158 15.625 19.0747 15.5591 19.1919 15.4419C19.3092 15.3247 19.375 15.1658 19.375 15C19.375 14.8342 19.3092 14.6753 19.1919 14.5581C19.0747 14.4408 18.9158 14.375 18.75 14.375ZM14.375 14.375H5.625V13.125H14.375V14.375ZM14.375 11.875H5.625V10.625H14.375V11.875Z" fill="#000000"/>
</svg>