<svg width="10" height="10" viewBox="0 0 10 10" fill="none" xmlns="http://www.w3.org/2000/svg">
<path d="M8.125 2.57212C8.125 2.64224 8.09756 2.7095 8.04873 2.75909C7.99989 2.80868 7.93365 2.83654 7.86458 2.83654H7.60417V8.22115C7.60417 8.36141 7.54929 8.49593 7.45162 8.5951C7.35394 8.69428 7.22147 8.75 7.08333 8.75H2.91667C2.77853 8.75 2.64606 8.69428 2.54838 8.5951C2.45071 8.49593 2.39583 8.36141 2.39583 8.22115V2.83654H2.13542C2.06635 2.83654 2.00011 2.80868 1.95127 2.75909C1.90244 2.7095 1.875 2.64224 1.875 2.57212C1.875 2.50199 1.90244 2.43473 1.95127 2.38514C2.00011 2.33555 2.06635 2.30769 2.13542 2.30769H7.86458C7.93365 2.30769 7.99989 2.33555 8.04873 2.38514C8.09756 2.43473 8.125 2.50199 8.125 2.57212ZM3.69792 1.77885H6.30208C6.37115 1.77885 6.43739 1.75099 6.48623 1.7014C6.53506 1.65181 6.5625 1.58455 6.5625 1.51442C6.5625 1.44429 6.53506 1.37704 6.48623 1.32745C6.43739 1.27786 6.37115 1.25 6.30208 1.25H3.69792C3.62885 1.25 3.56261 1.27786 3.51377 1.32745C3.46494 1.37704 3.4375 1.44429 3.4375 1.51442C3.4375 1.58455 3.46494 1.65181 3.51377 1.7014C3.56261 1.75099 3.62885 1.77885 3.69792 1.77885Z" fill="#000000"/>
</svg>
