<svg width="22" height="22" viewBox="0 0 22 22" fill="none" xmlns="http://www.w3.org/2000/svg">
<path d="M20.6001 6.37141L18.3966 14.3017C18.2755 14.7349 18.0164 15.1168 17.6586 15.3894C17.3008 15.6621 16.8639 15.8106 16.4141 15.8125H7.92C7.46886 15.8123 7.03016 15.6645 6.67081 15.3918C6.31147 15.119 6.05119 14.7362 5.92969 14.3017L2.915 3.4375H1.375C1.19266 3.4375 1.0178 3.36507 0.888864 3.23614C0.759933 3.1072 0.6875 2.93234 0.6875 2.75C0.6875 2.56766 0.759933 2.3928 0.888864 2.26386C1.0178 2.13493 1.19266 2.0625 1.375 2.0625H3.4375C3.58781 2.06247 3.73398 2.1117 3.85364 2.20265C3.97331 2.2936 4.05987 2.42127 4.10008 2.56609L4.91477 5.5H19.9375C20.0435 5.49998 20.148 5.52446 20.243 5.57154C20.338 5.61862 20.4207 5.68701 20.4849 5.77138C20.5491 5.85575 20.5928 5.95381 20.6128 6.0579C20.6328 6.16198 20.6284 6.26928 20.6001 6.37141ZM7.5625 17.1875C7.29055 17.1875 7.02471 17.2681 6.79859 17.4192C6.57247 17.5703 6.39624 17.7851 6.29217 18.0363C6.1881 18.2876 6.16087 18.564 6.21392 18.8307C6.26697 19.0975 6.39793 19.3425 6.59023 19.5348C6.78253 19.7271 7.02753 19.858 7.29425 19.9111C7.56097 19.9641 7.83744 19.9369 8.08869 19.8328C8.33994 19.7288 8.55468 19.5525 8.70577 19.3264C8.85686 19.1003 8.9375 18.8344 8.9375 18.5625C8.9375 18.1978 8.79263 17.8481 8.53477 17.5902C8.27691 17.3324 7.92717 17.1875 7.5625 17.1875ZM16.5 17.1875C16.2281 17.1875 15.9622 17.2681 15.7361 17.4192C15.51 17.5703 15.3337 17.7851 15.2297 18.0363C15.1256 18.2876 15.0984 18.564 15.1514 18.8307C15.2045 19.0975 15.3354 19.3425 15.5277 19.5348C15.72 19.7271 15.965 19.858 16.2318 19.9111C16.4985 19.9641 16.7749 19.9369 17.0262 19.8328C17.2774 19.7288 17.4922 19.5525 17.6433 19.3264C17.7944 19.1003 17.875 18.8344 17.875 18.5625C17.875 18.1978 17.7301 17.8481 17.4723 17.5902C17.2144 17.3324 16.8647 17.1875 16.5 17.1875Z" fill="#000000"/>
</svg>
