<svg width="2033" height="178" viewBox="0 0 2033 178" fill="none" xmlns="http://www.w3.org/2000/svg">
<path fill-rule="evenodd" clip-rule="evenodd" d="M2018.73 81.9227C2018.73 81.9227 2002.5 95.4869 1987.26 93.904C1972.01 92.3211 1956.76 89.1553 1939.82 87.5724C1924.57 85.9895 1909.33 85.9895 1894.08 93.904C1878.83 101.818 1863.58 117.647 1848.34 112.899C1833.09 108.15 1817.84 82.8237 1802.59 74.9092C1787.35 66.9948 1770.4 76.4921 1755.16 79.6579C1739.91 82.8237 1724.66 79.6579 1709.41 74.9092C1694.17 70.1605 1678.92 63.829 1663.67 70.1605C1648.42 76.4921 1633.18 95.4869 1617.93 98.6527C1600.99 101.818 1585.74 89.1553 1570.49 89.1553C1555.25 89.1553 1540 101.818 1524.75 104.984C1509.5 108.15 1494.25 101.818 1479.01 104.984C1463.76 108.15 1438.57 98.6527 1421.63 104.984C1406.38 111.316 1401.08 133.476 1385.83 131.894C1370.58 130.311 1355.33 97.7889 1340.09 96.206C1324.84 94.6231 1309.59 123.979 1294.34 116.065C1279.1 108.15 1262.15 92.3211 1246.91 89.1553C1231.66 85.9895 1216.41 95.4869 1201.16 103.401C1185.92 111.316 1170.67 117.647 1155.42 120.813C1140.17 123.979 1124.93 123.979 1109.68 112.899C1092.74 101.818 1077.49 81.2408 1062.24 73.3263C1047 65.4119 1054.58 66.9948 1039.34 79.6579C1024.09 92.3211 1013.19 123.979 997.945 119.23C982.697 114.482 959.696 82.8237 942.754 70.1605C927.507 57.4974 892.826 62.2461 877.578 62.2461C862.331 62.2461 823.119 57.4974 807.871 65.4119C792.624 73.3263 767.929 92.3211 752.681 98.6527C737.434 104.984 739.144 87.5724 723.896 89.1553C708.649 90.7382 708.162 137.94 692.914 137.94C677.667 137.94 662.419 95.4869 647.172 85.9895C631.924 76.4921 616.677 79.6579 601.429 74.9092C584.488 70.1605 569.24 74.9092 553.993 82.8237C538.745 90.7382 530.991 106.567 515.743 104.984C500.496 103.401 477.755 66.9948 462.508 71.7434C447.26 76.4921 432.013 104.984 415.071 119.23C399.823 133.476 364.469 104.984 349.221 103.401C333.974 101.818 321.649 136.642 306.401 125.562C291.154 114.482 293.091 85.9895 277.843 73.3263C262.596 60.6632 245.654 63.829 230.407 65.4119C215.159 66.9948 199.912 66.9948 184.664 81.2408C169.417 95.4869 133.003 95.4869 117.755 104.984C102.508 114.482 108.427 178 93.1792 178C76.2376 178 74.244 131.877 58.9965 117.631C43.749 103.385 21.5258 77.1989 14.7491 62.9528L0 48.6695L8.47085 48C15.2475 48 30.495 48 45.7425 48C60.99 48 76.2376 48 93.1792 48C108.427 48 123.674 48 138.922 48C154.169 48 169.417 48 184.664 48C199.912 48 215.159 48 230.407 48C245.654 48 262.596 48 277.843 48C293.091 48 308.338 48 323.586 48C338.833 48 354.081 48 369.328 48C384.576 48 399.823 48 415.071 48C432.013 48 447.26 48 462.508 48C477.755 48 493.002 48 508.25 48C523.497 48 538.745 48 553.993 48C569.24 48 584.488 48 601.429 48C616.677 48 631.924 48 647.172 48C662.419 48 677.667 48 692.914 48C708.162 48 723.409 48 738.657 48C753.904 48 770.846 48 786.093 48C801.341 48 816.588 48 831.836 48C847.083 48 862.331 48 877.578 48C892.826 48 908.073 48 923.321 48C940.263 48 955.51 48 970.758 48C986.005 48 1001.25 48 1016.5 48C1031.75 48 1047 48 1062.24 48C1077.49 48 1092.74 48 1109.68 48C1124.93 48 1140.17 48 1155.42 48C1170.67 48 1185.92 48 1201.16 48C1216.41 48 1231.66 48 1246.91 48C1262.15 48 1279.1 48 1294.34 48C1309.59 48 1324.84 48 1340.09 48C1355.33 48 1370.58 48 1385.83 48C1401.08 48 1416.32 48 1431.57 48C1448.51 48 1463.76 48 1479.01 48C1494.25 48 1509.5 48 1524.75 48C1540 48 1555.25 48 1570.49 48C1585.74 48 1600.99 48 1617.93 48C1633.18 48 1648.42 48 1663.67 48C1678.92 48 1694.17 48 1709.41 48C1724.66 48 1739.91 48 1755.16 48C1770.4 48 1787.35 48 1802.59 48C1817.84 48 1833.09 48 1848.34 48C1863.58 48 1878.83 48 1894.08 48C1909.33 48 1924.57 48 1939.82 48C1956.76 48 1972.01 48 1987.26 48C2002.5 48 2017.75 48 2024.53 48L2033 48.7811L2018.73 81.9227Z" fill="#98C4E7"/>
<path fill-rule="evenodd" clip-rule="evenodd" d="M2033 48.8964C2033 48.8964 2004.2 75.8085 1988.95 75.8085C1973.7 75.8085 1960.15 81.1909 1944.9 78.4997C1929.66 75.8085 1914.41 65.0437 1900.86 61.4554C1885.61 57.8671 1870.36 61.4554 1856.81 65.0437C1841.56 68.6319 1826.31 72.2202 1812.76 74.9114C1797.51 77.6026 1782.26 79.3967 1767.02 80.2938C1753.46 81.1909 1738.22 81.1909 1722.97 77.6026C1709.41 74.0143 1694.17 66.8378 1678.92 67.7349C1665.37 68.6319 1650.12 77.6026 1634.87 82.985C1621.32 88.3674 1606.07 90.1616 1590.82 89.2645C1575.58 88.3674 1562.02 84.7791 1546.77 81.1909C1531.53 77.6026 1517.97 74.0143 1502.73 73.1173C1487.48 72.2202 1473.93 74.0143 1458.68 75.8085C1443.43 77.6026 1428.18 79.3967 1414.63 82.985C1399.38 86.5733 1384.13 91.9557 1370.58 87.4703C1355.33 82.985 1340.09 68.6319 1326.53 62.3524C1311.29 56.073 1296.04 57.8671 1282.48 63.2495C1267.24 68.6319 1251.99 77.6026 1236.74 81.1909C1223.19 84.7791 1207.94 82.985 1192.69 83.8821C1179.14 84.7791 1163.89 88.3674 1148.65 86.5733C1135.09 84.7791 1119.84 77.6026 1104.6 70.4261C1089.35 63.2495 1075.8 56.073 1060.55 60.5583C1045.3 65.0437 1031.75 81.1909 1016.5 88.3674C1001.25 95.544 987.699 93.7498 972.452 88.3674C957.204 82.985 943.651 74.0143 928.403 72.2202C913.156 70.4261 897.908 75.8085 884.355 73.1173C869.108 70.4261 853.86 59.6612 840.307 62.3524C825.059 65.0437 809.812 81.1909 796.258 83.8821C781.011 86.5733 765.763 75.8085 750.516 72.2202C736.963 68.6319 721.715 72.2202 706.468 76.7055C692.914 81.1909 677.667 86.5733 662.419 87.4703C648.866 88.3674 633.618 84.7791 618.371 82.985C604.818 81.1909 589.57 81.1909 574.323 80.2938C559.075 79.3967 545.522 77.6026 530.274 79.3967C515.027 81.1909 501.473 86.5733 486.226 90.1616C470.978 93.7498 457.425 95.544 442.178 89.2645C426.93 82.985 411.683 68.6319 398.129 66.8378C382.882 65.0436 367.634 75.8085 354.081 78.4997C338.833 81.1909 323.586 75.8085 310.033 70.4261C294.785 65.0437 279.538 59.6612 265.984 64.1466C250.737 68.6319 235.489 82.985 220.242 82.985C206.688 82.985 191.441 68.6319 176.193 65.0437C162.64 61.4554 147.393 68.6319 132.145 76.7055C118.592 84.7791 103.344 93.7498 88.0968 97.3381C72.8493 100.926 59.296 99.1322 44.0485 95.544C28.801 91.9557 9.03985 58.4398 9.03985 58.4398L0.00012207 48.8964H6.77679C15.2476 48.8964 28.801 48.8964 44.0485 48.8964C59.296 48.8964 72.8493 48.8964 88.0968 48.8964C103.344 48.8964 118.592 48.8964 132.145 48.8964C147.393 48.8964 162.64 48.8964 176.193 48.8964C191.441 48.8964 206.688 48.8964 220.242 48.8964C235.489 48.8964 250.737 48.8964 265.984 48.8964C279.538 48.8964 294.785 48.8964 310.033 48.8964C323.586 48.8964 338.833 48.8964 354.081 48.8964C367.634 48.8964 382.882 44.5 398.129 44.5C411.683 44.5 455.731 42.141 470.978 42.141C486.226 42.141 491.308 45.894 506.556 45.894C521.803 45.894 515.027 48.8964 530.274 48.8964C545.522 48.8964 559.075 48.8964 574.323 48.8964C589.57 48.8964 604.818 48.8964 618.371 48.8964C633.618 48.8964 648.866 48.8964 662.419 48.8964C677.667 48.8964 711.55 45.1434 725.103 45.1434C740.351 45.1434 736.963 48.8964 750.516 48.8964C765.763 48.8964 781.011 48.8964 796.258 48.8964C809.812 48.8964 825.059 48.8964 840.307 48.8964C853.86 48.8964 869.108 48.8964 884.355 48.8964C897.908 48.8964 913.156 48.8964 928.403 48.8964C943.651 48.8964 957.204 48.8964 972.452 48.8964C987.699 48.8964 1001.25 48.8964 1016.5 48.8964C1031.75 48.8964 1045.3 48.8964 1060.55 48.8964C1075.8 48.8964 1089.35 48.8964 1104.6 48.8964C1119.84 48.8964 1146.95 33.6699 1160.5 33.6699C1175.75 33.6699 1191 33.6699 1204.55 33.6699C1219.8 33.6699 1235.05 33.6699 1248.6 33.6699C1263.85 33.6699 1279.1 33.6699 1294.34 33.6699C1307.9 33.6699 1323.14 33.6699 1338.39 33.6699C1351.95 33.6699 1367.19 33.6699 1382.44 33.6699C1395.99 33.6699 1411.24 33.6699 1426.49 33.6699C1440.04 33.6699 1455.29 33.6699 1470.54 33.6699C1485.78 33.6699 1499.34 33.6699 1514.59 33.6699C1529.83 33.6699 1519.67 38.7097 1534.92 38.7097C1550.16 38.7097 1575.58 48.8964 1590.82 48.8964C1606.07 48.8964 1621.32 48.8964 1634.87 48.8964C1650.12 48.8964 1665.37 48.8964 1678.92 48.8964C1694.17 48.8964 1709.41 48.8964 1722.97 48.8964C1738.22 48.8964 1753.46 48.8964 1767.02 48.8964C1782.26 48.8964 1797.51 48.8964 1812.76 48.8964C1826.31 48.8964 1841.56 48.8964 1856.81 48.8964C1870.36 48.8964 1885.61 48.8964 1900.86 48.8964C1914.41 48.8964 1929.66 48.8964 1944.9 48.8964C1960.15 48.8964 1973.7 48.8964 1988.95 48.8964C2004.2 48.8964 2017.75 48.8964 2026.22 48.8964H2033Z" fill="#D1E6F7"/>
<path fill-rule="evenodd" clip-rule="evenodd" d="M86.4025 28.2012C120.286 20.8024 199.912 10.294 238.877 10.294C279.537 10.294 318.503 10.294 359.163 12.8675C398.129 15.441 411.682 15.6554 450.648 23.1614C521.803 29.5952 514.18 33.7771 554.84 36.3506C593.805 38.9241 677.667 18.6578 718.327 30.2386C757.292 41.8193 797.952 41.1759 836.918 33.4554C877.578 25.7349 916.544 10.294 957.204 7.72048C996.17 5.14699 1036.83 15.441 1075.8 14.1542C1116.46 12.8675 1155.42 0 1196.08 0C1235.05 0 1275.71 12.8675 1314.67 14.1542C1355.33 15.441 1395.99 5.14699 1434.96 3.86024C1475.62 2.57349 1514.58 10.294 1555.24 6.43373C1594.21 2.57349 1714.5 3.86023 1753.46 6.43373C1794.12 9.00722 1794.12 12.8675 1794.12 23.1614C1833.09 33.4554 1873.75 33.4554 1912.71 34.7422C1943.51 35.7169 1973.34 37.4299 1994.83 38.7627C2006.64 39.4947 2018.2 42.3413 2029.02 47.1317L2033 48.8964H2012.67C1992.34 48.8964 1953.37 48.8964 1912.71 48.8964C1873.75 48.8964 1849.18 52.8639 1810.22 52.8639C1769.56 52.8639 1736.52 55.0084 1695.86 55.0084C1656.89 55.0084 1631.48 48.8964 1592.52 48.8964C1551.86 48.8964 1518.82 34.7422 1478.16 34.7422C1439.19 34.7422 1381.59 39.8892 1340.93 39.8892C1301.97 39.8892 1235.05 43.5349 1196.08 43.5349C1155.42 43.5349 1134.24 52.8639 1093.58 52.8639C1054.62 52.8639 1012.26 58.4398 973.299 58.4398C932.639 58.4398 844.542 58.4398 803.882 58.4398C764.916 58.4398 757.292 46.7518 718.327 46.7518C677.667 46.7518 578.558 62.1928 539.592 62.1928C498.932 62.1928 508.25 43.5349 467.59 43.5349C428.624 43.5349 398.129 48.8964 359.163 48.8964C318.503 48.8964 267.678 55.0084 227.018 55.0084C188.052 55.0084 159.252 48.8964 120.286 48.8964C79.6258 48.8964 40.66 48.8964 20.33 48.8964H0L86.4025 28.2012Z" fill="white"/>
</svg>
