<svg width="24" height="24" viewBox="0 0 24 24" fill="none" xmlns="http://www.w3.org/2000/svg">
<path id="Vector" d="M1.21412 9.56642C4.00716 15.6532 8.97703 20.4925 15.1558 23.116L16.1463 23.5576C18.4125 24.5679 21.0763 23.8004 22.4583 21.7391L23.7527 19.8087C24.1736 19.1811 24.0455 18.3357 23.4576 17.8612L19.0679 14.3178C18.4233 13.7973 17.4752 13.9187 16.9819 14.5845L15.624 16.418C12.1395 14.6981 9.31049 11.8676 7.59174 8.38105L9.42403 7.02232C10.0896 6.5288 10.2108 5.58015 9.6906 4.93503L6.14928 0.542722C5.6751 -0.0453809 4.83051 -0.173667 4.20327 0.247154L2.26074 1.55043C0.187766 2.94121 -0.575029 5.62864 0.457902 7.90205L1.21299 9.56396L1.21412 9.56642Z" fill="black"/>
</svg>
