<svg width="32" height="32" viewBox="0 0 32 32" fill="none" xmlns="http://www.w3.org/2000/svg">
<g id="user-01">
<path id="Icon" d="M26.6666 28C26.6666 26.1392 26.6666 25.2089 26.437 24.4518C25.9199 22.7473 24.586 21.4134 22.8815 20.8963C22.1244 20.6667 21.1941 20.6667 19.3333 20.6667H12.6667C10.8059 20.6667 9.87552 20.6667 9.11846 20.8963C7.41392 21.4134 6.08003 22.7473 5.56297 24.4518C5.33331 25.2089 5.33331 26.1392 5.33331 28M22 10C22 13.3137 19.3137 16 16 16C12.6863 16 9.99998 13.3137 9.99998 10C9.99998 6.68629 12.6863 4 16 4C19.3137 4 22 6.68629 22 10Z" stroke="black" stroke-width="2" stroke-linecap="round" stroke-linejoin="round"/>
</g>
</svg>
