<svg width="124" height="164" viewBox="0 0 124 164" fill="none" xmlns="http://www.w3.org/2000/svg">
<g id="Frame 1410113716">
<g clip-path="url(#clip0_33_23)">
<rect width="124" height="164" rx="4" fill="#090E1B"/>
<g id="Vector" style="mix-blend-mode:screen">
<path d="M74.2157 25.4877C74.3692 25.5693 74.5228 25.6509 74.6811 25.735C78.4575 27.8289 81.3678 30.8641 83.566 34.5504C83.6419 34.6776 83.7178 34.8049 83.796 34.936C84.9348 36.8626 85.9536 38.7939 86.7331 40.8942C86.795 41.0607 86.795 41.0607 86.8582 41.2306C88.2493 45.0366 89.0056 49.1195 89.0259 53.1742C89.0269 53.3172 89.028 53.4601 89.0291 53.6074C89.0317 54.0678 89.0327 54.5281 89.0329 54.9885C89.0331 55.2257 89.0331 55.2257 89.0333 55.4677C89.0306 58.0907 88.9165 60.6493 88.5428 63.2487C88.5169 63.4319 88.491 63.6151 88.4644 63.8039C88.0473 66.6769 87.4509 69.4998 86.7331 72.3114C86.6972 72.4526 86.6613 72.5938 86.6243 72.7393C85.4507 77.2449 83.2153 81.5911 80.9669 85.6506C80.3165 86.8271 79.6898 88.0151 79.0718 89.2089C78.9594 89.4258 78.8466 89.6426 78.7333 89.8591C77.2555 92.6806 77.2555 92.6806 76.8549 95.8082C76.8543 96.0423 76.8543 96.0423 76.8537 96.2811C76.8732 97.8432 77.1959 99.3018 77.92 100.689C77.9718 100.79 78.0236 100.891 78.077 100.995C81.5174 107.506 88.8755 111.604 95.6663 113.698C97.2081 114.161 98.766 114.564 100.323 114.973C105.671 116.381 111.025 117.858 115.689 120.948C115.833 121.035 115.977 121.123 116.126 121.214C121.228 124.328 122.949 130.323 124.586 135.721C124.625 135.85 124.664 135.978 124.704 136.11C124.897 136.745 125.088 137.381 125.277 138.017C125.675 139.345 126.121 140.63 126.67 141.903C127 142.671 127 165.671 127 166C84.1001 166 41.2001 166 -2.99994 166C-2.89436 165.471 -2.81494 142.116 -2.60776 141.644C-2.55927 141.532 -2.51078 141.42 -2.46082 141.304C-2.40861 141.185 -2.3564 141.065 -2.30261 140.942C-1.54918 139.181 -0.886297 137.394 -0.272534 135.579C2.40491 127.669 5.74569 121.968 13.4131 118.167C15.6987 117.056 18.0264 116.171 20.4441 115.397C21.0123 115.215 21.5798 115.031 22.1475 114.847C22.5826 114.706 23.0178 114.565 23.453 114.424C29.4381 112.508 29.4381 112.508 35.1553 109.921C35.3495 109.824 35.3495 109.824 35.5477 109.725C38.4876 108.206 41.084 105.254 42.8467 102.52C42.9416 102.374 43.0365 102.228 43.1342 102.078C44.1369 100.453 44.9526 98.5479 45.1089 96.6295C45.1179 96.5195 45.127 96.4096 45.1362 96.2963C45.2868 94.1593 44.9416 92.522 44.0532 90.5877C43.9886 90.4444 43.9239 90.3012 43.8572 90.1535C42.7045 87.6203 41.3852 85.1811 40.0399 82.7467C33.8824 71.5946 31.1818 57.0894 34.6971 44.6545C34.7979 44.3069 34.9006 43.9598 35.0045 43.613C35.0377 43.5018 35.071 43.3906 35.1052 43.276C36.624 38.275 39.1437 34.149 42.8279 30.4627C42.9604 30.3302 43.0928 30.1976 43.2293 30.0611C44.1191 29.1783 45.0218 28.3681 46.0138 27.6024C46.1349 27.4976 46.256 27.3929 46.3808 27.2849C54.2589 20.4876 65.3552 20.6462 74.2157 25.4877Z" fill="#090E1B" style="mix-blend-mode:soft-light"/>
</g>
</g>
<rect x="0.5" y="0.5" width="123" height="163" rx="3.5" stroke="white" stroke-opacity="0.05"/>
</g>
<defs>
<clipPath id="clip0_33_23">
<rect width="124" height="164" rx="4" fill="white"/>
</clipPath>
</defs>
</svg>
