<svg width="18" height="18" viewBox="0 0 18 18" fill="none" xmlns="http://www.w3.org/2000/svg">
<g id="PaperPlaneRight">
<path id="Vector" d="M16.3145 8.99226C16.315 9.1927 16.262 9.38964 16.1609 9.5627C16.0597 9.73577 15.9142 9.87867 15.7394 9.97664L3.93318 16.7273C3.76356 16.8235 3.57201 16.8744 3.37701 16.875C3.19719 16.8746 3.02007 16.8312 2.8605 16.7482C2.70094 16.6653 2.56358 16.5453 2.45994 16.3984C2.3563 16.2514 2.2894 16.0818 2.26484 15.9036C2.24029 15.7255 2.25879 15.544 2.31881 15.3745L4.24186 9.75304C4.26081 9.69743 4.2967 9.64914 4.34449 9.61497C4.39229 9.58079 4.44958 9.56244 4.50834 9.5625H9.56451C9.64162 9.56266 9.71795 9.54698 9.78874 9.51641C9.85954 9.48584 9.92329 9.44104 9.97604 9.38479C10.0288 9.32855 10.0694 9.26206 10.0954 9.18945C10.1214 9.11684 10.1321 9.03967 10.127 8.96273C10.1143 8.81809 10.0473 8.6836 9.93964 8.58621C9.83194 8.48881 9.69143 8.43569 9.54623 8.4375H4.51326C4.45459 8.4376 4.39736 8.41935 4.34957 8.38531C4.30179 8.35127 4.26585 8.30314 4.24678 8.24765L2.3174 2.62265C2.24227 2.40711 2.23448 2.17381 2.29507 1.95374C2.35566 1.73366 2.48176 1.53723 2.65662 1.39051C2.83149 1.2438 3.04685 1.15375 3.27411 1.13232C3.50136 1.11089 3.72976 1.1591 3.92897 1.27054L15.7415 8.01281C15.9152 8.11064 16.0598 8.25289 16.1605 8.42499C16.2612 8.59709 16.3144 8.79287 16.3145 8.99226Z" fill="white" fill-opacity="0.5"/>
</g>
</svg>
