<svg width="24" height="25" viewBox="0 0 24 25" fill="none" xmlns="http://www.w3.org/2000/svg">
<g clip-path="url(#clip0_222_3552)">
<path d="M21.1875 8.75745C21.15 8.6637 21.1106 8.56995 21.0703 8.4762C20.4654 7.08123 19.4865 5.88072 18.2419 5.00745H20.25C20.4489 5.00745 20.6397 4.92843 20.7803 4.78778C20.921 4.64712 21 4.45636 21 4.25745C21 4.05853 20.921 3.86777 20.7803 3.72712C20.6397 3.58646 20.4489 3.50745 20.25 3.50745H10.5C8.42634 3.51008 6.42951 4.29247 4.90601 5.69925C3.38252 7.10603 2.4438 9.03431 2.27625 11.1012C1.6284 11.2622 1.05277 11.6348 0.640489 12.1598C0.228203 12.6848 0.00281392 13.3324 0 13.9999C0 14.1989 0.0790176 14.3896 0.21967 14.5303C0.360322 14.6709 0.551088 14.7499 0.75 14.7499C0.948912 14.7499 1.13968 14.6709 1.28033 14.5303C1.42098 14.3896 1.5 14.1989 1.5 13.9999C1.50017 13.7265 1.57512 13.4582 1.71673 13.2242C1.85834 12.9903 2.06122 12.7994 2.30344 12.6724C2.49012 14.3551 3.19176 15.9391 4.3125 17.2081L5.49 20.5043C5.5941 20.7959 5.78586 21.0481 6.03898 21.2263C6.29209 21.4046 6.59416 21.5002 6.90375 21.4999H8.09625C8.40568 21.5 8.70754 21.4043 8.96047 21.2261C9.2134 21.0478 9.40502 20.7957 9.50906 20.5043L9.68906 19.9999H15.0609L15.2409 20.5043C15.345 20.7957 15.5366 21.0478 15.7895 21.2261C16.0425 21.4043 16.3443 21.5 16.6537 21.4999H17.8463C18.1557 21.5 18.4575 21.4043 18.7105 21.2261C18.9634 21.0478 19.155 20.7957 19.2591 20.5043L20.7787 16.2499H21C21.5967 16.2499 22.169 16.0129 22.591 15.5909C23.0129 15.169 23.25 14.5967 23.25 13.9999V10.9999C23.2501 10.4356 23.0381 9.89185 22.6561 9.47648C22.274 9.06112 21.7499 8.80447 21.1875 8.75745ZM14.25 7.24995H10.5C10.3011 7.24995 10.1103 7.17093 9.96967 7.03028C9.82902 6.88962 9.75 6.69886 9.75 6.49995C9.75 6.30103 9.82902 6.11027 9.96967 5.96962C10.1103 5.82896 10.3011 5.74995 10.5 5.74995H14.25C14.4489 5.74995 14.6397 5.82896 14.7803 5.96962C14.921 6.11027 15 6.30103 15 6.49995C15 6.69886 14.921 6.88962 14.7803 7.03028C14.6397 7.17093 14.4489 7.24995 14.25 7.24995ZM16.875 12.4999C16.6525 12.4999 16.435 12.434 16.25 12.3103C16.065 12.1867 15.9208 12.011 15.8356 11.8055C15.7505 11.5999 15.7282 11.3737 15.7716 11.1555C15.815 10.9372 15.9222 10.7368 16.0795 10.5795C16.2368 10.4221 16.4373 10.315 16.6555 10.2716C16.8738 10.2282 17.1 10.2504 17.3055 10.3356C17.5111 10.4207 17.6868 10.5649 17.8104 10.7499C17.934 10.9349 18 11.1524 18 11.3749C18 11.6733 17.8815 11.9595 17.6705 12.1704C17.4595 12.3814 17.1734 12.4999 16.875 12.4999Z" fill="black"/>
</g>
<defs>
<clipPath id="clip0_222_3552">
<rect width="24" height="24" fill="white" transform="translate(0 0.5)"/>
</clipPath>
</defs>
</svg>
