<svg width="24" height="25" viewBox="0 0 24 25" fill="none" xmlns="http://www.w3.org/2000/svg">
<path d="M22.5 20H21.75V8.75C21.75 8.55109 21.671 8.36032 21.5303 8.21967C21.3897 8.07902 21.1989 8 21 8H15C14.8011 8 14.6103 8.07902 14.4697 8.21967C14.329 8.36032 14.25 8.55109 14.25 8.75V12.5H9.75V4.25C9.75 4.05109 9.67098 3.86032 9.53033 3.71967C9.38968 3.57902 9.19891 3.5 9 3.5H3C2.80109 3.5 2.61032 3.57902 2.46967 3.71967C2.32902 3.86032 2.25 4.05109 2.25 4.25V20H1.5C1.30109 20 1.11032 20.079 0.96967 20.2197C0.829018 20.3603 0.75 20.5511 0.75 20.75C0.75 20.9489 0.829018 21.1397 0.96967 21.2803C1.11032 21.421 1.30109 21.5 1.5 21.5H22.5C22.6989 21.5 22.8897 21.421 23.0303 21.2803C23.171 21.1397 23.25 20.9489 23.25 20.75C23.25 20.5511 23.171 20.3603 23.0303 20.2197C22.8897 20.079 22.6989 20 22.5 20ZM6.75 17.75C6.75 17.9489 6.67098 18.1397 6.53033 18.2803C6.38968 18.421 6.19891 18.5 6 18.5C5.80109 18.5 5.61032 18.421 5.46967 18.2803C5.32902 18.1397 5.25 17.9489 5.25 17.75V16.25C5.25 16.0511 5.32902 15.8603 5.46967 15.7197C5.61032 15.579 5.80109 15.5 6 15.5C6.19891 15.5 6.38968 15.579 6.53033 15.7197C6.67098 15.8603 6.75 16.0511 6.75 16.25V17.75ZM6.75 13.25C6.75 13.4489 6.67098 13.6397 6.53033 13.7803C6.38968 13.921 6.19891 14 6 14C5.80109 14 5.61032 13.921 5.46967 13.7803C5.32902 13.6397 5.25 13.4489 5.25 13.25V11.75C5.25 11.5511 5.32902 11.3603 5.46967 11.2197C5.61032 11.079 5.80109 11 6 11C6.19891 11 6.38968 11.079 6.53033 11.2197C6.67098 11.3603 6.75 11.5511 6.75 11.75V13.25ZM6.75 8.75C6.75 8.94891 6.67098 9.13968 6.53033 9.28033C6.38968 9.42098 6.19891 9.5 6 9.5C5.80109 9.5 5.61032 9.42098 5.46967 9.28033C5.32902 9.13968 5.25 8.94891 5.25 8.75V7.25C5.25 7.05109 5.32902 6.86032 5.46967 6.71967C5.61032 6.57902 5.80109 6.5 6 6.5C6.19891 6.5 6.38968 6.57902 6.53033 6.71967C6.67098 6.86032 6.75 7.05109 6.75 7.25V8.75ZM12.75 17.75C12.75 17.9489 12.671 18.1397 12.5303 18.2803C12.3897 18.421 12.1989 18.5 12 18.5C11.8011 18.5 11.6103 18.421 11.4697 18.2803C11.329 18.1397 11.25 17.9489 11.25 17.75V16.25C11.25 16.0511 11.329 15.8603 11.4697 15.7197C11.6103 15.579 11.8011 15.5 12 15.5C12.1989 15.5 12.3897 15.579 12.5303 15.7197C12.671 15.8603 12.75 16.0511 12.75 16.25V17.75ZM18.75 17.75C18.75 17.9489 18.671 18.1397 18.5303 18.2803C18.3897 18.421 18.1989 18.5 18 18.5C17.8011 18.5 17.6103 18.421 17.4697 18.2803C17.329 18.1397 17.25 17.9489 17.25 17.75V16.25C17.25 16.0511 17.329 15.8603 17.4697 15.7197C17.6103 15.579 17.8011 15.5 18 15.5C18.1989 15.5 18.3897 15.579 18.5303 15.7197C18.671 15.8603 18.75 16.0511 18.75 16.25V17.75ZM18.75 13.25C18.75 13.4489 18.671 13.6397 18.5303 13.7803C18.3897 13.921 18.1989 14 18 14C17.8011 14 17.6103 13.921 17.4697 13.7803C17.329 13.6397 17.25 13.4489 17.25 13.25V11.75C17.25 11.5511 17.329 11.3603 17.4697 11.2197C17.6103 11.079 17.8011 11 18 11C18.1989 11 18.3897 11.079 18.5303 11.2197C18.671 11.3603 18.75 11.5511 18.75 11.75V13.25Z" fill="black"/>
</svg>
