<svg width="24" height="25" viewBox="0 0 24 25" fill="none" xmlns="http://www.w3.org/2000/svg">
<path d="M11.25 20.75C11.25 20.9489 11.171 21.1397 11.0303 21.2803C10.8897 21.421 10.6989 21.5 10.5 21.5H4.5C4.30109 21.5 4.11032 21.421 3.96967 21.2803C3.82902 21.1397 3.75 20.9489 3.75 20.75V4.25C3.75 4.05109 3.82902 3.86032 3.96967 3.71967C4.11032 3.57902 4.30109 3.5 4.5 3.5H10.5C10.6989 3.5 10.8897 3.57902 11.0303 3.71967C11.171 3.86032 11.25 4.05109 11.25 4.25C11.25 4.44891 11.171 4.63968 11.0303 4.78033C10.8897 4.92098 10.6989 5 10.5 5H5.25V20H10.5C10.6989 20 10.8897 20.079 11.0303 20.2197C11.171 20.3603 11.25 20.5511 11.25 20.75ZM21.5306 11.9694L17.7806 8.21937C17.6757 8.11437 17.542 8.04284 17.3965 8.01385C17.2509 7.98487 17.1 7.99972 16.9629 8.05653C16.8258 8.11335 16.7086 8.20957 16.6262 8.33301C16.5438 8.45646 16.4999 8.60158 16.5 8.75V11.75H10.5C10.3011 11.75 10.1103 11.829 9.96967 11.9697C9.82902 12.1103 9.75 12.3011 9.75 12.5C9.75 12.6989 9.82902 12.8897 9.96967 13.0303C10.1103 13.171 10.3011 13.25 10.5 13.25H16.5V16.25C16.4999 16.3984 16.5438 16.5435 16.6262 16.667C16.7086 16.7904 16.8258 16.8867 16.9629 16.9435C17.1 17.0003 17.2509 17.0151 17.3965 16.9861C17.542 16.9572 17.6757 16.8856 17.7806 16.7806L21.5306 13.0306C21.6004 12.961 21.6557 12.8783 21.6934 12.7872C21.7312 12.6962 21.7506 12.5986 21.7506 12.5C21.7506 12.4014 21.7312 12.3038 21.6934 12.2128C21.6557 12.1217 21.6004 12.039 21.5306 11.9694Z" fill="black"/>
</svg>
