<svg width="24" height="25" viewBox="0 0 24 25" fill="none" xmlns="http://www.w3.org/2000/svg">
<path d="M14.25 11C14.25 11.1989 14.171 11.3897 14.0303 11.5303C13.8897 11.671 13.6989 11.75 13.5 11.75H10.5C10.3011 11.75 10.1103 11.671 9.96967 11.5303C9.82902 11.3897 9.75 11.1989 9.75 11C9.75 10.8011 9.82902 10.6103 9.96967 10.4697C10.1103 10.329 10.3011 10.25 10.5 10.25H13.5C13.6989 10.25 13.8897 10.329 14.0303 10.4697C14.171 10.6103 14.25 10.8011 14.25 11ZM21.75 7.25V19.25C21.75 19.6478 21.592 20.0294 21.3107 20.3107C21.0294 20.592 20.6478 20.75 20.25 20.75H3.75C3.35218 20.75 2.97064 20.592 2.68934 20.3107C2.40804 20.0294 2.25 19.6478 2.25 19.25V7.25C2.25 6.85218 2.40804 6.47064 2.68934 6.18934C2.97064 5.90804 3.35218 5.75 3.75 5.75H7.5V5C7.5 4.40326 7.73705 3.83097 8.15901 3.40901C8.58097 2.98705 9.15326 2.75 9.75 2.75H14.25C14.8467 2.75 15.419 2.98705 15.841 3.40901C16.2629 3.83097 16.5 4.40326 16.5 5V5.75H20.25C20.6478 5.75 21.0294 5.90804 21.3107 6.18934C21.592 6.47064 21.75 6.85218 21.75 7.25ZM9 5.75H15V5C15 4.80109 14.921 4.61032 14.7803 4.46967C14.6397 4.32902 14.4489 4.25 14.25 4.25H9.75C9.55109 4.25 9.36032 4.32902 9.21967 4.46967C9.07902 4.61032 9 4.80109 9 5V5.75ZM20.25 11.1509V7.25H3.75V11.1509C6.28146 12.5289 9.11783 13.2505 12 13.25C14.8822 13.2505 17.7185 12.5289 20.25 11.1509Z" fill="black"/>
</svg>
