<svg width="24" height="25" viewBox="0 0 24 25" fill="none" xmlns="http://www.w3.org/2000/svg">
<path d="M18 2.75H6C5.40326 2.75 4.83097 2.98705 4.40901 3.40901C3.98705 3.83097 3.75 4.40326 3.75 5V20C3.75 20.5967 3.98705 21.169 4.40901 21.591C4.83097 22.0129 5.40326 22.25 6 22.25H18C18.5967 22.25 19.169 22.0129 19.591 21.591C20.0129 21.169 20.25 20.5967 20.25 20V5C20.25 4.40326 20.0129 3.83097 19.591 3.40901C19.169 2.98705 18.5967 2.75 18 2.75ZM15 7.25H9C8.80109 7.25 8.61032 7.17098 8.46967 7.03033C8.32902 6.88968 8.25 6.69891 8.25 6.5C8.25 6.30109 8.32902 6.11032 8.46967 5.96967C8.61032 5.82902 8.80109 5.75 9 5.75H15C15.1989 5.75 15.3897 5.82902 15.5303 5.96967C15.671 6.11032 15.75 6.30109 15.75 6.5C15.75 6.69891 15.671 6.88968 15.5303 7.03033C15.3897 7.17098 15.1989 7.25 15 7.25Z" fill="black"/>
</svg>
