<svg width="24" height="24" viewBox="0 0 24 24" fill="none" xmlns="http://www.w3.org/2000/svg">
<path d="M11.8537 2.69312L1.51421 10.613C1.3615 10.7347 1.46167 11.0346 1.65699 11.0405H2.87428L2.89682 21.1204C2.89683 21.2461 3.01138 21.3604 3.13727 21.3604H20.8632C20.9891 21.3604 21.1037 21.2461 21.1037 21.1204L21.1187 11.0405H22.336C22.5338 11.0406 22.6408 10.7363 22.4863 10.613L12.1468 2.69312C12.1026 2.65781 12.0456 2.63884 11.989 2.64062C11.9368 2.632 11.8913 2.67855 11.8537 2.69312V2.69312ZM11.9965 3.18812L21.6222 10.5605H20.8783C20.7524 10.5606 20.6378 10.6749 20.6378 10.8005L20.6228 20.8804L17.7824 20.8847V12.4848C17.7824 12.3592 17.6679 12.2448 17.542 12.2448C13.8479 12.2448 10.151 12.2448 6.45855 12.2448C6.34035 12.2559 6.24012 12.3663 6.24064 12.4848V20.8847L3.37774 20.8804L3.3552 10.8005C3.35519 10.6749 3.24064 10.5606 3.11475 10.5605H2.37836L11.9965 3.18812ZM12.0115 6.00501C10.952 6.00501 10.0879 6.86746 10.0879 7.925C10.0879 8.98253 10.952 9.83747 12.0115 9.83747C13.0711 9.83747 13.9351 8.98253 13.9351 7.925C13.9351 6.86746 13.0711 6.00501 12.0115 6.00501ZM12.0115 6.47751C12.8112 6.47751 13.4542 7.12687 13.4542 7.925C13.4542 8.72312 12.8112 9.36498 12.0115 9.36498C11.2119 9.36498 10.5688 8.72312 10.5688 7.925C10.5688 7.12687 11.2119 6.47751 12.0115 6.47751ZM6.72154 12.725H17.3015V20.8849H6.72154V12.725ZM7.68335 14.6449V15.1249H16.3397V14.6449H7.68335ZM7.68335 16.5649V17.0449H16.3397V16.5649H7.68335ZM7.68335 18.4849V18.9649H16.3397V18.4849H7.68335Z" fill="white"/>
</svg>
