<svg width="24" height="24" viewBox="0 0 24 24" fill="none" xmlns="http://www.w3.org/2000/svg">
<path d="M22.1031 7.18187C21.771 7.85312 21.4389 8.52437 21.1068 9.19562C20.6499 9.1982 20.1929 9.20078 19.736 9.20336C19.1268 9.20681 18.5175 9.21025 17.9083 9.21369C16.5375 9.22144 15.1667 9.22919 13.7959 9.23694C12.412 9.24476 10.5668 8.97286 9.34265 9.82172C8.11566 10.6726 8.18052 12.0666 8.08773 13.4058C7.99618 14.7273 7.75573 17.1316 6.79603 18.1224C6.20156 18.7362 3.53465 19.601 2.52929 19.026C1.38045 18.369 1.93718 15.5303 2.11381 14.5678C2.31041 13.4966 2.94495 12.3564 3.04019 11.295C3.08503 10.7953 2.89796 10.7197 2.84751 10.2539C2.58276 7.80998 2.56766 6.20063 5.26348 6.19752C8.01709 6.19434 10.7707 6.19116 13.5243 6.18799C14.5395 6.18681 21.9834 5.604 22.215 6.68885C22.37 7.41464 23.4826 7.1075 23.3277 6.38211C23.1442 5.52303 22.7194 5.26899 21.9014 5.05398C20.2541 4.62099 17.9834 5.02899 16.2779 5.03096C13.9832 5.03361 11.6886 5.03626 9.39389 5.03891C7.64842 5.04092 5.04523 4.52756 3.40843 5.10237C1.57561 5.74601 1.04116 8.41349 1.50511 10.0885C1.61587 10.4884 1.86092 10.7738 1.88164 11.196C1.92276 12.0336 1.1629 13.3863 1.00118 14.2611C0.750824 15.6154 0.517421 17.1863 0.75907 18.5432C1.17333 20.8694 4.20413 20.4199 6.03555 20.0849C8.33944 19.6635 8.98763 16.1532 9.18642 14.21C9.36625 12.4522 8.77105 10.9213 11.3915 10.4147C12.1143 10.2749 13.0711 10.3949 13.7959 10.3908C15.9281 10.3787 18.0609 10.3817 20.1929 10.3546C22.6833 10.323 23.6613 9.4892 23.2157 6.87513C23.0912 6.14466 21.9791 6.45439 22.1031 7.18187Z" fill="#D7D9E1"/>
<path d="M20.0879 4.19946C20.0879 4.51998 20.0879 4.84049 20.0879 5.161C20.0879 5.90345 21.2417 5.90468 21.2417 5.161C21.2417 4.84049 21.2417 4.51998 21.2417 4.19946C21.2417 3.45702 20.0879 3.45579 20.0879 4.19946Z" fill="#D7D9E1"/>
<path d="M4.47241 4.39177C4.47241 4.49434 4.47241 4.5969 4.47241 4.69946C4.47241 5.44191 5.62626 5.44314 5.62626 4.69946C5.62626 4.5969 5.62626 4.49434 5.62626 4.39177C5.62626 3.64933 4.47241 3.6481 4.47241 4.39177Z" fill="#D7D9E1"/>
<path d="M12.494 10.3179C12.5687 11.4713 12.3634 12.2193 11.5034 13.0156C10.7039 13.7558 9.88389 13.9617 8.81925 14.0093C8.07971 14.0424 8.07562 15.1965 8.81925 15.1632C10.1923 15.1017 11.2943 14.7867 12.3193 13.8315C13.4035 12.8211 13.743 11.787 13.6478 10.3179C13.6001 9.58062 12.4459 9.57526 12.494 10.3179Z" fill="#D7D9E1"/>
<path d="M9.55926 10.614C10.0015 10.9637 10.428 11.3313 10.8391 11.717C11.3803 12.2248 12.1979 11.4105 11.655 10.9011C11.2439 10.5154 10.8174 10.1478 10.3752 9.79813C10.131 9.60507 9.79759 9.55981 9.55926 9.79813C9.35873 9.99866 9.31351 10.4197 9.55926 10.614Z" fill="#D7D9E1"/>
</svg>
