<svg width="24" height="25" viewBox="0 0 24 25" fill="none" xmlns="http://www.w3.org/2000/svg">
<path d="M2 3.75C2 3.05964 2.55964 2.5 3.25 2.5H9.5C10.1904 2.5 10.75 3.05964 10.75 3.75V10C10.75 10.6904 10.1904 11.25 9.5 11.25H3.25C2.55964 11.25 2 10.6904 2 10V3.75Z" fill="black"/>
<path d="M13.25 3.75C13.25 3.05964 13.8096 2.5 14.5 2.5H20.75C21.4404 2.5 22 3.05964 22 3.75V10C22 10.6904 21.4404 11.25 20.75 11.25H14.5C13.8096 11.25 13.25 10.6904 13.25 10V3.75Z" fill="black"/>
<path d="M2 15C2 14.3096 2.55964 13.75 3.25 13.75H9.5C10.1904 13.75 10.75 14.3096 10.75 15V21.25C10.75 21.9404 10.1904 22.5 9.5 22.5H3.25C2.55964 22.5 2 21.9404 2 21.25V15Z" fill="black"/>
<path d="M13.25 15C13.25 14.3096 13.8096 13.75 14.5 13.75H20.75C21.4404 13.75 22 14.3096 22 15V21.25C22 21.9404 21.4404 22.5 20.75 22.5H14.5C13.8096 22.5 13.25 21.9404 13.25 21.25V15Z" fill="black"/>
</svg>
