<svg width="24" height="25" viewBox="0 0 24 25" fill="none" xmlns="http://www.w3.org/2000/svg">
<path d="M4.93969 9.81034C4.80037 9.67105 4.68985 9.50568 4.61445 9.32367C4.53904 9.14165 4.50023 8.94657 4.50023 8.74956C4.50023 8.55255 4.53904 8.35747 4.61445 8.17546C4.68985 7.99345 4.80037 7.82807 4.93969 7.68878L10.9397 1.68878C11.221 1.40744 11.6026 1.24939 12.0005 1.24939C12.3983 1.24939 12.7799 1.40744 13.0613 1.68878C13.3426 1.97012 13.5006 2.35169 13.5006 2.74956C13.5006 3.14743 13.3426 3.52901 13.0613 3.81034L7.06126 9.81034C6.92196 9.94967 6.75659 10.0602 6.57458 10.1356C6.39257 10.211 6.19749 10.2498 6.00047 10.2498C5.80346 10.2498 5.60838 10.211 5.42637 10.1356C5.24436 10.0602 5.07899 9.94967 4.93969 9.81034ZM22.8113 11.4388C22.672 11.2995 22.5066 11.1889 22.3246 11.1135C22.1426 11.0381 21.9475 10.9993 21.7505 10.9993C21.5535 10.9993 21.3584 11.0381 21.1764 11.1135C20.9944 11.1889 20.829 11.2995 20.6897 11.4388L14.6897 17.4388C14.5504 17.5781 14.4398 17.7434 14.3644 17.9255C14.289 18.1075 14.2502 18.3025 14.2502 18.4996C14.2502 18.6966 14.289 18.8917 14.3644 19.0737C14.4398 19.2557 14.5504 19.421 14.6897 19.5603C14.829 19.6997 14.9944 19.8102 15.1764 19.8856C15.3584 19.961 15.5535 19.9998 15.7505 19.9998C15.9475 19.9998 16.1426 19.961 16.3246 19.8856C16.5066 19.8102 16.672 19.6997 16.8113 19.5603L22.8113 13.5603C22.9506 13.421 23.0611 13.2557 23.1365 13.0737C23.2119 12.8917 23.2507 12.6966 23.2507 12.4996C23.2507 12.3025 23.2119 12.1075 23.1365 11.9255C23.0611 11.7434 22.9506 11.5781 22.8113 11.4388ZM19.5197 9.95753L14.5425 4.98034C14.5077 4.94548 14.4663 4.91782 14.4208 4.89894C14.3753 4.88007 14.3265 4.87036 14.2772 4.87036C14.2279 4.87036 14.1791 4.88007 14.1336 4.89894C14.0881 4.91782 14.0467 4.94548 14.0119 4.98034L8.23126 10.761C8.19639 10.7958 8.16873 10.8372 8.14986 10.8827C8.13099 10.9282 8.12127 10.977 8.12127 11.0263C8.12127 11.0756 8.13099 11.1244 8.14986 11.1699C8.16873 11.2154 8.19639 11.2568 8.23126 11.2916L9.65626 12.7194L2.68969 19.6897C2.42026 19.9733 2.27228 20.3509 2.27728 20.7421C2.28229 21.1332 2.4399 21.5069 2.7165 21.7835C2.9931 22.0601 3.36682 22.2177 3.75796 22.2228C4.1491 22.2278 4.52673 22.0798 4.81032 21.8103L11.7806 14.8438L13.2084 16.2716C13.2433 16.3065 13.2846 16.3341 13.3302 16.353C13.3757 16.3719 13.4245 16.3816 13.4738 16.3816C13.523 16.3816 13.5718 16.3719 13.6174 16.353C13.6629 16.3341 13.7042 16.3065 13.7391 16.2716L19.5197 10.491C19.555 10.4561 19.583 10.4146 19.6021 10.3688C19.6212 10.323 19.6311 10.2739 19.6311 10.2242C19.6311 10.1746 19.6212 10.1255 19.6021 10.0797C19.583 10.0339 19.555 9.99241 19.5197 9.95753Z" fill="black"/>
</svg>
