<svg width="24" height="24" viewBox="0 0 24 24" fill="none" xmlns="http://www.w3.org/2000/svg">
<path d="M18.8686 16.6041V15.5781C18.8686 15.3318 18.6689 15.1321 18.4224 15.1321H15.6214C15.3749 15.1321 15.1752 15.3318 15.1752 15.5781V16.5772H14.5356V14.0118L16.5917 12.8992C16.7357 12.8214 16.8255 12.6707 16.8255 12.5068V7.40271C16.8255 7.40127 16.8252 7.40007 16.8252 7.39863L18.8295 4.14207C18.9115 4.00863 18.918 3.84207 18.8458 3.70311C18.7738 3.56415 18.6343 3.47295 18.4781 3.46263C14.37 3.19911 12.3223 1.36839 12.3029 1.35111C12.133 1.19367 11.8692 1.19367 11.6979 1.35015C11.6775 1.36839 9.62979 3.19911 5.52219 3.46263C5.36595 3.47295 5.22651 3.56415 5.15451 3.70311C5.08227 3.84207 5.08875 4.00863 5.17059 4.14207L7.17483 7.39863C7.17483 7.40007 7.17483 7.40127 7.17483 7.40271V12.507C7.17483 12.6709 7.26459 12.8217 7.40859 12.8994L9.46443 14.0121V16.5772H8.82507V15.5781C8.82507 15.3318 8.62515 15.1321 8.37867 15.1321H5.57739C5.33091 15.1321 5.13123 15.3318 5.13123 15.5781V16.6041C4.62627 16.7214 4.24683 17.211 4.24683 17.7959V18.9021C4.24683 19.1486 4.44627 19.3482 4.69251 19.3482C4.93899 19.3482 5.13891 19.1486 5.13891 18.9021V17.7959C5.13891 17.6037 5.25771 17.4698 5.36427 17.4698H5.57715H8.37843H9.72651L11.6854 19.415C11.7723 19.5009 11.8863 19.5443 12 19.5443C12.1135 19.5443 12.2273 19.5009 12.3144 19.415L14.2733 17.4698H15.6214H18.4224H18.6355C18.7419 17.4698 18.8609 17.6039 18.8609 17.7959V21.8747H5.13915V21.0837C5.13915 20.8372 4.93923 20.6375 4.69275 20.6375C4.44651 20.6375 4.24707 20.8372 4.24707 21.0837V22.3209C4.24707 22.5669 4.44651 22.7668 4.69275 22.7668H19.3073C19.5535 22.7668 19.7532 22.5669 19.7532 22.3209V17.7957C19.7532 17.211 19.3735 16.7214 18.8686 16.6041ZM12 7.71855L15.6675 7.82751C15.492 8.01255 15.2335 8.18991 14.9043 8.34735C14.136 8.71383 13.1043 8.91567 11.9998 8.91567C10.8951 8.91567 9.86379 8.71383 9.09531 8.34735C8.76603 8.18991 8.50755 8.01255 8.33211 7.82751L12 7.71855ZM12 2.25207C12.6922 2.76927 14.5661 3.94335 17.6907 4.28967L16.1299 6.82575H7.87011L6.30939 4.28967C9.43371 3.94335 11.3076 2.76927 12 2.25207ZM8.06691 8.77335C8.25411 8.91015 8.46915 9.03735 8.71107 9.15279C9.59691 9.57543 10.765 9.80823 12 9.80823C13.2351 9.80823 14.4029 9.57519 15.2887 9.15279C15.5307 9.03735 15.7457 8.91015 15.9331 8.77335V12.2409L13.8778 13.3533C13.8778 13.3533 13.8773 13.3533 13.8773 13.3535L12 14.3689L10.1227 13.3535C10.1227 13.3533 10.1225 13.3533 10.1223 13.3533L8.06715 12.2409V8.77335H8.06691ZM11.7876 15.2689C11.9199 15.3407 12.0799 15.3407 12.2124 15.2689L13.6431 14.4945V16.5769H10.3567V14.4945L11.7876 15.2689ZM6.02379 16.5769V16.024H7.93251V16.5769H6.02379ZM12 18.4691L10.993 17.4695H13.0071L12 18.4691ZM16.0675 16.5769V16.024H17.9763V16.5769H16.0675Z" fill="#D7D9E1"/>
<path d="M17.4286 20.3127C17.6751 20.3127 17.875 20.1131 17.875 19.8666C17.875 19.6203 17.6751 19.4204 17.4286 19.4204H14.5534C14.3072 19.4204 14.1072 19.6203 14.1072 19.8666C14.1072 20.1131 14.3072 20.3127 14.5534 20.3127H17.4286Z" fill="#D7D9E1"/>
</svg>
