<svg width="24" height="25" viewBox="0 0 24 25" fill="none" xmlns="http://www.w3.org/2000/svg">
<path d="M22.5 20H21V13.25L21.2194 13.4694C21.3604 13.6101 21.5515 13.6891 21.7507 13.6889C21.9499 13.6887 22.1408 13.6094 22.2816 13.4684C22.4223 13.3275 22.5013 13.1363 22.5011 12.9371C22.5009 12.7379 22.4216 12.547 22.2806 12.4062L13.0603 3.18875C12.779 2.90766 12.3977 2.74976 12 2.74976C11.6023 2.74976 11.221 2.90766 10.9397 3.18875L1.71938 12.4062C1.57877 12.547 1.49983 12.7378 1.49991 12.9367C1.5 13.1357 1.57911 13.3264 1.71984 13.467C1.86057 13.6076 2.0514 13.6866 2.25033 13.6865C2.44927 13.6864 2.64002 13.6073 2.78062 13.4666L3 13.25V20H1.5C1.30109 20 1.11032 20.079 0.96967 20.2197C0.829018 20.3603 0.75 20.5511 0.75 20.75C0.75 20.9489 0.829018 21.1397 0.96967 21.2803C1.11032 21.421 1.30109 21.5 1.5 21.5H22.5C22.6989 21.5 22.8897 21.421 23.0303 21.2803C23.171 21.1397 23.25 20.9489 23.25 20.75C23.25 20.5511 23.171 20.3603 23.0303 20.2197C22.8897 20.079 22.6989 20 22.5 20ZM14.25 20H9.75V15.5C9.75 15.4005 9.78951 15.3052 9.85983 15.2348C9.93016 15.1645 10.0255 15.125 10.125 15.125H13.875C13.9745 15.125 14.0698 15.1645 14.1402 15.2348C14.2105 15.3052 14.25 15.4005 14.25 15.5V20Z" fill="black"/>
</svg>
