<svg width="24" height="25" viewBox="0 0 24 25" fill="none" xmlns="http://www.w3.org/2000/svg">
<path d="M11.25 15.6819V21.8075C11.2504 21.8606 11.2394 21.9132 11.2179 21.9617C11.1965 22.0103 11.1649 22.0537 11.1254 22.0892C11.0859 22.1246 11.0393 22.1513 10.9887 22.1674C10.9381 22.1835 10.8846 22.1886 10.8319 22.1825C9.09886 21.9697 7.45447 21.2966 6.0696 20.2332C4.68473 19.1698 3.60992 17.755 2.95688 16.1356C2.93736 16.0864 2.92849 16.0336 2.93084 15.9807C2.9332 15.9278 2.94674 15.876 2.97057 15.8287C2.99439 15.7814 3.02796 15.7397 3.06907 15.7063C3.11018 15.6729 3.15789 15.6486 3.20907 15.635L9.12375 14.0469C9.19947 14.027 9.2795 14.0313 9.35264 14.0593C9.42577 14.0872 9.48834 14.1373 9.53157 14.2025C9.88969 14.7206 10.4007 15.1139 10.9931 15.3275C11.0677 15.3523 11.1325 15.3998 11.1786 15.4633C11.2247 15.5269 11.2497 15.6034 11.25 15.6819ZM12.0056 2.75002C11.9067 2.74928 11.8085 2.76813 11.7169 2.80549C11.6252 2.84285 11.5419 2.89797 11.4717 2.96769C11.4014 3.03741 11.3457 3.12034 11.3076 3.2117C11.2696 3.30307 11.25 3.40105 11.25 3.50002V8.75002C11.2485 8.94728 11.3254 9.13707 11.4637 9.2777C11.6021 9.41832 11.7906 9.49829 11.9878 9.50002C12.6961 9.49696 13.3827 9.74464 13.9259 10.1992C14.4692 10.6537 14.8341 11.2858 14.956 11.9836C15.0779 12.6814 14.949 13.3997 14.5921 14.0116C14.2352 14.6234 13.6733 15.0893 13.0059 15.3266C12.9314 15.3515 12.8666 15.3992 12.8207 15.463C12.7748 15.5268 12.7501 15.6033 12.75 15.6819V21.8075C12.7497 21.8605 12.7606 21.913 12.782 21.9615C12.8034 22.01 12.8349 22.0534 12.8743 22.0888C12.9137 22.1242 12.9602 22.1509 13.0107 22.1671C13.0612 22.1832 13.1145 22.1885 13.1672 22.1825C15.638 21.8903 17.9035 20.6646 19.5 18.7564C21.0965 16.8481 21.9031 14.4018 21.7546 11.9182C21.6062 9.4347 20.5139 7.10185 18.7015 5.3974C16.8891 3.69294 14.4936 2.74584 12.0056 2.75002ZM9.00563 12.2647C9.04053 11.8217 9.17342 11.392 9.39469 11.0066V11C9.46901 10.8717 9.5036 10.7241 9.49408 10.5761C9.48457 10.4281 9.43139 10.2862 9.34125 10.1685C9.2782 10.0874 9.19984 10.0196 9.11063 9.96877L4.57969 7.3494C4.49432 7.30017 4.40009 7.26825 4.30238 7.25546C4.20467 7.24267 4.10539 7.24926 4.01023 7.27486C3.91507 7.30046 3.82588 7.34456 3.74777 7.40464C3.66966 7.46472 3.60416 7.53961 3.555 7.62502C2.46386 9.5148 2.03741 11.7157 2.34375 13.8763C2.35098 13.929 2.36935 13.9796 2.39765 14.0247C2.42594 14.0698 2.4635 14.1083 2.50784 14.1377C2.55218 14.1672 2.60229 14.1869 2.65481 14.1954C2.70734 14.204 2.7611 14.2013 2.8125 14.1875L8.73938 12.5938C8.81283 12.5735 8.87821 12.531 8.92654 12.472C8.97488 12.4131 9.00381 12.3407 9.00938 12.2647H9.00563Z" fill="black"/>
</svg>
