<svg width="24" height="25" viewBox="0 0 24 25" fill="none" xmlns="http://www.w3.org/2000/svg">
<g clip-path="url(#clip0_222_3540)">
<path d="M22.5 11H19.8103L15.75 6.9397C15.6112 6.7998 15.446 6.68889 15.264 6.61341C15.082 6.53792 14.8867 6.49938 14.6897 6.50001H4.15125C3.90487 6.50046 3.66239 6.5616 3.44525 6.67802C3.22811 6.79444 3.04299 6.96256 2.90625 7.16751L0.125625 11.3338C0.0439236 11.4572 0.000244554 11.602 0 11.75L0 16.25C0 16.6478 0.158035 17.0294 0.43934 17.3107C0.720644 17.592 1.10218 17.75 1.5 17.75H3.09375C3.25898 18.3953 3.63428 18.9673 4.16048 19.3757C4.68669 19.7842 5.33387 20.0059 6 20.0059C6.66613 20.0059 7.31331 19.7842 7.83952 19.3757C8.36572 18.9673 8.74102 18.3953 8.90625 17.75H15.0938C15.259 18.3953 15.6343 18.9673 16.1605 19.3757C16.6867 19.7842 17.3339 20.0059 18 20.0059C18.6661 20.0059 19.3133 19.7842 19.8395 19.3757C20.3657 18.9673 20.741 18.3953 20.9062 17.75H22.5C22.8978 17.75 23.2794 17.592 23.5607 17.3107C23.842 17.0294 24 16.6478 24 16.25V12.5C24 12.1022 23.842 11.7207 23.5607 11.4393C23.2794 11.158 22.8978 11 22.5 11ZM4.15125 8.00001H14.6897L17.6897 11H2.15625L4.15125 8.00001ZM6 18.5C5.70333 18.5 5.41332 18.412 5.16664 18.2472C4.91997 18.0824 4.72771 17.8481 4.61418 17.574C4.50065 17.2999 4.47094 16.9983 4.52882 16.7074C4.5867 16.4164 4.72956 16.1491 4.93934 15.9393C5.14912 15.7296 5.41639 15.5867 5.70736 15.5288C5.99834 15.471 6.29994 15.5007 6.57402 15.6142C6.84811 15.7277 7.08238 15.92 7.2472 16.1667C7.41203 16.4133 7.5 16.7033 7.5 17C7.5 17.3978 7.34196 17.7794 7.06066 18.0607C6.77936 18.342 6.39782 18.5 6 18.5ZM18 18.5C17.7033 18.5 17.4133 18.412 17.1666 18.2472C16.92 18.0824 16.7277 17.8481 16.6142 17.574C16.5006 17.2999 16.4709 16.9983 16.5288 16.7074C16.5867 16.4164 16.7296 16.1491 16.9393 15.9393C17.1491 15.7296 17.4164 15.5867 17.7074 15.5288C17.9983 15.471 18.2999 15.5007 18.574 15.6142C18.8481 15.7277 19.0824 15.92 19.2472 16.1667C19.412 16.4133 19.5 16.7033 19.5 17C19.5 17.3978 19.342 17.7794 19.0607 18.0607C18.7794 18.342 18.3978 18.5 18 18.5Z" fill="black"/>
</g>
<defs>
<clipPath id="clip0_222_3540">
<rect width="24" height="24" fill="white" transform="translate(0 0.5)"/>
</clipPath>
</defs>
</svg>
