<svg width="36" height="36" viewBox="0 0 36 36" fill="none" xmlns="http://www.w3.org/2000/svg">
<g clip-path="url(#clip0_209_208)">
<path d="M36 18C36 8.05887 27.9411 0 18 0C8.05887 0 0 8.05887 0 18C0 27.9411 8.05887 36 18 36C27.9411 36 36 27.9411 36 18Z" fill="#34C759"/>
<path d="M24.326 20.4121L21.0283 18.9344L21.0192 18.9302C20.848 18.857 20.6612 18.8276 20.4758 18.8447C20.2904 18.8618 20.1122 18.9249 19.9573 19.0282C19.939 19.0403 19.9215 19.0534 19.9048 19.0674L18.201 20.52C17.1216 19.9956 16.0071 18.8896 15.4828 17.8242L16.9374 16.0945C16.9514 16.077 16.9647 16.0595 16.9773 16.0406C17.0784 15.8861 17.1398 15.709 17.1559 15.5251C17.172 15.3412 17.1424 15.1561 17.0697 14.9864V14.978L15.5878 11.6747C15.4918 11.4529 15.3265 11.2683 15.1169 11.1481C14.9072 11.028 14.6643 10.979 14.4244 11.0083C13.4759 11.1331 12.6052 11.5989 11.9751 12.3187C11.3449 13.0386 10.9983 13.9632 11 14.9199C11 20.478 15.522 25 21.0801 25C22.0368 25.0017 22.9614 24.6551 23.6812 24.0249C24.4011 23.3948 24.8669 22.5241 24.9917 21.5756C25.021 21.3358 24.9721 21.0929 24.8521 20.8833C24.7321 20.6736 24.5476 20.5083 24.326 20.4121Z" fill="white"/>
</g>
<defs>
<clipPath id="clip0_209_208">
<rect width="36" height="36" fill="white"/>
</clipPath>
</defs>
</svg>
