<svg width="20" height="20" viewBox="0 0 20 20" fill="none" xmlns="http://www.w3.org/2000/svg">
<path d="M11.9765 2.31559C12.4887 2.06098 13.0907 1.98522 13.6865 2.14488C14.9831 2.4923 15.7526 3.82507 15.4052 5.12169L13.4281 12.5003C13.0806 13.7969 11.7479 14.5664 10.4513 14.2189C9.15464 13.8715 8.38517 12.5388 8.7326 11.2421L9.52343 8.2907C9.61277 7.95728 9.41491 7.61457 9.08149 7.52523C8.74807 7.43589 8.40536 7.63376 8.31602 7.96718L7.52519 10.9186C6.99908 12.8821 8.16428 14.9003 10.1277 15.4264C12.0912 15.9525 14.1094 14.7873 14.6355 12.8238L16.6126 5.44521C17.1387 3.48176 15.9735 1.46357 14.01 0.937469C13.1088 0.69599 12.1946 0.81127 11.4201 1.19627C10.9452 1.43234 10.5218 1.7702 10.1847 2.19048C9.96876 2.45974 10.012 2.8531 10.2812 3.06908C10.5505 3.28506 10.9438 3.24186 11.1598 2.9726C11.382 2.69565 11.6618 2.47205 11.9765 2.31559Z" fill="black"/>
<path d="M6.57199 7.49986C6.91942 6.20324 8.25218 5.43377 9.5488 5.7812C10.8454 6.12863 11.6149 7.46139 11.2675 8.75801L10.4766 11.7094C10.3873 12.0429 10.5852 12.3856 10.9186 12.4749C11.252 12.5643 11.5947 12.3664 11.684 12.033L12.4749 9.08153C13.001 7.11808 11.8358 5.0999 9.87233 4.57379C7.90887 4.04769 5.89069 5.21289 5.36458 7.17634L3.38749 14.5549C2.86139 16.5184 4.02659 18.5366 5.99004 19.0627C6.89125 19.3042 7.80549 19.1889 8.57997 18.8039C9.05487 18.5678 9.47822 18.2299 9.81532 17.8097C10.0313 17.5404 9.98811 17.147 9.71884 16.9311C9.44958 16.7151 9.05622 16.7583 8.84024 17.0275C8.6181 17.3045 8.33827 17.5281 8.02355 17.6846C7.51135 17.9392 6.90939 18.0149 6.31356 17.8553C5.01695 17.5078 4.24747 16.1751 4.5949 14.8785L6.57199 7.49986Z" fill="black"/>
</svg>
