<svg width="16" height="16" viewBox="0 0 16 16" fill="none" xmlns="http://www.w3.org/2000/svg">
<g id="Frame 203">
<path id="Vector" d="M14.9996 11.4817V13.5893C15.0004 13.7849 14.9602 13.9786 14.8817 14.1578C14.8031 14.3371 14.6879 14.498 14.5435 14.6303C14.399 14.7626 14.2285 14.8633 14.0428 14.9259C13.8571 14.9886 13.6603 15.0119 13.465 14.9943C11.299 14.7594 9.2183 14.0207 7.39023 12.8376C5.68946 11.759 4.24748 10.3198 3.16674 8.62243C1.9771 6.78969 1.23677 4.70306 1.00572 2.53156C0.988119 2.33729 1.01125 2.1415 1.07365 1.95664C1.13604 1.77179 1.2363 1.60192 1.36807 1.45783C1.49984 1.31377 1.66022 1.19867 1.83901 1.11987C2.01778 1.04105 2.21106 1.00026 2.40651 1.00007H4.51826C4.85987 0.996719 5.19106 1.11744 5.45008 1.33976C5.7091 1.56206 5.87827 1.8708 5.92609 2.2084C6.01523 2.88287 6.18053 3.54512 6.41883 4.18249C6.51353 4.43395 6.53404 4.7072 6.47789 4.96992C6.42176 5.23264 6.29133 5.47379 6.10207 5.66481L5.2081 6.55701C6.21017 8.3158 7.66931 9.77206 9.43159 10.7721L10.3256 9.87994C10.517 9.69105 10.7586 9.56088 11.0218 9.50486C11.2851 9.44882 11.5589 9.46929 11.8108 9.5638C12.4495 9.80163 13.113 9.96661 13.7888 10.0556C14.1308 10.1037 14.443 10.2756 14.6663 10.5386C14.8895 10.8015 15.0081 11.1371 14.9996 11.4817Z" fill="#14181D"/>
</g>
</svg>
