<svg width="22" height="22" viewBox="0 0 22 22" fill="none" xmlns="http://www.w3.org/2000/svg">
<path d="M5.5 7.10413C5.5 5.20565 7.03902 3.66663 8.9375 3.66663C10.836 3.66663 12.375 5.20565 12.375 7.10413C12.375 9.0026 10.836 10.5416 8.9375 10.5416C7.03902 10.5416 5.5 9.0026 5.5 7.10413Z" fill="black"/>
<path d="M12.0078 4.01668C12.8008 4.8053 13.2917 5.89738 13.2917 7.10413C13.2917 8.31087 12.8008 9.40295 12.0078 10.1916C12.4643 10.4157 12.9779 10.5416 13.5208 10.5416C15.4193 10.5416 16.9583 9.0026 16.9583 7.10413C16.9583 5.20565 15.4193 3.66663 13.5208 3.66663C12.9779 3.66663 12.4643 3.79251 12.0078 4.01668Z" fill="black"/>
<path d="M2.75 15.3541C2.75 13.4556 4.28902 11.9166 6.1875 11.9166H11.6875C13.586 11.9166 15.125 13.4556 15.125 15.3541C15.125 17.2526 13.586 18.7916 11.6875 18.7916H6.1875C4.28902 18.7916 2.75 17.2526 2.75 15.3541Z" fill="black"/>
<path d="M16.0417 15.3541C16.0417 16.2936 15.7441 17.1636 15.2382 17.875H16.2708C18.1693 17.875 19.7083 16.3359 19.7083 14.4375C19.7083 12.539 18.1693 11 16.2708 11H11.6875C14.0922 11 16.0417 12.9494 16.0417 15.3541Z" fill="black"/>
</svg>
