<svg width="19" height="19" viewBox="0 0 19 19" fill="none" xmlns="http://www.w3.org/2000/svg">
<path d="M10.0937 3.16669C10.0937 2.83877 9.82791 2.57294 9.49999 2.57294C9.17207 2.57294 8.90624 2.83877 8.90624 3.16669L8.90624 8.90627H3.16666C2.83874 8.90627 2.57291 9.1721 2.57291 9.50002C2.57291 9.82794 2.83874 10.0938 3.16666 10.0938H8.90624V15.8334C8.90624 16.1613 9.17207 16.4271 9.49999 16.4271C9.82791 16.4271 10.0937 16.1613 10.0937 15.8334V10.0938H15.8333C16.1612 10.0938 16.4271 9.82794 16.4271 9.50002C16.4271 9.1721 16.1612 8.90627 15.8333 8.90627H10.0937L10.0937 3.16669Z" fill="black"/>
</svg>
