<svg width="25" height="25" viewBox="0 0 25 25" fill="none" xmlns="http://www.w3.org/2000/svg">
<g id="map-pin-fill 2">
<path id="Vector" d="M12.5 1.5625C10.2216 1.56508 8.03724 2.47133 6.42616 4.08241C4.81507 5.69349 3.90883 7.87784 3.90625 10.1563C3.90625 17.5098 11.7188 23.0635 12.0518 23.2959C12.1831 23.3879 12.3396 23.4373 12.5 23.4373C12.6604 23.4373 12.8169 23.3879 12.9482 23.2959C13.2812 23.0635 21.0938 17.5098 21.0938 10.1563C21.0912 7.87784 20.1849 5.69349 18.5738 4.08241C16.9628 2.47133 14.7784 1.56508 12.5 1.5625ZM12.5 7.03125C13.1181 7.03125 13.7223 7.21453 14.2362 7.55791C14.7501 7.90129 15.1506 8.38935 15.3871 8.96036C15.6236 9.53138 15.6855 10.1597 15.565 10.7659C15.4444 11.3721 15.1467 11.9289 14.7097 12.366C14.2727 12.803 13.7158 13.1006 13.1097 13.2212C12.5035 13.3418 11.8751 13.2799 11.3041 13.0434C10.7331 12.8069 10.245 12.4063 9.90166 11.8924C9.55828 11.3785 9.375 10.7743 9.375 10.1563C9.375 9.32745 9.70424 8.53259 10.2903 7.94654C10.8763 7.36049 11.6712 7.03125 12.5 7.03125Z" fill="#212529"/>
</g>
</svg>
