<svg width="14" height="14" viewBox="0 0 14 14" fill="none" xmlns="http://www.w3.org/2000/svg">
<g id="play-fill 3">
<path id="Vector" d="M11.0909 12.1429H8.28068C8.75276 11.7454 9.19795 11.3205 9.61364 10.8705C11.1733 9.17929 12 7.39643 12 5.71429C12 4.46398 11.4732 3.26488 10.5355 2.38078C9.59785 1.49668 8.32608 1 7 1C5.67392 1 4.40215 1.49668 3.46447 2.38078C2.52678 3.26488 2 4.46398 2 5.71429C2 7.39643 2.82443 9.17929 4.38636 10.8705C4.80205 11.3205 5.24724 11.7454 5.71932 12.1429H2.90909C2.78854 12.1429 2.67292 12.188 2.58768 12.2684C2.50244 12.3488 2.45455 12.4578 2.45455 12.5714C2.45455 12.6851 2.50244 12.7941 2.58768 12.8745C2.67292 12.9548 2.78854 13 2.90909 13H11.0909C11.2115 13 11.3271 12.9548 11.4123 12.8745C11.4976 12.7941 11.5455 12.6851 11.5455 12.5714C11.5455 12.4578 11.4976 12.3488 11.4123 12.2684C11.3271 12.188 11.2115 12.1429 11.0909 12.1429ZM7 4C7.3596 4 7.71113 4.10054 8.01013 4.28891C8.30913 4.47728 8.54217 4.74501 8.67978 5.05826C8.8174 5.3715 8.8534 5.71619 8.78325 6.04873C8.71309 6.38127 8.53993 6.68672 8.28565 6.92647C8.03137 7.16622 7.7074 7.32949 7.35471 7.39563C7.00202 7.46178 6.63644 7.42783 6.30421 7.29808C5.97198 7.16833 5.68802 6.9486 5.48824 6.66669C5.28845 6.38478 5.18182 6.05334 5.18182 5.71429C5.18182 5.25963 5.37338 4.82359 5.71435 4.5021C6.05533 4.18061 6.51779 4 7 4Z" fill="black"/>
</g>
</svg>
