<svg width="19" height="19" viewBox="0 0 19 19" fill="none" xmlns="http://www.w3.org/2000/svg">
<path fill-rule="evenodd" clip-rule="evenodd" d="M9.49996 4.94788C7.86036 4.94788 6.53121 6.27703 6.53121 7.91663C6.53121 9.55622 7.86036 10.8854 9.49996 10.8854C11.1396 10.8854 12.4687 9.55622 12.4687 7.91663C12.4687 6.27703 11.1396 4.94788 9.49996 4.94788ZM7.71871 7.91663C7.71871 6.93287 8.5162 6.13538 9.49996 6.13538C10.4837 6.13538 11.2812 6.93287 11.2812 7.91663C11.2812 8.90038 10.4837 9.69788 9.49996 9.69788C8.5162 9.69788 7.71871 8.90038 7.71871 7.91663Z" fill="black"/>
<path fill-rule="evenodd" clip-rule="evenodd" d="M9.49996 0.197876C5.63398 0.197876 2.57288 3.55674 2.57288 7.60684C2.57288 8.90575 3.21817 10.4353 4.03005 11.8706C4.85507 13.3292 5.90807 14.7853 6.83128 15.9626L6.86207 16.0018C7.31269 16.5765 7.69657 17.0661 8.06882 17.4043C8.47494 17.7732 8.92279 18.0147 9.49996 18.0147C10.0771 18.0147 10.525 17.7732 10.9311 17.4043C11.3034 17.0661 11.6872 16.5765 12.1379 16.0018L12.1686 15.9626C13.0918 14.7853 14.1448 13.3292 14.9699 11.8706C15.7818 10.4353 16.427 8.90575 16.427 7.60684C16.427 3.55674 13.3659 0.197876 9.49996 0.197876ZM3.76038 7.60684C3.76038 4.12907 6.37033 1.38538 9.49996 1.38538C12.6296 1.38538 15.2395 4.12907 15.2395 7.60684C15.2395 8.57782 14.7332 9.87708 13.9363 11.286C13.1525 12.6716 12.1395 14.0753 11.2342 15.2298C10.7442 15.8546 10.4216 16.2628 10.1326 16.5253C9.86915 16.7646 9.69327 16.8272 9.49996 16.8272C9.30665 16.8272 9.13077 16.7646 8.86727 16.5253C8.57836 16.2628 8.25573 15.8546 7.76572 15.2298C6.86037 14.0753 5.84743 12.6716 5.06366 11.286C4.26674 9.87708 3.76038 8.57782 3.76038 7.60684Z" fill="black"/>
</svg>
