<svg width="36" height="36" viewBox="0 0 36 36" fill="none" xmlns="http://www.w3.org/2000/svg">
<g clip-path="url(#clip0_209_213)">
<path d="M36 18C36 8.05887 27.9411 0 18 0C8.05887 0 0 8.05887 0 18C0 27.9411 8.05887 36 18 36C27.9411 36 36 27.9411 36 18Z" fill="#FF3B30"/>
<path d="M12.0346 21.927L15.2947 20.725L15.3038 20.7217C15.4706 20.657 15.6182 20.5531 15.7331 20.4193C15.848 20.2856 15.9266 20.1262 15.9618 19.9556C15.9661 19.9356 15.9691 19.9154 15.9709 19.8951L16.1425 17.8105C17.2373 17.4438 18.7531 17.4383 19.8384 17.7957L20.0262 19.8988C20.0286 19.9196 20.0315 19.9399 20.0358 19.9607C20.0722 20.1295 20.1513 20.287 20.2658 20.4191C20.3804 20.5513 20.5269 20.6539 20.6924 20.718L20.6981 20.7236L23.9649 21.9265C24.1819 22.0095 24.4208 22.0224 24.6459 21.9632C24.8711 21.9041 25.0704 21.7761 25.2141 21.5983C25.7765 20.8894 26.0528 20.0067 25.9916 19.1151C25.9304 18.2235 25.5358 17.3839 24.8815 16.7531C21.0871 13.0823 14.9129 13.0823 11.1185 16.7531C10.4642 17.3839 10.0696 18.2234 10.0084 19.1151C9.94716 20.0067 10.2235 20.8894 10.7859 21.5983C10.9295 21.776 11.1287 21.9041 11.3538 21.9633C11.5788 22.0225 11.8176 22.0098 12.0346 21.927Z" fill="white"/>
</g>
<defs>
<clipPath id="clip0_209_213">
<rect width="36" height="36" fill="white"/>
</clipPath>
</defs>
</svg>
