<svg width="19" height="19" viewBox="0 0 19 19" fill="none" xmlns="http://www.w3.org/2000/svg">
<path d="M10.0938 7.91659C10.0938 7.58867 9.82792 7.32284 9.5 7.32284C9.17208 7.32284 8.90625 7.58867 8.90625 7.91659V9.69784H7.125C6.79708 9.69784 6.53125 9.96367 6.53125 10.2916C6.53125 10.6195 6.79708 10.8853 7.125 10.8853H8.90625V12.6666C8.90625 12.9945 9.17208 13.2603 9.5 13.2603C9.82792 13.2603 10.0938 12.9945 10.0938 12.6666V10.8853H11.875C12.2029 10.8853 12.4688 10.6195 12.4688 10.2916C12.4688 9.96367 12.2029 9.69784 11.875 9.69784H10.0938V7.91659Z" fill="black"/>
<path fill-rule="evenodd" clip-rule="evenodd" d="M15.3423 1.85887C14.704 1.39509 13.9563 1.18742 13.0336 1.08745C12.1294 0.98949 10.9897 0.989496 9.53582 0.989502H9.49124C8.57286 0.989502 7.78329 0.989502 7.10467 1.01275C5.62153 1.06357 4.53142 1.22407 3.65769 1.85887C3.27124 2.13964 2.93139 2.47949 2.65062 2.86594C2.01582 3.73967 1.85531 4.82978 1.8045 6.31292C1.78125 6.99155 1.78125 7.78114 1.78125 8.69953V10.3274C1.78124 11.7813 1.78124 12.921 1.8792 13.8252C1.97917 14.7479 2.18684 15.4956 2.65062 16.1339C2.93139 16.5203 3.27124 16.8602 3.65769 17.141C4.29603 17.6047 5.04366 17.8124 5.96638 17.9124C6.87055 18.0103 8.01021 18.0103 9.4641 18.0103H9.53584C10.9897 18.0103 12.1294 18.0103 13.0336 17.9124C13.9563 17.8124 14.704 17.6047 15.3423 17.141C15.7288 16.8602 16.0686 16.5203 16.3494 16.1339C16.8132 15.4956 17.0208 14.7479 17.1208 13.8252C17.2188 12.921 17.2188 11.7814 17.2188 10.3275V8.67241C17.2188 7.21852 17.2188 6.0788 17.1208 5.17463C17.0208 4.25191 16.8132 3.50428 16.3494 2.86594C16.0686 2.47949 15.7288 2.13964 15.3423 1.85887ZM9.5 2.177C10.9975 2.177 12.0729 2.17782 12.9057 2.26804C13.7274 2.35707 14.2421 2.52739 14.6443 2.81958C14.93 3.02711 15.1811 3.2783 15.3887 3.56393C15.6809 3.9661 15.8512 4.48086 15.9402 5.30254C16.0304 6.13533 16.0313 7.21076 16.0313 8.70825V10.2916C16.0313 11.7891 16.0304 12.8645 15.9402 13.6973C15.8512 14.519 15.6809 15.0337 15.3887 15.4359C15.1811 15.7215 14.93 15.9727 14.6443 16.1803C14.2421 16.4725 13.7274 16.6428 12.9057 16.7318C12.0729 16.822 10.9975 16.8228 9.5 16.8228C8.00251 16.8228 6.92708 16.822 6.09429 16.7318C5.27261 16.6428 4.75785 16.4725 4.35568 16.1803C4.07005 15.9727 3.81885 15.7215 3.61133 15.4359C3.31913 15.0337 3.14882 14.519 3.05979 13.6973C2.96957 12.8645 2.96875 11.7891 2.96875 10.2916V8.70825C2.96875 8.03664 2.96879 7.44809 2.97731 6.92556C3.35308 6.9221 3.62971 6.91041 3.87877 6.87096C5.82657 6.56246 7.3542 5.03482 7.66271 3.08702C7.70215 2.83796 7.71385 2.56133 7.71731 2.18556C8.23984 2.17704 8.82839 2.177 9.5 2.177ZM3.693 5.69808C3.53069 5.72379 3.34272 5.73359 3.02214 5.7373C3.09638 4.66036 3.26653 4.0385 3.61133 3.56393C3.81885 3.2783 4.07005 3.02711 4.35568 2.81958C4.83025 2.47479 5.45211 2.30463 6.52905 2.23039C6.52534 2.55097 6.51553 2.73894 6.48983 2.90126C6.2618 4.34094 5.13268 5.47006 3.693 5.69808Z" fill="black"/>
</svg>
