<svg width="11" height="11" viewBox="0 0 11 11" fill="none" xmlns="http://www.w3.org/2000/svg">
<g id="ArrowUpRight">
<path id="Vector" d="M8.53359 3.53377L4.0668 8.00017H7.375C7.45788 8.00017 7.53737 8.0331 7.59597 8.0917C7.65458 8.15031 7.6875 8.22979 7.6875 8.31267C7.6875 8.39555 7.65458 8.47504 7.59597 8.53365C7.53737 8.59225 7.45788 8.62517 7.375 8.62517H3.3125C3.22962 8.62517 3.15013 8.59225 3.09153 8.53365C3.03292 8.47504 3 8.39555 3 8.31267V4.25017C3 4.16729 3.03292 4.08781 3.09153 4.0292C3.15013 3.9706 3.22962 3.93767 3.3125 3.93767C3.39538 3.93767 3.47487 3.9706 3.53347 4.0292C3.59208 4.08781 3.625 4.16729 3.625 4.25017V7.55838L8.09141 3.09158C8.12044 3.06255 8.15491 3.03951 8.19284 3.0238C8.23078 3.00809 8.27144 3 8.3125 3C8.35356 3 8.39422 3.00809 8.43216 3.0238C8.47009 3.03951 8.50456 3.06255 8.53359 3.09158C8.56263 3.12061 8.58566 3.15508 8.60137 3.19302C8.61709 3.23095 8.62517 3.27161 8.62517 3.31267C8.62517 3.35373 8.61709 3.39439 8.60137 3.43233C8.58566 3.47026 8.56263 3.50473 8.53359 3.53377Z" fill="#4AF150"/>
</g>
</svg>
