<svg width="22" height="22" viewBox="0 0 22 22" fill="none" xmlns="http://www.w3.org/2000/svg">
<path d="M19.25 11C19.25 12.6114 18.7782 14.1875 17.8927 15.5338C17.0072 16.8801 15.7468 17.9376 14.2672 18.5757C12.7875 19.2138 11.1534 19.4047 9.56651 19.1247C7.97963 18.8447 6.50949 18.1061 5.33758 17.0002C5.2719 16.9381 5.21908 16.8637 5.18216 16.7812C5.14523 16.6987 5.12491 16.6098 5.12235 16.5194C5.1198 16.4291 5.13506 16.3392 5.16727 16.2547C5.19948 16.1703 5.24801 16.093 5.31008 16.0273C5.43543 15.8947 5.60835 15.8173 5.79079 15.8121C5.88112 15.8096 5.97108 15.8248 6.05551 15.857C6.13995 15.8893 6.21721 15.9378 6.28289 15.9998C7.26579 16.9271 8.50016 17.5442 9.83176 17.7739C11.1634 18.0037 12.5331 17.836 13.7699 17.2917C15.0068 16.7474 16.0557 15.8507 16.7858 14.7136C17.5159 13.5765 17.8947 12.2495 17.875 10.8984C17.8552 9.54728 17.4377 8.23194 16.6746 7.11674C15.9115 6.00154 14.8368 5.13593 13.5845 4.62808C12.3323 4.12022 10.9582 3.99264 9.63393 4.26128C8.30962 4.52992 7.09385 5.18286 6.13852 6.13852C5.83516 6.44531 5.54984 6.74696 5.27227 7.04688L6.67391 8.4511C6.77016 8.54725 6.83573 8.6698 6.8623 8.80323C6.88887 8.93666 6.87526 9.07498 6.82318 9.20067C6.7711 9.32636 6.6829 9.43377 6.56974 9.50931C6.45658 9.58485 6.32355 9.62511 6.1875 9.625H2.75C2.56766 9.625 2.3928 9.55257 2.26386 9.42364C2.13493 9.29471 2.0625 9.11984 2.0625 8.9375V5.5C2.06239 5.36395 2.10266 5.23092 2.17819 5.11776C2.25373 5.00461 2.36114 4.9164 2.48683 4.86432C2.61252 4.81224 2.75084 4.79863 2.88427 4.8252C3.01771 4.85177 3.14026 4.91734 3.23641 5.0136L4.29688 6.07578C4.57359 5.77586 4.85891 5.47422 5.16141 5.16914C6.31476 4.01382 7.78495 3.22665 9.38588 2.90725C10.9868 2.58785 12.6465 2.75059 14.1549 3.37488C15.6633 3.99916 16.9526 5.05692 17.8596 6.41426C18.7665 7.77161 19.2504 9.36752 19.25 11ZM11 6.1875C10.8177 6.1875 10.6428 6.25994 10.5139 6.38887C10.3849 6.5178 10.3125 6.69267 10.3125 6.875V11C10.3125 11.1187 10.3432 11.2354 10.4016 11.3387C10.46 11.442 10.5442 11.5284 10.6459 11.5895L14.0834 13.652C14.1609 13.6985 14.2467 13.7293 14.336 13.7427C14.4253 13.756 14.5164 13.7516 14.604 13.7297C14.6916 13.7079 14.7741 13.6689 14.8467 13.6152C14.9192 13.5615 14.9805 13.494 15.027 13.4166C15.0735 13.3391 15.1043 13.2533 15.1177 13.164C15.131 13.0747 15.1266 12.9836 15.1047 12.896C15.0829 12.8084 15.0439 12.7259 14.9902 12.6533C14.9365 12.5808 14.869 12.5195 14.7916 12.473L11.6875 10.6107V6.875C11.6875 6.69267 11.6151 6.5178 11.4861 6.38887C11.3572 6.25994 11.1823 6.1875 11 6.1875Z" fill="black"/>
</svg>
