<svg width="18" height="18" viewBox="0 0 18 18" fill="none" xmlns="http://www.w3.org/2000/svg">
<g id="Frame">
<path id="Vector" d="M16.3125 4.5V13.5C16.3125 13.7984 16.194 14.0845 15.983 14.2955C15.772 14.5065 15.4859 14.625 15.1875 14.625H5.83596L3.54377 16.605L3.53744 16.6099C3.33497 16.7816 3.07798 16.8756 2.81252 16.875C2.64748 16.8747 2.48451 16.8382 2.3351 16.7681C2.14076 16.6786 1.97633 16.5349 1.86149 16.3544C1.74665 16.1738 1.68625 15.964 1.68752 15.75V4.5C1.68752 4.20163 1.80605 3.91548 2.01702 3.7045C2.228 3.49353 2.51415 3.375 2.81252 3.375H15.1875C15.4859 3.375 15.772 3.49353 15.983 3.7045C16.194 3.91548 16.3125 4.20163 16.3125 4.5Z" fill="#14181D"/>
</g>
</svg>
