<svg width="19" height="19" viewBox="0 0 19 19" fill="none" xmlns="http://www.w3.org/2000/svg">
<g id="microphone">
<path id="Vector" d="M9.5 13.0625C10.4445 13.0615 11.3501 12.6859 12.018 12.018C12.6859 11.3501 13.0615 10.4445 13.0625 9.5V4.75C13.0625 3.80517 12.6872 2.89903 12.0191 2.23093C11.351 1.56283 10.4448 1.1875 9.5 1.1875C8.55517 1.1875 7.64903 1.56283 6.98093 2.23093C6.31283 2.89903 5.9375 3.80517 5.9375 4.75V9.5C5.93848 10.4445 6.31413 11.3501 6.98202 12.018C7.6499 12.6859 8.55547 13.0615 9.5 13.0625ZM7.125 4.75C7.125 4.12011 7.37522 3.51602 7.82062 3.07062C8.26602 2.62522 8.87011 2.375 9.5 2.375C10.1299 2.375 10.734 2.62522 11.1794 3.07062C11.6248 3.51602 11.875 4.12011 11.875 4.75V9.5C11.875 10.1299 11.6248 10.734 11.1794 11.1794C10.734 11.6248 10.1299 11.875 9.5 11.875C8.87011 11.875 8.26602 11.6248 7.82062 11.1794C7.37522 10.734 7.125 10.1299 7.125 9.5V4.75ZM10.0938 15.4078V17.8125C10.0938 17.97 10.0312 18.121 9.91985 18.2323C9.8085 18.3437 9.65747 18.4062 9.5 18.4062C9.34253 18.4062 9.19151 18.3437 9.08016 18.2323C8.96881 18.121 8.90625 17.97 8.90625 17.8125V15.4078C7.44239 15.2589 6.08576 14.5724 5.09871 13.4811C4.11166 12.3899 3.56431 10.9714 3.5625 9.5C3.5625 9.34253 3.62506 9.19151 3.73641 9.08016C3.84776 8.96881 3.99878 8.90625 4.15625 8.90625C4.31372 8.90625 4.46474 8.96881 4.57609 9.08016C4.68744 9.19151 4.75 9.34253 4.75 9.5C4.75 10.7598 5.25044 11.968 6.14124 12.8588C7.03204 13.7496 8.24022 14.25 9.5 14.25C10.7598 14.25 11.968 13.7496 12.8588 12.8588C13.7496 11.968 14.25 10.7598 14.25 9.5C14.25 9.34253 14.3126 9.19151 14.4239 9.08016C14.5353 8.96881 14.6863 8.90625 14.8438 8.90625C15.0012 8.90625 15.1522 8.96881 15.2636 9.08016C15.3749 9.19151 15.4375 9.34253 15.4375 9.5C15.4357 10.9714 14.8883 12.3899 13.9013 13.4811C12.9142 14.5724 11.5576 15.2589 10.0938 15.4078Z" fill="black"/>
</g>
</svg>
