<svg width="10" height="11" viewBox="0 0 10 11" fill="none" xmlns="http://www.w3.org/2000/svg">
<g id="ArrowDownLeft">
<path id="Vector" d="M7.72109 3.22115L3.2543 7.68755H6.5625C6.64538 7.68755 6.72487 7.72048 6.78347 7.77908C6.84208 7.83769 6.875 7.91717 6.875 8.00005C6.875 8.08293 6.84208 8.16242 6.78347 8.22102C6.72487 8.27963 6.64538 8.31255 6.5625 8.31255H2.5C2.41712 8.31255 2.33763 8.27963 2.27903 8.22102C2.22042 8.16242 2.1875 8.08293 2.1875 8.00005V3.93755C2.1875 3.85467 2.22042 3.77519 2.27903 3.71658C2.33763 3.65798 2.41712 3.62505 2.5 3.62505C2.58288 3.62505 2.66237 3.65798 2.72097 3.71658C2.77958 3.77519 2.8125 3.85467 2.8125 3.93755V7.24575L7.27891 2.77896C7.30794 2.74992 7.34241 2.72689 7.38034 2.71118C7.41828 2.69547 7.45894 2.68738 7.5 2.68738C7.54106 2.68738 7.58172 2.69547 7.61966 2.71118C7.65759 2.72689 7.69206 2.74992 7.72109 2.77896C7.75013 2.80799 7.77316 2.84246 7.78887 2.8804C7.80459 2.91833 7.81267 2.95899 7.81267 3.00005C7.81267 3.04111 7.80459 3.08177 7.78887 3.11971C7.77316 3.15764 7.75013 3.19211 7.72109 3.22115Z" fill="#F14A4A"/>
</g>
</svg>
