<svg width="11" height="11" viewBox="0 0 11 11" fill="none" xmlns="http://www.w3.org/2000/svg">
<g id="ArrowUpRight">
<path id="Vector" d="M8.5937 3V7.0625C8.5937 7.14538 8.55748 7.22487 8.49302 7.28347C8.42855 7.34208 8.34112 7.375 8.24995 7.375C8.15878 7.375 8.07134 7.34208 8.00688 7.28347C7.94241 7.22487 7.9062 7.14538 7.9062 7.0625V3.7543L2.99315 8.22109C2.92865 8.27973 2.84117 8.31267 2.74995 8.31267C2.65873 8.31267 2.57125 8.27973 2.50674 8.22109C2.44224 8.16246 2.40601 8.08293 2.40601 8C2.40601 7.91707 2.44224 7.83754 2.50674 7.77891L7.42022 3.3125H3.7812C3.69003 3.3125 3.60259 3.27958 3.53813 3.22097C3.47366 3.16237 3.43745 3.08288 3.43745 3C3.43745 2.91712 3.47366 2.83763 3.53813 2.77903C3.60259 2.72042 3.69003 2.6875 3.7812 2.6875H8.24995C8.34112 2.6875 8.42855 2.72042 8.49302 2.77903C8.55748 2.83763 8.5937 2.91712 8.5937 3Z" fill="#4A8DF1"/>
</g>
</svg>
