<svg width="22" height="22" viewBox="0 0 22 22" fill="none" xmlns="http://www.w3.org/2000/svg">
<path d="M7.43585 2.72713C6.47143 1.84096 4.98904 1.84096 4.02463 2.72713C3.98513 2.76342 3.94296 2.80559 3.88821 2.86036L3.06551 3.68306C2.23766 4.51092 1.89013 5.70434 2.14411 6.84722C3.58508 13.3316 8.64923 18.3958 15.1336 19.8367C16.2765 20.0907 17.4699 19.7432 18.2978 18.9153L19.1204 18.0927C19.1752 18.0379 19.2174 17.9957 19.2537 17.9562C20.1399 16.9918 20.1399 15.5094 19.2537 14.545C19.2174 14.5055 19.1752 14.4633 19.1204 14.4085L17.7736 13.0617C16.8385 12.1266 15.4263 11.8591 14.2141 12.3876C13.5201 12.6901 12.7116 12.537 12.1763 12.0016L9.97919 9.80456C9.44386 9.26923 9.29075 8.46077 9.59327 7.76676C10.1217 6.5545 9.85425 5.14235 8.91916 4.20726L7.57227 2.86037C7.51752 2.8056 7.47535 2.76342 7.43585 2.72713Z" fill="black"/>
</svg>
