<svg width="12" height="12" viewBox="0 0 12 12" fill="none" xmlns="http://www.w3.org/2000/svg">
<g id="play-fill 1">
<path id="Vector" d="M11.25 5.99999C11.2503 6.12731 11.2177 6.25255 11.1552 6.36352C11.0928 6.4745 11.0027 6.56742 10.8937 6.63327L4.14 10.7648C4.02613 10.8346 3.89572 10.8726 3.76222 10.8751C3.62873 10.8776 3.49699 10.8444 3.38063 10.7789C3.26536 10.7145 3.16935 10.6205 3.10245 10.5066C3.03556 10.3928 3.00019 10.2631 3 10.1311V1.8689C3.00019 1.73684 3.03556 1.60722 3.10245 1.49337C3.16935 1.37951 3.26536 1.28553 3.38063 1.22108C3.49699 1.15562 3.62873 1.12241 3.76222 1.12488C3.89572 1.12736 4.02613 1.16542 4.14 1.23515L10.8937 5.36671C11.0027 5.43255 11.0928 5.52548 11.1552 5.63645C11.2177 5.74743 11.2503 5.87266 11.25 5.99999Z" fill="black"/>
</g>
</svg>
