<svg width="18" height="18" viewBox="0 0 18 18" fill="none" xmlns="http://www.w3.org/2000/svg">
<path d="M15.4324 5.61012C15.6313 5.37146 15.599 5.01677 15.3604 4.81789C15.1217 4.61901 14.767 4.65125 14.5681 4.88991L10.5251 9.74152C9.713 10.7161 9.1417 11.3995 8.64617 11.847C8.16221 12.284 7.8282 12.4229 7.50026 12.4229C7.17231 12.4229 6.83831 12.284 6.35434 11.847C5.85882 11.3995 5.28751 10.7161 4.47539 9.74152L3.43238 8.48991C3.2335 8.25125 2.87881 8.21901 2.64015 8.41789C2.4015 8.61677 2.36925 8.97146 2.56813 9.21012L3.64009 10.4965C4.41654 11.4282 5.03835 12.1744 5.60037 12.6819C6.18091 13.2062 6.77436 13.5479 7.50026 13.5479C8.22616 13.5479 8.8196 13.2062 9.40014 12.6819C9.96216 12.1744 10.584 11.4282 11.3604 10.4965L15.4324 5.61012Z" fill="black"/>
</svg>
