<svg width="28" height="28" viewBox="0 0 28 28" fill="none" xmlns="http://www.w3.org/2000/svg">
<g id="paper-plane-tilt-fill 2">
<path id="Vector" d="M25.3093 4.8498C25.3093 4.8498 25.3093 4.86074 25.3093 4.86621L18.9437 25.8596C18.8473 26.2006 18.649 26.504 18.3753 26.729C18.1016 26.954 17.7656 27.09 17.4124 27.1185C17.3621 27.1229 17.3118 27.1251 17.2615 27.1251C16.9305 27.1261 16.6061 27.0325 16.3267 26.8551C16.0472 26.6778 15.8243 26.4242 15.6843 26.1243L11.703 17.954C11.6632 17.8721 11.6499 17.7799 11.665 17.6901C11.6801 17.6003 11.7228 17.5174 11.7873 17.4531L18.1223 11.1181C18.2794 10.9527 18.3657 10.7324 18.3628 10.5042C18.3599 10.276 18.268 10.058 18.1066 9.89669C17.9453 9.73534 17.7273 9.6434 17.4991 9.64048C17.2709 9.63756 17.0507 9.72388 16.8852 9.88105L10.5469 16.216C10.4826 16.2805 10.3997 16.3232 10.3099 16.3383C10.2202 16.3534 10.1279 16.3401 10.046 16.3003L1.86804 12.3201C1.54824 12.1667 1.28262 11.9197 1.10637 11.6119C0.930111 11.3041 0.851545 10.95 0.881078 10.5966C0.910612 10.2431 1.04685 9.90698 1.27174 9.6327C1.49664 9.35843 1.79956 9.15896 2.14038 9.06074L23.1338 2.69511H23.1502C23.4491 2.61113 23.765 2.60819 24.0654 2.68658C24.3658 2.76497 24.64 2.92187 24.8597 3.14119C25.0795 3.36051 25.237 3.63434 25.316 3.9346C25.395 4.23486 25.3927 4.55073 25.3093 4.8498Z" fill="black"/>
</g>
</svg>
