<svg width="36" height="36" viewBox="0 0 36 36" fill="none" xmlns="http://www.w3.org/2000/svg">
<g clip-path="url(#clip0_290_224)">
<path d="M36 18C36 8.05887 27.9411 0 18 0C8.05887 0 0 8.05887 0 18C0 27.9411 8.05887 36 18 36C27.9411 36 36 27.9411 36 18Z" fill="#404040"/>
<path d="M17.823 24.9119C18.3353 24.9119 18.7044 24.5353 18.7044 24.0305V12.0146C18.7044 11.5099 18.3353 11.088 17.8079 11.088C17.4388 11.088 17.1977 11.2688 16.7909 11.6304L13.2502 14.7719C13.205 14.8171 13.1372 14.8397 13.0618 14.8397H10.8244C9.75463 14.8397 9.22729 15.3746 9.22729 16.5121V19.5104C9.22729 20.648 9.75463 21.1829 10.8244 21.1829H13.0618C13.1372 21.1829 13.205 21.2055 13.2502 21.2507L16.7909 24.4223C17.1601 24.7537 17.4539 24.9119 17.823 24.9119ZM24.332 23.3751C24.6257 23.571 24.9874 23.4957 25.1983 23.1943C26.1927 21.8082 26.7728 19.9625 26.7728 18.0339C26.7728 16.0978 26.2002 14.2521 25.1983 12.8659C24.9798 12.5721 24.6257 12.4968 24.332 12.6926C24.0456 12.8885 24.0004 13.2577 24.2265 13.5816C25.0476 14.7869 25.5599 16.369 25.5599 18.0339C25.5599 19.6988 25.0627 21.2959 24.2265 22.4862C24.008 22.8101 24.0456 23.1793 24.332 23.3751ZM17.3861 23.3224C17.3484 23.3224 17.3032 23.2998 17.258 23.2546L13.9207 20.2487C13.7398 20.083 13.5892 20.0453 13.3858 20.0453H10.8771C10.5833 20.0453 10.4402 19.9097 10.4402 19.6084V16.4142C10.4402 16.1204 10.5833 15.9772 10.8771 15.9772H13.3858C13.5892 15.9772 13.7323 15.9471 13.9207 15.7738L17.258 12.7454C17.2957 12.7152 17.3409 12.6851 17.3861 12.6851C17.4539 12.6851 17.4915 12.7303 17.4915 12.7906V23.2094C17.4915 23.2772 17.4539 23.3224 17.3861 23.3224ZM21.3261 21.3411C21.5822 21.5219 21.9513 21.4616 22.1698 21.1678C22.7573 20.3768 23.1114 19.2166 23.1114 18.0339C23.1114 16.8511 22.75 15.6985 22.1698 14.8924C21.9513 14.5986 21.5897 14.5384 21.3261 14.7191C20.9946 14.9376 20.9569 15.3218 21.198 15.6533C21.635 16.2409 21.8986 17.1374 21.8986 18.0339C21.8986 18.9304 21.6199 19.8269 21.1904 20.422C20.9645 20.7459 21.0021 21.1151 21.3261 21.3411Z" fill="white"/>
</g>
<defs>
<clipPath id="clip0_290_224">
<rect width="36" height="36" fill="white"/>
</clipPath>
</defs>
</svg>
