<svg width="36" height="36" viewBox="0 0 36 36" fill="none" xmlns="http://www.w3.org/2000/svg">
<g clip-path="url(#clip0_290_216)">
<path d="M36 18C36 8.05887 27.9411 0 18 0C8.05887 0 0 8.05887 0 18C0 27.9411 8.05887 36 18 36C27.9411 36 36 27.9411 36 18Z" fill="#404040"/>
<path d="M21.8781 20.1548V12.0035C21.8781 11.4988 21.5089 11.0769 20.9816 11.0769C20.6124 11.0769 20.3714 11.2577 19.9645 11.6193L16.4841 14.7156L17.3203 15.5593L20.4316 12.7343C20.4693 12.7041 20.507 12.674 20.5597 12.674C20.6199 12.674 20.6651 12.7192 20.6651 12.7795V18.9418L21.8781 20.1548ZM24.1456 25.4282C24.3792 25.6542 24.7483 25.6542 24.9668 25.4282C25.1928 25.1947 25.2004 24.8331 24.9668 24.6071L12.0694 11.7097C11.8434 11.4837 11.4668 11.4837 11.2408 11.7097C11.0223 11.9282 11.0223 12.3124 11.2408 12.5309L24.1456 25.4282ZM20.9966 24.9008C21.3281 24.9008 21.6144 24.7276 21.7876 24.3886L20.8685 23.5072L17.0491 20.1999C16.8833 20.0568 16.793 20.0342 16.582 20.0342H14.0884C13.7946 20.0342 13.6138 19.8534 13.6138 19.5596V16.3051L12.7098 15.3408C12.4989 15.6422 12.4009 16.0264 12.4009 16.5236V19.4617C12.4009 20.5917 12.9735 21.1718 14.0357 21.1718H16.2355C16.3108 21.1718 16.3711 21.1944 16.4238 21.2396L19.9645 24.4112C20.3337 24.7426 20.6275 24.9008 20.9966 24.9008Z" fill="white"/>
</g>
<defs>
<clipPath id="clip0_290_216">
<rect width="36" height="36" fill="white"/>
</clipPath>
</defs>
</svg>
