<svg width="32" height="32" viewBox="0 0 32 32" fill="none" xmlns="http://www.w3.org/2000/svg">
<g clip-path="url(#clip0_143_204)">
<path d="M9.0379 15.0198C9.0379 13.517 9.47523 12.048 10.2946 10.7985C11.1139 9.54898 12.2785 8.5751 13.6411 8.00001C15.0036 7.42492 16.5029 7.27445 17.9494 7.56763C19.3958 7.86081 20.7245 8.58447 21.7673 9.64709C22.8102 10.7097 23.5204 12.0636 23.8081 13.5375C24.0958 15.0114 23.9481 16.5391 23.3838 17.9275C22.8194 19.3159 21.8636 20.5026 20.6374 21.3375C19.4111 22.1724 17.9694 22.618 16.4946 22.618C14.517 22.618 12.6203 21.8175 11.2219 20.3926C9.82352 18.9676 9.0379 17.035 9.0379 15.0198Z" fill="black"/>
<path d="M27.725 27.1107C27.0253 26.3022 26.1647 25.6546 25.2004 25.2111C24.2362 24.7676 23.1904 24.5382 22.1325 24.5382H10.8568C9.79888 24.5382 8.75306 24.7676 7.78882 25.2111C6.82458 25.6546 5.96401 26.3022 5.26426 27.1107L3.78922 28.5857C2.5293 29.8457 3.42163 32 5.20344 32H27.7858C29.5676 32 30.46 29.8457 29.2001 28.5857L27.725 27.1107Z" fill="black"/>
</g>
<defs>
<clipPath id="clip0_143_204">
<rect width="32" height="32" fill="white"/>
</clipPath>
</defs>
</svg>
