<svg width="16" height="16" viewBox="0 0 16 16" fill="none" xmlns="http://www.w3.org/2000/svg">
<path d="M10.6666 6.58337C10.2524 6.58337 9.91658 6.91916 9.91658 7.33337C9.91658 7.74759 10.2524 8.08337 10.6666 8.08337V6.58337ZM14.6666 8.08337C15.0808 8.08337 15.4166 7.74759 15.4166 7.33337C15.4166 6.91916 15.0808 6.58337 14.6666 6.58337V8.08337ZM11.9166 9.33337C11.9166 9.74759 12.2524 10.0834 12.6666 10.0834C13.0808 10.0834 13.4166 9.74759 13.4166 9.33337H11.9166ZM13.4166 5.33337C13.4166 4.91916 13.0808 4.58337 12.6666 4.58337C12.2524 4.58337 11.9166 4.91916 11.9166 5.33337H13.4166ZM7.91658 4.00004C7.91658 5.05859 7.05846 5.91671 5.99992 5.91671V7.41671C7.88689 7.41671 9.41658 5.88701 9.41658 4.00004H7.91658ZM5.99992 5.91671C4.94137 5.91671 4.08325 5.05859 4.08325 4.00004H2.58325C2.58325 5.88701 4.11295 7.41671 5.99992 7.41671V5.91671ZM4.08325 4.00004C4.08325 2.94149 4.94137 2.08337 5.99992 2.08337V0.583374C4.11295 0.583374 2.58325 2.11307 2.58325 4.00004H4.08325ZM5.99992 2.08337C7.05846 2.08337 7.91658 2.94149 7.91658 4.00004H9.41658C9.41658 2.11307 7.88689 0.583374 5.99992 0.583374V2.08337ZM3.99992 9.41671H7.99992V7.91671H3.99992V9.41671ZM7.99992 13.25H3.99992V14.75H7.99992V13.25ZM3.99992 13.25C2.94137 13.25 2.08325 12.3919 2.08325 11.3334H0.583252C0.583252 13.2203 2.11295 14.75 3.99992 14.75V13.25ZM9.91658 11.3334C9.91658 12.3919 9.05846 13.25 7.99992 13.25V14.75C9.88689 14.75 11.4166 13.2203 11.4166 11.3334H9.91658ZM7.99992 9.41671C9.05846 9.41671 9.91658 10.2748 9.91658 11.3334H11.4166C11.4166 9.4464 9.88689 7.91671 7.99992 7.91671V9.41671ZM3.99992 7.91671C2.11295 7.91671 0.583252 9.4464 0.583252 11.3334H2.08325C2.08325 10.2748 2.94137 9.41671 3.99992 9.41671V7.91671ZM10.6666 8.08337H14.6666V6.58337H10.6666V8.08337ZM13.4166 9.33337V7.33337H11.9166V9.33337H13.4166ZM13.4166 7.33337V5.33337H11.9166V7.33337H13.4166Z" fill="black"/>
</svg>
