<svg width="36" height="36" viewBox="0 0 36 36" fill="none" xmlns="http://www.w3.org/2000/svg">
<g clip-path="url(#clip0_208_234)">
<path d="M36 18C36 8.05887 27.9411 0 18 0C8.05887 0 0 8.05887 0 18C0 27.9411 8.05887 36 18 36C27.9411 36 36 27.9411 36 18Z" fill="#3440C7"/>
<path fill-rule="evenodd" clip-rule="evenodd" d="M22.1999 21.8888C22.1999 22.0772 22.1483 22.2605 22.0523 22.4228L16.612 13H20.9999C21.3182 13 21.6234 13.117 21.8485 13.3254C22.0735 13.5338 22.1999 13.8164 22.1999 14.1111V21.8888ZM26.5499 14.1284C26.4653 14.1093 26.3772 14.1069 26.2915 14.1215C26.2058 14.1361 26.1244 14.1673 26.0527 14.2132L23.5334 15.768C23.4923 15.7934 23.4586 15.8278 23.4354 15.8681C23.4121 15.9085 23.3999 15.9535 23.3999 15.9993V20.0007C23.3999 20.0464 23.4121 20.0914 23.4354 20.1318C23.4586 20.1721 23.4923 20.2065 23.5334 20.2319L26.0669 21.7958C26.1617 21.8544 26.2726 21.8867 26.3866 21.889C26.5006 21.8914 26.6129 21.8636 26.7104 21.809C26.8007 21.7559 26.8747 21.6822 26.9253 21.595C26.976 21.5078 27.0017 21.4101 26.9999 21.3111V14.6666C27 14.5434 26.9558 14.4237 26.8743 14.3262C26.7929 14.2288 26.6788 14.1592 26.5499 14.1284Z" fill="white"/>
<path d="M10.2 23C9.88174 23 9.57651 22.8829 9.35147 22.6745C9.12643 22.4661 9 22.1835 9 21.8888V14.1111C9 13.8164 9.12643 13.5338 9.35147 13.3254C9.57651 13.117 9.88174 13 10.2 13L13.7469 12.9832C13.5379 12.6213 13.6619 12.1585 14.0238 11.9495C14.1057 11.9023 14.1927 11.872 14.2808 11.8577C14.5822 11.8088 14.8958 11.9464 15.0575 12.2265L15.5041 13L21.259 22.9678L21.2621 22.9731C21.4322 23.2733 21.3749 23.6412 21.1439 23.8763C21.097 23.9241 21.0429 23.9664 20.9821 24.0015C20.6201 24.2105 20.1573 24.0864 19.9484 23.7245L19.5 23H10.2Z" fill="white"/>
</g>
<defs>
<clipPath id="clip0_208_234">
<rect width="36" height="36" fill="white"/>
</clipPath>
</defs>
</svg>
