<svg width="36" height="36" viewBox="0 0 36 36" fill="none" xmlns="http://www.w3.org/2000/svg">
<g clip-path="url(#clip0_208_230)">
<path d="M36 18C36 8.05887 27.9411 0 18 0C8.05887 0 0 8.05887 0 18C0 27.9411 8.05887 36 18 36C27.9411 36 36 27.9411 36 18Z" fill="#3440C7"/>
<path d="M22.1999 14.1111V21.8889C22.1999 22.1836 22.0735 22.4662 21.8485 22.6746C21.6234 22.8829 21.3182 23 20.9999 23H10.2C9.88174 23 9.57651 22.8829 9.35147 22.6746C9.12643 22.4662 9 22.1836 9 21.8889V14.1111C9 13.8164 9.12643 13.5338 9.35147 13.3254C9.57651 13.1171 9.88174 13 10.2 13H20.9999C21.3182 13 21.6234 13.1171 21.8485 13.3254C22.0735 13.5338 22.1999 13.8164 22.1999 14.1111ZM26.5499 14.1285C26.4653 14.1093 26.3772 14.1069 26.2915 14.1215C26.2058 14.1361 26.1244 14.1674 26.0527 14.2132L23.5334 15.7681C23.4923 15.7934 23.4586 15.8278 23.4354 15.8682C23.4121 15.9085 23.3999 15.9536 23.3999 15.9993V20.0007C23.3999 20.0464 23.4121 20.0915 23.4354 20.1318C23.4586 20.1722 23.4923 20.2066 23.5334 20.2319L26.0669 21.7958C26.1617 21.8544 26.2726 21.8868 26.3866 21.8891C26.5006 21.8914 26.6129 21.8637 26.7104 21.809C26.8007 21.7559 26.8747 21.6822 26.9253 21.5951C26.976 21.5079 27.0017 21.4101 26.9999 21.3111V14.6667C27 14.5435 26.9558 14.4237 26.8743 14.3263C26.7929 14.2289 26.6788 14.1593 26.5499 14.1285Z" fill="white"/>
</g>
<defs>
<clipPath id="clip0_208_230">
<rect width="36" height="36" fill="white"/>
</clipPath>
</defs>
</svg>
