<svg width="325" height="319" viewBox="0 0 325 319" fill="none" xmlns="http://www.w3.org/2000/svg">
<path opacity="0.4" d="M311.731 257.168L244.086 299.866C240.626 302.05 236.73 303.448 232.672 303.962C228.614 304.476 224.493 304.093 220.598 302.84L146.447 278.983C142.528 277.722 138.38 277.342 134.297 277.871C130.215 278.399 126.299 279.822 122.83 282.039L68.5412 316.725C66.8756 317.778 64.9877 318.429 63.0272 318.625C61.0666 318.821 59.0875 318.556 57.2467 317.853C55.406 317.15 53.7544 316.027 52.423 314.573C51.0915 313.119 50.1169 311.375 49.5764 309.479L2.7236 145.07C1.97231 142.434 2.09416 139.625 3.07092 137.064C4.04768 134.503 5.82682 132.327 8.14207 130.863L76.5088 87.6144C80.2992 85.2166 84.5693 83.6808 89.0175 83.1154C93.4658 82.55 97.9839 82.9688 102.253 84.3422L174.041 107.438C178.325 108.817 182.86 109.234 187.323 108.659C191.786 108.085 196.069 106.533 199.865 104.115L251.272 71.3712C252.937 70.3106 254.826 69.6538 256.79 69.453C258.753 69.2522 260.736 69.513 262.581 70.2147C264.426 70.9163 266.082 72.0394 267.417 73.4945C268.751 74.9496 269.728 76.6965 270.27 78.5962L317.116 242.981C317.865 245.611 317.746 248.412 316.776 250.969C315.805 253.525 314.036 255.699 311.731 257.168Z" fill="#40536A"/>
<path d="M314.372 239.719L256.608 276.512C252.812 278.931 248.53 280.482 244.066 281.056C239.603 281.631 235.068 281.214 230.784 279.836L158.996 256.739C154.727 255.366 150.209 254.947 145.761 255.513C141.312 256.078 137.042 257.614 133.252 260.012L71.1823 299.276C69.5168 300.33 67.6288 300.98 65.6683 301.176C63.7077 301.372 61.7286 301.108 59.8879 300.405C58.0471 299.701 56.3955 298.578 55.0641 297.125C53.7326 295.671 52.758 293.927 52.2176 292.03L5.36471 127.622C4.61342 124.986 4.73528 122.177 5.71204 119.616C6.6888 117.054 8.46793 114.879 10.7832 113.414L79.1499 70.166C82.9403 67.7682 87.2104 66.2324 91.6587 65.667C96.107 65.1016 100.625 65.5204 104.894 66.8938L176.682 89.9901C180.966 91.3684 185.501 91.7852 189.964 91.2109C194.428 90.6365 198.71 89.085 202.506 86.6668L253.913 53.9228C255.578 52.8622 257.467 52.2054 259.431 52.0046C261.394 51.8038 263.377 52.0646 265.222 52.7663C267.067 53.4679 268.723 54.591 270.058 56.0461C271.393 57.5012 272.37 59.2481 272.911 61.1478L319.757 225.532C320.507 228.162 320.387 230.964 319.417 233.52C318.446 236.077 316.677 238.251 314.372 239.719Z" fill="#314155"/>
<path opacity="0.1" d="M152.105 238.155L141.364 207.822L90.6057 225.215L74.7342 179.185L33.3926 187.421L62.3771 289.129C62.5052 289.575 62.7752 289.967 63.1461 290.246C63.5171 290.524 63.9687 290.674 64.4323 290.672C64.8257 290.67 65.21 290.554 65.5383 290.337L124.549 253.008C124.29 252.707 152.105 238.155 152.105 238.155Z" fill="#EAF4F7"/>
<path d="M314.372 239.719L256.608 276.512C252.812 278.931 248.53 280.482 244.066 281.056C239.603 281.631 235.068 281.214 230.784 279.836L158.996 256.739C154.727 255.366 150.209 254.947 145.761 255.513C141.312 256.078 137.042 257.614 133.252 260.012L71.1823 299.276C69.5168 300.33 67.6288 300.98 65.6683 301.176C63.7077 301.372 61.7286 301.108 59.8879 300.405C58.0471 299.701 56.3955 298.578 55.0641 297.125C53.7326 295.671 52.758 293.927 52.2176 292.03L5.36471 127.622C4.61342 124.986 4.73528 122.177 5.71204 119.616C6.6888 117.054 8.46793 114.879 10.7832 113.414L79.1499 70.166C82.9403 67.7682 87.2104 66.2324 91.6587 65.667C96.107 65.1016 100.625 65.5204 104.894 66.8938L176.682 89.9901C180.966 91.3684 185.501 91.7852 189.964 91.2109C194.428 90.6365 198.71 89.085 202.506 86.6668L253.913 53.9228C255.578 52.8622 257.467 52.2054 259.431 52.0046C261.394 51.8038 263.377 52.0646 265.222 52.7663C267.067 53.4679 268.723 54.591 270.058 56.0461C271.393 57.5012 272.37 59.2481 272.911 61.1478L319.757 225.532C320.507 228.162 320.387 230.964 319.417 233.52C318.446 236.077 316.677 238.251 314.372 239.719V239.719Z" stroke="#192431" stroke-width="6" stroke-miterlimit="10"/>
<path d="M98.8271 219.296C98.8271 219.296 99.7077 219.067 101.191 218.633" stroke="#363A5A" stroke-width="4" stroke-linecap="round" stroke-linejoin="round"/>
<path d="M108.333 216.345C118.765 212.712 134.073 206.046 134.257 198.162C134.502 187.688 83.7872 135.286 111.053 132.118C202.081 121.542 161.294 197.323 202.81 195.629C220.349 194.913 187.914 170.777 238.026 153.33C245.454 150.744 241.764 131.834 239.272 121.947" stroke="white" stroke-width="4" stroke-linecap="round" stroke-linejoin="round" stroke-dasharray="10.18 15.26"/>
<path d="M238.308 118.318C237.893 116.834 237.621 115.959 237.621 115.959" stroke="#363A5A" stroke-width="4" stroke-linecap="round" stroke-linejoin="round"/>
<path opacity="0.22" d="M95.6567 244.274C108.732 244.274 119.332 233.665 119.332 220.577C119.332 207.489 108.732 196.879 95.6567 196.879C82.5809 196.879 71.981 207.489 71.981 220.577C71.981 233.665 82.5809 244.274 95.6567 244.274Z" fill="#3DC0CB"/>
<path d="M95.6565 234.319C103.239 234.319 109.386 228.166 109.386 220.577C109.386 212.987 103.239 206.834 95.6565 206.834C88.074 206.834 81.9272 212.987 81.9272 220.577C81.9272 228.166 88.074 234.319 95.6565 234.319Z" fill="white"/>
<path d="M95.6565 234.319C103.239 234.319 109.386 228.166 109.386 220.577C109.386 212.987 103.239 206.834 95.6565 206.834C88.074 206.834 81.9272 212.987 81.9272 220.577C81.9272 228.166 88.074 234.319 95.6565 234.319Z" stroke="#3DC0CB" stroke-width="6" stroke-miterlimit="10"/>
<path d="M101.913 97.9673L141.289 105.438L132.246 89.5294L99.6554 78.1484C97.7704 77.4901 95.7743 77.2099 93.7812 77.3239C91.788 77.4379 89.8367 77.9438 88.0389 78.8127L16.4278 122.353C16.0432 122.599 15.7477 122.961 15.585 123.388C15.4224 123.814 15.4011 124.282 15.5245 124.721L27.0733 165.247L58.5574 157.454L52.7767 134.239L101.913 97.9673Z" fill="#87D5F7" fill-opacity="0.19"/>
<path opacity="0.1" d="M164.317 198.326L186.788 203.989L197.651 228.911L173.444 224.938L164.317 198.326Z" fill="#FDDCBF"/>
<path d="M238.036 130.846C219.782 130.846 204.984 125.547 204.984 119.01C204.984 112.473 219.782 107.174 238.036 107.174C256.29 107.174 271.088 112.473 271.088 119.01C271.088 125.547 256.29 130.846 238.036 130.846Z" fill="#3DC0CB"/>
<path opacity="0.1" d="M248.408 190.732L289.64 172.767L305.928 222.437L239.162 260.415L226.924 225.846L253.031 211.147L248.408 190.732Z" fill="#FDDCBF"/>
<path d="M286.7 54.1243C286.7 25.7016 263.652 2.81417 235.724 4.14295C210.718 5.33272 189.4 26.6555 189.4 52.3945C189.4 89.6272 238.036 118.338 238.036 118.338C238.036 118.338 286.7 89.6271 286.7 54.1243Z" fill="#3DC0CB"/>
<path d="M255.8 103.929C251.965 106.924 247.237 108.542 242.373 108.526C237.509 108.509 232.791 106.857 228.977 103.836C214.581 92.4261 193.763 71.7145 193.763 47.3554C193.799 37.0127 197.217 26.9662 203.495 18.751C194.861 27.4776 189.4 39.3695 189.4 52.3945C189.4 89.6272 238.036 118.338 238.036 118.338C238.036 118.338 257.871 106.634 272.215 88.9318C267.152 94.3614 261.663 99.3765 255.8 103.929Z" fill="#22848C"/>
<path d="M235.724 4.14293C226.956 4.59501 218.479 7.43862 211.209 12.3661C216.934 9.60311 223.154 8.01714 229.502 7.70191C257.429 6.37314 280.478 29.2606 280.478 57.6832C280.478 85.521 250.561 109.18 237.642 118.1C237.895 118.255 238.036 118.338 238.036 118.338C238.036 118.338 286.7 89.6272 286.7 54.1243C286.7 25.7016 263.652 2.81418 235.724 4.14293Z" fill="#5AE3EE"/>
<path d="M238.036 73.2646C234.076 73.2646 230.205 72.0892 226.912 69.887C223.62 67.6849 221.053 64.5549 219.538 60.8929C218.022 57.2308 217.626 53.2013 218.398 49.3137C219.171 45.4261 221.078 41.8551 223.878 39.0523C226.678 36.2495 230.246 34.3408 234.13 33.5675C238.014 32.7942 242.04 33.1911 245.698 34.7079C249.357 36.2248 252.484 38.7935 254.684 42.0892C256.884 45.385 258.058 49.2597 258.058 53.2235C258.058 58.5387 255.949 63.6362 252.194 67.3947C248.439 71.1531 243.346 73.2646 238.036 73.2646Z" fill="white"/>
<path d="M238.036 73.2646C234.076 73.2646 230.205 72.0892 226.912 69.887C223.62 67.6849 221.053 64.5549 219.538 60.8929C218.022 57.2308 217.626 53.2013 218.398 49.3137C219.171 45.4261 221.078 41.8551 223.878 39.0523C226.678 36.2495 230.246 34.3408 234.13 33.5675C238.014 32.7942 242.04 33.1911 245.698 34.7079C249.357 36.2248 252.484 38.7935 254.684 42.0892C256.884 45.385 258.058 49.2597 258.058 53.2235C258.058 58.5387 255.949 63.6362 252.194 67.3947C248.439 71.1531 243.346 73.2646 238.036 73.2646Z" stroke="#363A5A" stroke-width="6" stroke-miterlimit="10"/>
<path d="M286.7 54.1243C286.7 25.7016 263.652 2.81417 235.724 4.14295C210.718 5.33272 189.4 26.6555 189.4 52.3945C189.4 89.6272 238.036 118.338 238.036 118.338C238.036 118.338 286.7 89.6271 286.7 54.1243Z" stroke="#363A5A" stroke-width="6" stroke-linecap="round" stroke-linejoin="round"/>
</svg>
