<svg width="17" height="17" viewBox="0 0 17 17" fill="none" xmlns="http://www.w3.org/2000/svg">
<g id="Document Align Left 8">
<g id="Vector">
<path d="M5.33333 5.92708L7.70833 5.92708C8.03625 5.92708 8.30208 5.66125 8.30208 5.33333C8.30208 5.00541 8.03625 4.73958 7.70833 4.73958L5.33333 4.73958C5.00541 4.73958 4.73958 5.00541 4.73958 5.33333C4.73958 5.66125 5.00541 5.92708 5.33333 5.92708Z" fill="black"/>
<path d="M11.6667 9.09375C11.9946 9.09375 12.2604 8.82792 12.2604 8.5C12.2604 8.17208 11.9946 7.90625 11.6667 7.90625L5.33333 7.90625C5.00541 7.90625 4.73958 8.17208 4.73958 8.5C4.73958 8.82792 5.00541 9.09375 5.33333 9.09375L11.6667 9.09375Z" fill="black"/>
<path fill-rule="evenodd" clip-rule="evenodd" d="M12.0336 0.879202C11.1294 0.781238 9.98975 0.781244 8.53582 0.78125H8.46418C7.01025 0.781244 5.87057 0.781238 4.96638 0.879202C4.04366 0.979172 3.29603 1.18684 2.65769 1.65062C2.27124 1.93139 1.93139 2.27124 1.65062 2.65769C1.18684 3.29603 0.979172 4.04366 0.879202 4.96638C0.781238 5.87057 0.781244 7.01025 0.78125 8.46418V8.53582C0.781244 9.98975 0.781238 11.1294 0.879202 12.0336C0.979172 12.9563 1.18684 13.704 1.65062 14.3423C1.93139 14.7288 2.27124 15.0686 2.65769 15.3494C3.29603 15.8132 4.04366 16.0208 4.96638 16.1208C5.87055 16.2188 7.01021 16.2188 8.4641 16.2188H8.50872C9.42711 16.2188 10.2167 16.2188 10.8953 16.1955C12.3785 16.1447 13.4686 15.9842 14.3423 15.3494C14.7288 15.0686 15.0686 14.7288 15.3494 14.3423C15.9842 13.4686 16.1447 12.3785 16.1955 10.8953C16.2188 10.2167 16.2188 9.42711 16.2188 8.50872V8.46416C16.2188 7.01027 16.2188 5.87055 16.1208 4.96638C16.0208 4.04366 15.8132 3.29603 15.3494 2.65769C15.0686 2.27124 14.7288 1.93139 14.3423 1.65062C13.704 1.18684 12.9563 0.979172 12.0336 0.879202ZM3.35568 2.61133C3.75785 2.31914 4.27261 2.14882 5.09429 2.05979C5.92708 1.96957 7.00251 1.96875 8.5 1.96875C9.99749 1.96875 11.0729 1.96957 11.9057 2.05979C12.7274 2.14882 13.2421 2.31914 13.6443 2.61133C13.93 2.81886 14.1811 3.07005 14.3887 3.35568C14.6809 3.75785 14.8512 4.27261 14.9402 5.09429C15.0304 5.92708 15.0313 7.00251 15.0313 8.5C15.0313 9.17161 15.0312 9.76016 15.0227 10.2827C14.6469 10.2862 14.3703 10.2978 14.1212 10.3373C12.1734 10.6458 10.6458 12.1734 10.3373 14.1212C10.2978 14.3703 10.2862 14.6469 10.2827 15.0227C9.76016 15.0312 9.17161 15.0313 8.5 15.0313C7.00251 15.0313 5.92708 15.0304 5.09429 14.9402C4.27261 14.8512 3.75785 14.6809 3.35568 14.3887C3.07005 14.1811 2.81886 13.93 2.61133 13.6443C2.31914 13.2421 2.14882 12.7274 2.05979 11.9057C1.96957 11.0729 1.96875 9.99749 1.96875 8.5C1.96875 7.00251 1.96957 5.92708 2.05979 5.09429C2.14882 4.27261 2.31914 3.75785 2.61133 3.35568C2.81885 3.07005 3.07005 2.81885 3.35568 2.61133ZM14.307 11.5102C14.4693 11.4845 14.6573 11.4747 14.9779 11.471C14.9036 12.5479 14.7335 13.1698 14.3887 13.6443C14.1811 13.93 13.93 14.1811 13.6443 14.3887C13.1698 14.7335 12.5479 14.9036 11.471 14.9779C11.4747 14.6573 11.4845 14.4693 11.5102 14.307C11.7382 12.8673 12.8673 11.7382 14.307 11.5102Z" fill="black"/>
</g>
</g>
</svg>
