<svg width="15" height="18" viewBox="0 0 15 18" fill="none" xmlns="http://www.w3.org/2000/svg">
<g id="Profile Delete 2">
<g id="Vector">
<path fill-rule="evenodd" clip-rule="evenodd" d="M6.70841 0.989563C4.63159 0.989563 2.948 2.67316 2.948 4.74998C2.948 6.8268 4.63159 8.5104 6.70841 8.5104C8.78524 8.5104 10.4688 6.8268 10.4688 4.74998C10.4688 2.67316 8.78524 0.989563 6.70841 0.989563ZM4.1355 4.74998C4.1355 3.329 5.28743 2.17706 6.70841 2.17706C8.1294 2.17706 9.28133 3.329 9.28133 4.74998C9.28133 6.17096 8.1294 7.3229 6.70841 7.3229C5.28743 7.3229 4.1355 6.17096 4.1355 4.74998Z" fill="black"/>
<path d="M4.33341 9.6979C2.25659 9.6979 0.572998 11.3815 0.572998 13.4583C0.572998 15.5351 2.25659 17.2187 4.33341 17.2187H9.08341C9.41133 17.2187 9.67716 16.9529 9.67716 16.625C9.67716 16.2971 9.41133 16.0312 9.08341 16.0312H4.33341C2.91243 16.0312 1.7605 14.8793 1.7605 13.4583C1.7605 12.0373 2.91243 10.8854 4.33341 10.8854H9.08341C9.41133 10.8854 9.67716 10.6196 9.67716 10.2916C9.67716 9.96373 9.41133 9.6979 9.08341 9.6979H4.33341Z" fill="black"/>
<path d="M14.5414 12.3909C14.7733 12.159 14.7733 11.7831 14.5414 11.5512C14.3095 11.3193 13.9336 11.3193 13.7017 11.5512L12.4422 12.8107L11.1827 11.5512C10.9508 11.3193 10.5748 11.3193 10.343 11.5512C10.1111 11.7831 10.1111 12.159 10.343 12.3909L11.6025 13.6504L10.343 14.9099C10.1111 15.1418 10.1111 15.5178 10.343 15.7496C10.5748 15.9815 10.9508 15.9815 11.1827 15.7496L12.4422 14.4901L13.7017 15.7496C13.9336 15.9815 14.3095 15.9815 14.5414 15.7496C14.7733 15.5178 14.7733 15.1418 14.5414 14.9099L13.2819 13.6504L14.5414 12.3909Z" fill="black"/>
</g>
</g>
</svg>
