<svg width="15" height="18" viewBox="0 0 15 18" fill="none" xmlns="http://www.w3.org/2000/svg">
<g id="Music">
<path id="Vector" fill-rule="evenodd" clip-rule="evenodd" d="M6.5105 7.94533L13.2397 5.92658V9.87834C12.7435 9.50565 12.1267 9.28481 11.4584 9.28481C9.81882 9.28481 8.48966 10.614 8.48966 12.2536C8.48966 13.8932 9.81882 15.2223 11.4584 15.2223C13.098 15.2223 14.4272 13.8932 14.4272 12.2536V2.75356C14.4272 1.56729 13.2793 0.719504 12.1455 1.06837L8.5187 2.1843L6.90199 2.64622C5.96737 2.91325 5.323 3.76751 5.323 4.73953V12.2533C4.82682 11.8806 4.21008 11.6598 3.54175 11.6598C1.90215 11.6598 0.572998 12.989 0.572998 14.6286C0.572998 16.2682 1.90215 17.5973 3.54175 17.5973C5.18134 17.5973 6.5105 16.2682 6.5105 14.6286V7.94533ZM12.4947 2.20335C12.8649 2.08945 13.2397 2.36625 13.2397 2.75356V4.68679L6.5105 6.70554V4.73953C6.5105 4.29771 6.80339 3.90941 7.22822 3.78803L8.85646 3.32281L12.4947 2.20335ZM11.4584 10.4723C12.4422 10.4723 13.2397 11.2698 13.2397 12.2536C13.2397 13.2373 12.4422 14.0348 11.4584 14.0348C10.4747 14.0348 9.67716 13.2373 9.67716 12.2536C9.67716 11.2698 10.4747 10.4723 11.4584 10.4723ZM3.54175 12.8473C4.52551 12.8473 5.323 13.6448 5.323 14.6286C5.323 15.6123 4.52551 16.4098 3.54175 16.4098C2.55799 16.4098 1.7605 15.6123 1.7605 14.6286C1.7605 13.6448 2.55799 12.8473 3.54175 12.8473Z" fill="black"/>
</g>
</svg>
