<svg width="21" height="20" viewBox="0 0 21 20" fill="none" xmlns="http://www.w3.org/2000/svg">
<path d="M17.8262 6.23344C18.0472 5.96827 18.0113 5.57417 17.7462 5.35319C17.481 5.13221 17.0869 5.16804 16.8659 5.43321L12.3737 10.8239C11.4713 11.9067 10.8365 12.6661 10.2859 13.1633C9.74821 13.6489 9.37709 13.8032 9.01271 13.8032C8.64833 13.8032 8.27721 13.6489 7.73947 13.1633C7.18889 12.6661 6.55411 11.9067 5.65174 10.8239L4.49285 9.43321C4.27187 9.16804 3.87777 9.13221 3.6126 9.35319C3.34742 9.57417 3.3116 9.96827 3.53257 10.2334L4.72363 11.6627C5.58635 12.698 6.27726 13.5271 6.90173 14.091C7.54677 14.6735 8.20616 15.0532 9.01271 15.0532C9.81926 15.0532 10.4786 14.6735 11.1237 14.091C11.7482 13.5271 12.4391 12.698 13.3018 11.6627L17.8262 6.23344Z" fill="black"/>
</svg>
