<svg width="17" height="17" viewBox="0 0 17 17" fill="none" xmlns="http://www.w3.org/2000/svg">
<g id="Call">
<path id="Vector" fill-rule="evenodd" clip-rule="evenodd" d="M5.42187 1.35525C4.58896 0.589917 3.30872 0.589917 2.47581 1.35525C2.4417 1.38659 2.40529 1.42301 2.358 1.47031L1.64749 2.18083C0.932522 2.89579 0.632386 3.92648 0.851728 4.91351C2.0962 10.5137 6.46979 14.8872 12.0699 16.1317C13.057 16.3511 14.0877 16.0509 14.8026 15.336L15.5131 14.6255C15.5604 14.5782 15.5968 14.5418 15.6282 14.5076C16.3935 13.6747 16.3935 12.3945 15.6282 11.5616C15.5968 11.5275 15.5604 11.491 15.5131 11.4437L14.3499 10.2805C13.5423 9.47295 12.3227 9.24199 11.2758 9.69835C10.6764 9.95962 9.9782 9.82739 9.51587 9.36505L7.61839 7.46758C7.15606 7.00524 7.02383 6.30703 7.28509 5.70766C7.74146 4.66071 7.51049 3.44112 6.70291 2.63354L5.53969 1.47032C5.4924 1.42302 5.45598 1.38659 5.42187 1.35525ZM3.27928 2.22966C3.65787 1.88178 4.23981 1.88178 4.6184 2.22966C4.63147 2.24167 4.64859 2.25861 4.70882 2.31883L5.86322 3.47323C6.32556 3.93557 6.45778 4.63377 6.19652 5.23315C5.74016 6.2801 5.97112 7.49968 6.7787 8.30727L8.67618 10.2047C9.48376 11.0123 10.7033 11.2433 11.7503 10.7869C12.3497 10.5257 13.0479 10.6579 13.5102 11.1202L14.6646 12.2746C14.7248 12.3348 14.7418 12.352 14.7538 12.365C15.1017 12.7436 15.1017 13.3256 14.7538 13.7042C14.7418 13.7172 14.7248 13.7344 14.6646 13.7946L13.9629 14.4963C13.5351 14.9241 12.9182 15.1038 12.3275 14.9725C7.17749 13.828 3.15541 9.80596 2.01095 4.65591C1.87968 4.06521 2.0593 3.44839 2.48718 3.02051L3.18886 2.31883C3.24908 2.25861 3.26621 2.24167 3.27928 2.22966Z" fill="black"/>
</g>
</svg>
