<svg width="50" height="50" viewBox="0 0 50 50" fill="none" xmlns="http://www.w3.org/2000/svg">
<g filter="url(#filter0_d_580_440)">
<path d="M25 14.4375C22.9109 14.4375 20.8688 15.057 19.1318 16.2176C17.3948 17.3782 16.041 19.0279 15.2415 20.9579C14.4421 22.8879 14.2329 25.0117 14.6405 27.0606C15.048 29.1096 16.054 30.9916 17.5312 32.4688C19.0084 33.946 20.8904 34.952 22.9394 35.3595C24.9883 35.7671 27.1121 35.5579 29.0421 34.7585C30.9721 33.959 32.6218 32.6052 33.7824 30.8682C34.943 29.1312 35.5625 27.0891 35.5625 25C35.5595 22.1996 34.4458 19.5147 32.4656 17.5345C30.4853 15.5542 27.8004 14.4405 25 14.4375ZM29.6373 23.1373L23.9498 28.8248C23.8744 28.9004 23.7848 28.9603 23.6861 29.0012C23.5875 29.0421 23.4818 29.0631 23.375 29.0631C23.2682 29.0631 23.1625 29.0421 23.0639 29.0012C22.9652 28.9603 22.8756 28.9004 22.8002 28.8248L20.3627 26.3873C20.2102 26.2349 20.1246 26.0281 20.1246 25.8125C20.1246 25.5969 20.2102 25.3901 20.3627 25.2377C20.5151 25.0852 20.7219 24.9995 20.9375 24.9995C21.1531 24.9995 21.3599 25.0852 21.5123 25.2377L23.375 27.1013L28.4877 21.9877C28.5631 21.9122 28.6528 21.8523 28.7514 21.8114C28.85 21.7706 28.9557 21.7495 29.0625 21.7495C29.1693 21.7495 29.275 21.7706 29.3736 21.8114C29.4722 21.8523 29.5619 21.9122 29.6373 21.9877C29.7128 22.0631 29.7727 22.1528 29.8136 22.2514C29.8544 22.35 29.8755 22.4557 29.8755 22.5625C29.8755 22.6693 29.8544 22.775 29.8136 22.8736C29.7727 22.9722 29.7128 23.0619 29.6373 23.1373Z" fill="black"/>
</g>
<defs>
<filter id="filter0_d_580_440" x="0.8375" y="0.8375" width="48.325" height="48.325" filterUnits="userSpaceOnUse" color-interpolation-filters="sRGB">
<feFlood flood-opacity="0" result="BackgroundImageFix"/>
<feColorMatrix in="SourceAlpha" type="matrix" values="0 0 0 0 0 0 0 0 0 0 0 0 0 0 0 0 0 0 127 0" result="hardAlpha"/>
<feOffset/>
<feGaussianBlur stdDeviation="6.8"/>
<feComposite in2="hardAlpha" operator="out"/>
<feColorMatrix type="matrix" values="0 0 0 0 0 0 0 0 0 0 0 0 0 0 0 0 0 0 0.25 0"/>
<feBlend mode="normal" in2="BackgroundImageFix" result="effect1_dropShadow_580_440"/>
<feBlend mode="normal" in="SourceGraphic" in2="effect1_dropShadow_580_440" result="shape"/>
</filter>
</defs>
</svg>
