<svg width="15" height="19" viewBox="0 0 15 19" fill="none" xmlns="http://www.w3.org/2000/svg">
<g id="Notification 1">
<g id="Vector">
<path fill-rule="evenodd" clip-rule="evenodd" d="M6.78732 0.989624C4.09917 0.989624 2.01932 3.34565 2.35274 6.01304L2.41557 6.51562C2.50749 7.25105 2.23886 7.98563 1.69418 8.48825C0.565521 9.52976 0.251945 11.1875 0.92221 12.5693L1.00403 12.738C1.62879 14.0259 2.93448 14.8438 4.366 14.8438H10.8741C12.1089 14.8438 13.2581 14.213 13.9211 13.1713C14.8569 11.7008 14.6091 9.77175 13.3319 8.58564L13.2971 8.55337C12.7125 8.01039 12.4246 7.21935 12.5236 6.42759L12.5747 6.01835C12.9085 3.34814 10.8265 0.989624 8.13546 0.989624H6.78732ZM3.53107 5.86574C3.28624 3.90712 4.81345 2.17712 6.78732 2.17712H8.13546C10.1122 2.17712 11.6416 3.90961 11.3964 5.87106L11.3453 6.2803C11.1989 7.451 11.6245 8.62065 12.4891 9.42351L12.5238 9.45578C13.3811 10.2519 13.5474 11.5467 12.9193 12.5337C12.4743 13.2329 11.7029 13.6563 10.8741 13.6563H4.366C3.38942 13.6563 2.49868 13.0984 2.07247 12.2197L1.99065 12.051C1.54884 11.1402 1.75553 10.0475 2.49951 9.36095C3.32582 8.59844 3.73336 7.48402 3.5939 6.36833L3.53107 5.86574Z" fill="black"/>
<path d="M5.74502 16.2688C5.54827 16.0065 5.17611 15.9533 4.91377 16.15C4.65144 16.3468 4.59827 16.719 4.79502 16.9813L5.03252 17.298C6.33877 19.0396 8.95127 19.0396 10.2575 17.298L10.495 16.9813C10.6918 16.719 10.6386 16.3468 10.3763 16.15C10.1139 15.9533 9.74178 16.0065 9.54503 16.2688L9.30753 16.5855C8.47627 17.6938 6.81377 17.6938 5.98252 16.5855L5.74502 16.2688Z" fill="black"/>
</g>
</g>
</svg>
