<svg width="32" height="32" viewBox="0 0 32 32" fill="none" xmlns="http://www.w3.org/2000/svg">
<path d="M20.9999 16C20.9999 16.9889 20.7067 17.9556 20.1573 18.7779C19.6079 19.6001 18.827 20.241 17.9134 20.6194C16.9997 20.9979 15.9944 21.0969 15.0245 20.9039C14.0546 20.711 13.1637 20.2348 12.4644 19.5355C11.7651 18.8363 11.2889 17.9454 11.096 16.9755C10.9031 16.0056 11.0021 15.0002 11.3805 14.0866C11.759 13.173 12.3998 12.3921 13.2221 11.8427C14.0443 11.2933 15.011 11 15.9999 11C17.326 11 18.5978 11.5268 19.5355 12.4645C20.4732 13.4022 20.9999 14.6739 20.9999 16ZM25.9999 16C26.003 13.5398 25.096 11.1655 23.4537 9.33376C23.3668 9.23353 23.2608 9.15158 23.142 9.0927C23.0231 9.03382 22.8937 8.99917 22.7613 8.99079C22.6289 8.98241 22.4961 9.00045 22.3708 9.04387C22.2454 9.08729 22.13 9.15522 22.0311 9.2437C21.9323 9.33218 21.852 9.43944 21.7951 9.55924C21.7381 9.67903 21.7055 9.80897 21.6992 9.94148C21.6929 10.074 21.7131 10.2064 21.7585 10.3311C21.8039 10.4557 21.8737 10.5701 21.9637 10.6675C23.2755 12.1342 24.0007 14.0329 24.0007 16.0006C24.0007 17.9684 23.2755 19.8671 21.9637 21.3338C21.7918 21.5321 21.7047 21.79 21.7213 22.052C21.7379 22.3139 21.8568 22.5588 22.0523 22.7339C22.2479 22.9089 22.5044 23.0001 22.7666 22.9877C23.0288 22.9753 23.2756 22.8603 23.4537 22.6675C25.0958 20.8352 26.0027 18.4605 25.9999 16ZM10.0362 10.6675C10.1262 10.5701 10.196 10.4557 10.2414 10.3311C10.2868 10.2064 10.307 10.074 10.3007 9.94148C10.2944 9.80897 10.2618 9.67903 10.2048 9.55924C10.1479 9.43944 10.0676 9.33218 9.96876 9.2437C9.86991 9.15522 9.75445 9.08729 9.6291 9.04387C9.50375 9.00045 9.37101 8.98241 9.23861 8.99079C9.10622 8.99917 8.97682 9.03382 8.85794 9.0927C8.73906 9.15158 8.63309 9.23353 8.5462 9.33376C6.90469 11.1664 5.997 13.5403 5.997 16.0006C5.997 18.461 6.90469 20.8348 8.5462 22.6675C8.72433 22.8603 8.97111 22.9753 9.23328 22.9877C9.49545 23.0001 9.75199 22.9089 9.94755 22.7339C10.1431 22.5588 10.262 22.3139 10.2786 22.052C10.2952 21.79 10.2081 21.5321 10.0362 21.3338C8.72314 19.8677 7.99709 17.9688 7.99709 16.0006C7.99709 14.0325 8.72314 12.1336 10.0362 10.6675ZM29.8212 10.1675C29.0893 8.42944 28.0349 6.8457 26.7137 5.50001C26.6226 5.40265 26.513 5.32448 26.3913 5.27009C26.2696 5.21571 26.1382 5.18621 26.0049 5.18334C25.8716 5.18046 25.7391 5.20427 25.6152 5.25335C25.4912 5.30244 25.3783 5.37581 25.2832 5.46916C25.188 5.5625 25.1124 5.67394 25.0609 5.79691C25.0095 5.91988 24.9831 6.05191 24.9834 6.18522C24.9836 6.31854 25.0106 6.45045 25.0626 6.5732C25.1146 6.69596 25.1906 6.80707 25.2862 6.90001C27.6696 9.32831 29.0049 12.595 29.0049 15.9975C29.0049 19.4001 27.6696 22.6667 25.2862 25.095C25.1939 25.1887 25.1211 25.2997 25.0717 25.4216C25.0223 25.5435 24.9975 25.674 24.9985 25.8055C24.9995 25.937 25.0265 26.067 25.0778 26.1881C25.1291 26.3092 25.2037 26.419 25.2974 26.5113C25.3912 26.6035 25.5022 26.6764 25.6241 26.7258C25.746 26.7751 25.8764 26.8 26.0079 26.799C26.1394 26.7979 26.2694 26.771 26.3905 26.7197C26.5116 26.6684 26.6214 26.5937 26.7137 26.5C28.784 24.3858 30.1834 21.7071 30.7363 18.8002C31.2892 15.8933 30.9708 12.8878 29.8212 10.1613V10.1675ZM4.02119 21.06C3.022 18.698 2.74449 16.093 3.22365 13.5736C3.70281 11.0541 4.9172 8.73283 6.7137 6.90251C6.89968 6.71322 7.00285 6.45779 7.0005 6.19243C6.99816 5.92706 6.89049 5.6735 6.7012 5.48751C6.5119 5.30153 6.25647 5.19836 5.99111 5.20071C5.72574 5.20305 5.47218 5.31072 5.2862 5.50001C2.53393 8.30192 0.991821 12.0725 0.991821 16C0.991821 19.9276 2.53393 23.6981 5.2862 26.5C5.37726 26.5974 5.48688 26.6756 5.6086 26.7299C5.73031 26.7843 5.86168 26.8138 5.99496 26.8167C6.12825 26.8196 6.26076 26.7958 6.38471 26.7467C6.50866 26.6976 6.62154 26.6242 6.71672 26.5309C6.81191 26.4375 6.88746 26.3261 6.93895 26.2031C6.99043 26.0801 7.01681 25.9481 7.01653 25.8148C7.01624 25.6815 6.98931 25.5496 6.9373 25.4268C6.8853 25.3041 6.80927 25.193 6.7137 25.1C5.56955 23.9351 4.656 22.5644 4.02119 21.06Z" fill="black"/>
</svg>
