<svg width="19" height="14" viewBox="0 0 19 14" fill="none" xmlns="http://www.w3.org/2000/svg">
<g id="Volume High">
<g id="Vector">
<path fill-rule="evenodd" clip-rule="evenodd" d="M10.1093 0.63722C9.44823 0.44454 8.81308 0.708381 8.20387 1.0927C7.59201 1.47869 6.8494 2.09074 5.92029 2.85651L5.09681 3.53521C4.9389 3.66535 4.87505 3.71777 4.81176 3.76492C4.27591 4.16423 3.63328 4.39493 2.9658 4.42759C2.88698 4.43145 2.80437 4.43161 2.59974 4.43161L2.56682 4.43161C2.39043 4.43156 2.25451 4.43152 2.133 4.44512C1.12233 4.5582 0.324602 5.35593 0.211513 6.3666C0.197916 6.48812 0.197954 6.62403 0.198004 6.80042V7.77411C0.197954 7.95051 0.197916 8.08642 0.211513 8.20793C0.324602 9.2186 1.12233 10.0163 2.133 10.1294C2.25452 10.143 2.39043 10.143 2.56683 10.1429L2.59974 10.1429C2.80437 10.1429 2.88698 10.1431 2.9658 10.1469C3.63328 10.1796 4.27591 10.4103 4.81176 10.8096C4.87505 10.8568 4.9389 10.9092 5.09681 11.0393L5.92028 11.718C6.84939 12.4838 7.59201 13.0958 8.20386 13.4818C8.81308 13.8662 9.44823 14.13 10.1093 13.9373C10.3287 13.8734 10.5367 13.7753 10.7255 13.6466C11.2947 13.259 11.495 12.6011 11.5859 11.8866C11.6772 11.1689 11.6772 10.2066 11.6772 9.00255V5.57198C11.6772 4.36797 11.6772 3.40563 11.5859 2.68798C11.495 1.97343 11.2947 1.31549 10.7255 0.9279C10.5367 0.799263 10.3287 0.701169 10.1093 0.63722ZM6.64056 3.80172C7.61263 3.00057 8.29722 2.43786 8.83746 2.09705C9.38798 1.74976 9.63418 1.73565 9.777 1.77728C9.87673 1.80635 9.97126 1.85094 10.0571 1.90941C10.1801 1.99315 10.3258 2.1921 10.4079 2.83782C10.4885 3.47146 10.4897 4.35764 10.4897 5.61731V8.95722C10.4897 10.2169 10.4885 11.1031 10.4079 11.7367C10.3258 12.3824 10.1801 12.5814 10.0571 12.6651C9.97126 12.7236 9.87673 12.7682 9.777 12.7973C9.63418 12.8389 9.38798 12.8248 8.83745 12.4775C8.29722 12.1367 7.61263 11.574 6.64056 10.7728L5.8397 10.1128C5.69793 9.99591 5.61071 9.92402 5.52132 9.85741C4.79634 9.31717 3.9269 9.00506 3.02385 8.96086C2.91251 8.95542 2.79948 8.95542 2.61577 8.95542H2.59974C2.37506 8.95542 2.31161 8.95449 2.26505 8.94929C1.80566 8.89788 1.44305 8.53528 1.39165 8.07588C1.38644 8.02933 1.38551 7.96588 1.38551 7.7412V6.83334C1.38551 6.60866 1.38644 6.54521 1.39165 6.49865C1.44305 6.03926 1.80566 5.67665 2.26505 5.62525C2.31161 5.62004 2.37506 5.61911 2.59974 5.61911H2.61578C2.79947 5.61912 2.91252 5.61912 3.02385 5.61367C3.9269 5.56948 4.79634 5.25736 5.52132 4.71712C5.61071 4.65051 5.69793 4.57862 5.8397 4.46177L6.64056 3.80172Z" fill="black"/>
<path d="M15.4616 1.32576C15.2297 1.09388 14.8538 1.09388 14.6219 1.32576C14.39 1.55763 14.39 1.93357 14.6219 2.16545L15.1761 2.71961C15.658 3.20151 15.8708 3.41522 16.031 3.60686C17.8114 5.73747 17.8114 8.83706 16.031 10.9677C15.8708 11.1593 15.658 11.373 15.1761 11.8549L14.6219 12.4091C14.39 12.641 14.39 13.0169 14.6219 13.2488C14.8538 13.4807 15.2297 13.4807 15.4616 13.2488L16.044 12.6664C16.4901 12.2203 16.7436 11.9668 16.9422 11.7291C19.091 9.15771 19.091 5.41682 16.9422 2.84539C16.7436 2.60775 16.4901 2.35424 16.044 1.90812L15.4616 1.32576Z" fill="black"/>
<path d="M13.8783 3.70076C13.6464 3.46888 13.2705 3.46888 13.0386 3.70076C12.8067 3.93263 12.8067 4.30857 13.0386 4.54045L13.3552 4.85711C13.3614 4.86322 13.367 4.86887 13.3723 4.87413C13.409 4.9109 13.4261 4.92802 13.4401 4.94246C14.709 6.24818 14.709 8.32635 13.4401 9.63207C13.4241 9.64858 13.4041 9.66858 13.3552 9.71742L13.0386 10.0341C12.8067 10.266 12.8067 10.6419 13.0386 10.8738C13.2705 11.1057 13.6464 11.1057 13.8783 10.8738L14.1992 10.5529C14.2046 10.5475 14.2099 10.5421 14.2148 10.5372C14.2492 10.5029 14.2719 10.4801 14.2917 10.4597C16.0084 8.69309 16.0084 5.88145 14.2917 4.11488C14.269 4.09148 14.2426 4.06504 14.1991 4.02163L13.8783 3.70076Z" fill="black"/>
</g>
</g>
</svg>
