<svg width="136" height="127" viewBox="0 0 136 127" fill="none" xmlns="http://www.w3.org/2000/svg">
<path d="M34.5064 127C27.735 127 23.0097 121.593 23.9521 114.923L26.0988 99.73H10.674C3.90259 99.73 -0.822708 94.323 0.119692 87.653C1.06209 80.984 7.31539 75.5767 14.0867 75.5767H25.5564C27.7408 75.5767 29.758 73.8325 30.062 71.681L32.3738 55.319C32.6778 53.1675 31.1535 51.4233 28.9692 51.4233H17.4995C10.7281 51.4233 6.00269 46.0164 6.94509 39.3466C7.88749 32.6769 14.1408 27.2699 20.9122 27.2699H36.337L38.4837 12.0767C39.4261 5.4069 45.6793 0 52.4507 0C59.2221 0 63.9475 5.4069 63.0051 12.0767L61.4088 23.3742C61.1048 25.5258 62.6291 27.2699 64.8134 27.2699H81.4247C83.609 27.2699 85.6262 25.5258 85.9302 23.3742L87.5265 12.0767C88.4689 5.4069 94.7222 0 101.494 0C108.265 0 112.99 5.4069 112.048 12.0767L109.901 27.2699H125.326C132.097 27.2699 136.823 32.6769 135.88 39.3466C134.938 46.0164 128.685 51.4233 121.913 51.4233H110.443C108.259 51.4233 106.242 53.1675 105.938 55.319L103.626 71.681C103.322 73.8325 104.846 75.5767 107.031 75.5767H118.5C125.272 75.5767 129.997 80.984 129.055 87.653C128.112 94.323 121.859 99.73 115.088 99.73H99.663L97.5163 114.923C96.5739 121.593 90.3207 127 83.5493 127C76.7779 127 72.0525 121.593 72.9949 114.923L74.5912 103.626C74.8952 101.474 73.3709 99.73 71.1866 99.73H54.5753C52.391 99.73 50.3738 101.474 50.0698 103.626L48.4735 114.923C47.5311 121.593 41.2778 127 34.5064 127Z" fill="black"/>
<path d="M96.2482 41.144C98.228 41.144 100.136 42.7223 100.23 44.6465C100.532 50.8055 98.6967 56.5721 94.9547 61.008C90.5104 66.2763 83.7406 69.236 76.1347 69.236C68.5288 69.236 60.7097 66.2763 54.3976 61.008C49.0828 56.5722 45.2029 50.8055 43.3212 44.6465C42.7333 42.7223 44.0816 41.144 46.0614 41.144C48.0412 41.144 49.8963 42.7269 50.5638 44.6394C52.0615 48.9306 54.8517 52.9245 58.5869 56.042C63.321 59.9932 69.1853 62.213 74.8897 62.213C80.5942 62.213 85.6715 59.9932 89.0047 56.042C91.6346 52.9245 93.0088 48.9306 92.9851 44.6394C92.9745 42.7269 94.2684 41.144 96.2482 41.144Z" fill="white"/>
<path d="M57.817 45.6994C56.6398 45.6994 55.4883 44.7475 55.6113 43.6377C55.7486 42.3986 56.2224 41.2573 57.004 40.3308C58.2052 38.9069 60.0348 38.107 62.0905 38.107C64.1461 38.107 66.2594 38.9069 67.9654 40.3308C69.0755 41.2573 69.9539 42.3986 70.5305 43.6377C71.047 44.7475 70.233 45.6994 69.0558 45.6994C67.8786 45.6994 66.7883 44.6834 65.9455 43.739C65.8013 43.5775 65.6438 43.4249 65.4744 43.2835C64.7067 42.6428 63.7558 42.2829 62.8307 42.2829C61.9057 42.2829 61.0823 42.6428 60.5418 43.2835C60.4225 43.4249 60.3192 43.5775 60.2323 43.739C59.7242 44.6834 58.9942 45.6994 57.817 45.6994Z" fill="white"/>
<path d="M74.0938 45.6994C72.9166 45.6994 71.7651 44.7475 71.8881 43.6377C72.0254 42.3986 72.4992 41.2573 73.2808 40.3308C74.482 38.9069 76.3116 38.107 78.3673 38.107C80.4229 38.107 82.5362 38.9069 84.2422 40.3308C85.3523 41.2573 86.2307 42.3986 86.8073 43.6377C87.3238 44.7475 86.5098 45.6994 85.3326 45.6994C84.1554 45.6994 83.0651 44.6834 82.2223 43.739C82.0781 43.5775 81.9206 43.4249 81.7512 43.2835C80.9836 42.6428 80.0326 42.2829 79.1075 42.2829C78.1825 42.2829 77.3591 42.6428 76.8186 43.2835C76.6993 43.4249 76.596 43.5775 76.5091 43.739C76.001 44.6834 75.271 45.6994 74.0938 45.6994Z" fill="white"/>
</svg>
