<svg width="17" height="17" viewBox="0 0 17 17" fill="none" xmlns="http://www.w3.org/2000/svg">
<g id="Scan 8">
<g id="Vector">
<path d="M10.875 0.78125C10.5471 0.78125 10.2813 1.04708 10.2813 1.375C10.2813 1.70292 10.5471 1.96875 10.875 1.96875H11.6667C13.5249 1.96875 15.0313 3.47513 15.0313 5.33333V6.125C15.0313 6.45292 15.2971 6.71875 15.625 6.71875C15.9529 6.71875 16.2188 6.45292 16.2188 6.125V5.33333C16.2188 2.81929 14.1807 0.78125 11.6667 0.78125H10.875Z" fill="black"/>
<path d="M5.33333 0.78125C2.81929 0.78125 0.78125 2.81929 0.78125 5.33333V6.125C0.78125 6.45292 1.04708 6.71875 1.375 6.71875C1.70292 6.71875 1.96875 6.45292 1.96875 6.125V5.33333C1.96875 3.47513 3.47513 1.96875 5.33333 1.96875H6.125C6.45292 1.96875 6.71875 1.70292 6.71875 1.375C6.71875 1.04708 6.45292 0.78125 6.125 0.78125H5.33333Z" fill="black"/>
<path fill-rule="evenodd" clip-rule="evenodd" d="M8.5 6.32292C7.29763 6.32292 6.32292 7.29763 6.32292 8.5C6.32292 9.70237 7.29763 10.6771 8.5 10.6771C9.70237 10.6771 10.6771 9.70237 10.6771 8.5C10.6771 7.29763 9.70237 6.32292 8.5 6.32292ZM7.51042 8.5C7.51042 7.95347 7.95347 7.51042 8.5 7.51042C9.04653 7.51042 9.48958 7.95347 9.48958 8.5C9.48958 9.04653 9.04653 9.48958 8.5 9.48958C7.95347 9.48958 7.51042 9.04653 7.51042 8.5Z" fill="black"/>
<path d="M1.96875 10.875C1.96875 10.5471 1.70292 10.2813 1.375 10.2813C1.04708 10.2813 0.78125 10.5471 0.78125 10.875V11.6667C0.78125 14.1807 2.81929 16.2188 5.33333 16.2188H6.125C6.45292 16.2188 6.71875 15.9529 6.71875 15.625C6.71875 15.2971 6.45292 15.0313 6.125 15.0313H5.33333C3.47513 15.0313 1.96875 13.5249 1.96875 11.6667V10.875Z" fill="black"/>
<path d="M16.2188 10.875C16.2188 10.5471 15.9529 10.2813 15.625 10.2813C15.2971 10.2813 15.0313 10.5471 15.0313 10.875V11.6667C15.0313 13.5249 13.5249 15.0313 11.6667 15.0313H10.875C10.5471 15.0313 10.2812 15.2971 10.2812 15.625C10.2812 15.9529 10.5471 16.2188 10.875 16.2188H11.6667C14.1807 16.2188 16.2188 14.1807 16.2188 11.6667V10.875Z" fill="black"/>
</g>
</g>
</svg>
