<svg width="29" height="7" viewBox="0 0 30 30" fill="none" xmlns="http://www.w3.org/2000/svg">
<g id="Vector">
<path fill-rule="evenodd" clip-rule="evenodd" d="M16.9415 30C14.7778 23.4725 8.60712 18.7621 1.33257 18.7621C0.883962 18.7621 0.439549 18.78 1.57086e-05 18.8151V28.755C1.57086e-05 29.0852 0.131711 29.4019 0.366131 29.6353C0.600551 29.8688 0.918493 30 1.25001 30H16.9415Z" fill="#FF8000"/>
<path fill-rule="evenodd" clip-rule="evenodd" d="M1.57086e-05 16.859C5.26297 14.4431 9.02582 9.33618 9.51346 3.30758L0.732826 12.0532C0.499552 12.2838 0.314638 12.5583 0.188833 12.8607C0.0630288 13.1632 -0.00115415 13.4875 1.57086e-05 13.8149V16.859Z" fill="#FF8000"/>
<path fill-rule="evenodd" clip-rule="evenodd" d="M9.46307 0C9.79971 0.762386 10.1927 1.49366 10.6367 2.1888C13.6735 6.94358 19.0937 10.0076 25.1521 9.77211C25.7186 9.75009 26.2772 9.69975 26.8268 9.62251" fill="#FF8000"/>
<path fill-rule="evenodd" clip-rule="evenodd" d="M28.1341 10.9247C21.7304 13.3629 17.2982 19.6625 17.5801 26.8679C17.6222 27.9433 17.7674 28.9903 18.0058 30H28.75C29.0815 30 29.3995 29.8688 29.6339 29.6353C29.8683 29.4019 30 29.0852 30 28.755V13.8149C30.0012 13.4875 29.937 13.1632 29.8112 12.8607C29.6854 12.5583 29.5004 12.2838 29.2672 12.0532L28.1341 10.9247Z" fill="#FF8000"/>
</g>
</svg>
