<svg width="95" height="15" viewBox="0 0 95 15" fill="none" xmlns="http://www.w3.org/2000/svg">
<g id="homenest-logo" opacity="0.5">
<path fill-rule="evenodd" clip-rule="evenodd" d="M7.95168 14.5C7.01963 11.4538 4.36149 9.25563 1.22784 9.25563C1.03459 9.25563 0.843153 9.26399 0.653815 9.28039V13.919C0.653815 14.0731 0.710545 14.2209 0.811526 14.3298C0.912507 14.4388 1.04947 14.5 1.19228 14.5H7.95168Z" fill="#FF8000"/>
<path fill-rule="evenodd" clip-rule="evenodd" d="M0.653815 8.36754C2.92093 7.24009 4.54185 4.85688 4.75191 2.04354L0.969487 6.12481C0.869 6.23243 0.789345 6.36054 0.735152 6.50167C0.680959 6.64281 0.653311 6.79417 0.653815 6.94693V8.36754Z" fill="#FF8000"/>
<path fill-rule="evenodd" clip-rule="evenodd" d="M4.73021 0.5C4.87522 0.85578 5.04453 1.19704 5.23578 1.52144C6.54394 3.74033 8.87877 5.17019 11.4886 5.06032C11.7326 5.05004 11.9732 5.02655 12.21 4.9905" fill="#FF8000"/>
<path fill-rule="evenodd" clip-rule="evenodd" d="M12.7731 5.59817C10.0146 6.73603 8.10534 9.67582 8.22678 13.0384C8.24491 13.5402 8.30744 14.0288 8.41014 14.5H13.0384C13.1812 14.5 13.3182 14.4388 13.4192 14.3298C13.5201 14.2209 13.5769 14.0731 13.5769 13.919V6.94693C13.5774 6.79417 13.5497 6.64281 13.4955 6.50167C13.4413 6.36054 13.3617 6.23243 13.2612 6.12481L12.7731 5.59817Z" fill="#FF8000"/>
<path d="M21.1153 14.5V3.73077H22.9823V9.15934H28.2655V3.73077H30.1246L30.1246 14.5H28.2655V10.815H22.9823V14.5H21.1153Z" fill="#060A14"/>
<path d="M35.2169 14.5C34.3803 14.5 33.6495 14.3217 33.0247 13.9652C32.3998 13.6087 31.9143 13.1178 31.5683 12.4927C31.2274 11.8626 31.057 11.1398 31.057 10.3242C31.057 9.49389 31.2326 8.76618 31.5838 8.14103C31.935 7.51587 32.423 7.02747 33.0479 6.67582C33.6728 6.32418 34.3958 6.14835 35.2169 6.14835C36.0587 6.14835 36.7921 6.32662 37.417 6.68315C38.0419 7.03968 38.5273 7.53297 38.8733 8.163C39.2193 8.78816 39.3923 9.50855 39.3923 10.3242C39.3923 11.1447 39.2168 11.87 38.8656 12.5C38.5196 13.1252 38.0341 13.616 37.4092 13.9725C36.7843 14.3242 36.0536 14.5 35.2169 14.5ZM35.2169 12.8443C35.9606 12.8443 36.5132 12.6099 36.8747 12.141C37.2362 11.6722 37.417 11.0665 37.417 10.3242C37.417 9.55739 37.2336 8.94689 36.867 8.49267C36.5003 8.03358 35.9503 7.80403 35.2169 7.80403C34.716 7.80403 34.3028 7.91148 33.9775 8.12637C33.6573 8.33639 33.4197 8.63187 33.2648 9.01282C33.1099 9.38889 33.0324 9.82601 33.0324 10.3242C33.0324 11.091 33.2157 11.7039 33.5824 12.163C33.9542 12.6172 34.4991 12.8443 35.2169 12.8443Z" fill="#060A14"/>
<path d="M50.3718 14.5L50.3718 9.47436C50.3718 8.93223 50.2298 8.50977 49.9458 8.20696C49.6617 7.89927 49.277 7.74542 48.7915 7.74542C48.492 7.74542 48.2234 7.81136 47.9859 7.94322C47.7483 8.07021 47.5598 8.26068 47.4204 8.51465C47.2809 8.76374 47.2112 9.06166 47.2112 9.40842L46.3823 8.94689C46.3772 8.39988 46.5063 7.9188 46.7697 7.50366C47.0382 7.08364 47.3997 6.75641 47.8542 6.52198C48.3086 6.28755 48.8148 6.17033 49.3725 6.17033C50.2969 6.17033 51.0045 6.43407 51.4951 6.96154C51.9909 7.48413 52.2388 8.17277 52.2388 9.02747L52.2388 14.5H50.3718ZM40.309 14.5L40.309 6.36813H41.959V8.82234H42.1914L42.1914 14.5H40.309ZM45.352 14.5L45.352 9.49634C45.352 8.94444 45.21 8.51465 44.926 8.20696C44.6419 7.89927 44.2546 7.74542 43.764 7.74542C43.2888 7.74542 42.9067 7.89927 42.6175 8.20696C42.3334 8.51465 42.1914 8.91514 42.1914 9.40842L41.3548 8.88095C41.3548 8.36813 41.4891 7.90659 41.7576 7.49634C42.0262 7.08608 42.3877 6.76374 42.8421 6.5293C43.3018 6.28999 43.8156 6.17033 44.3837 6.17033C45.0086 6.17033 45.5302 6.29731 45.9485 6.55128C46.372 6.80037 46.687 7.14225 46.8936 7.57692C47.1053 8.00672 47.2112 8.49267 47.2112 9.0348L47.2112 14.5H45.352Z" fill="#060A14"/>
<path d="M57.152 14.5C56.3051 14.5 55.5614 14.3266 54.921 13.9799C54.2806 13.6331 53.7797 13.152 53.4182 12.5366C53.0618 11.9212 52.8837 11.2131 52.8837 10.4121C52.8837 9.54762 53.0592 8.79792 53.4104 8.163C53.7616 7.5232 54.2496 7.02747 54.8745 6.67582C55.4994 6.32418 56.2224 6.14835 57.0436 6.14835C57.9112 6.14835 58.6471 6.34127 59.2514 6.72711C59.8608 7.10806 60.3126 7.64774 60.607 8.34615C60.9014 9.04457 61.0124 9.86752 60.9401 10.815H59.0887V10.1703C59.0835 9.31075 58.9234 8.68315 58.6084 8.28755C58.2934 7.89194 57.7976 7.69414 57.121 7.69414C56.3567 7.69414 55.7886 7.9188 55.4168 8.36813C55.045 8.81258 54.859 9.46459 54.859 10.3242C54.859 11.1252 55.045 11.7454 55.4168 12.185C55.7886 12.6245 56.3309 12.8443 57.0436 12.8443C57.5032 12.8443 57.8983 12.7491 58.2288 12.5586C58.5645 12.3632 58.8227 12.0824 59.0035 11.7161L60.8472 12.2436C60.527 12.9567 60.0312 13.511 59.3598 13.9066C58.6936 14.3022 57.9577 14.5 57.152 14.5ZM54.2703 10.815V9.48168H60.026V10.815H54.2703Z" fill="#060A14"/>
<path d="M63.1153 14.5V3.73077H64.9952L70.1416 11.3864V3.73077H72.0215V14.5H70.1416L64.9952 7.0641V14.5H63.1153Z" fill="#060A14"/>
<path d="M77.1875 14.5C76.3452 14.5 75.6056 14.3266 74.9687 13.9799C74.3318 13.6331 73.8336 13.152 73.4741 12.5366C73.1197 11.9212 72.9425 11.2131 72.9425 10.4121C72.9425 9.54762 73.1171 8.79792 73.4664 8.163C73.8156 7.5232 74.301 7.02747 74.9225 6.67582C75.544 6.32418 76.263 6.14835 77.0797 6.14835C77.9426 6.14835 78.6745 6.34127 79.2754 6.72711C79.8815 7.10806 80.3309 7.64774 80.6236 8.34615C80.9164 9.04457 81.0268 9.86752 80.9549 10.815H79.1136V10.1703C79.1085 9.31074 78.9492 8.68315 78.6359 8.28755C78.3226 7.89194 77.8296 7.69414 77.1567 7.69414C76.3966 7.69414 75.8316 7.9188 75.4618 8.36813C75.092 8.81258 74.9071 9.46459 74.9071 10.3242C74.9071 11.1252 75.092 11.7454 75.4618 12.185C75.8316 12.6245 76.3709 12.8443 77.0797 12.8443C77.5368 12.8443 77.9297 12.7491 78.2584 12.5586C78.5923 12.3632 78.8491 12.0824 79.0288 11.7161L80.8625 12.2436C80.544 12.9567 80.0509 13.511 79.3832 13.9066C78.7207 14.3022 77.9888 14.5 77.1875 14.5ZM74.3215 10.815V9.48168H80.0458V10.815H74.3215Z" fill="#060A14"/>
<path d="M85.1162 14.5C84.0889 14.5 83.2543 14.2802 82.6123 13.8407C81.9703 13.4011 81.5799 12.7833 81.4412 11.9872L83.3365 11.7088C83.4341 12.0995 83.6498 12.4072 83.9837 12.6319C84.3175 12.8565 84.7387 12.9689 85.2471 12.9689C85.694 12.9689 86.0381 12.8858 86.2795 12.7198C86.5261 12.5488 86.6493 12.3168 86.6493 12.0238C86.6493 11.8431 86.6031 11.699 86.5106 11.5916C86.4233 11.4792 86.2282 11.3718 85.9251 11.2692C85.6221 11.1667 85.1573 11.0372 84.5307 10.881C83.8321 10.7051 83.2774 10.5171 82.8665 10.3168C82.4556 10.1117 82.1603 9.86996 81.9805 9.59158C81.8008 9.31319 81.7109 8.97619 81.7109 8.58059C81.7109 8.0873 81.847 7.65751 82.1192 7.29121C82.3914 6.92491 82.7715 6.64408 83.2595 6.44872C83.7474 6.24847 84.3226 6.14835 84.9852 6.14835C85.6324 6.14835 86.205 6.24359 86.7033 6.43407C87.2066 6.62454 87.6124 6.8956 87.9205 7.24725C88.2287 7.5989 88.4187 8.0116 88.4906 8.48535L86.5954 8.80769C86.5492 8.4707 86.3874 8.20452 86.11 8.00916C85.8378 7.8138 85.4731 7.70391 85.016 7.67949C84.5795 7.65507 84.2276 7.71856 83.9605 7.86996C83.6935 8.01648 83.5599 8.22405 83.5599 8.49267C83.5599 8.64408 83.6138 8.7735 83.7217 8.88095C83.8296 8.9884 84.0453 9.09585 84.3689 9.2033C84.6976 9.31075 85.1855 9.44261 85.8327 9.5989C86.4952 9.76007 87.0243 9.94567 87.4197 10.1557C87.8204 10.3608 88.108 10.6074 88.2826 10.8956C88.4624 11.1838 88.5523 11.533 88.5523 11.9432C88.5523 12.7393 88.2467 13.3645 87.6355 13.8187C87.0294 14.2729 86.1896 14.5 85.1162 14.5Z" fill="#060A14"/>
<path d="M94.3461 14.3618C93.7965 14.4594 93.2572 14.5009 92.7282 14.4863C92.2043 14.4765 91.7344 14.3862 91.3183 14.2152C90.9023 14.0394 90.5864 13.7635 90.3707 13.3874C90.1807 13.0455 90.0805 12.6963 90.0703 12.3398C90.06 11.9832 90.0548 11.5803 90.0548 11.131V4.25186H91.9039V11.0284C91.9039 11.3459 91.9064 11.6243 91.9116 11.8636C91.9218 12.1029 91.9758 12.2983 92.0734 12.4497C92.2583 12.7427 92.5536 12.9063 92.9594 12.9405C93.3651 12.9747 93.8274 12.9552 94.3461 12.8819V14.3618ZM90.0548 7.83428L87.5886 6.44966H94.3461V7.83428H90.0548Z" fill="#060A14"/>
</g>
</svg>
