<svg width="40" height="40" viewBox="0 0 40 40" fill="none" xmlns="http://www.w3.org/2000/svg">
<g id="Frame 1">
<g clip-path="url(#clip0_892_1199)">
<rect id="Rectangle 60" width="40" height="40" rx="4" fill="#FF8000"/>
<g id="Vector">
<path fill-rule="evenodd" clip-rule="evenodd" d="M18.8239 39.9998C16.4198 32.7471 9.56347 27.5132 1.48064 27.5132C0.98218 27.5132 0.488388 27.5331 1.7454e-05 27.5722V38.6165C1.7454e-05 38.9834 0.146345 39.3352 0.406812 39.5947C0.667279 39.8541 1.02055 39.9998 1.3889 39.9998H18.8239Z" fill="#F6F6F6"/>
<path fill-rule="evenodd" clip-rule="evenodd" d="M1.7454e-05 25.3988C5.84774 22.7143 10.0287 17.04 10.5705 10.3416L0.814251 20.0589C0.555057 20.3152 0.349598 20.6202 0.209815 20.9562C0.070032 21.2922 -0.00128239 21.6526 1.7454e-05 22.0163V25.3988Z" fill="#F6F6F6"/>
<path fill-rule="evenodd" clip-rule="evenodd" d="M10.5145 6.6665C10.8886 7.5136 11.3253 8.32613 11.8186 9.0985C15.1928 14.3816 21.2152 17.786 27.9468 17.5244C28.5762 17.4999 29.1969 17.444 29.8075 17.3582" fill="#F6F6F6"/>
<path fill-rule="evenodd" clip-rule="evenodd" d="M31.2602 18.805C24.1449 21.5142 19.2202 28.5137 19.5335 36.5198C19.5802 37.7146 19.7415 38.878 20.0064 39.9998H31.9444C32.3128 39.9998 32.6661 39.8541 32.9265 39.5947C33.187 39.3352 33.3333 38.9834 33.3333 38.6165V22.0163C33.3346 21.6526 33.2633 21.2922 33.1235 20.9562C32.9837 20.6202 32.7783 20.3152 32.5191 20.0589L31.2602 18.805Z" fill="#F6F6F6"/>
</g>
</g>
</g>
<defs>
<clipPath id="clip0_892_1199">
<rect width="40" height="40" rx="4" fill="white"/>
</clipPath>
</defs>
</svg>
