<svg width="160" height="26" viewBox="0 0 160 26" fill="none" xmlns="http://www.w3.org/2000/svg">
<path fill-rule="evenodd" clip-rule="evenodd" d="M14.1179 25.5C12.3148 20.0604 7.1726 16.1351 1.11048 16.1351C0.736635 16.1351 0.366291 16.15 1.30905e-05 16.1793V24.4625C1.30905e-05 24.7377 0.109759 25.0016 0.305109 25.1961C0.500459 25.3907 0.765411 25.5 1.04168 25.5H14.1179Z" fill="#FF8000"/>
<path fill-rule="evenodd" clip-rule="evenodd" d="M1.30905e-05 14.5492C4.3858 12.5359 7.52152 8.28015 7.92788 3.25631L0.610688 10.5443C0.416293 10.7365 0.262198 10.9652 0.157361 11.2173C0.052524 11.4693 -0.000961791 11.7396 1.30905e-05 12.0124V14.5492Z" fill="#FF8000"/>
<path fill-rule="evenodd" clip-rule="evenodd" d="M7.88589 0.5C8.16642 1.13532 8.49395 1.74472 8.86393 2.324C11.3946 6.28631 15.9114 8.83963 20.9601 8.64342C21.4322 8.62507 21.8977 8.58313 22.3556 8.51875" fill="#FF8000"/>
<path fill-rule="evenodd" clip-rule="evenodd" d="M23.4451 9.60388C18.1087 11.6358 14.4152 16.8854 14.6501 22.89C14.6852 23.786 14.8061 24.6586 15.0048 25.5H23.9583C24.2346 25.5 24.4995 25.3907 24.6949 25.1961C24.8902 25.0016 25 24.7377 25 24.4625V12.0124C25.001 11.7396 24.9475 11.4693 24.8426 11.2173C24.7378 10.9652 24.5837 10.7365 24.3893 10.5443L23.4451 9.60388Z" fill="#FF8000"/>
<path d="M34 25.5V5.5H37.2797V15.5816H46.561V5.5H49.8271L49.8271 25.5H46.561V18.6565H37.2797V25.5H34Z" fill="#060A14"/>
<path d="M58.7731 25.5C57.3033 25.5 56.0195 25.1689 54.9217 24.5068C53.824 23.8447 52.9711 22.9331 52.3633 21.7721C51.7645 20.602 51.4651 19.2596 51.4651 17.7449C51.4651 16.2029 51.7736 14.8515 52.3905 13.6905C53.0074 12.5295 53.8648 11.6224 54.9626 10.9694C56.0604 10.3163 57.3305 9.9898 58.7731 9.9898C60.2519 9.9898 61.5402 10.3209 62.638 10.983C63.7358 11.6451 64.5886 12.5612 65.1965 13.7313C65.8043 14.8923 66.1083 16.2302 66.1083 17.7449C66.1083 19.2687 65.7998 20.6156 65.1829 21.7857C64.575 22.9467 63.7222 23.8583 62.6244 24.5204C61.5266 25.1735 60.2428 25.5 58.7731 25.5ZM58.7731 22.4252C60.0795 22.4252 61.0503 21.9898 61.6854 21.119C62.3204 20.2483 62.638 19.1236 62.638 17.7449C62.638 16.3209 62.3159 15.1871 61.6718 14.3435C61.0276 13.4909 60.0614 13.0646 58.7731 13.0646C57.893 13.0646 57.1672 13.2642 56.5956 13.6633C56.0331 14.0533 55.6158 14.602 55.3436 15.3095C55.0714 16.0079 54.9354 16.8197 54.9354 17.7449C54.9354 19.1689 55.2574 20.3073 55.9016 21.1599C56.5548 22.0034 57.512 22.4252 58.7731 22.4252Z" fill="#060A14"/>
<path d="M85.3965 25.5V16.1667C85.3965 15.1599 85.147 14.3753 84.648 13.8129C84.149 13.2415 83.4731 12.9558 82.6203 12.9558C82.0941 12.9558 81.6223 13.0782 81.205 13.3231C80.7876 13.559 80.4565 13.9127 80.2115 14.3844C79.9666 14.8469 79.8441 15.4002 79.8441 16.0442L78.3879 15.1871C78.3789 14.1712 78.6057 13.2778 79.0684 12.5068C79.5401 11.7268 80.1752 11.119 80.9736 10.6837C81.772 10.2483 82.6611 10.0306 83.641 10.0306C85.265 10.0306 86.5079 10.5204 87.3698 11.5C88.2408 12.4705 88.6763 13.7494 88.6763 15.3367V25.5H85.3965ZM67.7186 25.5L67.7186 10.398H70.6173V14.9558H71.0255L71.0255 25.5H67.7186ZM76.578 25.5L76.5779 16.2075C76.5779 15.1825 76.3285 14.3844 75.8295 13.8129C75.3305 13.2415 74.65 12.9558 73.7881 12.9558C72.9535 12.9558 72.2821 13.2415 71.774 13.8129C71.275 14.3844 71.0255 15.1281 71.0255 16.0442L69.5558 15.0646C69.5558 14.1122 69.7917 13.2551 70.2634 12.4932C70.7352 11.7313 71.3703 11.1327 72.1687 10.6973C72.9761 10.2528 73.8789 10.0306 74.8768 10.0306C75.9746 10.0306 76.891 10.2664 77.6258 10.7381C78.3698 11.2007 78.9232 11.8356 79.2861 12.6429C79.6581 13.441 79.8441 14.3435 79.8441 15.3503L79.8441 25.5H76.578Z" fill="#060A14"/>
<path d="M97.3077 25.5C95.8198 25.5 94.5133 25.178 93.3883 24.534C92.2633 23.89 91.3833 22.9966 90.7482 21.8537C90.1222 20.7109 89.8092 19.3957 89.8092 17.9082C89.8092 16.3027 90.1177 14.9104 90.7346 13.7313C91.3515 12.5431 92.2089 11.6224 93.3067 10.9694C94.4045 10.3163 95.6746 9.9898 97.1172 9.9898C98.6414 9.9898 99.9342 10.3481 100.996 11.0646C102.066 11.7721 102.86 12.7744 103.377 14.0714C103.894 15.3685 104.089 16.8968 103.962 18.6565H100.71V17.4592C100.701 15.8628 100.42 14.6973 99.8662 13.9626C99.3127 13.2279 98.4418 12.8605 97.2533 12.8605C95.9105 12.8605 94.9125 13.2778 94.2593 14.1122C93.6061 14.9376 93.2795 16.1485 93.2795 17.7449C93.2795 19.2324 93.6061 20.3844 94.2593 21.2007C94.9125 22.017 95.8652 22.4252 97.1172 22.4252C97.9246 22.4252 98.6187 22.2483 99.1993 21.8946C99.789 21.5317 100.243 21.0102 100.56 20.3299L103.799 21.3095C103.237 22.6338 102.366 23.6633 101.186 24.398C100.016 25.1327 98.723 25.5 97.3077 25.5ZM92.2452 18.6565V16.1803H102.357V18.6565H92.2452Z" fill="#060A14"/>
<path d="M107 25.5V5.5H110.19L118.924 19.7177V5.5H122.114V25.5H118.924L110.19 11.6905V25.5H107Z" fill="#060A14"/>
<path d="M130.881 25.5C129.452 25.5 128.197 25.178 127.116 24.534C126.035 23.89 125.189 22.9966 124.579 21.8537C123.978 20.7109 123.677 19.3957 123.677 17.9082C123.677 16.3027 123.973 14.9104 124.566 13.7313C125.159 12.5431 125.983 11.6224 127.037 10.9694C128.092 10.3163 129.312 9.9898 130.698 9.9898C132.162 9.9898 133.404 10.3481 134.424 11.0646C135.453 11.7721 136.215 12.7744 136.712 14.0714C137.209 15.3685 137.397 16.8968 137.275 18.6565H134.15V17.4592C134.141 15.8628 133.871 14.6973 133.339 13.9626C132.807 13.2279 131.971 12.8605 130.829 12.8605C129.539 12.8605 128.58 13.2778 127.952 14.1122C127.325 14.9376 127.011 16.1485 127.011 17.7449C127.011 19.2324 127.325 20.3844 127.952 21.2007C128.58 22.017 129.495 22.4252 130.698 22.4252C131.474 22.4252 132.141 22.2483 132.698 21.8946C133.265 21.5317 133.701 21.0102 134.006 20.3299L137.118 21.3095C136.577 22.6338 135.74 23.6633 134.607 24.398C133.483 25.1327 132.241 25.5 130.881 25.5ZM126.017 18.6565V16.1803H135.732V18.6565H126.017Z" fill="#060A14"/>
<path d="M144.336 25.5C142.593 25.5 141.177 25.0918 140.087 24.2755C138.998 23.4592 138.335 22.3118 138.1 20.8333L141.316 20.3163C141.482 21.042 141.848 21.6134 142.414 22.0306C142.981 22.4478 143.696 22.6565 144.559 22.6565C145.317 22.6565 145.901 22.5023 146.311 22.1939C146.729 21.8764 146.938 21.4456 146.938 20.9014C146.938 20.5658 146.86 20.2982 146.703 20.0986C146.555 19.89 146.223 19.6905 145.709 19.5C145.195 19.3095 144.406 19.0692 143.343 18.7789C142.157 18.4524 141.216 18.1032 140.519 17.7313C139.821 17.3503 139.32 16.9014 139.015 16.3844C138.71 15.8673 138.557 15.2415 138.557 14.5068C138.557 13.5907 138.788 12.7925 139.25 12.1122C139.712 11.432 140.357 10.9104 141.185 10.5476C142.013 10.1757 142.99 9.9898 144.114 9.9898C145.212 9.9898 146.184 10.1667 147.03 10.5204C147.884 10.8741 148.573 11.3776 149.095 12.0306C149.618 12.6837 149.941 13.4501 150.063 14.3299L146.847 14.9286C146.768 14.3027 146.494 13.8084 146.023 13.4456C145.561 13.0828 144.942 12.8787 144.166 12.8333C143.426 12.788 142.828 12.9059 142.375 13.1871C141.922 13.4592 141.695 13.8447 141.695 14.3435C141.695 14.6247 141.787 14.8651 141.97 15.0646C142.153 15.2642 142.519 15.4637 143.068 15.6633C143.626 15.8628 144.454 16.1077 145.552 16.398C146.677 16.6973 147.574 17.042 148.246 17.432C148.926 17.8129 149.414 18.271 149.71 18.8061C150.015 19.3413 150.168 19.9898 150.168 20.7517C150.168 22.2302 149.649 23.3912 148.612 24.2347C147.583 25.0782 146.158 25.5 144.336 25.5Z" fill="#060A14"/>
<path d="M160 25.2433C159.067 25.4247 158.152 25.5018 157.254 25.4745C156.365 25.4564 155.568 25.2886 154.862 24.9711C154.156 24.6446 153.62 24.1321 153.254 23.4337C152.931 22.7988 152.761 22.1503 152.744 21.4881C152.726 20.826 152.718 20.0777 152.718 19.2433V6.46774H155.855V19.0528C155.855 19.6423 155.86 20.1594 155.868 20.6038C155.886 21.0482 155.977 21.4111 156.143 21.6922C156.457 22.2365 156.958 22.5403 157.647 22.6038C158.335 22.6673 159.12 22.631 160 22.495V25.2433ZM152.718 13.1208L148.532 10.5494H160V13.1208H152.718Z" fill="#060A14"/>
</svg>
