<svg width="24" height="24" viewBox="0 0 24 24" fill="none" xmlns="http://www.w3.org/2000/svg">
<g id="Frame 42">
<path id="Vector" d="M3.7334 10.9664C3.18111 10.9664 2.7334 11.4141 2.7334 11.9664C2.7334 12.5187 3.18111 12.9664 3.7334 12.9664L3.7334 10.9664ZM19.2002 12.9664C19.7525 12.9664 20.2002 12.5187 20.2002 11.9664C20.2002 11.4141 19.7525 10.9664 19.2002 10.9664L19.2002 12.9664ZM16.0374 6.4228C15.6452 6.03403 15.012 6.03685 14.6232 6.42911C14.2345 6.82138 14.2373 7.45453 14.6296 7.84331L16.0374 6.4228ZM17.0377 8.82214L17.7417 8.11188L17.7417 8.11188L17.0377 8.82214ZM17.0377 15.1107L17.7417 15.821L17.7417 15.821L17.0377 15.1107ZM14.6295 16.0896C14.2373 16.4783 14.2345 17.1115 14.6232 17.5037C15.012 17.896 15.6452 17.8988 16.0374 17.5101L14.6295 16.0896ZM19.181 11.6635L20.1729 11.5371L20.1729 11.5371L19.181 11.6635ZM19.181 12.2693L20.1729 12.3958L20.1729 12.3958L19.181 12.2693ZM3.7334 12.9664L19.2002 12.9664L19.2002 10.9664L3.7334 10.9664L3.7334 12.9664ZM14.6296 7.84331L16.3338 9.53239L17.7417 8.11188L16.0374 6.4228L14.6296 7.84331ZM16.3338 14.4005L14.6295 16.0896L16.0374 17.5101L17.7417 15.821L16.3338 14.4005ZM16.3338 9.53239C17.03 10.2224 17.4911 10.6816 17.8001 11.0663C18.0964 11.4352 18.1696 11.6376 18.189 11.79L20.1729 11.5371C20.0877 10.8686 19.7689 10.3238 19.3595 9.81397C18.9627 9.31996 18.4045 8.76883 17.7417 8.11188L16.3338 9.53239ZM17.7417 15.821C18.4045 15.164 18.9627 14.6129 19.3595 14.1189C19.7689 13.6091 20.0877 13.0642 20.1729 12.3958L18.189 12.1429C18.1696 12.2953 18.0964 12.4976 17.8001 12.8666C17.4911 13.2513 17.03 13.7104 16.3338 14.4005L17.7417 15.821ZM18.189 11.79C18.2039 11.9072 18.2039 12.0257 18.189 12.1429L20.1729 12.3958C20.2093 12.1107 20.2093 11.8222 20.1729 11.5371L18.189 11.79Z" fill="black"/>
</g>
</svg>
