<svg width="34" height="34" viewBox="0 0 34 34" fill="none" xmlns="http://www.w3.org/2000/svg">
<path id="Vector" fill-rule="evenodd" clip-rule="evenodd" d="M34 17C34 26.3888 26.3888 34 17 34C7.61116 34 0 26.3888 0 17C0 7.61116 7.61116 0 17 0C26.3888 0 34 7.61116 34 17ZM23.8634 17L26.6562 12.125C26.7224 12.0105 26.757 11.8805 26.7567 11.7483C26.7564 11.6161 26.7212 11.4863 26.6546 11.3721C26.5879 11.2579 26.4923 11.1633 26.3773 11.0979C26.2624 11.0326 26.1322 10.9988 26 11H20.4359L17.6562 6.125C17.5907 6.01002 17.4959 5.91444 17.3815 5.84795C17.267 5.78146 17.137 5.74644 17.0047 5.74644C16.8723 5.74644 16.7423 5.78146 16.6279 5.84795C16.5135 5.91444 16.4187 6.01002 16.3531 6.125L13.5622 11H7.99999C7.86816 10.9996 7.73857 11.034 7.62427 11.0997C7.50997 11.1654 7.415 11.26 7.34893 11.3741C7.28286 11.4882 7.24803 11.6177 7.24794 11.7495C7.24785 11.8813 7.28251 12.0108 7.34842 12.125L10.1347 17L7.34842 21.875C7.2823 21.9895 7.24763 22.1195 7.24793 22.2517C7.24822 22.3839 7.28346 22.5137 7.35009 22.6279C7.41672 22.7421 7.51235 22.8367 7.62731 22.9021C7.74226 22.9674 7.87245 23.0012 8.00467 23H13.5622L16.3484 27.875C16.414 27.99 16.5088 28.0856 16.6232 28.1521C16.7376 28.2185 16.8676 28.2536 17 28.2536C17.1323 28.2536 17.2623 28.2185 17.3768 28.1521C17.4912 28.0856 17.586 27.99 17.6515 27.875L20.4359 23H26C26.1322 23.0012 26.2624 22.9674 26.3773 22.9021C26.4923 22.8367 26.5879 22.7421 26.6546 22.6279C26.7212 22.5137 26.7564 22.3839 26.7567 22.2517C26.757 22.1195 26.7224 21.9895 26.6562 21.875L23.8634 17ZM19.5659 21.5L22.1365 17L19.5659 12.5H14.4331L11.8625 17L14.4331 21.5H19.5659ZM17 32C25.2843 32 32 25.2843 32 17C32 8.71573 25.2843 2 17 2C8.71573 2 2 8.71573 2 17C2 25.2843 8.71573 32 17 32ZM30 17C30 24.1797 24.1797 30 17 30C9.8203 30 4 24.1797 4 17C4 9.8203 9.8203 4 17 4C24.1797 4 30 9.8203 30 17Z" fill="url(#paint0_radial_70_204)"/>
<defs>
<radialGradient id="paint0_radial_70_204" cx="0" cy="0" r="1" gradientUnits="userSpaceOnUse" gradientTransform="translate(17 17) rotate(-90) scale(17)">
<stop stop-color="#285AD4"/>
<stop offset="1" stop-color="#193780"/>
</radialGradient>
</defs>
</svg>
