<svg width="51" height="51" viewBox="0 0 51 51" fill="none" xmlns="http://www.w3.org/2000/svg">
<path d="M30.8125 4.25H12.75C11.6228 4.25 10.5418 4.69777 9.7448 5.4948C8.94777 6.29183 8.5 7.37283 8.5 8.5V42.5C8.5 43.6272 8.94777 44.7082 9.7448 45.5052C10.5418 46.3022 11.6228 46.75 12.75 46.75H38.25C39.3772 46.75 40.4582 46.3022 41.2552 45.5052C42.0522 44.7082 42.5 43.6272 42.5 42.5V15.9375L30.8125 4.25Z" stroke="black" stroke-width="4.25" stroke-linecap="round" stroke-linejoin="round"/>
<path d="M29.75 4.25V17H42.5" stroke="black" stroke-width="4.25" stroke-linecap="round" stroke-linejoin="round"/>
<path d="M21.25 31.875C23.5972 31.875 25.5 29.9722 25.5 27.625C25.5 25.2778 23.5972 23.375 21.25 23.375C18.9028 23.375 17 25.2778 17 27.625C17 29.9722 18.9028 31.875 21.25 31.875Z" stroke="black" stroke-width="4.25" stroke-linecap="round" stroke-linejoin="round"/>
<path d="M42.5 36.1251L40.1837 33.8088C39.3875 33.0172 38.3103 32.5729 37.1875 32.5729C36.0647 32.5729 34.9875 33.0172 34.1913 33.8088L21.25 46.7501" stroke="black" stroke-width="4.25" stroke-linecap="round" stroke-linejoin="round"/>
</svg>
