<svg xmlns="http://www.w3.org/2000/svg" width="24" height="24" viewBox="0 0 24 24" fill="none">
  <path d="M3.73316 12.6376C3.39948 12.6376 3.12898 12.3671 3.12898 12.0334C3.12898 11.6997 3.39948 11.4292 3.73316 11.4292V12.6376ZM19.2 11.4292C19.5336 11.4292 19.8041 11.6997 19.8041 12.0334C19.8041 12.3671 19.5336 12.6376 19.2 12.6376V11.4292ZM15.7586 17.2959C15.5216 17.5308 15.139 17.5291 14.9041 17.2921C14.6692 17.0551 14.671 16.6725 14.9079 16.4376L15.7586 17.2959ZM17.0375 15.1777L16.6122 14.7486L17.0375 15.1777ZM17.0375 8.88909L17.4628 8.45998L17.0375 8.88909ZM14.9079 7.62913C14.671 7.39424 14.6692 7.0117 14.9041 6.77471C15.139 6.53771 15.5216 6.53601 15.7586 6.7709L14.9079 7.62913ZM19.1807 12.3363L19.78 12.4127L19.78 12.4127L19.1807 12.3363ZM19.1807 11.7305L19.78 11.6541L19.78 11.6541L19.1807 11.7305ZM3.73316 12.0334V11.4292H19.2V12.0334V12.6376H3.73316V12.0334ZM15.3333 16.8668L14.9079 16.4376L16.6122 14.7486L17.0375 15.1777L17.4628 15.6068L15.7586 17.2959L15.3333 16.8668ZM17.0375 8.88909L16.6122 9.31821L14.9079 7.62913L15.3333 7.20001L15.7586 6.7709L17.4628 8.45998L17.0375 8.88909ZM17.0375 15.1777L16.6122 14.7486C17.3018 14.0651 17.7821 13.5877 18.1084 13.1814C18.4271 12.7846 18.549 12.5144 18.5814 12.2599L19.1807 12.3363L19.78 12.4127C19.7079 12.979 19.4376 13.4561 19.0506 13.938C18.6712 14.4104 18.1322 14.9433 17.4628 15.6068L17.0375 15.1777ZM17.0375 8.88909L17.4628 8.45998C18.1322 9.12348 18.6712 9.6564 19.0506 10.1288C19.4376 10.6107 19.7079 11.0878 19.78 11.6541L19.1807 11.7305L18.5814 11.8069C18.549 11.5523 18.4271 11.2822 18.1084 10.8854C17.7821 10.479 17.3018 10.0017 16.6122 9.31821L17.0375 8.88909ZM19.1807 12.3363L18.5814 12.2599C18.6006 12.1095 18.6006 11.9573 18.5814 11.8069L19.1807 11.7305L19.78 11.6541C19.8121 11.906 19.8121 12.1608 19.78 12.4127L19.1807 12.3363Z" fill="#F5F5F5"/>
</svg>