<svg xmlns="http://www.w3.org/2000/svg" width="24" height="24" viewBox="0 0 24 24" fill="none">
  <path d="M20.2668 12.6376C20.6005 12.6376 20.871 12.3671 20.871 12.0334C20.871 11.6997 20.6005 11.4292 20.2668 11.4292V12.6376ZM4.79999 11.4292C4.46631 11.4292 4.19582 11.6997 4.19582 12.0334C4.19582 12.3671 4.46631 12.6376 4.79999 12.6376V11.4292ZM8.24138 17.2959C8.47838 17.5308 8.86091 17.5291 9.0958 17.2921C9.33069 17.0551 9.32898 16.6725 9.09199 16.4376L8.24138 17.2959ZM6.96247 15.1777L7.38777 14.7486L6.96247 15.1777ZM6.96247 8.88909L6.53717 8.45998L6.96247 8.88909ZM9.09199 7.62913C9.32899 7.39424 9.33069 7.0117 9.0958 6.77471C8.86091 6.53771 8.47838 6.53601 8.24138 6.7709L9.09199 7.62913ZM4.81921 12.3363L4.21989 12.4127L4.21989 12.4127L4.81921 12.3363ZM4.81921 11.7305L4.21989 11.6541L4.21989 11.6541L4.81921 11.7305ZM20.2668 12.0334V11.4292H4.79999V12.0334V12.6376H20.2668V12.0334ZM8.66669 16.8668L9.09199 16.4376L7.38777 14.7486L6.96247 15.1777L6.53717 15.6068L8.24138 17.2959L8.66669 16.8668ZM6.96247 8.88909L7.38777 9.31821L9.09199 7.62913L8.66669 7.20001L8.24138 6.7709L6.53717 8.45998L6.96247 8.88909ZM6.96247 15.1777L7.38777 14.7486C6.69814 14.0651 6.21783 13.5877 5.89149 13.1814C5.57281 12.7846 5.45098 12.5144 5.41854 12.2599L4.81921 12.3363L4.21989 12.4127C4.29208 12.979 4.56234 13.4561 4.94936 13.938C5.32872 14.4104 5.86772 14.9433 6.53717 15.6068L6.96247 15.1777ZM6.96247 8.88909L6.53717 8.45998C5.86772 9.12348 5.32872 9.6564 4.94936 10.1288C4.56234 10.6107 4.29208 11.0878 4.21989 11.6541L4.81921 11.7305L5.41854 11.8069C5.45098 11.5523 5.57281 11.2822 5.89149 10.8854C6.21783 10.479 6.69814 10.0017 7.38777 9.31821L6.96247 8.88909ZM4.81921 12.3363L5.41854 12.2599C5.39937 12.1095 5.39937 11.9573 5.41854 11.8069L4.81921 11.7305L4.21989 11.6541C4.18779 11.906 4.18779 12.1608 4.21989 12.4127L4.81921 12.3363Z" fill="#F5F5F5"/>
</svg>