<svg xmlns="http://www.w3.org/2000/svg" width="18" height="18" viewBox="0 0 18 18" fill="none">
  <path d="M16.148 15.352L12.6275 11.8322C13.6479 10.6071 14.1567 9.03583 14.0481 7.44518C13.9395 5.85453 13.2218 4.36699 12.0444 3.29199C10.867 2.21699 9.32041 1.63731 7.72647 1.67354C6.13253 1.70976 4.61392 2.3591 3.48654 3.48648C2.35916 4.61386 1.70982 6.13247 1.6736 7.72641C1.63737 9.32035 2.21705 10.8669 3.29205 12.0443C4.36705 13.2218 5.85459 13.9394 7.44524 14.048C9.03589 14.1566 10.6072 13.6478 11.8322 12.6274L15.3521 16.1479C15.4043 16.2002 15.4664 16.2417 15.5347 16.2699C15.6029 16.2982 15.6761 16.3128 15.75 16.3128C15.8239 16.3128 15.8971 16.2982 15.9654 16.2699C16.0337 16.2417 16.0957 16.2002 16.148 16.1479C16.2003 16.0957 16.2417 16.0336 16.27 15.9654C16.2983 15.8971 16.3129 15.8239 16.3129 15.75C16.3129 15.6761 16.2983 15.6029 16.27 15.5346C16.2417 15.4663 16.2003 15.4043 16.148 15.352ZM2.81254 7.87498C2.81254 6.87371 3.10945 5.89493 3.66572 5.0624C4.222 4.22988 5.01265 3.58101 5.9377 3.19784C6.86275 2.81467 7.88065 2.71441 8.86268 2.90975C9.84471 3.10509 10.7468 3.58725 11.4548 4.29525C12.1628 5.00325 12.6449 5.9053 12.8403 6.88733C13.0356 7.86936 12.9353 8.88726 12.5522 9.81231C12.169 10.7374 11.5201 11.528 10.6876 12.0843C9.85509 12.6406 8.87631 12.9375 7.87504 12.9375C6.53284 12.936 5.24603 12.4021 4.29695 11.4531C3.34787 10.504 2.81403 9.21718 2.81254 7.87498Z" fill="white" />
</svg>