<svg xmlns="http://www.w3.org/2000/svg" width="32" height="33" viewBox="0 0 32 33" fill="none">
  <path d="M16 3.5C13.4288 3.5 10.9154 4.26244 8.77759 5.6909C6.63975 7.11935 4.97351 9.14968 3.98957 11.5251C3.00563 13.9006 2.74819 16.5144 3.2498 19.0362C3.75141 21.5579 4.98953 23.8743 6.80762 25.6924C8.6257 27.5105 10.9421 28.7486 13.4638 29.2502C15.9856 29.7518 18.5995 29.4944 20.9749 28.5104C23.3503 27.5265 25.3807 25.8603 26.8091 23.7224C28.2376 21.5846 29 19.0712 29 16.5C28.9964 13.0533 27.6256 9.74882 25.1884 7.31163C22.7512 4.87445 19.4467 3.50364 16 3.5ZM11.5 12.5C11.7967 12.5 12.0867 12.588 12.3334 12.7528C12.58 12.9176 12.7723 13.1519 12.8858 13.426C12.9994 13.7001 13.0291 14.0017 12.9712 14.2926C12.9133 14.5836 12.7704 14.8509 12.5607 15.0607C12.3509 15.2704 12.0836 15.4133 11.7926 15.4712C11.5017 15.5291 11.2001 15.4994 10.926 15.3858C10.6519 15.2723 10.4176 15.08 10.2528 14.8334C10.088 14.5867 10 14.2967 10 14C10 13.6022 10.158 13.2206 10.4393 12.9393C10.7206 12.658 11.1022 12.5 11.5 12.5ZM21.5 23.365C21.2705 23.4974 20.9979 23.5333 20.742 23.4648C20.4861 23.3964 20.2678 23.2292 20.135 23C19.2013 21.3862 17.7338 20.5 16 20.5C14.2663 20.5 12.7988 21.3875 11.865 23C11.8025 23.1195 11.7164 23.2251 11.6121 23.3105C11.5077 23.3959 11.3871 23.4593 11.2575 23.4969C11.128 23.5345 10.9922 23.5454 10.8583 23.5292C10.7245 23.5129 10.5952 23.4697 10.4785 23.4022C10.3617 23.3348 10.2598 23.2443 10.1789 23.1364C10.098 23.0285 10.0397 22.9054 10.0076 22.7744C9.97555 22.6434 9.97029 22.5073 9.99218 22.3742C10.0141 22.2411 10.0627 22.1138 10.135 22C11.4213 19.7762 13.5588 18.5 16 18.5C18.4413 18.5 20.5788 19.775 21.865 22C21.9974 22.2295 22.0333 22.5021 21.9649 22.758C21.8964 23.0139 21.7292 23.2322 21.5 23.365ZM20.5 15.5C20.2033 15.5 19.9133 15.412 19.6667 15.2472C19.42 15.0824 19.2277 14.8481 19.1142 14.574C19.0007 14.2999 18.971 13.9983 19.0288 13.7074C19.0867 13.4164 19.2296 13.1491 19.4393 12.9393C19.6491 12.7296 19.9164 12.5867 20.2074 12.5288C20.4983 12.4709 20.7999 12.5006 21.074 12.6142C21.3481 12.7277 21.5824 12.92 21.7472 13.1666C21.912 13.4133 22 13.7033 22 14C22 14.3978 21.842 14.7794 21.5607 15.0607C21.2794 15.342 20.8978 15.5 20.5 15.5Z" fill="#2757CB"/>
</svg>