<svg width="24" height="24" viewBox="0 0 24 24" fill="none" xmlns="http://www.w3.org/2000/svg">
<g id="Frame 1717" clip-path="url(#clip0_7320_1502)">
<path id="Vector" d="M21.4474 21.4468V24.5106H19.4049V21.4468C19.4049 20.1917 18.6604 19.0969 17.5431 18.6261L12.2559 23.9122L6.96879 18.6261C5.8505 19.0969 5.10701 20.1917 5.10701 21.4468V24.5106H3.06445V21.4468C3.06445 19.0509 4.69339 17.0043 7.02496 16.4702L7.57543 16.3436L12.2559 21.024L16.9365 16.3436L17.4869 16.4702C19.8185 17.0043 21.4474 19.0509 21.4474 21.4468ZM6.12828 6.12785L4.08573 5.10658V2.04279L10.5218 0.2137C11.6605 -0.0712333 12.8513 -0.0712333 13.9901 0.2137L20.4262 2.04279V5.10658L18.3836 6.12785V9.19165C18.3836 12.571 15.6353 15.3192 12.2559 15.3192C8.87654 15.3192 6.12828 12.571 6.12828 9.19165V6.12785ZM16.341 7.77719C15.3443 7.98758 13.9829 8.17038 12.2559 8.17038C10.529 8.17038 9.1676 7.98758 8.17084 7.77719V9.19165C8.17084 11.4446 10.003 13.2767 12.2559 13.2767C14.5089 13.2767 16.341 11.4446 16.341 9.19165V7.77719ZM10.2134 4.1517C10.2134 5.51101 11.7984 6.40972 12.257 6.63848C12.7135 6.45466 14.2985 5.69688 14.2985 4.1517V2.67087C14.2985 2.4758 14.1739 2.30321 13.988 2.24091L12.2559 1.66696L10.5239 2.24091C10.338 2.30219 10.2134 2.47478 10.2134 2.67087V4.1517Z" fill="#2B7EE0"/>
</g>
<defs>
<clipPath id="clip0_7320_1502">
<rect width="24" height="24" fill="white"/>
</clipPath>
</defs>
</svg>
