<svg width="65" height="65" viewBox="0 0 65 65" fill="none" xmlns="http://www.w3.org/2000/svg">
<g id="shield (1) 1" clip-path="url(#clip0_8813_1885)">
<g id="Vector">
<path d="M50.0494 6.20731L33.3427 0.636642C32.7957 0.454453 32.2044 0.454453 31.6574 0.636642L14.948 6.20731C12.2923 7.09012 9.98223 8.78731 8.34602 11.0578C6.7098 13.3283 5.83062 16.0567 5.83338 18.8553V32.5006C5.83338 52.6686 30.3667 63.8073 31.4174 64.2713C31.7582 64.4227 32.1271 64.501 32.5 64.501C32.873 64.501 33.2419 64.4227 33.5827 64.2713C34.6334 63.8073 59.1667 52.6686 59.1667 32.5006V18.8553C59.1693 16.0563 58.2897 13.3277 56.653 11.0572C55.0163 8.78666 52.7056 7.08966 50.0494 6.20731Z" fill="url(#paint0_linear_8813_1885)"/>
<path d="M49.8912 6.68164L49.8918 6.68182C52.4483 7.53103 54.6721 9.16431 56.2474 11.3496C57.8227 13.5349 58.6692 16.161 58.6667 18.8548V18.8553V32.5006C58.6667 42.3699 52.663 50.0702 46.4435 55.3952C40.2317 60.7136 33.8855 63.591 33.3807 63.8139L33.3797 63.8144C33.1028 63.9374 32.8031 64.001 32.5 64.001C32.197 64.001 31.8973 63.9374 31.6204 63.8144L31.6194 63.8139C31.1146 63.591 24.7684 60.7136 18.5566 55.3952C12.3371 50.0702 6.33338 42.3699 6.33338 32.5006L6.33338 18.8553L6.33338 18.8548C6.33073 16.1613 7.17689 13.5354 8.75166 11.3501C10.3264 9.1649 12.5497 7.53144 15.1058 6.68178L15.1062 6.68164L31.8154 1.11102C31.8154 1.11101 31.8155 1.11099 31.8155 1.11098C32.2599 0.963011 32.7402 0.963008 33.1846 1.11097C33.1846 1.11099 33.1847 1.111 33.1847 1.11102L49.8912 6.68164Z" stroke="white" stroke-opacity="0.2"/>
</g>
<path id="Vector_2" d="M33.4078 17.86C29.6757 17.6378 26.123 18.7944 23.3981 21.131C20.7084 23.4377 19.1666 26.6899 19.1666 30.0554V34.4998C19.1666 37.1898 21.2624 39.4386 24.0369 39.9475C24.2854 42.4953 26.626 44.4997 29.4697 44.4997H35.5303C38.3739 44.4997 40.7145 42.4953 40.963 39.9475C43.7375 39.4386 45.8333 37.1898 45.8333 34.4998V30.4476C45.8333 23.8155 40.3751 18.2866 33.4078 17.86ZM27.6515 32.2776C26.3121 32.2776 25.2272 31.2832 25.2272 30.0554C25.2272 28.8276 26.3121 27.8332 27.6515 27.8332C28.9909 27.8332 30.0757 28.8276 30.0757 30.0554C30.0757 31.2832 28.9909 32.2776 27.6515 32.2776ZM32.5 37.8297C31.1606 37.8297 30.0757 37.9464 30.0757 36.7187C30.0757 35.4909 31.1606 33.3854 32.5 33.3854C33.8394 33.3854 34.9242 35.4909 34.9242 36.7187C34.9242 37.9464 33.8394 37.8297 32.5 37.8297ZM37.3484 32.2776C36.009 32.2776 34.9242 31.2832 34.9242 30.0554C34.9242 28.8276 36.009 27.8332 37.3484 27.8332C38.6878 27.8332 39.7727 28.8276 39.7727 30.0554C39.7727 31.2832 38.6878 32.2776 37.3484 32.2776Z" fill="white"/>
</g>
<defs>
<linearGradient id="paint0_linear_8813_1885" x1="32.5" y1="64.501" x2="32.5" y2="0.5" gradientUnits="userSpaceOnUse">
<stop/>
<stop offset="1" stop-color="#0A0A0A" stop-opacity="0"/>
</linearGradient>
<clipPath id="clip0_8813_1885">
<rect width="64" height="64" fill="white" transform="translate(0.5 0.5)"/>
</clipPath>
</defs>
</svg>
