<svg width="64" height="64" viewBox="0 0 64 64" fill="none" xmlns="http://www.w3.org/2000/svg">
<path id="Vector" d="M40.0314 30.6642C40.6181 47.2814 65.0972 46.0627 63.8811 29.5762L57.1446 5.7371C55.9446 1.73148 51.9496 -0.671366 47.7733 0.166028L35.8204 2.78222C34.5403 -1.48476 27.9772 -0.511355 28.0279 3.99564V4.48901L15.955 7.13187C11.5947 8.00393 8.09042 11.1908 6.81299 15.4498L0.196511 37.5154C-0.859565 44.4466 5.1302 50.7244 12.0267 50.6657C18.9312 50.7297 24.969 44.3986 23.8409 37.4594L16.8137 15.1965C17.0617 15.0951 17.3231 15.0151 17.5978 14.9618L28.0305 12.6736V55.9994H14.6962C9.43718 56.0874 9.43985 63.912 14.6962 64H49.3654C54.6245 63.912 54.6218 56.0874 49.3654 55.9994H36.0311V10.9215L46.4905 8.62798L40.2021 29.5122C40.0901 29.8855 40.0341 30.2749 40.0341 30.6669L40.0314 30.6642ZM11.92 26.2746L15.4136 37.3314H8.60512L11.92 26.2746ZM52.163 17.53L55.4965 29.3308H48.608L52.163 17.53Z" fill="url(#paint0_linear_9072_712)"/>
<defs>
<linearGradient id="paint0_linear_9072_712" x1="32" y1="0" x2="32" y2="64" gradientUnits="userSpaceOnUse">
<stop stop-color="#FFC403"/>
<stop offset="1" stop-color="#A37D02"/>
</linearGradient>
</defs>
</svg>
