<svg width="64" height="64" viewBox="0 0 64 64" fill="none" xmlns="http://www.w3.org/2000/svg">
<path id="Vector" d="M63.9987 49.7686V50.6646C63.9987 53.9018 61.1135 56.467 57.7723 55.9257C55.1484 55.499 53.3325 53.0378 53.3325 50.3819V49.7686L55.6097 43.3155L50.6659 42.3876V58.6669H55.999C57.471 58.6669 58.6656 59.8588 58.6656 61.3334C58.6656 62.808 57.471 64 55.999 64H39.9997C38.5277 64 37.3331 62.808 37.3331 61.3334C37.3331 59.8588 38.5277 58.6669 39.9997 58.6669H45.3328V41.3876L40.661 40.513L42.9569 46.9287V48.462H42.9222C42.5782 51.5605 39.653 53.8804 36.3465 53.2165C33.7599 52.6991 32 50.2512 32 47.614V46.9634L34.8266 37.9531C35.4959 35.8172 37.6558 34.5186 39.8557 34.9265L45.3328 35.9425V34.6626C45.3328 33.188 46.5274 31.996 47.9994 31.996C49.4713 31.996 50.6659 33.188 50.6659 34.6626V36.9318L57.0923 38.1237C58.8922 38.4571 60.3802 39.721 60.9988 41.4436L63.996 49.7659L63.9987 49.7686ZM24.0004 31.9987C32.824 31.9987 39.9997 24.823 39.9997 15.9993C39.9997 7.1757 32.824 0 24.0004 0C15.1767 0 8.00101 7.1757 8.00101 15.9993C8.00101 24.823 15.1767 31.9987 24.0004 31.9987ZM26.6669 47.6114V46.1447L29.2375 37.9504C27.5469 37.5691 25.8029 37.3318 24.0004 37.3318C10.7822 37.3318 0.0253463 48.0727 0.00134727 61.2854C-0.00131929 62.7707 1.18263 63.9973 2.6679 63.9973H32.4907C32.192 63.16 32 62.2694 32 61.3308C32 59.9895 32.3627 58.7442 32.9493 57.6323C29.2108 55.8777 26.6669 52.0112 26.6669 47.6114Z" fill="url(#paint0_linear_9072_748)"/>
<defs>
<linearGradient id="paint0_linear_9072_748" x1="32" y1="0" x2="32" y2="64" gradientUnits="userSpaceOnUse">
<stop stop-color="#FFC403"/>
<stop offset="1" stop-color="#A37D02"/>
</linearGradient>
</defs>
</svg>
