<svg width="55" height="65" viewBox="0 0 55 65" fill="none" xmlns="http://www.w3.org/2000/svg">
<path d="M48.6839 7.54477L27.4999 0.523438L6.31592 7.54477C4.71985 8.07388 3.33107 9.09245 2.34686 10.4558C1.36264 11.8191 0.833032 13.458 0.833252 15.1394V32.4994C0.833252 52.5634 25.3666 63.6434 26.4172 64.1048L27.3612 64.5234L28.3426 64.1981C29.3986 63.8461 54.1666 55.3714 54.1666 32.4994V15.1394C54.1668 13.458 53.6372 11.8191 52.653 10.4558C51.6688 9.09245 50.28 8.07388 48.6839 7.54477ZM28.6839 37.8034C28.2177 38.2727 27.663 38.6448 27.0519 38.8979C26.4407 39.1511 25.7854 39.2803 25.1239 39.2781H25.0359C24.361 39.2678 23.6951 39.1206 23.0786 38.8456C22.4622 38.5706 21.9079 38.1734 21.4493 37.6781L15.2999 31.2781L19.1479 27.5928L25.1319 33.8328L38.9479 20.0168L42.7186 23.7874L28.6839 37.8034Z" fill="url(#paint0_linear_8811_1072)"/>
<defs>
<linearGradient id="paint0_linear_8811_1072" x1="27.4999" y1="0.523438" x2="27.4999" y2="64.5234" gradientUnits="userSpaceOnUse">
<stop stop-color="#03FF03"/>
<stop offset="1" stop-color="#078601"/>
</linearGradient>
</defs>
</svg>
