<svg width="55" height="65" viewBox="0 0 55 65" fill="none" xmlns="http://www.w3.org/2000/svg">
<path d="M45.0493 6.20633L28.3426 0.635666C27.7956 0.453476 27.2043 0.453476 26.6573 0.635666L9.94793 6.20633C7.29217 7.08914 4.98211 8.78634 3.34589 11.0568C1.70968 13.3273 0.830502 16.0557 0.833258 18.8543V32.4997C0.833258 52.6677 25.3666 63.8063 26.4173 64.2703C26.7581 64.4218 27.1269 64.5 27.4999 64.5C27.8729 64.5 28.2417 64.4218 28.5826 64.2703C29.6333 63.8063 54.1666 52.6677 54.1666 32.4997V18.8543C54.1692 16.0554 53.2896 13.3268 51.6529 11.0562C50.0162 8.78568 47.7055 7.08868 45.0493 6.20633ZM27.4999 51.1663C26.9725 51.1663 26.4569 51.0099 26.0184 50.7169C25.5799 50.4239 25.2381 50.0074 25.0362 49.5202C24.8344 49.0329 24.7816 48.4967 24.8845 47.9794C24.9874 47.4621 25.2414 46.987 25.6143 46.614C25.9872 46.2411 26.4624 45.9871 26.9797 45.8842C27.497 45.7813 28.0331 45.8342 28.5204 46.036C29.0077 46.2378 29.4242 46.5796 29.7172 47.0181C30.0102 47.4567 30.1666 47.9722 30.1666 48.4997C30.1666 49.2069 29.8856 49.8852 29.3855 50.3853C28.8854 50.8854 28.2072 51.1663 27.4999 51.1663ZM30.1666 37.833C30.1666 38.5402 29.8856 39.2185 29.3855 39.7186C28.8854 40.2187 28.2072 40.4997 27.4999 40.4997C26.7927 40.4997 26.1144 40.2187 25.6143 39.7186C25.1142 39.2185 24.8333 38.5402 24.8333 37.833V16.4997C24.8333 15.7924 25.1142 15.1141 25.6143 14.614C26.1144 14.114 26.7927 13.833 27.4999 13.833C28.2072 13.833 28.8854 14.114 29.3855 14.614C29.8856 15.1141 30.1666 15.7924 30.1666 16.4997V37.833Z" fill="url(#paint0_linear_8811_1078)"/>
<defs>
<linearGradient id="paint0_linear_8811_1078" x1="27.4999" y1="0.499023" x2="27.4999" y2="64.5" gradientUnits="userSpaceOnUse">
<stop stop-color="#FFAF03"/>
<stop offset="1" stop-color="#855B02"/>
</linearGradient>
</defs>
</svg>
