<svg width="55" height="65" viewBox="0 0 55 65" fill="none" xmlns="http://www.w3.org/2000/svg">
<path d="M45.028 6.16933L28.34 0.636C27.7934 0.454667 27.2067 0.454667 26.66 0.636L9.96937 6.16933C4.50537 7.98267 0.833374 13.068 0.833374 18.8253V32.6147C0.833374 50.1133 19.5134 60.8173 25.2414 63.6813C25.2414 63.6813 26.18 64.5 27.508 64.5C28.836 64.5 29.6174 63.86 29.6174 63.86C35.3774 61.5427 54.1694 52.444 54.1694 32.6147V18.8253C54.1694 13.068 50.4947 7.98267 45.028 6.16933ZM37.3854 37.2627C38.428 38.3053 38.428 39.9907 37.3854 41.0333C36.8654 41.5533 36.1827 41.8147 35.5 41.8147C34.8174 41.8147 34.1347 41.5533 33.6147 41.0333L27.5 34.9187L21.3854 41.0333C20.8654 41.5533 20.1827 41.8147 19.5 41.8147C18.8174 41.8147 18.1347 41.5533 17.6147 41.0333C16.572 39.9907 16.572 38.3053 17.6147 37.2627L23.7294 31.148L17.6147 25.0333C16.572 23.9907 16.572 22.3053 17.6147 21.2627C18.6574 20.22 20.3427 20.22 21.3854 21.2627L27.5 27.3773L33.6147 21.2627C34.6574 20.22 36.3427 20.22 37.3854 21.2627C38.428 22.3053 38.428 23.9907 37.3854 25.0333L31.2707 31.148L37.3854 37.2627Z" fill="url(#paint0_linear_8811_1084)"/>
<defs>
<linearGradient id="paint0_linear_8811_1084" x1="27.5014" y1="0.5" x2="27.5014" y2="64.5" gradientUnits="userSpaceOnUse">
<stop stop-color="#FF0000"/>
<stop offset="1" stop-color="#850000"/>
</linearGradient>
</defs>
</svg>
