<svg width="16" height="16" viewBox="0 0 16 16" fill="none" xmlns="http://www.w3.org/2000/svg">
<g id="bank-note-01">
<path id="Icon" d="M3.99992 7.33334V10M11.9999 6V8.66667M11.3333 2.66667C12.9657 2.66667 13.8487 2.91651 14.288 3.1103C14.3465 3.13611 14.3758 3.14901 14.4602 3.22959C14.5108 3.27788 14.6032 3.4196 14.6269 3.4854C14.6666 3.59516 14.6666 3.65516 14.6666 3.77517V10.9408C14.6666 11.5466 14.6666 11.8495 14.5757 12.0052C14.4833 12.1636 14.3942 12.2373 14.2212 12.2981C14.0512 12.358 13.7079 12.292 13.0214 12.1601C12.5408 12.0678 11.9709 12 11.3333 12C9.33325 12 7.33325 13.3333 4.66659 13.3333C3.03411 13.3333 2.15116 13.0835 1.71184 12.8897C1.65333 12.8639 1.62408 12.851 1.53965 12.7704C1.48904 12.7221 1.39666 12.5804 1.3729 12.5146C1.33325 12.4048 1.33325 12.3448 1.33325 12.2248L1.33325 5.05924C1.33325 4.4534 1.33325 4.15047 1.4241 3.99477C1.51652 3.83638 1.60565 3.76275 1.77862 3.70188C1.94868 3.64204 2.29194 3.70799 2.97847 3.8399C3.459 3.93223 4.02891 4 4.66659 4C6.66659 4 8.66659 2.66667 11.3333 2.66667ZM9.66659 8C9.66659 8.92048 8.92039 9.66667 7.99992 9.66667C7.07944 9.66667 6.33325 8.92048 6.33325 8C6.33325 7.07953 7.07944 6.33334 7.99992 6.33334C8.92039 6.33334 9.66659 7.07953 9.66659 8Z" stroke="#131313" stroke-width="1.5" stroke-linecap="round" stroke-linejoin="round"/>
</g>
</svg>
