<svg width="16" height="16" viewBox="0 0 16 16" fill="none" xmlns="http://www.w3.org/2000/svg">
<g id="bank-note-01">
<path id="Icon" d="M3.99992 7.33335V10M11.9999 6.00002V8.66669M11.3333 2.66669C12.9657 2.66669 13.8487 2.91653 14.288 3.11032C14.3465 3.13612 14.3758 3.14903 14.4602 3.2296C14.5108 3.2779 14.6032 3.41962 14.6269 3.48541C14.6666 3.59518 14.6666 3.65518 14.6666 3.77518V10.9408C14.6666 11.5466 14.6666 11.8496 14.5757 12.0053C14.4833 12.1636 14.3942 12.2373 14.2212 12.2981C14.0512 12.358 13.7079 12.292 13.0214 12.1601C12.5408 12.0678 11.9709 12 11.3333 12C9.33325 12 7.33325 13.3334 4.66659 13.3334C3.03411 13.3334 2.15116 13.0835 1.71184 12.8897C1.65333 12.8639 1.62408 12.851 1.53965 12.7704C1.48904 12.7221 1.39666 12.5804 1.3729 12.5146C1.33325 12.4049 1.33325 12.3449 1.33325 12.2249L1.33325 5.05926C1.33325 4.45341 1.33325 4.15049 1.4241 3.99478C1.51652 3.8364 1.60565 3.76276 1.77862 3.70189C1.94868 3.64205 2.29194 3.70801 2.97847 3.83992C3.459 3.93225 4.02891 4.00002 4.66659 4.00002C6.66659 4.00002 8.66659 2.66669 11.3333 2.66669ZM9.66659 8.00002C9.66659 8.92049 8.92039 9.66669 7.99992 9.66669C7.07944 9.66669 6.33325 8.92049 6.33325 8.00002C6.33325 7.07954 7.07944 6.33335 7.99992 6.33335C8.92039 6.33335 9.66659 7.07954 9.66659 8.00002Z" stroke="#131313" stroke-width="1.5" stroke-linecap="round" stroke-linejoin="round"/>
</g>
</svg>
