<svg width="16" height="16" viewBox="0 0 16 16" fill="none" xmlns="http://www.w3.org/2000/svg">
<g id="coins-stacked-02">
<path id="Icon" d="M8.66659 3.33333C8.66659 4.06971 7.02496 4.66667 4.99992 4.66667C2.97487 4.66667 1.33325 4.06971 1.33325 3.33333M8.66659 3.33333C8.66659 2.59695 7.02496 2 4.99992 2C2.97487 2 1.33325 2.59695 1.33325 3.33333M8.66659 3.33333V6.30477C7.85225 6.54932 7.33325 6.91929 7.33325 7.33333M1.33325 3.33333V11.3333C1.33325 12.0697 2.97487 12.6667 4.99992 12.6667C5.88634 12.6667 6.69929 12.5523 7.33325 12.3619V7.33333M1.33325 6C1.33325 6.73638 2.97487 7.33333 4.99992 7.33333C5.88634 7.33333 6.69929 7.21895 7.33325 7.02857M1.33325 8.66667C1.33325 9.40305 2.97487 10 4.99992 10C5.88634 10 6.69929 9.88562 7.33325 9.69523M14.6666 7.33333C14.6666 8.06971 13.025 8.66667 10.9999 8.66667C8.97487 8.66667 7.33325 8.06971 7.33325 7.33333M14.6666 7.33333C14.6666 6.59695 13.025 6 10.9999 6C8.97487 6 7.33325 6.59695 7.33325 7.33333M14.6666 7.33333V12.6667C14.6666 13.403 13.025 14 10.9999 14C8.97487 14 7.33325 13.403 7.33325 12.6667V7.33333M14.6666 10C14.6666 10.7364 13.025 11.3333 10.9999 11.3333C8.97487 11.3333 7.33325 10.7364 7.33325 10" stroke="#FFC327" stroke-linecap="round" stroke-linejoin="round"/>
</g>
</svg>
