<svg width="16" height="16" viewBox="0 0 16 16" fill="none" xmlns="http://www.w3.org/2000/svg">
<g id="marker-pin-04" clip-path="url(#clip0_1232_1317)">
<path id="Icon" d="M3.33325 9.52423C2.09901 10.0687 1.33325 10.8274 1.33325 11.6667C1.33325 13.3235 4.31802 14.6667 7.99992 14.6667C11.6818 14.6667 14.6666 13.3235 14.6666 11.6667C14.6666 10.8274 13.9008 10.0687 12.6666 9.52423M11.9999 5.33333C11.9999 8.04247 8.99992 9.33333 7.99992 11.3333C6.99992 9.33333 3.99992 8.04247 3.99992 5.33333C3.99992 3.12419 5.79078 1.33333 7.99992 1.33333C10.2091 1.33333 11.9999 3.12419 11.9999 5.33333ZM8.66659 5.33333C8.66659 5.70152 8.36811 6 7.99992 6C7.63173 6 7.33325 5.70152 7.33325 5.33333C7.33325 4.96514 7.63173 4.66666 7.99992 4.66666C8.36811 4.66666 8.66659 4.96514 8.66659 5.33333Z" stroke="#FFC327" stroke-width="1.5" stroke-linecap="round" stroke-linejoin="round"/>
</g>
<defs>
<clipPath id="clip0_1232_1317">
<rect width="16" height="16" fill="white"/>
</clipPath>
</defs>
</svg>
