<svg width="28" height="28" viewBox="0 0 28 28" fill="none" xmlns="http://www.w3.org/2000/svg">
<path d="M17.2491 10.2419L18.353 11.3455C18.6028 11.5938 18.6036 11.9982 18.3553 12.2481L17.9347 12.6684L18.4208 14.1142L21.196 16.8894C21.3173 17.0107 21.3796 17.1691 21.383 17.3282L21.4617 18.45L22.6122 18.5305C22.9353 18.5517 23.1867 18.8109 23.2075 19.1258L23.288 20.2764L24.4382 20.3565C24.7613 20.3776 25.0126 20.6369 25.0335 20.9518L25.1136 22.1023L26.2641 22.1824C26.5763 22.2028 26.8212 22.4451 26.8564 22.7452L27.322 26.6124C27.3632 26.9628 27.1122 27.281 26.7619 27.3222C26.7071 27.3286 26.6531 27.3278 26.6009 27.3206L22.7449 26.8569C22.5963 26.8395 22.4659 26.7722 22.3677 26.674L14.1138 18.4206L12.6685 17.935L12.2479 18.3553C11.9984 18.6032 11.5948 18.6029 11.3464 18.3542L10.2397 17.2498C9.01214 17.432 7.75057 17.3394 6.55494 16.9727C5.2967 16.5865 4.1115 15.8955 3.11681 14.9011C1.48702 13.2736 0.67337 11.1406 0.67337 9.00806C0.67337 6.87566 1.48713 4.74246 3.11462 3.11499C4.74212 1.48752 6.87516 0.673737 9.00769 0.673737C11.1401 0.673737 13.2733 1.4875 14.9008 3.11499C15.8948 4.10904 16.5853 5.29467 16.9723 6.55552C17.3397 7.75176 17.4315 9.01416 17.249 10.2422L17.2491 10.2419ZM12.0109 16.7872L12.0442 16.7513L16.7514 12.0441L16.785 12.0127L17.0004 11.7976L16.1319 10.9295C15.9747 10.7844 15.8938 10.5639 15.9369 10.339C16.1527 9.20861 16.0919 8.03466 15.7524 6.92997C15.4263 5.86717 14.8407 4.86402 13.9961 4.0193C12.6192 2.64242 10.8131 1.95378 9.00781 1.95378C7.20229 1.95378 5.39634 2.64242 4.01954 4.0193C2.64266 5.39618 1.95402 7.20224 1.95402 9.00757C1.95402 10.8131 2.64266 12.619 4.01954 13.9958C4.86162 14.8395 5.86589 15.4253 6.93021 15.7522C8.02437 16.0878 9.18583 16.1514 10.3062 15.943C10.5163 15.8912 10.7477 15.9472 10.912 16.1116L11.7991 16.9987L12.0112 16.787L12.0109 16.7872ZM16.9275 13.6776L13.6779 16.9272L14.6216 17.2443C14.7293 17.2719 14.831 17.3274 14.9153 17.4117L23.1166 25.6133L25.955 25.9545L25.65 23.42L24.4727 23.338C24.1579 23.3171 23.8986 23.0659 23.8774 22.7427L23.7973 21.5921L22.6472 21.512C22.3324 21.4912 22.0731 21.2399 22.0519 20.9167L21.9714 19.7662L20.8209 19.6857C20.5061 19.6648 20.2467 19.4136 20.2255 19.0904L20.1232 17.6253L17.4125 14.9147C17.3459 14.8459 17.2923 14.762 17.2598 14.6649L16.9276 13.6773L16.9275 13.6776ZM8.84348 5.13413C9.3567 5.64621 9.6138 6.31829 9.6138 6.98911C9.6138 7.65994 9.35682 8.33202 8.84462 8.8441C8.33254 9.35618 7.66046 9.61327 6.98964 9.61327C6.31996 9.61327 5.64974 9.3563 5.13724 8.84453L5.0987 8.80525C4.61078 8.29766 4.36589 7.64307 4.36589 6.9892C4.36589 6.31982 4.62287 5.64899 5.13464 5.13648L5.17391 5.09794C5.68151 4.61002 6.33653 4.36514 6.98965 4.36514C7.65933 4.36514 8.32954 4.62212 8.84351 5.13431L8.84348 5.13413ZM8.33326 6.98911C8.33326 6.64557 8.2017 6.30087 7.93982 6.0389C7.67868 5.77661 7.3343 5.64546 6.98961 5.64546C6.65628 5.64546 6.32294 5.76827 6.0647 6.01213L6.03981 6.03859C5.77752 6.29973 5.64637 6.64411 5.64637 6.98912C5.64637 7.32245 5.76918 7.65621 6.01303 7.91432L6.03949 7.93922C6.30064 8.20151 6.64501 8.33266 6.98971 8.33266C7.33325 8.33266 7.67795 8.20109 7.93949 7.93954C8.20178 7.67725 8.33336 7.33255 8.33336 6.989L8.33326 6.98911Z" fill="#CFFE5C"/>
</svg>
