<svg width="16" height="16" viewBox="0 0 16 16" fill="none" xmlns="http://www.w3.org/2000/svg">
<g id="settings-02">
<g id="Icon">
<path d="M6.26344 12.9141L6.65307 13.7904C6.7689 14.0512 6.95792 14.2728 7.19722 14.4284C7.43652 14.5839 7.71581 14.6667 8.00122 14.6666C8.28663 14.6667 8.56592 14.5839 8.80522 14.4284C9.04452 14.2728 9.23354 14.0512 9.34937 13.7904L9.739 12.9141C9.8777 12.6031 10.111 12.3439 10.4057 12.1733C10.7022 12.0023 11.0452 11.9294 11.3857 11.9652L12.339 12.0666C12.6228 12.0967 12.9092 12.0437 13.1635 11.9142C13.4177 11.7847 13.629 11.5842 13.7716 11.337C13.9144 11.09 13.9824 10.8068 13.9674 10.5219C13.9524 10.237 13.8551 9.96251 13.6871 9.73183L13.1227 8.95628C12.9217 8.67807 12.8143 8.34319 12.816 7.99998C12.816 7.65771 12.9244 7.32421 13.1257 7.04739L13.6901 6.27183C13.858 6.04115 13.9554 5.76669 13.9704 5.48176C13.9854 5.19683 13.9173 4.91367 13.7746 4.66665C13.632 4.41947 13.4207 4.21897 13.1664 4.08946C12.9121 3.95996 12.6257 3.907 12.342 3.93702L11.3886 4.0385C11.0482 4.07425 10.7052 4.00139 10.4086 3.83035C10.1134 3.65881 9.88001 3.39822 9.74196 3.08591L9.34937 2.20961C9.23354 1.94876 9.04452 1.72712 8.80522 1.57158C8.56592 1.41603 8.28663 1.33327 8.00122 1.33331C7.71581 1.33327 7.43652 1.41603 7.19722 1.57158C6.95792 1.72712 6.7689 1.94876 6.65307 2.20961L6.26344 3.08591C6.1254 3.39822 5.89202 3.65881 5.59678 3.83035C5.30025 4.00139 4.95722 4.07425 4.61678 4.0385L3.66048 3.93702C3.3767 3.907 3.09031 3.95996 2.83602 4.08946C2.58174 4.21897 2.37049 4.41947 2.22789 4.66665C2.0851 4.91367 2.01708 5.19683 2.03207 5.48176C2.04705 5.76669 2.14441 6.04115 2.31233 6.27183L2.87678 7.04739C3.07807 7.32421 3.18647 7.65771 3.18641 7.99998C3.18647 8.34225 3.07807 8.67575 2.87678 8.95257L2.31233 9.72813C2.14441 9.95881 2.04705 10.2333 2.03207 10.5182C2.01708 10.8031 2.0851 11.0863 2.22789 11.3333C2.37063 11.5804 2.58191 11.7808 2.83615 11.9102C3.0904 12.0397 3.37672 12.0928 3.66048 12.0629L4.61381 11.9615C4.95426 11.9257 5.29729 11.9986 5.59381 12.1696C5.89017 12.3407 6.12462 12.6013 6.26344 12.9141Z" stroke="#FFC327" stroke-width="1.5" stroke-linecap="round" stroke-linejoin="round"/>
<path d="M8.00003 9.99998C9.1046 9.99998 10 9.10455 10 7.99998C10 6.89541 9.1046 5.99998 8.00003 5.99998C6.89546 5.99998 6.00003 6.89541 6.00003 7.99998C6.00003 9.10455 6.89546 9.99998 8.00003 9.99998Z" stroke="#FFC327" stroke-width="1.5" stroke-linecap="round" stroke-linejoin="round"/>
</g>
</g>
</svg>
