<svg width="24" height="24" viewBox="0 0 24 24" fill="none" xmlns="http://www.w3.org/2000/svg">
<g id="route (1) 1" clip-path="url(#clip0_6008_226)">
<path id="Vector" d="M8.53503 14.464C7.59103 13.52 6.33503 13 5.00003 13C3.66503 13 2.40903 13.52 1.46403 14.464C-0.485973 16.413 -0.485973 19.586 1.49003 21.56L3.48003 23.409C3.90803 23.807 4.45603 24.005 5.00403 24.005C5.55203 24.005 6.10403 23.805 6.53203 23.405L8.53303 21.534C9.47803 20.59 9.99803 19.334 9.99803 17.999C9.99803 16.664 9.47803 15.408 8.53303 14.463L8.53503 14.464ZM17.48 10.409C17.908 10.806 18.456 11.005 19.004 11.005C19.552 11.005 20.105 10.805 20.533 10.405L22.534 8.53403C24.484 6.58503 24.484 3.41202 22.534 1.46302C21.589 0.519024 20.334 -0.000976562 18.999 -0.000976562C17.664 -0.000976562 16.408 0.519024 15.463 1.46302C13.513 3.41202 13.513 6.58502 15.489 8.55902L17.479 10.408L17.48 10.409ZM24 19.999C24 22.205 22.206 23.999 20 23.999H11C10.448 23.999 10 23.551 10 22.999C10 22.447 10.448 21.999 11 21.999H20C21.103 21.999 22 21.102 22 19.999C22 18.896 21.103 17.999 20 17.999H15C12.794 17.999 11 16.205 11 13.999C11 12.307 12.072 10.791 13.667 10.227C14.189 10.042 14.759 10.316 14.943 10.837C15.127 11.358 14.854 11.929 14.333 12.113C13.536 12.395 13 13.153 13 13.999C13 15.102 13.897 15.999 15 15.999H20C22.206 15.999 24 17.793 24 19.999Z" fill="black"/>
</g>
<defs>
<clipPath id="clip0_6008_226">
<rect width="24" height="24" fill="white"/>
</clipPath>
</defs>
</svg>
