<svg width="154" height="24" viewBox="0 0 154 24" fill="none" xmlns="http://www.w3.org/2000/svg">
<g id="Group 8">
<g id="EMPLOY">
<path d="M12.3827 20.0001H0.199951V4.00013H12.3827V7.20013H4.2142V16.8001H12.3827V20.0001ZM11.9393 13.5554H3.98081V10.3554H11.9393V13.5554Z" fill="white"/>
<path d="M25.7536 18.0309H22.8129L16.4181 5.27566L18.7286 5.20852V20.0001H14.8544V4.00013H19.3354L25.0067 15.3903H23.6064L29.2777 4.00013H33.6654V20.0001H29.7445V5.20852L32.1483 5.27566L25.7536 18.0309Z" fill="white"/>
<path d="M40.5441 20.0001H36.5298V4.00013H43.5081C44.7528 4.00013 45.8497 4.21645 46.7988 4.64908C47.7479 5.08172 48.487 5.68591 49.016 6.46167C49.545 7.22251 49.8095 8.11761 49.8095 9.14698C49.8095 10.1614 49.545 11.0565 49.016 11.8323C48.487 12.6081 47.7479 13.2123 46.7988 13.6449C45.8497 14.0775 44.7528 14.2938 43.5081 14.2938H40.3107V11.0938H43.5081C44.1927 11.0938 44.7372 10.9223 45.1418 10.5792C45.5463 10.2211 45.7486 9.74372 45.7486 9.14698C45.7486 8.55025 45.5463 8.08032 45.1418 7.73719C44.7372 7.37915 44.1927 7.20013 43.5081 7.20013H40.5441V20.0001Z" fill="white"/>
<path d="M63.5563 20.0001H52.0737V4.00013H56.0879V16.7106H63.5563V20.0001Z" fill="white"/>
<path d="M73.4973 20.3582C72.1748 20.3582 70.9612 20.1493 69.8565 19.7316C68.7518 19.3139 67.7871 18.7321 66.9625 17.9861C66.1534 17.2402 65.5233 16.36 65.072 15.3456C64.6364 14.3162 64.4186 13.1973 64.4186 11.9889C64.4186 10.7806 64.6364 9.66913 65.072 8.65468C65.5233 7.64022 66.1534 6.76004 66.9625 6.01412C67.7871 5.2682 68.7518 4.68638 69.8565 4.26866C70.9612 3.85095 72.1748 3.64209 73.4973 3.64209C74.8198 3.64209 76.0334 3.85095 77.1381 4.26866C78.2428 4.68638 79.1997 5.2682 80.0088 6.01412C80.8334 6.76004 81.4635 7.64022 81.8992 8.65468C82.3504 9.66913 82.576 10.7806 82.576 11.9889C82.576 13.1973 82.3504 14.3162 81.8992 15.3456C81.4635 16.36 80.8334 17.2402 80.0088 17.9861C79.1997 18.7321 78.2428 19.3139 77.1381 19.7316C76.0334 20.1493 74.8198 20.3582 73.4973 20.3582ZM73.4973 16.9792C74.462 16.9792 75.3021 16.7703 76.0179 16.3526C76.7491 15.9199 77.317 15.3307 77.7216 14.5847C78.1417 13.8239 78.3517 12.9586 78.3517 11.9889C78.3517 11.0192 78.1417 10.1614 77.7216 9.41552C77.317 8.66959 76.7491 8.08778 76.0179 7.67006C75.3021 7.23743 74.462 7.02111 73.4973 7.02111C72.5482 7.02111 71.708 7.23743 70.9767 7.67006C70.2454 8.08778 69.6698 8.66959 69.2497 9.41552C68.8451 10.1614 68.6429 11.0192 68.6429 11.9889C68.6429 12.9586 68.8451 13.8239 69.2497 14.5847C69.6698 15.3307 70.2454 15.9199 70.9767 16.3526C71.708 16.7703 72.5482 16.9792 73.4973 16.9792Z" fill="white"/>
<path d="M92.5648 20.0001H88.5505V13.891L82.039 4.00013H86.8001L90.8844 10.7806H90.2776L94.3852 4.00013H99.1229L92.5648 13.9134V20.0001Z" fill="white"/>
</g>
<g id="ME">
<path d="M119.361 21.0462H114.95L105.358 1.91329L108.824 1.81259V24H103.013V0H109.734L118.241 17.0853H116.141L124.648 0H131.229V24H125.348V1.81259L128.954 1.91329L119.361 21.0462Z" fill="#00B3FF"/>
<path d="M153.8 24H135.526V0H153.8V4.8H141.547V19.2H153.8V24ZM153.135 14.3329H141.197V9.53287H153.135V14.3329Z" fill="#00B3FF"/>
</g>
</g>
</svg>
