<svg width="20" height="20" viewBox="0 0 20 20" fill="none" xmlns="http://www.w3.org/2000/svg">
<g id="wifi-off">
<path id="Icon" d="M12.7599 8.33335C13.9001 8.68861 14.9686 9.26592 15.8999 10.0417M18.8165 7.08331C16.3812 4.93662 13.2463 3.75219 9.99985 3.75219C9.49568 3.75219 8.99419 3.78075 8.4976 3.83706M7.10807 13.0084C7.95407 12.4073 8.96613 12.0844 10.0039 12.0844C11.0417 12.0844 12.0537 12.4073 12.8997 13.0084M9.99992 16.25H10.0083M0.994385 7.25063C2.10572 6.23224 3.39024 5.39979 4.79867 4.80255M3.9432 10.2025C5.1077 9.17665 6.53469 8.4418 8.11046 8.11161M13.0819 13.1459C12.2326 12.4802 11.1626 12.0833 9.99982 12.0833C8.81949 12.0833 7.73469 12.4923 6.87939 13.1763M2.49992 2.5L17.4999 17.5" stroke="#343434" stroke-width="2" stroke-linecap="round" stroke-linejoin="round"/>
</g>
</svg>
