<svg width="15" height="15" viewBox="0 0 15 15" fill="none" xmlns="http://www.w3.org/2000/svg">
<path id="Icon" d="M10.3333 5V3.13333C10.3333 2.3866 10.3333 2.01323 10.188 1.72801C10.0602 1.47713 9.8562 1.27316 9.60532 1.14532C9.32011 1 8.94674 1 8.2 1H3.13333C2.3866 1 2.01323 1 1.72801 1.14532C1.47713 1.27316 1.27316 1.47713 1.14532 1.72801C1 2.01323 1 2.3866 1 3.13333V8.2C1 8.94674 1 9.32011 1.14532 9.60532C1.27316 9.8562 1.47713 10.0602 1.72801 10.188C2.01323 10.3333 2.3866 10.3333 3.13333 10.3333H5M7.13333 14.3333H12.2C12.9467 14.3333 13.3201 14.3333 13.6053 14.188C13.8562 14.0602 14.0602 13.8562 14.188 13.6053C14.3333 13.3201 14.3333 12.9467 14.3333 12.2V7.13333C14.3333 6.3866 14.3333 6.01323 14.188 5.72801C14.0602 5.47713 13.8562 5.27316 13.6053 5.14532C13.3201 5 12.9467 5 12.2 5H7.13333C6.3866 5 6.01323 5 5.72801 5.14532C5.47713 5.27316 5.27316 5.47713 5.14532 5.72801C5 6.01323 5 6.3866 5 7.13333V12.2C5 12.9467 5 13.3201 5.14532 13.6053C5.27316 13.8562 5.47713 14.0602 5.72801 14.188C6.01323 14.3333 6.3866 14.3333 7.13333 14.3333Z" stroke="black" stroke-width="1.33333" stroke-linecap="round" stroke-linejoin="round"/>
</svg>
