<svg width="36" height="36" viewBox="0 0 36 36" fill="none" xmlns="http://www.w3.org/2000/svg">
<rect width="36" height="36" rx="18" fill="#34C759"/>
<path d="M14.5215 21.7671C16.9204 24.166 19.834 26.0171 22.2163 26.0171C23.2871 26.0171 24.2251 25.6436 24.9805 24.8135C25.4204 24.3237 25.6943 23.751 25.6943 23.1865C25.6943 22.7715 25.5366 22.373 25.1465 22.0908L22.5981 20.2812C22.208 20.0156 21.8843 19.8828 21.5854 19.8828C21.2119 19.8828 20.8716 20.0986 20.4897 20.4722L19.9004 21.0532C19.8091 21.1445 19.6929 21.186 19.585 21.186C19.4604 21.186 19.3359 21.1362 19.2529 21.0947C18.7383 20.8208 17.8584 20.0654 17.0366 19.252C16.2231 18.4385 15.4678 17.5586 15.2021 17.0439C15.1606 16.9526 15.1108 16.8364 15.1108 16.7119C15.1108 16.604 15.144 16.4961 15.2354 16.4048L15.8247 15.7988C16.1899 15.417 16.4141 15.085 16.4141 14.7031C16.4141 14.4043 16.2729 14.0806 15.999 13.6904L14.2144 11.1753C13.9238 10.7769 13.5171 10.6025 13.0688 10.6025C12.521 10.6025 11.9565 10.8516 11.4668 11.3247C10.6616 12.0967 10.3047 13.0513 10.3047 14.1055C10.3047 16.4878 12.1226 19.3765 14.5215 21.7671Z" fill="white"/>
</svg>
