<svg width="36" height="36" viewBox="0 0 36 36" fill="none" xmlns="http://www.w3.org/2000/svg">
<rect width="36" height="36" rx="18" fill="#FF3B30"/>
<path d="M18.4999 14.4707C14.9057 14.4707 11.5273 15.2261 9.84221 16.9111C9.07854 17.6748 8.6967 18.5962 8.74651 19.7085C8.77971 20.3809 8.98723 20.9785 9.37737 21.3687C9.66789 21.6675 10.0746 21.8335 10.5478 21.7588L13.6274 21.2358C14.0922 21.1611 14.4159 21.02 14.6235 20.8042C14.8974 20.5386 14.9804 20.1401 14.9804 19.6172V18.7788C14.9804 18.646 15.0385 18.5464 15.1215 18.4634C15.2045 18.3638 15.329 18.3223 15.4203 18.2974C15.9848 18.1646 17.1303 18.04 18.4999 18.04C19.8696 18.04 21.0068 18.1396 21.5795 18.3057C21.6625 18.3306 21.7787 18.3804 21.87 18.4634C21.9447 18.5464 21.9946 18.6377 22.0029 18.7705L22.0112 19.6172C22.0195 20.1401 22.1025 20.5386 22.3681 20.8042C22.5839 21.02 22.9076 21.1611 23.3725 21.2358L26.4106 21.7505C26.9003 21.8335 27.3154 21.6592 27.6391 21.3438C28.0292 20.9619 28.245 20.3726 28.2616 19.7002C28.2865 18.5796 27.8549 17.6582 27.1078 16.9111C25.4228 15.2261 22.0942 14.4707 18.4999 14.4707Z" fill="white"/>
</svg>
