<svg width="18" height="29" viewBox="0 0 18 29" fill="none" xmlns="http://www.w3.org/2000/svg">
<path d="M17.9824 21.6986C18.0458 21.2233 17.9386 20.8249 17.6437 20.4412C17.3463 20.065 16.9637 19.8471 16.4714 19.7779C15.9839 19.711 15.5988 19.8149 15.2625 20.0922C13.8342 21.1491 12.2182 21.6764 10.4317 21.6764C8.61097 21.6764 6.97558 20.9709 5.57662 19.5822C4.17019 18.1837 3.45854 16.5067 3.45854 14.5957C3.45854 12.6837 4.17754 10.9992 5.59853 9.58953C7.01938 8.18247 8.65247 7.46955 10.4536 7.46955C12.2207 7.46955 13.8293 7.99553 15.2357 9.03383C15.6354 9.36556 16.0204 9.47195 16.4933 9.41503C16.9685 9.34705 17.3463 9.12792 17.6461 8.74673C17.9362 8.37175 18.0458 7.94483 17.98 7.44233C17.9118 6.9361 17.6997 6.54868 17.3317 6.26158C15.9824 5.21678 14.5187 4.54862 12.9756 4.20128V1.13184C12.9756 0.506232 12.4771 0 11.8611 0C11.2451 0 10.7466 0.506232 10.7466 1.13184V3.9215C10.715 3.92122 10.6851 3.91376 10.6534 3.91376C9.77742 3.92233 8.9466 4.058 8.1389 4.25572V1.13184C8.1389 0.506232 7.64043 0 7.02442 0C6.4084 0 5.90993 0.506232 5.90993 1.13184V5.10114C4.92415 5.6064 3.98694 6.2334 3.13924 7.06984C1.0285 9.16012 0 11.607 0 14.55C0 17.4548 1.05775 19.9808 3.14169 22.0551C3.98789 22.8974 4.92429 23.5258 5.90993 24.0298V27.8682C5.90993 28.4938 6.4084 29 7.02442 29C7.64043 29 8.1389 28.4938 8.1389 27.8682V24.867C8.94605 25.0594 9.77674 25.1888 10.6534 25.1888C10.6848 25.1888 10.7152 25.1814 10.7466 25.1812V27.8682C10.7466 28.4938 11.2451 29 11.8611 29C12.4771 29 12.9756 28.4938 12.9756 27.8682V24.9032C14.4985 24.5651 15.966 23.9222 17.3487 22.9189C17.6875 22.6095 17.9118 22.1961 17.9824 21.6986Z" fill="black"/>
</svg>
