<svg width="38" height="37" viewBox="0 0 38 37" fill="none" xmlns="http://www.w3.org/2000/svg">
<path d="M29.8183 11.9772C29.2267 10.6159 28.3804 9.39309 27.3023 8.3435C26.2242 7.29384 24.9685 6.46942 23.5704 5.89369C22.1225 5.29725 20.5848 4.99496 18.9999 4.99496C17.415 4.99496 15.8774 5.29728 14.4295 5.89348C13.0312 6.46945 11.7756 7.29374 10.6972 8.34353C9.61919 9.39319 8.77249 10.6159 8.18121 11.9772C7.56878 13.3872 7.25841 14.8844 7.25841 16.4274C7.25841 17.7196 7.47822 18.9878 7.91204 20.1971C8.30949 21.3054 8.87861 22.3435 9.6046 23.2847V27.8496C9.6046 28.9343 9.94663 29.9594 10.568 30.7364C10.8809 31.1277 11.2483 31.4366 11.6605 31.6548C12.0997 31.8871 12.5683 32.005 13.0529 32.005L24.9466 32.0049C25.4313 32.0049 25.8998 31.8871 26.3391 31.6546C26.7513 31.4365 27.1189 31.1276 27.4316 30.7363C28.0527 29.9593 28.395 28.934 28.395 27.8495V23.2846C29.121 22.3431 29.69 21.3053 30.0875 20.197C30.5211 18.9878 30.7411 17.7195 30.7411 16.4273C30.741 14.8843 30.4304 13.387 29.818 11.9774L29.8183 11.9772ZM27.3751 22.7562L27.2553 22.9064V27.8493C27.2553 28.6881 26.9986 29.4712 26.5325 30.0544C26.2371 30.424 25.881 30.6802 25.4978 30.8061V28.7306C25.4978 28.4241 25.2426 28.1756 24.9278 28.1756C24.613 28.1756 24.3578 28.4241 24.3578 28.7306V30.8948H21.5935V28.7305C21.5935 28.424 21.3383 28.1755 21.0235 28.1755C20.7087 28.1755 20.4535 28.424 20.4535 28.7305L20.4534 30.8948H17.689V28.7305C17.689 28.424 17.4338 28.1755 17.119 28.1755C16.8042 28.1755 16.549 28.424 16.549 28.7305V30.8948H13.7848V28.7305C13.7848 28.424 13.5296 28.1755 13.2148 28.1755C12.9 28.1755 12.6448 28.424 12.6448 28.7305V30.8463C12.2073 30.7417 11.7993 30.4694 11.4676 30.0545C11.0015 29.4715 10.7448 28.6883 10.7448 27.8494V22.9065L10.6249 22.7564C9.16866 20.9321 8.39875 18.7437 8.39875 16.4272C8.3985 10.7351 13.1541 6.1045 18.9998 6.1045C24.8455 6.1045 29.6012 10.7351 29.6012 16.4269C29.6012 18.7431 28.8313 20.9316 27.375 22.756L27.3751 22.7562Z" fill="white"/>
<path d="M20.6052 22.5432C20.2092 21.8756 19.6242 21.4926 19.0001 21.4926C18.3759 21.4926 17.7909 21.8756 17.3949 22.5432L16.1122 24.7066C15.7162 25.3742 15.6681 26.0591 15.9801 26.5852C16.292 27.1116 16.9254 27.4133 17.7171 27.4133H20.2827C21.0746 27.4133 21.7077 27.1113 22.0197 26.5852C22.3316 26.0589 22.2836 25.3742 21.8876 24.7066L20.6052 22.5432ZM21.0327 26.0304C20.9296 26.204 20.6565 26.3035 20.2829 26.3035H17.7173C17.3437 26.3035 17.0704 26.204 16.9676 26.0304C16.8648 25.8569 16.9129 25.5766 17.0997 25.2615L18.3824 23.0981C18.5692 22.783 18.7944 22.6024 19.0003 22.6024C19.2063 22.6024 19.4314 22.7832 19.6182 23.0981L20.9009 25.2615C21.0874 25.5766 21.1357 25.8569 21.0327 26.0304Z" fill="white"/>
<path d="M16.948 19.1086L17.2049 16.8853V16.8542C17.2049 15.875 16.3868 15.0784 15.3811 15.0784L12.0751 15.0785C11.0694 15.0785 10.2513 15.8751 10.2513 16.8543V16.8854L10.5082 19.1084C10.5181 19.5748 10.7284 20.0137 11.1033 20.3472C11.4624 20.6668 11.9414 20.8501 12.4171 20.8501H15.0105C15.4851 20.8501 15.9671 20.6685 16.3327 20.3524C16.7145 20.0222 16.9374 19.5707 16.9481 19.1087L16.948 19.1086ZM15.8084 19.043V19.0741C15.8084 19.4102 15.4132 19.7401 15.0104 19.7401H12.4171C12.0143 19.7401 11.6475 19.4227 11.6475 19.0741V19.043L11.3916 16.8278C11.4058 16.4727 11.707 16.1883 12.075 16.1883H15.3807C15.7487 16.1883 16.0497 16.4728 16.0642 16.8276L15.8084 19.043Z" fill="white"/>
<path d="M22.6192 15.0784C21.6135 15.0784 20.7954 15.875 20.7954 16.8542V16.8853L21.0523 19.1087C21.0629 19.5705 21.2858 20.022 21.6676 20.3525C22.0331 20.6689 22.5152 20.8502 22.9898 20.8502H25.5831C26.0589 20.8502 26.5378 20.6668 26.8969 20.3473C27.2719 20.0138 27.4821 19.5749 27.492 19.1085L27.749 16.8855V16.8544C27.749 15.8752 26.9308 15.0786 25.9251 15.0786L22.6191 15.0785L22.6192 15.0784ZM26.6086 16.8277L26.3526 19.0429V19.074C26.3526 19.4225 25.986 19.74 25.5831 19.74H22.9897C22.587 19.74 22.1918 19.4102 22.1918 19.074V19.0429L21.9358 16.8277C21.9501 16.4726 22.2513 16.1884 22.6193 16.1884H25.925C26.293 16.1884 26.5939 16.4728 26.6084 16.8277H26.6086Z" fill="white"/>
</svg>
