<svg width="25" height="29" viewBox="0 0 25 29" fill="none" xmlns="http://www.w3.org/2000/svg">
<path d="M2.47669 19.26C1.99459 18.654 1.73789 17.8993 1.75044 17.125C1.7342 16.3501 1.99131 15.5942 2.47669 14.99C3.1398 14.0884 3.49745 12.9985 3.49745 11.8794C3.49745 10.7602 3.1398 9.67032 2.47669 8.76875C2.00344 8.15599 1.74672 7.40361 1.74672 6.62937C1.74672 5.85514 2.00344 5.10276 2.47669 4.49C3.15681 3.59543 3.51728 2.49862 3.50044 1.375C3.50044 1.14294 3.40826 0.920376 3.24416 0.756282C3.08007 0.592187 2.85751 0.5 2.62544 0.5C2.39338 0.5 2.17082 0.592187 2.00672 0.756282C1.84263 0.920376 1.75044 1.14294 1.75044 1.375C1.76669 2.14989 1.50957 2.90575 1.02419 3.51C0.345883 4.40552 -0.0143749 5.50169 0.000442815 6.625C-0.0144342 7.74564 0.345932 8.83905 1.02419 9.73125C1.49744 10.344 1.75416 11.0964 1.75416 11.8706C1.75416 12.6449 1.49744 13.3972 1.02419 14.01C0.361084 14.9116 0.00343771 16.0015 0.00343771 17.1206C0.00343771 18.2398 0.361084 19.3297 1.02419 20.2312C1.49744 20.844 1.75416 21.5964 1.75416 22.3706C1.75416 23.1449 1.49744 23.8972 1.02419 24.51C0.345883 25.4055 -0.0143749 26.5017 0.000442815 27.625C0.000442815 27.8571 0.0926302 28.0796 0.256725 28.2437C0.420819 28.4078 0.643378 28.5 0.875443 28.5C1.10751 28.5 1.33007 28.4078 1.49416 28.2437C1.65826 28.0796 1.75044 27.8571 1.75044 27.625C1.73585 26.8477 1.99267 26.0896 2.47669 25.4812C3.1398 24.5797 3.49745 23.4898 3.49745 22.3706C3.49745 21.2515 3.1398 20.1616 2.47669 19.26Z" fill="black"/>
<path d="M5.97669 19.26C5.49459 18.654 5.23789 17.8993 5.25044 17.125C5.2342 16.3501 5.49131 15.5942 5.97669 14.99C6.6398 14.0884 6.99745 12.9985 6.99745 11.8794C6.99745 10.7602 6.6398 9.67032 5.97669 8.76875C5.50344 8.15599 5.24672 7.40361 5.24672 6.62937C5.24672 5.85514 5.50344 5.10276 5.97669 4.49C6.65681 3.59543 7.01728 2.49862 7.00044 1.375C7.00044 1.14294 6.90826 0.920376 6.74416 0.756282C6.58007 0.592187 6.35751 0.5 6.12544 0.5C5.89338 0.5 5.67082 0.592187 5.50672 0.756282C5.34263 0.920376 5.25044 1.14294 5.25044 1.375C5.26669 2.14989 5.00957 2.90575 4.52419 3.51C3.84588 4.40552 3.48563 5.50169 3.50044 6.625C3.48557 7.74564 3.84593 8.83905 4.52419 9.73125C4.99744 10.344 5.25416 11.0964 5.25416 11.8706C5.25416 12.6449 4.99744 13.3972 4.52419 14.01C3.86108 14.9116 3.50344 16.0015 3.50344 17.1206C3.50344 18.2398 3.86108 19.3297 4.52419 20.2312C4.99744 20.844 5.25416 21.5964 5.25416 22.3706C5.25416 23.1449 4.99744 23.8972 4.52419 24.51C3.84588 25.4055 3.48563 26.5017 3.50044 27.625C3.50044 27.8571 3.59263 28.0796 3.75672 28.2437C3.92082 28.4078 4.14338 28.5 4.37544 28.5C4.60751 28.5 4.83007 28.4078 4.99416 28.2437C5.15826 28.0796 5.25044 27.8571 5.25044 27.625C5.23585 26.8477 5.49267 26.0896 5.97669 25.4812C6.6398 24.5797 6.99745 23.4898 6.99745 22.3706C6.99745 21.2515 6.6398 20.1616 5.97669 19.26Z" fill="black"/>
<path d="M9.47669 19.26C8.99459 18.654 8.73789 17.8993 8.75044 17.125C8.7342 16.3501 8.99131 15.5942 9.47669 14.99C10.1398 14.0884 10.4974 12.9985 10.4974 11.8794C10.4974 10.7602 10.1398 9.67032 9.47669 8.76875C9.00344 8.15599 8.74672 7.40361 8.74672 6.62937C8.74672 5.85514 9.00344 5.10276 9.47669 4.49C10.1568 3.59543 10.5173 2.49862 10.5004 1.375C10.5004 1.14294 10.4083 0.920376 10.2442 0.756282C10.0801 0.592187 9.85751 0.5 9.62544 0.5C9.39338 0.5 9.17082 0.592187 9.00672 0.756282C8.84263 0.920376 8.75044 1.14294 8.75044 1.375C8.76669 2.14989 8.50957 2.90575 8.02419 3.51C7.34588 4.40552 6.98563 5.50169 7.00044 6.625C6.98557 7.74564 7.34593 8.83905 8.02419 9.73125C8.49744 10.344 8.75416 11.0964 8.75416 11.8706C8.75416 12.6449 8.49744 13.3972 8.02419 14.01C7.36108 14.9116 7.00344 16.0015 7.00344 17.1206C7.00344 18.2398 7.36108 19.3297 8.02419 20.2312C8.49744 20.844 8.75416 21.5964 8.75416 22.3706C8.75416 23.1449 8.49744 23.8972 8.02419 24.51C7.34588 25.4055 6.98563 26.5017 7.00044 27.625C7.00044 27.8571 7.09263 28.0796 7.25672 28.2437C7.42082 28.4078 7.64338 28.5 7.87544 28.5C8.10751 28.5 8.33007 28.4078 8.49416 28.2437C8.65826 28.0796 8.75044 27.8571 8.75044 27.625C8.73585 26.8477 8.99267 26.0896 9.47669 25.4812C10.1398 24.5797 10.4974 23.4898 10.4974 22.3706C10.4974 21.2515 10.1398 20.1616 9.47669 19.26Z" fill="black"/>
<path d="M12.9767 19.26C12.4946 18.654 12.2379 17.8993 12.2504 17.125C12.2342 16.3501 12.4913 15.5942 12.9767 14.99C13.6398 14.0884 13.9974 12.9985 13.9974 11.8794C13.9974 10.7602 13.6398 9.67032 12.9767 8.76875C12.5034 8.15599 12.2467 7.40361 12.2467 6.62937C12.2467 5.85514 12.5034 5.10276 12.9767 4.49C13.6568 3.59543 14.0173 2.49862 14.0004 1.375C14.0004 1.14294 13.9083 0.920376 13.7442 0.756282C13.5801 0.592187 13.3575 0.5 13.1254 0.5C12.8934 0.5 12.6708 0.592187 12.5067 0.756282C12.3426 0.920376 12.2504 1.14294 12.2504 1.375C12.2667 2.14989 12.0096 2.90575 11.5242 3.51C10.8459 4.40552 10.4856 5.50169 10.5004 6.625C10.4856 7.74564 10.8459 8.83905 11.5242 9.73125C11.9974 10.344 12.2542 11.0964 12.2542 11.8706C12.2542 12.6449 11.9974 13.3972 11.5242 14.01C10.8611 14.9116 10.5034 16.0015 10.5034 17.1206C10.5034 18.2398 10.8611 19.3297 11.5242 20.2312C11.9974 20.844 12.2542 21.5964 12.2542 22.3706C12.2542 23.1449 11.9974 23.8972 11.5242 24.51C10.8459 25.4055 10.4856 26.5017 10.5004 27.625C10.5004 27.8571 10.5926 28.0796 10.7567 28.2437C10.9208 28.4078 11.1434 28.5 11.3754 28.5C11.6075 28.5 11.8301 28.4078 11.9942 28.2437C12.1583 28.0796 12.2504 27.8571 12.2504 27.625C12.2359 26.8477 12.4927 26.0896 12.9767 25.4812C13.6398 24.5797 13.9974 23.4898 13.9974 22.3706C13.9974 21.2515 13.6398 20.1616 12.9767 19.26Z" fill="black"/>
<path d="M16.4767 19.26C15.9946 18.654 15.7379 17.8993 15.7504 17.125C15.7342 16.3501 15.9913 15.5942 16.4767 14.99C17.1398 14.0884 17.4974 12.9985 17.4974 11.8794C17.4974 10.7602 17.1398 9.67032 16.4767 8.76875C16.0034 8.15599 15.7467 7.40361 15.7467 6.62937C15.7467 5.85514 16.0034 5.10276 16.4767 4.49C17.1568 3.59543 17.5173 2.49862 17.5004 1.375C17.5004 1.14294 17.4083 0.920376 17.2442 0.756282C17.0801 0.592187 16.8575 0.5 16.6254 0.5C16.3934 0.5 16.1708 0.592187 16.0067 0.756282C15.8426 0.920376 15.7504 1.14294 15.7504 1.375C15.7667 2.14989 15.5096 2.90575 15.0242 3.51C14.3459 4.40552 13.9856 5.50169 14.0004 6.625C13.9856 7.74564 14.3459 8.83905 15.0242 9.73125C15.4974 10.344 15.7542 11.0964 15.7542 11.8706C15.7542 12.6449 15.4974 13.3972 15.0242 14.01C14.3611 14.9116 14.0034 16.0015 14.0034 17.1206C14.0034 18.2398 14.3611 19.3297 15.0242 20.2312C15.4974 20.844 15.7542 21.5964 15.7542 22.3706C15.7542 23.1449 15.4974 23.8972 15.0242 24.51C14.3459 25.4055 13.9856 26.5017 14.0004 27.625C14.0004 27.8571 14.0926 28.0796 14.2567 28.2437C14.4208 28.4078 14.6434 28.5 14.8754 28.5C15.1075 28.5 15.3301 28.4078 15.4942 28.2437C15.6583 28.0796 15.7504 27.8571 15.7504 27.625C15.7359 26.8477 15.9927 26.0896 16.4767 25.4812C17.1398 24.5797 17.4974 23.4898 17.4974 22.3706C17.4974 21.2515 17.1398 20.1616 16.4767 19.26Z" fill="black"/>
<path d="M19.9767 19.26C19.4946 18.654 19.2379 17.8993 19.2504 17.125C19.2342 16.3501 19.4913 15.5942 19.9767 14.99C20.6398 14.0884 20.9974 12.9985 20.9974 11.8794C20.9974 10.7602 20.6398 9.67032 19.9767 8.76875C19.5034 8.15599 19.2467 7.40361 19.2467 6.62937C19.2467 5.85514 19.5034 5.10276 19.9767 4.49C20.6568 3.59543 21.0173 2.49862 21.0004 1.375C21.0004 1.14294 20.9083 0.920376 20.7442 0.756282C20.5801 0.592187 20.3575 0.5 20.1254 0.5C19.8934 0.5 19.6708 0.592187 19.5067 0.756282C19.3426 0.920376 19.2504 1.14294 19.2504 1.375C19.2667 2.14989 19.0096 2.90575 18.5242 3.51C17.8459 4.40552 17.4856 5.50169 17.5004 6.625C17.4856 7.74564 17.8459 8.83905 18.5242 9.73125C18.9974 10.344 19.2542 11.0964 19.2542 11.8706C19.2542 12.6449 18.9974 13.3972 18.5242 14.01C17.8611 14.9116 17.5034 16.0015 17.5034 17.1206C17.5034 18.2398 17.8611 19.3297 18.5242 20.2312C18.9974 20.844 19.2542 21.5964 19.2542 22.3706C19.2542 23.1449 18.9974 23.8972 18.5242 24.51C17.8459 25.4055 17.4856 26.5017 17.5004 27.625C17.5004 27.8571 17.5926 28.0796 17.7567 28.2437C17.9208 28.4078 18.1434 28.5 18.3754 28.5C18.6075 28.5 18.8301 28.4078 18.9942 28.2437C19.1583 28.0796 19.2504 27.8571 19.2504 27.625C19.2359 26.8477 19.4927 26.0896 19.9767 25.4812C20.6398 24.5797 20.9974 23.4898 20.9974 22.3706C20.9974 21.2515 20.6398 20.1616 19.9767 19.26Z" fill="black"/>
<path d="M24.5004 11.875C24.5153 10.7544 24.155 9.66095 23.4767 8.76875C23.0034 8.15599 22.7467 7.40361 22.7467 6.62937C22.7467 5.85514 23.0034 5.10276 23.4767 4.49C24.1568 3.59543 24.5173 2.49862 24.5004 1.375C24.5004 1.14294 24.4083 0.920376 24.2442 0.756282C24.0801 0.592187 23.8575 0.5 23.6254 0.5C23.3934 0.5 23.1708 0.592187 23.0067 0.756282C22.8426 0.920376 22.7504 1.14294 22.7504 1.375C22.7667 2.14989 22.5096 2.90575 22.0242 3.51C21.3459 4.40552 20.9856 5.50169 21.0004 6.625C20.9856 7.74564 21.3459 8.83905 22.0242 9.73125C22.4974 10.344 22.7542 11.0964 22.7542 11.8706C22.7542 12.6449 22.4974 13.3972 22.0242 14.01C21.3611 14.9116 21.0034 16.0015 21.0034 17.1206C21.0034 18.2398 21.3611 19.3297 22.0242 20.2312C22.4974 20.844 22.7542 21.5964 22.7542 22.3706C22.7542 23.1449 22.4974 23.8972 22.0242 24.51C21.3459 25.4055 20.9856 26.5017 21.0004 27.625C21.0004 27.8571 21.0926 28.0796 21.2567 28.2437C21.4208 28.4078 21.6434 28.5 21.8754 28.5C22.1075 28.5 22.3301 28.4078 22.4942 28.2437C22.6583 28.0796 22.7504 27.8571 22.7504 27.625C22.7359 26.8477 22.9927 26.0896 23.4767 25.4812C24.1398 24.5797 24.4974 23.4898 24.4974 22.3706C24.4974 21.2515 24.1398 20.1616 23.4767 19.26C22.9946 18.654 22.7379 17.8993 22.7504 17.125C22.7342 16.3501 22.9913 15.5942 23.4767 14.99C24.155 14.0945 24.5153 12.9983 24.5004 11.875Z" fill="black"/>
</svg>
