<svg width="80" height="80" viewBox="0 0 80 80" fill="none" xmlns="http://www.w3.org/2000/svg">
<mask id="mask0_1763_146" style="mask-type:luminance" maskUnits="userSpaceOnUse" x="0" y="0" width="80" height="80">
<path d="M80 0H0V80H80V0Z" fill="white"/>
</mask>
<g mask="url(#mask0_1763_146)">
<path d="M31.5793 33.2359C33.5348 32.107 35.4898 30.9784 37.4448 29.8495C44.8828 25.5564 52.3403 21.2631 59.7783 16.9496C60.0737 16.7749 60.087 16.5734 59.8183 16.3449C58.4278 15.1557 56.9158 14.1278 55.3638 13.1804C55.0818 13.0192 54.8803 13.0192 54.5978 13.1804C45.1043 18.6629 35.6108 24.1454 26.1373 29.6479C25.8148 29.8495 25.5728 29.8294 25.2503 29.6479C22.8923 28.2574 20.4933 26.8865 18.1353 25.5159C18.0143 25.4354 17.8732 25.3749 17.712 25.274C26.8428 19.9932 35.9333 14.7526 45.1448 9.43138C43.2903 9.08869 41.5368 8.92743 39.7833 8.92743C31.0958 8.92743 23.6583 12.0114 17.4298 18.0381C16.0793 19.3482 14.8901 20.7793 13.8218 22.3314C13.5934 22.6539 13.2978 22.7144 12.935 22.5129C10.9193 21.3437 8.92387 20.1948 6.88807 19.0459C6.58572 18.8846 6.50512 18.7637 6.72682 18.4614C13.2776 8.96778 22.2268 3.16278 33.6153 1.36888C48.7928 -1.00957 63.8498 5.72263 72.3153 18.4412C72.5368 18.7637 72.4968 18.8846 72.1743 19.066C61.4108 25.274 50.6473 31.4824 39.8838 37.6904C39.7023 37.7914 39.5413 37.912 39.2793 37.7509C36.7798 36.2794 34.2603 34.8484 31.7608 33.397C31.7003 33.3569 31.6198 33.3365 31.5998 33.2159L31.5793 33.2359Z" fill="black"/>
<path d="M9.91108 66.3525C9.02422 65.385 8.29858 64.458 7.59313 63.4905C1.82843 55.448 -0.590324 46.4785 0.256227 36.6425C0.679525 31.805 1.98968 27.2295 4.12623 22.8755C4.28748 22.533 4.42858 22.513 4.75108 22.694C15.5145 28.9225 26.258 35.1305 37.0214 41.3385C37.2835 41.5 37.404 41.641 37.404 41.9635C37.404 54.38 37.404 66.796 37.404 79.2325C37.404 79.6155 37.3035 79.716 36.9405 79.676C34.542 79.4945 32.1839 79.1315 29.8455 78.5675C29.4625 78.4865 29.402 78.3055 29.402 77.9625C29.402 67.542 29.402 57.101 29.402 46.68C29.402 46.297 29.2814 46.0955 28.9589 45.914C27.286 44.967 25.613 43.9995 23.94 43.032C23.839 42.9715 23.7385 42.911 23.6375 42.8505C23.5165 43.0115 23.577 43.173 23.577 43.314C23.577 54.178 23.577 65.0425 23.577 75.9065C23.577 76.2428 23.4226 76.3433 23.1135 76.209C20.594 75.04 18.2155 73.609 15.9781 71.976C15.6758 71.7545 15.575 71.533 15.575 71.15C15.575 60.3055 15.575 49.482 15.575 38.638C15.575 38.3155 15.4742 38.134 15.192 37.9725C13.1562 36.8235 11.1406 35.6545 9.12498 34.4655C8.82263 34.284 8.70172 34.2235 8.62108 34.667C7.67373 40.0285 8.05672 45.3095 9.79013 50.4695C9.87077 50.691 9.93123 50.913 9.93123 51.175C9.93123 56.1335 9.93123 61.0715 9.93123 66.03V66.373L9.91108 66.3525Z" fill="black"/>
<path d="M57.8022 41.4193C57.7017 41.2578 57.7421 41.1168 57.7421 40.9554C57.7421 38.1739 57.7421 35.3923 57.7421 32.6309C57.7421 32.3488 57.8226 32.1673 58.0846 32.0263C63.5067 28.9023 68.9287 25.7778 74.3306 22.6334C74.5926 22.4723 74.6932 22.5128 74.8142 22.7748C77.9386 29.1238 79.2487 35.8158 78.8052 42.8703C78.7246 44.0393 78.5836 45.2084 78.4422 46.3778C78.4021 46.7403 78.2407 46.9218 77.9386 47.1033C74.3507 49.1793 70.7831 51.2754 67.1952 53.3718C67.0742 53.4523 66.9532 53.5329 66.7721 53.6338C68.1022 54.3998 69.3922 55.1454 70.6822 55.8913C71.8917 56.5968 73.1011 57.3023 74.3306 57.9878C74.5926 58.1288 74.6127 58.2498 74.4717 58.5118C70.6622 65.6673 65.2197 71.1898 58.1247 75.0803C57.8022 75.2614 57.7217 75.2818 57.7217 74.8583C57.7217 71.9759 57.7217 69.0938 57.7217 66.2113C57.7217 65.9293 57.8427 65.8083 58.0242 65.6673C59.8382 64.3368 61.4911 62.8253 63.0027 61.1318C63.1641 60.9504 63.2647 60.8498 62.9622 60.6884C58.5482 58.1488 54.1542 55.6093 49.7602 53.0693C49.7397 53.0693 49.6997 53.0693 49.6392 53.0493C49.5586 53.2104 49.5987 53.3918 49.5987 53.5533C49.5987 61.6963 49.5987 69.8193 49.5987 77.9623C49.5987 78.3453 49.4981 78.5068 49.1151 78.5873C46.7771 79.1518 44.4187 79.5143 42.0201 79.6758C41.6772 79.6958 41.5566 79.6353 41.5566 79.2523C41.5566 66.8159 41.5566 54.3798 41.5566 41.9433C41.5566 41.6813 41.6171 41.4998 41.8587 41.3588C44.2977 39.9678 46.7567 38.5568 49.1756 37.1258C49.5586 36.9043 49.5787 37.0253 49.5586 37.3678C49.5586 39.3429 49.5586 41.3183 49.5586 43.2938C49.5586 43.5959 49.6392 43.7573 49.9012 43.8983C52.7836 45.5513 55.6457 47.2038 58.5281 48.8768C58.7497 48.9978 58.9111 49.0179 59.1327 48.8768C62.9222 46.6798 66.6912 44.5029 70.4807 42.3263C70.7227 42.1853 70.8232 42.0439 70.8232 41.7618C70.9242 39.3633 70.7627 37.0048 70.3397 34.6468C70.2591 34.2233 70.1582 34.2434 69.8557 34.4248C65.9657 36.6823 62.0552 38.9398 58.1452 41.1973C58.0242 41.2779 57.8831 41.3384 57.7622 41.4193H57.8022Z" fill="black"/>
</g>
</svg>
