<svg width="36" height="14" viewBox="0 0 36 14" fill="none" xmlns="http://www.w3.org/2000/svg">
<path d="M35.2132 7.71166C35.0056 7.58333 30.2792 4.50333 18 4.375V1.96875C18 1.75602 17.9159 1.55201 17.7662 1.40159C17.6164 1.25117 17.4134 1.16667 17.2016 1.16667C13.886 1.07303 10.6264 2.03914 7.89242 3.92583L6.82258 1.61583C6.7496 1.46923 6.63448 1.34803 6.49212 1.26794C6.34977 1.18785 6.18675 1.15257 6.02419 1.16667H1.23387C1.09667 1.16885 0.962144 1.20515 0.842325 1.27234C0.722506 1.33952 0.621128 1.43549 0.547258 1.55167C0.484355 1.67016 0.451452 1.80238 0.451452 1.93667C0.451452 2.07095 0.484355 2.20318 0.547258 2.32167L2.14403 5.36958V9.98958C2.14556 10.1395 2.18806 10.2861 2.26691 10.4134C2.34576 10.5407 2.45792 10.6438 2.59113 10.7115L5.78468 12.3156C6.04356 12.7995 6.42178 13.2085 6.8831 13.5034C7.34442 13.7983 7.8734 13.9693 8.41935 14C9.21634 14.0019 9.98523 13.7044 10.575 13.1658H10.8145H23.5887H23.8282C24.418 13.7044 25.1869 14.0019 25.9839 14C26.7601 13.9989 27.5094 13.7137 28.0916 13.1979H33.1694C33.3275 13.1993 33.4823 13.1525 33.6134 13.0637C33.7445 12.975 33.8458 12.8484 33.9039 12.7006L35.5006 8.6902C35.5673 8.51814 35.5752 8.32872 35.5232 8.15164C35.4712 7.97456 35.3622 7.81982 35.2132 7.71166ZM8.41935 12.3958C8.10354 12.3958 7.79482 12.3017 7.53224 12.1255C7.26965 11.9492 7.06498 11.6987 6.94413 11.4055C6.82327 11.1124 6.79165 10.7899 6.85326 10.4787C6.91487 10.1675 7.06695 9.88169 7.29027 9.65734C7.51358 9.433 7.7981 9.28022 8.10784 9.21832C8.41758 9.15642 8.73864 9.18819 9.03041 9.3096C9.32219 9.43102 9.57157 9.63663 9.74702 9.90043C9.92248 10.1642 10.0161 10.4744 10.0161 10.7917C10.0161 11.2171 9.8479 11.6251 9.54844 11.926C9.24899 12.2268 8.84285 12.3958 8.41935 12.3958ZM25.9839 12.3958C25.6681 12.3958 25.3593 12.3017 25.0967 12.1255C24.8342 11.9492 24.6295 11.6987 24.5086 11.4055C24.3878 11.1124 24.3562 10.7899 24.4178 10.4787C24.4794 10.1675 24.6315 9.88169 24.8548 9.65734C25.0781 9.433 25.3626 9.28022 25.6724 9.21832C25.9821 9.15642 26.3032 9.18819 26.5949 9.3096C26.8867 9.43102 27.1361 9.63663 27.3115 9.90043C27.487 10.1642 27.5806 10.4744 27.5806 10.7917C27.5806 11.2171 27.4124 11.6251 27.113 11.926C26.8135 12.2268 26.4074 12.3958 25.9839 12.3958ZM32.6265 11.5937H29.0816C29.1459 11.3313 29.1781 11.0619 29.1774 10.7917C29.1774 9.94076 28.841 9.12471 28.242 8.52303C27.6431 7.92135 26.8309 7.58333 25.9839 7.58333C25.1369 7.58333 24.3246 7.92135 23.7257 8.52303C23.1268 9.12471 22.7903 9.94076 22.7903 10.7917C22.7896 11.0619 22.8218 11.3313 22.8861 11.5937H11.5171C11.5814 11.3313 11.6136 11.0619 11.6129 10.7917C11.6764 9.94076 11.4009 9.09935 10.8469 8.45255C10.2929 7.80575 9.50585 7.40652 8.65887 7.34271C8.23949 7.31111 7.81802 7.3628 7.41852 7.49484C7.01903 7.62688 6.64933 7.83668 6.33054 8.11226C5.68671 8.66881 5.28933 9.45951 5.22581 10.3104L3.62903 9.49229V5.17708C3.65314 5.06069 3.65314 4.94056 3.62903 4.82416L2.52726 2.77083H5.52919L6.90242 5.53C6.95595 5.64682 7.03834 5.74795 7.14175 5.82376C7.24516 5.89957 7.36615 5.94754 7.49323 5.96312C7.61724 5.98826 7.74561 5.98079 7.8659 5.94145C7.98619 5.9021 8.09433 5.83221 8.17984 5.73854C10.507 3.8416 13.4065 2.79519 16.4032 2.77083V5.17708C16.4032 5.38981 16.4873 5.59382 16.6371 5.74424C16.7868 5.89466 16.9899 5.97916 17.2016 5.97916C27.1495 5.97916 32.1794 7.96833 33.7602 8.75437L32.6265 11.5937Z" fill="black"/>
</svg>
