<svg width="5" height="11" viewBox="0 0 5 11" fill="none" xmlns="http://www.w3.org/2000/svg">
<g id="Right 2">
<path id="Vector" d="M1.33472 1.11991C1.10181 0.889075 0.725871 0.890753 0.495034 1.12366C0.264197 1.35656 0.265875 1.7325 0.498781 1.96334L1.89446 3.34662C2.4609 3.90803 2.84945 4.29439 3.11236 4.62177C3.36775 4.93978 3.45537 5.14404 3.47868 5.32698C3.49332 5.44185 3.49332 5.55807 3.47868 5.67294C3.45537 5.85588 3.36775 6.06014 3.11236 6.37815C2.84945 6.70553 2.4609 7.09189 1.89447 7.65329L0.498781 9.03658C0.265875 9.26742 0.264197 9.64335 0.495034 9.87626C0.725871 10.1092 1.10181 10.1108 1.33472 9.88001L2.75554 8.4718C3.29069 7.94143 3.72807 7.50795 4.03825 7.12172C4.36079 6.72009 4.59428 6.31243 4.65665 5.82309C4.684 5.60853 4.684 5.39139 4.65665 5.17683C4.59428 4.68749 4.36079 4.27983 4.03825 3.8782C3.72806 3.49196 3.29069 3.05849 2.75554 2.52812L1.33472 1.11991Z" fill="black"/>
</g>
</svg>
