<svg width="14" height="14" viewBox="0 0 14 14" fill="none" xmlns="http://www.w3.org/2000/svg">
<g id="lock-simple 2">
<path id="Vector" d="M11.375 4.375H9.625V3.0625C9.625 2.36631 9.34844 1.69863 8.85616 1.20634C8.36387 0.714062 7.69619 0.4375 7 0.4375C6.30381 0.4375 5.63613 0.714062 5.14384 1.20634C4.65156 1.69863 4.375 2.36631 4.375 3.0625V4.375H2.625C2.39294 4.375 2.17038 4.46719 2.00628 4.63128C1.84219 4.79538 1.75 5.01794 1.75 5.25V11.375C1.75 11.6071 1.84219 11.8296 2.00628 11.9937C2.17038 12.1578 2.39294 12.25 2.625 12.25H11.375C11.6071 12.25 11.8296 12.1578 11.9937 11.9937C12.1578 11.8296 12.25 11.6071 12.25 11.375V5.25C12.25 5.01794 12.1578 4.79538 11.9937 4.63128C11.8296 4.46719 11.6071 4.375 11.375 4.375ZM5.25 3.0625C5.25 2.59837 5.43437 2.15325 5.76256 1.82506C6.09075 1.49687 6.53587 1.3125 7 1.3125C7.46413 1.3125 7.90925 1.49687 8.23744 1.82506C8.56563 2.15325 8.75 2.59837 8.75 3.0625V4.375H5.25V3.0625ZM11.375 11.375H2.625V5.25H11.375V11.375Z" fill="black"/>
</g>
</svg>
