<svg width="20" height="20" viewBox="0 0 20 20" fill="none" xmlns="http://www.w3.org/2000/svg">
<path d="M10.625 3.33337C10.625 2.9882 10.3452 2.70837 9.99998 2.70837C9.6548 2.70837 9.37498 2.9882 9.37498 3.33337L9.37498 9.37504H3.33331C2.98814 9.37504 2.70831 9.65486 2.70831 10C2.70831 10.3452 2.98814 10.625 3.33331 10.625H9.37498V16.6667C9.37498 17.0119 9.6548 17.2917 9.99998 17.2917C10.3452 17.2917 10.625 17.0119 10.625 16.6667V10.625H16.6666C17.0118 10.625 17.2916 10.3452 17.2916 10C17.2916 9.65486 17.0118 9.37504 16.6666 9.37504H10.625L10.625 3.33337Z" fill="black"/>
</svg>
