<svg width="19" height="19" viewBox="0 0 19 19" fill="none" xmlns="http://www.w3.org/2000/svg">
<g clip-path="url(#clip0_134_213)">
<path d="M7.39046 3.80186C7.71435 3.75056 7.93532 3.44642 7.88402 3.12253C7.83272 2.79865 7.52858 2.57768 7.2047 2.62898C5.2569 2.93748 3.72926 4.46511 3.42076 6.41291C3.36946 6.7368 3.59044 7.04094 3.91432 7.09224C4.2382 7.14354 4.54234 6.92256 4.59364 6.59868C4.82166 5.159 5.95078 4.02988 7.39046 3.80186Z" fill="black"/>
<path fill-rule="evenodd" clip-rule="evenodd" d="M8.7085 0.197937C4.44555 0.197937 0.989746 3.65374 0.989746 7.91669C0.989746 12.1796 4.44555 15.6354 8.7085 15.6354C12.9714 15.6354 16.4272 12.1796 16.4272 7.91669C16.4272 3.65374 12.9714 0.197937 8.7085 0.197937ZM2.17725 7.91669C2.17725 4.30958 5.10139 1.38544 8.7085 1.38544C12.3156 1.38544 15.2397 4.30958 15.2397 7.91669C15.2397 11.5238 12.3156 14.4479 8.7085 14.4479C5.10139 14.4479 2.17725 11.5238 2.17725 7.91669Z" fill="black"/>
<path d="M15.4617 13.8303C15.2299 13.5984 14.8539 13.5984 14.622 13.8302C14.3902 14.0621 14.3902 14.4381 14.622 14.6699L17.7886 17.8366C18.0205 18.0684 18.3964 18.0684 18.6283 17.8366C18.8602 17.6047 18.8602 17.2288 18.6283 16.9969L15.4617 13.8303Z" fill="black"/>
</g>
<defs>
<clipPath id="clip0_134_213">
<rect width="19" height="19" fill="white"/>
</clipPath>
</defs>
</svg>
