<svg width="14" height="9" viewBox="0 0 14 9" fill="none" xmlns="http://www.w3.org/2000/svg">
<path fill-rule="evenodd" clip-rule="evenodd" d="M13.1765 0H12.3529C11.8981 0 11.5294 0.37776 11.5294 0.84375V8.15625C11.5294 8.62224 11.8981 9 12.3529 9H13.1765C13.6313 9 14 8.62224 14 8.15625V0.84375C14 0.37776 13.6313 0 13.1765 0ZM8.5098 1.96875H9.33333C9.78816 1.96875 10.1569 2.34651 10.1569 2.8125V8.15625C10.1569 8.62224 9.78816 9 9.33333 9H8.5098C8.05498 9 7.68627 8.62224 7.68627 8.15625V2.8125C7.68627 2.34651 8.05498 1.96875 8.5098 1.96875ZM5.4902 3.9375H4.66667C4.21184 3.9375 3.84314 4.31526 3.84314 4.78125V8.15625C3.84314 8.62224 4.21184 9 4.66667 9H5.4902C5.94502 9 6.31372 8.62224 6.31372 8.15625V4.78125C6.31372 4.31526 5.94502 3.9375 5.4902 3.9375ZM1.64706 5.625H0.823529C0.368707 5.625 0 6.00276 0 6.46875V8.15625C0 8.62224 0.368707 9 0.823529 9H1.64706C2.10188 9 2.47059 8.62224 2.47059 8.15625V6.46875C2.47059 6.00276 2.10188 5.625 1.64706 5.625Z" fill="black"/>
</svg>
