<svg width="24" height="24" viewBox="0 0 24 24" fill="none" xmlns="http://www.w3.org/2000/svg">
<g id="Frame 4696">
<g id="Vector">
<path d="M18.8363 13.922C18.3997 13.4695 17.8732 13.2276 17.3152 13.2276C16.7616 13.2276 16.2306 13.4651 15.776 13.9176L14.3539 15.3289C14.2369 15.2661 14.1199 15.2079 14.0074 15.1496C13.8454 15.069 13.6924 14.9928 13.5619 14.9122C12.2298 14.0699 11.0192 12.9722 9.8581 11.552C9.29556 10.8441 8.91753 10.2482 8.64301 9.64337C9.01204 9.30735 9.35406 8.95788 9.68709 8.62186C9.8131 8.49642 9.93911 8.36649 10.0651 8.24104C11.0102 7.30018 11.0102 6.08154 10.0651 5.14068L8.83652 3.91756C8.69701 3.77867 8.553 3.6353 8.41799 3.49194C8.14797 3.21416 7.86445 2.92742 7.57193 2.6586C7.1354 2.22849 6.61336 2 6.06432 2C5.51528 2 4.98424 2.22849 4.5342 2.6586C4.5297 2.66308 4.5297 2.66308 4.5252 2.66756L2.99509 4.2043C2.41905 4.77778 2.09052 5.4767 2.01852 6.28763C1.91051 7.59588 2.29754 8.81452 2.59456 9.61201C3.32361 11.5699 4.4127 13.3844 6.03732 15.3289C8.00846 17.672 10.3801 19.5224 13.0893 20.8262C14.1244 21.3145 15.506 21.8925 17.0496 21.991C17.1441 21.9955 17.2431 22 17.3332 22C18.3727 22 19.2458 21.6281 19.9298 20.8889C19.9343 20.8799 19.9433 20.8754 19.9478 20.8665C20.1819 20.5842 20.4519 20.3289 20.7354 20.0556C20.9289 19.8719 21.1269 19.6792 21.3204 19.4776C21.766 19.0161 22 18.4785 22 17.9274C22 17.3719 21.7615 16.8387 21.3069 16.3907L18.8363 13.922ZM20.4474 18.6398C20.4429 18.6443 20.4429 18.6398 20.4474 18.6398C20.2719 18.828 20.0919 18.9982 19.8983 19.1864C19.6058 19.4642 19.3088 19.7554 19.0298 20.0824C18.5752 20.5663 18.0397 20.7948 17.3377 20.7948C17.2701 20.7948 17.1981 20.7948 17.1306 20.7903C15.794 20.7052 14.5519 20.1855 13.6204 19.7419C11.0732 18.5143 8.83652 16.7715 6.97789 14.5627C5.44327 12.7213 4.4172 11.0188 3.73765 9.19086C3.31911 8.07527 3.1661 7.20609 3.23361 6.3862C3.27861 5.86201 3.48113 5.42742 3.85465 5.05556L5.38927 3.52778C5.60978 3.32168 5.8438 3.20968 6.07332 3.20968C6.35684 3.20968 6.58636 3.37993 6.73037 3.5233C6.73487 3.52778 6.73937 3.53226 6.74387 3.53674C7.01839 3.79211 7.27941 4.05645 7.55393 4.33871C7.69344 4.48208 7.83745 4.62545 7.98146 4.7733L9.21005 5.99642C9.68709 6.47133 9.68709 6.91039 9.21005 7.3853C9.07954 7.51523 8.95353 7.64516 8.82302 7.77061C8.44499 8.15591 8.08497 8.51434 7.69344 8.8638C7.68444 8.87276 7.67544 8.87724 7.67094 8.8862C7.28391 9.27151 7.35591 9.64785 7.43692 9.90323C7.44142 9.91667 7.44592 9.93011 7.45042 9.94355C7.76994 10.7142 8.21998 11.44 8.90403 12.3047L8.90853 12.3091C10.1506 13.8324 11.4602 15.0197 12.9048 15.9292C13.0893 16.0457 13.2784 16.1398 13.4584 16.2294C13.6204 16.31 13.7734 16.3862 13.9039 16.4668C13.9219 16.4758 13.9399 16.4892 13.9579 16.4982C14.1109 16.5744 14.2549 16.6102 14.4034 16.6102C14.777 16.6102 15.011 16.3772 15.0875 16.3011L16.6266 14.7688C16.7796 14.6165 17.0226 14.4328 17.3062 14.4328C17.5852 14.4328 17.8147 14.6075 17.9542 14.7599C17.9587 14.7643 17.9587 14.7643 17.9632 14.7688L20.4429 17.2375C20.9064 17.6944 20.9064 18.1649 20.4474 18.6398Z" fill="white"/>
<path d="M20.4474 18.6398C20.4429 18.6398 20.4429 18.6443 20.4474 18.6398ZM20.4474 18.6398C20.2719 18.828 20.0919 18.9982 19.8983 19.1864C19.6058 19.4642 19.3088 19.7554 19.0298 20.0824C18.5752 20.5663 18.0397 20.7948 17.3377 20.7948C17.2701 20.7948 17.1981 20.7948 17.1306 20.7903C15.794 20.7052 14.5519 20.1855 13.6204 19.7419C11.0732 18.5143 8.83652 16.7715 6.97789 14.5627C5.44327 12.7213 4.4172 11.0188 3.73765 9.19086C3.31911 8.07527 3.1661 7.20609 3.23361 6.3862C3.27861 5.86201 3.48113 5.42742 3.85465 5.05556L5.38927 3.52778C5.60978 3.32168 5.8438 3.20968 6.07332 3.20968C6.35684 3.20968 6.58636 3.37993 6.73037 3.5233C6.73487 3.52778 6.73937 3.53226 6.74387 3.53674C7.01839 3.79211 7.27941 4.05645 7.55393 4.33871C7.69344 4.48208 7.83745 4.62545 7.98146 4.7733L9.21005 5.99642C9.68709 6.47133 9.68709 6.91039 9.21005 7.3853C9.07954 7.51523 8.95353 7.64516 8.82302 7.77061C8.44499 8.15591 8.08497 8.51434 7.69344 8.8638C7.68444 8.87276 7.67544 8.87724 7.67094 8.8862C7.28391 9.27151 7.35591 9.64785 7.43692 9.90323C7.44142 9.91667 7.44592 9.93011 7.45042 9.94355C7.76994 10.7142 8.21998 11.44 8.90403 12.3047L8.90853 12.3091C10.1506 13.8324 11.4602 15.0197 12.9048 15.9292C13.0893 16.0457 13.2784 16.1398 13.4584 16.2294C13.6204 16.31 13.7734 16.3862 13.9039 16.4668C13.9219 16.4758 13.9399 16.4892 13.9579 16.4982C14.1109 16.5744 14.2549 16.6102 14.4034 16.6102C14.777 16.6102 15.011 16.3772 15.0875 16.3011L16.6266 14.7688C16.7796 14.6165 17.0226 14.4328 17.3062 14.4328C17.5852 14.4328 17.8147 14.6075 17.9542 14.7599C17.9587 14.7643 17.9587 14.7643 17.9632 14.7688L20.4429 17.2375C20.9064 17.6944 20.9064 18.1649 20.4474 18.6398ZM18.8363 13.922C18.3997 13.4695 17.8732 13.2276 17.3152 13.2276C16.7616 13.2276 16.2306 13.4651 15.776 13.9176L14.3539 15.3289C14.2369 15.2661 14.1199 15.2079 14.0074 15.1496C13.8454 15.069 13.6924 14.9928 13.5619 14.9122C12.2298 14.0699 11.0192 12.9722 9.8581 11.552C9.29556 10.8441 8.91753 10.2482 8.64301 9.64337C9.01204 9.30735 9.35406 8.95788 9.68709 8.62186C9.8131 8.49642 9.93911 8.36649 10.0651 8.24104C11.0102 7.30018 11.0102 6.08154 10.0651 5.14068L8.83652 3.91756C8.69701 3.77867 8.553 3.6353 8.41799 3.49194C8.14797 3.21416 7.86445 2.92742 7.57193 2.6586C7.1354 2.22849 6.61336 2 6.06432 2C5.51528 2 4.98424 2.22849 4.5342 2.6586C4.5297 2.66308 4.5297 2.66308 4.5252 2.66756L2.99509 4.2043C2.41905 4.77778 2.09052 5.4767 2.01852 6.28763C1.91051 7.59588 2.29754 8.81452 2.59456 9.61201C3.32361 11.5699 4.4127 13.3844 6.03732 15.3289C8.00846 17.672 10.3801 19.5224 13.0893 20.8262C14.1244 21.3145 15.506 21.8925 17.0496 21.991C17.1441 21.9955 17.2431 22 17.3332 22C18.3727 22 19.2458 21.6281 19.9298 20.8889C19.9343 20.8799 19.9433 20.8754 19.9478 20.8665C20.1819 20.5842 20.4519 20.3289 20.7354 20.0556C20.9289 19.8719 21.1269 19.6792 21.3204 19.4776C21.766 19.0161 22 18.4785 22 17.9274C22 17.3719 21.7615 16.8387 21.3069 16.3907L18.8363 13.922Z" stroke="white" stroke-width="0.5"/>
</g>
</g>
</svg>
