<svg width="32" height="32" viewBox="0 0 32 32" fill="none" xmlns="http://www.w3.org/2000/svg">
<path d="M10 16C10 20.425 13.475 24 17.75 24C18.4 24 19.05 23.925 19.675 23.75C16.675 21.55 14.775 17.975 14.775 14C14.775 11.9 15.3 9.9 16.275 8.15C12.7 8.875 10 12.1 10 16ZM16.775 14C16.775 18.625 19.85 22.525 24 23.675C22.2637 25.1758 20.045 26.0012 17.75 26C12.35 26 8 21.525 8 16C8 10.475 12.35 6 17.75 6C18.625 6 19.45 6.125 20.25 6.325C19.1512 7.27768 18.2716 8.45697 17.6717 9.78183C17.0719 11.1067 16.766 12.5457 16.775 14Z" fill="white"/>
</svg>
