<svg width="32" height="32" viewBox="0 0 32 32" fill="none" xmlns="http://www.w3.org/2000/svg">
<path d="M16 19.6C16.9548 19.6 17.8705 19.2207 18.5456 18.5456C19.2207 17.8705 19.6 16.9548 19.6 16C19.6 15.0452 19.2207 14.1295 18.5456 13.4544C17.8705 12.7793 16.9548 12.4 16 12.4C15.0452 12.4 14.1295 12.7793 13.4544 13.4544C12.7793 14.1295 12.4 15.0452 12.4 16C12.4 16.9548 12.7793 17.8705 13.4544 18.5456C14.1295 19.2207 15.0452 19.6 16 19.6ZM16 22C14.4087 22 12.8826 21.3679 11.7574 20.2426C10.6321 19.1174 10 17.5913 10 16C10 14.4087 10.6321 12.8826 11.7574 11.7574C12.8826 10.6321 14.4087 10 16 10C17.5913 10 19.1174 10.6321 20.2426 11.7574C21.3679 12.8826 22 14.4087 22 16C22 17.5913 21.3679 19.1174 20.2426 20.2426C19.1174 21.3679 17.5913 22 16 22ZM16 4C16.3183 4 16.6235 4.12643 16.8485 4.35147C17.0736 4.57652 17.2 4.88174 17.2 5.2V7.6C17.2 7.91826 17.0736 8.22348 16.8485 8.44853C16.6235 8.67357 16.3183 8.8 16 8.8C15.6817 8.8 15.3765 8.67357 15.1515 8.44853C14.9264 8.22348 14.8 7.91826 14.8 7.6V5.2C14.8 4.88174 14.9264 4.57652 15.1515 4.35147C15.3765 4.12643 15.6817 4 16 4ZM16 23.2C16.3183 23.2 16.6235 23.3264 16.8485 23.5515C17.0736 23.7765 17.2 24.0817 17.2 24.4V26.8C17.2 27.1183 17.0736 27.4235 16.8485 27.6485C16.6235 27.8736 16.3183 28 16 28C15.6817 28 15.3765 27.8736 15.1515 27.6485C14.9264 27.4235 14.8 27.1183 14.8 26.8V24.4C14.8 24.0817 14.9264 23.7765 15.1515 23.5515C15.3765 23.3264 15.6817 23.2 16 23.2ZM5.2 14.8H7.6C7.91826 14.8 8.22348 14.9264 8.44853 15.1515C8.67357 15.3765 8.8 15.6817 8.8 16C8.8 16.3183 8.67357 16.6235 8.44853 16.8485C8.22348 17.0736 7.91826 17.2 7.6 17.2H5.2C4.88174 17.2 4.57652 17.0736 4.35147 16.8485C4.12643 16.6235 4 16.3183 4 16C4 15.6817 4.12643 15.3765 4.35147 15.1515C4.57652 14.9264 4.88174 14.8 5.2 14.8ZM24.4 14.8H26.8C27.1183 14.8 27.4235 14.9264 27.6485 15.1515C27.8736 15.3765 28 15.6817 28 16C28 16.3183 27.8736 16.6235 27.6485 16.8485C27.4235 17.0736 27.1183 17.2 26.8 17.2H24.4C24.0817 17.2 23.7765 17.0736 23.5515 16.8485C23.3264 16.6235 23.2 16.3183 23.2 16C23.2 15.6817 23.3264 15.3765 23.5515 15.1515C23.7765 14.9264 24.0817 14.8 24.4 14.8ZM24.49 7.51C24.6034 7.62166 24.6934 7.75475 24.7549 7.90154C24.8163 8.04832 24.848 8.20587 24.848 8.365C24.848 8.52413 24.8163 8.68168 24.7549 8.82846C24.6934 8.97525 24.6034 9.10834 24.49 9.22L22.78 10.93C22.6677 11.0423 22.5344 11.1313 22.3877 11.1921C22.241 11.2529 22.0838 11.2842 21.925 11.2842C21.7662 11.2842 21.609 11.2529 21.4623 11.1921C21.3156 11.1313 21.1823 11.0423 21.07 10.93C20.9577 10.8177 20.8687 10.6844 20.8079 10.5377C20.7471 10.391 20.7158 10.2338 20.7158 10.075C20.7158 9.91621 20.7471 9.75898 20.8079 9.61228C20.8687 9.46558 20.9577 9.33228 21.07 9.22L22.78 7.51C22.8917 7.39662 23.0248 7.30658 23.1715 7.24512C23.3183 7.18366 23.4759 7.15201 23.635 7.15201C23.7941 7.15201 23.9517 7.18366 24.0985 7.24512C24.2452 7.30658 24.3783 7.39662 24.49 7.51ZM10.9 21.1C11.0134 21.2117 11.1034 21.3448 11.1649 21.4915C11.2263 21.6383 11.258 21.7959 11.258 21.955C11.258 22.1141 11.2263 22.2717 11.1649 22.4185C11.1034 22.5652 11.0134 22.6983 10.9 22.81L9.22 24.49C9.10772 24.6023 8.97442 24.6913 8.82772 24.7521C8.68102 24.8129 8.52379 24.8442 8.365 24.8442C8.20621 24.8442 8.04898 24.8129 7.90228 24.7521C7.75558 24.6913 7.62228 24.6023 7.51 24.49C7.39772 24.3777 7.30865 24.2444 7.24789 24.0977C7.18712 23.951 7.15585 23.7938 7.15585 23.635C7.15585 23.4762 7.18712 23.319 7.24789 23.1723C7.30865 23.0256 7.39772 22.8923 7.51 22.78L9.22 21.07C9.33166 20.9566 9.46475 20.8666 9.61154 20.8051C9.75832 20.7437 9.91587 20.712 10.075 20.712C10.2341 20.712 10.3917 20.7437 10.5385 20.8051C10.6852 20.8666 10.8183 20.9566 10.93 21.07L10.9 21.1ZM9.22 7.51L10.93 9.22C11.1568 9.44676 11.2842 9.75431 11.2842 10.075C11.2842 10.3957 11.1568 10.7032 10.93 10.93C10.7032 11.1568 10.3957 11.2842 10.075 11.2842C9.75431 11.2842 9.44676 11.1568 9.22 10.93L7.51 9.22C7.28324 8.99324 7.15585 8.68569 7.15585 8.365C7.15585 8.20621 7.18712 8.04898 7.24789 7.90228C7.30865 7.75558 7.39772 7.62228 7.51 7.51C7.62228 7.39772 7.75558 7.30865 7.90228 7.24789C8.04898 7.18712 8.20621 7.15585 8.365 7.15585C8.68569 7.15585 8.99324 7.28324 9.22 7.51ZM22.81 21.1L24.52 22.81C24.7468 23.0368 24.8742 23.3443 24.8742 23.665C24.8742 23.9857 24.7468 24.2932 24.52 24.52C24.2932 24.7468 23.9857 24.8742 23.665 24.8742C23.3443 24.8742 23.0368 24.7468 22.81 24.52L21.1 22.81C20.8732 22.5832 20.7458 22.2757 20.7458 21.955C20.7458 21.6343 20.8732 21.3268 21.1 21.1C21.3268 20.8732 21.6343 20.7458 21.955 20.7458C22.2757 20.7458 22.5832 20.8732 22.81 21.1Z" fill="white"/>
</svg>
