<svg width="32" height="32" viewBox="0 0 32 32" fill="none" xmlns="http://www.w3.org/2000/svg">
<path d="M10.8301 20.1715L20.1699 10.8285M19.3528 6.54963C20.0854 5.81677 21.2737 5.81724 22.0045 6.54833L24.4486 8.99321C25.1805 9.72535 25.1876 10.9052 24.4473 11.6458L20.987 15.1073C20.2543 15.8402 19.0661 15.8397 18.3352 15.1086L15.8912 12.6638C15.1593 11.9316 15.1522 10.7517 15.8925 10.0111L19.3528 6.54963ZM10.0131 15.8927C10.7457 15.1598 11.9339 15.1603 12.6648 15.8914L15.1088 18.3362C15.8407 19.0684 15.8478 20.2483 15.1075 20.9889L11.6472 24.4504C10.9146 25.1832 9.7263 25.1828 8.99546 24.4517L6.55144 22.0068C5.81955 21.2747 5.8124 20.0948 6.55273 19.3542L10.0131 15.8927Z" stroke="white" stroke-width="2"/>
</svg>
