<svg width="32" height="32" viewBox="0 0 32 32" fill="none" xmlns="http://www.w3.org/2000/svg">
<path d="M16.3263 7.38892C13.7479 7.38892 11.275 8.41322 9.4517 10.2365C7.62843 12.0598 6.60413 14.5326 6.60413 17.1111C6.60413 17.4236 6.60413 17.7361 6.65621 18.0313C6.83452 19.9068 7.55393 21.6902 8.72696 23.1644C9.89999 24.6387 11.4761 25.7404 13.2637 26.3355C15.0512 26.9307 16.9731 26.9936 18.7958 26.5167C20.6184 26.0398 22.2633 25.0436 23.5302 23.6493C24.7972 22.2549 25.6318 20.5224 25.9324 18.6626C26.2331 16.8027 25.9869 14.8956 25.2237 13.173C24.4606 11.4505 23.2134 9.98682 21.6338 8.95995C20.0543 7.93308 18.2104 7.38728 16.3263 7.38892ZM16.3263 8.77781C18.5241 8.77696 20.6331 9.6443 22.1944 11.191V11.8854C19.4476 10.9387 16.4611 10.951 13.7222 11.9202C13.5009 11.7083 13.2239 11.5638 12.9236 11.5035H12.75C12.6632 11.2084 12.5937 10.9132 12.5243 10.6181C12.4548 10.3229 12.4201 10.0625 12.3854 9.76739C13.5965 9.11537 14.9509 8.77527 16.3263 8.77781ZM14.243 12.8577C16.7657 12.0112 19.5003 12.0418 22.0034 12.9445C21.6671 14.7082 20.9306 16.3712 19.8507 17.8056C19.5481 17.6781 19.2132 17.648 18.8928 17.7195C18.5723 17.7911 18.2821 17.9607 18.0625 18.2049C17.8194 18.066 17.5763 17.9271 17.368 17.7709C15.9678 16.8361 14.7983 15.5954 13.9479 14.1424C14.0865 13.9717 14.1875 13.7737 14.2444 13.5613C14.3012 13.3489 14.3126 13.1269 14.2777 12.9098L14.243 12.8577ZM11.4652 10.3577C11.4652 10.4966 11.5 10.6528 11.5347 10.8091C11.6041 11.1216 11.6736 11.4167 11.7604 11.7118C11.4941 11.869 11.2798 12.1008 11.1441 12.3785C11.0083 12.6562 10.957 12.9677 10.9965 13.2743C9.90208 13.9884 8.92418 14.8667 8.09718 15.8785C8.26237 14.7803 8.64542 13.7261 9.22382 12.778C9.80221 11.83 10.5643 11.007 11.4652 10.3577ZM11.4652 21.2604C11.1954 21.3515 10.954 21.5115 10.7652 21.7247C10.5764 21.9379 10.4466 22.1968 10.3888 22.4757H9.93746C8.81822 21.1361 8.14996 19.4775 8.02774 17.7361L8.09718 17.5973C8.96401 16.2471 10.0985 15.089 11.4305 14.1945C11.6301 14.4027 11.8824 14.5531 12.1606 14.6295C12.4387 14.7059 12.7324 14.7056 13.0104 14.6285C13.9391 16.1983 15.2089 17.5392 16.7257 18.5521C17.0034 18.7431 17.2986 18.9167 17.5937 19.0729C17.5688 19.3394 17.6106 19.6079 17.7152 19.8542C16.4437 20.8607 14.9778 21.5936 13.4097 22.007C13.2206 21.6786 12.9232 21.4262 12.5684 21.2932C12.2136 21.1602 11.8236 21.1374 11.4652 21.2604ZM16.3263 25.4271C14.917 25.4283 13.5307 25.0697 12.2986 24.3854L12.4895 24.3507C12.7671 24.2594 13.0149 24.0952 13.2073 23.8753C13.3997 23.6554 13.5296 23.3879 13.5833 23.1007C15.359 22.648 17.0168 21.8191 18.4444 20.6702C18.7843 20.8665 19.1846 20.9307 19.5689 20.8506C19.9531 20.7706 20.2945 20.5518 20.5277 20.2361C21.5089 20.4889 22.518 20.6172 23.5312 20.6181H23.8958C23.2263 22.0611 22.1578 23.2824 20.8165 24.1377C19.4752 24.9929 17.9171 25.4464 16.3263 25.4445V25.4271ZM20.8402 19.2466C20.842 18.9534 20.764 18.6654 20.6145 18.4132C21.7732 16.9032 22.5799 15.1534 22.9757 13.2917C23.3229 13.4537 23.6643 13.6331 24 13.8299C24.7649 15.6343 24.8694 17.6505 24.2951 19.5243C23.1418 19.6112 21.9646 19.5175 20.8402 19.2466Z" fill="white"/>
</svg>
