<svg width="32" height="32" viewBox="0 0 32 32" fill="none" xmlns="http://www.w3.org/2000/svg">
<path d="M26.16 14.9599L24.16 13.12L22.4 9.59995C22.2489 9.35417 22.037 9.15146 21.7848 9.01134C21.5326 8.87122 21.2485 8.79842 20.96 8.79995H11.04C10.7515 8.79842 10.4674 8.87122 10.2152 9.01134C9.96299 9.15146 9.75111 9.35417 9.59998 9.59995L7.83998 13.12L5.83998 14.9599C5.76045 15.0378 5.69803 15.1313 5.65671 15.2346C5.61538 15.338 5.59606 15.4487 5.59998 15.56V22.4C5.59998 22.6121 5.68427 22.8156 5.8343 22.9656C5.98433 23.1157 6.18781 23.1999 6.39998 23.1999H9.59998C9.91998 23.1999 10.4 22.8799 10.4 22.5599V21.6H21.6V22.4C21.6 22.72 21.92 23.1999 22.24 23.1999H25.6C25.8122 23.1999 26.0156 23.1157 26.1657 22.9656C26.3157 22.8156 26.4 22.6121 26.4 22.4V15.56C26.4039 15.4487 26.3846 15.338 26.3433 15.2346C26.3019 15.1313 26.2395 15.0378 26.16 14.9599ZM11.2 10.4H20.8L22.4 13.6H9.59998L11.2 10.4ZM12 17.76C12 18.08 11.52 18.4 11.2 18.4H7.83998C7.51998 18.4 7.19998 17.92 7.19998 17.6V15.84C7.35998 15.36 7.67998 15.04 8.15998 15.2L11.36 15.84C11.68 15.84 12 16.32 12 16.64V17.76ZM24.8 17.6C24.8 17.92 24.48 18.4 24.16 18.4H20.8C20.48 18.4 20 18.08 20 17.76V16.64C20 16.32 20.32 15.84 20.64 15.84L23.84 15.2C24.32 15.04 24.64 15.36 24.8 15.84V17.6Z" fill="white"/>
</svg>
