<svg width="35" height="34" viewBox="0 0 35 34" fill="none" xmlns="http://www.w3.org/2000/svg">
<path d="M24.844 11.968C24.096 11.934 23.756 11.934 23.042 11.798C22.94 12.512 22.872 12.886 22.77 13.6C23.484 13.736 23.858 13.736 24.572 13.77C24.674 13.056 24.742 12.716 24.844 11.968Z" fill="white"/>
<path d="M24.5719 13.77C24.4699 14.484 24.4019 14.858 24.2999 15.572C25.0479 15.606 25.3879 15.572 26.1359 15.572C26.2379 14.858 26.3059 14.484 26.4079 13.77C25.6939 13.804 25.3199 13.804 24.5719 13.77Z" fill="white"/>
<path d="M28.278 13.736C28.38 13.022 28.448 12.648 28.55 11.934C27.802 11.934 27.428 11.934 26.714 11.968C26.612 12.682 26.544 13.056 26.442 13.77C27.156 13.736 27.53 13.736 28.278 13.736Z" fill="white"/>
<path d="M28.006 15.538C28.754 15.538 29.094 15.538 29.842 15.64C29.944 14.926 30.012 14.552 30.114 13.838C29.4 13.736 29.026 13.736 28.278 13.736C28.176 14.45 28.108 14.824 28.006 15.538Z" fill="white"/>
<path d="M33.276 9.724C30.964 8.738 29.094 8.874 27.292 9.01C25.558 9.146 23.926 9.282 21.886 8.398L21.818 8.364L21.954 7.412C22.022 7.072 21.784 6.766 21.444 6.698C21.104 6.63 20.798 6.868 20.73 7.208L18.044 24.922C17.874 24.922 17.704 24.888 17.534 24.888C17.364 24.888 17.194 24.888 17.024 24.922L14.338 7.208C14.27 6.868 13.964 6.63 13.624 6.698C13.284 6.766 13.046 7.072 13.114 7.412L13.25 8.364L13.182 8.398C11.142 9.282 9.50998 9.146 7.77598 9.01C5.97398 8.874 4.10398 8.738 1.79198 9.724C1.51998 9.826 1.38398 10.098 1.41798 10.404L2.67598 18.666C2.70998 18.87 2.81198 19.04 2.98198 19.108C3.15198 19.21 3.35598 19.21 3.52598 19.142C5.56598 18.258 7.19798 18.394 8.93198 18.53C10.054 18.632 11.244 18.7 12.502 18.496C13.182 18.394 13.896 18.19 14.678 17.884L15.8 25.194C14.814 25.568 14.168 26.214 14.168 26.996C14.168 27.166 14.304 27.302 14.474 27.302H20.56C20.73 27.302 20.866 27.166 20.866 26.996C20.866 26.214 20.22 25.568 19.234 25.194L20.356 17.884C21.138 18.19 21.852 18.394 22.532 18.496C23.824 18.7 24.98 18.598 26.102 18.53C27.836 18.394 29.468 18.258 31.508 19.142C31.678 19.21 31.882 19.21 32.052 19.108C32.222 19.006 32.324 18.836 32.358 18.666L33.616 10.404C33.684 10.098 33.548 9.826 33.276 9.724ZM14.372 16.66C13.794 16.898 13.284 17.068 12.774 17.17C12.672 16.49 12.604 16.116 12.502 15.436C11.788 15.572 11.414 15.572 10.7 15.606C10.802 16.32 10.87 16.694 10.972 17.374C10.36 17.374 9.74798 17.34 9.10198 17.306C8.99998 16.66 8.93198 16.286 8.82998 15.606C8.08198 15.572 7.70798 15.572 6.99398 15.572C7.09598 16.218 7.16398 16.592 7.23198 17.204C6.65398 17.204 6.04198 17.238 5.39598 17.306C5.32798 16.66 5.25998 16.286 5.19198 15.64C4.51198 15.742 4.13798 15.81 3.49198 16.014L3.21998 14.212C3.86598 14.008 4.23998 13.94 4.91998 13.838C4.81798 13.124 4.74998 12.75 4.64798 12.036C3.96798 12.138 3.59398 12.206 2.94798 12.41L2.67598 10.71C3.25398 10.506 3.83198 10.37 4.37598 10.268C4.47798 10.948 4.54598 11.322 4.64798 12.036C5.36198 11.934 5.73598 11.934 6.48398 11.934C6.38198 11.22 6.31398 10.88 6.21198 10.166C6.68798 10.166 7.16398 10.2 7.63998 10.234C7.77598 10.234 7.91198 10.268 8.04798 10.268C8.14998 10.914 8.21798 11.288 8.31998 11.968C9.06798 12.002 9.44198 12.002 10.156 11.968C10.054 11.322 9.98598 10.948 9.91798 10.336C10.496 10.336 11.108 10.268 11.72 10.132C11.822 10.778 11.856 11.118 11.958 11.798C12.638 11.662 13.012 11.594 13.624 11.322L13.896 13.124C13.25 13.396 12.91 13.498 12.23 13.6C12.332 14.314 12.4 14.688 12.502 15.402C13.182 15.266 13.556 15.198 14.168 14.926L14.44 16.626L14.372 16.66ZM32.052 12.41C31.406 12.206 31.032 12.138 30.352 12.036C30.25 12.75 30.182 13.124 30.08 13.838C30.76 13.94 31.134 14.008 31.78 14.212L31.508 16.014C30.862 15.81 30.488 15.742 29.808 15.64C29.706 16.32 29.638 16.66 29.57 17.306C28.924 17.204 28.346 17.17 27.734 17.204C27.836 16.592 27.87 16.218 27.972 15.572C27.224 15.572 26.85 15.572 26.136 15.606C26.034 16.286 25.966 16.66 25.864 17.306C25.252 17.34 24.64 17.408 23.994 17.374C24.096 16.66 24.164 16.32 24.266 15.606C23.518 15.572 23.178 15.572 22.464 15.436C22.362 16.15 22.294 16.49 22.192 17.17C21.682 17.068 21.138 16.898 20.594 16.66L20.56 16.626L20.832 14.926C21.478 15.198 21.818 15.3 22.498 15.402C22.6 14.688 22.668 14.314 22.77 13.6C22.09 13.464 21.716 13.396 21.104 13.124L21.376 11.322C22.022 11.594 22.362 11.696 23.042 11.798C23.144 11.118 23.212 10.744 23.28 10.132C23.926 10.268 24.504 10.336 25.082 10.336C24.98 10.948 24.946 11.322 24.844 11.968C25.592 12.002 25.932 11.968 26.68 11.968C26.782 11.288 26.85 10.914 26.952 10.268C27.088 10.268 27.224 10.234 27.36 10.234C27.836 10.2 28.312 10.166 28.788 10.166C28.686 10.846 28.618 11.22 28.516 11.934C29.264 11.934 29.604 11.934 30.352 12.036C30.454 11.322 30.522 10.948 30.624 10.268C31.168 10.336 31.712 10.472 32.324 10.71L32.052 12.41Z" fill="white"/>
<path d="M12.23 13.6C12.128 12.886 12.06 12.512 11.958 11.798C11.244 11.934 10.87 11.934 10.156 11.968C10.258 12.682 10.326 13.056 10.428 13.77C11.142 13.77 11.516 13.736 12.23 13.6Z" fill="white"/>
<path d="M8.59192 13.77C8.69392 14.484 8.76192 14.858 8.86392 15.572C9.61192 15.606 9.98592 15.606 10.6999 15.572C10.5979 14.858 10.5299 14.484 10.4279 13.77C9.67992 13.804 9.30592 13.804 8.59192 13.77Z" fill="white"/>
<path d="M8.59201 13.77C8.49001 13.056 8.42201 12.682 8.32001 11.968C7.57201 11.934 7.19801 11.934 6.48401 11.934C6.58601 12.648 6.65401 13.022 6.75601 13.736C7.47001 13.736 7.84401 13.736 8.59201 13.77Z" fill="white"/>
<path d="M4.88599 13.838C4.98799 14.552 5.05599 14.926 5.15799 15.64C5.87199 15.538 6.24599 15.538 6.99399 15.538C6.89199 14.824 6.82399 14.45 6.72199 13.736C6.00799 13.736 5.63399 13.736 4.88599 13.838Z" fill="white"/>
</svg>
