<svg width="31" height="31" viewBox="0 0 31 31" fill="none" xmlns="http://www.w3.org/2000/svg">
<g clip-path="url(#clip0_3283_14101)">
<path d="M1.3219 14.1592C0.730904 14.8462 0.442904 15.7222 0.508904 16.6252C0.577904 17.5282 0.991904 18.3532 1.6789 18.9442L3.9049 20.8582C4.1389 21.0592 4.2829 21.3412 4.3069 21.6502L4.5259 24.5752C4.5949 25.4782 5.0089 26.3032 5.6989 26.8942C6.3859 27.4852 7.2679 27.7702 8.1649 27.7042L11.0899 27.4852C11.3929 27.4582 11.7019 27.5632 11.9359 27.7612L14.1589 29.6752C14.7979 30.2242 15.5869 30.4942 16.3699 30.4942C17.3239 30.4942 18.2749 30.0952 18.9439 29.3152L20.8579 27.0922C21.0619 26.8582 21.3439 26.7142 21.6529 26.6902L24.5779 26.4712C25.4839 26.4022 26.3059 25.9882 26.8969 25.2982C27.4879 24.6112 27.7759 23.7352 27.7069 22.8322L27.4879 19.9072C27.4639 19.5982 27.5629 19.2982 27.7669 19.0612L29.6809 16.8382C30.2719 16.1512 30.5599 15.2752 30.4939 14.3722C30.4249 13.4692 30.0109 12.6442 29.3239 12.0532L27.0979 10.1392C26.8639 9.9382 26.7199 9.6532 26.6959 9.3442L26.4769 6.4192C26.4079 5.5162 25.9939 4.6912 25.3039 4.1002C24.6169 3.5092 23.7349 3.2242 22.8379 3.2902L19.9129 3.5092C19.6069 3.5332 19.3009 3.4312 19.0669 3.2332L16.8439 1.3192C15.4249 0.1012 13.2799 0.2602 12.0589 1.6792L10.1449 3.9022C9.9409 4.1362 9.65891 4.2802 9.34991 4.3042L6.4249 4.5232C5.5189 4.5922 4.6969 5.0062 4.1059 5.6962C3.5149 6.3832 3.2269 7.2592 3.2959 8.1622L3.5149 11.0872C3.5389 11.3962 3.4399 11.6962 3.2359 11.9332L1.3219 14.1592ZM4.9249 13.3912C5.5159 12.7042 5.8039 11.8282 5.7379 10.9222L5.5189 7.9972C5.4709 7.3582 5.9509 6.8002 6.5899 6.7522L9.5179 6.5332C10.4209 6.4642 11.2429 6.0502 11.8339 5.3602L13.7479 3.1372C14.1649 2.6512 14.8999 2.5942 15.3859 3.0142L17.6119 4.9282C18.2899 5.5102 19.1869 5.8072 20.0779 5.7382L23.0029 5.5192C23.3089 5.4922 23.6119 5.5942 23.8489 5.7982C24.0829 5.9992 24.2269 6.2812 24.2509 6.5902L24.4699 9.5182C24.5389 10.4212 24.9529 11.2462 25.6399 11.8372L27.8659 13.7512C28.0999 13.9522 28.2439 14.2342 28.2679 14.5432C28.2919 14.8522 28.1929 15.1522 27.9889 15.3892L26.0749 17.6122C25.4839 18.2992 25.1959 19.1752 25.2619 20.0812L25.4809 23.0062C25.5289 23.6452 25.0489 24.2032 24.4099 24.2512L21.4819 24.4702C20.5789 24.5392 19.7569 24.9532 19.1659 25.6432L17.2519 27.8662C16.8319 28.3522 16.0999 28.4062 15.6139 27.9892L13.3879 26.0752C12.7729 25.5472 11.9779 25.2562 11.1709 25.2562C11.0869 25.2562 11.0029 25.2592 10.9219 25.2652L7.9969 25.4842C7.6909 25.5052 7.3879 25.4092 7.1509 25.2052C6.9169 25.0042 6.7729 24.7222 6.7489 24.4132L6.5299 21.4852C6.4609 20.5792 6.0439 19.7572 5.3569 19.1662L3.1339 17.2522C2.8999 17.0512 2.7589 16.7692 2.7349 16.4602C2.7109 16.1512 2.8099 15.8512 3.0139 15.6142L4.9249 13.3912ZM15.4999 22.1962C19.1929 22.1962 22.1959 19.1932 22.1959 15.5002C22.1959 11.8072 19.1929 8.8042 15.4999 8.8042C11.8069 8.8042 8.8039 11.8072 8.8039 15.5002C8.8039 19.1932 11.8069 22.1962 15.4999 22.1962ZM15.4999 11.0362C17.9629 11.0362 19.9639 13.0402 19.9639 15.5002C19.9639 17.9602 17.9629 19.9642 15.4999 19.9642C13.0369 19.9642 11.0359 17.9602 11.0359 15.5002C11.0359 13.0402 13.0369 11.0362 15.4999 11.0362Z" fill="white"/>
</g>
<defs>
<clipPath id="clip0_3283_14101">
<rect width="30" height="30" fill="white" transform="translate(0.5 0.5)"/>
</clipPath>
</defs>
</svg>
