<svg width="16" height="16" viewBox="0 0 16 16" fill="none" xmlns="http://www.w3.org/2000/svg">
<path d="M1.49994 3.66675H2.94438H14.4999" stroke="white" stroke-width="1.44444" stroke-linecap="round" stroke-linejoin="round"/>
<path d="M5.11094 3.66672V2.22228C5.11094 1.83919 5.26312 1.47179 5.53401 1.2009C5.8049 0.930014 6.1723 0.777832 6.55539 0.777832H9.44427C9.82737 0.777832 10.1948 0.930014 10.4657 1.2009C10.7365 1.47179 10.8887 1.83919 10.8887 2.22228V3.66672M13.0554 3.66672V13.7778C13.0554 14.1609 12.9032 14.5283 12.6323 14.7992C12.3614 15.0701 11.994 15.2223 11.6109 15.2223H4.38872C4.00563 15.2223 3.63823 15.0701 3.36734 14.7992C3.09646 14.5283 2.94427 14.1609 2.94427 13.7778V3.66672H13.0554Z" stroke="white" stroke-width="1.44444" stroke-linecap="round" stroke-linejoin="round"/>
</svg>
