<svg width="33" height="34" viewBox="0 0 33 34" fill="none" xmlns="http://www.w3.org/2000/svg">
<path d="M16.5 5.53595C14.2993 5.53592 12.148 6.20824 10.3182 7.46791C8.48838 8.72758 7.0622 10.518 6.22 12.6128C5.37781 14.7076 5.15744 17.0126 5.58676 19.2364C6.01607 21.4602 7.07579 23.5029 8.6319 25.1062C10.188 26.7095 12.1706 27.8014 14.329 28.2437C16.4874 28.6861 18.7247 28.4591 20.7579 27.5914C22.791 26.7237 24.5288 25.2543 25.7515 23.3691C26.9741 21.4838 27.6267 19.2674 27.6267 17C27.6234 13.9606 26.45 11.0467 24.3641 8.89753C22.2782 6.74836 19.45 5.53942 16.5 5.53595ZM16.5 6.55595C18.7602 6.55911 20.9548 7.33918 22.7362 8.77259C24.5175 10.206 25.7837 12.2108 26.3342 14.4694L20.4518 13.7148C19.9767 13.1058 19.3749 12.6144 18.691 12.2768C18.0071 11.9391 17.2584 11.7639 16.5 11.7639C15.7416 11.7639 14.9929 11.9391 14.309 12.2768C13.6251 12.6144 13.0233 13.1058 12.5482 13.7148L6.66582 14.4694C7.21632 12.2108 8.48252 10.206 10.2638 8.77259C12.0452 7.33918 14.2398 6.55911 16.5 6.55595ZM16.5 21.2161C15.6907 21.2161 14.8995 20.9689 14.2265 20.5056C13.5536 20.0423 13.0291 19.3838 12.7194 18.6134C12.4096 17.843 12.3286 16.9953 12.4865 16.1775C12.6444 15.3596 13.0341 14.6084 13.6064 14.0187C14.1787 13.4291 14.9079 13.0276 15.7017 12.8649C16.4955 12.7022 17.3182 12.7857 18.066 13.1048C18.8137 13.4239 19.4528 13.9643 19.9025 14.6576C20.3521 15.351 20.5921 16.1661 20.5921 17C20.5909 18.1178 20.1594 19.1895 19.3922 19.9799C18.6251 20.7703 17.5849 21.2149 16.5 21.2161ZM6.54099 18.9375L10.3368 19.5792L10.497 18.5725L6.40195 17.8802C6.37828 17.5897 6.36329 17.2967 6.36329 17C6.36385 16.5057 6.39836 16.012 6.46656 15.5227L11.8814 14.828C11.4108 15.8812 11.2945 17.0659 11.551 18.1948C11.8074 19.3237 12.4219 20.3322 13.2973 21.0607L13.7454 27.0489C11.9329 26.5176 10.2993 25.4778 9.02715 24.0454C7.75497 22.6131 6.89422 20.8446 6.54099 18.9375ZM14.7561 27.2862L14.3406 21.733C15.0151 22.0642 15.7528 22.2361 16.5 22.2361C17.2472 22.2361 17.9849 22.0642 18.6594 21.733L18.2439 27.2862C17.0903 27.4967 15.9097 27.4967 14.7561 27.2862H14.7561ZM19.2546 27.0489L19.7027 21.0607C20.5781 20.3322 21.1926 19.3237 21.449 18.1948C21.7055 17.0659 21.5892 15.8812 21.1186 14.8281L26.5334 15.5227C26.6016 16.012 26.6362 16.5057 26.6367 17C26.6367 17.2967 26.6217 17.5897 26.5981 17.8802L22.503 18.5725L22.6632 19.5792L26.459 18.9375C26.1058 20.8447 25.245 22.6131 23.9729 24.0454C22.7007 25.4778 21.0671 26.5176 19.2546 27.0489Z" fill="white"/>
<path d="M16.5 1.87C13.5956 1.87 10.7564 2.75735 8.34145 4.41986C5.92652 6.08237 4.0443 8.44535 2.93283 11.21C1.82136 13.9746 1.53054 17.0168 2.09717 19.9517C2.66379 22.8866 4.0624 25.5826 6.11614 27.6985C8.16987 29.8145 10.7865 31.2555 13.6351 31.8393C16.4837 32.4231 19.4364 32.1234 22.1197 30.9783C24.803 29.8331 27.0965 27.8939 28.7101 25.4058C30.3237 22.9177 31.185 19.9924 31.185 17C31.1806 12.9887 29.632 9.14292 26.879 6.30648C24.126 3.47004 20.3934 1.87453 16.5 1.87ZM16.5 31.11C13.7914 31.11 11.1436 30.2825 8.89147 28.732C6.63933 27.1816 4.88401 24.9779 3.84747 22.3997C2.81093 19.8214 2.53972 16.9843 3.06815 14.2473C3.59657 11.5102 4.90089 8.99604 6.81617 7.02272C8.73145 5.0494 11.1717 3.70555 13.8282 3.16111C16.4848 2.61668 19.2384 2.8961 21.7408 3.96405C24.2433 5.03201 26.3821 6.84052 27.887 9.1609C29.3918 11.4813 30.195 14.2093 30.195 17C30.1909 20.7409 28.7467 24.3274 26.1793 26.9726C23.6119 29.6178 20.1309 31.1057 16.5 31.11Z" fill="white"/>
</svg>
