<svg width="17" height="17" viewBox="0 0 17 17" fill="none" xmlns="http://www.w3.org/2000/svg">
<path d="M13.1823 3.72473C12.3808 2.35078 11.2838 1.59375 10.0938 1.59375H6.90625C5.71625 1.59375 4.61922 2.35078 3.8177 3.72473C3.06863 5.00836 2.65625 6.70703 2.65625 8.5C2.65625 10.293 3.06863 11.9916 3.8177 13.2753C4.61922 14.6492 5.71625 15.4062 6.90625 15.4062H10.0938C11.2838 15.4062 12.3808 14.6492 13.1823 13.2753C13.9314 11.9916 14.3438 10.293 14.3438 8.5C14.3438 6.70703 13.9314 5.00836 13.1823 3.72473ZM13.2673 7.96875H11.1423C11.1008 6.8786 10.8837 5.80228 10.4995 4.78125H12.5309C12.9373 5.66977 13.2055 6.77344 13.2673 7.96875ZM11.8993 3.71875H9.99148C9.76959 3.3338 9.50203 2.97706 9.19461 2.65625H10.0938C10.7578 2.65625 11.382 3.05469 11.8993 3.71875ZM10.0938 14.3438H9.1966C9.50402 14.0229 9.77158 13.6662 9.99348 13.2812H11.9013C11.382 13.9453 10.7578 14.3438 10.0938 14.3438ZM12.5309 12.2188H10.5002C10.8844 11.1977 11.1015 10.1214 11.143 9.03125H13.268C13.2055 10.2266 12.9373 11.3302 12.5309 12.2188Z" fill="black"/>
</svg>
