<svg width="179" height="93" viewBox="0 0 179 93" fill="none" xmlns="http://www.w3.org/2000/svg">
<path d="M40.4576 59.5276L0 75.8834L60.9469 75.8834H78.7998H92.8981H95.3574H101.158H117.481H131.579L134.482 75.8834H179L142.884 62.1902L139.332 55.3436L113.676 0L90.3881 20.5399L64.7321 1.1411L40.4576 59.5276Z" fill="#04050A"/>
<path d="M93.3484 73.411C93.3484 74.2795 93.1895 75.1121 92.8981 75.8834C91.8502 78.6572 89.0896 80.638 85.849 80.638C82.6083 80.638 79.8477 78.6572 78.7998 75.8834C78.5085 75.1121 78.3495 74.2795 78.3495 73.411C78.3495 69.4197 81.7071 66.184 85.849 66.184C89.9908 66.184 93.3484 69.4197 93.3484 73.411Z" fill="#04050A"/>
<path d="M132.03 73.411C132.03 74.2795 131.871 75.1121 131.579 75.8834C130.532 78.6572 127.771 80.638 124.53 80.638C121.29 80.638 118.529 78.6572 117.481 75.8834C117.19 75.1121 117.031 74.2795 117.031 73.411C117.031 69.4197 120.388 66.184 124.53 66.184C128.672 66.184 132.03 69.4197 132.03 73.411Z" fill="#04050A"/>
<path fill-rule="evenodd" clip-rule="evenodd" d="M96.9008 68.4663C96.9008 69.1083 96.8681 69.7428 96.8044 70.3681H99.7571C99.6954 69.7428 99.6637 69.1083 99.6637 68.4663C99.6637 58.1728 107.793 49.8282 117.82 49.8282C127.848 49.8282 135.977 58.1728 135.977 68.4663C135.977 69.1083 135.945 69.7428 135.883 70.3681H141.503L146.634 93L40.2602 93L43.0232 70.3681L59.4999 70.3681C59.4362 69.7428 59.4035 69.1083 59.4035 68.4663C59.4035 58.1728 67.7976 49.8282 78.1522 49.8282C88.5067 49.8282 96.9008 58.1728 96.9008 68.4663ZM95.3574 75.8834H92.8981C91.8502 78.6572 89.0896 80.638 85.849 80.638C82.6083 80.638 79.8477 78.6572 78.7998 75.8834H60.9469C63.8313 82.4863 70.4492 87.1043 78.1522 87.1043C85.8551 87.1043 92.473 82.4863 95.3574 75.8834ZM124.53 80.638C127.771 80.638 130.532 78.6572 131.579 75.8834L134.482 75.8834C131.689 82.4863 125.28 87.1043 117.82 87.1043C110.361 87.1043 103.952 82.4863 101.158 75.8834H117.481C118.529 78.6572 121.29 80.638 124.53 80.638Z" fill="#04050A"/>
</svg>
