<svg xmlns="http://www.w3.org/2000/svg" width="20" height="20" viewBox="0 0 20 20" fill="#000000">
  <path d="M7.81269 2.8125C7.81269 2.37985 7.94098 1.95692 8.18135 1.59719C8.42171 1.23746 8.76335 0.957081 9.16307 0.791515C9.56278 0.625948 10.0026 0.582628 10.4269 0.667033C10.8513 0.751438 11.2411 0.959778 11.547 1.2657C11.8529 1.57163 12.0613 1.96141 12.1457 2.38574C12.2301 2.81007 12.1867 3.24991 12.0212 3.64962C11.8556 4.04933 11.5752 4.39098 11.2155 4.63134C10.8558 4.87171 10.4328 5 10.0002 5C9.42003 5 8.86363 4.76953 8.45339 4.3593C8.04316 3.94906 7.81269 3.39266 7.81269 2.8125ZM16.8299 10.9984L13.2947 6.99063C13.0894 6.75786 12.837 6.57143 12.5541 6.44374C12.2712 6.31605 11.9644 6.25 11.6541 6.25H8.34628C8.03593 6.25 7.72913 6.31605 7.44626 6.44374C7.16339 6.57143 6.91093 6.75786 6.70566 6.99063L3.1705 10.9984C2.94095 11.2333 2.81305 11.5491 2.81446 11.8775C2.81587 12.2059 2.94648 12.5206 3.17803 12.7535C3.40959 12.9864 3.7235 13.1188 4.05191 13.1221C4.38031 13.1254 4.69681 12.9993 4.933 12.7711L6.95331 11.1484L5.41425 16.9984C5.28035 17.299 5.27038 17.6403 5.38652 17.9482C5.50265 18.2561 5.73551 18.5058 6.03457 18.6431C6.33363 18.7804 6.67477 18.7942 6.98396 18.6816C7.29315 18.5689 7.54546 18.3389 7.68612 18.0414L10.0002 14.0625L12.3111 18.0469C12.4518 18.3444 12.7041 18.5744 13.0133 18.687C13.3225 18.7997 13.6636 18.7858 13.9627 18.6485C14.2617 18.5113 14.4946 18.2616 14.6107 17.9537C14.7269 17.6458 14.7169 17.3045 14.583 17.0039L13.0471 11.1484L15.0705 12.7711C15.3067 12.9993 15.6232 13.1254 15.9516 13.1221C16.28 13.1188 16.5939 12.9864 16.8255 12.7535C17.057 12.5206 17.1876 12.2059 17.189 11.8775C17.1904 11.5491 17.0626 11.2333 16.833 10.9984H16.8299Z" fill="#000000"/>
</svg>