<svg width="20" height="9" viewBox="0 0 20 9" fill="none" xmlns="http://www.w3.org/2000/svg">
<path opacity="0.35" d="M0.385918 2.05823C0.385918 1.13464 1.13464 0.385918 2.05823 0.385918H15.4086C16.3322 0.385918 17.0809 1.13464 17.0809 2.05823V6.93982C17.0809 7.86341 16.3322 8.61213 15.4086 8.61213H2.05823C1.13464 8.61213 0.385918 7.86341 0.385918 6.93982V2.05823Z" stroke="black" stroke-width="0.771837"/>
<path opacity="0.4" d="M18.2607 2.91052V6.08574C18.8995 5.81682 19.3149 5.19123 19.3149 4.49813C19.3149 3.80503 18.8995 3.17944 18.2607 2.91052Z" fill="black"/>
<path d="M1.55151 2.51736C1.55151 2.04845 1.93163 1.66833 2.40053 1.66833H14.9935C15.4624 1.66833 15.8425 2.04845 15.8425 2.51736V6.64158C15.8425 7.11048 15.4624 7.4906 14.9935 7.4906H2.40053C1.93163 7.4906 1.55151 7.11048 1.55151 6.64158V2.51736Z" fill="black"/>
</svg>
