<svg xmlns="http://www.w3.org/2000/svg" width="128" height="128" viewBox="0 0 128 128" fill="none">
  <g clip-path="url(#clip0_13_8)">
    <path d="M93 0H35C15.67 0 0 15.67 0 35V93C0 112.33 15.67 128 35 128H93C112.33 128 128 112.33 128 93V35C128 15.67 112.33 0 93 0Z" fill="url(#paint0_radial_13_8)"/>
    
    <rect width="57.735" height="57.735" rx="7" transform="matrix(0.866025 0.5 -0.866025 0.5 64 55)" fill="black"/>
    
    <rect id="color1" width="61.2818" height="61.087" rx="7" transform="matrix(0.866025 0.5 -0.866025 0.5 63.8908 38.986)">
      <animate attributeName="fill" dur="4s" repeatCount="indefinite"
        values="#9ECED7;#D5CB94;#DCABDF;#AFD396;#9ECED7"/>
    </rect>

    <rect id="color2" width="57.735" height="57.735" rx="7" transform="matrix(0.866025 0.5 -0.866025 0.5 64 40)">
      <animate attributeName="fill" dur="4s" repeatCount="indefinite"
        values="#BBE7EF;#EFE7BB;#F0D3F8;#CFE9BC;#BBE7EF"/>
    </rect>

    <g clip-path="url(#clip1_13_8)">
      <path d="M83.2257 72.7007L66.4387 54.4331C66.2066 54.1887 65.8791 53.9788 65.4822 53.8201C65.0854 53.6613 64.63 53.5581 64.1521 53.5185C63.6742 53.4789 63.1869 53.5041 62.7288 53.592C62.2706 53.6799 61.8541 53.8281 61.5123 54.0249L41.7079 65.4591C41.1243 65.796 40.7964 66.253 40.7964 66.7295C40.7964 67.206 41.1243 67.663 41.7079 68C41.9182 68.1215 42.1577 68.225 42.4189 68.3073L57.4235 72.9016L56.0111 73.717C55.4275 74.054 55.0996 74.511 55.0996 74.9875C55.0996 75.464 55.4275 75.921 56.0111 76.258L60.4121 78.7989C60.9957 79.1358 61.7872 79.3251 62.6126 79.3251C63.4379 79.3251 64.2295 79.1358 64.8131 78.7989L68.9253 76.4247L74.0538 77.9961C74.6446 78.1796 75.3218 78.2486 75.9857 78.193C76.6496 78.1374 77.2649 77.9601 77.741 77.6872L82.6921 74.8287C83.1642 74.5538 83.4708 74.1986 83.5669 73.8155C83.663 73.4324 83.5434 73.0416 83.2257 72.7007ZM62.6126 77.5284L58.2116 74.9875L60.2993 73.7822L66.0509 75.5433L62.6126 77.5284ZM75.5405 76.4168L75.5254 76.408L62.6016 72.4529L73.6274 66.0871L80.4765 73.5495L80.4916 73.5582L75.5405 76.4168Z" fill="black"/>
    </g>

    <path d="M46.3358 23.8151L43.131 27.9072C42.4104 28.8273 42.6289 30.1665 43.6045 30.8099L54.1089 37.7372C54.9081 38.2643 55.9688 38.151 56.6387 37.4671L56.6936 37.4111C57.3567 36.734 57.4537 35.6845 56.9257 34.8974L49.5713 23.9341C48.8137 22.8047 47.1743 22.7444 46.3358 23.8151Z" fill="black"/>
    <path d="M66.0732 19.0552L60.9136 19.6826C59.7534 19.8237 58.9609 20.9252 59.1958 22.07L61.7252 34.3961C61.9176 35.3339 62.7477 36.0038 63.705 35.9939L63.7834 35.9931C64.7311 35.9833 65.5418 35.3097 65.725 34.3798L68.2769 21.4272C68.5398 20.093 67.4232 18.8911 66.0732 19.0552Z" fill="black"/>
    <path d="M79.0471 27.483L76.8067 25.9739C75.8374 25.3209 74.5172 25.6347 73.9452 26.6538L69.5819 34.4285C69.2205 35.0726 69.3661 35.8825 69.9294 36.3603C70.4869 36.8332 71.2999 36.8499 71.8764 36.4002L79.1598 30.7188C80.2321 29.8824 80.1749 28.2428 79.0471 27.483Z" fill="black"/>
  </g>
  <rect x="0.5" y="0.5" width="127" height="127" rx="49.5" stroke="white" stroke-opacity="0.25" style="mix-blend-mode:overlay"/>
  <defs>
    <radialGradient id="paint0_radial_13_8" cx="0" cy="0" r="1" gradientUnits="userSpaceOnUse" gradientTransform="translate(64 128) rotate(-90) scale(128)">
      <stop stop-color="white"/>
      <stop offset="1" stop-color="white"/>
    </radialGradient>
    <clipPath id="clip0_13_8">
      <rect width="128" height="128" rx="50" fill="white"/>
    </clipPath>
    <clipPath id="clip1_13_8">
      <rect width="40.6546" height="40.6546" fill="white" transform="matrix(0.866025 0.5 -0.866025 0.5 63.7128 47.6727)"/>
    </clipPath>
  </defs>
</svg>
