<svg width="128" height="128" viewBox="0 0 128 128" fill="none" xmlns="http://www.w3.org/2000/svg">
<g id="calculator">
<g clip-path="url(#clip0_19_517)">
<path id="Vector" d="M93 0H35C15.67 0 0 15.67 0 35V93C0 112.33 15.67 128 35 128H93C112.33 128 128 112.33 128 93V35C128 15.67 112.33 0 93 0Z" fill="url(#paint0_radial_19_517)"/>
<path id="Vector_2" d="M48.0714 23H36.9286C29.236 23 23 29.236 23 36.9286V48.0714C23 55.764 29.236 62 36.9286 62H48.0714C55.764 62 62 55.764 62 48.0714V36.9286C62 29.236 55.764 23 48.0714 23Z" fill="#FFE8BD"/>
<path id="Vector_3" d="M54 42.5C54 42.866 53.8546 43.217 53.5958 43.4758C53.337 43.7346 52.986 43.88 52.62 43.88H43.88V52.62C43.88 52.986 43.7346 53.337 43.4758 53.5958C43.217 53.8546 42.866 54 42.5 54C42.134 54 41.783 53.8546 41.5242 53.5958C41.2654 53.337 41.12 52.986 41.12 52.62V43.88H32.38C32.014 43.88 31.663 43.7346 31.4042 43.4758C31.1454 43.217 31 42.866 31 42.5C31 42.134 31.1454 41.783 31.4042 41.5242C31.663 41.2654 32.014 41.12 32.38 41.12H41.12V32.38C41.12 32.014 41.2654 31.663 41.5242 31.4042C41.783 31.1454 42.134 31 42.5 31C42.866 31 43.217 31.1454 43.4758 31.4042C43.7346 31.663 43.88 32.014 43.88 32.38V41.12H52.62C52.986 41.12 53.337 41.2654 53.5958 41.5242C53.8546 41.783 54 42.134 54 42.5Z" fill="#FDA222"/>
<path id="Vector_4" d="M48.0714 66H36.9286C29.236 66 23 72.236 23 79.9286V91.0714C23 98.764 29.236 105 36.9286 105H48.0714C55.764 105 62 98.764 62 91.0714V79.9286C62 72.236 55.764 66 48.0714 66Z" fill="#FFE8BD"/>
<path id="Vector_5" d="M91.0714 23H79.9286C72.236 23 66 29.236 66 36.9286V48.0714C66 55.764 72.236 62 79.9286 62H91.0714C98.764 62 105 55.764 105 48.0714V36.9286C105 29.236 98.764 23 91.0714 23Z" fill="#FFE8BD"/>
<path id="Vector_6" d="M97 42.5C97 42.8978 96.8546 43.2794 96.5958 43.5607C96.337 43.842 95.986 44 95.62 44H75.38C75.014 44 74.663 43.842 74.4042 43.5607C74.1454 43.2794 74 42.8978 74 42.5C74 42.1022 74.1454 41.7206 74.4042 41.4393C74.663 41.158 75.014 41 75.38 41H95.62C95.986 41 96.337 41.158 96.5958 41.4393C96.8546 41.7206 97 42.1022 97 42.5Z" fill="#FDA222"/>
<path id="Vector_7" d="M91.0714 66H79.9286C72.236 66 66 72.236 66 79.9286V91.0714C66 98.764 72.236 105 79.9286 105H91.0714C98.764 105 105 98.764 105 91.0714V79.9286C105 72.236 98.764 66 91.0714 66Z" fill="#FFE8BD"/>
<path id="Vector_8" d="M97 89.5C97 89.8978 96.8546 90.2794 96.5958 90.5607C96.337 90.842 95.986 91 95.62 91H75.38C75.014 91 74.663 90.842 74.4042 90.5607C74.1454 90.2794 74 89.8978 74 89.5C74 89.1022 74.1454 88.7206 74.4042 88.4393C74.663 88.158 75.014 88 75.38 88H95.62C95.986 88 96.337 88.158 96.5958 88.4393C96.8546 88.7206 97 89.1022 97 89.5ZM75.38 83H95.62C95.986 83 96.337 82.842 96.5958 82.5607C96.8546 82.2794 97 81.8978 97 81.5C97 81.1022 96.8546 80.7206 96.5958 80.4393C96.337 80.158 95.986 80 95.62 80H75.38C75.014 80 74.663 80.158 74.4042 80.4393C74.1454 80.7206 74 81.1022 74 81.5C74 81.8978 74.1454 82.2794 74.4042 82.5607C74.663 82.842 75.014 83 75.38 83Z" fill="#FDA222"/>
<g id="Clip path group">
<mask id="mask0_19_517" style="mask-type:luminance" maskUnits="userSpaceOnUse" x="27" y="70" width="31" height="31">
<g id="clip0_1_50">
<path id="Vector_9" d="M57.4774 70.5227H27.6592V100.341H57.4774V70.5227Z" fill="white"/>
</g>
</mask>
<g mask="url(#mask0_19_517)">
<g id="Group">
<path id="Vector_10" d="M50.8044 77.1956C51.0665 77.4578 51.2138 77.8132 51.2138 78.1839C51.2138 78.5547 51.0665 78.9102 50.8044 79.1723L44.5449 85.4318L50.8044 91.6913C51.0665 91.9534 51.2138 92.3089 51.2138 92.6797C51.2138 93.0503 51.0665 93.4058 50.8044 93.6679C50.5422 93.9301 50.1867 94.0774 49.8161 94.0774C49.4453 94.0774 49.0898 93.9301 48.8277 93.6679L42.5682 87.4085L36.3087 93.6679C36.0466 93.9301 35.691 94.0774 35.3203 94.0774C34.9497 94.0774 34.5942 93.9301 34.332 93.6679C34.0699 93.4058 33.9226 93.0503 33.9226 92.6797C33.9226 92.3089 34.0699 91.9534 34.332 91.6913L40.5915 85.4318L34.332 79.1723C34.0699 78.9102 33.9226 78.5547 33.9226 78.1839C33.9226 77.8132 34.0699 77.4578 34.332 77.1956C34.5942 76.9335 34.9497 76.7862 35.3203 76.7862C35.691 76.7862 36.0466 76.9335 36.3087 77.1956L42.5682 83.4551L48.8277 77.1956C49.0898 76.9335 49.4453 76.7862 49.8161 76.7862C50.1867 76.7862 50.5422 76.9335 50.8044 77.1956Z" fill="#FDA222"/>
</g>
</g>
</g>
</g>
<rect x="0.5" y="0.5" width="127" height="127" rx="49.5" stroke="white" stroke-opacity="0.25" style="mix-blend-mode:overlay"/>
</g>
<defs>
<radialGradient id="paint0_radial_19_517" cx="0" cy="0" r="1" gradientUnits="userSpaceOnUse" gradientTransform="translate(64 128) rotate(-90) scale(128)">
<stop stop-color="#FDA120"/>
<stop offset="1" stop-color="#FEBE44"/>
</radialGradient>
<clipPath id="clip0_19_517">
<rect width="128" height="128" rx="50" fill="white"/>
</clipPath>
</defs>
</svg>
