<svg width="128" height="128" viewBox="0 0 128 128" fill="none" xmlns="http://www.w3.org/2000/svg">
<g clip-path="url(#clip0_19_482)">
<path d="M93 0H35C15.67 0 0 15.67 0 35V93C0 112.33 15.67 128 35 128H93C112.33 128 128 112.33 128 93V35C128 15.67 112.33 0 93 0Z" fill="url(#paint0_radial_19_482)"/>
<path d="M96.968 60.6304L90.5199 54.64L84.8 43.2C84.3088 42.4012 83.6201 41.7424 82.8005 41.287C81.9809 40.8316 81.0577 40.595 80.12 40.6H47.88C46.9423 40.595 46.0192 40.8316 45.1995 41.287C44.3798 41.7424 43.6912 42.4012 43.2 43.2L37.48 54.64L31.032 60.6304C30.7693 60.874 30.5598 61.1693 30.4167 61.4977C30.2735 61.8261 30.1997 62.1805 30.2 62.5388V84.8C30.2 85.4896 30.4739 86.1509 30.9615 86.6385C31.4491 87.1261 32.1105 87.4 32.8 87.4H43.2C44.24 87.4 45.8 86.36 45.8 85.32V82.2H82.1999V84.8C82.1999 85.84 83.2399 87.4 84.2799 87.4H95.2C95.8895 87.4 96.5508 87.1261 97.0385 86.6385C97.5261 86.1509 97.8 85.4896 97.8 84.8V62.5388C97.8003 62.1805 97.7264 61.8261 97.5834 61.4977C97.4401 61.1693 97.2307 60.874 96.968 60.6304ZM48.4 45.8H79.5999L84.8 56.2H43.2L48.4 45.8ZM51 69.72C51 70.76 49.44 71.8 48.4 71.8H37.48C36.44 71.8 35.4 70.24 35.4 69.2V63.48C35.92 61.92 36.96 60.88 38.52 61.4L48.9199 63.48C49.9599 63.48 51 65.04 51 66.08V69.72ZM92.5999 69.2C92.5999 70.24 91.5599 71.8 90.5199 71.8H79.5999C78.5599 71.8 77 70.76 77 69.72V66.08C77 65.04 78.04 63.48 79.08 63.48L89.48 61.4C91.04 60.88 92.0799 61.92 92.5999 63.48V69.2Z" fill="url(#paint1_linear_19_482)"/>
</g>
<rect x="0.5" y="0.5" width="127" height="127" rx="49.5" stroke="white" stroke-opacity="0.25" style="mix-blend-mode:overlay"/>
<defs>
<radialGradient id="paint0_radial_19_482" cx="0" cy="0" r="1" gradientUnits="userSpaceOnUse" gradientTransform="translate(64 155.5) rotate(-90) scale(155.5)">
<stop stop-color="#DE1636"/>
<stop offset="1" stop-color="#FE2C4E"/>
</radialGradient>
<linearGradient id="paint1_linear_19_482" x1="64" y1="40.5999" x2="64" y2="116" gradientUnits="userSpaceOnUse">
<stop stop-color="#FFF9FB"/>
<stop offset="1" stop-color="#FFD2DC"/>
</linearGradient>
<clipPath id="clip0_19_482">
<rect width="128" height="128" rx="50" fill="white"/>
</clipPath>
</defs>
</svg>
