<svg width="128" height="128" viewBox="0 0 128 128" fill="none" xmlns="http://www.w3.org/2000/svg">
<g id="jobs">
<g clip-path="url(#clip0_81_29)">
<path id="Vector" d="M93 0H35C15.67 0 0 15.67 0 35V93C0 112.33 15.67 128 35 128H93C112.33 128 128 112.33 128 93V35C128 15.67 112.33 0 93 0Z" fill="black"/>
<path id="Vector_2" d="M123.804 123.805C123.426 124.184 122.976 124.484 122.481 124.689C121.986 124.894 121.456 125 120.92 125C120.384 125 119.854 124.894 119.359 124.689C118.864 124.484 118.414 124.184 118.036 123.805L92.5251 98.2964C83.6535 105.675 72.2782 109.35 60.7652 108.558C49.2522 107.766 38.4878 102.567 30.7112 94.0427C22.9346 85.5186 18.7443 74.3255 19.0121 62.7917C19.2798 51.2579 23.9849 40.2712 32.1487 32.117C40.3125 23.9627 51.3065 19.2687 62.8439 19.0112C74.3813 18.7537 85.5739 22.9526 94.0935 30.7345C102.613 38.5165 107.804 49.2823 108.586 60.7927C109.369 72.3031 105.682 83.672 98.2938 92.5345L123.804 118.038C124.183 118.416 124.484 118.866 124.689 119.36C124.894 119.855 125 120.386 125 120.921C125 121.457 124.894 121.987 124.689 122.482C124.484 122.977 124.183 123.426 123.804 123.805ZM63.8449 100.543C71.1017 100.543 78.1956 98.3918 84.2294 94.3613C90.2632 90.3307 94.966 84.602 97.7431 77.8995C100.52 71.197 101.247 63.8218 99.831 56.7064C98.4153 49.5911 94.9208 43.0552 89.7894 37.9253C84.6581 32.7955 78.1204 29.302 71.003 27.8867C63.8856 26.4713 56.5082 27.1977 49.8038 29.974C43.0994 32.7503 37.369 37.4517 33.3373 43.4838C29.3056 49.5159 27.1537 56.6077 27.1537 63.8625C27.1645 73.5874 31.0337 82.911 37.9122 89.7876C44.7908 96.6643 54.1171 100.532 63.8449 100.543Z" fill="white"/>
<g id="Vector_3">
<path d="M55.1673 45.9491C55.5288 45.9488 55.8867 46.0201 56.2207 46.1589C56.5547 46.2976 56.8583 46.5011 57.114 46.7578L76.3738 66.1106C76.6293 66.3675 76.8318 66.6725 76.9699 67.0081C77.108 67.3437 77.1789 67.7034 77.1786 68.0666V87.3568C77.7217 87.0454 78.2553 86.7148 78.7782 86.3654C83.3005 83.3437 86.8253 79.0488 88.9067 74.0238C90.9881 68.9988 91.5327 63.4695 90.4716 58.135C89.4105 52.8005 86.7914 47.9005 82.9454 44.0546C79.0995 40.2086 74.1995 37.5895 68.865 36.5284C63.5305 35.4673 58.0012 36.0119 52.9762 38.0933C48.8276 39.8117 45.1766 42.5139 42.3288 45.9491H55.1673Z" fill="#FFD635"/>
<path d="M71.6758 70.8313H55.1673C54.4376 70.8313 53.7378 70.54 53.2218 70.0215C52.7058 69.503 52.4159 68.7998 52.4159 68.0666V51.4785H38.7667C36.9531 55.2099 36 59.3188 36 63.5C36.0081 70.791 38.908 77.781 44.0635 82.9365C49.219 88.092 56.209 90.9919 63.5 91C66.2875 91 69.043 90.5764 71.6758 89.7565V70.8313Z" fill="#FFD635"/>
<path d="M57.9188 65.3019H67.786L57.9188 55.3871V65.3019Z" fill="#FFD635"/>
</g>
</g>
<rect x="0.5" y="0.5" width="127" height="127" rx="49.5" stroke="white" stroke-opacity="0.25" style="mix-blend-mode:overlay"/>
</g>
<defs>
<clipPath id="clip0_81_29">
<rect width="128" height="128" rx="50" fill="white"/>
</clipPath>
</defs>
</svg>
