<svg width="14" height="9" viewBox="0 0 14 9" fill="none" xmlns="http://www.w3.org/2000/svg">
<path fill-rule="evenodd" clip-rule="evenodd" d="M13.1765 0H12.3529C11.8981 0 11.5294 0.365083 11.5294 0.815435V3.08L14 5.08V0.815435C14 0.365083 13.6313 0 13.1765 0ZM8.84157 0.902683H9.33333C9.78816 0.902683 10.1569 1.26777 10.1569 1.71812V2.05548L8.84157 0.902683ZM5.4902 3.80537H4.66667C4.21184 3.80537 3.84314 4.17045 3.84314 4.6208V8.18456C3.84314 8.63492 4.21184 9 4.66667 9H5.4902C5.94502 9 6.31372 8.63492 6.31372 8.18456V4.6208C6.31372 4.17045 5.94502 3.80537 5.4902 3.80537ZM1.64706 5.43624H0.823529C0.368707 5.43624 0 5.80132 0 6.25167L0 8.18456C0 8.63492 0.368707 9 0.823529 9H1.64706C2.10188 9 2.47059 8.63492 2.47059 8.18456V6.25167C2.47059 5.80132 2.10188 5.43624 1.64706 5.43624Z" fill="black"/>
<path d="M9.33333 9C9.78816 9 10.1569 8.63492 10.1569 8.18457V7.26945L11.6561 8.58343C12 9 12.7869 9.12755 13.1014 8.85185L13.5 8.5C13.98 8 13.79 7.41 13.3647 7.08587L11.5294 5.4773L10.1569 4.27433L5.77434 0.43325C5.29065 0.00931102 4.64353 -0.110865 4.32898 0.164828L3.75943 0.664015C3.44487 0.939709 3.58199 1.50687 4.06569 1.93081L7.68627 5.10409V8.18457C7.68627 8.63492 8.05498 9 8.5098 9H9.33333Z" fill="black"/>
</svg>
