<svg width="128" height="128" viewBox="0 0 128 128" fill="none" xmlns="http://www.w3.org/2000/svg">
<rect width="128" height="128" rx="50" fill="url(#paint0_radial_19_559)"/>
<rect x="0.5" y="0.5" width="127" height="127" rx="49.5" stroke="white" stroke-opacity="0.25" style="mix-blend-mode:overlay"/>
<g filter="url(#filter1_d_19_559)">
<path fill-rule="evenodd" clip-rule="evenodd" d="M97 32V92C97 95.1826 95.7357 98.2348 93.4853 100.485C91.2348 102.736 88.1826 104 85 104H43C39.8174 104 36.7652 102.736 34.5147 100.485C32.2643 98.2348 31 95.1826 31 92V32C31 31.2044 31.3161 30.4413 31.8787 29.8787C32.4413 29.3161 33.2044 29 34 29H43H61H85H94C94.7956 29 95.5587 29.3161 96.1213 29.8787C96.6839 30.4413 97 31.2044 97 32Z" fill="white"/>
</g>
<path d="M86 65C86 65.7957 85.6587 66.5587 85.0513 67.1213C84.4439 67.6839 83.62 68 82.7609 68H44.2391C43.38 68 42.5561 67.6839 41.9487 67.1213C41.3413 66.5587 41 65.7957 41 65C41 64.2044 41.3413 63.4413 41.9487 62.8787C42.5561 62.3161 43.38 62 44.2391 62H82.7609C83.62 62 84.4439 62.3161 85.0513 62.8787C85.6587 63.4413 86 64.2044 86 65ZM82.7609 74H44.2391C43.38 74 42.5561 74.3161 41.9487 74.8787C41.3413 75.4413 41 76.2044 41 77C41 77.7956 41.3413 78.5587 41.9487 79.1213C42.5561 79.6839 43.38 80 44.2391 80H82.7609C83.62 80 84.4439 79.6839 85.0513 79.1213C85.6587 78.5587 86 77.7956 86 77C86 76.2044 85.6587 75.4413 85.0513 74.8787C84.4439 74.3161 83.62 74 82.7609 74Z" fill="#B1B1B1"/>
<g filter="url(#filter2_d_19_559)">
<rect x="45" y="42" width="19" height="6" rx="3" transform="rotate(-90 45 42)" fill="url(#paint1_radial_19_559)"/>
</g>
<g filter="url(#filter3_d_19_559)">
<rect x="61" y="42" width="19" height="6" rx="3" transform="rotate(-90 61 42)" fill="url(#paint2_radial_19_559)"/>
</g>
<g filter="url(#filter4_d_19_559)">
<rect x="77" y="42" width="19" height="6" rx="3" transform="rotate(-90 77 42)" fill="url(#paint3_radial_19_559)"/>
</g>
<rect x="26" y="36" width="76" height="10" rx="4" fill="url(#paint4_radial_19_559)"/>
<defs>
<filter id="filter1_d_19_559" x="26.2" y="28.2" width="75.6" height="84.6" filterUnits="userSpaceOnUse" color-interpolation-filters="sRGB">
<feFlood flood-opacity="0" result="BackgroundImageFix"/>
<feColorMatrix in="SourceAlpha" type="matrix" values="0 0 0 0 0 0 0 0 0 0 0 0 0 0 0 0 0 0 127 0" result="hardAlpha"/>
<feOffset dy="4"/>
<feGaussianBlur stdDeviation="2.4"/>
<feComposite in2="hardAlpha" operator="out"/>
<feColorMatrix type="matrix" values="0 0 0 0 0 0 0 0 0 0 0 0 0 0 0 0 0 0 0.15 0"/>
<feBlend mode="normal" in2="BackgroundImageFix" result="effect1_dropShadow_19_559"/>
<feBlend mode="normal" in="SourceGraphic" in2="effect1_dropShadow_19_559" result="shape"/>
</filter>
<filter id="filter2_d_19_559" x="40.2" y="20.2" width="15.6" height="28.6" filterUnits="userSpaceOnUse" color-interpolation-filters="sRGB">
<feFlood flood-opacity="0" result="BackgroundImageFix"/>
<feColorMatrix in="SourceAlpha" type="matrix" values="0 0 0 0 0 0 0 0 0 0 0 0 0 0 0 0 0 0 127 0" result="hardAlpha"/>
<feOffset dy="2"/>
<feGaussianBlur stdDeviation="2.4"/>
<feComposite in2="hardAlpha" operator="out"/>
<feColorMatrix type="matrix" values="0 0 0 0 0 0 0 0 0 0 0 0 0 0 0 0 0 0 0.15 0"/>
<feBlend mode="normal" in2="BackgroundImageFix" result="effect1_dropShadow_19_559"/>
<feBlend mode="normal" in="SourceGraphic" in2="effect1_dropShadow_19_559" result="shape"/>
</filter>
<filter id="filter3_d_19_559" x="56.2" y="20.2" width="15.6" height="28.6" filterUnits="userSpaceOnUse" color-interpolation-filters="sRGB">
<feFlood flood-opacity="0" result="BackgroundImageFix"/>
<feColorMatrix in="SourceAlpha" type="matrix" values="0 0 0 0 0 0 0 0 0 0 0 0 0 0 0 0 0 0 127 0" result="hardAlpha"/>
<feOffset dy="2"/>
<feGaussianBlur stdDeviation="2.4"/>
<feComposite in2="hardAlpha" operator="out"/>
<feColorMatrix type="matrix" values="0 0 0 0 0 0 0 0 0 0 0 0 0 0 0 0 0 0 0.15 0"/>
<feBlend mode="normal" in2="BackgroundImageFix" result="effect1_dropShadow_19_559"/>
<feBlend mode="normal" in="SourceGraphic" in2="effect1_dropShadow_19_559" result="shape"/>
</filter>
<filter id="filter4_d_19_559" x="72.2" y="20.2" width="15.6" height="28.6" filterUnits="userSpaceOnUse" color-interpolation-filters="sRGB">
<feFlood flood-opacity="0" result="BackgroundImageFix"/>
<feColorMatrix in="SourceAlpha" type="matrix" values="0 0 0 0 0 0 0 0 0 0 0 0 0 0 0 0 0 0 127 0" result="hardAlpha"/>
<feOffset dy="2"/>
<feGaussianBlur stdDeviation="2.4"/>
<feComposite in2="hardAlpha" operator="out"/>
<feColorMatrix type="matrix" values="0 0 0 0 0 0 0 0 0 0 0 0 0 0 0 0 0 0 0.15 0"/>
<feBlend mode="normal" in2="BackgroundImageFix" result="effect1_dropShadow_19_559"/>
<feBlend mode="normal" in="SourceGraphic" in2="effect1_dropShadow_19_559" result="shape"/>
</filter>
<radialGradient id="paint0_radial_19_559" cx="0" cy="0" r="1" gradientUnits="userSpaceOnUse" gradientTransform="translate(64 128) rotate(-90) scale(128)">
<stop stop-color="#FD4C20"/>
<stop offset="1" stop-color="#FE8544"/>
</radialGradient>
<radialGradient id="paint1_radial_19_559" cx="0" cy="0" r="1" gradientUnits="userSpaceOnUse" gradientTransform="translate(64.375 49.8) rotate(-155.084) scale(21.3633 332.515)">
<stop stop-color="#888888"/>
<stop offset="1" stop-color="#656565"/>
</radialGradient>
<radialGradient id="paint2_radial_19_559" cx="0" cy="0" r="1" gradientUnits="userSpaceOnUse" gradientTransform="translate(80.375 49.8) rotate(-155.084) scale(21.3633 332.515)">
<stop stop-color="#888888"/>
<stop offset="1" stop-color="#656565"/>
</radialGradient>
<radialGradient id="paint3_radial_19_559" cx="0" cy="0" r="1" gradientUnits="userSpaceOnUse" gradientTransform="translate(96.375 49.8) rotate(-155.084) scale(21.3633 332.515)">
<stop stop-color="#888888"/>
<stop offset="1" stop-color="#656565"/>
</radialGradient>
<radialGradient id="paint4_radial_19_559" cx="0" cy="0" r="1" gradientUnits="userSpaceOnUse" gradientTransform="translate(64 46) rotate(-90) scale(10 76)">
<stop stop-color="#46B727"/>
<stop offset="1" stop-color="#93ED58"/>
</radialGradient>
</defs>
</svg>
