<svg width="128" height="128" viewBox="0 0 128 128" fill="none" xmlns="http://www.w3.org/2000/svg">
<g id="phone">
<g clip-path="url(#clip0_19_489)">
<path id="Vector" d="M93 0H35C15.67 0 0 15.67 0 35V93C0 112.33 15.67 128 35 128H93C112.33 128 128 112.33 128 93V35C128 15.67 112.33 0 93 0Z" fill="url(#paint0_radial_19_489)"/>
<path id="Vector_2" d="M94.0001 78.76V87.76C94.0035 88.5955 93.8324 89.4225 93.4976 90.188C93.1629 90.9536 92.672 91.6408 92.0563 92.2056C91.4407 92.7704 90.7138 93.2004 89.9224 93.4681C89.1309 93.7358 88.2922 93.8352 87.4601 93.76C78.2286 92.7569 69.3611 89.6024 61.5701 84.55C54.3216 79.944 48.1761 73.7985 43.5701 66.55C38.5 58.7236 35.3448 49.813 34.3601 40.54C34.2851 39.7104 34.3837 38.8743 34.6496 38.0849C34.9155 37.2955 35.3428 36.5701 35.9044 35.9548C36.466 35.3396 37.1495 34.8481 37.9115 34.5116C38.6734 34.175 39.4971 34.0008 40.3301 34H49.3301C50.786 33.9857 52.1975 34.5012 53.3014 35.4506C54.4053 36.3999 55.1263 37.7183 55.3301 39.16C55.71 42.0402 56.4145 44.8682 57.4301 47.59C57.8337 48.6638 57.9211 49.8307 57.6818 50.9526C57.4426 52.0745 56.8867 53.1043 56.0801 53.92L52.2701 57.73C56.5408 65.2406 62.7595 71.4593 70.2701 75.73L74.0801 71.92C74.8958 71.1134 75.9256 70.5575 77.0475 70.3183C78.1694 70.079 79.3363 70.1664 80.4101 70.57C83.1319 71.5856 85.9599 72.2901 88.8401 72.67C90.2974 72.8756 91.6283 73.6096 92.5797 74.7325C93.5311 75.8553 94.0366 77.2887 94.0001 78.76Z" fill="#F1FFE9"/>
</g>
<rect x="0.5" y="0.5" width="127" height="127" rx="49.5" stroke="white" stroke-opacity="0.25" style="mix-blend-mode:overlay"/>
</g>
<defs>
<radialGradient id="paint0_radial_19_489" cx="0" cy="0" r="1" gradientUnits="userSpaceOnUse" gradientTransform="translate(64 128) rotate(-90) scale(128)">
<stop stop-color="#46B727"/>
<stop offset="1" stop-color="#93ED58"/>
</radialGradient>
<clipPath id="clip0_19_489">
<rect width="128" height="128" rx="50" fill="white"/>
</clipPath>
</defs>
</svg>
