<svg width="128" height="128" viewBox="0 0 128 128" fill="none" xmlns="http://www.w3.org/2000/svg">
<g id="photo">
<g clip-path="url(#clip0_19_492)">
<path id="Vector" d="M93 0H35C15.67 0 0 15.67 0 35V93C0 112.33 15.67 128 35 128H93C112.33 128 128 112.33 128 93V35C128 15.67 112.33 0 93 0Z" fill="url(#paint0_radial_19_492)"/>
<g id="Group" filter="url(#filter0_d_19_492)">
<path id="Vector_2" d="M64 101C84.4345 101 101 84.4345 101 64C101 43.5655 84.4345 27 64 27C43.5655 27 27 43.5655 27 64C27 84.4345 43.5655 101 64 101Z" fill="#FCFCFC"/>
</g>
<path id="Vector_3" d="M64 89C77.8071 89 89 77.8071 89 64C89 50.1929 77.8071 39 64 39C50.1929 39 39 50.1929 39 64C39 77.8071 50.1929 89 64 89Z" fill="#17191A"/>
<path id="Vector_4" d="M64 77.5C71.4558 77.5 77.5 71.4558 77.5 64C77.5 56.5442 71.4558 50.5 64 50.5C56.5442 50.5 50.5 56.5442 50.5 64C50.5 71.4558 56.5442 77.5 64 77.5Z" fill="#17191A" stroke="#57595B" stroke-width="3"/>
<path id="Vector_5" d="M64 68C66.2091 68 68 66.2091 68 64C68 61.7909 66.2091 60 64 60C61.7909 60 60 61.7909 60 64C60 66.2091 61.7909 68 64 68Z" fill="#57595B"/>
</g>
<rect x="0.5" y="0.5" width="127" height="127" rx="49.5" stroke="white" stroke-opacity="0.25" style="mix-blend-mode:overlay"/>
</g>
<defs>
<filter id="filter0_d_19_492" x="22.2" y="26.2" width="83.6" height="83.6" filterUnits="userSpaceOnUse" color-interpolation-filters="sRGB">
<feFlood flood-opacity="0" result="BackgroundImageFix"/>
<feColorMatrix in="SourceAlpha" type="matrix" values="0 0 0 0 0 0 0 0 0 0 0 0 0 0 0 0 0 0 127 0" result="hardAlpha"/>
<feOffset dy="4"/>
<feGaussianBlur stdDeviation="2.4"/>
<feComposite in2="hardAlpha" operator="out"/>
<feColorMatrix type="matrix" values="0 0 0 0 0 0 0 0 0 0 0 0 0 0 0 0 0 0 0.15 0"/>
<feBlend mode="normal" in2="BackgroundImageFix" result="effect1_dropShadow_19_492"/>
<feBlend mode="normal" in="SourceGraphic" in2="effect1_dropShadow_19_492" result="shape"/>
</filter>
<radialGradient id="paint0_radial_19_492" cx="0" cy="0" r="1" gradientUnits="userSpaceOnUse" gradientTransform="translate(64 128) rotate(-90) scale(128)">
<stop stop-color="#D3D7E2"/>
<stop offset="1" stop-color="#F7F8FD"/>
</radialGradient>
<clipPath id="clip0_19_492">
<rect width="128" height="128" rx="50" fill="white"/>
</clipPath>
</defs>
</svg>
