<svg width="128" height="128" viewBox="0 0 128 128" fill="none" xmlns="http://www.w3.org/2000/svg">
<g clip-path="url(#clip0_26_25)">
<path d="M93 0H35C15.67 0 0 15.67 0 35V93C0 112.33 15.67 128 35 128H93C112.33 128 128 112.33 128 93V35C128 15.67 112.33 0 93 0Z" fill="url(#paint0_radial_26_25)"/>
<g filter="url(#filter0_d_26_25)">
<mask id="path-4-outside-1_26_25" maskUnits="userSpaceOnUse" x="40" y="29" width="47" height="71" fill="black">
<rect fill="white" x="40" y="29" width="47" height="71"/>
<path d="M55.5114 77.9403V76.8295C55.5331 73.018 55.8707 69.9796 56.5241 67.7145C57.1993 65.4493 58.1795 63.6198 59.4645 62.2259C60.7495 60.8319 62.2959 59.5687 64.1037 58.4361C65.4541 57.5649 66.6629 56.661 67.7301 55.7244C68.7973 54.7879 69.6468 53.7533 70.2784 52.6207C70.91 51.4664 71.2259 50.1813 71.2259 48.7656C71.2259 47.2628 70.8665 45.9451 70.1477 44.8125C69.429 43.6799 68.4598 42.8087 67.2401 42.1989C66.0421 41.589 64.7135 41.2841 63.2543 41.2841C61.8385 41.2841 60.4991 41.5999 59.2358 42.2315C57.9725 42.8414 56.938 43.7562 56.1321 44.9759C55.3262 46.1738 54.8906 47.6657 54.8253 49.4517H41.4957C41.6046 45.0956 42.6501 41.5019 44.6321 38.6705C46.6141 35.8172 49.2386 33.6937 52.5057 32.2997C55.7727 30.884 59.3774 30.1761 63.3196 30.1761C67.6539 30.1761 71.4872 30.8949 74.8196 32.3324C78.152 33.7481 80.7656 35.8063 82.6605 38.5071C84.5554 41.2079 85.5028 44.464 85.5028 48.2756C85.5028 50.8239 85.0781 53.089 84.2287 55.071C83.401 57.0312 82.2358 58.7737 80.733 60.2983C79.2301 61.8011 77.455 63.1624 75.4077 64.3821C73.687 65.4058 72.2713 66.473 71.1605 67.5838C70.0715 68.6946 69.2547 69.9796 68.7102 71.4389C68.1875 72.8982 67.9152 74.6951 67.8935 76.8295V77.9403H55.5114ZM61.9801 98.8494C59.8021 98.8494 57.9399 98.0871 56.3935 96.5625C54.8688 95.0161 54.1174 93.1648 54.1392 91.0085C54.1174 88.8741 54.8688 87.0445 56.3935 85.5199C57.9399 83.9953 59.8021 83.233 61.9801 83.233C64.0492 83.233 65.8679 83.9953 67.4361 85.5199C69.0043 87.0445 69.7992 88.8741 69.821 91.0085C69.7992 92.446 69.4181 93.7637 68.6776 94.9616C67.9588 96.1378 67.0114 97.0852 65.8352 97.804C64.6591 98.5009 63.3741 98.8494 61.9801 98.8494Z"/>
</mask>
<path d="M55.5114 77.9403V76.8295C55.5331 73.018 55.8707 69.9796 56.5241 67.7145C57.1993 65.4493 58.1795 63.6198 59.4645 62.2259C60.7495 60.8319 62.2959 59.5687 64.1037 58.4361C65.4541 57.5649 66.6629 56.661 67.7301 55.7244C68.7973 54.7879 69.6468 53.7533 70.2784 52.6207C70.91 51.4664 71.2259 50.1813 71.2259 48.7656C71.2259 47.2628 70.8665 45.9451 70.1477 44.8125C69.429 43.6799 68.4598 42.8087 67.2401 42.1989C66.0421 41.589 64.7135 41.2841 63.2543 41.2841C61.8385 41.2841 60.4991 41.5999 59.2358 42.2315C57.9725 42.8414 56.938 43.7562 56.1321 44.9759C55.3262 46.1738 54.8906 47.6657 54.8253 49.4517H41.4957C41.6046 45.0956 42.6501 41.5019 44.6321 38.6705C46.6141 35.8172 49.2386 33.6937 52.5057 32.2997C55.7727 30.884 59.3774 30.1761 63.3196 30.1761C67.6539 30.1761 71.4872 30.8949 74.8196 32.3324C78.152 33.7481 80.7656 35.8063 82.6605 38.5071C84.5554 41.2079 85.5028 44.464 85.5028 48.2756C85.5028 50.8239 85.0781 53.089 84.2287 55.071C83.401 57.0312 82.2358 58.7737 80.733 60.2983C79.2301 61.8011 77.455 63.1624 75.4077 64.3821C73.687 65.4058 72.2713 66.473 71.1605 67.5838C70.0715 68.6946 69.2547 69.9796 68.7102 71.4389C68.1875 72.8982 67.9152 74.6951 67.8935 76.8295V77.9403H55.5114ZM61.9801 98.8494C59.8021 98.8494 57.9399 98.0871 56.3935 96.5625C54.8688 95.0161 54.1174 93.1648 54.1392 91.0085C54.1174 88.8741 54.8688 87.0445 56.3935 85.5199C57.9399 83.9953 59.8021 83.233 61.9801 83.233C64.0492 83.233 65.8679 83.9953 67.4361 85.5199C69.0043 87.0445 69.7992 88.8741 69.821 91.0085C69.7992 92.446 69.4181 93.7637 68.6776 94.9616C67.9588 96.1378 67.0114 97.0852 65.8352 97.804C64.6591 98.5009 63.3741 98.8494 61.9801 98.8494Z" fill="url(#paint1_radial_26_25)" shape-rendering="crispEdges"/>
<path d="M55.5114 77.9403H54.5114V78.9403H55.5114V77.9403ZM55.5114 76.8295L54.5114 76.8238V76.8295H55.5114ZM56.5241 67.7145L55.5658 67.4288L55.5633 67.4373L56.5241 67.7145ZM64.1037 58.4361L64.6347 59.2836L64.6458 59.2764L64.1037 58.4361ZM67.7301 55.7244L67.0705 54.9728L67.0705 54.9728L67.7301 55.7244ZM70.2784 52.6207L71.1518 53.1078L71.1557 53.1008L70.2784 52.6207ZM70.1477 44.8125L69.3034 45.3483L69.3034 45.3483L70.1477 44.8125ZM67.2401 42.1989L66.7864 43.09L66.7928 43.0933L67.2401 42.1989ZM59.2358 42.2315L59.6706 43.1322L59.683 43.126L59.2358 42.2315ZM56.1321 44.9759L56.9619 45.534L56.9664 45.5271L56.1321 44.9759ZM54.8253 49.4517V50.4517H55.7894L55.8246 49.4883L54.8253 49.4517ZM41.4957 49.4517L40.4961 49.4267L40.4704 50.4517H41.4957V49.4517ZM44.6321 38.6705L45.4513 39.2439L45.4534 39.241L44.6321 38.6705ZM52.5057 32.2997L52.8981 33.2195L52.9033 33.2173L52.5057 32.2997ZM74.8196 32.3324L74.4235 33.2506L74.4286 33.2528L74.8196 32.3324ZM82.6605 38.5071L81.8419 39.0814L81.8419 39.0815L82.6605 38.5071ZM84.2287 55.071L83.3095 54.6771L83.3074 54.682L84.2287 55.071ZM80.733 60.2983L81.4401 61.0054L81.4451 61.0003L80.733 60.2983ZM75.4077 64.3821L75.919 65.2415L75.9195 65.2412L75.4077 64.3821ZM71.1605 67.5838L70.4534 66.8767L70.4464 66.8837L71.1605 67.5838ZM68.7102 71.4389L67.7732 71.0893L67.7688 71.1017L68.7102 71.4389ZM67.8935 76.8295L66.8935 76.8193V76.8295H67.8935ZM67.8935 77.9403V78.9403H68.8935V77.9403H67.8935ZM56.3935 96.5625L55.6814 97.2646L55.6863 97.2696L55.6914 97.2746L56.3935 96.5625ZM54.1392 91.0085L55.1392 91.0186L55.1393 91.0085L55.1392 90.9983L54.1392 91.0085ZM56.3935 85.5199L55.6914 84.8078L55.6864 84.8128L56.3935 85.5199ZM67.4361 85.5199L66.739 86.2369L66.739 86.2369L67.4361 85.5199ZM69.821 91.0085L70.8209 91.0237L70.8211 91.011L70.821 90.9983L69.821 91.0085ZM68.6776 94.9616L67.827 94.4358L67.8243 94.4402L68.6776 94.9616ZM65.8352 97.804L66.3451 98.6643L66.3567 98.6573L65.8352 97.804ZM55.5114 77.9403H56.5114V76.8295H55.5114H54.5114V77.9403H55.5114ZM55.5114 76.8295L56.5113 76.8353C56.5329 73.0665 56.8678 70.1313 57.485 67.9916L56.5241 67.7145L55.5633 67.4373C54.8737 69.8279 54.5334 72.9695 54.5114 76.8238L55.5114 76.8295ZM56.5241 67.7145L57.4825 68.0001C58.1246 65.8458 59.0402 64.1614 60.1997 62.9037L59.4645 62.2259L58.7292 61.548C57.3187 63.0782 56.274 65.0528 55.5658 67.4288L56.5241 67.7145ZM59.4645 62.2259L60.1997 62.9037C61.4175 61.5827 62.8929 60.3747 64.6346 59.2835L64.1037 58.4361L63.5728 57.5887C61.6989 58.7626 60.0815 60.0812 58.7292 61.548L59.4645 62.2259ZM64.1037 58.4361L64.6458 59.2764C66.0322 58.3819 67.2811 57.4489 68.3897 56.4761L67.7301 55.7244L67.0705 54.9728C66.0447 55.8731 64.8759 56.7478 63.5616 57.5958L64.1037 58.4361ZM67.7301 55.7244L68.3897 56.4761C69.5346 55.4713 70.4595 54.3492 71.1518 53.1078L70.2784 52.6207L69.405 52.1337C68.8341 53.1575 68.0601 54.1044 67.0705 54.9728L67.7301 55.7244ZM70.2784 52.6207L71.1557 53.1008C71.8739 51.7881 72.2259 50.336 72.2259 48.7656H71.2259H70.2259C70.2259 50.0267 69.9462 51.1446 69.4011 52.1407L70.2784 52.6207ZM71.2259 48.7656H72.2259C72.2259 47.0966 71.8244 45.5883 70.9921 44.2767L70.1477 44.8125L69.3034 45.3483C69.9086 46.3019 70.2259 47.429 70.2259 48.7656H71.2259ZM70.1477 44.8125L70.9921 44.2767C70.1743 42.9881 69.0666 41.9941 67.6873 41.3044L67.2401 42.1989L66.7928 43.0933C67.8529 43.6233 68.6837 44.3718 69.3034 45.3483L70.1477 44.8125ZM67.2401 42.1989L67.6937 41.3077C66.3435 40.6203 64.8575 40.2841 63.2543 40.2841V41.2841V42.2841C64.5696 42.2841 65.7408 42.5577 66.7864 43.09L67.2401 42.1989ZM63.2543 41.2841V40.2841C61.6837 40.2841 60.191 40.6359 58.7886 41.3371L59.2358 42.2315L59.683 43.126C60.8071 42.5639 61.9934 42.2841 63.2543 42.2841V41.2841ZM59.2358 42.2315L58.801 41.331C57.3686 42.0225 56.1986 43.0612 55.2978 44.4246L56.1321 44.9759L56.9664 45.5271C57.6774 44.4511 58.5765 43.6602 59.6705 43.1321L59.2358 42.2315ZM56.1321 44.9759L55.3024 44.4177C54.3703 45.8033 53.8965 47.4871 53.826 49.4151L54.8253 49.4517L55.8246 49.4883C55.8848 47.8444 56.2822 46.5443 56.9618 45.534L56.1321 44.9759ZM54.8253 49.4517V48.4517H41.4957V49.4517V50.4517H54.8253V49.4517ZM41.4957 49.4517L42.4954 49.4767C42.6007 45.266 43.6083 41.8769 45.4513 39.2439L44.6321 38.6705L43.8129 38.097C41.6919 41.1269 40.6086 44.9252 40.4961 49.4267L41.4957 49.4517ZM44.6321 38.6705L45.4534 39.241C47.3256 36.5458 49.7999 34.5414 52.8981 33.2195L52.5057 32.2997L52.1132 31.3799C48.6773 32.8459 45.9026 35.0887 43.8108 38.0999L44.6321 38.6705ZM52.5057 32.2997L52.9033 33.2173C56.032 31.8615 59.4994 31.1761 63.3196 31.1761V30.1761V29.1761C59.2553 29.1761 55.5135 29.9065 52.1081 31.3822L52.5057 32.2997ZM63.3196 30.1761V31.1761C67.5436 31.1761 71.238 31.8765 74.4235 33.2506L74.8196 32.3324L75.2157 31.4142C71.7364 29.9133 67.7641 29.1761 63.3196 29.1761V30.1761ZM74.8196 32.3324L74.4286 33.2528C77.6063 34.6028 80.0647 36.5485 81.8419 39.0814L82.6605 38.5071L83.4791 37.9328C81.4665 35.0642 78.6977 32.8935 75.2106 31.412L74.8196 32.3324ZM82.6605 38.5071L81.8419 39.0815C83.6011 41.5888 84.5028 44.6366 84.5028 48.2756H85.5028H86.5028C86.5028 44.2914 85.5097 40.8269 83.4791 37.9328L82.6605 38.5071ZM85.5028 48.2756H84.5028C84.5028 50.7127 84.0968 52.8401 83.3095 54.6771L84.2287 55.071L85.1478 55.4649C86.0594 53.338 86.5028 50.935 86.5028 48.2756H85.5028ZM84.2287 55.071L83.3074 54.682C82.5293 56.5249 81.4353 58.1613 80.0208 59.5963L80.733 60.2983L81.4451 61.0003C83.0363 59.3861 84.2727 57.5376 85.1499 55.46L84.2287 55.071ZM80.733 60.2983L80.0258 59.5912C78.5881 61.0289 76.8805 62.3406 74.8959 63.523L75.4077 64.3821L75.9195 65.2412C78.0295 63.9842 79.8721 62.5734 81.4401 61.0054L80.733 60.2983ZM75.4077 64.3821L74.8964 63.5227C73.1229 64.5778 71.6364 65.6937 70.4534 66.8767L71.1605 67.5838L71.8676 68.2909C72.9062 67.2523 74.2512 66.2337 75.919 65.2415L75.4077 64.3821ZM71.1605 67.5838L70.4464 66.8837C69.2593 68.0946 68.3667 69.4991 67.7733 71.0893L68.7102 71.4389L69.6471 71.7885C70.1428 70.4602 70.8837 69.2946 71.8746 68.2839L71.1605 67.5838ZM68.7102 71.4389L67.7688 71.1017C67.1973 72.6973 66.916 74.6123 66.8935 76.8193L67.8935 76.8295L68.8934 76.8397C68.9145 74.7778 69.1777 73.0991 69.6517 71.7761L68.7102 71.4389ZM67.8935 76.8295H66.8935V77.9403H67.8935H68.8935V76.8295H67.8935ZM67.8935 77.9403V76.9403H55.5114V77.9403V78.9403H67.8935V77.9403ZM61.9801 98.8494V97.8494C60.064 97.8494 58.4542 97.1899 57.0955 95.8504L56.3935 96.5625L55.6914 97.2746C57.4255 98.9843 59.5402 99.8494 61.9801 99.8494V98.8494ZM56.3935 96.5625L57.1056 95.8604C55.7664 94.5021 55.1201 92.9065 55.1392 91.0186L54.1392 91.0085L53.1393 90.9984C53.1148 93.423 53.9713 95.5301 55.6814 97.2646L56.3935 96.5625ZM54.1392 91.0085L55.1392 90.9983C55.1201 89.1356 55.7638 87.5637 57.1006 86.227L56.3935 85.5199L55.6864 84.8128C53.9739 86.5253 53.1147 88.6125 53.1393 91.0187L54.1392 91.0085ZM56.3935 85.5199L57.0955 86.232C58.4542 84.8925 60.064 84.233 61.9801 84.233V83.233V82.233C59.5402 82.233 57.4255 83.0981 55.6914 84.8078L56.3935 85.5199ZM61.9801 83.233V84.233C63.7729 84.233 65.3457 84.8823 66.739 86.2369L67.4361 85.5199L68.1332 84.8029C66.3901 83.1082 64.3256 82.233 61.9801 82.233V83.233ZM67.4361 85.5199L66.739 86.2369C68.1213 87.5808 68.8021 89.1581 68.8211 91.0187L69.821 91.0085L70.821 90.9983C70.7964 88.59 69.8872 86.5082 68.1332 84.8029L67.4361 85.5199ZM69.821 91.0085L68.8211 90.9934C68.802 92.2542 68.4705 93.3949 67.827 94.4358L68.6776 94.9616L69.5282 95.4875C70.3657 94.1326 70.7965 92.6378 70.8209 91.0237L69.821 91.0085ZM68.6776 94.9616L67.8243 94.4402C67.1882 95.481 66.3545 96.3147 65.3138 96.9507L65.8352 97.804L66.3567 98.6573C67.6682 97.8558 68.7294 96.7946 69.5308 95.4831L68.6776 94.9616ZM65.8352 97.804L65.3254 96.9437C64.3068 97.5473 63.1984 97.8494 61.9801 97.8494V98.8494V99.8494C63.5497 99.8494 65.0114 99.4546 66.345 98.6643L65.8352 97.804Z" fill="black" fill-opacity="0.23" mask="url(#path-4-outside-1_26_25)"/>
</g>
</g>
<rect x="0.5" y="0.5" width="127" height="127" rx="49.5" stroke="white" stroke-opacity="0.25"/>
<defs>
<filter id="filter0_d_26_25" x="3.47046" y="-7.82385" width="120.032" height="144.673" filterUnits="userSpaceOnUse" color-interpolation-filters="sRGB">
<feFlood flood-opacity="0" result="BackgroundImageFix"/>
<feColorMatrix in="SourceAlpha" type="matrix" values="0 0 0 0 0 0 0 0 0 0 0 0 0 0 0 0 0 0 127 0" result="hardAlpha"/>
<feOffset/>
<feGaussianBlur stdDeviation="18.5"/>
<feComposite in2="hardAlpha" operator="out"/>
<feColorMatrix type="matrix" values="0 0 0 0 0 0 0 0 0 0 0 0 0 0 0 0 0 0 0.25 0"/>
<feBlend mode="normal" in2="BackgroundImageFix" result="effect1_dropShadow_26_25"/>
<feBlend mode="normal" in="SourceGraphic" in2="effect1_dropShadow_26_25" result="shape"/>
</filter>
<radialGradient id="paint0_radial_26_25" cx="0" cy="0" r="1" gradientUnits="userSpaceOnUse" gradientTransform="translate(64 128) rotate(-90) scale(128)">
<stop stop-color="#2B2B2B"/>
<stop offset="1" stop-color="#3A3A3A"/>
</radialGradient>
<radialGradient id="paint1_radial_26_25" cx="0" cy="0" r="1" gradientUnits="userSpaceOnUse" gradientTransform="translate(80 21) rotate(107.913) scale(104.043 72.3067)">
<stop stop-color="#737373"/>
<stop offset="1" stop-color="#D9D9D9"/>
</radialGradient>
<clipPath id="clip0_26_25">
<rect width="128" height="128" rx="50" fill="white"/>
</clipPath>
</defs>
</svg>
