<svg width="128" height="128" viewBox="0 0 128 128" fill="none" xmlns="http://www.w3.org/2000/svg">
<g id="settings">
<g clip-path="url(#clip0_19_499)">
<path id="Vector" d="M93 0H35C15.67 0 0 15.67 0 35V93C0 112.33 15.67 128 35 128H93C112.33 128 128 112.33 128 93V35C128 15.67 112.33 0 93 0Z" fill="url(#paint0_radial_19_499)"/>
<path id="Vector_2" d="M96.6384 57.828C96.5723 57.4935 96.4349 57.1773 96.2356 56.9006C96.0363 56.624 95.7799 56.3935 95.4836 56.2249L86.6278 51.178L86.5922 41.1971C86.5911 40.8533 86.5154 40.5139 86.3703 40.2023C86.2253 39.8906 86.0142 39.6142 85.7519 39.3921C82.5396 36.6748 78.8402 34.5924 74.8507 33.2556C74.5365 33.1493 74.2035 33.11 73.8732 33.1401C73.5429 33.1703 73.2226 33.2693 72.9329 33.4308L64 38.4242L55.0581 33.4219C54.7682 33.2595 54.4475 33.1597 54.1166 33.129C53.7858 33.0984 53.452 33.1374 53.1372 33.2438C49.1501 34.5891 45.4549 36.6795 42.248 39.4039C41.986 39.6257 41.7752 39.9017 41.6301 40.2128C41.4851 40.5239 41.4092 40.8627 41.4077 41.206L41.3633 51.1958L32.5075 56.2427C32.2112 56.4114 31.9547 56.6418 31.7554 56.9185C31.5562 57.1951 31.4188 57.5114 31.3526 57.8458C30.5422 61.9186 30.5422 66.1112 31.3526 70.1839C31.4188 70.5184 31.5562 70.8347 31.7554 71.1113C31.9547 71.3879 32.2112 71.6184 32.5075 71.7871L41.3633 76.8339L41.3988 86.8178C41.3999 87.1616 41.4756 87.501 41.6207 87.8126C41.7658 88.1243 41.9766 88.4007 42.2389 88.6228C45.4513 91.3401 49.1508 93.4225 53.1403 94.7592C53.4545 94.8656 53.7874 94.9049 54.1178 94.8748C54.4481 94.8446 54.7684 94.7456 55.0581 94.5841L64 89.5758L72.9419 94.5782C73.2957 94.7753 73.6945 94.8776 74.0997 94.875C74.3591 94.8749 74.6167 94.8328 74.8626 94.7503C78.8488 93.4056 82.5438 91.3173 85.7519 88.5961C86.014 88.3743 86.2246 88.0983 86.3696 87.7873C86.5147 87.4762 86.5907 87.1373 86.5922 86.7941L86.6367 76.8042L95.4925 71.7574C95.7888 71.5887 96.0452 71.3582 96.2445 71.0816C96.4438 70.805 96.5812 70.4887 96.6473 70.1542C97.4533 66.0847 97.4502 61.8963 96.6384 57.828ZM64 75.875C61.6513 75.875 59.3554 75.1786 57.4025 73.8737C55.4497 72.5689 53.9277 70.7143 53.0289 68.5444C52.1301 66.3745 51.8949 63.9869 52.3531 61.6833C52.8113 59.3798 53.9422 57.2639 55.6031 55.6031C57.2638 53.9424 59.3798 52.8114 61.6833 52.3532C63.9868 51.895 66.3744 52.1302 68.5442 53.029C70.7141 53.9277 72.5688 55.4498 73.8737 57.4026C75.1785 59.3555 75.875 61.6514 75.875 64C75.875 67.1495 74.6238 70.1699 72.3968 72.3969C70.1698 74.6239 67.1493 75.875 64 75.875Z" fill="url(#paint1_linear_19_499)"/>
</g>
<rect x="0.5" y="0.5" width="127" height="127" rx="49.5" stroke="white" stroke-opacity="0.25" style="mix-blend-mode:overlay"/>
</g>
<defs>
<radialGradient id="paint0_radial_19_499" cx="0" cy="0" r="1" gradientUnits="userSpaceOnUse" gradientTransform="translate(64 128) rotate(-90) scale(128)">
<stop stop-color="#5E5E5E"/>
<stop offset="1" stop-color="#B8B8B8"/>
</radialGradient>
<linearGradient id="paint1_linear_19_499" x1="63.9972" y1="33.1189" x2="63.9972" y2="94.8846" gradientUnits="userSpaceOnUse">
<stop stop-color="white"/>
<stop offset="1" stop-color="#DCDCDC"/>
</linearGradient>
<clipPath id="clip0_19_499">
<rect width="128" height="128" rx="50" fill="white"/>
</clipPath>
</defs>
</svg>
