<svg width="128" height="128" viewBox="0 0 128 128" fill="none" xmlns="http://www.w3.org/2000/svg">
<g clip-path="url(#clip0_103_31)">
<path d="M93 0H35C15.67 0 0 15.67 0 35V93C0 112.33 15.67 128 35 128H93C112.33 128 128 112.33 128 93V35C128 15.67 112.33 0 93 0Z" fill="url(#paint0_radial_103_31)"/>
<g filter="url(#filter0_d_103_31)">
<path d="M100.125 88.064C100.125 88.7105 99.8682 89.3305 99.4111 89.7876C98.954 90.2447 98.334 90.5015 97.6875 90.5015H29.4375C28.791 90.5015 28.171 90.2447 27.7139 89.7876C27.2568 89.3305 27 88.7105 27 88.064C27 87.4176 27.2568 86.7976 27.7139 86.3405C28.171 85.8833 28.791 85.6265 29.4375 85.6265H97.6875C98.334 85.6265 98.954 85.8833 99.4111 86.3405C99.8682 86.7976 100.125 87.4176 100.125 88.064ZM29.5289 54.6033C29.3839 54.0921 29.41 53.5475 29.603 53.0525C29.7961 52.5575 30.1456 52.1391 30.5984 51.8611L62.2859 32.3611C62.6698 32.125 63.1118 32 63.5625 32C64.0132 32 64.4552 32.125 64.8391 32.3611L96.5266 51.8611C96.9796 52.1388 97.3293 52.5569 97.5227 53.0517C97.7161 53.5465 97.7426 54.0909 97.5981 54.6022C97.4535 55.1134 97.1459 55.5634 96.722 55.8837C96.2982 56.204 95.7813 56.3771 95.25 56.3765H87.9375V75.8765H92.8125C93.459 75.8765 94.079 76.1333 94.5361 76.5905C94.9932 77.0476 95.25 77.6676 95.25 78.314C95.25 78.9605 94.9932 79.5805 94.5361 80.0376C94.079 80.4947 93.459 80.7515 92.8125 80.7515H34.3125C33.666 80.7515 33.046 80.4947 32.5889 80.0376C32.1318 79.5805 31.875 78.9605 31.875 78.314C31.875 77.6676 32.1318 77.0476 32.5889 76.5905C33.046 76.1333 33.666 75.8765 34.3125 75.8765H39.1875V56.3765H31.875C31.3442 56.3767 30.8278 56.2036 30.4044 55.8836C29.9809 55.5635 29.6735 55.114 29.5289 54.6033ZM68.4375 73.439C68.4375 74.0855 68.6943 74.7055 69.1514 75.1626C69.6085 75.6197 70.2285 75.8765 70.875 75.8765C71.5215 75.8765 72.1415 75.6197 72.5986 75.1626C73.0557 74.7055 73.3125 74.0855 73.3125 73.439V58.814C73.3125 58.1676 73.0557 57.5476 72.5986 57.0905C72.1415 56.6333 71.5215 56.3765 70.875 56.3765C70.2285 56.3765 69.6085 56.6333 69.1514 57.0905C68.6943 57.5476 68.4375 58.1676 68.4375 58.814V73.439ZM53.8125 73.439C53.8125 74.0855 54.0693 74.7055 54.5264 75.1626C54.9835 75.6197 55.6035 75.8765 56.25 75.8765C56.8965 75.8765 57.5165 75.6197 57.9736 75.1626C58.4307 74.7055 58.6875 74.0855 58.6875 73.439V58.814C58.6875 58.1676 58.4307 57.5476 57.9736 57.0905C57.5165 56.6333 56.8965 56.3765 56.25 56.3765C55.6035 56.3765 54.9835 56.6333 54.5264 57.0905C54.0693 57.5476 53.8125 58.1676 53.8125 58.814V73.439Z" fill="url(#paint1_radial_103_31)"/>
</g>
</g>
<rect x="0.5" y="0.5" width="127" height="127" rx="49.5" stroke="white" stroke-opacity="0.25" style="mix-blend-mode:overlay"/>
<defs>
<filter id="filter0_d_103_31" x="-23.1" y="-18.1" width="173.325" height="158.702" filterUnits="userSpaceOnUse" color-interpolation-filters="sRGB">
<feFlood flood-opacity="0" result="BackgroundImageFix"/>
<feColorMatrix in="SourceAlpha" type="matrix" values="0 0 0 0 0 0 0 0 0 0 0 0 0 0 0 0 0 0 127 0" result="hardAlpha"/>
<feOffset/>
<feGaussianBlur stdDeviation="25.05"/>
<feComposite in2="hardAlpha" operator="out"/>
<feColorMatrix type="matrix" values="0 0 0 0 0.129412 0 0 0 0 0.407843 0 0 0 0 0.894118 0 0 0 0.25 0"/>
<feBlend mode="normal" in2="BackgroundImageFix" result="effect1_dropShadow_103_31"/>
<feBlend mode="normal" in="SourceGraphic" in2="effect1_dropShadow_103_31" result="shape"/>
</filter>
<radialGradient id="paint0_radial_103_31" cx="0" cy="0" r="1" gradientUnits="userSpaceOnUse" gradientTransform="translate(64 128) rotate(-90) scale(128)">
<stop stop-color="#0D0F13"/>
<stop offset="1" stop-color="#17181F"/>
</radialGradient>
<radialGradient id="paint1_radial_103_31" cx="0" cy="0" r="1" gradientUnits="userSpaceOnUse" gradientTransform="translate(63.5625 13.8558) rotate(90) scale(76.6458 95.8047)">
<stop stop-color="#5392FF"/>
<stop offset="1" stop-color="#2168E4"/>
</radialGradient>
<clipPath id="clip0_103_31">
<rect width="128" height="128" rx="50" fill="white"/>
</clipPath>
</defs>
</svg>
