<svg width="128" height="128" viewBox="0 0 128 128" fill="none" xmlns="http://www.w3.org/2000/svg">
<g id="taxi">
<g clip-path="url(#clip0_81_108)">
<path id="Vector" d="M93 0H35C15.67 0 0 15.67 0 35V93C0 112.33 15.67 128 35 128H93C112.33 128 128 112.33 128 93V35C128 15.67 112.33 0 93 0Z" fill="url(#paint0_radial_81_108)"/>
<g id="Vector_2">
<path d="M23.9211 72.7664V46.6726H14.0171V41H41.9156L39.9162 46.6726H30.1517V72.7664H23.9211ZM37.4518 72.7664L48.8902 41H55.1673L48.2392 60.6044H59.0266L53.9119 45.7196H60.1891L69.7211 72.7664H63.1649L60.8865 66.1408H46.3793L44.0079 72.7664H37.4518Z" fill="url(#paint1_radial_81_108)"/>
<path d="M77.1585 41L100.407 72.7664H92.9211L85.1095 62.0566L77.3909 72.7664H69.9049L81.4827 56.8832L69.8584 41H77.1585ZM93.1071 41H100.407L92.8746 51.3014H85.528L93.1071 41Z" fill="url(#paint2_radial_81_108)"/>
<path d="M102.39 72.7664V41H108.667V72.7664H102.39Z" fill="url(#paint3_radial_81_108)"/>
<path d="M-42 89.1308C-42 88.5992 -41.5676 88.1682 -41.0342 88.1682H-28.8408C-28.3074 88.1682 -27.875 88.5992 -27.875 89.1308V102.126H-41.0342C-41.5676 102.126 -42 101.695 -42 101.164V89.1308Z" fill="url(#paint4_radial_81_108)"/>
<path d="M14.5 89.1308C14.5 88.5992 14.9324 88.1682 15.4658 88.1682H27.6592C28.1926 88.1682 28.625 88.5992 28.625 89.1308V102.126H14.5V89.1308Z" fill="url(#paint5_radial_81_108)"/>
<path d="M-13.75 89.1308C-13.75 88.5992 -13.3176 88.1682 -12.7842 88.1682H-0.590813C-0.0574074 88.1682 0.375 88.5992 0.375 89.1308V102.126H-13.75V89.1308Z" fill="url(#paint6_radial_81_108)"/>
<path d="M42.75 89.1308C42.75 88.5992 43.1824 88.1682 43.7158 88.1682H55.9092C56.4426 88.1682 56.875 88.5992 56.875 89.1308V102.126H42.75V89.1308Z" fill="url(#paint7_radial_81_108)"/>
<path d="M-27.875 102.126H-13.75V116.084H-27.875V102.126Z" fill="url(#paint8_radial_81_108)"/>
<path d="M28.625 102.126H42.75V116.084H28.625V102.126Z" fill="url(#paint9_radial_81_108)"/>
<path d="M0.375 102.126H14.5V116.084H0.375V102.126Z" fill="url(#paint10_radial_81_108)"/>
<path d="M56.875 102.126H71V116.084H56.875V102.126Z" fill="url(#paint11_radial_81_108)"/>
<path d="M71 89.1308C71 88.5992 71.4324 88.1682 71.9658 88.1682H84.1592C84.6926 88.1682 85.125 88.5992 85.125 89.1308V102.126H71V89.1308Z" fill="url(#paint12_radial_81_108)"/>
<path d="M127.5 89.1308C127.5 88.5992 127.932 88.1682 128.466 88.1682H140.659C141.193 88.1682 141.625 88.5992 141.625 89.1308V102.126H127.5V89.1308Z" fill="url(#paint13_radial_81_108)"/>
<path d="M99.25 89.1308C99.25 88.5992 99.6824 88.1682 100.216 88.1682H112.409C112.943 88.1682 113.375 88.5992 113.375 89.1308V102.126H99.25V89.1308Z" fill="url(#paint14_radial_81_108)"/>
<path d="M155.75 89.1308C155.75 88.5992 156.182 88.1682 156.716 88.1682H168.909C169.443 88.1682 169.875 88.5992 169.875 89.1308V102.126H155.75V89.1308Z" fill="url(#paint15_radial_81_108)"/>
<path d="M85.125 102.126H99.25V116.084H85.125V102.126Z" fill="url(#paint16_radial_81_108)"/>
<path d="M141.625 102.126H155.75V116.084H141.625V102.126Z" fill="url(#paint17_radial_81_108)"/>
<path d="M113.375 102.126H127.5V116.084H113.375V102.126Z" fill="url(#paint18_radial_81_108)"/>
<path d="M169.875 102.126H183.034C183.568 102.126 184 102.557 184 103.089V115.121C184 115.653 183.568 116.084 183.034 116.084H169.875V102.126Z" fill="url(#paint19_radial_81_108)"/>
<path d="M-42 117.047C-42 116.515 -41.5676 116.084 -41.0342 116.084H-27.875V130.042H-41.0342C-41.5676 130.042 -42 129.611 -42 129.079V117.047Z" fill="url(#paint20_radial_81_108)"/>
<path d="M14.5 116.084H28.625V130.042H14.5V116.084Z" fill="url(#paint21_radial_81_108)"/>
<path d="M-13.75 116.084H0.375V130.042H-13.75V116.084Z" fill="url(#paint22_radial_81_108)"/>
<path d="M42.75 116.084H56.875V130.042H42.75V116.084Z" fill="url(#paint23_radial_81_108)"/>
<path d="M-27.875 130.042H-13.75V143.037C-13.75 143.569 -14.1824 144 -14.7158 144H-26.9092C-27.4426 144 -27.875 143.569 -27.875 143.037V130.042Z" fill="url(#paint24_radial_81_108)"/>
<path d="M28.625 130.042H42.75V143.037C42.75 143.569 42.3176 144 41.7842 144H29.5908C29.0574 144 28.625 143.569 28.625 143.037V130.042Z" fill="url(#paint25_radial_81_108)"/>
<path d="M0.375 130.042H14.5V143.037C14.5 143.569 14.0676 144 13.5342 144H1.34081C0.807407 144 0.375 143.569 0.375 143.037V130.042Z" fill="url(#paint26_radial_81_108)"/>
<path d="M56.875 130.042H71V143.037C71 143.569 70.5676 144 70.0342 144H57.8408C57.3074 144 56.875 143.569 56.875 143.037V130.042Z" fill="url(#paint27_radial_81_108)"/>
<path d="M71 116.084H85.125V130.042H71V116.084Z" fill="url(#paint28_radial_81_108)"/>
<path d="M127.5 116.084H141.625V130.042H127.5V116.084Z" fill="url(#paint29_radial_81_108)"/>
<path d="M99.25 116.084H113.375V130.042H99.25V116.084Z" fill="url(#paint30_radial_81_108)"/>
<path d="M155.75 116.084H169.875V130.042H155.75V116.084Z" fill="url(#paint31_radial_81_108)"/>
<path d="M85.125 130.042H99.25V143.037C99.25 143.569 98.8176 144 98.2842 144H86.0908C85.5574 144 85.125 143.569 85.125 143.037V130.042Z" fill="url(#paint32_radial_81_108)"/>
<path d="M141.625 130.042H155.75V143.037C155.75 143.569 155.318 144 154.784 144H142.591C142.057 144 141.625 143.569 141.625 143.037V130.042Z" fill="url(#paint33_radial_81_108)"/>
<path d="M113.375 130.042H127.5V143.037C127.5 143.569 127.068 144 126.534 144H114.341C113.807 144 113.375 143.569 113.375 143.037V130.042Z" fill="url(#paint34_radial_81_108)"/>
<path d="M169.875 130.042H183.034C183.568 130.042 184 130.473 184 131.005V143.037C184 143.569 183.568 144 183.034 144H170.841C170.307 144 169.875 143.569 169.875 143.037V130.042Z" fill="url(#paint35_radial_81_108)"/>
</g>
</g>
<rect x="0.5" y="0.5" width="127" height="127" rx="49.5" stroke="white" stroke-opacity="0.25" style="mix-blend-mode:overlay"/>
</g>
<defs>
<radialGradient id="paint0_radial_81_108" cx="0" cy="0" r="1" gradientUnits="userSpaceOnUse" gradientTransform="translate(165.053 107.789) rotate(-144.851) scale(201.86)">
<stop stop-color="#ED9509"/>
<stop offset="1" stop-color="#ED8E09"/>
</radialGradient>
<radialGradient id="paint1_radial_81_108" cx="0" cy="0" r="1" gradientUnits="userSpaceOnUse" gradientTransform="translate(-1.4359 144) rotate(-55.3303) scale(137.526 137.687)">
<stop stop-color="#2C2C2C"/>
<stop offset="1"/>
</radialGradient>
<radialGradient id="paint2_radial_81_108" cx="0" cy="0" r="1" gradientUnits="userSpaceOnUse" gradientTransform="translate(-1.4359 144) rotate(-55.3303) scale(137.526 137.687)">
<stop stop-color="#2C2C2C"/>
<stop offset="1"/>
</radialGradient>
<radialGradient id="paint3_radial_81_108" cx="0" cy="0" r="1" gradientUnits="userSpaceOnUse" gradientTransform="translate(-1.4359 144) rotate(-55.3303) scale(137.526 137.687)">
<stop stop-color="#2C2C2C"/>
<stop offset="1"/>
</radialGradient>
<radialGradient id="paint4_radial_81_108" cx="0" cy="0" r="1" gradientUnits="userSpaceOnUse" gradientTransform="translate(-1.4359 144) rotate(-55.3303) scale(137.526 137.687)">
<stop stop-color="#2C2C2C"/>
<stop offset="1"/>
</radialGradient>
<radialGradient id="paint5_radial_81_108" cx="0" cy="0" r="1" gradientUnits="userSpaceOnUse" gradientTransform="translate(-1.4359 144) rotate(-55.3303) scale(137.526 137.687)">
<stop stop-color="#2C2C2C"/>
<stop offset="1"/>
</radialGradient>
<radialGradient id="paint6_radial_81_108" cx="0" cy="0" r="1" gradientUnits="userSpaceOnUse" gradientTransform="translate(-1.4359 144) rotate(-55.3303) scale(137.526 137.687)">
<stop stop-color="#2C2C2C"/>
<stop offset="1"/>
</radialGradient>
<radialGradient id="paint7_radial_81_108" cx="0" cy="0" r="1" gradientUnits="userSpaceOnUse" gradientTransform="translate(-1.4359 144) rotate(-55.3303) scale(137.526 137.687)">
<stop stop-color="#2C2C2C"/>
<stop offset="1"/>
</radialGradient>
<radialGradient id="paint8_radial_81_108" cx="0" cy="0" r="1" gradientUnits="userSpaceOnUse" gradientTransform="translate(-1.4359 144) rotate(-55.3303) scale(137.526 137.687)">
<stop stop-color="#2C2C2C"/>
<stop offset="1"/>
</radialGradient>
<radialGradient id="paint9_radial_81_108" cx="0" cy="0" r="1" gradientUnits="userSpaceOnUse" gradientTransform="translate(-1.4359 144) rotate(-55.3303) scale(137.526 137.687)">
<stop stop-color="#2C2C2C"/>
<stop offset="1"/>
</radialGradient>
<radialGradient id="paint10_radial_81_108" cx="0" cy="0" r="1" gradientUnits="userSpaceOnUse" gradientTransform="translate(-1.4359 144) rotate(-55.3303) scale(137.526 137.687)">
<stop stop-color="#2C2C2C"/>
<stop offset="1"/>
</radialGradient>
<radialGradient id="paint11_radial_81_108" cx="0" cy="0" r="1" gradientUnits="userSpaceOnUse" gradientTransform="translate(-1.4359 144) rotate(-55.3303) scale(137.526 137.687)">
<stop stop-color="#2C2C2C"/>
<stop offset="1"/>
</radialGradient>
<radialGradient id="paint12_radial_81_108" cx="0" cy="0" r="1" gradientUnits="userSpaceOnUse" gradientTransform="translate(-1.4359 144) rotate(-55.3303) scale(137.526 137.687)">
<stop stop-color="#2C2C2C"/>
<stop offset="1"/>
</radialGradient>
<radialGradient id="paint13_radial_81_108" cx="0" cy="0" r="1" gradientUnits="userSpaceOnUse" gradientTransform="translate(-1.4359 144) rotate(-55.3303) scale(137.526 137.687)">
<stop stop-color="#2C2C2C"/>
<stop offset="1"/>
</radialGradient>
<radialGradient id="paint14_radial_81_108" cx="0" cy="0" r="1" gradientUnits="userSpaceOnUse" gradientTransform="translate(-1.4359 144) rotate(-55.3303) scale(137.526 137.687)">
<stop stop-color="#2C2C2C"/>
<stop offset="1"/>
</radialGradient>
<radialGradient id="paint15_radial_81_108" cx="0" cy="0" r="1" gradientUnits="userSpaceOnUse" gradientTransform="translate(-1.4359 144) rotate(-55.3303) scale(137.526 137.687)">
<stop stop-color="#2C2C2C"/>
<stop offset="1"/>
</radialGradient>
<radialGradient id="paint16_radial_81_108" cx="0" cy="0" r="1" gradientUnits="userSpaceOnUse" gradientTransform="translate(-1.4359 144) rotate(-55.3303) scale(137.526 137.687)">
<stop stop-color="#2C2C2C"/>
<stop offset="1"/>
</radialGradient>
<radialGradient id="paint17_radial_81_108" cx="0" cy="0" r="1" gradientUnits="userSpaceOnUse" gradientTransform="translate(-1.4359 144) rotate(-55.3303) scale(137.526 137.687)">
<stop stop-color="#2C2C2C"/>
<stop offset="1"/>
</radialGradient>
<radialGradient id="paint18_radial_81_108" cx="0" cy="0" r="1" gradientUnits="userSpaceOnUse" gradientTransform="translate(-1.4359 144) rotate(-55.3303) scale(137.526 137.687)">
<stop stop-color="#2C2C2C"/>
<stop offset="1"/>
</radialGradient>
<radialGradient id="paint19_radial_81_108" cx="0" cy="0" r="1" gradientUnits="userSpaceOnUse" gradientTransform="translate(-1.4359 144) rotate(-55.3303) scale(137.526 137.687)">
<stop stop-color="#2C2C2C"/>
<stop offset="1"/>
</radialGradient>
<radialGradient id="paint20_radial_81_108" cx="0" cy="0" r="1" gradientUnits="userSpaceOnUse" gradientTransform="translate(-1.4359 144) rotate(-55.3303) scale(137.526 137.687)">
<stop stop-color="#2C2C2C"/>
<stop offset="1"/>
</radialGradient>
<radialGradient id="paint21_radial_81_108" cx="0" cy="0" r="1" gradientUnits="userSpaceOnUse" gradientTransform="translate(-1.4359 144) rotate(-55.3303) scale(137.526 137.687)">
<stop stop-color="#2C2C2C"/>
<stop offset="1"/>
</radialGradient>
<radialGradient id="paint22_radial_81_108" cx="0" cy="0" r="1" gradientUnits="userSpaceOnUse" gradientTransform="translate(-1.4359 144) rotate(-55.3303) scale(137.526 137.687)">
<stop stop-color="#2C2C2C"/>
<stop offset="1"/>
</radialGradient>
<radialGradient id="paint23_radial_81_108" cx="0" cy="0" r="1" gradientUnits="userSpaceOnUse" gradientTransform="translate(-1.4359 144) rotate(-55.3303) scale(137.526 137.687)">
<stop stop-color="#2C2C2C"/>
<stop offset="1"/>
</radialGradient>
<radialGradient id="paint24_radial_81_108" cx="0" cy="0" r="1" gradientUnits="userSpaceOnUse" gradientTransform="translate(-1.4359 144) rotate(-55.3303) scale(137.526 137.687)">
<stop stop-color="#2C2C2C"/>
<stop offset="1"/>
</radialGradient>
<radialGradient id="paint25_radial_81_108" cx="0" cy="0" r="1" gradientUnits="userSpaceOnUse" gradientTransform="translate(-1.4359 144) rotate(-55.3303) scale(137.526 137.687)">
<stop stop-color="#2C2C2C"/>
<stop offset="1"/>
</radialGradient>
<radialGradient id="paint26_radial_81_108" cx="0" cy="0" r="1" gradientUnits="userSpaceOnUse" gradientTransform="translate(-1.4359 144) rotate(-55.3303) scale(137.526 137.687)">
<stop stop-color="#2C2C2C"/>
<stop offset="1"/>
</radialGradient>
<radialGradient id="paint27_radial_81_108" cx="0" cy="0" r="1" gradientUnits="userSpaceOnUse" gradientTransform="translate(-1.4359 144) rotate(-55.3303) scale(137.526 137.687)">
<stop stop-color="#2C2C2C"/>
<stop offset="1"/>
</radialGradient>
<radialGradient id="paint28_radial_81_108" cx="0" cy="0" r="1" gradientUnits="userSpaceOnUse" gradientTransform="translate(-1.4359 144) rotate(-55.3303) scale(137.526 137.687)">
<stop stop-color="#2C2C2C"/>
<stop offset="1"/>
</radialGradient>
<radialGradient id="paint29_radial_81_108" cx="0" cy="0" r="1" gradientUnits="userSpaceOnUse" gradientTransform="translate(-1.4359 144) rotate(-55.3303) scale(137.526 137.687)">
<stop stop-color="#2C2C2C"/>
<stop offset="1"/>
</radialGradient>
<radialGradient id="paint30_radial_81_108" cx="0" cy="0" r="1" gradientUnits="userSpaceOnUse" gradientTransform="translate(-1.4359 144) rotate(-55.3303) scale(137.526 137.687)">
<stop stop-color="#2C2C2C"/>
<stop offset="1"/>
</radialGradient>
<radialGradient id="paint31_radial_81_108" cx="0" cy="0" r="1" gradientUnits="userSpaceOnUse" gradientTransform="translate(-1.4359 144) rotate(-55.3303) scale(137.526 137.687)">
<stop stop-color="#2C2C2C"/>
<stop offset="1"/>
</radialGradient>
<radialGradient id="paint32_radial_81_108" cx="0" cy="0" r="1" gradientUnits="userSpaceOnUse" gradientTransform="translate(-1.4359 144) rotate(-55.3303) scale(137.526 137.687)">
<stop stop-color="#2C2C2C"/>
<stop offset="1"/>
</radialGradient>
<radialGradient id="paint33_radial_81_108" cx="0" cy="0" r="1" gradientUnits="userSpaceOnUse" gradientTransform="translate(-1.4359 144) rotate(-55.3303) scale(137.526 137.687)">
<stop stop-color="#2C2C2C"/>
<stop offset="1"/>
</radialGradient>
<radialGradient id="paint34_radial_81_108" cx="0" cy="0" r="1" gradientUnits="userSpaceOnUse" gradientTransform="translate(-1.4359 144) rotate(-55.3303) scale(137.526 137.687)">
<stop stop-color="#2C2C2C"/>
<stop offset="1"/>
</radialGradient>
<radialGradient id="paint35_radial_81_108" cx="0" cy="0" r="1" gradientUnits="userSpaceOnUse" gradientTransform="translate(-1.4359 144) rotate(-55.3303) scale(137.526 137.687)">
<stop stop-color="#2C2C2C"/>
<stop offset="1"/>
</radialGradient>
<clipPath id="clip0_81_108">
<rect width="128" height="128" rx="50" fill="white"/>
</clipPath>
</defs>
</svg>
