<svg width="128" height="128" viewBox="0 0 128 128" fill="none" xmlns="http://www.w3.org/2000/svg">
<g id="tinder">
<g clip-path="url(#clip0_19_510)">
<g id="swip&#39;n">
<path id="Vector" d="M93 0H35C15.67 0 0 15.67 0 35V93C0 112.33 15.67 128 35 128H93C112.33 128 128 112.33 128 93V35C128 15.67 112.33 0 93 0Z" fill="url(#paint0_linear_19_510)"/>
<path id="Vector_2" d="M65.3536 102.642C66.9321 101.764 104 80.5117 104 54.2555C103.993 48.0899 101.658 42.1788 97.5072 37.819C93.356 33.4593 87.7278 31.0069 81.8571 31C74.4821 31 68.025 34.3308 64 39.9609C59.975 34.3308 53.5179 31 46.1429 31C40.2722 31.0069 34.644 33.4593 30.4928 37.819C26.3416 42.1788 24.0066 48.0899 24 54.2555C24 62.0733 27.2863 69.4476 31.9436 75.9724C32.9994 77.4516 34.1257 78.8872 35.3001 80.2743C37.7014 83.1106 40.304 85.7447 42.9171 88.1361C45.0265 90.0665 48.3246 89.6553 50.0197 87.3545L52.7561 83.2054C53.7442 81.7277 54.7324 80.231 55.7205 78.7154C56.7467 77.1997 57.7918 75.741 58.856 74.339C59.9581 72.8991 61.0793 71.5351 62.2195 70.2468C63.3596 68.9206 64.5378 67.7271 65.754 66.6661L66.153 66.3819C68.4334 64.4874 70.8847 63.1044 73.5071 62.2329C73.9175 62.0985 74.3337 61.9843 74.7559 61.8905C72.3819 61.3349 70.1279 60.6437 67.9939 59.8169C65.6018 58.8901 63.5236 57.7494 61.7593 56.3948C59.9543 55.0511 58.8004 53.4471 58.2976 51.583C58.1118 50.8941 58.2185 50.2359 58.6176 49.6084C58.9759 48.9918 59.5017 48.5912 60.1951 48.4066C60.8886 48.222 61.566 48.3023 62.2274 48.6474C62.848 49.0034 63.2512 49.5259 63.437 50.2148C63.7539 51.39 64.8324 52.4711 66.6724 53.4581C68.5124 54.445 70.7344 55.3085 73.3385 56.0486C75.9425 56.7887 78.7287 57.3935 81.6969 57.8629C83.9879 58.2388 86.1613 58.5262 88.2172 58.7252C89.2801 58.8281 90.2486 59.3878 90.839 60.272L90.8753 60.3265C91.2905 60.9483 91.478 61.6929 91.4065 62.4357C91.3161 63.3759 90.8191 64.2306 90.0446 64.7782L73.9706 76.1426C73.3428 76.5704 72.6902 76.7441 72.0128 76.6638C71.2837 76.5539 70.7038 76.1871 70.2733 75.5633C69.8537 74.98 69.7047 74.3465 69.8263 73.6626C69.9369 72.9382 70.2858 72.3675 70.8728 71.9506L78.7024 66.3963C77.4707 66.3091 76.29 66.4179 75.1604 66.723C73.3361 67.2155 71.5688 68.1249 69.8586 69.4511L65.1269 74.0548C63.6827 75.7599 62.2765 77.6165 60.9083 79.6248C59.5401 81.633 58.1529 83.698 56.7467 85.8199C55.6445 87.4871 54.5424 89.1353 53.4402 90.7646C51.974 92.9321 52.3662 95.9015 54.5082 97.4091C58.9518 100.537 62.2025 102.395 62.6464 102.642C63.0625 102.877 63.5276 103 64 103C64.4724 103 64.9375 102.877 65.3536 102.642Z" fill="white"/>
</g>
</g>
<rect x="0.5" y="0.5" width="127" height="127" rx="49.5" stroke="white" stroke-opacity="0.25" style="mix-blend-mode:overlay"/>
</g>
<defs>
<linearGradient id="paint0_linear_19_510" x1="-5.78723" y1="-48" x2="144.623" y2="-28.6079" gradientUnits="userSpaceOnUse">
<stop stop-color="#D1316C"/>
<stop offset="1" stop-color="#A70840"/>
</linearGradient>
<clipPath id="clip0_19_510">
<rect width="128" height="128" rx="50" fill="white"/>
</clipPath>
</defs>
</svg>
