<?xml version="1.0" encoding="UTF-8"?>
<svg version="1.1" xmlns="http://www.w3.org/2000/svg" width="128" height="128">
<path d="M0 0 C1.0228006 -0.00524185 2.0456012 -0.0104837 3.09939575 -0.0158844 C5.24903461 -0.02226756 7.39870857 -0.02101608 9.54833984 -0.01245117 C12.8050063 -0.00394622 16.0599126 -0.03274839 19.31640625 -0.06445312 C36.85592431 -0.12488061 50.25510268 2.34829637 63.6953125 14.62109375 C73.43368347 25.06175109 77.42165582 37.49853826 77.37890625 51.48828125 C77.3841481 52.51108185 77.38938995 53.53388245 77.39479065 54.587677 C77.40117381 56.73731586 77.39992233 58.88698982 77.39135742 61.03662109 C77.38285247 64.29328755 77.41165464 67.54819385 77.44335938 70.8046875 C77.50378686 88.34420556 75.03060988 101.74338393 62.7578125 115.18359375 C52.31715516 124.92196472 39.88036799 128.90993707 25.890625 128.8671875 C24.8678244 128.87242935 23.8450238 128.8776712 22.79122925 128.8830719 C20.64159039 128.88945506 18.49191643 128.88820358 16.34228516 128.87963867 C13.0856187 128.87113372 9.8307124 128.89993589 6.57421875 128.93164062 C-10.96529931 128.99206811 -24.36447768 126.51889113 -37.8046875 114.24609375 C-47.54305847 103.80543641 -51.53103082 91.36864924 -51.48828125 77.37890625 C-51.4935231 76.35610565 -51.49876495 75.33330505 -51.50416565 74.2795105 C-51.51054881 72.12987164 -51.50929733 69.98019768 -51.50073242 67.83056641 C-51.49222747 64.57389995 -51.52102964 61.31899365 -51.55273438 58.0625 C-51.61316186 40.52298194 -49.13998488 27.12380357 -36.8671875 13.68359375 C-26.42653016 3.94522278 -13.98974299 -0.04274957 0 0 Z " fill="#3165E1" transform="translate(51.0546875,-0.43359375)"/>
<path d="M0 0 C3.93991695 1.31330565 4.43750788 2.88693791 6.5 6.4375 C7.38171875 7.92056641 7.38171875 7.92056641 8.28125 9.43359375 C12.19613654 17.55698332 13.46098645 25.09046208 13.43359375 34.0546875 C13.4388356 35.0774881 13.44407745 36.1002887 13.44947815 37.15408325 C13.45586131 39.30372211 13.45460983 41.45339607 13.44604492 43.60302734 C13.43753997 46.8596938 13.46634214 50.1146001 13.49804688 53.37109375 C13.55847436 70.91061181 11.08529738 84.30979018 -1.1875 97.75 C-11.62815734 107.48837097 -24.06494451 111.47634332 -38.0546875 111.43359375 C-39.5888884 111.44145653 -39.5888884 111.44145653 -41.15408325 111.44947815 C-43.30372211 111.45586131 -45.45339607 111.45460983 -47.60302734 111.44604492 C-50.8596938 111.43753997 -54.1146001 111.46634214 -57.37109375 111.49804688 C-75.22026422 111.55954118 -88.59038511 108.90728059 -102.1875 96.375 C-104.40531202 94.03573637 -104.9493422 93.34013094 -105.4375 90.0625 C-105.293125 89.381875 -105.14875 88.70125 -105 88 C-103.02 88 -101.04 88 -99 88 C-99 81.07 -99 74.14 -99 67 C-99.99 67 -100.98 67 -102 67 C-102 66.01 -102 65.02 -102 64 C-102.66 64 -103.32 64 -104 64 C-104 63.01 -104 62.02 -104 61 C-104.99 61 -105.98 61 -107 61 C-107 55.06 -107 49.12 -107 43 C-106.01 43 -105.02 43 -104 43 C-104 39.04 -104 35.08 -104 31 C-103.34 31 -102.68 31 -102 31 C-102 30.01 -102 29.02 -102 28 C-100.02 28 -98.04 28 -96 28 C-96 20.74 -96 13.48 -96 6 C-94.68 6 -93.36 6 -92 6 C-92 13.26 -92 20.52 -92 28 C-91.01 28 -90.02 28 -89 28 C-89 30.97 -89 33.94 -89 37 C-89.99 37 -90.98 37 -92 37 C-92 39.97 -92 42.94 -92 46 C-91.01 46 -90.02 46 -89 46 C-89 45.01 -89 44.02 -89 43 C-87.68 43 -86.36 43 -85 43 C-85 40.69 -85 38.38 -85 36 C-84.01 36 -83.02 36 -82 36 C-82 35.01 -82 34.02 -82 33 C-75.07 33 -68.14 33 -61 33 C-61 54.12 -61 75.24 -61 97 C-59.02 95.68 -57.04 94.36 -55 93 C-51.5703125 92.828125 -51.5703125 92.828125 -48.125 93.25 C-46.97257812 93.37890625 -45.82015625 93.5078125 -44.6328125 93.640625 C-43.32957031 93.81851563 -43.32957031 93.81851563 -42 94 C-42 95.98 -42 97.96 -42 100 C-40.9275 99.79375 -39.855 99.5875 -38.75 99.375 C-35 99 -35 99 -33.01171875 100.125 C-32.34785156 100.41375 -31.68398437 100.7025 -31 101 C-28.94994509 100.14656116 -28.94994509 100.14656116 -27.0625 98.625 C-23.83546726 96.42583695 -21.99762168 95.35173702 -18 96 C-16.33157466 96.32441604 -14.66519519 96.65939189 -13 97 C-10.00412781 97.37385252 -7.00334163 97.69246829 -4 98 C-3.67 96.35 -3.34 94.7 -3 93 C-2.34 93 -1.68 93 -1 93 C-0.67 82.44 -0.34 71.88 0 61 C-0.66 61 -1.32 61 -2 61 C-2 60.01 -2 59.02 -2 58 C-2.66 58 -3.32 58 -4 58 C-4 57.01 -4 56.02 -4 55 C-4.66 55 -5.32 55 -6 55 C-6 54.34 -6 53.68 -6 53 C-8.31 53 -10.62 53 -13 53 C-13 52.34 -13 51.68 -13 51 C-15.64 51 -18.28 51 -21 51 C-21 50.01 -21 49.02 -21 48 C-22.65 48 -24.3 48 -26 48 C-26 47.34 -26 46.68 -26 46 C-26.66 46 -27.32 46 -28 46 C-28 45.34 -28 44.68 -28 44 C-29.32 44 -30.64 44 -32 44 C-32 44.66 -32 45.32 -32 46 C-32.66 46 -33.32 46 -34 46 C-34 46.66 -34 47.32 -34 48 C-34.66 48 -35.32 48 -36 48 C-36 48.99 -36 49.98 -36 51 C-36.99 51 -37.98 51 -39 51 C-39 51.66 -39 52.32 -39 53 C-39.66 53 -40.32 53 -41 53 C-41 53.99 -41 54.98 -41 56 C-41.66 56 -42.32 56 -43 56 C-43 56.66 -43 57.32 -43 58 C-43.99 58 -44.98 58 -46 58 C-46 57.34 -46 56.68 -46 56 C-46.66 56 -47.32 56 -48 56 C-48 54.35 -48 52.7 -48 51 C-48.66 51 -49.32 51 -50 51 C-50 49.35 -50 47.7 -50 46 C-51.32 46 -52.64 46 -54 46 C-54 45.34 -54 44.68 -54 44 C-54.99 44 -55.98 44 -57 44 C-57.26252625 39.66831683 -56.29243536 36.1196377 -55 32 C-54.01 32 -53.02 32 -52 32 C-52 31.34 -52 30.68 -52 30 C-51.34 30 -50.68 30 -50 30 C-50 28.68 -50 27.36 -50 26 C-50.66 26 -51.32 26 -52 26 C-52 24.68 -52 23.36 -52 22 C-51.34 22 -50.68 22 -50 22 C-50 20.02 -50 18.04 -50 16 C-49.34 15.67 -48.68 15.34 -48 15 C-48 13.02 -48 11.04 -48 9 C-47.34 9 -46.68 9 -46 9 C-46 7.68 -46 6.36 -46 5 C-43.69 5 -41.38 5 -39 5 C-39 5.66 -39 6.32 -39 7 C-38.01 7 -37.02 7 -36 7 C-36 7.66 -36 8.32 -36 9 C-35.34 9 -34.68 9 -34 9 C-34 9.99 -34 10.98 -34 12 C-32.02 12.66 -30.04 13.32 -28 14 C-28 13.34 -28 12.68 -28 12 C-27.01 12 -26.02 12 -25 12 C-25 12.66 -25 13.32 -25 14 C-22.03 14.495 -22.03 14.495 -19 15 C-18.505 16.98 -18.505 16.98 -18 19 C-16.68 19 -15.36 19 -14 19 C-14 19.99 -14 20.98 -14 22 C-13.34 22 -12.68 22 -12 22 C-12 23.32 -12 24.64 -12 26 C-11.01 26 -10.02 26 -9 26 C-9 27.65 -9 29.3 -9 31 C-9.66 31 -10.32 31 -11 31 C-11 31.66 -11 32.32 -11 33 C-11.99 33 -12.98 33 -14 33 C-14 33.99 -14 34.98 -14 36 C-14.66 36 -15.32 36 -16 36 C-16 36.66 -16 37.32 -16 38 C-18.31 38 -20.62 38 -23 38 C-23 38.99 -23 39.98 -23 41 C-21.68 41 -20.36 41 -19 41 C-19 41.66 -19 42.32 -19 43 C-13.39 43 -7.78 43 -2 43 C-2 42.34 -2 41.68 -2 41 C-1.34 41 -0.68 41 0 41 C0 27.47 0 13.94 0 0 Z " fill="#58291C" transform="translate(115,17)"/>
<path d="M0 0 C1.32 0 2.64 0 4 0 C4 7.26 4 14.52 4 22 C4.99 22 5.98 22 7 22 C7 24.97 7 27.94 7 31 C6.01 31 5.02 31 4 31 C4 33.97 4 36.94 4 40 C4.99 40 5.98 40 7 40 C7 39.01 7 38.02 7 37 C8.32 37 9.64 37 11 37 C11 34.69 11 32.38 11 30 C11.99 30 12.98 30 14 30 C14 29.01 14 28.02 14 27 C20.93 27 27.86 27 35 27 C35 48.12 35 69.24 35 91 C33.02 91 31.04 91 29 91 C29 89.02 29 87.04 29 85 C30.65 85 32.3 85 34 85 C34 84.01 34 83.02 34 82 C28.39 82 22.78 82 17 82 C17 82.99 17 83.98 17 85 C19.97 85 22.94 85 26 85 C26 87.64 26 90.28 26 93 C24.68 92.67 23.36 92.34 22 92 C22 91.01 22 90.02 22 89 C22.66 89 23.32 89 24 89 C23.67 88.34 23.34 87.68 23 87 C21.52093108 86.97310784 20.04172517 86.95365379 18.5625 86.9375 C17.32693359 86.92009766 17.32693359 86.92009766 16.06640625 86.90234375 C14.00836062 86.76732652 14.00836062 86.76732652 13 88 C8.39738007 88.5414847 5.07965739 87.0398287 1 85 C0.67 84.34 0.34 83.68 0 83 C-0.99 82.67 -1.98 82.34 -3 82 C-3 75.07 -3 68.14 -3 61 C-3.99 61 -4.98 61 -6 61 C-6 60.01 -6 59.02 -6 58 C-6.66 58 -7.32 58 -8 58 C-8 57.01 -8 56.02 -8 55 C-8.99 55 -9.98 55 -11 55 C-11 49.06 -11 43.12 -11 37 C-10.01 37 -9.02 37 -8 37 C-8 33.04 -8 29.08 -8 25 C-7.34 25 -6.68 25 -6 25 C-6 24.01 -6 23.02 -6 22 C-4.02 22 -2.04 22 0 22 C0 14.74 0 7.48 0 0 Z " fill="#00638A" transform="translate(19,23)"/>
<path d="M0 0 C1.45742463 -0.08096803 2.91612807 -0.13917774 4.375 -0.1875 C5.18710938 -0.22230469 5.99921875 -0.25710937 6.8359375 -0.29296875 C7.55007812 -0.19628906 8.26421875 -0.09960938 9 0 C9.66 0.99 10.32 1.98 11 3 C14.74613929 4.58170326 17.93552526 5.34838355 22 5 C22.33 4.67 22.66 4.34 23 4 C24.51928038 3.92820036 26.04167482 3.91607993 27.5625 3.9375 C28.38878906 3.94652344 29.21507813 3.95554687 30.06640625 3.96484375 C30.70449219 3.97644531 31.34257813 3.98804687 32 4 C32.495 5.485 32.495 5.485 33 7 C32.34 7 31.68 7 31 7 C31.33 7.99 31.66 8.98 32 10 C32.99 10.33 33.98 10.66 35 11 C35 8.36 35 5.72 35 3 C32.03 3 29.06 3 26 3 C26 2.01 26 1.02 26 0 C31.61 0 37.22 0 43 0 C43 0.99 43 1.98 43 3 C41.35 3 39.7 3 38 3 C38 4.98 38 6.96 38 9 C43.34195766 8.82702787 43.34195766 8.82702787 47.84375 6.4375 C50.93799194 4.37467204 53.11172183 4.9122894 56.75 5.3125 C57.92046875 5.43238281 59.0909375 5.55226563 60.296875 5.67578125 C61.18890625 5.78277344 62.0809375 5.88976562 63 6 C63 7.98 63 9.96 63 12 C64.0725 11.79375 65.145 11.5875 66.25 11.375 C70 11 70 11 71.98828125 12.125 C72.65214844 12.41375 73.31601563 12.7025 74 13 C76.05005491 12.14656116 76.05005491 12.14656116 77.9375 10.625 C81.16453274 8.42583695 83.00237832 7.35173702 87 8 C88.66842534 8.32441604 90.33480481 8.65939189 92 9 C94.99587219 9.37385252 97.99665837 9.69246829 101 10 C101.33 8.35 101.66 6.7 102 5 C102.66 5 103.32 5 104 5 C104.66 3.68 105.32 2.36 106 1 C107.32 1.33 108.64 1.66 110 2 C100.87773039 13.16065286 90.19437288 21.67152212 75.33795166 23.29000854 C72.53641513 23.40882442 69.74933957 23.44216224 66.9453125 23.43359375 C65.4111116 23.44145653 65.4111116 23.44145653 63.84591675 23.44947815 C61.69627789 23.45586131 59.54660393 23.45460983 57.39697266 23.44604492 C54.1403062 23.43753997 50.8853999 23.46634214 47.62890625 23.49804688 C29.77973578 23.55954118 16.40961489 20.90728059 2.8125 8.375 C0.59468798 6.03573637 0.0506578 5.34013094 -0.4375 2.0625 C-0.293125 1.381875 -0.14875 0.70125 0 0 Z " fill="#004320" transform="translate(10,105)"/>
<path d="M0 0 C2.31 0 4.62 0 7 0 C7 0.66 7 1.32 7 2 C7.99 2 8.98 2 10 2 C10 2.66 10 3.32 10 4 C10.66 4 11.32 4 12 4 C12 4.99 12 5.98 12 7 C13.98 7.66 15.96 8.32 18 9 C18 8.34 18 7.68 18 7 C18.99 7 19.98 7 21 7 C21 7.66 21 8.32 21 9 C22.98 9.33 24.96 9.66 27 10 C27.495 11.98 27.495 11.98 28 14 C28.66 14 29.32 14 30 14 C30 15.65 30 17.3 30 19 C29.34 19 28.68 19 28 19 C27.505 21.475 27.505 21.475 27 24 C26.34 24 25.68 24 25 24 C25 25.65 25 27.3 25 29 C23.68 29 22.36 29 21 29 C21 28.01 21 27.02 21 26 C18.03 25.67 15.06 25.34 12 25 C12 26.32 12 27.64 12 29 C11.01 29 10.02 29 9 29 C9 29.66 9 30.32 9 31 C9.99 31 10.98 31 12 31 C12 33.64 12 36.28 12 39 C11.34 39 10.68 39 10 39 C10 39.66 10 40.32 10 41 C9.01 41 8.02 41 7 41 C7 41.66 7 42.32 7 43 C6.34 43 5.68 43 5 43 C5 43.99 5 44.98 5 46 C4.34 46 3.68 46 3 46 C3 46.66 3 47.32 3 48 C2.01 48 1.02 48 0 48 C0 47.34 0 46.68 0 46 C-1.32 46 -2.64 46 -4 46 C-4 44.35 -4 42.7 -4 41 C-5.32 41 -6.64 41 -8 41 C-8 40.34 -8 39.68 -8 39 C-8.99 39 -9.98 39 -11 39 C-11.26252625 34.66831683 -10.29243536 31.1196377 -9 27 C-8.01 27 -7.02 27 -6 27 C-6 26.34 -6 25.68 -6 25 C-5.34 25 -4.68 25 -4 25 C-4 23.68 -4 22.36 -4 21 C-4.66 21 -5.32 21 -6 21 C-6 19.68 -6 18.36 -6 17 C-5.34 17 -4.68 17 -4 17 C-4 15.02 -4 13.04 -4 11 C-3.34 10.67 -2.68 10.34 -2 10 C-2 8.02 -2 6.04 -2 4 C-1.34 4 -0.68 4 0 4 C0 2.68 0 1.36 0 0 Z " fill="#283627" transform="translate(69,22)"/>
<path d="M0 0 C1.45742463 -0.08096803 2.91612807 -0.13917774 4.375 -0.1875 C5.18710938 -0.22230469 5.99921875 -0.25710937 6.8359375 -0.29296875 C7.55007812 -0.19628906 8.26421875 -0.09960938 9 0 C9.66 0.99 10.32 1.98 11 3 C14.74613929 4.58170326 17.93552526 5.34838355 22 5 C22.33 4.67 22.66 4.34 23 4 C24.51928038 3.92820036 26.04167482 3.91607993 27.5625 3.9375 C28.38878906 3.94652344 29.21507813 3.95554687 30.06640625 3.96484375 C30.70449219 3.97644531 31.34257813 3.98804687 32 4 C32.495 5.485 32.495 5.485 33 7 C32.34 7 31.68 7 31 7 C31.33 7.99 31.66 8.98 32 10 C32.99 10.33 33.98 10.66 35 11 C35 8.36 35 5.72 35 3 C32.03 3 29.06 3 26 3 C26 2.01 26 1.02 26 0 C31.61 0 37.22 0 43 0 C43 0.99 43 1.98 43 3 C41.35 3 39.7 3 38 3 C37.57343166 7.94819269 37.39512318 10.05710378 40.125 14.3125 C44.2980125 18.21335951 47.24506932 20 53 20 C53 20.66 53 21.32 53 22 C53.99 22.33 54.98 22.66 56 23 C51.91691764 23.11800816 47.83428424 23.18784785 43.75 23.25 C42.61046875 23.28351563 41.4709375 23.31703125 40.296875 23.3515625 C25.62586105 23.51827857 13.57830033 18.29769549 2.8125 8.375 C0.59468798 6.03573637 0.0506578 5.34013094 -0.4375 2.0625 C-0.293125 1.381875 -0.14875 0.70125 0 0 Z " fill="#004820" transform="translate(10,105)"/>
<path d="M0 0 C1.32 0 2.64 0 4 0 C4 7.26 4 14.52 4 22 C4.99 22 5.98 22 7 22 C7 24.97 7 27.94 7 31 C6.01 31 5.02 31 4 31 C4 40.57 4 50.14 4 60 C0.7 60 -2.6 60 -6 60 C-6 59.34 -6 58.68 -6 58 C-6.66 58 -7.32 58 -8 58 C-8 57.01 -8 56.02 -8 55 C-8.99 55 -9.98 55 -11 55 C-11 49.06 -11 43.12 -11 37 C-10.01 37 -9.02 37 -8 37 C-8 33.04 -8 29.08 -8 25 C-7.34 25 -6.68 25 -6 25 C-6 24.01 -6 23.02 -6 22 C-4.02 22 -2.04 22 0 22 C0 14.74 0 7.48 0 0 Z " fill="#FB7211" transform="translate(19,23)"/>
<path d="M0 0 C1.65 0 3.3 0 5 0 C5 0.66 5 1.32 5 2 C5.99 2 6.98 2 8 2 C8 2.66 8 3.32 8 4 C8.66 4 9.32 4 10 4 C10 4.99 10 5.98 10 7 C11.98 7.66 13.96 8.32 16 9 C16 8.34 16 7.68 16 7 C16.99 7 17.98 7 19 7 C19 7.66 19 8.32 19 9 C21.97 9.495 21.97 9.495 25 10 C25.33 11.32 25.66 12.64 26 14 C26.66 14 27.32 14 28 14 C28 15.65 28 17.3 28 19 C27.34 19 26.68 19 26 19 C25.67 20.65 25.34 22.3 25 24 C24.34 24 23.68 24 23 24 C23 25.65 23 27.3 23 29 C21.68 29 20.36 29 19 29 C19 28.01 19 27.02 19 26 C18.01 26 17.02 26 16 26 C16 25.34 16 24.68 16 24 C14.02 24 12.04 24 10 24 C10 23.01 10 22.02 10 21 C8.35 21 6.7 21 5 21 C5 21.66 5 22.32 5 23 C2.69 22.67 0.38 22.34 -2 22 C-2.66 19.36 -3.32 16.72 -4 14 C-1.03 14 1.94 14 5 14 C5 13.34 5 12.68 5 12 C4.34 12 3.68 12 3 12 C3 11.34 3 10.68 3 10 C1.68 9.67 0.36 9.34 -1 9 C-0.67 6.03 -0.34 3.06 0 0 Z " fill="#737C1B" transform="translate(71,22)"/>
<path d="M0 0 C6.93 0 13.86 0 21 0 C21 7.26 21 14.52 21 22 C15.06 22 9.12 22 3 22 C3 21.01 3 20.02 3 19 C2.01 19 1.02 19 0 19 C0 16.03 0 13.06 0 10 C-0.99 10 -1.98 10 -3 10 C-3 7.69 -3 5.38 -3 3 C-2.01 3 -1.02 3 0 3 C0 2.01 0 1.02 0 0 Z " fill="#B83201" transform="translate(33,50)"/>
<path d="M0 0 C0.66 0 1.32 0 2 0 C2 0.99 2 1.98 2 3 C2.66 3 3.32 3 4 3 C4 4.32 4 5.64 4 7 C4.99 7 5.98 7 7 7 C7 8.65 7 10.3 7 12 C6.34 12 5.68 12 5 12 C5 12.66 5 13.32 5 14 C4.01 14 3.02 14 2 14 C2 14.99 2 15.98 2 17 C1.34 17 0.68 17 0 17 C0 17.66 0 18.32 0 19 C-3.63 19 -7.26 19 -11 19 C-11 18.34 -11 17.68 -11 17 C-11.99 17 -12.98 17 -14 17 C-14 18.65 -14 20.3 -14 22 C-12.68 22 -11.36 22 -10 22 C-8.97702078 22.97648017 -7.98095748 23.98131338 -7 25 C-3.01039368 27.30510587 0.42860577 28.4557864 5 29 C5 29.99 5 30.98 5 32 C8.63 32 12.26 32 16 32 C16 32.66 16 33.32 16 34 C15.34 34 14.68 34 14 34 C14 34.66 14 35.32 14 36 C14.66 36 15.32 36 16 36 C17.76673751 40.52839546 18.19084817 44.08683127 17.9765625 48.9296875 C17.925 50.21875 17.8734375 51.5078125 17.8203125 52.8359375 C17.75545108 54.18230338 17.69034387 55.52865745 17.625 56.875 C17.56668526 58.24474849 17.50938372 59.61454052 17.453125 60.984375 C17.31203607 64.32347963 17.16065577 67.66178902 17 71 C16.67 71 16.34 71 16 71 C16 61.43 16 51.86 16 42 C15.34 42 14.68 42 14 42 C14 41.01 14 40.02 14 39 C13.34 39 12.68 39 12 39 C12 38.01 12 37.02 12 36 C11.34 36 10.68 36 10 36 C10 35.34 10 34.68 10 34 C7.69 34 5.38 34 3 34 C3 33.34 3 32.68 3 32 C0.36 32 -2.28 32 -5 32 C-5 31.01 -5 30.02 -5 29 C-6.65 29 -8.3 29 -10 29 C-10 28.34 -10 27.68 -10 27 C-10.66 27 -11.32 27 -12 27 C-12 26.34 -12 25.68 -12 25 C-13.32 25 -14.64 25 -16 25 C-16 25.66 -16 26.32 -16 27 C-16.66 27 -17.32 27 -18 27 C-18 27.66 -18 28.32 -18 29 C-18.66 29 -19.32 29 -20 29 C-20 29.99 -20 30.98 -20 32 C-20.99 32 -21.98 32 -23 32 C-23 32.66 -23 33.32 -23 34 C-23.66 34 -24.32 34 -25 34 C-25 34.99 -25 35.98 -25 37 C-25.66 37 -26.32 37 -27 37 C-27 37.66 -27 38.32 -27 39 C-27.99 39 -28.98 39 -30 39 C-30 38.34 -30 37.68 -30 37 C-30.66 37 -31.32 37 -32 37 C-32 35.35 -32 33.7 -32 32 C-31.34 32 -30.68 32 -30 32 C-30 32.66 -30 33.32 -30 34 C-29.01 34 -28.02 34 -27 34 C-27 33.34 -27 32.68 -27 32 C-26.34 32 -25.68 32 -25 32 C-25 31.01 -25 30.02 -25 29 C-24.34 29 -23.68 29 -23 29 C-23 28.34 -23 27.68 -23 27 C-22.01 27 -21.02 27 -20 27 C-20 26.34 -20 25.68 -20 25 C-19.34 25 -18.68 25 -18 25 C-18 22.36 -18 19.72 -18 17 C-18.99 17 -19.98 17 -21 17 C-21 16.34 -21 15.68 -21 15 C-20.01 15 -19.02 15 -18 15 C-18 13.68 -18 12.36 -18 11 C-15.03 11.33 -12.06 11.66 -9 12 C-9 12.99 -9 13.98 -9 15 C-7.68 15 -6.36 15 -5 15 C-5 13.35 -5 11.7 -5 10 C-4.34 9.67 -3.68 9.34 -3 9 C-2.34786708 6.97536745 -2.34786708 6.97536745 -2 5 C-1.34 5 -0.68 5 0 5 C0 3.35 0 1.7 0 0 Z " fill="#2A3C48" transform="translate(99,36)"/>
<path d="M0 0 C0.99 0 1.98 0 3 0 C3 0.99 3 1.98 3 3 C4.32 3 5.64 3 7 3 C7.33 4.98 7.66 6.96 8 9 C10.64 9 13.28 9 16 9 C16 15.27 16 21.54 16 28 C16.99 28 17.98 28 19 28 C19 29.32 19 30.64 19 32 C17.02 32 15.04 32 13 32 C13 30.68 13 29.36 13 28 C6.73 28 0.46 28 -6 28 C-6 27.01 -6 26.02 -6 25 C-5.01 25 -4.02 25 -3 25 C-3 23.68 -3 22.36 -3 21 C-2.01 21 -1.02 21 0 21 C0 14.07 0 7.14 0 0 Z " fill="#00668E" transform="translate(26,66)"/>
<path d="M0 0 C1.17046875 0.11988281 2.3409375 0.23976563 3.546875 0.36328125 C4.88492188 0.52376953 4.88492188 0.52376953 6.25 0.6875 C6.25 2.6675 6.25 4.6475 6.25 6.6875 C9.22 7.1825 9.22 7.1825 12.25 7.6875 C11.74402823 12.0725887 9.36067753 14.71206932 6.25 17.6875 C1.79093783 18.31333329 -0.88052408 17.80947067 -4.75 15.6875 C-5.69875 15.584375 -6.6475 15.48125 -7.625 15.375 C-12.53636566 14.29449955 -15.41826174 11.24119464 -18.625 7.5 C-19.75 5.6875 -19.75 5.6875 -19.75 3.6875 C-19.14671875 3.65011719 -18.5434375 3.61273438 -17.921875 3.57421875 C-17.12265625 3.50847656 -16.3234375 3.44273438 -15.5 3.375 C-14.71109375 3.31699219 -13.9221875 3.25898437 -13.109375 3.19921875 C-10.66156939 2.8588704 -10.66156939 2.8588704 -8.875 1.125 C-5.80558026 -0.95137218 -3.62242923 -0.39846721 0 0 Z " fill="#00561A" transform="translate(66.75,110.3125)"/>
<path d="M0 0 C0.99 0 1.98 0 3 0 C3.80184381 4.92561197 4.13519708 9.61823232 4.125 14.625 C4.12886719 16.53152344 4.12886719 16.53152344 4.1328125 18.4765625 C4.02020097 21.46408027 3.69908062 24.10380888 3 27 C2.01 27 1.02 27 0 27 C0 28.65 0 30.3 0 32 C-0.66 32 -1.32 32 -2 32 C-2 35.3 -2 38.6 -2 42 C-4.475 42.495 -4.475 42.495 -7 43 C-6.99476318 42.1121582 -6.98952637 41.22431641 -6.98413086 40.30957031 C-6.96706132 37.00715482 -6.95453637 33.70478641 -6.94506836 30.40234375 C-6.94004794 28.97460184 -6.93323028 27.54686504 -6.92456055 26.11914062 C-6.91239447 24.06378921 -6.90674872 22.00850593 -6.90234375 19.953125 C-6.89710693 18.71723633 -6.89187012 17.48134766 -6.88647461 16.20800781 C-6.97928263 13.5854329 -7.21643327 11.48355406 -8 9 C-8.66 9 -9.32 9 -10 9 C-10 8.34 -10 7.68 -10 7 C-9.34 7 -8.68 7 -8 7 C-8 6.34 -8 5.68 -8 5 C-8.99 5 -9.98 5 -11 5 C-11.33 5.66 -11.66 6.32 -12 7 C-12 6.34 -12 5.68 -12 5 C-14.31 5 -16.62 5 -19 5 C-19 4.34 -19 3.68 -19 3 C-14.1666528 2.91666643 -9.76307437 3.04738513 -5 4 C-4.67 6.64 -4.34 9.28 -4 12 C-3.34 12 -2.68 12 -2 12 C-2 12.66 -2 13.32 -2 14 C-1.34 14 -0.68 14 0 14 C0 9.38 0 4.76 0 0 Z " fill="#3E1D1A" transform="translate(123,63)"/>
<path d="M0 0 C2.31 0 4.62 0 7 0 C7 2.97 7 5.94 7 9 C5.68 9 4.36 9 3 9 C3 8.01 3 7.02 3 6 C2.01 6 1.02 6 0 6 C0 12.93 0 19.86 0 27 C-0.99 27 -1.98 27 -3 27 C-3 28.32 -3 29.64 -3 31 C-3.99 31 -4.98 31 -6 31 C-6 31.99 -6 32.98 -6 34 C0.27 34 6.54 34 13 34 C13 35.32 13 36.64 13 38 C5.74 38 -1.52 38 -9 38 C-9 40.31 -9 42.62 -9 45 C-9.33 45 -9.66 45 -10 45 C-10 38.07 -10 31.14 -10 24 C-10.99 23.67 -11.98 23.34 -13 23 C-9.7 23 -6.4 23 -3 23 C-3 16.4 -3 9.8 -3 3 C-2.01 3 -1.02 3 0 3 C0 2.01 0 1.02 0 0 Z " fill="#044B74" transform="translate(26,60)"/>
<path d="M0 0 C7.26 0 14.52 0 22 0 C22 0.33 22 0.66 22 1 C15.73 1 9.46 1 3 1 C3 1.99 3 2.98 3 4 C14.22 4 25.44 4 37 4 C37 7.96 37 11.92 37 16 C35.02 16 33.04 16 31 16 C31 14.02 31 12.04 31 10 C32.65 10 34.3 10 36 10 C36 9.01 36 8.02 36 7 C30.39 7 24.78 7 19 7 C19 7.99 19 8.98 19 10 C21.97 10 24.94 10 28 10 C28 12.64 28 15.28 28 18 C26.68 17.67 25.36 17.34 24 17 C24 16.01 24 15.02 24 14 C24.66 14 25.32 14 26 14 C25.67 13.34 25.34 12.68 25 12 C23.52093108 11.97310784 22.04172517 11.95365379 20.5625 11.9375 C19.73878906 11.92589844 18.91507813 11.91429688 18.06640625 11.90234375 C16.00836062 11.76732652 16.00836062 11.76732652 15 13 C9.72561628 13.62051573 5.43458382 11.57069924 1.0625 8.75 C0 7 0 7 0 0 Z " fill="#004B6F" transform="translate(17,98)"/>
<path d="M0 0 C5.61 0 11.22 0 17 0 C17 0.99 17 1.98 17 3 C15.35 3 13.7 3 12 3 C11.57343166 7.94819269 11.39512318 10.05710378 14.125 14.3125 C18.2980125 18.21335951 21.24506932 20 27 20 C27 20.66 27 21.32 27 22 C27.99 22.33 28.98 22.66 30 23 C25.77089131 23.05817206 21.54188591 23.09365463 17.3125 23.125 C15.51522461 23.15013672 15.51522461 23.15013672 13.68164062 23.17578125 C12.52470703 23.18222656 11.36777344 23.18867188 10.17578125 23.1953125 C8.58117065 23.21102295 8.58117065 23.21102295 6.9543457 23.22705078 C3.91873219 22.99375431 1.74376733 22.28205135 -1 21 C-1 20 -1 19 -1 18 C-2.65 18 -4.3 18 -6 18 C-5.01 16.35 -4.02 14.7 -3 13 C-2.29875 13.309375 -1.5975 13.61875 -0.875 13.9375 C2.08936657 15.03302678 4.87698108 15.56422992 8 16 C7.67 14.35 7.34 12.7 7 11 C7.66 11 8.32 11 9 11 C9 8.36 9 5.72 9 3 C6.03 3 3.06 3 0 3 C0 2.01 0 1.02 0 0 Z " fill="#004020" transform="translate(36,105)"/>
<path d="M0 0 C3.85347259 1.28449086 4.90716347 2.72903272 6.9921875 6.125 C9.19607679 12.41206401 8.33581753 19.43290169 8 26 C7.34 26 6.68 26 6 26 C6 29.3 6 32.6 6 36 C5.34 36 4.68 36 4 36 C4 36.99 4 37.98 4 39 C3.34 39 2.68 39 2 39 C2 40.32 2 41.64 2 43 C1.01 43 0.02 43 -1 43 C-0.67 28.81 -0.34 14.62 0 0 Z " fill="#3D1C1B" transform="translate(115,17)"/>
<path d="M0 0 C0.66 0 1.32 0 2 0 C2 2.97 2 5.94 2 9 C2.99 9.33 3.98 9.66 5 10 C5 10.66 5 11.32 5 12 C5.66 12 6.32 12 7 12 C7 12.66 7 13.32 7 14 C4.03 14 1.06 14 -2 14 C-1.01 15.485 -1.01 15.485 0 17 C0.125 19.6875 0.125 19.6875 0 22 C2.31 22.33 4.62 22.66 7 23 C5.02 23.99 5.02 23.99 3 25 C3 26.32 3 27.64 3 29 C3.66 29 4.32 29 5 29 C5 29.66 5 30.32 5 31 C4.34 31 3.68 31 3 31 C3 31.66 3 32.32 3 33 C1.35 33 -0.3 33 -2 33 C-2 32.34 -2 31.68 -2 31 C-2.66 31 -3.32 31 -4 31 C-4 31.99 -4 32.98 -4 34 C-4.99 34 -5.98 34 -7 34 C-7.33 34.66 -7.66 35.32 -8 36 C-8 33.69 -8 31.38 -8 29 C-6.68 29 -5.36 29 -4 29 C-4 28.01 -4 27.02 -4 26 C-3.34 25.67 -2.68 25.34 -2 25 C-2 24.01 -2 23.02 -2 22 C-3.32 21.67 -4.64 21.34 -6 21 C-6 19.68 -6 18.36 -6 17 C-5.34 17 -4.68 17 -4 17 C-4 15.02 -4 13.04 -4 11 C-3.34 10.67 -2.68 10.34 -2 10 C-2 8.02 -2 6.04 -2 4 C-1.34 4 -0.68 4 0 4 C0 2.68 0 1.36 0 0 Z " fill="#5B671B" transform="translate(69,22)"/>
<path d="M0 0 C5.94 0 11.88 0 18 0 C18 3.3 18 6.6 18 10 C14.04 10 10.08 10 6 10 C6 10.99 6 11.98 6 13 C5.01 13 4.02 13 3 13 C3 12.01 3 11.02 3 10 C2.01 10 1.02 10 0 10 C0 6.7 0 3.4 0 0 Z " fill="#F89026" transform="translate(36,50)"/>
<path d="M0 0 C4.62 0 9.24 0 14 0 C14 4.95 14 9.9 14 15 C10.7 14.01 7.4 13.02 4 12 C4 11.01 4 10.02 4 9 C1.69 9 -0.62 9 -3 9 C-3 7.02 -3 5.04 -3 3 C-2.01 3 -1.02 3 0 3 C0 2.01 0 1.02 0 0 Z " fill="#0596C0" transform="translate(19,14)"/>
<path d="M0 0 C0.99 0 1.98 0 3 0 C3 0.66 3 1.32 3 2 C4.32 2 5.64 2 7 2 C7 2.99 7 3.98 7 5 C8.32 5 9.64 5 11 5 C11 5.66 11 6.32 11 7 C12.98 7 14.96 7 17 7 C17 7.66 17 8.32 17 9 C24.92 8.505 24.92 8.505 33 8 C33.495 9.98 33.495 9.98 34 12 C34.66 12 35.32 12 36 12 C36 13.65 36 15.3 36 17 C35.01 17 34.02 17 33 17 C33 16.01 33 15.02 33 14 C32.0821875 13.95101562 31.164375 13.90203125 30.21875 13.8515625 C20.24593614 13.2439751 12.55567629 12.34729768 4 7 C4 6.34 4 5.68 4 5 C2.68 5 1.36 5 0 5 C0 3.35 0 1.7 0 0 Z " fill="#6B321E" transform="translate(85,53)"/>
<path d="M0 0 C0.33 0.66 0.66 1.32 1 2 C2.32 2 3.64 2 5 2 C5 1.34 5 0.68 5 0 C5.66 0 6.32 0 7 0 C7 5.61 7 11.22 7 17 C6.34 17 5.68 17 5 17 C5 20.3 5 23.6 5 27 C3.35 27.33 1.7 27.66 0 28 C0 18.76 0 9.52 0 0 Z " fill="#271417" transform="translate(116,78)"/>
<path d="M0 0 C1.32 0 2.64 0 4 0 C4.33 1.32 4.66 2.64 5 4 C5.66 4 6.32 4 7 4 C7 5.65 7 7.3 7 9 C6.34 9 5.68 9 5 9 C4.67 10.65 4.34 12.3 4 14 C3.34 14 2.68 14 2 14 C2 15.65 2 17.3 2 19 C0.68 19 -0.64 19 -2 19 C-2 18.01 -2 17.02 -2 16 C-2.99 16 -3.98 16 -5 16 C-5 15.34 -5 14.68 -5 14 C-6.98 14 -8.96 14 -11 14 C-11 13.01 -11 12.02 -11 11 C-11.66 11 -12.32 11 -13 11 C-12.34 9.68 -11.68 8.36 -11 7 C-11 7.66 -11 8.32 -11 9 C-10.34 9 -9.68 9 -9 9 C-9 9.66 -9 10.32 -9 11 C-8.34 11 -7.68 11 -7 11 C-7 10.34 -7 9.68 -7 9 C-6.01 9 -5.02 9 -4 9 C-4 9.66 -4 10.32 -4 11 C-2.02 11 -0.04 11 2 11 C2 10.34 2 9.68 2 9 C1.34 9 0.68 9 0 9 C0 8.34 0 7.68 0 7 C-1.32 7 -2.64 7 -4 7 C-4 6.01 -4 5.02 -4 4 C-2.68 4 -1.36 4 0 4 C0 2.68 0 1.36 0 0 Z " fill="#77801A" transform="translate(92,32)"/>
<path d="M0 0 C3.96 0 7.92 0 12 0 C12 2.97 12 5.94 12 9 C12.99 9 13.98 9 15 9 C15 10.32 15 11.64 15 13 C13.02 13 11.04 13 9 13 C9 11.68 9 10.36 9 9 C4.71 9 0.42 9 -4 9 C-4 7.02 -4 5.04 -4 3 C-2.68 3 -1.36 3 0 3 C0 2.01 0 1.02 0 0 Z " fill="#007098" transform="translate(30,85)"/>
<path d="M0 0 C5.28 0 10.56 0 16 0 C16 0.99 16 1.98 16 3 C16.99 3 17.98 3 19 3 C19 4.65 19 6.3 19 8 C12.07 8 5.14 8 -2 8 C-2 6.02 -2 4.04 -2 2 C-1.34 2 -0.68 2 0 2 C0 1.34 0 0.68 0 0 Z " fill="#035986" transform="translate(35,42)"/>
<path d="M0 0 C5.03203372 5.03203372 5.34925994 13.37036346 5.44248962 20.14352417 C5.43808617 21.58455002 5.43808617 21.58455002 5.43359375 23.0546875 C5.4388356 24.0774881 5.44407745 25.1002887 5.44947815 26.15408325 C5.45586131 28.30372211 5.45460983 30.45339607 5.44604492 32.60302734 C5.43753997 35.8596938 5.46634214 39.1146001 5.49804688 42.37109375 C5.58071899 66.53867696 5.58071899 66.53867696 -2 76 C-2 73.03 -2 70.06 -2 67 C-1.34 67 -0.68 67 0 67 C0 65.35 0 63.7 0 62 C0.99 62 1.98 62 3 62 C3.02932572 58.81251971 3.04690739 55.62507472 3.0625 52.4375 C3.07087891 51.54224609 3.07925781 50.64699219 3.08789062 49.72460938 C3.10172266 45.94846493 3.0562859 42.37321884 2.4921875 38.6328125 C1.61422074 32.15258169 2.00193749 25.59959694 2.12695312 19.07226562 C2.18286392 13.57656346 2.0818817 9.16796516 0 4 C0 2.68 0 1.36 0 0 Z " fill="#723622" transform="translate(123,28)"/>
<path d="M0 0 C4 0 4 0 5.375 1.3125 C5.91125 1.869375 6.4475 2.42625 7 3 C10.98960632 5.30510587 14.42860577 6.4557864 19 7 C19 7.99 19 8.98 19 10 C22.63 10 26.26 10 30 10 C30 10.66 30 11.32 30 12 C29.34 12 28.68 12 28 12 C28 12.66 28 13.32 28 14 C28.66 14 29.32 14 30 14 C31.76673751 18.52839546 32.19084817 22.08683127 31.9765625 26.9296875 C31.925 28.21875 31.8734375 29.5078125 31.8203125 30.8359375 C31.75545108 32.18230338 31.69034387 33.52865745 31.625 34.875 C31.56668526 36.24474849 31.50938372 37.61454052 31.453125 38.984375 C31.31203607 42.32347963 31.16065577 45.66178902 31 49 C30.67 49 30.34 49 30 49 C30 39.43 30 29.86 30 20 C29.34 20 28.68 20 28 20 C28 19.01 28 18.02 28 17 C27.34 17 26.68 17 26 17 C26 16.01 26 15.02 26 14 C25.34 14 24.68 14 24 14 C24 13.34 24 12.68 24 12 C21.69 12 19.38 12 17 12 C17 11.34 17 10.68 17 10 C14.36 10 11.72 10 9 10 C9 9.01 9 8.02 9 7 C7.68 7 6.36 7 5 7 C5 6.01 5 5.02 5 4 C4.34 4 3.68 4 3 4 C3 3.34 3 2.68 3 2 C2.01 2 1.02 2 0 2 C0 1.34 0 0.68 0 0 Z " fill="#24243B" transform="translate(85,58)"/>
<path d="M0 0 C2.64 0 5.28 0 8 0 C8 5.61 8 11.22 8 17 C5.36 17 2.72 17 0 17 C0 11.39 0 5.78 0 0 Z " fill="#FE8D21" transform="translate(11,61)"/>
<path d="M0 0 C2.97 0 5.94 0 9 0 C10.99785435 4.1205746 11.17835515 7.45194365 11 12 C11.66 12 12.32 12 13 12 C13.66 11.34 14.32 10.68 15 10 C15.66 9.34 16.32 8.68 17 8 C17.66 8 18.32 8 19 8 C19 8.66 19 9.32 19 10 C18.34 10 17.68 10 17 10 C16.34 12.31 15.68 14.62 15 17 C9.40820116 13.49580606 4.23801838 10.10735549 0 5 C-0.375 2.125 -0.375 2.125 0 0 Z " fill="#005F16" transform="translate(10,105)"/>
<path d="M0 0 C0.66 0 1.32 0 2 0 C2 0.99 2 1.98 2 3 C2.66 3 3.32 3 4 3 C4 4.32 4 5.64 4 7 C4.99 7 5.98 7 7 7 C7 8.65 7 10.3 7 12 C6.34 12 5.68 12 5 12 C5 12.66 5 13.32 5 14 C4.01 14 3.02 14 2 14 C2 14.99 2 15.98 2 17 C-0.31 17 -2.62 17 -5 17 C-5 14.69 -5 12.38 -5 10 C-4.34 9.67 -3.68 9.34 -3 9 C-2.34786708 6.97536745 -2.34786708 6.97536745 -2 5 C-1.34 5 -0.68 5 0 5 C0 3.35 0 1.7 0 0 Z " fill="#44521D" transform="translate(99,36)"/>
<path d="M0 0 C0.99 0 1.98 0 3 0 C3 0.66 3 1.32 3 2 C3.66 2 4.32 2 5 2 C5 3.65 5 5.3 5 7 C3.68 7 2.36 7 1 7 C1 7.99 1 8.98 1 10 C2.32 10 3.64 10 5 10 C5 10.66 5 11.32 5 12 C5.66 12 6.32 12 7 12 C7 12.66 7 13.32 7 14 C5.02 14 3.04 14 1 14 C1 13.34 1 12.68 1 12 C0.01 12 -0.98 12 -2 12 C-2 12.66 -2 13.32 -2 14 C-2.66 14 -3.32 14 -4 14 C-4 13.34 -4 12.68 -4 12 C-4.66 12 -5.32 12 -6 12 C-6 11.34 -6 10.68 -6 10 C-6.99 10 -7.98 10 -9 10 C-9 9.01 -9 8.02 -9 7 C-7.35 7 -5.7 7 -4 7 C-4 7.99 -4 8.98 -4 10 C-3.34 10 -2.68 10 -2 10 C-2 7.36 -2 4.72 -2 2 C-1.34 2 -0.68 2 0 2 C0 1.34 0 0.68 0 0 Z " fill="#8A8F1C" transform="translate(87,29)"/>
<path d="M0 0 C2.97 0.33 5.94 0.66 9 1 C9 1.99 9 2.98 9 4 C10.32 4 11.64 4 13 4 C13 4.66 13 5.32 13 6 C14.65 6 16.3 6 18 6 C18 6.66 18 7.32 18 8 C14.37 8 10.74 8 7 8 C7 7.34 7 6.68 7 6 C6.01 6 5.02 6 4 6 C4 7.65 4 9.3 4 11 C3.34 11 2.68 11 2 11 C2 10.01 2 9.02 2 8 C1.34 8 0.68 8 0 8 C0 7.34 0 6.68 0 6 C-0.99 6 -1.98 6 -3 6 C-3 5.34 -3 4.68 -3 4 C-2.01 4 -1.02 4 0 4 C0 2.68 0 1.36 0 0 Z " fill="#2B3827" transform="translate(81,47)"/>
<path d="M0 0 C0.99 0 1.98 0 3 0 C3 0.99 3 1.98 3 3 C7.95 3 12.9 3 18 3 C18 3.99 18 4.98 18 6 C16.02 6 14.04 6 12 6 C12 9.3 12 12.6 12 16 C11.01 16 10.02 16 9 16 C9 12.7 9 9.4 9 6 C4.545 6.495 4.545 6.495 0 7 C0 4.69 0 2.38 0 0 Z " fill="#003756" transform="translate(33,69)"/>
<path d="M0 0 C0.33 0 0.66 0 1 0 C1 2.97 1 5.94 1 9 C0.01 9 -0.98 9 -2 9 C-2 18.57 -2 28.14 -2 38 C-5.3 38 -8.6 38 -12 38 C-12 37.34 -12 36.68 -12 36 C-12.66 36 -13.32 36 -14 36 C-14 35.01 -14 34.02 -14 33 C-10.37 33 -6.74 33 -3 33 C-3 24.75 -3 16.5 -3 8 C-2.01 8 -1.02 8 0 8 C0 5.36 0 2.72 0 0 Z " fill="#CC602B" transform="translate(25,45)"/>
<path d="M0 0 C1.32 0 2.64 0 4 0 C4 7.26 4 14.52 4 22 C2.68 22 1.36 22 0 22 C0 14.74 0 7.48 0 0 Z " fill="#8F382F" transform="translate(19,23)"/>
<path d="M0 0 C0.99 0.33 1.98 0.66 3 1 C4 4 4 4 3 7 C2.91602843 9.35680213 2.89271813 11.71594081 2.90234375 14.07421875 C2.9037587 14.7580513 2.90517365 15.44188385 2.90663147 16.1464386 C2.91222124 18.32683722 2.92477178 20.50713251 2.9375 22.6875 C2.94251633 24.16731622 2.947079 25.64713406 2.95117188 27.12695312 C2.96218729 30.75133557 2.97944488 34.3756577 3 38 C2.34 38 1.68 38 1 38 C0.67 38.99 0.34 39.98 0 41 C0 27.47 0 13.94 0 0 Z " fill="#241F34" transform="translate(115,17)"/>
<path d="M0 0 C2.31 0.33 4.62 0.66 7 1 C6.49402823 5.3850887 4.11067753 8.02456932 1 11 C-2.8125 11.375 -2.8125 11.375 -6 11 C-4.34703566 6.90694544 -2.86453858 3.41016497 0 0 Z " fill="#006D13" transform="translate(72,117)"/>
<path d="M0 0 C0.99 0 1.98 0 3 0 C3 6.27 3 12.54 3 19 C2.01 19 1.02 19 0 19 C0 16.03 0 13.06 0 10 C-0.99 10 -1.98 10 -3 10 C-3 7.69 -3 5.38 -3 3 C-2.01 3 -1.02 3 0 3 C0 2.01 0 1.02 0 0 Z " fill="#8D2405" transform="translate(33,50)"/>
<path d="M0 0 C0.33 0 0.66 0 1 0 C1 2.64 1 5.28 1 8 C1.99 8 2.98 8 4 8 C4 12.62 4 17.24 4 22 C3.34 22 2.68 22 2 22 C2 22.99 2 23.98 2 25 C1.34 25 0.68 25 0 25 C0 26.32 0 27.64 0 29 C-0.99 29 -1.98 29 -3 29 C-3 28.34 -3 27.68 -3 27 C-2.34 27 -1.68 27 -1 27 C-1 26.01 -1 25.02 -1 24 C-0.34 24 0.32 24 1 24 C0.67 23.34 0.34 22.68 0 22 C-0.08426094 20.3325394 -0.10725143 18.66174813 -0.09765625 16.9921875 C-0.09282227 15.51298828 -0.09282227 15.51298828 -0.08789062 14.00390625 C-0.07951172 12.97136719 -0.07113281 11.93882813 -0.0625 10.875 C-0.05798828 9.83472656 -0.05347656 8.79445313 -0.04882812 7.72265625 C-0.03701952 5.14838038 -0.02055075 2.57421854 0 0 Z " fill="#311718" transform="translate(117,31)"/>
<path d="M0 0 C0.66 0 1.32 0 2 0 C2 0.99 2 1.98 2 3 C2.66 3.33 3.32 3.66 4 4 C2.68 4 1.36 4 0 4 C0 4.99 0 5.98 0 7 C-1.32 7 -2.64 7 -4 7 C-3.67 8.65 -3.34 10.3 -3 12 C-2.01 12 -1.02 12 0 12 C0 11.01 0 10.02 0 9 C0.66 9 1.32 9 2 9 C2 9.66 2 10.32 2 11 C2.66 11 3.32 11 4 11 C4 11.99 4 12.98 4 14 C2.02 14 0.04 14 -2 14 C-2 14.99 -2 15.98 -2 17 C-3.65 17 -5.3 17 -7 17 C-7.26252625 12.66831683 -6.29243536 9.1196377 -5 5 C-4.01 5 -3.02 5 -2 5 C-2 4.34 -2 3.68 -2 3 C-1.34 3 -0.68 3 0 3 C0 2.01 0 1.02 0 0 Z " fill="#4D5C2A" transform="translate(65,44)"/>
<path d="M0 0 C4.95 0 9.9 0 15 0 C14.67 2.31 14.34 4.62 14 7 C12.68 7 11.36 7 10 7 C10 5.68 10 4.36 10 3 C8.68 3 7.36 3 6 3 C6 4.32 6 5.64 6 7 C5.01 7 4.02 7 3 7 C3 5.68 3 4.36 3 3 C2.01 3 1.02 3 0 3 C0 2.01 0 1.02 0 0 Z " fill="#994B2C" transform="translate(39,50)"/>
<path d="M0 0 C1.32 0.33 2.64 0.66 4 1 C4 1.99 4 2.98 4 4 C4.66 4 5.32 4 6 4 C6 5.65 6 7.3 6 9 C5.01 9 4.02 9 3 9 C3 8.01 3 7.02 3 6 C-3.93 5.505 -3.93 5.505 -11 5 C-11 4.01 -11 3.02 -11 2 C-7.37 2 -3.74 2 0 2 C0 1.34 0 0.68 0 0 Z " fill="#7F3B21" transform="translate(115,61)"/>
<path d="M0 0 C2.31 0 4.62 0 7 0 C7 2.97 7 5.94 7 9 C5.68 9 4.36 9 3 9 C3 8.01 3 7.02 3 6 C2.01 6 1.02 6 0 6 C0 6.99 0 7.98 0 9 C-0.99 9 -1.98 9 -3 9 C-3 7.02 -3 5.04 -3 3 C-2.01 3 -1.02 3 0 3 C0 2.01 0 1.02 0 0 Z " fill="#005276" transform="translate(26,60)"/>
<path d="M0 0 C-1.32 2.31 -2.64 4.62 -4 7 C-5.32 7 -6.64 7 -8 7 C-8.33 7.66 -8.66 8.32 -9 9 C-9.33 8.01 -9.66 7.02 -10 6 C-11.65 7.32 -13.3 8.64 -15 10 C-15.33 8.02 -15.66 6.04 -16 4 C-17.32 3.67 -18.64 3.34 -20 3 C-17.08517222 2.19032562 -15.53886783 1.78154007 -12.6875 2.9375 C-12.130625 3.288125 -11.57375 3.63875 -11 4 C-10.113125 3.34 -9.22625 2.68 -8.3125 2 C-5.01888014 0.01139933 -3.71748127 -0.43735074 0 0 Z " fill="#02581D" transform="translate(95,114)"/>
<path d="M0 0 C0.66 0 1.32 0 2 0 C2 0.99 2 1.98 2 3 C2.66 3 3.32 3 4 3 C4 3.66 4 4.32 4 5 C3.34 5 2.68 5 2 5 C2 5.66 2 6.32 2 7 C1.34 7 0.68 7 0 7 C0 7.99 0 8.98 0 10 C-0.66 10 -1.32 10 -2 10 C-2 10.66 -2 11.32 -2 12 C-2.99 12 -3.98 12 -5 12 C-5 11.34 -5 10.68 -5 10 C-5.66 10 -6.32 10 -7 10 C-7 8.35 -7 6.7 -7 5 C-6.01 5 -5.02 5 -4 5 C-4 4.01 -4 3.02 -4 2 C-2.68 2 -1.36 2 0 2 C0 1.34 0 0.68 0 0 Z " fill="#4E5B1A" transform="translate(74,58)"/>
<path d="M0 0 C5.61 0 11.22 0 17 0 C17 0.99 17 1.98 17 3 C15.35 3 13.7 3 12 3 C12 4.98 12 6.96 12 9 C11.01 9.33 10.02 9.66 9 10 C9 7.69 9 5.38 9 3 C6.03 3 3.06 3 0 3 C0 2.01 0 1.02 0 0 Z " fill="#002F4D" transform="translate(36,105)"/>
<path d="M0 0 C1.65 0 3.3 0 5 0 C5 0.99 5 1.98 5 3 C6.98 3 8.96 3 11 3 C11 3.66 11 4.32 11 5 C8.03 4.505 8.03 4.505 5 4 C5 5.32 5 6.64 5 8 C3.35 8 1.7 8 0 8 C0 8.66 0 9.32 0 10 C-0.66 10 -1.32 10 -2 10 C-2 9.34 -2 8.68 -2 8 C-2.66 8 -3.32 8 -4 8 C-4 6.68 -4 5.36 -4 4 C-2.68 3.67 -1.36 3.34 0 3 C0 2.01 0 1.02 0 0 Z " fill="#49571D" transform="translate(76,43)"/>
<path d="M0 0 C8.0740276 0.34504391 8.0740276 0.34504391 11.5625 2.8125 C13 5 13 5 13 9 C10.23662074 9 8.5345734 8.97639255 6 8 C3.62513939 5.56332089 1.79343959 2.88395597 0 0 Z " fill="#006F10" transform="translate(47,115)"/>
<path d="M0 0 C7.26 0 14.52 0 22 0 C22 0.99 22 1.98 22 3 C14.74 3 7.48 3 0 3 C0 2.01 0 1.02 0 0 Z " fill="#002F4C" transform="translate(17,95)"/>
<path d="M0 0 C3.96 0 7.92 0 12 0 C12 3.96 12 7.92 12 12 C11.01 12 10.02 12 9 12 C9 9.03 9 6.06 9 3 C6.03 3 3.06 3 0 3 C0 2.01 0 1.02 0 0 Z " fill="#9B2A06" transform="translate(42,60)"/>
<path d="M0 0 C1.32 0.33 2.64 0.66 4 1 C2.44816214 2.80193989 0.88468811 4.59095676 -0.6875 6.375 C-1.12255859 6.88289063 -1.55761719 7.39078125 -2.00585938 7.9140625 C-4.7568016 11.01141968 -7.01795535 12.80897403 -11 14 C-11.66 12.68 -12.32 11.36 -13 10 C-10.29120665 8.64560332 -7.99066732 8.93498549 -5 9 C-4.67 7.35 -4.34 5.7 -4 4 C-3.34 4 -2.68 4 -2 4 C-1.34 2.68 -0.68 1.36 0 0 Z " fill="#035C23" transform="translate(116,106)"/>
<path d="M0 0 C1.65 0 3.3 0 5 0 C5 0.66 5 1.32 5 2 C6.32 2 7.64 2 9 2 C9 2.66 9 3.32 9 4 C8.34 4 7.68 4 7 4 C7 4.66 7 5.32 7 6 C5.35 6 3.7 6 2 6 C2 5.34 2 4.68 2 4 C1.34 4 0.68 4 0 4 C0 4.99 0 5.98 0 7 C-0.99 7 -1.98 7 -3 7 C-3.33 7.66 -3.66 8.32 -4 9 C-4 6.69 -4 4.38 -4 2 C-2.68 2 -1.36 2 0 2 C0 1.34 0 0.68 0 0 Z " fill="#767E19" transform="translate(65,49)"/>
<path d="M0 0 C0.33 0 0.66 0 1 0 C1.80184381 4.92561197 2.13519708 9.61823232 2.125 14.625 C2.12757812 15.89601563 2.13015625 17.16703125 2.1328125 18.4765625 C2.02020097 21.46408027 1.69908062 24.10380888 1 27 C0.01 27 -0.98 27 -2 27 C-2 24.36 -2 21.72 -2 19 C-1.34 19 -0.68 19 0 19 C0 12.73 0 6.46 0 0 Z " fill="#56281C" transform="translate(125,63)"/>
<path d="M0 0 C0.66 0 1.32 0 2 0 C2 3.3 2 6.6 2 10 C1.34 10 0.68 10 0 10 C0 13.3 0 16.6 0 20 C-0.99 20.33 -1.98 20.66 -3 21 C-2.67 15.72 -2.34 10.44 -2 5 C-1.34 5 -0.68 5 0 5 C0 3.35 0 1.7 0 0 Z " fill="#3D1D1A" transform="translate(121,85)"/>
<path d="M0 0 C1.32 0 2.64 0 4 0 C4 0.66 4 1.32 4 2 C4.99 2 5.98 2 7 2 C7 2.66 7 3.32 7 4 C7.66 4 8.32 4 9 4 C9 6.64 9 9.28 9 12 C7.68 12 6.36 12 5 12 C5.33 10.35 5.66 8.7 6 7 C4.68 7 3.36 7 2 7 C2 6.34 2 5.68 2 5 C2.66 5 3.32 5 4 5 C4 4.34 4 3.68 4 3 C2.68 3.33 1.36 3.66 0 4 C0 2.68 0 1.36 0 0 Z " fill="#8F911E" transform="translate(72,22)"/>
<path d="M0 0 C-1.2739589 2.03833424 -2.61061923 4.03852126 -4 6 C-4.66 6 -5.32 6 -6 6 C-6 6.66 -6 7.32 -6 8 C-7.98 8.66 -9.96 9.32 -12 10 C-10.55395683 3.61330935 -10.55395683 3.61330935 -8.25 1.0625 C-5.37933889 -0.29308997 -3.13566218 -0.21379515 0 0 Z " fill="#005F14" transform="translate(41,110)"/>
<path d="M0 0 C0.99 0 1.98 0 3 0 C3 5.94 3 11.88 3 18 C2.01 18 1.02 18 0 18 C0 12.06 0 6.12 0 0 Z " fill="#ED6D18" transform="translate(8,60)"/>
<path d="M0 0 C1.32 0 2.64 0 4 0 C4 2.97 4 5.94 4 9 C1.69 9 -0.62 9 -3 9 C-3 7.02 -3 5.04 -3 3 C-2.01 3 -1.02 3 0 3 C0 2.01 0 1.02 0 0 Z " fill="#04618F" transform="translate(19,14)"/>
<path d="M0 0 C1.98 0 3.96 0 6 0 C6 2.31 6 4.62 6 7 C2.7 7 -0.6 7 -4 7 C-3.67 6.01 -3.34 5.02 -3 4 C-2.01 4 -1.02 4 0 4 C0 2.68 0 1.36 0 0 Z " fill="#F15606" transform="translate(16,53)"/>
<path d="M0 0 C0.33 0 0.66 0 1 0 C0.8014043 8.16047799 -1.57458419 14.64357196 -5 22 C-5.33 22 -5.66 22 -6 22 C-6 19.03 -6 16.06 -6 13 C-5.34 13 -4.68 13 -4 13 C-4 11.35 -4 9.7 -4 8 C-3.01 8 -2.02 8 -1 8 C-0.67 5.36 -0.34 2.72 0 0 Z " fill="#6C3323" transform="translate(127,82)"/>
<path d="M0 0 C0.99 0 1.98 0 3 0 C3 0.66 3 1.32 3 2 C4.32 2 5.64 2 7 2 C7 2.99 7 3.98 7 5 C8.32 5 9.64 5 11 5 C11 5.66 11 6.32 11 7 C10.34 7 9.68 7 9 7 C9 7.66 9 8.32 9 9 C6.525 8.01 6.525 8.01 4 7 C4 6.34 4 5.68 4 5 C2.68 5 1.36 5 0 5 C0 3.35 0 1.7 0 0 Z " fill="#73351F" transform="translate(85,53)"/>
<path d="M0 0 C1.32 0 2.64 0 4 0 C4 1.32 4 2.64 4 4 C5.32 4 6.64 4 8 4 C8.33 2.68 8.66 1.36 9 0 C9 2.31 9 4.62 9 7 C6.03 7 3.06 7 0 7 C0 4.69 0 2.38 0 0 Z " fill="#F9851E" transform="translate(45,53)"/>
<path d="M0 0 C1.98 0 3.96 0 6 0 C6 0.66 6 1.32 6 2 C7.32 2 8.64 2 10 2 C10 2.99 10 3.98 10 5 C10.66 5 11.32 5 12 5 C12 6.65 12 8.3 12 10 C11.34 10 10.68 10 10 10 C10 9.01 10 8.02 10 7 C9.34 7 8.68 7 8 7 C8 6.34 8 5.68 8 5 C7.01 5 6.02 5 5 5 C5 4.34 5 3.68 5 3 C3.35 3 1.7 3 0 3 C0 2.01 0 1.02 0 0 Z " fill="#415433" transform="translate(71,19)"/>
<path d="M0 0 C5.28 0 10.56 0 16 0 C16 2.64 16 5.28 16 8 C14.68 7.67 13.36 7.34 12 7 C12 6.01 12 5.02 12 4 C12.66 4 13.32 4 14 4 C13.67 3.34 13.34 2.68 13 2 C11.58344207 1.9727585 10.16672955 1.95349533 8.75 1.9375 C7.96109375 1.92589844 7.1721875 1.91429688 6.359375 1.90234375 C4.09308998 1.99614694 2.1711105 2.36758937 0 3 C0 2.01 0 1.02 0 0 Z " fill="#356CE1" transform="translate(29,108)"/>
<path d="M0 0 C0.99 0 1.98 0 3 0 C3 4.95 3 9.9 3 15 C2.01 15 1.02 15 0 15 C0 10.05 0 5.1 0 0 Z " fill="#54DAF2" transform="translate(33,14)"/>
<path d="M0 0 C-0.99 0.495 -0.99 0.495 -2 1 C-2 2.65 -2 4.3 -2 6 C-3.32 6 -4.64 6 -6 6 C-6 5.01 -6 4.02 -6 3 C-6.99 3 -7.98 3 -9 3 C-9 2.34 -9 1.68 -9 1 C-10.98 1 -12.96 1 -15 1 C-15 0.67 -15 0.34 -15 0 C-9.76528314 -0.75612577 -5.22745859 -1.2063366 0 0 Z " fill="#5E6919" transform="translate(96,45)"/>
<path d="M0 0 C1.65 0 3.3 0 5 0 C5 0.66 5 1.32 5 2 C5.99 2 6.98 2 8 2 C8 2.99 8 3.98 8 5 C9.32 5 10.64 5 12 5 C12 5.66 12 6.32 12 7 C12.66 7 13.32 7 14 7 C14 7.99 14 8.98 14 10 C13.34 10 12.68 10 12 10 C11.67 8.68 11.34 7.36 11 6 C8.03 5.505 8.03 5.505 5 5 C5 4.34 5 3.68 5 3 C4.01 3 3.02 3 2 3 C2 3.66 2 4.32 2 5 C0.68 4.34 -0.64 3.68 -2 3 C-1.34 3 -0.68 3 0 3 C0 2.01 0 1.02 0 0 Z " fill="#32537B" transform="translate(85,26)"/>
<path d="M0 0 C4 0 4 0 5.375 1.3125 C5.91125 1.869375 6.4475 2.42625 7 3 C10.98960632 5.30510587 14.42860577 6.4557864 19 7 C19 7.33 19 7.66 19 8 C14.1666528 8.08333357 9.76307437 7.95261487 5 7 C5 6.01 5 5.02 5 4 C4.34 4 3.68 4 3 4 C3 3.34 3 2.68 3 2 C2.01 2 1.02 2 0 2 C0 1.34 0 0.68 0 0 Z " fill="#341C1D" transform="translate(85,58)"/>
<path d="M0 0 C1.98 0 3.96 0 6 0 C6 1.32 6 2.64 6 4 C5.34 4 4.68 4 4 4 C4 5.65 4 7.3 4 9 C3.34 9 2.68 9 2 9 C2 7.35 2 5.7 2 4 C0.68 4 -0.64 4 -2 4 C-2 3.34 -2 2.68 -2 2 C-1.34 2 -0.68 2 0 2 C0 1.34 0 0.68 0 0 Z " fill="#2A3A2E" transform="translate(63,59)"/>
<path d="M0 0 C0.66 0 1.32 0 2 0 C1.98839844 0.61488281 1.97679688 1.22976562 1.96484375 1.86328125 C1.95582031 2.67152344 1.94679688 3.47976562 1.9375 4.3125 C1.92589844 5.11300781 1.91429688 5.91351563 1.90234375 6.73828125 C1.90342145 9.16861334 1.90342145 9.16861334 3 12 C0.69 12 -1.62 12 -4 12 C-3.34 11.34 -2.68 10.68 -2 10 C-1.83318891 6.91652174 -1.83318891 6.91652174 -2 4 C-1.34 4 -0.68 4 0 4 C0 2.68 0 1.36 0 0 Z " fill="#354C4E" transform="translate(69,22)"/>
<path d="M0 0 C0.99 0 1.98 0 3 0 C3 0.99 3 1.98 3 3 C4.98 3 6.96 3 9 3 C9 3.99 9 4.98 9 6 C4.545 6.495 4.545 6.495 0 7 C0 4.69 0 2.38 0 0 Z " fill="#044466" transform="translate(33,69)"/>
<path d="M0 0 C1.65 0 3.3 0 5 0 C5 0.99 5 1.98 5 3 C5.66 3 6.32 3 7 3 C7 2.01 7 1.02 7 0 C7.66 0 8.32 0 9 0 C9 1.65 9 3.3 9 5 C8.34 5 7.68 5 7 5 C7 5.66 7 6.32 7 7 C6.34 7 5.68 7 5 7 C5 6.34 5 5.68 5 5 C4.34 5 3.68 5 3 5 C3 4.34 3 3.68 3 3 C2.01 3 1.02 3 0 3 C0 2.01 0 1.02 0 0 Z " fill="#A8A229" transform="translate(78,36)"/>
<path d="M0 0 C0.99 0 1.98 0 3 0 C3 1.98 3 3.96 3 6 C0.03 6 -2.94 6 -6 6 C-6 5.01 -6 4.02 -6 3 C-4.02 3 -2.04 3 0 3 C0 2.01 0 1.02 0 0 Z " fill="#015C83" transform="translate(51,72)"/>
<path d="M0 0 C2.31 0 4.62 0 7 0 C7 1.65 7 3.3 7 5 C6.34 5 5.68 5 5 5 C5 5.66 5 6.32 5 7 C4.01 7 3.02 7 2 7 C1.34 4.69 0.68 2.38 0 0 Z " fill="#9D9B20" transform="translate(67,36)"/>
<path d="M0 0 C0.99 0 1.98 0 3 0 C3 0.99 3 1.98 3 3 C3.66 3.33 4.32 3.66 5 4 C4.67 5.65 4.34 7.3 4 9 C2.68 9 1.36 9 0 9 C0 6.03 0 3.06 0 0 Z " fill="#00749D" transform="translate(26,66)"/>
<path d="M0 0 C1.98 0.495 1.98 0.495 4 1 C4 3.97 4 6.94 4 10 C3.34 10 2.68 10 2 10 C2 9.01 2 8.02 2 7 C1.01 7 0.02 7 -1 7 C-0.67 4.69 -0.34 2.38 0 0 Z " fill="#757E1A" transform="translate(81,29)"/>
<path d="M0 0 C0.99 0 1.98 0 3 0 C3 1.65 3 3.3 3 5 C2.34 5 1.68 5 1 5 C1 5.66 1 6.32 1 7 C0.01 7 -0.98 7 -2 7 C-2 7.99 -2 8.98 -2 10 C-2.66 10 -3.32 10 -4 10 C-4 8.68 -4 7.36 -4 6 C-3.34 6 -2.68 6 -2 6 C-2 5.01 -2 4.02 -2 3 C-1.34 3 -0.68 3 0 3 C0 2.01 0 1.02 0 0 Z " fill="#2C4352" transform="translate(103,43)"/>
<path d="M0 0 C0.66 0 1.32 0 2 0 C2 0.66 2 1.32 2 2 C2.66 2 3.32 2 4 2 C4 2.66 4 3.32 4 4 C1.03 4 -1.94 4 -5 4 C-5 4.99 -5 5.98 -5 7 C-5.66 7 -6.32 7 -7 7 C-7 5.35 -7 3.7 -7 2 C-4.69 2 -2.38 2 0 2 C0 1.34 0 0.68 0 0 Z " fill="#536021" transform="translate(72,32)"/>
<path d="M0 0 C0.99 0 1.98 0 3 0 C3 0.66 3 1.32 3 2 C3.66 2 4.32 2 5 2 C5 3.65 5 5.3 5 7 C4.34 7 3.68 7 3 7 C3 6.34 3 5.68 3 5 C1.35 5 -0.3 5 -2 5 C-2 4.01 -2 3.02 -2 2 C-1.34 2 -0.68 2 0 2 C0 1.34 0 0.68 0 0 Z " fill="#A5A02F" transform="translate(87,29)"/>
<path d="M0 0 C0.99 0 1.98 0 3 0 C3 2.31 3 4.62 3 7 C1.02 7 -0.96 7 -3 7 C-3 6.01 -3 5.02 -3 4 C-2.01 4 -1.02 4 0 4 C0 2.68 0 1.36 0 0 Z " fill="#006086" transform="translate(23,87)"/>
<path d="M0 0 C0.66 0 1.32 0 2 0 C2 0.99 2 1.98 2 3 C0.68 3 -0.64 3 -2 3 C-2 3.66 -2 4.32 -2 5 C-0.68 5 0.64 5 2 5 C2 5.66 2 6.32 2 7 C0.68 7 -0.64 7 -2 7 C-2.33 7.99 -2.66 8.98 -3 10 C-3 8.68 -3 7.36 -3 6 C-4.98 6 -6.96 6 -9 6 C-9 5.67 -9 5.34 -9 5 C-7.02 5 -5.04 5 -3 5 C-3 4.01 -3 3.02 -3 2 C-2.01 2 -1.02 2 0 2 C0 1.34 0 0.68 0 0 Z " fill="#3A4822" transform="translate(72,53)"/>
<path d="M0 0 C1.32 0 2.64 0 4 0 C4 0.66 4 1.32 4 2 C5.65 2 7.3 2 9 2 C9 2.66 9 3.32 9 4 C5.37 4 1.74 4 -2 4 C-2 3.34 -2 2.68 -2 2 C-1.34 2 -0.68 2 0 2 C0 1.34 0 0.68 0 0 Z " fill="#222E30" transform="translate(90,51)"/>
<path d="M0 0 C1.98 0 3.96 0 6 0 C6 0.99 6 1.98 6 3 C5.01 3 4.02 3 3 3 C3 4.32 3 5.64 3 7 C2.01 7 1.02 7 0 7 C0 4.69 0 2.38 0 0 Z " fill="#FE861E" transform="translate(13,50)"/>
<path d="M0 0 C2.97 0 5.94 0 9 0 C9 0.33 9 0.66 9 1 C6.69 1.33 4.38 1.66 2 2 C2.7734375 2.8971875 2.7734375 2.8971875 3.5625 3.8125 C4.036875 4.534375 4.51125 5.25625 5 6 C4.67 6.99 4.34 7.98 4 9 C0.06153846 5.67692308 0.06153846 5.67692308 -0.25 2.25 C-0.1675 1.5075 -0.085 0.765 0 0 Z " fill="#005220" transform="translate(10,105)"/>
<path d="M0 0 C3.3 0 6.6 0 10 0 C10 1.32 10 2.64 10 4 C8.02 4 6.04 4 4 4 C4 3.01 4 2.02 4 1 C2.68 0.67 1.36 0.34 0 0 Z " fill="#243D58" transform="translate(13,83)"/>
<path d="M0 0 C4.8333472 -0.08333357 9.23692563 0.04738513 14 1 C14 1.99 14 2.98 14 4 C13.34 4 12.68 4 12 4 C12 3.34 12 2.68 12 2 C10.68 2 9.36 2 8 2 C7.67 2.66 7.34 3.32 7 4 C7 3.34 7 2.68 7 2 C4.69 2 2.38 2 0 2 C0 1.34 0 0.68 0 0 Z " fill="#53271B" transform="translate(104,66)"/>
<path d="M0 0 C0.66 1.32 1.32 2.64 2 4 C-2.29 4 -6.58 4 -11 4 C-11 3.34 -11 2.68 -11 2 C-7.37 2 -3.74 2 0 2 C0 1.34 0 0.68 0 0 Z " fill="#4A2522" transform="translate(113,58)"/>
<path d="M0 0 C2.67927341 4.01891012 2.15601248 6.24161923 2 11 C1.01 11 0.02 11 -1 11 C-1.0270043 9.54176788 -1.04639787 8.08339325 -1.0625 6.625 C-1.07410156 5.81289063 -1.08570313 5.00078125 -1.09765625 4.1640625 C-1 2 -1 2 0 0 Z " fill="#881B02" transform="translate(34,58)"/>
<path d="M0 0 C0.66 0 1.32 0 2 0 C2 0.99 2 1.98 2 3 C2.66 3.33 3.32 3.66 4 4 C2.68 4 1.36 4 0 4 C0 4.99 0 5.98 0 7 C-1.32 7 -2.64 7 -4 7 C-4.33 8.32 -4.66 9.64 -5 11 C-5 9.02 -5 7.04 -5 5 C-4.01 5 -3.02 5 -2 5 C-2 4.34 -2 3.68 -2 3 C-1.34 3 -0.68 3 0 3 C0 2.01 0 1.02 0 0 Z " fill="#3D4E31" transform="translate(65,44)"/>
<path d="M0 0 C2.97 0 5.94 0 9 0 C9 0.99 9 1.98 9 3 C6.03 3 3.06 3 0 3 C0 2.01 0 1.02 0 0 Z " fill="#00304E" transform="translate(45,95)"/>
<path d="M0 0 C0.99 0 1.98 0 3 0 C3 2.97 3 5.94 3 9 C2.01 9 1.02 9 0 9 C0 6.03 0 3.06 0 0 Z " fill="#005378" transform="translate(42,85)"/>
<path d="M0 0 C0.99 0 1.98 0 3 0 C5 3 5 3 5 6 C4.34 6 3.68 6 3 6 C2.67 6.66 2.34 7.32 2 8 C2 7.34 2 6.68 2 6 C1.34 6 0.68 6 0 6 C0 4.02 0 2.04 0 0 Z " fill="#394721" transform="translate(76,55)"/>
<path d="M0 0 C4.95 0.99 4.95 0.99 10 2 C10 2.66 10 3.32 10 4 C7.03 3.505 7.03 3.505 4 3 C4 4.32 4 5.64 4 7 C3.01 6.67 2.02 6.34 1 6 C0.67 4.02 0.34 2.04 0 0 Z " fill="#394721" transform="translate(77,44)"/>
<path d="M0 0 C2.97 0.495 2.97 0.495 6 1 C5.01 1.495 5.01 1.495 4 2 C4 3.32 4 4.64 4 6 C2.35 6 0.7 6 -1 6 C-0.67 4.02 -0.34 2.04 0 0 Z " fill="#304025" transform="translate(95,47)"/>
<path d="M0 0 C1.32 0 2.64 0 4 0 C4 0.66 4 1.32 4 2 C4.66 2 5.32 2 6 2 C6 3.32 6 4.64 6 6 C4.68 6.33 3.36 6.66 2 7 C2 6.34 2 5.68 2 5 C2.66 5 3.32 5 4 5 C4 4.34 4 3.68 4 3 C2.68 3.33 1.36 3.66 0 4 C0 2.68 0 1.36 0 0 Z " fill="#B0AA2C" transform="translate(72,22)"/>
<path d="M0 0 C-0.33 0.99 -0.66 1.98 -1 3 C-3.5625 4.1875 -3.5625 4.1875 -6 5 C-6.66 3.68 -7.32 2.36 -8 1 C-5.29120665 -0.35439668 -2.99066732 -0.06501451 0 0 Z " fill="#00531C" transform="translate(111,115)"/>
<path d="M0 0 C0.66 0.33 1.32 0.66 2 1 C1.46930939 4.82097239 0.50298434 7.06171403 -2 10 C-2 7.03 -2 4.06 -2 1 C-1.34 0.67 -0.68 0.34 0 0 Z " fill="#5F2C1F" transform="translate(123,94)"/>
<path d="M0 0 C0 1.32 0 2.64 0 4 C-1.98 4 -3.96 4 -6 4 C-6 2.68 -6 1.36 -6 0 C-2.25 -1.125 -2.25 -1.125 0 0 Z " fill="#7A831D" transform="translate(69,39)"/>
<path d="M0 0 C1.98 0 3.96 0 6 0 C6 1.32 6 2.64 6 4 C4.02 4 2.04 4 0 4 C0 2.68 0 1.36 0 0 Z " fill="#00719A" transform="translate(36,78)"/>
<path d="M0 0 C2.64 0 5.28 0 8 0 C8 0.99 8 1.98 8 3 C5.36 3 2.72 3 0 3 C0 2.01 0 1.02 0 0 Z " fill="#8C4227" transform="translate(94,60)"/>
<path d="M0 0 C1.65 0 3.3 0 5 0 C5 0.66 5 1.32 5 2 C5.66 2 6.32 2 7 2 C7 3.65 7 5.3 7 7 C6.34 7 5.68 7 5 7 C5 6.01 5 5.02 5 4 C4.34 4 3.68 4 3 4 C3 3.34 3 2.68 3 2 C2.01 2 1.02 2 0 2 C0 1.34 0 0.68 0 0 Z " fill="#2B1719" transform="translate(78,51)"/>
<path d="M0 0 C2.31 0 4.62 0 7 0 C7 2.97 7 5.94 7 9 C6.67 9 6.34 9 6 9 C6 6.36 6 3.72 6 1 C5.34 1 4.68 1 4 1 C4 1.66 4 2.32 4 3 C2.68 3 1.36 3 0 3 C0 2.01 0 1.02 0 0 Z " fill="#1F3A59" transform="translate(26,60)"/>
<path d="M0 0 C0.99 0 1.98 0 3 0 C3 5.28 3 10.56 3 16 C2.67 16 2.34 16 2 16 C2 11.71 2 7.42 2 3 C1.34 3 0.68 3 0 3 C0 2.01 0 1.02 0 0 Z " fill="#0473A3" transform="translate(51,78)"/>
<path d="M0 0 C0.66 0 1.32 0 2 0 C2 0.99 2 1.98 2 3 C2.66 3 3.32 3 4 3 C4 4.32 4 5.64 4 7 C2.68 7 1.36 7 0 7 C0 4.69 0 2.38 0 0 Z " fill="#42542E" transform="translate(99,36)"/>
<path d="M0 0 C1.98 0 3.96 0 6 0 C6 0.66 6 1.32 6 2 C7.32 2.33 8.64 2.66 10 3 C6.7 3 3.4 3 0 3 C0 2.01 0 1.02 0 0 Z " fill="#305289" transform="translate(71,19)"/>
<path d="M0 0 C0.66 0 1.32 0 2 0 C2 0.66 2 1.32 2 2 C2.66 2 3.32 2 4 2 C4 3.65 4 5.3 4 7 C3.01 7 2.02 7 1 7 C0.67 4.69 0.34 2.38 0 0 Z " fill="#8C4124" transform="translate(117,63)"/>
<path d="M0 0 C0.99 0 1.98 0 3 0 C3 0.66 3 1.32 3 2 C4.32 2 5.64 2 7 2 C7 2.99 7 3.98 7 5 C6.34 5 5.68 5 5 5 C5 4.34 5 3.68 5 3 C4.01 3 3.02 3 2 3 C2 3.66 2 4.32 2 5 C1.34 5 0.68 5 0 5 C0 3.35 0 1.7 0 0 Z " fill="#56291E" transform="translate(85,53)"/>
<path d="M0 0 C0.99 0 1.98 0 3 0 C3 2.31 3 4.62 3 7 C2.01 7 1.02 7 0 7 C0 4.69 0 2.38 0 0 Z " fill="#ED5304" transform="translate(30,53)"/>
<path d="M0 0 C1.65 0 3.3 0 5 0 C5 0.99 5 1.98 5 3 C4.01 3 3.02 3 2 3 C2 3.66 2 4.32 2 5 C0.68 4.34 -0.64 3.68 -2 3 C-1.34 3 -0.68 3 0 3 C0 2.01 0 1.02 0 0 Z " fill="#334B52" transform="translate(85,26)"/>
<path d="M0 0 C0.66 0 1.32 0 2 0 C2 0.66 2 1.32 2 2 C2.66 2 3.32 2 4 2 C4 3.65 4 5.3 4 7 C3.34 7 2.68 7 2 7 C2 6.34 2 5.68 2 5 C1.34 5 0.68 5 0 5 C0 3.35 0 1.7 0 0 Z " fill="#54271C" transform="translate(119,70)"/>
<path d="M0 0 C0.8353125 0.37125 0.8353125 0.37125 1.6875 0.75 C-0.5625 2.8125 -0.5625 2.8125 -3.3125 4.75 C-5.625 4.5 -5.625 4.5 -7.3125 3.75 C-2.88173077 -0.31153846 -2.88173077 -0.31153846 0 0 Z " fill="#056427" transform="translate(62.3125,110.25)"/>
<path d="M0 0 C0.66 0 1.32 0 2 0 C2 2.31 2 4.62 2 7 C1.34 7 0.68 7 0 7 C-0.66 5.35 -1.32 3.7 -2 2 C-1.34 2 -0.68 2 0 2 C0 1.34 0 0.68 0 0 Z " fill="#321718" transform="translate(121,78)"/>
<path d="M0 0 C0.66 0 1.32 0 2 0 C2 2.31 2 4.62 2 7 C1.34 7 0.68 7 0 7 C-0.33 6.01 -0.66 5.02 -1 4 C-1.99 3.34 -2.98 2.68 -4 2 C-2.68 2 -1.36 2 0 2 C0 1.34 0 0.68 0 0 Z " fill="#70331F" transform="translate(119,58)"/>
<path d="M0 0 C1.32 0 2.64 0 4 0 C4 1.32 4 2.64 4 4 C1.69 3.67 -0.62 3.34 -3 3 C-2.01 2.67 -1.02 2.34 0 2 C0 1.34 0 0.68 0 0 Z " fill="#747D19" transform="translate(72,41)"/>
<path d="M0 0 C0 0.66 0 1.32 0 2 C-2.875 2.125 -2.875 2.125 -6 2 C-6.66 1.34 -7.32 0.68 -8 0 C-4.71023192 -1.09658936 -3.28696233 -0.79953138 0 0 Z " fill="#005018" transform="translate(44,119)"/>
<path d="M0 0 C1.98 0 3.96 0 6 0 C6 0.99 6 1.98 6 3 C4.02 3 2.04 3 0 3 C0 2.01 0 1.02 0 0 Z " fill="#0BB3DA" transform="translate(39,95)"/>
<path d="M0 0 C0.99 0 1.98 0 3 0 C3.66 1.65 4.32 3.3 5 5 C3.68 5 2.36 5 1 5 C1 4.01 1 3.02 1 2 C0.34 1.67 -0.32 1.34 -1 1 C-0.67 0.67 -0.34 0.34 0 0 Z " fill="#231928" transform="translate(112,73)"/>
<path d="M0 0 C1.98 0 3.96 0 6 0 C6 0.99 6 1.98 6 3 C4.02 3 2.04 3 0 3 C0 2.01 0 1.02 0 0 Z " fill="#033D5F" transform="translate(45,72)"/>
<path d="M0 0 C1.98 0 3.96 0 6 0 C6 0.99 6 1.98 6 3 C4.02 3 2.04 3 0 3 C0 2.01 0 1.02 0 0 Z " fill="#E95403" transform="translate(45,63)"/>
<path d="M0 0 C0.66 0 1.32 0 2 0 C2 0.99 2 1.98 2 3 C2.66 3 3.32 3 4 3 C4 3.66 4 4.32 4 5 C2.68 5 1.36 5 0 5 C0 4.34 0 3.68 0 3 C-1.32 2.67 -2.64 2.34 -4 2 C-2.68 2 -1.36 2 0 2 C0 1.34 0 0.68 0 0 Z " fill="#46531B" transform="translate(74,58)"/>
<path d="M0 0 C1.98 0 3.96 0 6 0 C6 0.99 6 1.98 6 3 C4.02 3 2.04 3 0 3 C0 2.01 0 1.02 0 0 Z " fill="#EF852B" transform="translate(13,45)"/>
<path d="M0 0 C0.33 0.66 0.66 1.32 1 2 C1.66 2 2.32 2 3 2 C3 2.66 3 3.32 3 4 C3.66 4 4.32 4 5 4 C5 4.66 5 5.32 5 6 C3.68 6 2.36 6 1 6 C1 5.34 1 4.68 1 4 C0.34 4 -0.32 4 -1 4 C-0.67 2.68 -0.34 1.36 0 0 Z " fill="#727C18" transform="translate(80,39)"/>
<path d="M0 0 C0.66 0 1.32 0 2 0 C2 1.65 2 3.3 2 5 C1.34 5 0.68 5 0 5 C0 5.66 0 6.32 0 7 C-0.66 7 -1.32 7 -2 7 C-2 5.68 -2 4.36 -2 3 C-1.34 3 -0.68 3 0 3 C0 2.01 0 1.02 0 0 Z " fill="#B7AF2E" transform="translate(85,36)"/>
<path d="M0 0 C-0.99 0.33 -1.98 0.66 -3 1 C-3 1.66 -3 2.32 -3 3 C-4.65 2.67 -6.3 2.34 -8 2 C-8 1.34 -8 0.68 -8 0 C-4.71303767 -0.79953138 -3.28976808 -1.09658936 0 0 Z " fill="#01561E" transform="translate(38,123)"/>
<path d="M0 0 C0 1.32 0 2.64 0 4 C-1.65 4 -3.3 4 -5 4 C-5 3.01 -5 2.02 -5 1 C-2 0 -2 0 0 0 Z " fill="#D73700" transform="translate(22,53)"/>
<path d="M0 0 C0.99 0 1.98 0 3 0 C3 0.99 3 1.98 3 3 C3.66 3 4.32 3 5 3 C4.67 4.32 4.34 5.64 4 7 C4 6.34 4 5.68 4 5 C3.34 5 2.68 5 2 5 C2 4.34 2 3.68 2 3 C1.34 3 0.68 3 0 3 C0 2.01 0 1.02 0 0 Z " fill="#65701A" transform="translate(92,38)"/>
</svg>
