<svg width="128" height="128" viewBox="0 0 128 128" fill="none" xmlns="http://www.w3.org/2000/svg">
<g id="twitter">
<g clip-path="url(#clip0_19_502)">
<g id="Clip path group">
<g id="Group">
<path id="Vector" d="M93 0H35C15.67 0 0 15.67 0 35V93C0 112.33 15.67 128 35 128H93C112.33 128 128 112.33 128 93V35C128 15.67 112.33 0 93 0Z" fill="#21232B"/>
<path id="Vector_2" d="M14.5064 150C7.73502 150 3.00968 144.593 3.95207 137.923L6.09878 122.73H-9.32598C-16.0974 122.73 -20.8227 117.323 -19.8803 110.653C-18.9379 103.984 -12.6846 98.5767 -5.91326 98.5767H5.55644C7.74076 98.5767 9.75795 96.8325 10.062 94.681L12.3738 78.319C12.6778 76.1675 11.1535 74.4233 8.96916 74.4233H-2.50053C-9.27194 74.4233 -13.9973 69.0164 -13.0549 62.3466C-12.1125 55.6769 -5.85922 50.2699 0.912188 50.2699H16.337L18.4837 35.0767C19.4261 28.4069 25.6793 23 32.4507 23C39.2221 23 43.9475 28.4069 43.0051 35.0767L41.4088 46.3742C41.1048 48.5258 42.6291 50.2699 44.8134 50.2699H61.4247C63.609 50.2699 65.6262 48.5258 65.9302 46.3742L67.5265 35.0767C68.4689 28.4069 74.7222 23 81.4936 23C88.265 23 92.9903 28.4069 92.0479 35.0767L89.9012 50.2699H105.326C112.097 50.2699 116.823 55.6769 115.88 62.3466C114.938 69.0164 108.685 74.4233 101.913 74.4233H90.4435C88.2592 74.4233 86.242 76.1675 85.938 78.319L83.6262 94.681C83.3222 96.8325 84.8465 98.5767 87.0308 98.5767H98.5005C105.272 98.5767 109.997 103.984 109.055 110.653C108.112 117.323 101.859 122.73 95.0878 122.73H79.663L77.5163 137.923C76.5739 144.593 70.3207 150 63.5493 150C56.7779 150 52.0525 144.593 52.9949 137.923L54.5912 126.626C54.8952 124.474 53.3709 122.73 51.1866 122.73H34.5753C32.391 122.73 30.3738 124.474 30.0698 126.626L28.4735 137.923C27.5311 144.593 21.2778 150 14.5064 150Z" fill="#5865F2"/>
<path id="Vector_3" d="M76.2482 64.144C78.228 64.144 80.1359 65.7223 80.2302 67.6465C80.5321 73.8055 78.6967 79.5721 74.9547 84.008C70.5104 89.2763 63.7406 92.236 56.1347 92.236C48.5288 92.236 40.7097 89.2763 34.3976 84.008C29.0828 79.5722 25.2029 73.8055 23.3212 67.6465C22.7333 65.7223 24.0816 64.144 26.0614 64.144C28.0412 64.144 29.8963 65.7269 30.5638 67.6394C32.0615 71.9306 34.8517 75.9245 38.5869 79.042C43.321 82.9932 49.1853 85.213 54.8897 85.213C60.5942 85.213 65.6715 82.9932 69.0047 79.042C71.6346 75.9245 73.0088 71.9306 72.9851 67.6394C72.9745 65.7269 74.2684 64.144 76.2482 64.144Z" fill="#21232B"/>
<path id="Vector_4" d="M37.817 68.6994C36.6398 68.6994 35.4883 67.7475 35.6113 66.6377C35.7486 65.3986 36.2224 64.2573 37.004 63.3308C38.2052 61.9069 40.0348 61.107 42.0905 61.107C44.1461 61.107 46.2594 61.9069 47.9654 63.3308C49.0755 64.2573 49.9539 65.3986 50.5305 66.6377C51.047 67.7475 50.233 68.6994 49.0558 68.6994C47.8786 68.6994 46.7883 67.6834 45.9455 66.739C45.8013 66.5775 45.6438 66.4249 45.4744 66.2835C44.7067 65.6428 43.7558 65.2829 42.8307 65.2829C41.9057 65.2829 41.0823 65.6428 40.5418 66.2835C40.4225 66.4249 40.3192 66.5775 40.2323 66.739C39.7242 67.6834 38.9942 68.6994 37.817 68.6994Z" fill="#21232B"/>
<path id="Vector_5" d="M54.0938 68.6994C52.9166 68.6994 51.7651 67.7475 51.8881 66.6377C52.0254 65.3986 52.4992 64.2573 53.2808 63.3308C54.482 61.9069 56.3116 61.107 58.3673 61.107C60.4229 61.107 62.5362 61.9069 64.2422 63.3308C65.3523 64.2573 66.2307 65.3986 66.8073 66.6377C67.3238 67.7475 66.5098 68.6994 65.3326 68.6994C64.1554 68.6994 63.0651 67.6834 62.2223 66.739C62.0781 66.5775 61.9206 66.4249 61.7512 66.2835C60.9836 65.6428 60.0326 65.2829 59.1075 65.2829C58.1825 65.2829 57.3591 65.6428 56.8186 66.2835C56.6993 66.4249 56.596 66.5775 56.5091 66.739C56.001 67.6834 55.271 68.6994 54.0938 68.6994Z" fill="#21232B"/>
</g>
</g>
</g>
<rect x="0.5" y="0.5" width="127" height="127" rx="49.5" stroke="white" stroke-opacity="0.25" style="mix-blend-mode:overlay"/>
</g>
<defs>
<clipPath id="clip0_19_502">
<rect width="128" height="128" rx="50" fill="white"/>
</clipPath>
</defs>
</svg>
