<svg width="12" height="9" viewBox="0 0 12 9" fill="none" xmlns="http://www.w3.org/2000/svg">
<path fill-rule="evenodd" clip-rule="evenodd" d="M6.00033 1.86912C7.74143 1.8692 9.41595 2.56802 10.6778 3.82114C10.7728 3.91788 10.9247 3.91666 11.0183 3.8184L11.9266 2.86086C11.974 2.81102 12.0004 2.74351 12 2.67327C11.9996 2.60303 11.9724 2.53585 11.9245 2.4866C8.61255 -0.828865 3.38758 -0.828865 0.0756444 2.4866C0.0276687 2.53581 0.000447867 2.60298 5.47717e-06 2.67322C-0.000436913 2.74346 0.0259356 2.81098 0.0732872 2.86086L0.981856 3.8184C1.07538 3.91681 1.22738 3.91803 1.32234 3.82114C2.58435 2.56793 4.25906 1.86911 6.00033 1.86912ZM6.00033 4.98441C6.95695 4.98435 7.87943 5.35577 8.58853 6.02649C8.68444 6.12168 8.83552 6.11962 8.92901 6.02184L9.83627 5.0643C9.88405 5.01407 9.91056 4.94594 9.90987 4.87514C9.90918 4.80433 9.88135 4.73678 9.83261 4.68757C7.67326 2.58942 4.32923 2.58942 2.16988 4.68757C2.12111 4.73678 2.09328 4.80437 2.09264 4.87519C2.092 4.94602 2.1186 5.01415 2.16648 5.0643L3.07348 6.02184C3.16697 6.11962 3.31805 6.12168 3.41396 6.02649C4.12259 5.35621 5.04434 4.98483 6.00033 4.98441ZM7.81772 7.08046C7.81911 7.15146 7.79239 7.21991 7.74387 7.26966L6.1745 8.92402C6.12849 8.97264 6.06577 9 6.00033 9C5.93488 9 5.87216 8.97264 5.82616 8.92402L4.25653 7.26966C4.20804 7.21988 4.18136 7.1514 4.1828 7.0804C4.18424 7.0094 4.21366 6.94217 4.26412 6.89457C5.26638 6.00908 6.73428 6.00908 7.73653 6.89457C7.78696 6.94221 7.81633 7.00946 7.81772 7.08046Z" fill="black"/>
</svg>
