<svg width="25" height="25" viewBox="0 0 25 25" fill="none" xmlns="http://www.w3.org/2000/svg">
<path d="M21.0939 12.711C21.0978 12.5704 21.0978 12.4298 21.0939 12.2892L22.5509 10.4689C22.6273 10.3733 22.6802 10.2611 22.7053 10.1413C22.7304 10.0216 22.727 9.89761 22.6954 9.7794C22.4561 8.8817 22.0989 8.01969 21.6329 7.21593C21.5719 7.11077 21.4871 7.02131 21.3854 6.95469C21.2836 6.88806 21.1678 6.8461 21.047 6.83214L18.7306 6.57432C18.6342 6.47276 18.5366 6.37511 18.4376 6.28136L18.1642 3.95909C18.1501 3.8382 18.108 3.72227 18.0412 3.62055C17.9744 3.51882 17.8847 3.4341 17.7794 3.37315C16.9757 2.90758 16.1136 2.55093 15.2159 2.31261C15.0977 2.28102 14.9737 2.27765 14.854 2.30275C14.7342 2.32786 14.622 2.38074 14.5265 2.45714L12.711 3.90636C12.5704 3.90636 12.4298 3.90636 12.2892 3.90636L10.4689 2.45225C10.3733 2.37586 10.2611 2.32297 10.1413 2.29787C10.0216 2.27277 9.89761 2.27614 9.7794 2.30772C8.8817 2.54701 8.01969 2.90429 7.21593 3.37022C7.11077 3.43128 7.02131 3.51605 6.95469 3.61777C6.88806 3.71949 6.8461 3.83536 6.83214 3.95616L6.57432 6.27647C6.47276 6.37348 6.37511 6.47113 6.28136 6.56944L3.95909 6.83604C3.8382 6.85011 3.72227 6.89222 3.62055 6.95902C3.51882 7.02582 3.4341 7.11547 3.37315 7.22081C2.90767 8.02468 2.55073 8.88667 2.31163 9.78429C2.28018 9.90257 2.27696 10.0266 2.30224 10.1463C2.32751 10.2661 2.38057 10.3782 2.45714 10.4737L3.90636 12.2892C3.90636 12.4298 3.90636 12.5704 3.90636 12.711L2.45225 14.5314C2.37586 14.6269 2.32297 14.7391 2.29787 14.8589C2.27277 14.9786 2.27614 15.1026 2.30772 15.2208C2.54701 16.1185 2.90429 16.9805 3.37022 17.7843C3.43128 17.8894 3.51605 17.9789 3.61777 18.0455C3.71949 18.1122 3.83536 18.1541 3.95616 18.1681L6.27257 18.4259C6.36957 18.5275 6.46723 18.6251 6.56554 18.7189L6.83604 21.0411C6.85011 21.162 6.89222 21.2779 6.95902 21.3797C7.02582 21.4814 7.11547 21.5661 7.22081 21.6271C8.02468 22.0925 8.88667 22.4495 9.78429 22.6886C9.90257 22.72 10.0266 22.7232 10.1463 22.698C10.2661 22.6727 10.3782 22.6196 10.4737 22.5431L12.2892 21.0939C12.4298 21.0978 12.5704 21.0978 12.711 21.0939L14.5314 22.5509C14.6269 22.6273 14.7391 22.6802 14.8589 22.7053C14.9786 22.7304 15.1026 22.727 15.2208 22.6954C16.1187 22.4566 16.9807 22.0993 17.7843 21.6329C17.8894 21.5719 17.9789 21.4871 18.0455 21.3854C18.1122 21.2836 18.1541 21.1678 18.1681 21.047L18.4259 18.7306C18.5275 18.6342 18.6251 18.5366 18.7189 18.4376L21.0411 18.1642C21.162 18.1501 21.2779 18.108 21.3797 18.0412C21.4814 17.9744 21.5661 17.8847 21.6271 17.7794C22.0925 16.9755 22.4495 16.1135 22.6886 15.2159C22.72 15.0976 22.7232 14.9736 22.698 14.8539C22.6727 14.7341 22.6196 14.622 22.5431 14.5265L21.0939 12.711ZM12.5001 16.4064C11.7275 16.4064 10.9723 16.1773 10.3299 15.748C9.68753 15.3188 9.18686 14.7087 8.8912 13.995C8.59555 13.2812 8.51819 12.4958 8.66891 11.738C8.81964 10.9803 9.19167 10.2843 9.73797 9.73797C10.2843 9.19167 10.9803 8.81964 11.738 8.66891C12.4958 8.51819 13.2812 8.59555 13.995 8.8912C14.7087 9.18686 15.3188 9.68753 15.748 10.3299C16.1773 10.9723 16.4064 11.7275 16.4064 12.5001C16.4064 13.5361 15.9948 14.5297 15.2622 15.2622C14.5297 15.9948 13.5361 16.4064 12.5001 16.4064Z" fill="black"/>
</svg>
