<svg width="662" height="776" viewBox="0 0 662 776" fill="none" xmlns="http://www.w3.org/2000/svg">
<path d="M1.5993 223.095L94.9806 198.074L263.391 826.591L170.01 851.612L1.5993 223.095Z" fill="url(#paint0_linear_359_4)"/>
<path d="M128.753 600.964L80.8231 518.763L395.195 339.025L443.125 421.227L128.753 600.964Z" fill="url(#paint1_linear_359_4)"/>
<path d="M490.606 504.006L442.676 421.804L668.912 296.333L668.764 404.33L490.606 504.006Z" fill="url(#paint2_linear_359_4)"/>
<path d="M88.7792 451.78L40.8492 369.578L355.222 189.841L403.151 272.042L88.7792 451.78Z" fill="url(#paint3_linear_359_4)"/>
<path d="M450.632 354.822L402.702 272.62L669.15 122.754L669.002 230.956L450.632 354.822Z" fill="url(#paint4_linear_359_4)"/>
<path d="M48.8053 302.595L0.875374 220.394L315.248 40.6563L363.178 122.858L48.8053 302.595Z" fill="url(#paint5_linear_359_4)"/>
<path d="M410.658 205.637L362.728 123.436L669.388 -50.7236L669.238 58.3939L410.658 205.637Z" fill="url(#paint6_linear_359_4)"/>
<defs>
<linearGradient id="paint0_linear_359_4" x1="737.5" y1="-79" x2="95.0001" y2="757" gradientUnits="userSpaceOnUse">
<stop stop-color="#121213"/>
<stop offset="1" stop-color="#0A0A0B"/>
</linearGradient>
<linearGradient id="paint1_linear_359_4" x1="737.5" y1="-79" x2="95.0001" y2="757" gradientUnits="userSpaceOnUse">
<stop stop-color="#121213"/>
<stop offset="1" stop-color="#0A0A0B"/>
</linearGradient>
<linearGradient id="paint2_linear_359_4" x1="737.5" y1="-79" x2="95.0001" y2="757" gradientUnits="userSpaceOnUse">
<stop stop-color="#121213"/>
<stop offset="1" stop-color="#0A0A0B"/>
</linearGradient>
<linearGradient id="paint3_linear_359_4" x1="737.5" y1="-79" x2="95.0001" y2="757" gradientUnits="userSpaceOnUse">
<stop stop-color="#121213"/>
<stop offset="1" stop-color="#0A0A0B"/>
</linearGradient>
<linearGradient id="paint4_linear_359_4" x1="737.5" y1="-79" x2="95.0001" y2="757" gradientUnits="userSpaceOnUse">
<stop stop-color="#121213"/>
<stop offset="1" stop-color="#0A0A0B"/>
</linearGradient>
<linearGradient id="paint5_linear_359_4" x1="737.5" y1="-79" x2="95.0001" y2="757" gradientUnits="userSpaceOnUse">
<stop stop-color="#121213"/>
<stop offset="1" stop-color="#0A0A0B"/>
</linearGradient>
<linearGradient id="paint6_linear_359_4" x1="737.5" y1="-79" x2="95.0001" y2="757" gradientUnits="userSpaceOnUse">
<stop stop-color="#121213"/>
<stop offset="1" stop-color="#0A0A0B"/>
</linearGradient>
</defs>
</svg>
