<svg width="42" height="42" viewBox="0 0 42 42" fill="none" xmlns="http://www.w3.org/2000/svg">
<path d="M39.1666 7.16461C39.0477 6.97984 38.8843 6.8279 38.6914 6.7227C38.4985 6.6175 38.2822 6.56241 38.0625 6.5625H24.9375C24.6856 6.5626 24.439 6.6352 24.2272 6.77164C24.0154 6.90808 23.8474 7.1026 23.7431 7.33195L22.3027 10.5H4.59375C4.33951 10.5 4.09076 10.5739 3.87771 10.7126C3.66466 10.8513 3.49648 11.0489 3.39361 11.2814C3.29075 11.5139 3.25762 11.7713 3.29825 12.0223C3.33888 12.2732 3.45153 12.507 3.6225 12.6952L9.38273 19.0312L3.6225 25.3673C3.45153 25.5555 3.33888 25.7893 3.29825 26.0402C3.25762 26.2912 3.29075 26.5486 3.39361 26.7811C3.49648 27.0136 3.66466 27.2112 3.87771 27.3499C4.09076 27.4886 4.33951 27.5625 4.59375 27.5625H16.5851C16.837 27.5624 17.0836 27.4898 17.2954 27.3534C17.5072 27.2169 17.6752 27.0224 17.7795 26.793L19.2199 23.625H29.4623L23.7431 36.207C23.6663 36.3645 23.6219 36.5359 23.6124 36.711C23.603 36.886 23.6287 37.0612 23.688 37.2262C23.7473 37.3911 23.8391 37.5425 23.9579 37.6714C24.0768 37.8003 24.2202 37.9041 24.3798 37.9767C24.5394 38.0492 24.7119 38.0891 24.8871 38.0939C25.0623 38.0987 25.2368 38.0683 25.4001 38.0046C25.5634 37.9409 25.7123 37.8451 25.838 37.7229C25.9637 37.6007 26.0636 37.4545 26.1319 37.293L39.2569 8.41805C39.3479 8.21824 39.3873 7.99881 39.3715 7.77983C39.3558 7.56085 39.2853 7.34932 39.1666 7.16461ZM15.7402 24.9375H7.56L12.1275 19.9139C12.347 19.6723 12.4686 19.3576 12.4686 19.0312C12.4686 18.7049 12.347 18.3902 12.1275 18.1486L7.56 13.125H21.1099L15.7402 24.9375ZM30.6551 21H20.4127L25.7824 9.1875H36.0248L30.6551 21Z" fill="black"/>
</svg>
