<svg width="20" height="20" viewBox="0 0 20 20" fill="none" xmlns="http://www.w3.org/2000/svg">
<path d="M17.4398 4.64375L13.875 12.1297C13.8713 12.1388 13.8671 12.1476 13.8625 12.1563L11.1898 17.7688C11.1558 17.8449 11.1069 17.9134 11.046 17.9703C10.9851 18.0272 10.9134 18.0714 10.8352 18.1002C10.757 18.129 10.6738 18.1419 10.5905 18.1381C10.5073 18.1343 10.4256 18.1138 10.3504 18.078C10.2751 18.0421 10.2078 17.9916 10.1524 17.9293C10.0969 17.8671 10.0545 17.7943 10.0276 17.7154C10.0007 17.6365 9.98988 17.5531 9.99573 17.4699C10.0016 17.3867 10.024 17.3056 10.0617 17.2312L12.3148 12.5H1.87574C1.75205 12.5001 1.63112 12.4635 1.52825 12.3948C1.42538 12.3262 1.34519 12.2285 1.29785 12.1142C1.2505 12 1.23812 11.8742 1.26228 11.7529C1.28644 11.6316 1.34604 11.5202 1.43355 11.4328L4.74214 8.125L1.43355 4.81719C1.34604 4.72978 1.28644 4.61837 1.26228 4.49707C1.23812 4.37576 1.2505 4.25002 1.29785 4.13576C1.34519 4.02149 1.42538 3.92384 1.52825 3.85517C1.63112 3.78651 1.75205 3.7499 1.87574 3.75H16.8757C16.9812 3.75003 17.085 3.77678 17.1774 3.82773C17.2698 3.87869 17.3478 3.95221 17.4041 4.04143C17.4604 4.13065 17.4932 4.23267 17.4994 4.33799C17.5057 4.44331 17.4852 4.5485 17.4398 4.64375Z" fill="black"/>
</svg>
