<svg width="370" height="214" viewBox="0 0 370 214" fill="none" xmlns="http://www.w3.org/2000/svg">
<rect width="370" height="214" rx="2" fill="#141415"/>
<path fill-rule="evenodd" clip-rule="evenodd" d="M242.383 22.144C243.991 22.0982 245.598 22.0665 247.205 22.0407L248.628 22.0005C252.667 21.9764 255.52 22.9035 258.602 25.6277C260.793 28.1199 260.766 30.0533 260.722 33.1858L260.721 33.2241L260.717 33.5419C260.633 34.3397 260.59 34.7428 260.451 35.1099C260.395 35.2583 259.013 41.4395 249.348 46.8836C248.88 47.2194 248.389 47.5233 247.802 47.8601C246.766 48.4543 237.232 51.005 235.381 61.6526L235.38 61.705C235.356 63.1886 235.332 64.708 235.836 66.1042C235.845 66.1311 235.855 66.1579 235.865 66.1844C235.879 66.2197 235.892 66.2547 235.906 66.2894C236.801 68.5194 239.203 69.7091 241.419 70.6744C242.34 71.0758 243.272 71.456 244.21 71.8352C251.092 74.6346 253.603 75.656 255.161 77.4785C256.056 78.5256 256.637 79.8371 257.552 81.9022L258.444 83.8355L259.302 85.7592C259.865 86.9198 260.435 88.0772 261.013 89.2306L261.743 90.7203C262.042 91.3224 262.203 91.6461 262.415 91.933C263.091 92.8479 264.271 93.2478 265.414 93.2791C270.547 93.4198 275.722 91.9322 280.701 90.5007C281.706 90.2118 282.703 89.9253 283.69 89.6548C284.969 89.3053 286.314 88.9618 287.691 88.6757C296.536 86.8376 304.723 92.3528 308.972 100.262L309.675 101.57C314.503 110.9 311.617 122.119 302.824 127.946C302.226 128.343 301.632 128.729 301.051 129.106L301.047 129.109L301.044 129.111L300.804 129.267C299.763 129.959 298.722 130.651 297.682 131.345L296.174 132.345C294.324 133.579 292.503 134.844 290.691 136.132L289.133 137.236C288.537 137.678 286.541 139.639 286.541 141.986C286.523 142.532 286.537 143.079 286.568 144.232L286.58 146.46C286.614 147.599 286.63 148.154 286.685 148.706C286.736 149.231 286.823 149.752 286.991 150.77C288.056 158.377 288.365 166.672 284.062 173.326C282.091 175.836 279.578 177.801 277.071 179.762L277.068 179.765C276.73 180.029 276.393 180.293 276.056 180.558C274.255 182.017 272.555 183.545 270.854 185.117C262.078 193.077 259.068 195.807 255.591 196.655C253.776 197.097 251.834 197.027 248.878 196.919C244.637 196.371 242.329 195.244 239.682 191.961C236.858 187.687 236.903 183.145 237.924 178.242C238.455 176.311 239.04 174.409 239.66 172.504C240.062 171.22 240.463 169.935 240.863 168.65L241.406 166.961C243.502 159.87 239.196 152.898 232.392 149.886C230.682 149.13 228.929 148.455 227.204 147.792C226.659 147.582 226.117 147.373 225.579 147.163L223.329 146.267C220.253 145.044 217.171 143.835 214.076 142.66C209.847 141.048 205.997 139.205 202.125 136.863C199.869 135.568 197.564 134.447 195.202 133.355L194.003 132.797C189.798 130.881 185.51 129.838 181.005 131.427C177.307 132.577 172.819 132.766 169.181 131.272C168.159 130.716 167.138 130.154 166.164 129.52C165.308 128.977 164.502 128.546 163.705 128.222C159.669 126.583 155.189 128.387 151.144 130.015L151.087 130.038C145.991 132.067 141.827 132.019 136.377 131.622C127.465 130.985 119.933 131.53 111.253 133.8C107.477 134.76 103.617 135.477 99.7547 135.501C94.6307 135.533 89.3365 133.667 86.5176 129.424C84.6009 126.539 84.1748 122.904 84.29 119.451C84.3767 116.851 84.7167 114.286 85.382 111.691C86.6653 106.162 82.4213 100.832 76.7832 99.8686C75.62 99.6699 74.4185 99.5371 73.1888 99.4012C72.994 99.3796 72.7985 99.358 72.6023 99.336C67.0771 98.7129 65.0149 98.4803 63.4373 97.4892C62.4979 96.899 61.7304 96.0398 60.5057 94.669C58.3278 91.9326 57.9538 89.9405 58.0042 86.4559C58.5154 82.9857 60.398 79.6719 62.766 76.6838C66.7675 71.6347 72.4023 67.0462 78.8256 67.8625C80.7001 68.1061 85.1337 69.5189 87.872 73.2217C90.1424 76.2919 92.0619 81.0541 93.0288 84.2489C93.3694 85.3742 93.9744 86.4125 94.7176 87.3275C96.0145 88.9443 97.0849 90.6482 98.1766 92.3861L98.1789 92.3897C98.3724 92.6977 98.5666 93.0068 98.7628 93.3166C99.3782 94.1314 99.9036 94.7528 100.533 95.2982C101.559 96.1861 102.906 96.6301 104.264 96.7229C104.454 96.7359 104.634 96.7683 104.836 96.8044C105.226 96.8743 105.694 96.9583 106.459 96.9424L106.512 96.9433C108.008 96.9671 109.54 96.9916 110.948 96.4917C111.012 96.4692 111.074 96.4459 111.135 96.4218C113.384 95.5349 114.704 93.0769 114.49 90.6864C114.454 90.2831 114.403 89.8642 114.349 89.4262C114.27 88.7733 114.185 88.0779 114.136 87.3275C114.143 85.9677 114.136 84.6083 114.128 83.2485C114.121 75.8991 114.118 73.2642 115.151 71.1195C116.546 68.2224 119.307 66.2336 121.947 64.3758C122.376 64.0743 122.806 63.7745 123.237 63.4751C124.563 62.5324 125.744 61.6714 126.702 60.6189C128.399 58.7559 128.656 56.0936 128.585 53.5841L128.545 51.3073C128.512 49.7305 128.472 48.1539 128.424 46.5776C128.354 41.6932 128.494 37.9893 131.959 34.2228C136.059 30.5164 140.78 30.521 146.042 30.6467C158.566 31.2447 170.741 35.0602 182.622 38.7835L185.264 39.6096L187.205 40.2255C187.821 40.3933 188.41 40.5312 188.981 40.6376C194.157 41.6023 199.032 38.4272 202.246 34.2893C202.54 33.9098 202.835 33.53 203.134 33.1538C209.168 25.8322 216.509 23.7927 225.696 22.8121C230.141 22.4635 234.589 22.3487 239.042 22.2339C240.155 22.2052 241.269 22.1764 242.383 22.144ZM87.2596 84.8754L88.304 86.5957C88.9022 87.5734 89.4997 88.5515 90.0968 89.5298C92.3675 92.9867 94.6553 96.3451 97.7855 99.1409C101.351 101.618 104.525 102.622 108.873 102.366L110.232 102.227C111.152 102.144 111.577 102.105 111.992 102.016C112.911 101.817 113.774 101.407 114.581 100.928C115.633 100.303 116.409 99.7026 117.039 99.0321C119.742 96.159 120.293 91.9164 119.943 88.0025C119.865 87.1378 119.774 86.3141 119.696 85.6035C119.591 84.6455 119.508 83.8929 119.511 83.5221C119.514 82.218 119.52 80.9146 119.542 79.6106L119.564 78.3681C119.577 76.4864 119.591 75.2847 120.161 73.9433C120.65 72.7919 121.519 71.8524 122.389 70.9481C123.396 69.8906 124.441 68.8679 125.501 67.8625L127.061 66.5414L128.768 65.0854L128.998 64.894C130.64 63.5294 132.68 61.4962 133.591 59.2227C133.872 58.6648 134.026 58.3591 134.116 58.0357C134.224 57.6437 134.236 57.2258 134.264 56.3013L134.23 54.1748C134.214 52.5917 134.196 51.0087 134.174 49.4258L134.134 47.0079L134.114 44.6864L134.111 44.5465C134.046 40.2073 137.298 36.4357 141.669 36.2197C142.083 36.1993 142.514 36.1918 142.966 36.1946L144.326 36.2346C152.355 36.3661 159.388 37.7694 167.102 39.9483L169.375 40.5931C169.778 40.7066 170.181 40.8199 170.584 40.9332C174.245 41.962 177.904 42.9903 181.513 44.1874C184.61 45.2205 187.609 46.11 190.663 46.362C195.372 46.7507 199.956 44.6263 203.44 41.4613C204.765 40.2584 205.902 38.866 207.036 37.4785C208.712 35.4282 210.379 33.3887 212.625 31.9874C213.428 31.4863 214.273 31.0708 215.116 30.8348C219.263 29.6058 223.207 28.7239 227.529 28.3816L229.508 28.2505C236.149 27.7723 242.774 27.65 249.42 27.6972C252.051 27.7159 254.569 29.1557 254.835 31.7517C254.936 32.7306 254.781 33.7879 254.331 34.665C252.186 38.8483 248.244 41.8031 244.364 44.455C244.113 44.6167 243.863 44.778 243.613 44.939C239.862 47.3553 236.187 49.7232 233.164 53.0514C230.666 56.5871 229.654 59.7345 229.911 64.0464L230.052 65.394C230.136 66.3061 230.175 66.728 230.265 67.1387C230.343 67.4915 230.458 67.836 230.673 68.476L230.674 68.4775C230.674 68.4789 230.675 68.4803 230.676 68.4816C232.807 72.5383 235.831 74.2851 239.951 76.037C241.241 76.5552 242.527 77.0791 243.812 77.6088C245.008 78.1042 246.157 78.7093 247.231 79.4303C249.103 80.6875 250.212 81.5126 251.084 82.5356C252.217 83.8644 252.951 85.5273 254.442 88.9051C255.389 90.9493 256.334 92.822 257.537 94.5542C259.149 96.8751 261.536 98.7742 264.337 99.2497C266.451 99.6086 268.732 99.0046 275.137 97.3081C278.113 96.518 281.094 95.8159 284.11 95.1939L285.751 94.8619L285.764 94.8591C285.983 94.811 288.731 94.2071 291.929 94.2387C297.618 94.2949 301.872 98.8004 304.217 103.983C304.346 104.269 304.477 104.558 304.612 104.853L305.199 106.163C305.711 107.281 306.173 108.356 306.563 109.436C307.901 113.144 306.869 117.423 303.95 120.094C302.807 121.14 301.463 121.971 298.75 123.648C298.224 123.988 297.694 124.329 297.162 124.672C295.488 125.749 293.793 126.84 292.128 127.98C285.022 132.845 279.547 140.387 280.746 148.868C281.55 153.991 282.118 158.944 281.706 164.135C280.677 169.426 277.053 172.684 272.993 175.976C270.999 177.547 269.033 179.126 267.12 180.795C266.545 181.296 265.969 181.808 265.39 182.323L265.389 182.324L265.388 182.325L265.387 182.326C262.34 185.032 259.199 187.823 255.626 189.744C254.376 190.416 252.923 190.833 251.506 190.946C246.773 191.321 243.11 186.849 243.379 182.148C243.487 180.267 244.1 178.414 245.348 174.643C246.359 171.369 247.333 168.091 248.1 164.752C248.628 160.959 248.908 157.127 246.797 153.807L245.922 152.563C243.042 148.346 238.108 146.066 233.509 144.126L231.881 143.461C228.275 141.955 224.657 140.504 220.985 139.166C215.877 137.316 211.086 135.138 206.308 132.553C205.751 132.251 205.194 131.948 204.637 131.644C201.349 129.851 198.05 128.052 194.603 126.589C189.515 124.646 184.389 123.477 179.216 125.564C177.848 126.178 176.397 126.689 174.898 126.616C172.586 126.503 170.866 125.574 168.556 124.214C164.728 121.933 161.307 120.432 155.732 122.292C148.165 125.77 141.559 126.712 133.234 125.566C125.825 124.486 119.838 125.436 112.665 127.415C112.153 127.557 111.643 127.701 111.132 127.845C107.934 128.746 104.739 129.647 101.412 129.906C94.5278 129.956 89.4253 123.877 90.3696 117.115C90.4437 116.585 90.5261 116.046 90.6111 115.497C90.6817 115.061 90.7592 114.61 90.8386 114.148C91.5534 109.984 92.4269 104.897 89.9474 101.443L89.0552 100.339C85.9014 96.3166 81.1238 95.3245 76.312 94.4099C74.97 94.1694 73.6281 93.9284 72.2863 93.6867L70.3366 93.3166C70.1216 93.2782 69.913 93.2392 69.7103 93.199C65.942 92.4515 63.2401 88.5943 64.4358 84.9726C64.6506 84.3218 64.9417 83.6571 65.3007 82.9369C65.5939 82.3489 65.9945 81.8206 66.4622 81.3568C66.8204 81.0016 67.1353 80.606 67.408 80.1827C67.76 79.6362 68.1202 79.0948 68.4869 78.5578C69.1454 77.5935 69.8772 76.6748 70.7397 75.8845C71.1784 75.4826 71.6099 75.1321 72.0626 74.8367C74.2353 73.4194 77.1919 73.5585 79.5029 74.7416C80.5459 75.2756 81.4554 76.0555 82.4235 77.2303L83.4931 78.8937C84.7804 80.8704 86.0322 82.8618 87.2596 84.8754Z" fill="#2E2E2F"/>
<rect x="174.523" y="35" width="3" height="8" rx="0.5" transform="rotate(18.3842 174.523 35)" fill="white"/>
</svg>
