<svg width="42" height="42" viewBox="0 0 42 42" fill="none" xmlns="http://www.w3.org/2000/svg">
<path d="M3.28128 20.9999C3.28475 17.6941 4.59954 14.5246 6.93713 12.187C9.27472 9.84944 12.4442 8.53465 15.75 8.53118H31.9922L31.4147 7.95532C31.2316 7.77219 31.0863 7.55478 30.9872 7.3155C30.8881 7.07623 30.8371 6.81978 30.8371 6.56079C30.8371 6.3018 30.8881 6.04535 30.9872 5.80607C31.0863 5.5668 31.2316 5.34939 31.4147 5.16626C31.5978 4.98312 31.8153 4.83786 32.0545 4.73875C32.2938 4.63963 32.5503 4.58862 32.8092 4.58862C33.0682 4.58862 33.3247 4.63963 33.564 4.73875C33.8032 4.83786 34.0206 4.98312 34.2038 5.16626L38.1413 9.10376C38.3248 9.28666 38.4704 9.504 38.5698 9.7433C38.6692 9.98261 38.7203 10.2392 38.7203 10.4983C38.7203 10.7574 38.6692 11.014 38.5698 11.2533C38.4704 11.4926 38.3248 11.7099 38.1413 11.8928L34.2038 15.8303C33.8339 16.2002 33.3323 16.408 32.8092 16.408C32.2862 16.408 31.7846 16.2002 31.4147 15.8303C31.0449 15.4605 30.8371 14.9588 30.8371 14.4358C30.8371 13.9127 31.0449 13.4111 31.4147 13.0413L31.9922 12.4687H15.75C13.4882 12.4713 11.3198 13.3709 9.7204 14.9703C8.12105 16.5697 7.22139 18.7381 7.21878 20.9999C7.21878 21.5221 7.01136 22.0228 6.64215 22.392C6.27293 22.7613 5.77218 22.9687 5.25003 22.9687C4.72789 22.9687 4.22713 22.7613 3.85791 22.392C3.4887 22.0228 3.28128 21.5221 3.28128 20.9999ZM36.75 19.0312C36.2279 19.0312 35.7271 19.2386 35.3579 19.6078C34.9887 19.977 34.7813 20.4778 34.7813 20.9999C34.7787 23.2618 33.879 25.4302 32.2797 27.0296C30.6803 28.6289 28.5119 29.5286 26.25 29.5312H10.0078L10.5853 28.9553C10.7685 28.7722 10.9137 28.5548 11.0129 28.3155C11.112 28.0762 11.163 27.8198 11.163 27.5608C11.163 27.3018 11.112 27.0453 11.0129 26.8061C10.9137 26.5668 10.7685 26.3494 10.5853 26.1663C10.4022 25.9831 10.1848 25.8379 9.94553 25.7387C9.70625 25.6396 9.4498 25.5886 9.19081 25.5886C8.93182 25.5886 8.67537 25.6396 8.4361 25.7387C8.19682 25.8379 7.97941 25.9831 7.79628 26.1663L3.85878 30.1038C3.67524 30.2867 3.52961 30.504 3.43024 30.7433C3.33088 30.9826 3.27973 31.2392 3.27973 31.4983C3.27973 31.7574 3.33088 32.014 3.43024 32.2533C3.52961 32.4926 3.67524 32.7099 3.85878 32.8928L7.79628 36.8303C7.97941 37.0135 8.19682 37.1587 8.4361 37.2578C8.67537 37.3569 8.93182 37.408 9.19081 37.408C9.4498 37.408 9.70625 37.3569 9.94553 37.2578C10.1848 37.1587 10.4022 37.0135 10.5853 36.8303C10.7685 36.6472 10.9137 36.4298 11.0129 36.1905C11.112 35.9512 11.163 35.6948 11.163 35.4358C11.163 35.1768 11.112 34.9203 11.0129 34.6811C10.9137 34.4418 10.7685 34.2244 10.5853 34.0413L10.0078 33.4687H26.25C29.5559 33.4652 32.7253 32.1504 35.0629 29.8128C37.4005 27.4752 38.7153 24.3058 38.7188 20.9999C38.7188 20.4778 38.5114 19.977 38.1421 19.6078C37.7729 19.2386 37.2722 19.0312 36.75 19.0312Z" fill="black"/>
</svg>
