<svg xmlns="http://www.w3.org/2000/svg" width="194" height="103" viewBox="0 0 194 103" fill="none">
  <path fill-rule="evenodd" clip-rule="evenodd" d="M74.5 1.86667C74.5 0.835735 75.3556 0 76.4111 0H115.589C116.644 0 117.5 0.835735 117.5 1.86667V40.1333C117.5 41.1643 116.644 42 115.589 42H89.7549L87.5925 32.7399L100.123 26.3759L97.9336 22.3936L86.5291 28.1859L85.9233 25.5918L98.4535 19.2278L96.2644 15.2455L84.8598 21.0378L84.2541 18.4437L96.7843 12.0797L94.5952 8.09744L78.8414 16.0986L78.9081 16.2199L78.8717 16.2281L80.5106 23.2467L82.1798 30.3948L84.8899 42H76.4111C75.3556 42 74.5 41.1643 74.5 40.1333V1.86667ZM98.9502 16.0887L96.7612 12.1064L112.126 4.35698L111.907 9.53578L98.9502 16.0887ZM98.4304 19.2545L100.619 23.2368L111.56 17.7257L111.778 12.5904L98.4304 19.2545ZM102.289 30.3849L100.1 26.4026L111.429 20.8286L111.212 25.9542L102.289 30.3849Z" fill="#FF001A"/>
  <path d="M82.1798 30.3948L84.3689 34.3771L87.5925 32.7399L86.5291 28.1859L82.1798 30.3948Z" fill="#FDFDFD"/>
  <path d="M100.123 26.3759L97.9336 22.3936L86.5291 28.1859L87.5925 32.7399L100.123 26.3759Z" fill="#FDFDFD"/>
  <path d="M80.5106 23.2467L82.6997 27.229L85.9233 25.5918L84.8598 21.0378L80.5106 23.2467Z" fill="#FDFDFD"/>
  <path d="M82.6997 27.229L80.5106 23.2467L82.1798 30.3948L86.5291 28.1859L85.9233 25.5918L82.6997 27.229Z" fill="#FDFDFD"/>
  <path d="M98.4535 19.2278L96.2644 15.2455L84.8598 21.0378L85.9233 25.5918L98.4535 19.2278Z" fill="#FDFDFD"/>
  <path d="M78.8717 16.2281L80.5106 23.2467L84.8598 21.0378L84.2541 18.4437L81.0305 20.0809L78.9081 16.2199L78.8717 16.2281Z" fill="#FDFDFD"/>
  <path d="M78.9081 16.2199L81.0305 20.0809L84.2541 18.4437L83.4961 15.1978L78.9081 16.2199Z" fill="#FDFDFD"/>
  <path d="M94.5952 8.09744L78.8414 16.0986L78.9081 16.2199L83.4961 15.1978L84.2541 18.4437L96.7843 12.0797L94.5952 8.09744Z" fill="#FDFDFD"/>
  <path d="M98.9502 16.0887L96.7612 12.1064L112.126 4.35698L111.907 9.53578L98.9502 16.0887Z" fill="#FDFDFD"/>
  <path d="M100.619 23.2368L98.4304 19.2545L111.778 12.5904L111.56 17.7257L100.619 23.2368Z" fill="#FDFDFD"/>
  <path d="M102.289 30.3849L100.1 26.4026L111.429 20.8286L111.212 25.9542L102.289 30.3849Z" fill="#FDFDFD"/>
  <path d="M84.3689 34.3771L82.1798 30.3948L84.8899 42H89.7549L87.5925 32.7399L84.3689 34.3771Z" fill="#FDFDFD"/>
  <path d="M22.2744 58V65.8429H15.7736V103H6.93764V65.8429H0.5V58H22.2744Z" fill="#FDFDFD"/>
  <path d="M76.7103 58.0641H85.5215V102.936H76.7103V58.0641Z" fill="#FDFDFD"/>
  <path d="M87.7134 58H96.5246V95.1154H103.762V102.936H87.7134V58Z" fill="#FDFDFD"/>
  <path d="M105.106 58.0641H115.994C123.295 58.0641 127.511 62.1026 127.511 70.0513V70.3718C127.511 77.5513 124.113 81.2692 121.029 81.5897V82.2308C124.113 82.5513 127.511 86.6538 127.511 93.1923V93.8333C127.511 97.6795 127.574 100.436 128.141 102.936H119.33C118.763 100.244 118.7 97.2308 118.7 93.7692V89.1538C118.7 86.8461 117.819 85.8205 115.931 85.8205H113.917V103H105.106V58.0641ZM113.917 65.8846V78H115.931C117.819 78 118.7 76.9103 118.7 74.5385V69.2821C118.7 66.9744 117.819 65.8846 115.931 65.8846H113.917Z" fill="#FDFDFD"/>
  <path d="M193.311 65.8205H186.073V74.891H193.185V79.3982L186.073 83.3205V95.1154H193.5V102.936H177.262V58H193.311V65.8205Z" fill="#FDFDFD"/>
  <path fill-rule="evenodd" clip-rule="evenodd" d="M150.371 83.4046L147.62 58H133.837L128.928 102.872H137.739L139.062 89.4143L141.83 87.9119L150.371 83.4046ZM150.871 87.2204L142.504 92.4191L143.529 102.872H153.021L150.871 87.2204ZM140.949 73.2564L141.83 83.9615H139.376L140.32 73.2564H140.949Z" fill="#FDFDFD"/>
  <path d="M161.724 68.0374V91.9626C161.724 94.387 162.982 95.2164 164.303 95.2164C165.623 95.2164 166.881 94.387 166.881 91.9626V81.7545H175.685V91.2607C175.685 99.0444 171.157 103 164.177 103C157.322 103 152.921 99.172 152.921 91.2607V68.6755C152.921 60.828 157.322 57 164.177 57C171.157 57 175.685 60.9556 175.685 68.6755V78.2455H166.881V68.0374C166.881 65.613 165.623 64.7836 164.303 64.7836C162.982 64.7836 161.724 65.613 161.724 68.0374Z" fill="#FDFDFD"/>
  <path d="M24.2538 58H35.4818C43.0103 58 47.3587 62.0442 47.3587 70.0043V70.3252C47.3587 77.515 43.854 81.2382 40.6739 81.5592V82.2011C43.854 82.5221 47.3587 86.6305 47.3587 93.1783V93.8203C47.3587 97.6719 47.4236 100.432 48.0077 102.936H38.9215C38.3374 100.24 38.2725 97.2225 38.2725 93.7561V89.1341C38.2725 86.8231 37.3639 85.796 35.4169 85.796H33.34V103H24.2538V58ZM33.34 65.8317V77.9643H35.4169C37.3639 77.9643 38.2725 76.873 38.2725 74.4979V69.2339C38.2725 66.923 37.3639 65.8317 35.4169 65.8317H33.34Z" fill="#FDFDFD"/>
  <path fill-rule="evenodd" clip-rule="evenodd" d="M72.009 83.4772L69.1842 58H55.0288L49.9872 103H59.0363L60.3946 89.504L63.2376 87.9973L72.009 83.4772ZM72.5231 87.3039L63.9294 92.5174L64.9828 103H74.7308L72.5231 87.3039ZM62.3327 73.3L63.2376 84.0357H60.7168L61.6864 73.3H62.3327Z" fill="#FDFDFD"/>
</svg>