<svg xmlns="http://www.w3.org/2000/svg" width="297" height="53" viewBox="0 0 297 53" fill="none">
  <path fill-rule="evenodd" clip-rule="evenodd" d="M0.5 2.35556C0.5 1.05462 1.57452 0 2.9 0H52.1C53.4255 0 54.5 1.05462 54.5 2.35556V50.6444C54.5 51.9454 53.4255 53 52.1 53H19.6573L16.9417 41.3146L32.6774 33.2839L29.9283 28.2586L15.6063 35.5679L14.8455 32.2944L30.5812 24.2637L27.8321 19.2384L13.51 26.5477L12.7493 23.2742L28.4849 15.2435L25.7358 10.2182L5.95202 20.3149L6.03577 20.468L5.98998 20.4783L8.04824 29.3351L10.1445 38.3554L13.5477 53H2.9C1.57452 53 0.5 51.9454 0.5 50.6444V2.35556ZM31.205 20.3024L28.4559 15.2771L47.7515 5.4981L47.4763 12.0332L31.205 20.3024ZM30.5521 24.2973L33.3012 29.3226L47.0411 22.3682L47.314 15.8878L30.5521 24.2973ZM35.3974 38.3428L32.6483 33.3176L46.8762 26.2837L46.6038 32.7517L35.3974 38.3428Z" fill="#FF001A"/>
  <path d="M10.1445 38.3554L12.8936 43.3806L16.9417 41.3146L15.6063 35.5679L10.1445 38.3554Z" fill="#FDFDFD"/>
  <path d="M32.6774 33.2839L29.9283 28.2586L15.6063 35.5679L16.9417 41.3146L32.6774 33.2839Z" fill="#FDFDFD"/>
  <path d="M8.04824 29.3351L10.7973 34.3604L14.8455 32.2944L13.51 26.5477L8.04824 29.3351Z" fill="#FDFDFD"/>
  <path d="M10.7973 34.3604L8.04824 29.3351L10.1445 38.3554L15.6063 35.5679L14.8455 32.2944L10.7973 34.3604Z" fill="#FDFDFD"/>
  <path d="M30.5812 24.2637L27.8321 19.2384L13.51 26.5477L14.8455 32.2944L30.5812 24.2637Z" fill="#FDFDFD"/>
  <path d="M5.98998 20.4783L8.04824 29.3351L13.51 26.5477L12.7493 23.2742L8.70112 25.3402L6.03577 20.468L5.98998 20.4783Z" fill="#FDFDFD"/>
  <path d="M6.03577 20.468L8.70112 25.3402L12.7493 23.2742L11.7974 19.1782L6.03577 20.468Z" fill="#FDFDFD"/>
  <path d="M25.7358 10.2182L5.95202 20.3149L6.03577 20.468L11.7974 19.1782L12.7493 23.2742L28.4849 15.2435L25.7358 10.2182Z" fill="#FDFDFD"/>
  <path d="M31.205 20.3024L28.4559 15.2771L47.7515 5.4981L47.4763 12.0332L31.205 20.3024Z" fill="#FDFDFD"/>
  <path d="M33.3012 29.3226L30.5521 24.2973L47.314 15.8878L47.0411 22.3682L33.3012 29.3226Z" fill="#FDFDFD"/>
  <path d="M35.3974 38.3428L32.6483 33.3176L46.8762 26.2837L46.6038 32.7517L35.3974 38.3428Z" fill="#FDFDFD"/>
  <path d="M12.8936 43.3806L10.1445 38.3554L13.5477 53H19.6573L16.9417 41.3146L12.8936 43.3806Z" fill="#FDFDFD"/>
  <path d="M95.1103 1.15217V10.1885H87.4643V53H77.0717V10.1885H69.5V1.15217H95.1103Z" fill="#FDFDFD"/>
  <path d="M159.136 1.22603H169.499V52.9261H159.136V1.22603Z" fill="#FDFDFD"/>
  <path d="M172.077 1.15217H182.441V43.9155H190.954V52.9261H172.077V1.15217Z" fill="#FDFDFD"/>
  <path d="M192.534 1.22603H205.34C213.927 1.22603 218.886 5.87904 218.886 15.0373V15.4066C218.886 23.6786 214.889 27.9624 211.262 28.3317V29.0702C214.889 29.4395 218.886 34.1664 218.886 41.6998V42.4384C218.886 46.8698 218.96 50.0457 219.627 52.9261H209.263C208.597 49.8241 208.523 46.3528 208.523 42.3645V37.0468C208.523 34.388 207.487 33.2062 205.266 33.2062H202.897V53H192.534V1.22603ZM202.897 10.2366V24.1957H205.266C207.487 24.1957 208.523 22.9401 208.523 20.2074V14.1511C208.523 11.4922 207.487 10.2366 205.266 10.2366H202.897Z" fill="#FDFDFD"/>
  <path d="M296.278 10.1628H287.765V20.6136H296.13V25.8067L287.765 30.3258V43.9155H296.5V52.9261H277.402V1.15217H296.278V10.1628Z" fill="#FDFDFD"/>
  <path fill-rule="evenodd" clip-rule="evenodd" d="M245.773 30.4227L242.538 1.15217H226.326L220.553 52.8523H230.916L232.472 37.3469L235.728 35.6158L245.773 30.4227ZM246.362 34.8191L236.52 40.8089L237.726 52.8523H248.89L246.362 34.8191ZM234.691 18.7302L235.728 31.0644H232.841L233.951 18.7302H234.691Z" fill="#FDFDFD"/>
  <path d="M259.127 12.7171V40.2829C259.127 43.0763 260.606 44.0319 262.159 44.0319C263.712 44.0319 265.191 43.0763 265.191 40.2829V28.5215H275.546V39.4743C275.546 48.4424 270.221 53 262.011 53C253.949 53 248.772 48.5895 248.772 39.4743V13.4522C248.772 4.41054 253.949 0 262.011 0C270.221 0 275.546 4.55756 275.546 13.4522V24.4785H265.191V12.7171C265.191 9.92372 263.712 8.9681 262.159 8.9681C260.606 8.9681 259.127 9.92372 259.127 12.7171Z" fill="#FDFDFD"/>
  <path d="M97.4385 1.15217H110.644C119.499 1.15217 124.614 5.81182 124.614 14.9832V15.353C124.614 23.6368 120.492 27.9267 116.751 28.2965V29.0361C120.492 29.4059 124.614 34.1395 124.614 41.6837V42.4233C124.614 46.8611 124.69 50.0415 125.377 52.926H114.69C114.003 49.8196 113.927 46.3434 113.927 42.3494V37.0241C113.927 34.3614 112.858 33.178 110.568 33.178H108.125V53H97.4385V1.15217ZM108.125 10.1756V24.1546H110.568C112.858 24.1546 113.927 22.8972 113.927 20.1606V14.0956C113.927 11.433 112.858 10.1756 110.568 10.1756H108.125Z" fill="#FDFDFD"/>
  <path fill-rule="evenodd" clip-rule="evenodd" d="M153.606 30.5064L150.284 1.15217H133.635L127.705 53H138.348L139.946 37.4503L143.29 35.7143L153.606 30.5064ZM154.211 34.9153L144.104 40.9222L145.342 53H156.808L154.211 34.9153ZM142.226 18.7804L143.29 31.1498H140.325L141.465 18.7804H142.226Z" fill="#FDFDFD"/>
</svg>