<svg width="13" height="13" viewBox="0 0 13 13" fill="none" xmlns="http://www.w3.org/2000/svg">
<g clip-path="url(#clip0_1280_37)">
<path d="M12.859 12.1777L9.84558 9.1649C10.719 8.11632 11.1545 6.77138 11.0616 5.40987C10.9686 4.04835 10.3543 2.77509 9.3465 1.85494C8.33868 0.934802 7.01492 0.438625 5.65059 0.469632C4.28625 0.500639 2.9864 1.05644 2.02142 2.02142C1.05644 2.9864 0.500639 4.28625 0.469632 5.65059C0.438625 7.01492 0.934802 8.33868 1.85494 9.3465C2.77509 10.3543 4.04835 10.9686 5.40987 11.0616C6.77138 11.1545 8.11632 10.719 9.1649 9.84558L12.1777 12.859C12.2224 12.9037 12.2756 12.9392 12.334 12.9634C12.3924 12.9876 12.4551 13.0001 12.5184 13.0001C12.5816 13.0001 12.6443 12.9876 12.7027 12.9634C12.7612 12.9392 12.8143 12.9037 12.859 12.859C12.9037 12.8143 12.9392 12.7612 12.9634 12.7027C12.9876 12.6443 13.0001 12.5816 13.0001 12.5184C13.0001 12.4551 12.9876 12.3924 12.9634 12.334C12.9392 12.2756 12.9037 12.2224 12.859 12.1777ZM1.44451 5.77775C1.44451 4.92072 1.69865 4.08293 2.17479 3.37033C2.65093 2.65773 3.32769 2.10233 4.11949 1.77436C4.91129 1.44638 5.78256 1.36057 6.62312 1.52777C7.46369 1.69497 8.2358 2.10767 8.84182 2.71368C9.44783 3.3197 9.86053 4.09181 10.0277 4.93238C10.1949 5.77294 10.1091 6.64422 9.78115 7.43601C9.45317 8.22781 8.89777 8.90457 8.18517 9.38071C7.47257 9.85686 6.63479 10.111 5.77775 10.111C4.62889 10.1097 3.52746 9.65278 2.71509 8.84041C1.90273 8.02805 1.44578 6.92661 1.44451 5.77775Z" fill="black"/>
</g>
<defs>
<clipPath id="clip0_1280_37">
<rect width="13" height="13" fill="white"/>
</clipPath>
</defs>
</svg>
