<svg width="370" height="214" viewBox="0 0 370 214" fill="none" xmlns="http://www.w3.org/2000/svg">
<rect width="370" height="214" rx="2" fill="#141415"/>
<path d="M106.1 43.0801L108.274 45.5781C110.932 48.6452 113.714 51.6321 116.656 54.4271C120.458 58.0382 125.374 62.3753 126.072 62.7089C126.852 63.0821 127.775 63.1673 129.379 63.3154L129.379 63.3154C134.63 63.3231 139.699 62.9262 144.893 62.1601C146.375 61.9601 147.78 61.7748 149.175 61.656C152.888 61.3397 156.527 63.9548 158.717 66.9213C158.887 67.152 159.052 67.3841 159.212 67.6184C161.817 71.4304 161.236 76.7169 157.654 79.6705C156.025 81.0131 153.818 81.7036 151.698 81.8028C148.45 81.9549 145.259 81.8491 141.939 81.7156C138.785 81.6071 136.108 81.7192 133.37 82.3591C131.913 82.6996 131.392 83.0054 130.788 83.3595C130.26 83.6692 129.669 84.0158 128.334 84.4549C125.649 85.338 124.841 87.3293 124.68 88.8056C124.624 89.3228 124.686 89.8452 124.814 90.3493C125.957 94.8314 132.383 93.5754 137.107 92.6519L137.107 92.6519C137.26 92.6219 137.412 92.5923 137.562 92.5632L137.562 92.5632C139.138 92.2568 140.432 92.0053 141.715 91.5329C144.503 90.5063 147.239 89.3407 152.706 87.0115L152.707 87.0113L152.708 87.0107L152.714 87.008L152.716 87.0075C154.158 86.3928 155.347 85.8862 156.358 85.4751C162.801 82.8553 170.396 85.96 173.998 91.8283C176.179 95.3826 176.523 99.9692 175.69 104.044C174.296 110.863 170.736 115.012 164.593 120.787C162.189 122.792 159.778 124.308 157.175 125.658C156.956 125.771 156.738 125.884 156.519 125.997L156.516 125.999L156.514 126C153.835 127.382 151.12 128.784 149.013 130.91C147.111 132.829 145.556 135.571 146.304 138.146C146.311 138.17 146.319 138.194 146.326 138.218C146.331 138.233 146.336 138.248 146.341 138.263C146.656 139.217 147.393 140.035 148.87 141.673L148.87 141.673C150.704 143.264 151.646 144.081 152.739 144.561C155.946 145.969 159.79 145.43 163.006 144.034C164.86 143.229 166.392 142.168 167.837 140.818C170.865 137.987 172.979 134.353 174.719 130.616C176.131 127.585 177.405 124.501 178.668 121.376L180.322 117.427C182.418 112.42 184.473 107.397 186.528 102.374C188.435 98.3584 190.458 96.1618 193.891 93.332C199.427 93.3281 204.505 95.509 208.779 98.6611L208.924 98.7678C211.913 100.971 215.173 103.375 216.253 106.884C216.26 106.908 216.267 106.931 216.274 106.955C216.738 108.54 216.852 110.39 216.643 112.214C216.518 113.298 216.231 114.436 215.949 115.558C215.178 118.617 214.435 121.562 217.085 122.976C226.83 128.176 230.832 134.384 231.628 137.021L230.425 141.082L230.425 141.082C229.826 142.929 229.576 143.7 229.49 144.487C229.474 144.631 229.456 144.786 229.436 144.95L229.436 144.953C229.269 146.335 229.029 148.319 229.889 149.198C231.687 151.034 234.14 152.595 236.549 154.128C241.482 157.266 246.231 160.287 244.794 165.319C243.982 168.162 241.412 171.493 236.449 175.698C235.816 176.326 235.169 176.956 234.511 177.596C234.318 177.783 234.124 177.972 233.929 178.161L231.627 180.454C230.265 181.789 228.966 182.856 227.671 183.92L227.671 183.92C225.944 185.338 224.223 186.751 222.37 188.789C221.324 189.94 220.125 191.995 221.587 192.549C222.45 192.876 223.546 192.719 224.313 192.208C225.059 191.712 225.778 191.015 226.335 190.423C228.164 188.497 229.842 186.506 231.517 184.517L231.518 184.517L231.518 184.516L231.52 184.514L231.521 184.513C233.369 182.318 235.216 180.127 237.261 178.028L241.281 173.75L241.281 173.749C248.149 166.772 250.165 164.725 252.619 163.65C254.945 162.631 257.6 162.484 260.081 163.035C264.438 164.003 267.931 166.221 271.582 169.276C272.048 169.617 272.483 169.934 272.894 170.229C272.929 170.254 272.965 170.279 273 170.304L270.609 174.956C269.356 174.289 268.14 173.564 266.973 172.796C266.146 172.252 265.344 171.685 264.589 171.1L264.23 170.819C262.302 169.493 261.402 168.874 260.408 168.632C258.088 168.066 255.608 168.821 253.458 169.853C250.717 171.169 248.963 173.014 246.387 175.723L246.316 175.799L242.669 179.537L238.923 183.473C236.468 186.051 233.998 188.615 231.513 191.164L228.22 194.628C228.22 194.628 227 196.5 225.187 197C222.5 197 220.656 196.111 219.722 195.426C218.259 194.353 217.368 192.635 216.858 190.911C216.815 190.767 216.782 190.629 216.756 190.49C216.533 189.295 217.119 188.104 217.963 187.217C219.29 185.822 220.653 184.46 222.032 183.116L225.387 179.833L228.933 176.393L232.48 172.929C233.649 171.788 234.797 170.626 235.945 169.464L235.948 169.461L235.951 169.459L235.952 169.458C237.185 168.21 238.418 166.962 239.677 165.739C240.154 165.276 240.213 164.166 239.681 163.642C238.855 163.158 238.398 162.868 237.94 162.577L237.93 162.571L237.929 162.571L236.12 161.464C230.196 157.994 228.167 156.805 226.632 155.167C224.776 153.187 224.022 150.433 224.091 147.737C224.119 146.629 224.185 145.528 224.292 144.432C224.84 138.818 222.967 132.815 217.871 130.25C216.045 129.331 214.193 128.491 212.262 127.726C208.917 126.402 206.944 122.833 208.054 119.452L209.18 115.982C209.77 114.455 210.055 113.715 210.486 113.069C210.641 112.835 210.643 112.444 210.646 111.993C210.653 110.644 210.627 108.968 209.737 107.943C205.329 102.864 203.242 101.526 199.436 100.685C197.544 100.267 195.369 100.118 193.971 101.444C193.197 102.179 192.652 103.142 192.049 104.207L192.049 104.208C191.969 104.348 191.889 104.49 191.807 104.634L189.78 108.179C187.823 112.22 186.849 116.04 185.799 120.387C182.398 129.715 177.718 137.148 171.164 143.651C166.005 148.77 159.088 152.435 152.131 150.208C151.955 150.152 151.777 150.095 151.598 150.038C151.559 150.025 151.519 150.013 151.479 150C151.424 149.983 151.368 149.965 151.312 149.947C149.001 148.984 147.281 148.021 145.779 146.75C142.931 144.338 141.748 140.527 141.778 136.825C141.781 136.433 141.794 136.041 141.815 135.615C141.933 133.242 142.933 130.996 144.422 129.125L144.422 129.125C146.731 126.223 149.052 123.306 152.416 121.788C159.326 118.135 165.376 113.134 169.048 106.424C170.229 104.264 171.216 101.834 170.89 99.4043C170.841 99.0457 170.753 98.6925 170.615 98.2807C170.161 96.9158 169.308 95.7161 168.289 94.6898C165.346 91.7285 160.928 90.7407 156.946 92.0911C152.445 93.617 147.999 95.2345 143.572 97.0567C137.277 99.459 131.781 100.573 125.627 99.0058C123.401 98.4389 121.256 97.2479 120.061 95.314C118.327 92.5065 117.94 88.8372 118.969 85.7077C119.774 83.2598 121.899 81.4415 124.244 80.3062C131.258 76.9103 139.238 76.1019 147.119 76.3846L147.119 76.3846C149.458 76.5926 150.716 76.7045 151.768 76.2983C154.925 75.0795 154.08 70.1485 150.94 68.8971C147.897 67.6842 144.756 67.6838 140.521 67.9287L137.197 68.1895C135.007 68.3279 132.816 68.4661 130.626 68.6043L125.07 68.9856C120.061 68.8971 117.181 65.0361 115.746 63.2178C112.566 59.278 109.569 55.8565 105.826 52.398C100.597 47.4595 97.0844 41.2088 93.595 35.0003C92.6637 33.3434 92.7953 31.2505 94.2052 29.959C98.2016 26.2983 102.837 25.0975 108.4 23.6568L108.4 23.6568L108.913 23.5239C110.696 23.0293 112.441 22.5273 114.156 22L117.201 27.1843C114.599 28.2091 111.943 29.104 109.129 29.819C103.029 31.3985 101.967 38.3963 106.1 43.0801Z" fill="#2E2E2F"/>
<rect x="119.486" y="27.7695" width="3.43433" height="8.75553" rx="0.5" transform="rotate(157.567 119.486 27.7695)" fill="white"/>
<rect x="268.787" y="176.496" width="3.46799" height="9.24798" rx="0.5" transform="rotate(-143.476 268.787 176.496)" fill="white"/>
</svg>
