<svg width="36" height="39" viewBox="0 0 36 39" fill="none" xmlns="http://www.w3.org/2000/svg">
<path d="M8.00328 38.1895C8.07511 38.2677 8.16594 38.3296 8.26934 38.3709C8.41416 38.4303 8.57824 38.4465 8.73915 38.4175C8.90007 38.3884 9.04997 38.3155 9.16835 38.2086L16.1704 31.8953C16.2738 31.8033 16.3498 31.6893 16.3907 31.5651C16.4316 31.4409 16.4359 31.3109 16.4031 31.1885C16.3703 31.0661 16.3016 30.9556 16.2041 30.8685C16.1066 30.7814 15.9837 30.7207 15.8481 30.6927L6.6266 28.7284C6.47129 28.6966 6.30626 28.709 6.15348 28.764C6.0007 28.819 5.86743 28.9141 5.7714 29.0364C5.67537 29.1588 5.62115 29.3028 5.61595 29.4491C5.61076 29.5954 5.65483 29.7371 5.74231 29.8555L8.2688 33.4984L7.836 37.675C7.82661 37.7573 7.83257 37.8396 7.85362 37.9185C7.88035 38.0188 7.93144 38.1113 8.00328 38.1895Z" fill="black"/>
<path d="M7.02356 5.17975L6.54059 5.30916L6.54469 5.32444C4.72714 5.937 3.18811 7.19246 2.22347 8.86327C1.17516 10.679 0.891086 12.8368 1.43373 14.8619C1.97637 16.8871 3.30128 18.6138 5.11699 19.6621C6.78785 20.6267 8.74834 20.9442 10.6286 20.5659L10.6327 20.5811L11.1157 20.4517L11.5986 20.3223L24.6134 16.835L25.0964 16.7056C26.4342 16.3471 27.8596 16.5349 29.0591 17.2274C30.2585 17.9198 31.1337 19.0604 31.4921 20.3982C31.8506 21.736 31.6629 23.1614 30.9705 24.3608C30.278 25.5603 29.1374 26.4356 27.7996 26.794L27.3167 26.9234L20.4841 28.7542C19.7685 28.9459 19.3438 29.6815 19.5355 30.3972C19.7273 31.1128 20.4629 31.5375 21.1785 31.3458L28.0111 29.515L28.494 29.3856L28.977 29.2562L28.9729 29.2409C30.7904 28.6284 32.3295 27.3733 33.2942 25.7024C34.3425 23.8867 34.6266 21.7289 34.0839 19.7037C33.5413 17.6786 32.2164 15.9519 30.4007 14.9036C28.7298 13.9389 26.7693 13.6215 24.889 13.9999L24.8849 13.9846L24.402 14.114L23.919 14.2434L10.9042 17.7307L10.4212 17.8601C9.08348 18.2186 7.65805 18.0308 6.4586 17.3383C5.25918 16.6458 4.38397 15.5053 4.02552 14.1675C3.66706 12.8297 3.85471 11.4043 4.5472 10.2049C5.23974 9.00537 6.38029 8.12978 7.71797 7.77134L8.20094 7.64194L15.3586 5.72404C16.0743 5.53228 16.499 4.79669 16.3072 4.08104C16.1154 3.36539 15.3798 2.94069 14.6642 3.13245L7.50652 5.05034L7.02356 5.17975Z" fill="black" stroke="black"/>
</svg>
