<svg width="70" height="70" viewBox="0 0 70 70" fill="none" xmlns="http://www.w3.org/2000/svg">
<rect width="70" height="70" rx="12" fill="url(#paint0_linear_8076_569)"/>
<g filter="url(#filter0_d_8076_569)">
<path d="M10.4574 34L12.3774 23.89H18.3024L17.9424 25.735H14.1924L13.7274 28.105H17.2524L16.8924 29.92H13.3824L12.6174 34H10.4574ZM18.1185 34L20.0385 23.89H22.1985L20.6385 32.11H24.5235L24.1635 34H18.1185ZM33.3201 27.081L32.9121 29.138H28.8491L28.3221 31.909H32.8951L32.5041 34H25.4661L27.6421 22.542H34.4251L34.0171 24.633H29.6991L29.2231 27.081H33.3201ZM42.1023 27.081L41.6943 29.138H37.6313L37.1043 31.909H41.6773L41.2863 34H34.2483L36.4243 22.542H43.2073L42.7993 24.633H38.4813L38.0053 27.081H42.1023ZM50.3875 31.975L50.5675 33.715C50.0275 33.955 49.1275 34.15 47.9125 34.15C45.2275 34.15 43.4425 32.515 43.4425 29.86C43.4425 27.595 44.4625 25.825 45.9925 24.805C47.0425 24.085 48.2725 23.74 49.6975 23.74C50.7925 23.74 51.6175 23.995 51.9175 24.16L51.3175 25.915C51.0325 25.78 50.3575 25.585 49.4875 25.585C48.6175 25.585 47.7925 25.855 47.1775 26.365C46.3375 27.07 45.7825 28.21 45.7825 29.62C45.7825 31.225 46.6975 32.305 48.4675 32.305C49.1875 32.305 49.8925 32.185 50.3875 31.975ZM57.5402 31.375H54.6302L53.4452 34H51.1352L56.0552 23.89H58.8302L60.0152 34H57.7352L57.5402 31.375ZM55.2602 29.725H57.4502L57.2402 27.55C57.2102 26.995 57.1502 26.185 57.1052 25.57H57.0752C56.8202 26.185 56.5352 26.965 56.2652 27.55L55.2602 29.725ZM18.5002 44.958V35.69C19.0602 35.592 20.1802 35.494 21.2582 35.494C22.5602 35.494 23.3582 35.62 24.0582 36.026C24.7162 36.376 25.1782 37.02 25.1782 37.888C25.1782 38.714 24.6882 39.484 23.6242 39.89V39.918C24.7022 40.198 25.5002 41.024 25.5002 42.228C25.5002 43.096 25.1082 43.768 24.5202 44.244C23.8342 44.79 22.6862 45.098 20.8102 45.098C19.7602 45.098 18.9762 45.028 18.5002 44.958ZM20.6142 37.104V39.302H21.3142C22.4482 39.302 23.0362 38.84 23.0362 38.14C23.0362 37.426 22.4902 37.048 21.5242 37.048C21.0482 37.048 20.7822 37.076 20.6142 37.104ZM20.6142 40.828V43.488C20.8242 43.516 21.0762 43.516 21.4402 43.516C22.4062 43.516 23.2602 43.138 23.2602 42.144C23.2602 41.206 22.4062 40.828 21.3422 40.828H20.6142ZM31.7947 42.578H29.0927L28.4207 45H26.2227L29.0927 35.564H31.8927L34.8327 45H32.5227L31.7947 42.578ZM29.4007 40.982H31.4867L30.8987 38.98C30.7307 38.42 30.5627 37.72 30.4227 37.16H30.3947C30.2547 37.72 30.1147 38.434 29.9607 38.98L29.4007 40.982ZM38.0422 45H36.0822V35.564H38.5742L40.5342 39.022C41.0942 40.016 41.6402 41.192 42.0742 42.256H42.1022C41.9762 41.01 41.9342 39.736 41.9342 38.308V35.564H43.8942V45H41.6542L39.6382 41.36C39.0782 40.352 38.4482 39.134 38.0002 38.028H37.9442C38.0142 39.288 38.0422 40.618 38.0422 42.158V45ZM45.7482 45V35.564H47.8622V39.736H47.8902C48.1002 39.372 48.3242 39.036 48.5482 38.7L50.6762 35.564H53.3082L50.1862 39.582L53.4622 45H50.9842L48.6602 40.926L47.8622 41.92V45H45.7482Z" fill="white"/>
</g>
<defs>
<filter id="filter0_d_8076_569" x="2.45728" y="18.542" width="65.5579" height="38.5562" filterUnits="userSpaceOnUse" color-interpolation-filters="sRGB">
<feFlood flood-opacity="0" result="BackgroundImageFix"/>
<feColorMatrix in="SourceAlpha" type="matrix" values="0 0 0 0 0 0 0 0 0 0 0 0 0 0 0 0 0 0 127 0" result="hardAlpha"/>
<feOffset dy="4"/>
<feGaussianBlur stdDeviation="4"/>
<feComposite in2="hardAlpha" operator="out"/>
<feColorMatrix type="matrix" values="0 0 0 0 0 0 0 0 0 0 0 0 0 0 0 0 0 0 0.25 0"/>
<feBlend mode="normal" in2="BackgroundImageFix" result="effect1_dropShadow_8076_569"/>
<feBlend mode="normal" in="SourceGraphic" in2="effect1_dropShadow_8076_569" result="shape"/>
</filter>
<linearGradient id="paint0_linear_8076_569" x1="35" y1="0" x2="35" y2="70" gradientUnits="userSpaceOnUse">
<stop stop-color="#00D371"/>
<stop offset="1" stop-color="#004324"/>
</linearGradient>
</defs>
</svg>
