<svg width="70" height="70" viewBox="0 0 70 70" fill="none" xmlns="http://www.w3.org/2000/svg">
<g id="Frame 112">
<rect width="70" height="70" rx="12" fill="url(#paint0_linear_8316_583)"/>
<rect width="70" height="70" rx="12" fill="url(#paint1_linear_8316_583)" fill-opacity="0.7"/>
<g id="Page-1">
<g id="icon">
<g id="Combined-Shape" filter="url(#filter0_d_8316_583)">
<path fill-rule="evenodd" clip-rule="evenodd" d="M36.6 21L36.6 46.6H38.2V27.4H49.4L49.4 46.6L51 46.6V49.8L36.6 49.7999L36.6 49.8H20.6L20.6 49.7999L19 49.8V46.6L20.6 46.6L20.6 21H36.6ZM30.2 41.8H27V46.6H30.2V41.8ZM44.6 40.2H41.4V43.4H44.6V40.2ZM44.6 33.8H41.4V37H44.6V33.8ZM30.2 33.8H27V37H30.2V33.8ZM30.2 27.4H27V30.6H30.2V27.4Z" fill="white"/>
</g>
</g>
</g>
</g>
<defs>
<filter id="filter0_d_8316_583" x="11" y="17" width="48" height="44.7998" filterUnits="userSpaceOnUse" color-interpolation-filters="sRGB">
<feFlood flood-opacity="0" result="BackgroundImageFix"/>
<feColorMatrix in="SourceAlpha" type="matrix" values="0 0 0 0 0 0 0 0 0 0 0 0 0 0 0 0 0 0 127 0" result="hardAlpha"/>
<feOffset dy="4"/>
<feGaussianBlur stdDeviation="4"/>
<feComposite in2="hardAlpha" operator="out"/>
<feColorMatrix type="matrix" values="0 0 0 0 0 0 0 0 0 0 0 0 0 0 0 0 0 0 0.25 0"/>
<feBlend mode="normal" in2="BackgroundImageFix" result="effect1_dropShadow_8316_583"/>
<feBlend mode="normal" in="SourceGraphic" in2="effect1_dropShadow_8316_583" result="shape"/>
</filter>
<linearGradient id="paint0_linear_8316_583" x1="35" y1="0" x2="35" y2="70" gradientUnits="userSpaceOnUse">
<stop stop-color="#FFDD64"/>
<stop offset="1" stop-color="#FFDD64"/>
</linearGradient>
<linearGradient id="paint1_linear_8316_583" x1="35.5" y1="0.5" x2="35" y2="111" gradientUnits="userSpaceOnUse">
<stop stop-opacity="0"/>
<stop offset="1"/>
</linearGradient>
</defs>
</svg>
