<svg width="60" height="60" viewBox="0 0 60 60" fill="none" xmlns="http://www.w3.org/2000/svg">
<path d="M0 20.8C0 13.5193 0 9.87898 1.41692 7.09812C2.66327 4.65202 4.65202 2.66327 7.09812 1.41692C9.87898 0 13.5193 0 20.8 0H39.2C46.4807 0 50.121 0 52.9019 1.41692C55.348 2.66327 57.3367 4.65202 58.5831 7.09812C60 9.87898 60 13.5193 60 20.8V39.2C60 46.4807 60 50.121 58.5831 52.9019C57.3367 55.348 55.348 57.3367 52.9019 58.5831C50.121 60 46.4807 60 39.2 60H20.8C13.5193 60 9.87898 60 7.09812 58.5831C4.65202 57.3367 2.66327 55.348 1.41692 52.9019C0 50.121 0 46.4807 0 39.2V20.8Z" fill="url(#paint0_linear_344_647)"/>
<mask id="mask0_344_647" style="mask-type:alpha" maskUnits="userSpaceOnUse" x="0" y="0" width="60" height="60">
<path d="M46 0H14C6.26801 0 0 6.26801 0 14V46C0 53.732 6.26801 60 14 60H46C53.732 60 60 53.732 60 46V14C60 6.26801 53.732 0 46 0Z" fill="white"/>
</mask>
<g mask="url(#mask0_344_647)">
<path d="M46 0H14C6.26801 0 0 6.26801 0 14V46C0 53.732 6.26801 60 14 60H46C53.732 60 60 53.732 60 46V14C60 6.26801 53.732 0 46 0Z" fill="url(#paint1_linear_344_647)"/>
<path fill-rule="evenodd" clip-rule="evenodd" d="M23.9405 45.8085C25.8655 46.2585 27.8985 46.5 30 46.5C42.15 46.5 52 38.441 52 28.5C52 18.559 42.15 10.5 30 10.5C17.85 10.5 8 18.559 8 28.5C8 34.988 12.195 40.674 18.4875 43.8415C18.1425 46.295 17.146 48.0975 15.5 49.25C18.79 49.25 21.6035 48.103 23.9405 45.8085Z" fill="white"/>
</g>
<g clip-path="url(#clip0_344_647)">
<path fill-rule="evenodd" clip-rule="evenodd" d="M47 60H13C11.2919 60.0034 9.59988 59.6695 8.02111 59.0174C6.44233 58.3653 5.00787 57.4079 3.80003 56.2C2.59218 54.9922 1.63474 53.5577 0.98264 51.9789C0.330538 50.4002 -0.00338745 48.7082 2.5906e-05 47V13C-0.00338745 11.2919 0.330538 9.59988 0.98264 8.02111C1.63474 6.44233 2.59218 5.00787 3.80003 3.80003C5.00787 2.59218 6.44233 1.63474 8.02111 0.98264C9.59988 0.330538 11.2919 -0.00338745 13 2.5906e-05H47C48.7082 -0.00338745 50.4002 0.330538 51.9789 0.98264C53.5577 1.63474 54.9922 2.59218 56.2 3.80003C57.4079 5.00787 58.3653 6.44233 59.0174 8.02111C59.6695 9.59988 60.0034 11.2919 60 13V47C60.0034 48.7082 59.6695 50.4002 59.0174 51.9789C58.3653 53.5577 57.4079 54.9922 56.2 56.2C54.9922 57.4079 53.5577 58.3653 51.9789 59.0174C50.4002 59.6695 48.7082 60.0034 47 60V60Z" fill="#E3D6F5"/>
<path fill-rule="evenodd" clip-rule="evenodd" d="M59.999 46.4373V46.9973C60.0036 48.7621 59.6477 50.5093 58.953 52.1316C58.2583 53.754 57.2394 55.2173 55.959 56.4319C55.3463 57.0176 54.6763 57.5403 53.959 57.9919V46.4373H59.999Z" fill="#5C28A4"/>
<path d="M60 31.4365H53.957V46.4365H60V31.4365Z" fill="#532494"/>
<path d="M60 16.4365H53.957V31.4365H60V16.4365Z" fill="#8F5BD7"/>
<path d="M60 16.4365H53.957V21.4365H60V16.4365Z" fill="url(#paint2_linear_344_647)"/>
<path d="M60 31.437H53.957V36.437H60V31.437Z" fill="url(#paint3_linear_344_647)"/>
<path fill-rule="evenodd" clip-rule="evenodd" d="M53.957 46.4373V50.4373H59.5288C59.838 49.3176 59.9965 48.1616 59.9998 46.9999V46.4373H53.957Z" fill="url(#paint4_linear_344_647)"/>
<path fill-rule="evenodd" clip-rule="evenodd" d="M59.9999 13.0001C60.0034 10.8083 59.4509 8.65146 58.394 6.7313C57.3372 4.81114 55.8106 3.19042 53.957 2.02075V16.4367H59.9999L59.9999 13.0001Z" fill="#F1EAFA"/>
<path d="M28.092 49.9988C31.8031 50.0026 35.432 48.9056 38.5195 46.8466C41.607 44.7876 44.0144 41.859 45.4372 38.4315C46.86 35.004 47.2342 31.2315 46.5125 27.5912C45.7908 23.9509 44.0057 20.6065 41.3829 17.981C38.7601 15.3556 35.4174 13.567 31.7779 12.8416C28.1384 12.1162 24.3655 12.4866 20.9365 13.9059C17.5076 15.3252 14.5766 17.7297 12.5144 20.8151C10.4523 23.9005 9.35155 27.5282 9.35156 31.2393C9.36966 36.2058 11.3493 40.964 14.8594 44.4776C18.3694 47.9912 23.1256 49.9757 28.092 49.9988V49.9988ZM28.092 37.5116C21.705 37.5116 16.9434 40.4756 15.4327 43.019C13.139 40.5519 11.6157 37.4688 11.0496 34.1482C10.4835 30.8275 10.8994 27.4138 12.2461 24.3262C13.5928 21.2385 15.8117 18.6113 18.6306 16.767C21.4494 14.9227 24.7454 13.9416 28.114 13.9441C31.4825 13.9467 34.777 14.9327 37.5931 16.7813C40.4091 18.6298 42.6241 21.2604 43.9662 24.3501C45.3082 27.4398 45.7189 30.8541 45.1478 34.1739C44.5767 37.4937 43.0487 40.5745 40.7513 43.0381C39.2406 40.4756 34.4982 37.5116 28.092 37.5116ZM28.092 34.2034C31.7636 34.2034 34.5746 31.0863 34.5746 27.0131C34.5746 23.1886 31.7062 19.9759 28.092 19.9759C24.4969 19.9759 21.6093 23.1886 21.6285 27.0131C21.6285 31.0863 24.4395 34.1842 28.092 34.2034Z" fill="#2E1452"/>
<path fill-rule="evenodd" clip-rule="evenodd" d="M53.959 57.9781C55.0872 57.2661 56.0991 56.3846 56.959 55.3645V4.63537C56.0991 3.61531 55.0872 2.73376 53.959 2.02173V57.9781Z" fill="url(#paint5_linear_344_647)"/>
</g>
<defs>
<linearGradient id="paint0_linear_344_647" x1="30" y1="0" x2="30" y2="60" gradientUnits="userSpaceOnUse">
<stop stop-color="#303030"/>
<stop offset="1" stop-color="#121212"/>
</linearGradient>
<linearGradient id="paint1_linear_344_647" x1="30" y1="0" x2="30" y2="60" gradientUnits="userSpaceOnUse">
<stop stop-color="#91FC8A"/>
<stop offset="1" stop-color="#00DD35"/>
</linearGradient>
<linearGradient id="paint2_linear_344_647" x1="56.9785" y1="16.4035" x2="56.9785" y2="21.1225" gradientUnits="userSpaceOnUse">
<stop stop-opacity="0.3"/>
<stop offset="1" stop-color="white" stop-opacity="0"/>
</linearGradient>
<linearGradient id="paint3_linear_344_647" x1="56.9785" y1="31.3195" x2="56.9785" y2="36.4155" gradientUnits="userSpaceOnUse">
<stop stop-opacity="0.2"/>
<stop offset="1" stop-color="white" stop-opacity="0"/>
</linearGradient>
<linearGradient id="paint4_linear_344_647" x1="56.9785" y1="46.4374" x2="56.9785" y2="50.2299" gradientUnits="userSpaceOnUse">
<stop stop-opacity="0.2"/>
<stop offset="1" stop-color="white" stop-opacity="0"/>
</linearGradient>
<linearGradient id="paint5_linear_344_647" x1="53.9592" y1="29.9999" x2="56.9592" y2="29.9999" gradientUnits="userSpaceOnUse">
<stop stop-opacity="0.2"/>
<stop offset="1" stop-color="white" stop-opacity="0"/>
</linearGradient>
<clipPath id="clip0_344_647">
<rect width="60" height="60" fill="white"/>
</clipPath>
</defs>
</svg>
