<svg width="64" height="64" viewBox="0 0 64 64" fill="none" xmlns="http://www.w3.org/2000/svg">
<rect width="64" height="64" rx="13" fill="url(#paint0_linear_434_1097)"/>
<g clip-path="url(#clip0_434_1097)">
<path d="M54.8692 15.0807L52.7384 12.37C52.7374 12.369 52.7364 12.368 52.7364 12.367L52.5648 12.1486C52.3562 11.9089 52.1019 11.7131 51.8168 11.5727C51.5317 11.4323 51.2214 11.3502 50.9042 11.3311L36.3937 51.4348L19.7012 50.5474L21.9234 53.3769C22.2057 53.7367 22.5608 54.0328 22.9655 54.2459C23.3701 54.4591 23.8151 54.5845 24.2715 54.6139L38.9107 55.5554C39.6068 55.6005 40.2988 55.4203 40.8845 55.0415C41.4702 54.6627 41.9184 54.1054 42.1627 53.4521L55.3567 18.2282C55.5522 17.7058 55.61 17.1419 55.5247 16.5907C55.4393 16.0395 55.2136 15.5195 54.8692 15.0807Z" fill="#6562F1"/>
<path d="M53.0123 14.5912L39.6538 50.2569C39.4093 50.9101 38.9611 51.4673 38.3754 51.8461C37.7898 52.2249 37.0978 52.4052 36.4017 52.3602L21.3867 51.3944C21.0102 51.3699 20.6446 51.2577 20.3193 51.0667C19.9939 50.8758 19.7177 50.6113 19.5128 50.2944C19.3079 49.9776 19.18 49.6173 19.1392 49.2422C19.0985 48.8671 19.1461 48.4876 19.2783 48.1342L32.6368 12.4685C32.8815 11.8152 33.3299 11.258 33.9157 10.8792C34.5015 10.5004 35.1937 10.3202 35.8899 10.3652L50.9038 11.331C51.2211 11.3501 51.5313 11.4323 51.8164 11.5727C52.1015 11.713 52.3558 11.9088 52.5644 12.1486C52.6261 12.2177 52.6834 12.2907 52.736 12.367C52.736 12.368 52.737 12.369 52.7381 12.37C52.9603 12.6903 53.1014 13.0598 53.1492 13.4468C53.197 13.8337 53.15 14.2264 53.0123 14.5912Z" fill="#8380F3"/>
<path d="M35.7435 17.7327L32.995 25.0891L43.6273 25.7698L46.3697 18.4166L35.7435 17.7327Z" fill="#9B99F5"/>
<path d="M36.4021 52.3603L21.3871 51.3944C21.0634 51.3746 20.7471 51.2894 20.4573 51.1438C20.1675 50.9982 19.9103 50.7953 19.7012 50.5474L21.9234 53.3769C22.2057 53.7366 22.5608 54.0328 22.9655 54.2459C23.3701 54.4591 23.8151 54.5845 24.2715 54.6139L38.9107 55.5554C39.5815 55.5985 40.2492 55.432 40.8212 55.079L38.3124 51.8837C37.7405 52.2369 37.0729 52.4034 36.4021 52.3603Z" fill="#5350EF"/>
<path d="M40.8244 26.1393L37.8139 22.3049L22.4766 34.3472L25.4871 38.1816C27.7041 41.0051 32.9346 40.5982 37.1699 37.2728C41.4052 33.9475 43.0414 28.9628 40.8244 26.1393Z" fill="#E2AC40"/>
<path d="M37.4686 27.7852L41.0816 32.3868C41.2111 32.0921 41.3256 31.7973 41.4214 31.5039L38.1076 27.2834L37.4686 27.7852ZM39.7531 34.6419L36.2478 30.1774L35.6087 30.6792L39.233 35.2951C39.4158 35.0803 39.5892 34.8625 39.7531 34.6419ZM33.8258 32.3554L33.1867 32.8571L36.8465 37.5183C36.9549 37.4379 37.0631 37.357 37.1703 37.2729C37.2775 37.1887 37.3818 37.1028 37.4856 37.0166L33.8258 32.3554ZM31.0269 34.0534L30.3879 34.5551L34.0016 39.1577C34.2547 39.0502 34.5075 38.934 34.7596 38.8075L31.0269 34.0534ZM31.4958 39.9132L27.7056 35.0861L27.0666 35.5878L30.5575 40.0339C30.8653 40.0104 31.1788 39.9691 31.4958 39.9132Z" fill="#F2C34E"/>
<path d="M22.1941 10.6535L18.6 8.75977L10.2676 24.5739L13.8617 26.4676C16.2437 27.7227 20.0399 25.2 22.3408 20.833C24.6418 16.4661 24.5761 11.9085 22.1941 10.6535Z" fill="#DFDFDF"/>
<path d="M23.9693 15.7211L19.3886 13.3076L19.0098 14.0265L23.8462 16.5747C23.8987 16.2851 23.9397 16.0005 23.9693 15.7211ZM18.0537 18.1145L17.6749 18.8334L22.1472 21.1899C22.2129 21.0722 22.278 20.9536 22.3415 20.833C22.4051 20.7125 22.4661 20.5917 22.526 20.471L18.0537 18.1145ZM19.68 24.4818L15.201 22.1218L14.8223 22.8407L19.0456 25.0659C19.2591 24.8842 19.4706 24.6895 19.68 24.4818Z" fill="#F4F4F4"/>
<path d="M38.1398 10.51L36.6798 14.4079L47.5977 15.1106L49.0578 11.2127L38.1398 10.51Z" fill="#6562F1"/>
<path d="M34.1597 33.4385C38.395 30.1131 40.0311 25.1284 37.8142 22.3049C35.5973 19.4814 30.3667 19.8883 26.1315 23.2137C21.8962 26.5391 20.26 31.5238 22.477 34.3473C24.6939 37.1708 29.9244 36.7639 34.1597 33.4385Z" fill="#F2C34E"/>
<path d="M34.6186 24.8137L28.1382 25.7698L25.6719 31.8384L32.1523 30.8823L34.6186 24.8137Z" fill="#EAB84B"/>
<path d="M32.1523 30.8822L29.5062 28.8278L28.1382 25.7698L25.6719 31.8383L32.1523 30.8822Z" fill="#E2AC40"/>
<path d="M25.0532 43.3032L25.001 44.114L26.793 44.2294L26.8452 43.4185L25.0532 43.3032Z" fill="#6562F1"/>
<path d="M29.0208 43.5583L28.9686 44.3691L37.6726 44.9294L37.7248 44.1186L29.0208 43.5583Z" fill="#6562F1"/>
<path d="M23.525 46.9837L23.4728 47.7946L25.2649 47.9098L25.317 47.099L23.525 46.9837Z" fill="#6562F1"/>
<path d="M27.173 47.2186L27.1208 48.0294L36.8488 48.6554L36.901 47.8446L27.173 47.2186Z" fill="#6562F1"/>
<path d="M18.747 18.9394C21.048 14.5724 20.9823 10.0149 18.6003 8.75983C16.2184 7.50476 12.4221 10.0274 10.1212 14.3944C7.82019 18.7613 7.88586 23.3188 10.2678 24.5739C12.6498 25.829 16.446 23.3063 18.747 18.9394Z" fill="#EDEDED"/>
<path d="M17.0163 12.6166L16.3967 12.091L14.4536 14.3811L13.2245 13.7335L12.8457 14.4523L13.9152 15.0158L11.5504 17.8029C11.511 17.8493 11.4826 17.9039 11.4672 17.9628C11.4518 18.0216 11.4498 18.0832 11.4613 18.1429C11.4729 18.2026 11.4977 18.259 11.534 18.3078C11.5702 18.3567 11.617 18.3968 11.6708 18.4251L15.2649 20.3189L15.6437 19.6L12.4976 17.9424L14.6515 15.4038L16.4398 16.346L16.8186 15.6272L15.19 14.7691L17.0163 12.6166ZM20.1461 37.1841C19.7807 36.8722 19.4515 36.5203 19.1646 36.1351C18.3132 34.9922 17.8501 33.6063 17.7882 32.0158L18.6001 31.9842C18.6555 33.4076 19.0646 34.6409 19.8161 35.6497C20.0667 35.9862 20.3542 36.2935 20.6733 36.5659L20.1461 37.1841ZM18.6768 30.4283L17.8714 30.3217C17.9479 29.7533 18.0651 29.1911 18.2221 28.6395L19.0039 28.8605C18.8576 29.3746 18.7483 29.8986 18.6768 30.4283ZM27.7676 17.4503L26.9691 17.2997C27.3549 15.254 27.3722 13.3442 27.0192 11.7767L27.8119 11.5983C28.189 13.273 28.1737 15.2966 27.7676 17.4503ZM26.5009 10.236C26.2087 9.59066 25.7784 9.01733 25.2403 8.55651L25.7598 7.93176C26.3892 8.46815 26.893 9.13631 27.2355 9.88897L26.5009 10.236Z" fill="#BEBEBE"/>
<path d="M55.1882 14.8301L53.0361 12.0891C52.7938 11.7507 52.479 11.4707 52.1146 11.2695C51.7503 11.0683 51.3456 10.951 50.9301 10.9261L35.9156 9.95985C35.132 9.906 34.352 10.1074 33.6924 10.534C33.0328 10.9606 32.5292 11.5893 32.2568 12.3261L29.003 21.0134C27.8874 21.5069 26.8384 22.1388 25.8806 22.8942C23.7699 24.5515 22.2137 26.6638 21.4987 28.842C20.7647 31.0781 20.9986 33.1223 22.1575 34.5982L23.3472 36.1135L18.8983 47.9917C18.7416 48.4041 18.6847 48.8477 18.7322 49.2862C18.7797 49.7248 18.9302 50.1459 19.1714 50.5153C19.2397 50.6204 19.3148 50.721 19.3961 50.8164L21.6039 53.6283C21.9217 54.0326 22.3211 54.3654 22.7762 54.605C23.2312 54.8447 23.7316 54.9857 24.2448 55.019L38.8843 55.9612C38.9652 55.9664 39.0457 55.969 39.1257 55.969C39.8699 55.9708 40.5967 55.7442 41.2078 55.3196C41.819 54.895 42.2851 54.293 42.5431 53.5949L55.7365 18.3705C55.9545 17.7826 56.0185 17.1487 55.9226 16.529C55.8266 15.9094 55.5738 15.3245 55.1882 14.8301ZM48.4854 11.583L47.323 14.6859L37.2523 14.0377L38.4145 10.9348L48.4854 11.583ZM22.2706 29.0954C22.9362 27.0679 24.3964 25.0926 26.3824 23.5332C28.6542 21.7495 31.2184 20.8282 33.3994 20.8282C35.1088 20.8282 36.583 21.3947 37.4948 22.5559C39.5697 25.1987 37.9611 29.9373 33.9088 33.1191C31.6371 34.9028 29.0728 35.8243 26.8918 35.8241C25.1824 35.824 23.7083 35.2576 22.7965 34.0964C21.8109 32.8411 21.6241 31.0651 22.2706 29.0954ZM27.8445 36.5786L30.2514 39.6441C28.317 39.7288 26.7462 39.1268 25.8071 37.9307L24.4799 36.2404C25.2525 36.5082 26.0655 36.6407 26.8832 36.6319C27.1151 36.6319 27.3517 36.6225 27.593 36.6038C27.6765 36.5973 27.7606 36.5873 27.8445 36.5786ZM31.2098 39.549L28.7686 36.4399C29.6221 36.2686 30.4545 36.0054 31.2514 35.655L33.7436 38.8291C32.9312 39.1706 32.0804 39.4123 31.2098 39.549ZM34.5043 38.4823L32.0054 35.2996C32.7341 34.9264 33.4304 34.493 34.087 34.0038L36.5958 37.1991C35.9381 37.688 35.2381 38.1174 34.5043 38.4823ZM37.2348 36.6972L34.726 33.502C35.357 32.9803 35.9433 32.4067 36.4788 31.7873L38.9773 34.9695C38.4488 35.5959 37.8656 36.1741 37.2348 36.6972ZM39.4948 34.3129L37.0029 31.1392C37.5323 30.4482 37.9855 29.7019 38.3544 28.9135L40.7983 32.026C40.457 32.8378 40.0194 33.6056 39.4948 34.3129ZM41.1202 31.1204L38.7084 28.0487C38.7368 27.9692 38.7664 27.8899 38.7926 27.8103C39.1532 26.7118 39.2788 25.66 39.1773 24.6988L40.5053 26.3902C41.4795 27.631 41.6415 29.3337 41.1202 31.1204ZM19.6591 48.2766L23.9346 36.8616L25.1681 38.4325C26.2078 39.7567 27.8685 40.4662 29.8938 40.4662C30.1257 40.4662 30.3623 40.4568 30.6035 40.4381C32.8892 40.2603 35.3104 39.2497 37.4212 37.5924C39.5319 35.9352 41.0881 33.8228 41.8031 31.6446C42.5371 29.4085 42.3032 27.3643 41.1444 25.8885L38.1338 22.0541C36.975 20.5783 35.0447 19.8662 32.6983 20.0485C31.7851 20.1251 30.8851 20.3158 30.0194 20.6162L33.0177 12.611C33.2295 12.038 33.6212 11.5489 34.1342 11.2172C34.6472 10.8854 35.2539 10.7287 35.8635 10.7707L37.5673 10.8803L36.2994 14.2655C36.2771 14.3249 36.2691 14.3887 36.2759 14.4517C36.2827 14.5148 36.3042 14.5753 36.3387 14.6286C36.3731 14.6819 36.4196 14.7263 36.4743 14.7584C36.529 14.7905 36.5904 14.8093 36.6537 14.8134L47.5716 15.516C47.5804 15.5166 47.5891 15.5169 47.5978 15.5169C47.6805 15.5168 47.7612 15.4916 47.8292 15.4444C47.8971 15.3973 47.9491 15.3306 47.9781 15.2531L49.3326 11.6375L50.8779 11.7369C51.1912 11.7571 51.4955 11.8504 51.7662 12.0092C52.037 12.168 52.2669 12.3881 52.4374 12.6517C52.6078 12.9153 52.7142 13.2152 52.748 13.5273C52.7818 13.8394 52.742 14.1551 52.6319 14.4491L39.2734 50.1147C39.0616 50.6878 38.6698 51.1768 38.1568 51.5086C37.6438 51.8403 37.0371 51.997 36.4276 51.9551L21.4131 50.9888C21.0998 50.9686 20.7956 50.8754 20.5248 50.7166C20.254 50.5577 20.0242 50.3377 19.8537 50.0741C19.6832 49.8104 19.5768 49.5106 19.543 49.1984C19.5093 48.8863 19.549 48.5706 19.6591 48.2766ZM38.9364 55.1504L24.297 54.2082C23.8978 54.1823 23.5086 54.0726 23.1547 53.8862C22.8008 53.6998 22.4901 53.441 22.2429 53.1265L21.1882 51.7832C21.2453 51.7903 21.3029 51.7958 21.3609 51.7996L36.3754 52.7659C36.4564 52.7711 36.5369 52.7737 36.6169 52.7737C37.1682 52.7743 37.7125 52.65 38.2089 52.4102L40.199 54.9448C39.7991 55.108 39.3674 55.1783 38.9364 55.1504ZM54.9756 18.0855L41.7822 53.31C41.6042 53.7873 41.3012 54.2081 40.9049 54.5283L38.8993 51.9739C39.4125 51.5609 39.8046 51.017 40.0342 50.3997L53.3928 14.7341C53.4736 14.5186 53.528 14.2942 53.555 14.0657L54.5492 15.3319C54.8491 15.7164 55.0457 16.1713 55.1203 16.6533C55.1949 17.1352 55.1451 17.6283 54.9756 18.0855Z" fill="#292956"/>
<path d="M43.2462 25.628L44.0076 25.912L46.7499 18.5587C46.772 18.4993 46.78 18.4356 46.7731 18.3726C46.7662 18.3096 46.7447 18.249 46.7102 18.1958C46.6758 18.1427 46.6294 18.0983 46.5747 18.0662C46.52 18.0342 46.4586 18.0154 46.3953 18.0113L35.7692 17.3274L35.717 18.1382L45.7976 18.787L43.2462 25.628ZM25.6718 32.2448C25.6917 32.2448 25.7115 32.2433 25.7312 32.2404L32.2116 31.2843C32.2815 31.274 32.3476 31.2456 32.4032 31.2019C32.4588 31.1583 32.502 31.1009 32.5286 31.0354L34.995 24.9668C35.0219 24.9004 35.0309 24.8281 35.0209 24.7572C35.0109 24.6863 34.9824 24.6193 34.9381 24.563C34.8939 24.5066 34.8356 24.463 34.7691 24.4365C34.7025 24.41 34.6302 24.4015 34.5593 24.412L28.0789 25.3681C28.0089 25.3784 27.9429 25.4068 27.8873 25.4504C27.8317 25.4941 27.7884 25.5515 27.7618 25.617L25.2955 31.6856C25.2705 31.7473 25.2609 31.8142 25.2678 31.8804C25.2746 31.9466 25.2977 32.0101 25.3348 32.0653C25.372 32.1206 25.4222 32.1658 25.4809 32.1971C25.5397 32.2284 25.6052 32.2448 25.6718 32.2448V32.2448ZM31.9778 30.2326L29.8356 28.5693L28.728 26.0936L33.9746 25.3195L31.9778 30.2326ZM28.1561 26.8049L29.1354 28.9938C29.1626 29.0547 29.2044 29.108 29.257 29.1489L31.1511 30.6195L26.3159 31.3329L28.1561 26.8049Z" fill="#292956"/>
<path d="M25.0532 43.3032L25.001 44.114L26.793 44.2294L26.8452 43.4185L25.0532 43.3032Z" fill="#292956"/>
<path d="M29.0207 43.5586L28.9686 44.3694L37.6725 44.9295L37.7247 44.1187L29.0207 43.5586Z" fill="#292956"/>
<path d="M23.525 46.9837L23.4728 47.7946L25.2649 47.9098L25.317 47.099L23.525 46.9837Z" fill="#292956"/>
<path d="M27.173 47.2186L27.1208 48.0294L36.8488 48.6554L36.901 47.8446L27.173 47.2186Z" fill="#292956"/>
<path d="M11.6708 18.4251L15.2649 20.3189L15.6437 19.6L12.4976 17.9424L14.6515 15.4037L16.4398 16.346L16.8186 15.6271L15.19 14.7691L17.0163 12.6166L16.3967 12.0909L14.4536 14.3811L13.2245 13.7334L12.8457 14.4523L13.9152 15.0157L11.5504 17.8029C11.511 17.8493 11.4826 17.9039 11.4672 17.9628C11.4518 18.0216 11.4498 18.0832 11.4613 18.1429C11.4729 18.2026 11.4977 18.259 11.534 18.3078C11.5702 18.3567 11.617 18.3968 11.6708 18.4251Z" fill="#292956"/>
<path d="M22.7005 21.0223C23.8446 18.8512 24.4587 16.5598 24.4301 14.5704C24.4001 12.4922 23.6734 10.9735 22.3838 10.294L18.7905 8.40077L18.7897 8.40025C17.5 7.72075 15.8365 7.98006 14.1055 9.13038C12.4483 10.2316 10.9057 12.0337 9.7617 14.2049C8.61773 16.3761 8.00355 18.6674 8.03221 20.6569C8.06216 22.735 8.78887 24.2538 10.0785 24.9333L13.6726 26.827C14.1504 27.0758 14.682 27.2033 15.2206 27.1981C16.1866 27.1981 17.2581 26.827 18.3568 26.0969C20.014 24.9956 21.5566 23.1935 22.7005 21.0223ZM19.3048 24.2842L16.4629 22.7868C17.4244 21.8018 18.2483 20.6913 18.9122 19.4855L21.7876 21.0005C21.1231 22.2093 20.2868 23.3154 19.3048 24.2842ZM22.1664 20.2816L19.291 18.7667C19.9102 17.5372 20.3602 16.2298 20.629 14.8798L23.471 16.3771C23.2272 17.7349 22.7877 19.05 22.1664 20.2816L22.1664 20.2816ZM23.6176 14.5821C23.6211 14.894 23.6088 15.2059 23.5807 15.5166L20.7608 14.0308C20.8156 13.5815 20.8407 13.1292 20.8359 12.6766C20.8218 11.6935 20.6498 10.8376 20.338 10.1345L22.005 11.0129C23.0195 11.5473 23.5922 12.8149 23.6176 14.5821L23.6176 14.5821ZM8.84461 20.6452C8.81788 18.7893 9.39884 16.6366 10.4806 14.5837C11.5623 12.5307 13.0093 10.8343 14.5552 9.8071C15.517 9.16792 16.4348 8.84215 17.2386 8.84215C17.6462 8.83694 18.0488 8.93206 18.4109 9.11911C19.4253 9.65361 19.998 10.9212 20.0235 12.6883C20.0503 14.5442 19.4693 16.6969 18.3876 18.7498C17.3059 20.8028 15.8589 22.4992 14.313 23.5264C12.841 24.5046 11.4716 24.749 10.4573 24.2144C9.44283 23.6799 8.8701 22.4124 8.84461 20.6452ZM14.0514 26.1081L12.3873 25.2314C13.1426 25.0906 13.9451 24.7465 14.7627 24.2031C15.1386 23.9512 15.4975 23.6747 15.8371 23.3755L18.657 24.8613C18.4166 25.0601 18.1664 25.2466 17.9071 25.4201C16.4351 26.3983 15.0657 26.6427 14.0514 26.1081ZM20.1461 37.1841L20.6733 36.5659C20.3543 36.2935 20.0667 35.9862 19.8161 35.6497C19.0646 34.6409 18.6555 33.4076 18.6001 31.9842L17.7882 32.0158C17.8501 33.6063 18.3132 34.9922 19.1646 36.1351C19.4515 36.5203 19.7807 36.8722 20.1461 37.1841ZM17.8714 30.3217L18.6768 30.4283C18.7483 29.8986 18.8576 29.3746 19.0039 28.8605L18.2221 28.6395C18.0651 29.1911 17.9479 29.7533 17.8714 30.3217ZM26.9692 17.2997L27.7676 17.4503C28.1737 15.2966 28.189 13.273 27.8119 11.5983L27.0192 11.7767C27.3722 13.3442 27.3549 15.254 26.9692 17.2997ZM26.5009 10.236L27.2356 9.88897C26.893 9.13631 26.3892 8.46815 25.7598 7.93176L25.2404 8.55651C25.7784 9.01733 26.2087 9.59066 26.5009 10.236Z" fill="#292956"/>
</g>
<defs>
<linearGradient id="paint0_linear_434_1097" x1="5" y1="-1.21444e-06" x2="57.5" y2="61" gradientUnits="userSpaceOnUse">
<stop stop-color="#8380F3"/>
<stop offset="1" stop-color="#6562F1"/>
</linearGradient>
<clipPath id="clip0_434_1097">
<rect width="52" height="52" fill="white" transform="translate(6 6)"/>
</clipPath>
</defs>
</svg>
