<svg width="64" height="64" viewBox="0 0 64 64" fill="none" xmlns="http://www.w3.org/2000/svg">
<g clip-path="url(#clip0_1227_701)">
<path d="M49.6349 0H14.3651C6.43147 0 0 6.43147 0 14.3651V49.6349C0 57.5685 6.43147 64 14.3651 64H49.6349C57.5685 64 64 57.5685 64 49.6349V14.3651C64 6.43147 57.5685 0 49.6349 0Z" fill="#754AB2"/>
<path d="M33.0518 22.127C31.6765 23.4041 30.4809 24.5321 30.3864 24.6159C30.2265 24.7742 30.2639 24.8302 31.2243 25.8277C31.7705 26.4059 32.2507 26.872 32.2886 26.872C32.326 26.872 32.7216 26.5272 33.1738 26.1171L34.0024 25.3524L34.3793 25.7157L34.7469 26.0698L29.454 31.319L24.1611 36.5584L23.8221 36.3811C22.249 35.5886 19.8479 36.2506 18.9248 37.7327L18.7176 38.0591H13.3588H8V40.0171V41.9751H13.3588H18.7176L18.9248 42.3015C19.038 42.4788 19.3204 42.7953 19.5556 43.0009C21.1567 44.3993 23.549 44.3155 25.0463 42.8236C25.9693 41.9006 26.4023 40.6235 26.1858 39.4487L26.082 38.852L32.5528 32.447L39.0325 26.0328L37.6386 24.6529L36.2446 23.2731L36.9605 22.5926C37.3561 22.2103 37.6578 21.8747 37.6479 21.8377C37.5913 21.6979 35.7078 19.7866 35.6325 19.7959C35.5853 19.7964 34.4265 20.8401 33.0518 22.127Z" fill="white"/>
<path d="M41.1513 36.1012C40.4732 36.2503 39.7293 36.6604 39.1639 37.2108C37.5815 38.7772 37.5815 41.2569 39.1639 42.8233C40.8777 44.5203 43.6749 44.3615 45.1348 42.4785L45.5304 41.9753H50.8799H56.22V40.0173V38.0593H50.8705H45.5304L45.2007 37.6209C44.7771 37.0617 44.0705 36.5211 43.4304 36.2878C42.837 36.0642 41.754 35.9804 41.1513 36.1012Z" fill="white"/>
</g>
<defs>
<clipPath id="clip0_1227_701">
<rect width="64" height="64" fill="white"/>
</clipPath>
</defs>
</svg>
