<svg width="64" height="64" viewBox="0 0 64 64" fill="none" xmlns="http://www.w3.org/2000/svg">
<path d="M0 13C0 5.8203 5.8203 0 13 0H51C58.1797 0 64 5.8203 64 13V51C64 58.1797 58.1797 64 51 64H13C5.8203 64 0 58.1797 0 51V13Z" fill="#DBA34C"/>
<path d="M53.3125 17.1875V48.8125H10.6875V17.1875H53.3125Z" fill="#F2C555"/>
<path d="M27.8956 27.2938C28.4401 26.246 29.1297 25.2869 29.9375 24.442C32.1884 22.088 35.3584 20.625 38.875 20.625C45.7087 20.625 51.25 26.1663 51.25 33C51.25 39.8337 45.7087 45.375 38.875 45.375C32.0413 45.375 26.5 39.8337 26.5 33C26.5 30.9444 27.0019 28.9988 27.8956 27.2938Z" fill="#969897"/>
<path d="M38.875 34.375C39.6344 34.375 40.25 33.7594 40.25 33C40.25 32.2406 39.6344 31.625 38.875 31.625C38.1156 31.625 37.5 32.2406 37.5 33C37.5 33.7594 38.1156 34.375 38.875 34.375Z" fill="#E87570"/>
<path d="M15.5 43.3125H12.75V45.375H15.5V43.3125Z" fill="#E87570"/>
<path d="M15.5 39.1875H12.75V41.25H15.5V39.1875Z" fill="#E87570"/>
<path d="M15.5 35.0625H12.75V37.125H15.5V35.0625Z" fill="#E87570"/>
<path d="M20.3125 39.1875H17.5625V41.25H20.3125V39.1875Z" fill="#E87570"/>
<path d="M20.3125 35.0625H17.5625V37.125H20.3125V35.0625Z" fill="#E87570"/>
<path d="M40.25 33C40.25 33.7563 39.6313 34.375 38.875 34.375C38.3182 34.375 37.8369 34.0382 37.6238 33.5638C37.7957 33.6463 37.9882 33.6875 38.1875 33.6875C38.9438 33.6875 39.5625 33.0688 39.5625 32.3125C39.5625 32.1132 39.5213 31.9207 39.4388 31.7488C39.9132 31.9619 40.25 32.4432 40.25 33Z" fill="#DB4D4D"/>
<path d="M34.0625 30.25C34.4406 30.25 34.75 30.5594 34.75 30.9375V31.625C34.75 32.0031 34.4406 32.3125 34.0625 32.3125H30.625C30.2469 32.3125 29.9375 32.0031 29.9375 31.625V30.9375C29.9375 30.7106 30.0475 30.5113 30.2125 30.3875C30.3294 30.305 30.4737 30.25 30.625 30.25H34.0625Z" fill="#EBE8ED"/>
<path d="M34.75 30.9375V31.625C34.75 32.0031 34.4406 32.3125 34.0625 32.3125H30.625C30.2469 32.3125 29.9375 32.0031 29.9375 31.625H32.6875C33.0656 31.625 33.375 31.3156 33.375 30.9375V30.25H34.0625C34.4406 30.25 34.75 30.5594 34.75 30.9375Z" fill="#CBC1D3"/>
<path d="M34.75 31.625C35.1281 31.625 35.4375 31.9344 35.4375 32.3125V33C35.4375 33.3781 35.1281 33.6875 34.75 33.6875H31.3125C30.9344 33.6875 30.625 33.3781 30.625 33V32.3125C30.625 32.0856 30.735 31.8863 30.9 31.7625C31.0169 31.68 31.1612 31.625 31.3125 31.625H34.75Z" fill="#6D6868"/>
<path d="M26.5 22.6875C26.5 23.3612 26.1769 23.9594 25.675 24.3375C25.3312 24.5919 24.905 24.75 24.4375 24.75C23.2963 24.75 22.375 23.8287 22.375 22.6875C22.375 21.5463 23.2963 20.625 24.4375 20.625C25.5787 20.625 26.5 21.5463 26.5 22.6875Z" fill="#E87570"/>
<path d="M26.5 22.6875C26.5 23.3612 26.1769 23.9594 25.675 24.3375C25.3312 24.5919 24.905 24.75 24.4375 24.75C23.6881 24.75 23.035 24.3581 22.6775 23.76C22.9869 23.9525 23.3581 24.0625 23.75 24.0625C24.8912 24.0625 25.8125 23.1412 25.8125 22C25.8125 21.6081 25.7025 21.2369 25.51 20.9275C26.1081 21.285 26.5 21.9381 26.5 22.6875Z" fill="#DB4D4D"/>
<path d="M20.3125 43.3125H17.5625V45.375H20.3125V43.3125Z" fill="#E87570"/>
<path d="M20.3125 43.3125V45.375H17.5625V44.6875H18.25C18.6295 44.6875 18.9375 44.3795 18.9375 44V43.3125H20.3125ZM20.3125 39.1875V41.25H17.5625V40.5625H18.25C18.6295 40.5625 18.9375 40.2545 18.9375 39.875V39.1875H20.3125ZM20.3125 35.0625V37.125H17.5625V36.4375H18.25C18.6295 36.4375 18.9375 36.1295 18.9375 35.75V35.0625H20.3125ZM15.5 43.3125V45.375H12.75V44.6875H13.4375C13.817 44.6875 14.125 44.3795 14.125 44V43.3125H15.5ZM15.5 39.1875V41.25H12.75V40.5625H13.4375C13.817 40.5625 14.125 40.2545 14.125 39.875V39.1875H15.5ZM15.5 35.0625V37.125H12.75V36.4375H13.4375C13.817 36.4375 14.125 36.1295 14.125 35.75V35.0625H15.5Z" fill="#DB4D4D"/>
<path d="M20.3125 26.125V28.1875H18.9375H17.5625V26.125H18.9375H20.3125Z" fill="#EBE8ED"/>
<path d="M20.3125 26.125V28.1875H19.625H18.9375V26.125H19.625H20.3125Z" fill="#CBC1D3"/>
<path d="M15.5 24.0625V26.125H14.125H12.75V24.0625H14.125H15.5Z" fill="#EBE8ED"/>
<path d="M15.5 24.0625V26.125H14.8125H14.125V24.0625H14.8125H15.5Z" fill="#CBC1D3"/>
<path d="M53.3125 17.1875V48.8125H10.6875V45.375H43.6875C47.1044 45.375 49.875 42.6044 49.875 39.1875V38.665C50.755 36.9669 51.25 35.0419 51.25 33C51.25 30.9581 50.755 29.0331 49.875 27.335V17.1875H53.3125Z" fill="#DBA34C"/>
<path d="M51.25 33C51.25 39.8337 45.7087 45.375 38.875 45.375C35.465 45.375 32.385 43.9931 30.1437 41.7725C31.9175 42.7556 33.9525 43.3125 36.125 43.3125C42.9587 43.3125 48.5 37.7712 48.5 30.9375C48.5 27.5137 47.1044 24.4062 44.8562 22.165C48.6719 24.2756 51.25 28.3387 51.25 33Z" fill="#6D6868"/>
<path d="M43.4737 23.2767C43.3018 24.002 44.9353 24.5775 45.1079 23.8508C45.2797 23.1255 43.6462 22.55 43.4737 23.2767ZM42.6528 22.9515C42.5669 23.3145 43.2434 23.4747 43.3293 23.1117C43.4152 22.7487 42.7387 22.5878 42.6528 22.9515Z" fill="#B5B5B5"/>
<path d="M10.6875 49.5H53.3125C53.692 49.5 54 49.192 54 48.8125V17.1875C54 16.808 53.692 16.5 53.3125 16.5H23.75C23.3705 16.5 23.0625 16.808 23.0625 17.1875C23.0625 17.567 23.3705 17.875 23.75 17.875H52.625V48.125H11.375V17.875H21.6875C22.067 17.875 22.375 17.567 22.375 17.1875C22.375 16.808 22.067 16.5 21.6875 16.5H10.6875C10.308 16.5 10 16.808 10 17.1875V48.8125C10 49.192 10.308 49.5 10.6875 49.5Z" fill="#472B3C"/>
<path d="M38.875 30.9375C37.7379 30.9375 36.8125 31.8629 36.8125 33C36.8125 34.1371 37.7379 35.0625 38.875 35.0625C40.0121 35.0625 40.9375 34.1371 40.9375 33C40.9375 31.8629 40.0121 30.9375 38.875 30.9375ZM38.875 33.6875C38.4962 33.6875 38.1875 33.3788 38.1875 33C38.1875 32.6212 38.4962 32.3125 38.875 32.3125C39.2538 32.3125 39.5625 32.6212 39.5625 33C39.5625 33.3788 39.2538 33.6875 38.875 33.6875ZM16.1875 24.0625C16.1875 23.683 15.8795 23.375 15.5 23.375H14.8125V20.625C14.8125 20.2455 14.5045 19.9375 14.125 19.9375C13.7455 19.9375 13.4375 20.2455 13.4375 20.625V23.375H12.75C12.3705 23.375 12.0625 23.683 12.0625 24.0625V26.125C12.0625 26.5045 12.3705 26.8125 12.75 26.8125H13.4375V33C13.4375 33.3795 13.7455 33.6875 14.125 33.6875C14.5045 33.6875 14.8125 33.3795 14.8125 33V26.8125H15.5C15.8795 26.8125 16.1875 26.5045 16.1875 26.125V24.0625ZM14.8125 25.4375H13.4375V24.75H14.8125V25.4375ZM16.1875 35.0625C16.1875 34.683 15.8795 34.375 15.5 34.375H12.75C12.3705 34.375 12.0625 34.683 12.0625 35.0625V37.125C12.0625 37.5045 12.3705 37.8125 12.75 37.8125H15.5C15.8795 37.8125 16.1875 37.5045 16.1875 37.125V35.0625ZM14.8125 36.4375H13.4375V35.75H14.8125V36.4375ZM16.1875 39.1875C16.1875 38.808 15.8795 38.5 15.5 38.5H12.75C12.3705 38.5 12.0625 38.808 12.0625 39.1875V41.25C12.0625 41.6295 12.3705 41.9375 12.75 41.9375H15.5C15.8795 41.9375 16.1875 41.6295 16.1875 41.25V39.1875ZM14.8125 40.5625H13.4375V39.875H14.8125V40.5625ZM15.5 42.625H12.75C12.3705 42.625 12.0625 42.933 12.0625 43.3125V45.375C12.0625 45.7545 12.3705 46.0625 12.75 46.0625H15.5C15.8795 46.0625 16.1875 45.7545 16.1875 45.375V43.3125C16.1875 42.933 15.8795 42.625 15.5 42.625ZM14.8125 44.6875H13.4375V44H14.8125V44.6875ZM21 35.0625C21 34.683 20.692 34.375 20.3125 34.375H17.5625C17.183 34.375 16.875 34.683 16.875 35.0625V37.125C16.875 37.5045 17.183 37.8125 17.5625 37.8125H20.3125C20.692 37.8125 21 37.5045 21 37.125V35.0625ZM19.625 36.4375H18.25V35.75H19.625V36.4375ZM21 39.1875C21 38.808 20.692 38.5 20.3125 38.5H17.5625C17.183 38.5 16.875 38.808 16.875 39.1875V41.25C16.875 41.6295 17.183 41.9375 17.5625 41.9375H20.3125C20.692 41.9375 21 41.6295 21 41.25V39.1875ZM19.625 40.5625H18.25V39.875H19.625V40.5625ZM20.3125 42.625H17.5625C17.183 42.625 16.875 42.933 16.875 43.3125V45.375C16.875 45.7545 17.183 46.0625 17.5625 46.0625H20.3125C20.692 46.0625 21 45.7545 21 45.375V43.3125C21 42.933 20.692 42.625 20.3125 42.625ZM19.625 44.6875H18.25V44H19.625V44.6875ZM21 26.125C21 25.7455 20.692 25.4375 20.3125 25.4375H19.625V20.625C19.625 20.2455 19.317 19.9375 18.9375 19.9375C18.558 19.9375 18.25 20.2455 18.25 20.625V25.4375H17.5625C17.183 25.4375 16.875 25.7455 16.875 26.125V28.1875C16.875 28.567 17.183 28.875 17.5625 28.875H18.25V33C18.25 33.3795 18.558 33.6875 18.9375 33.6875C19.317 33.6875 19.625 33.3795 19.625 33V28.875H20.3125C20.692 28.875 21 28.567 21 28.1875V26.125ZM19.625 27.5H18.25V26.8125H19.625V27.5Z" fill="#472B3C"/>
<path d="M24.4375 19.9375C22.9209 19.9375 21.6875 21.1709 21.6875 22.6875C21.6875 24.2041 22.9209 25.4375 24.4375 25.4375C24.7991 25.4375 25.1484 25.3591 25.4791 25.2223L27.0926 27.3735C26.2573 29.1143 25.8125 31.0475 25.8125 33C25.8125 40.2029 31.6721 46.0625 38.875 46.0625C46.0779 46.0625 51.9375 40.2029 51.9375 33C51.9375 25.7971 46.0779 19.9375 38.875 19.9375C35.8912 19.9375 32.9749 20.9687 30.6642 22.8408C30.3692 23.0801 30.3239 23.5125 30.5631 23.8074C30.8017 24.1024 31.2355 24.1477 31.5297 23.9085C33.6266 22.2104 36.1663 21.3125 38.875 21.3125C45.3196 21.3125 50.5625 26.5554 50.5625 33C50.5625 39.4446 45.3196 44.6875 38.875 44.6875C32.4304 44.6875 27.1875 39.4446 27.1875 33C27.1875 31.4992 27.4824 30.0114 28.0379 28.6344L29.3662 30.4054C29.2947 30.5724 29.25 30.7519 29.25 30.9375V31.625C29.25 32.3833 29.8667 33 30.625 33H34.0625C34.8208 33 35.4375 32.3833 35.4375 31.625V30.9375C35.4375 30.1792 34.8208 29.5625 34.0625 29.5625H30.625C30.5734 29.5625 30.5233 29.5811 30.4717 29.5872L28.7179 27.2484C29.0334 26.6922 29.3834 26.1539 29.7849 25.6561C30.0234 25.3605 29.9774 24.9274 29.6824 24.6895C29.3875 24.4516 28.9537 24.497 28.7158 24.7919C28.392 25.1934 28.0991 25.6197 27.8248 26.0562L26.5832 24.4008C26.9696 23.9202 27.1875 23.3234 27.1875 22.6875C27.1875 21.1709 25.9541 19.9375 24.4375 19.9375ZM24.4375 24.0625C23.6792 24.0625 23.0625 23.4458 23.0625 22.6875C23.0625 21.9292 23.6792 21.3125 24.4375 21.3125C25.1958 21.3125 25.8125 21.9292 25.8125 22.6875C25.8125 22.8759 25.7685 23.0553 25.6977 23.2217L24.9875 22.275C24.7599 21.9725 24.3296 21.9099 24.025 22.1375C23.7211 22.3651 23.6599 22.7961 23.8875 23.1L24.5977 24.0467C24.5447 24.0536 24.4946 24.0625 24.4375 24.0625ZM34.0604 31.625H30.625V30.9375H34.0625L34.0604 31.625Z" fill="#472B3C"/>
<path d="M29.9843 33.9357C29.9444 33.5583 29.6082 33.2819 29.2287 33.3238C28.8513 33.3637 28.577 33.702 28.6168 34.0794C29.1716 39.3676 33.6638 43.3139 38.8785 43.3139C39.2339 43.3139 39.5935 43.296 39.9544 43.2582C41.8106 43.0623 43.5844 42.3645 45.0838 41.2397C45.3877 41.0121 45.4489 40.5811 45.2213 40.2772C44.9938 39.974 44.5627 39.9115 44.2588 40.1397C42.9581 41.1153 41.4195 41.7203 39.8114 41.8901C34.9075 42.3961 30.4978 38.8314 29.9843 33.9357ZM36.3498 23.0038C34.1141 23.5648 32.1801 24.8208 30.7577 26.6358C30.5233 26.9349 30.5762 27.3666 30.8746 27.6011C31.0004 27.7001 31.1496 27.7475 31.2981 27.7475C31.5016 27.7475 31.7037 27.6575 31.8398 27.4842C33.0718 25.9119 34.7473 24.8236 36.684 24.3375C37.0525 24.2454 37.2759 23.8721 37.1838 23.5036C37.091 23.1351 36.7176 22.9116 36.3498 23.0038Z" fill="#472B3C"/>
</svg>
