<svg width="64" height="64" viewBox="0 0 64 64" fill="none" xmlns="http://www.w3.org/2000/svg">
<path d="M0 13C0 5.8203 5.8203 0 13 0H51C58.1797 0 64 5.8203 64 13V51C64 58.1797 58.1797 64 51 64H13C5.8203 64 0 58.1797 0 51V13Z" fill="#AD6403"/>
<g clip-path="url(#clip0_1250_10188)">
<path d="M29.8383 23.7729L29.8382 23.7728C28.7546 23.1257 28.1063 21.9871 28.1063 20.7319C28.1063 20.4381 28.1474 20.1588 28.2124 19.8929L28.2781 19.624L28.539 19.7167C29.6859 20.1243 30.5986 20.563 31.0705 20.7906L31.0708 20.7908C31.2371 20.8713 31.366 20.9267 31.4803 20.9652L31.491 20.9688L31.5013 20.9734C31.5527 20.996 31.5914 21.0064 31.6216 21.0095C31.6311 21.0082 31.6431 21.0071 31.6569 21.0071C31.6706 21.0071 31.6825 21.0082 31.692 21.0095C31.7215 21.0063 31.7602 20.9958 31.8149 20.9723L31.8241 20.9684L31.8336 20.9652C31.9474 20.9268 32.0761 20.8709 32.2427 20.7906L29.8383 23.7729ZM29.8383 23.7729C30.9394 24.4297 32.3729 24.4306 33.4736 23.7728L29.8383 23.7729ZM31.5758 15.9551C31.2547 15.8004 30.7494 15.5598 30.1163 15.2944V12.915C30.1163 12.0659 30.8072 11.375 31.6562 11.375C32.0667 11.375 32.4531 11.5352 32.7446 11.8267C33.0361 12.1182 33.1963 12.5046 33.1963 12.915L31.5758 15.9551ZM31.5758 15.9551C31.6109 15.9716 31.6267 15.9792 31.6562 15.9936L31.5758 15.9551ZM51.3727 30.5516L51.4291 30.7237H51.6102H52.625C52.867 30.7237 53.0625 30.9197 53.0625 31.1612C53.0625 34.2001 50.5901 36.6725 47.5513 36.6725C44.5124 36.6725 42.04 34.2001 42.04 31.1612C42.04 30.9197 42.2355 30.7237 42.4775 30.7237H43.4847H43.6657L43.7222 30.5517L46.884 20.9226L46.9744 20.6473L46.6888 20.5982C45.2237 20.3465 43.7769 19.7471 42.9008 19.3825L42.9007 19.3824C41.0066 18.5955 38.7151 18.5874 36.1077 19.3028L35.8692 19.3682L35.932 19.6074C36.0275 19.971 36.0812 20.3456 36.0812 20.7319C36.0812 22.1533 35.4134 23.445 34.2809 24.2773L34.1638 24.3634L34.1806 24.5078C34.6273 28.3313 34.9044 32.4401 34.8369 35.9963C34.8032 37.7744 34.6834 39.4097 34.4571 40.7996C34.2302 42.1936 33.8989 43.3221 33.4531 44.0993L33.2383 44.4737H33.6699H38.9025C39.1446 44.4737 39.34 44.6691 39.34 44.9112V47.3794V47.6294H39.59H43.0687C43.3109 47.6294 43.5062 47.8248 43.5062 48.0669V50.8375C43.5062 51.0796 43.3109 51.275 43.0687 51.275H20.2437C20.0022 51.275 19.8062 51.0795 19.8062 50.8375V48.0669C19.8062 47.8249 20.0022 47.6294 20.2437 47.6294H23.7225H23.9725V47.3794V44.9112C23.9725 44.6693 24.1684 44.4737 24.41 44.4737H29.6419H30.0734L29.8588 44.0994C29.4132 43.3223 29.0822 42.194 28.8553 40.8C28.6292 39.4102 28.5094 37.7749 28.4757 35.9968C28.4081 32.4406 28.6848 28.3316 29.1312 24.5077L29.148 24.3633L29.0309 24.2773C27.8978 23.4451 27.2306 22.1533 27.2306 20.7319C27.2306 20.3449 27.2843 19.971 27.3798 19.6074L27.4426 19.3683L27.2042 19.3028C24.596 18.5867 22.3052 18.5955 20.4111 19.3824L20.4111 19.3825C19.5342 19.7471 18.0888 20.3458 16.6237 20.5975L16.3381 20.6466L16.4285 20.9219L19.5896 30.5517L19.6461 30.7237H19.8271H20.8419C21.0833 30.7237 21.2794 30.9198 21.2794 31.1612C21.2794 34.1998 18.8038 36.6725 15.7613 36.6725C12.7224 36.6725 10.25 34.2001 10.25 31.1612C10.25 30.9198 10.4461 30.7237 10.6875 30.7237H11.7023H11.8834L11.9398 30.5516L15.0645 21.0125L15.1614 20.7169L14.8518 20.6859C14.6424 20.665 14.4404 20.6312 14.2466 20.5817L14.2162 20.574H14.2055C13.7628 20.4951 12.9367 20.3426 12.218 19.9538C11.4955 19.563 10.9169 18.9559 10.9169 17.9606C10.9169 17.0402 11.3187 16.5451 11.6409 16.29L11.6409 16.29C12.1209 15.9098 12.7526 15.7915 13.3127 15.7822C13.831 15.7736 14.2576 15.8588 14.3805 15.8866C14.3918 15.8909 14.4057 15.8952 14.4218 15.8985L14.4218 15.8986L14.4297 15.8999C14.4338 15.9006 14.4377 15.9011 14.4414 15.9016C15.3407 16.1374 16.4736 15.9548 17.4937 15.6734C18.5248 15.3888 19.4881 14.9889 20.0621 14.7506L20.0756 14.745L20.0758 14.7449C22.9267 13.5581 26.1579 14.1349 28.6594 15.0013L28.9913 15.1162V14.7651V12.915C28.9913 11.4457 30.1869 10.25 31.6562 10.25C32.3674 10.25 33.0353 10.5267 33.5399 11.0313C34.0445 11.5359 34.3213 12.2039 34.3213 12.915V14.7651V15.1161L34.653 15.0013C37.154 14.1363 40.3858 13.5581 43.2367 14.7449L43.2367 14.745L43.2439 14.7479C43.8169 14.9863 44.7837 15.3884 45.8187 15.6741C46.8382 15.9555 47.9705 16.1379 48.869 15.902C48.8836 15.9002 48.901 15.8968 48.9201 15.8905C48.9236 15.8893 48.9271 15.8881 48.9304 15.8868C49.0527 15.8592 49.48 15.7736 49.9995 15.7822C50.5596 15.7915 51.1912 15.9098 51.6717 16.29L51.6718 16.2901C51.9943 16.5451 52.3956 17.0407 52.3956 17.9606C52.3956 18.9563 51.8171 19.5634 51.0948 19.9541C50.3762 20.3427 49.55 20.4952 49.107 20.574H49.0952L49.0645 20.5819C48.8716 20.6318 48.67 20.6649 48.46 20.6859L48.1504 20.7169L48.2473 21.0125L51.3727 30.5516ZM14.477 15.9037C14.4777 15.9037 14.4769 15.9037 14.4759 15.9036L14.477 15.9037ZM51.8268 16.094C50.7419 15.2353 49.0418 15.6031 48.8513 15.6485L49.1299 20.8238C50.0012 20.669 52.6456 20.199 52.6456 17.9606C52.6456 16.9541 52.2008 16.3896 51.8268 16.094ZM33.2929 15.5243L33.4463 15.46V15.2937V12.915C33.4463 12.438 33.2596 11.9881 32.9213 11.6499C32.5831 11.3117 32.1332 11.125 31.6562 11.125C30.6691 11.125 29.8663 11.9279 29.8663 12.915V15.2944V15.4607L30.0196 15.525C30.6469 15.7879 31.1477 16.0264 31.4673 16.1804L31.4694 16.1813C31.5036 16.1974 31.5183 16.2045 31.5465 16.2183L31.6576 16.2725L31.7681 16.2172C31.786 16.2083 31.7973 16.2029 31.8145 16.1947C31.8226 16.1908 31.8321 16.1863 31.8442 16.1805L31.8447 16.1803C32.1634 16.0264 32.6642 15.7879 33.2929 15.5243ZM12.9112 30.3959L12.8038 30.7237H13.1487H18.3799H18.7251L18.6175 30.3958L15.9995 22.4201L15.7617 21.6958L15.5244 22.4202L12.9112 30.3959ZM38.215 47.6294H38.465V47.3794V45.5987V45.3487H38.215H25.0975H24.8475V45.5987V47.3794V47.6294H25.0975H38.215ZM31.7394 21.0202L31.7377 21.0197C31.7392 21.0202 31.7404 21.0205 31.7394 21.0202ZM47.7881 22.4202L47.5508 21.6958L47.313 22.4201L44.695 30.3958L44.5874 30.7237H44.9326H50.1637H50.5087L50.4013 30.3959L47.7881 22.4202Z" fill="#7E4902" stroke="#342005" stroke-width="0.5"/>
</g>
<defs>
<clipPath id="clip0_1250_10188">
<rect width="44" height="44" fill="white" transform="translate(10 9)"/>
</clipPath>
</defs>
</svg>
