<svg width="64" height="64" viewBox="0 0 64 64" fill="none" xmlns="http://www.w3.org/2000/svg">
<path d="M0 13C0 5.8203 5.8203 0 13 0H51C58.1797 0 64 5.8203 64 13V51C64 58.1797 58.1797 64 51 64H13C5.8203 64 0 58.1797 0 51V13Z" fill="#1A1D30"/>
<path d="M50.066 43.2549L38.7947 31.9616L39.0623 31.6921C39.1696 31.5844 39.2486 31.4519 39.2921 31.3063C39.3357 31.1607 39.3425 31.0066 39.312 30.8577C39.2815 30.7088 39.2146 30.5698 39.1173 30.453C39.02 30.3363 38.8953 30.2455 38.7543 30.1887L37.4307 29.6571L38.6847 28.4012C39.6802 27.4039 40.2503 26.0252 40.2503 24.6154C40.2503 23.2056 39.6802 21.8269 38.6847 20.8296L33.0288 15.1609C31.0397 13.1681 27.461 13.1681 25.4718 15.1609L15.2327 25.4221C14.2353 26.4194 13.667 27.7981 13.667 29.2079C13.667 30.6177 14.2372 31.9964 15.2327 32.9937L20.8885 38.6624C21.884 39.6579 23.2608 40.2299 24.667 40.2299C26.0732 40.2299 27.45 39.6579 28.4437 38.6624L29.6995 37.4047L30.2312 38.7302C30.2874 38.8709 30.3776 38.9956 30.4937 39.0929C30.6099 39.1902 30.7484 39.2572 30.8968 39.2879C31.0452 39.3186 31.1989 39.312 31.3441 39.2688C31.4893 39.2255 31.6216 39.1469 31.729 39.0401L31.9985 38.7706L36.8513 43.6344C36.9365 43.7198 37.0376 43.7875 37.149 43.8338C37.2603 43.88 37.3797 43.9039 37.5003 43.9039H38.417C38.4168 44.0244 38.4403 44.1438 38.4862 44.2552C38.5322 44.3667 38.5997 44.4679 38.6848 44.5533C38.77 44.6386 38.8711 44.7063 38.9824 44.7524C39.0938 44.7986 39.2131 44.8224 39.3337 44.8224H41.167V46.6594C41.1668 46.7799 41.1903 46.8993 41.2362 47.0107C41.2822 47.1222 41.3497 47.2234 41.4348 47.3088C41.52 47.3941 41.6211 47.4618 41.7324 47.5079C41.8438 47.5541 41.9631 47.5779 42.0837 47.5779V48.4964C42.0837 48.7402 42.1808 48.973 42.3513 49.1454L43.268 50.0639C43.3531 50.1493 43.4543 50.217 43.5656 50.2633C43.677 50.3095 43.7964 50.3334 43.917 50.3334H49.417C49.5375 50.3334 49.6569 50.3096 49.7682 50.2634C49.8795 50.2173 49.9807 50.1496 50.0658 50.0643C50.151 49.9789 50.2184 49.8777 50.2644 49.7662C50.3104 49.6548 50.3339 49.5354 50.3337 49.4149V43.9039C50.3339 43.6606 50.2376 43.4272 50.066 43.2549ZM29.9763 23.5594L23.5597 29.9761C23.364 30.1626 23.104 30.2666 22.8337 30.2666C22.5633 30.2666 22.3034 30.1626 22.1077 29.9761C22.0112 29.8812 21.9345 29.768 21.8822 29.6432C21.8299 29.5184 21.8029 29.3845 21.8029 29.2491C21.8029 29.1138 21.8299 28.9798 21.8822 28.855C21.9345 28.7302 22.0112 28.6171 22.1077 28.5222L28.5243 22.1056C28.6666 21.9581 28.8499 21.857 29.0505 21.8153C29.2511 21.7737 29.4596 21.7934 29.6488 21.872C29.838 21.9505 29.9991 22.0843 30.1112 22.2558C30.2232 22.4273 30.281 22.6286 30.277 22.8334C30.277 23.1084 30.1688 23.3687 29.9745 23.5612L29.9763 23.5594Z" fill="#151515"/>
<path d="M48.4995 48.5H44.2957L43.9162 48.1205V46.6667C43.9162 46.4236 43.8196 46.1904 43.6477 46.0185C43.4758 45.8466 43.2426 45.75 42.9995 45.75V43.9167C42.9995 43.6736 42.9029 43.4404 42.731 43.2685C42.5591 43.0966 42.326 43 42.0829 43H40.2495C40.2495 42.7569 40.1529 42.5237 39.981 42.3518C39.8091 42.1799 39.576 42.0833 39.3329 42.0833H37.879L32.6449 36.8492C32.4845 36.688 32.2698 36.5923 32.0427 36.5808C31.8156 36.5693 31.5924 36.6427 31.4165 36.7868L31.1104 36.0205L36.02 31.1108L36.7864 31.417C36.6426 31.5931 36.5694 31.8162 36.5809 32.0432C36.5925 32.2701 36.6879 32.4847 36.8487 32.6453L48.4995 44.2962V48.5Z" fill="#C7ADEB"/>
<path d="M37.39 22.1843L31.7323 16.5285C31.0778 15.874 30.174 15.5 29.25 15.5C28.326 15.5 27.4222 15.874 26.7677 16.5267L16.5285 26.7695C15.874 27.4222 15.5 28.326 15.5 29.25C15.5 30.174 15.874 31.0778 16.5267 31.7323L22.1843 37.3882C23.4915 38.6953 25.8418 38.6953 27.149 37.3882L37.3882 27.149C38.0427 26.4945 38.4167 25.5907 38.4167 24.6667C38.4167 23.7427 38.0427 22.8388 37.39 22.1843ZM29.976 23.5593L23.5593 29.976C23.3636 30.1625 23.1037 30.2665 22.8333 30.2665C22.563 30.2665 22.303 30.1625 22.1073 29.976C22.0108 29.8811 21.9342 29.768 21.8819 29.6432C21.8295 29.5184 21.8026 29.3844 21.8026 29.2491C21.8026 29.1138 21.8295 28.9798 21.8819 28.855C21.9342 28.7302 22.0108 28.617 22.1073 28.5222L28.524 22.1055C28.6663 21.9581 28.8496 21.8569 29.0502 21.8153C29.2508 21.7736 29.4593 21.7933 29.6485 21.8719C29.8377 21.9505 29.9988 22.0842 30.1109 22.2557C30.2229 22.4272 30.2807 22.6285 30.2767 22.8333C30.2767 23.1083 30.1685 23.3687 29.9742 23.5612L29.976 23.5593Z" fill="#7B61FF"/>
<path opacity="0.1" d="M37.39 24.399L27.149 34.6381C25.8418 35.9453 23.4915 35.9453 22.1843 34.6381L16.5285 28.9823C16.2125 28.6641 15.9604 28.2882 15.786 27.875C15.6027 28.3076 15.5 28.7751 15.5 29.25C15.5 30.174 15.874 31.0778 16.5267 31.7323L22.1843 37.3881C23.4915 38.6953 25.8418 38.6953 27.149 37.3881L37.3882 27.149C38.0427 26.4945 38.4167 25.5906 38.4167 24.6666C38.4167 24.1918 38.314 23.7243 38.1307 23.2916C37.9547 23.7023 37.7072 24.08 37.3882 24.399H37.39Z" fill="#010101"/>
<path d="M31.274 20.8094C30.7368 20.2733 30.0089 19.9723 29.25 19.9723C28.4911 19.9723 27.7632 20.2733 27.226 20.8094L20.8093 27.226C20.4114 27.627 20.1408 28.1368 20.0317 28.6911C19.9226 29.2454 19.9797 29.8196 20.196 30.3416C20.4123 30.8635 20.7781 31.3099 21.2473 31.6245C21.7166 31.9392 22.2684 32.1081 22.8333 32.11C23.5667 32.11 24.3 31.8314 24.8573 31.274L31.274 24.8574C31.81 24.3202 32.1111 23.5923 32.1111 22.8334C32.1111 22.0745 31.81 21.3466 31.274 20.8094ZM29.976 23.5594L23.5593 29.976C23.3636 30.1625 23.1037 30.2666 22.8333 30.2666C22.563 30.2666 22.303 30.1625 22.1073 29.976C22.0108 29.8812 21.9342 29.768 21.8819 29.6432C21.8295 29.5184 21.8026 29.3844 21.8026 29.2491C21.8026 29.1138 21.8295 28.9798 21.8819 28.855C21.9342 28.7302 22.0108 28.6171 22.1073 28.5222L28.524 22.1055C28.6663 21.9581 28.8496 21.857 29.0502 21.8153C29.2508 21.7736 29.4593 21.7934 29.6485 21.8719C29.8377 21.9505 29.9988 22.0843 30.1109 22.2558C30.2229 22.4273 30.2807 22.6285 30.2767 22.8334C30.2767 23.1084 30.1685 23.3687 29.9742 23.5612L29.976 23.5594Z" fill="#151515"/>
<path opacity="0.1" d="M31.1112 36.0205L31.4174 36.7868C31.5932 36.6427 31.8165 36.5693 32.0436 36.5808C32.2707 36.5923 32.4853 36.688 32.6457 36.8492L37.8799 42.0833H39.3337C39.5768 42.0833 39.81 42.1799 39.9819 42.3518C40.1538 42.5237 40.2504 42.7569 40.2504 43H42.0837C42.3268 43 42.56 43.0966 42.7319 43.2685C42.9038 43.4404 43.0004 43.6736 43.0004 43.9167V45.75C43.2435 45.75 43.4766 45.8466 43.6486 46.0185C43.8205 46.1904 43.917 46.4236 43.917 46.6667V48.1205L44.2965 48.5H48.5004L33.566 33.5657L31.1094 36.0205H31.1112Z" fill="#010101"/>
</svg>
