<svg width="64" height="64" viewBox="0 0 64 64" fill="none" xmlns="http://www.w3.org/2000/svg">
<rect width="64" height="64" rx="13" fill="#000001"/>
<g clip-path="url(#clip0_2990_13575)">
<path d="M15.2631 41.31C15.4861 42.8367 16.274 44.2241 17.4709 45.1978C18.661 46.1711 20.1516 46.7019 21.6891 46.7C22.0101 46.7004 22.3179 46.8281 22.5449 47.0551C22.772 47.2821 22.8997 47.59 22.9001 47.911V49.997C22.9016 50.4302 23.0361 50.8524 23.2853 51.2067C23.5346 51.561 23.8866 51.8302 24.2937 51.978C25.5873 52.4442 27.9743 53 32 53C36.0257 53 38.4128 52.4442 39.7078 51.978C40.1146 51.8299 40.4663 51.5606 40.7152 51.2063C40.9642 50.8521 41.0985 50.43 41.1001 49.997V47.911C41.1002 47.5899 41.2279 47.282 41.4549 47.0549C41.682 46.8278 41.9899 46.7002 42.3111 46.7C43.8504 46.721 45.346 46.1883 46.5255 45.199C47.705 44.2096 48.4898 42.8295 48.737 41.31C48.9201 40.0446 48.7136 38.7535 48.1449 37.6084C49.5885 34.8343 50.2929 31.735 50.1902 28.6095C50.0876 25.4839 49.1813 22.4375 47.5588 19.7641C45.9362 17.0907 43.6522 14.8805 40.927 13.3466C38.2018 11.8127 35.1273 11.0069 32 11.0069C28.8728 11.0069 25.7983 11.8127 23.0731 13.3466C20.3479 14.8805 18.0639 17.0907 16.4413 19.7641C14.8188 22.4375 13.9125 25.4839 13.8099 28.6095C13.7072 31.735 14.4116 34.8343 15.8553 37.6084C15.2866 38.7535 15.08 40.0446 15.2631 41.31ZM32.7001 15.9C32.7001 16.0385 32.659 16.1738 32.5821 16.2889C32.5052 16.404 32.3958 16.4937 32.2679 16.5467C32.14 16.5997 31.9993 16.6136 31.8635 16.5866C31.7277 16.5596 31.603 16.4929 31.5051 16.395C31.4072 16.2971 31.3405 16.1724 31.3135 16.0366C31.2865 15.9008 31.3004 15.76 31.3533 15.6321C31.4063 15.5042 31.496 15.3949 31.6112 15.318C31.7263 15.2411 31.8616 15.2 32 15.2C32.1857 15.2 32.3638 15.2738 32.495 15.405C32.6263 15.5363 32.7001 15.7144 32.7001 15.9ZM15.2001 29.2C15.1982 26.7489 15.7362 24.3274 16.7758 22.1076C16.9139 22.4951 17.134 22.8483 17.4212 23.1429L18.9892 24.7109C19.1195 24.8405 19.2229 24.9946 19.2935 25.1644C19.364 25.3341 19.4002 25.5162 19.4001 25.7V27.2288C18.933 27.3939 18.5394 27.7189 18.2887 28.1461C18.0381 28.5734 17.9465 29.0756 18.0303 29.5638C18.1141 30.0521 18.3677 30.495 18.7465 30.8143C19.1252 31.1336 19.6047 31.3087 20.1 31.3087C20.5954 31.3087 21.0749 31.1336 21.4536 30.8143C21.8324 30.495 22.086 30.0521 22.1698 29.5638C22.2536 29.0756 22.162 28.5734 21.9114 28.1461C21.6607 27.7189 21.2671 27.3939 20.8001 27.2288V25.7C20.8009 25.3322 20.7287 24.968 20.5878 24.6283C20.4468 24.2886 20.2399 23.9803 19.979 23.7211L18.4159 22.158C18.1508 21.8922 18.0013 21.5324 18.0001 21.157V19.9278C19.4658 17.7141 21.4353 15.8793 23.7472 14.5738C26.0591 13.2683 28.6474 12.5294 31.3001 12.4175V13.9288C30.833 14.0939 30.4394 14.4189 30.1887 14.8461C29.9381 15.2734 29.8465 15.7756 29.9303 16.2638C30.0141 16.7521 30.2677 17.195 30.6465 17.5143C31.0252 17.8336 31.5047 18.0087 32 18.0087C32.4954 18.0087 32.9749 17.8336 33.3536 17.5143C33.7324 17.195 33.986 16.7521 34.0698 16.2638C34.1536 15.7756 34.062 15.2734 33.8114 14.8461C33.5607 14.4189 33.1671 14.0939 32.7001 13.9288V12.4175C35.3527 12.5294 37.941 13.2683 40.2529 14.5738C42.5648 15.8793 44.5343 17.7141 46 19.9278V21.157C45.9992 21.5301 45.8516 21.8879 45.5891 22.1531L44.0212 23.7211C43.7602 23.9803 43.5533 24.2886 43.4123 24.6283C43.2714 24.968 43.1992 25.3322 43.2001 25.7V27.2288C42.733 27.3939 42.3394 27.7189 42.0887 28.1461C41.8381 28.5734 41.7465 29.0756 41.8303 29.5638C41.9141 30.0521 42.1677 30.495 42.5465 30.8143C42.9252 31.1336 43.4047 31.3087 43.9001 31.3087C44.3954 31.3087 44.8749 31.1336 45.2536 30.8143C45.6324 30.495 45.886 30.0521 45.9698 29.5638C46.0536 29.0756 45.962 28.5734 45.7114 28.1461C45.4607 27.7189 45.0671 27.3939 44.6001 27.2288V25.7C44.5999 25.5162 44.6361 25.3341 44.7066 25.1644C44.7772 24.9946 44.8806 24.8405 45.011 24.7109L46.5839 23.138C46.8691 22.8447 47.0876 22.4932 47.2243 22.1076C48.3388 24.4959 48.8751 27.113 48.79 29.7471C48.7049 32.3812 48.0006 34.9583 46.7344 37.2696C46.6761 37.3755 46.6463 37.4946 46.6478 37.6155C46.6492 37.7363 46.682 37.8547 46.7428 37.9591C47.2941 38.9128 47.5074 40.0247 47.3483 41.1147C47.3255 41.2725 47.2946 41.4291 47.2559 41.5837L43.0461 42.5161C42.877 42.553 42.7275 42.6512 42.6266 42.7918C42.5257 42.9324 42.4804 43.1054 42.4995 43.2774C42.5187 43.4495 42.6009 43.6083 42.7302 43.7233C42.8596 43.8382 43.027 43.9012 43.2001 43.9C43.2511 43.8998 43.302 43.8944 43.3519 43.8839L46.5146 43.1839C46.0312 43.8431 45.3986 44.3786 44.6686 44.7465C43.9387 45.1144 43.132 45.3043 42.3146 45.3007C41.9715 45.3004 41.6317 45.3677 41.3147 45.4988C40.9976 45.6298 40.7095 45.822 40.4667 46.0644C40.2239 46.3068 40.0313 46.5946 39.8997 46.9115C39.7682 47.2283 39.7003 47.5679 39.7001 47.911V49.997C39.7008 50.1427 39.6561 50.285 39.5722 50.4041C39.4882 50.5232 39.3692 50.6131 39.2318 50.6613C38.4729 50.9215 37.6927 51.1146 36.9001 51.2381V49.5C36.9001 49.3144 36.8263 49.1363 36.695 49.005C36.5638 48.8738 36.3857 48.8 36.2001 48.8C36.0144 48.8 35.8363 48.8738 35.7051 49.005C35.5738 49.1363 35.5 49.3144 35.5 49.5V51.4278C34.6957 51.5132 33.7689 51.5748 32.7001 51.5937V49.5C32.7001 49.3144 32.6263 49.1363 32.495 49.005C32.3638 48.8738 32.1857 48.8 32 48.8C31.8144 48.8 31.6364 48.8738 31.5051 49.005C31.3738 49.1363 31.3001 49.3144 31.3001 49.5V51.5937C30.2311 51.5748 29.3043 51.5132 28.5 51.4278V49.5C28.5 49.3144 28.4263 49.1363 28.295 49.005C28.1637 48.8738 27.9857 48.8 27.8 48.8C27.6144 48.8 27.4363 48.8738 27.3051 49.005C27.1738 49.1363 27.1 49.3144 27.1 49.5V51.2381C26.3078 51.1147 25.5281 50.9217 24.7697 50.6613C24.632 50.6133 24.5127 50.5235 24.4285 50.4044C24.3443 50.2853 24.2994 50.1429 24.3 49.997V47.911C24.2991 47.2188 24.0237 46.5552 23.5343 46.0658C23.0448 45.5763 22.3812 45.3009 21.6891 45.3C20.4764 45.3016 19.3005 44.8834 18.3613 44.1163C18.0299 43.8439 17.7349 43.5301 17.4835 43.1825L20.6489 43.8825C20.6985 43.8934 20.7492 43.8993 20.8001 43.9C20.9728 43.9003 21.1396 43.8367 21.2683 43.7215C21.397 43.6062 21.4785 43.4474 21.4972 43.2757C21.5159 43.1039 21.4704 42.9314 21.3695 42.7911C21.2685 42.6509 21.1193 42.5529 20.9506 42.5161L16.7401 41.5837C16.7016 41.4297 16.671 41.2739 16.6484 41.1168C16.4889 40.0261 16.7023 38.9135 17.2539 37.9591C17.3146 37.8547 17.3474 37.7363 17.3488 37.6155C17.3503 37.4946 17.3205 37.3755 17.2623 37.2696C15.9086 34.7954 15.1994 32.0203 15.2001 29.2ZM20.8001 29.2C20.8001 29.3385 20.759 29.4738 20.6821 29.5889C20.6052 29.704 20.4958 29.7937 20.3679 29.8467C20.24 29.8997 20.0993 29.9136 19.9635 29.8866C19.8277 29.8596 19.703 29.7929 19.6051 29.695C19.5072 29.5971 19.4405 29.4724 19.4135 29.3366C19.3865 29.2008 19.4004 29.06 19.4533 28.9321C19.5063 28.8042 19.596 28.6949 19.7112 28.618C19.8263 28.5411 19.9616 28.5 20.1 28.5C20.2857 28.5 20.4637 28.5738 20.595 28.705C20.7263 28.8363 20.8001 29.0144 20.8001 29.2ZM44.6001 29.2C44.6001 29.3385 44.559 29.4738 44.4821 29.5889C44.4052 29.704 44.2958 29.7937 44.1679 29.8467C44.04 29.8997 43.8993 29.9136 43.7635 29.8866C43.6277 29.8596 43.503 29.7929 43.4051 29.695C43.3072 29.5971 43.2405 29.4724 43.2135 29.3366C43.1865 29.2008 43.2004 29.06 43.2533 28.9321C43.3063 28.8042 43.396 28.6949 43.5112 28.618C43.6263 28.5411 43.7616 28.5 43.9001 28.5C44.0857 28.5 44.2638 28.5738 44.395 28.705C44.5263 28.8363 44.6001 29.0144 44.6001 29.2Z" fill="#04FFFF"/>
<path d="M22.41 41.2911C23.1705 41.6232 23.9916 41.7938 24.8215 41.7923C25.9384 41.7821 27.0344 41.4888 28.0071 40.9399C28.9799 40.391 29.7975 39.6043 30.3837 38.6535C30.4945 38.4751 30.5655 38.2749 30.592 38.0665C30.6184 37.8581 30.5997 37.6465 30.537 37.446C30.4289 37.107 30.2029 36.8179 29.9 36.6312V23.4712C30.367 23.3061 30.7607 22.9812 31.0113 22.5539C31.262 22.1266 31.3535 21.6245 31.2697 21.1362C31.186 20.648 30.9323 20.205 30.5535 19.8857C30.1748 19.5664 29.6953 19.3913 29.2 19.3913C28.7046 19.3913 28.2252 19.5664 27.8464 19.8857C27.4677 20.205 27.214 20.648 27.1302 21.1362C27.0464 21.6245 27.138 22.1266 27.3886 22.5539C27.6393 22.9812 28.0329 23.3061 28.5 23.4712V35.99L26.4 35.0702V28.031C26.4 27.2737 26.1543 26.5369 25.7 25.931L24.72 24.6325C24.4473 24.269 24.3 23.8269 24.3 23.3725V21.3712C24.767 21.2061 25.1607 20.8812 25.4113 20.4539C25.662 20.0266 25.7535 19.5245 25.6697 19.0362C25.586 18.548 25.3323 18.105 24.9535 17.7857C24.5748 17.4664 24.0953 17.2913 23.6 17.2913C23.1046 17.2913 22.6251 17.4664 22.2464 17.7857C21.8677 18.105 21.614 18.548 21.5302 19.0362C21.4464 19.5245 21.538 20.0266 21.7886 20.4539C22.0393 20.8812 22.4329 21.2061 22.9 21.3712V23.369C22.9 24.1263 23.1456 24.8632 23.6 25.469L24.58 26.7675C24.8526 27.131 25 27.5731 25 28.0275V34.4549L20.9771 32.7C20.7809 32.6146 20.5688 32.5721 20.3548 32.5753C20.1409 32.5786 19.9301 32.6275 19.7367 32.7189C19.5466 32.8087 19.3781 32.9382 19.2423 33.0987C19.1066 33.2592 19.0069 33.4469 18.9499 33.6492C18.5185 35.1263 18.6303 36.709 19.265 38.1108C19.8997 39.5126 21.0154 40.6408 22.41 41.2911ZM23.6 18.7C23.7384 18.7 23.8737 18.7411 23.9889 18.818C24.104 18.8949 24.1937 19.0042 24.2467 19.1321C24.2997 19.26 24.3135 19.4008 24.2865 19.5366C24.2595 19.6724 24.1928 19.7971 24.0949 19.895C23.997 19.9929 23.8723 20.0596 23.7365 20.0866C23.6007 20.1136 23.46 20.0997 23.3321 20.0467C23.2042 19.9938 23.0949 19.904 23.0179 19.7889C22.941 19.6738 22.9 19.5385 22.9 19.4C22.9 19.2144 22.9737 19.0363 23.105 18.905C23.2363 18.7738 23.4143 18.7 23.6 18.7ZM29.2 20.8C29.3384 20.8 29.4737 20.8411 29.5889 20.918C29.704 20.9949 29.7937 21.1042 29.8467 21.2321C29.8997 21.36 29.9135 21.5008 29.8865 21.6366C29.8595 21.7724 29.7928 21.8971 29.6949 21.995C29.597 22.0929 29.4723 22.1596 29.3365 22.1866C29.2007 22.2136 29.06 22.1997 28.9321 22.1467C28.8042 22.0938 28.6949 22.004 28.6179 21.8889C28.541 21.7738 28.5 21.6385 28.5 21.5C28.5 21.3144 28.5737 21.1363 28.705 21.005C28.8363 20.8738 29.0143 20.8 29.2 20.8ZM20.3366 33.981C20.3497 33.9747 20.364 33.9714 20.3786 33.9712C20.3911 33.9712 20.4035 33.9738 20.415 33.9789L29.1447 37.8023C29.1783 37.817 29.1909 37.8457 29.1909 37.9136C28.5739 38.9471 27.6081 39.7262 26.4675 40.1105C25.3269 40.4947 24.0865 40.4589 22.97 40.0094C21.8764 39.4928 21.007 38.5974 20.5229 37.489C20.0387 36.3807 19.9725 35.1344 20.3366 33.981ZM30.306 40.6982L28.7415 43.6445C28.575 43.9544 28.4923 44.3024 28.5016 44.654C28.5109 45.0056 28.612 45.3487 28.7947 45.6493C28.992 45.9742 29.2706 46.242 29.603 46.4262C29.9355 46.6105 30.3102 46.7049 30.6903 46.7H33.3097C33.6896 46.7049 34.0643 46.6107 34.3968 46.4265C34.7292 46.2424 35.0079 45.9747 35.2053 45.65C35.388 45.3494 35.489 45.0063 35.4983 44.6547C35.5076 44.3031 35.425 43.9551 35.2585 43.6452L33.694 40.6982C33.5265 40.3957 33.2811 40.1435 32.9832 39.9679C32.6853 39.7923 32.3458 39.6997 32 39.6997C31.6542 39.6997 31.3147 39.7923 31.0168 39.9679C30.7189 40.1435 30.4734 40.3957 30.306 40.6982ZM32 41.1C32.092 41.0977 32.183 41.12 32.2635 41.1647C32.344 41.2094 32.4111 41.2748 32.4578 41.3541L34.023 44.3004C34.0768 44.3973 34.1036 44.507 34.1005 44.6178C34.0975 44.7287 34.0646 44.8366 34.0055 44.9304C33.9318 45.0476 33.8289 45.1435 33.7069 45.2088C33.5849 45.2741 33.448 45.3065 33.3097 45.3028H30.6903C30.5519 45.3065 30.415 45.2741 30.293 45.2088C30.171 45.1435 30.0681 45.0476 29.9945 44.9304C29.9353 44.8366 29.9025 44.7287 29.8994 44.6178C29.8963 44.507 29.9231 44.3973 29.977 44.3004L31.5422 41.3541C31.5889 41.2748 31.6559 41.2094 31.7364 41.1647C31.8169 41.12 31.9079 41.0977 32 41.1ZM34.1 23.4712V36.6312C33.7996 36.8191 33.5762 37.1081 33.47 37.446C33.4073 37.6465 33.3885 37.858 33.4149 38.0664C33.4412 38.2747 33.512 38.475 33.6226 38.6535C34.2088 39.6044 35.0266 40.391 35.9994 40.94C36.9723 41.4889 38.0685 41.7821 39.1855 41.7923C40.0159 41.794 40.8375 41.6231 41.5984 41.2904C42.9922 40.6386 44.1066 39.5092 44.7397 38.1068C45.3729 36.7044 45.483 35.1216 45.0501 33.645C44.993 33.4428 44.8932 33.2553 44.7575 33.0949C44.6217 32.9346 44.4532 32.8052 44.2633 32.7154C44.0696 32.6245 43.8587 32.576 43.6447 32.5734C43.4308 32.5707 43.2187 32.6139 43.0229 32.7L39 34.4584V28.031C39 27.5766 39.1473 27.1345 39.42 26.771L40.4 25.4662C40.8543 24.8604 41.1 24.1235 41.1 23.3662V21.3712C41.567 21.2061 41.9606 20.8812 42.2113 20.4539C42.462 20.0266 42.5535 19.5245 42.4697 19.0362C42.3859 18.548 42.1323 18.105 41.7535 17.7857C41.3748 17.4664 40.8953 17.2913 40.4 17.2913C39.9046 17.2913 39.4252 17.4664 39.0464 17.7857C38.6677 18.105 38.414 18.548 38.3302 19.0362C38.2464 19.5245 38.338 20.0266 38.5886 20.4539C38.8393 20.8812 39.2329 21.2061 39.7 21.3712V23.369C39.7 23.8234 39.5526 24.2655 39.28 24.629L38.3 25.9338C37.8456 26.5397 37.6 27.2765 37.6 28.0338V35.0716L35.5 35.99V23.4712C35.967 23.3061 36.3607 22.9812 36.6113 22.5539C36.862 22.1266 36.9535 21.6245 36.8697 21.1362C36.7859 20.648 36.5323 20.205 36.1535 19.8857C35.7748 19.5664 35.2953 19.3913 34.8 19.3913C34.3046 19.3913 33.8252 19.5664 33.4464 19.8857C33.0677 20.205 32.814 20.648 32.7302 21.1362C32.6464 21.6245 32.738 22.1266 32.9886 22.5539C33.2393 22.9812 33.6329 23.3061 34.1 23.4712ZM40.4 18.7C40.5384 18.7 40.6737 18.7411 40.7889 18.818C40.904 18.8949 40.9937 19.0042 41.0467 19.1321C41.0997 19.26 41.1135 19.4008 41.0865 19.5366C41.0595 19.6724 40.9928 19.7971 40.8949 19.895C40.797 19.9929 40.6723 20.0596 40.5365 20.0866C40.4007 20.1136 40.26 20.0997 40.1321 20.0467C40.0042 19.9938 39.8949 19.904 39.8179 19.7889C39.741 19.6738 39.7 19.5385 39.7 19.4C39.7 19.2144 39.7737 19.0363 39.905 18.905C40.0363 18.7738 40.2143 18.7 40.4 18.7ZM43.585 33.9789C43.5937 33.9748 43.6033 33.9726 43.613 33.9726C43.6475 33.9778 43.6791 33.9952 43.7019 34.0216C44.0851 35.1765 44.0215 36.4331 43.5236 37.5434C43.0257 38.6537 42.1297 39.537 41.0124 40.0191C39.8952 40.5011 38.6378 40.5468 37.4885 40.1472C36.3391 39.7476 35.3814 38.9316 34.8042 37.8604C34.8081 37.8477 34.8146 37.8359 34.8234 37.8259C34.8323 37.8158 34.8431 37.8078 34.8553 37.8023L43.585 33.9789ZM34.8 20.8C34.9384 20.8 35.0737 20.8411 35.1889 20.918C35.304 20.9949 35.3937 21.1042 35.4467 21.2321C35.4997 21.36 35.5135 21.5008 35.4865 21.6366C35.4595 21.7724 35.3928 21.8971 35.2949 21.995C35.197 22.0929 35.0723 22.1596 34.9365 22.1866C34.8007 22.2136 34.66 22.1997 34.5321 22.1467C34.4042 22.0938 34.2949 22.004 34.2179 21.8889C34.141 21.7738 34.1 21.6385 34.1 21.5C34.1 21.3144 34.1737 21.1363 34.305 21.005C34.4363 20.8738 34.6143 20.8 34.8 20.8Z" fill="#04FFFF"/>
</g>
<defs>
<clipPath id="clip0_2990_13575">
<rect width="42" height="42" fill="white" transform="translate(11 11)"/>
</clipPath>
</defs>
</svg>
