<svg width="64" height="64" viewBox="0 0 64 64" fill="none" xmlns="http://www.w3.org/2000/svg">
<path d="M0 13C0 5.8203 5.8203 0 13 0H51C58.1797 0 64 5.8203 64 13V51C64 58.1797 58.1797 64 51 64H13C5.8203 64 0 58.1797 0 51V13Z" fill="#0D2840"/>
<g clip-path="url(#clip0_1344_12261)">
<path d="M26.2434 43.2806V46.2818H6.76172V43.2806C6.76161 42.2585 7.05449 41.2578 7.60566 40.397C8.15683 39.5363 8.94318 38.8515 9.87156 38.4239L13.6852 36.6669L14.388 35.0754L14.5841 34.6285H18.4211L18.6171 35.0754L19.3199 36.6669L23.1336 38.4239C24.062 38.8515 24.8483 39.5363 25.3995 40.397C25.9507 41.2578 26.2435 42.2585 26.2434 43.2806Z" fill="#66C1FF"/>
<path d="M19.3199 36.6669C18.9481 37.7556 18.0432 38.558 16.9738 38.7235C15.6199 38.9338 14.2133 38.0918 13.6852 36.6669L13.9106 36.1571L14.388 35.0754L14.584 34.6285H18.421L18.6171 35.0754L19.0944 36.1571L19.3199 36.6669Z" fill="#FFCD85"/>
<path d="M19.0944 36.1571C18.3621 36.9269 17.4684 37.4164 16.5025 37.4164C15.5367 37.4164 14.6429 36.9269 13.9106 36.1571L14.388 35.0754L14.584 34.6285H18.421L18.6171 35.0754L19.0944 36.1571Z" fill="#FFC570"/>
<path d="M20.9902 29.7466C20.9902 32.6676 18.981 35.8932 16.5026 35.8932C14.0242 35.8932 12.015 32.6676 12.015 29.7466C12.015 26.8256 14.0242 23.2532 16.5026 23.2532C18.981 23.2532 20.9902 26.8256 20.9902 29.7466Z" fill="#FFCD85"/>
<path d="M11.2885 29.6429C11.2885 26.7633 12.015 23.2244 16.5026 23.2244H16.5026C20.9902 23.2244 21.7167 26.7633 21.7167 29.6429H11.2885Z" fill="#FFE966"/>
<path d="M17.7305 24.6957V22.9596C17.7305 22.7466 17.6459 22.5424 17.4953 22.3918C17.3447 22.2412 17.1405 22.1566 16.9275 22.1566H16.0959C15.9905 22.1566 15.8861 22.1774 15.7887 22.2177C15.6912 22.2581 15.6027 22.3172 15.5282 22.3918C15.4536 22.4664 15.3944 22.5549 15.3541 22.6523C15.3137 22.7497 15.293 22.8541 15.293 22.9596V24.6957" fill="#FFE236"/>
<path d="M16.5026 29.6429C17.3008 29.6429 17.9479 28.9958 17.9479 28.1975C17.9479 27.3993 17.3008 26.7522 16.5026 26.7522C15.7044 26.7522 15.0573 27.3993 15.0573 28.1975C15.0573 28.9958 15.7044 29.6429 16.5026 29.6429Z" fill="white"/>
<path d="M57.2383 43.2806V46.2818H37.7566V43.2806C37.7565 42.2585 38.0494 41.2578 38.6005 40.397C39.1517 39.5363 39.9381 38.8515 40.8664 38.4239L44.6801 36.6669L45.3829 35.0754L45.5789 34.6285H49.416L49.612 35.0754L50.3148 36.6669L54.1285 38.4239C55.0568 38.8515 55.8432 39.5363 56.3944 40.397C56.9455 41.2578 57.2384 42.2585 57.2383 43.2806Z" fill="#63EA86"/>
<path d="M50.3147 36.6669C49.943 37.7556 49.0381 38.558 47.9686 38.7235C46.6148 38.9338 45.2082 38.0918 44.6801 36.6669L44.9055 36.1571L45.3829 35.0754L45.5789 34.6285H49.4159L49.6119 35.0754L50.0893 36.1571L50.3147 36.6669Z" fill="#FFCD85"/>
<path d="M50.0893 36.1571C49.357 36.9269 48.4633 37.4164 47.4974 37.4164C46.5315 37.4164 45.6378 36.9269 44.9055 36.1571L45.3829 35.0754L45.5789 34.6285H49.4159L49.6119 35.0754L50.0893 36.1571Z" fill="#FFC570"/>
<path d="M51.9851 29.7466C51.9851 32.6676 49.9759 35.8932 47.4975 35.8932C45.0191 35.8932 43.0099 32.6676 43.0099 29.7466C43.0099 26.8256 45.019 23.2532 47.4975 23.2532C49.9759 23.2532 51.9851 26.8256 51.9851 29.7466Z" fill="#FFCD85"/>
<path d="M42.2833 29.6429C42.2833 26.7633 43.0098 23.2244 47.4974 23.2244H47.4974C51.985 23.2244 52.7115 26.7633 52.7115 29.6429H42.2833Z" fill="#FFE966"/>
<path d="M48.707 24.6957V22.9596C48.707 22.7466 48.6224 22.5424 48.4718 22.3918C48.3213 22.2412 48.117 22.1566 47.9041 22.1566H47.0725C46.9671 22.1566 46.8626 22.1774 46.7652 22.2177C46.6678 22.2581 46.5793 22.3172 46.5047 22.3918C46.4302 22.4664 46.371 22.5549 46.3307 22.6523C46.2903 22.7497 46.2695 22.8541 46.2695 22.9596V24.6957" fill="#FFE236"/>
<path d="M47.4975 29.6429C48.2957 29.6429 48.9428 28.9958 48.9428 28.1975C48.9428 27.3993 48.2957 26.7522 47.4975 26.7522C46.6992 26.7522 46.0521 27.3993 46.0521 28.1975C46.0521 28.9958 46.6992 29.6429 47.4975 29.6429Z" fill="white"/>
<path d="M44.3205 42.4854V46.2818H19.6794V42.4854C19.6795 41.1928 20.0499 39.9273 20.7468 38.8387C21.4438 37.75 22.4381 36.8839 23.6119 36.3429L28.4351 34.1197H28.4362L29.3248 32.1067L29.5737 31.542H34.4263L34.6751 32.1067L35.5638 34.1197L40.388 36.3429C41.5619 36.8839 42.5562 37.75 43.2531 38.8387C43.9501 39.9273 44.3205 41.1928 44.3205 42.4854Z" fill="#FF6666"/>
<path d="M35.5639 34.1197V34.1207C35.0936 35.4978 33.949 36.5125 32.5962 36.7217C30.8839 36.9878 29.1045 35.9224 28.4362 34.1207L28.4352 34.1197H28.4362L28.8435 33.1964L29.3249 32.1067L29.5737 31.542H34.4264L34.6752 32.1067L35.1566 33.1964L35.5639 34.1197Z" fill="#FFCD85"/>
<path d="M35.1565 33.1964C34.2546 34.0983 33.1689 34.665 31.9999 34.665C30.831 34.665 29.7453 34.0983 28.8434 33.1964L29.3248 32.1067L29.5736 31.542H34.4263L34.6751 32.1067L35.1565 33.1964Z" fill="#FFC570"/>
<path d="M37.6761 25.3675C37.6761 29.0621 35.1348 33.1419 32 33.1419C28.8652 33.1419 26.324 29.0621 26.324 25.3675C26.324 21.6729 28.8652 17.1544 32 17.1544C35.1348 17.1544 37.6761 21.6729 37.6761 25.3675Z" fill="#FFCD85"/>
<path d="M25.405 25.2363C25.405 21.594 26.3239 17.1179 32 17.1179H32C37.676 17.1179 38.595 21.594 38.595 25.2363H25.405Z" fill="#FFE966"/>
<path d="M33.5234 18.9663V16.7334C33.5234 16.464 33.4164 16.2057 33.226 16.0152C33.0355 15.8248 32.7772 15.7178 32.5078 15.7178H31.4922C31.2228 15.7178 30.9645 15.8248 30.774 16.0152C30.5836 16.2057 30.4766 16.464 30.4766 16.7334V18.9663" fill="#FFE236"/>
<path d="M32 25.2363C33.0096 25.2363 33.8281 24.4178 33.8281 23.4082C33.8281 22.3986 33.0096 21.5801 32 21.5801C30.9904 21.5801 30.1719 22.3986 30.1719 23.4082C30.1719 24.4178 30.9904 25.2363 32 25.2363Z" fill="white"/>
<path d="M54.4471 37.732L50.8952 36.0955L50.5325 35.2744C51.7446 34.0629 52.5552 32.2165 52.7167 30.4047H53.5692C53.7712 30.4047 53.965 30.3244 54.1078 30.1816C54.2507 30.0387 54.3309 29.845 54.3309 29.6429C54.3309 29.4409 54.2507 29.2472 54.1078 29.1043C53.965 28.9615 53.7712 28.8812 53.5692 28.8812H53.4553C53.3777 27.2615 53.0443 25.9744 52.4418 24.9639C51.7631 23.8246 50.757 23.0676 49.4464 22.7068C49.3863 22.3409 49.1983 22.0082 48.9158 21.768C48.6334 21.5277 48.2749 21.3955 47.9041 21.3949H47.0725C46.7009 21.3955 46.3416 21.5283 46.0589 21.7695C45.7762 22.0108 45.5885 22.3447 45.5294 22.7116C43.0489 23.397 41.7092 25.4674 41.5399 28.8812H41.4257C41.2237 28.8812 41.0299 28.9615 40.8871 29.1043C40.7442 29.2472 40.664 29.4409 40.664 29.6429C40.664 29.845 40.7442 30.0387 40.8871 30.1816C41.0299 30.3244 41.2237 30.4047 41.4257 30.4047H42.2779C42.4071 31.8191 42.896 33.1769 43.6981 34.349C43.9255 34.6786 44.1817 34.9873 44.4636 35.2715L44.0997 36.0955L42.5136 36.8259C41.9712 36.3491 41.3626 35.9534 40.7069 35.651L36.1443 33.5484L35.5979 32.3107C35.9849 31.9335 36.3339 31.5192 36.6399 31.0738C37.6699 29.5686 38.2823 27.8171 38.4146 25.998H39.6798C39.8818 25.998 40.0755 25.9177 40.2184 25.7749C40.3612 25.632 40.4415 25.4383 40.4415 25.2363C40.4415 25.0343 40.3612 24.8405 40.2184 24.6977C40.0755 24.5548 39.8818 24.4746 39.6798 24.4746H39.3422C39.2632 22.3684 38.8491 20.7089 38.0807 19.4213C37.2264 17.9891 35.9489 17.0514 34.2797 16.6248C34.2518 16.1735 34.0532 15.7498 33.724 15.4398C33.3948 15.1298 32.96 14.9568 32.5078 14.9561H31.4922C31.0402 14.9568 30.6054 15.1297 30.2763 15.4395C29.9472 15.7493 29.7484 16.1729 29.7204 16.624C26.5309 17.4351 24.8314 20.0717 24.6588 24.4746H24.3202C24.1182 24.4746 23.9245 24.5548 23.7816 24.6977C23.6388 24.8405 23.5585 25.0343 23.5585 25.2363C23.5585 25.4383 23.6388 25.632 23.7816 25.7749C23.9245 25.9177 24.1182 25.998 24.3202 25.998H25.5854C25.7177 27.8171 26.3301 29.5686 27.3601 31.0738C27.6661 31.5192 28.0151 31.9335 28.4021 32.3107L27.8557 33.5484L23.293 35.651C22.6373 35.9534 22.0289 36.3491 21.4865 36.8258L19.9003 36.0954L19.5375 35.274C20.7499 34.0625 21.5604 32.2166 21.7219 30.4047H22.5743C22.7763 30.4047 22.9701 30.3244 23.1129 30.1816C23.2558 30.0387 23.336 29.845 23.336 29.6429C23.336 29.4409 23.2558 29.2472 23.1129 29.1043C22.9701 28.9615 22.7763 28.8812 22.5743 28.8812H22.4604C22.3827 27.2609 22.0493 25.9737 21.4466 24.9635C21.1237 24.4102 20.6945 23.9261 20.1837 23.5394C19.6729 23.1527 19.0906 22.8709 18.4704 22.7102C18.411 22.3436 18.2232 22.01 17.9406 21.7691C17.6579 21.5282 17.2989 21.3955 16.9275 21.3949H16.0959C15.7254 21.3955 15.3671 21.5275 15.0848 21.7674C14.8024 22.0073 14.6143 22.3396 14.5538 22.7052C13.9298 22.8643 13.3436 23.1459 12.8294 23.5336C12.3152 23.9213 11.8832 24.4074 11.5585 24.9635C10.9559 25.9737 10.6224 27.2609 10.5448 28.8812H10.4308C10.2288 28.8812 10.035 28.9615 9.8922 29.1043C9.74935 29.2472 9.66909 29.4409 9.66909 29.6429C9.66909 29.845 9.74935 30.0387 9.8922 30.1816C10.035 30.3244 10.2288 30.4047 10.4308 30.4047H11.2831C11.4123 31.8191 11.9012 33.1769 12.7033 34.349C12.9306 34.6786 13.1868 34.9872 13.4688 35.2714L13.1048 36.0955L9.55291 37.7319C8.49363 38.2223 7.59647 39.005 6.96704 39.988C6.3376 40.971 6.00209 42.1133 6 43.2806V46.2817C6 46.3818 6.0197 46.4808 6.05798 46.5732C6.09625 46.6657 6.15236 46.7496 6.22309 46.8204C6.29383 46.8911 6.3778 46.9472 6.47022 46.9855C6.56264 47.0238 6.66169 47.0435 6.76172 47.0435H11.5717C11.5743 47.0435 11.5769 47.0439 11.5795 47.0439C11.5822 47.0439 11.5848 47.0435 11.5874 47.0435H24.508C24.5107 47.0435 24.5132 47.0439 24.5159 47.0439C24.5185 47.0439 24.5211 47.0435 24.5237 47.0435H39.7424C39.745 47.0435 39.7476 47.0439 39.7502 47.0439C39.7529 47.0439 39.7555 47.0435 39.7581 47.0435H53.6171C53.6197 47.0435 53.6223 47.0439 53.6249 47.0439C53.6276 47.0439 53.6301 47.0435 53.6328 47.0435H57.2383C57.3383 47.0435 57.4374 47.0238 57.5298 46.9855C57.6222 46.9472 57.7062 46.8911 57.7769 46.8204C57.8476 46.7496 57.9037 46.6657 57.942 46.5732C57.9803 46.4808 58 46.3818 58 46.2817V43.2806C57.9979 42.1134 57.6624 40.971 57.033 39.988C56.4036 39.005 55.5064 38.2223 54.4471 37.732ZM43.0643 28.881C43.1944 26.4213 43.9842 24.9446 45.5078 24.3262V24.6956C45.5078 24.8977 45.5881 25.0914 45.7309 25.2343C45.8738 25.3771 46.0675 25.4574 46.2695 25.4574C46.4716 25.4574 46.6653 25.3771 46.8081 25.2343C46.951 25.0914 47.0313 24.8977 47.0313 24.6956V22.9596C47.0313 22.9486 47.0356 22.9381 47.0434 22.9304C47.0511 22.9227 47.0616 22.9183 47.0725 22.9183H47.9041C47.915 22.9183 47.9255 22.9227 47.9332 22.9304C47.9409 22.9381 47.9453 22.9486 47.9453 22.9596V24.6956C47.9453 24.8977 48.0256 25.0914 48.1684 25.2343C48.3113 25.3771 48.505 25.4574 48.707 25.4574C48.9091 25.4574 49.1028 25.3771 49.2456 25.2343C49.3885 25.0914 49.4688 24.8977 49.4688 24.6956V24.319C50.1694 24.591 50.7565 25.0936 51.1332 25.7439C51.5975 26.5227 51.8602 27.5536 51.9306 28.881H49.5957C49.7038 28.5497 49.7319 28.1975 49.6776 27.8532C49.6234 27.5089 49.4885 27.1824 49.2838 26.9003C49.0791 26.6182 48.8105 26.3886 48.5 26.2303C48.1895 26.0719 47.846 25.9894 47.4974 25.9894C47.1489 25.9894 46.8053 26.0719 46.4948 26.2303C46.1844 26.3886 45.9158 26.6182 45.7111 26.9003C45.5064 27.1824 45.3714 27.5089 45.3172 27.8532C45.263 28.1975 45.2911 28.5497 45.3992 28.881H43.0643ZM48.1811 28.1976C48.1809 28.3781 48.1093 28.5513 47.982 28.6793C47.8546 28.8073 47.6819 28.8798 47.5013 28.881H47.4935C47.3585 28.8802 47.2267 28.8395 47.1148 28.7639C47.0029 28.6883 46.9159 28.5812 46.8648 28.4563C46.8137 28.3313 46.8007 28.194 46.8276 28.0616C46.8544 27.9293 46.9198 27.8079 47.0156 27.7127C47.1114 27.6175 47.2332 27.5528 47.3657 27.5267C47.4982 27.5007 47.6354 27.5145 47.7601 27.5663C47.8848 27.6182 47.9913 27.7058 48.0662 27.8182C48.1411 27.9305 48.1811 28.0625 48.1811 28.1976H48.1811ZM43.8077 30.4047H51.1871C50.9231 32.8787 49.2256 35.1312 47.4974 35.1312C45.7692 35.1312 44.0717 32.8787 43.8077 30.4047ZM49.488 36.6801C49.1635 37.3678 48.5456 37.8635 47.8518 37.971C46.9129 38.1159 45.9706 37.5769 45.5122 36.668L45.7159 36.2068C46.2637 36.5008 46.8757 36.6547 47.4974 36.6546C48.1191 36.6546 48.7311 36.5006 49.2788 36.2065L49.488 36.6801ZM29.7148 18.2123V18.9662C29.7148 19.1682 29.7951 19.362 29.9379 19.5048C30.0808 19.6477 30.2745 19.7279 30.4766 19.7279C30.6786 19.7279 30.8723 19.6477 31.0152 19.5048C31.158 19.362 31.2383 19.1682 31.2383 18.9662V16.7334C31.2384 16.6661 31.2651 16.6015 31.3127 16.5539C31.3603 16.5063 31.4249 16.4796 31.4922 16.4795H32.5078C32.5751 16.4796 32.6397 16.5063 32.6873 16.5539C32.7349 16.6015 32.7616 16.6661 32.7617 16.7334V18.9662C32.7617 19.1682 32.842 19.362 32.9848 19.5048C33.1277 19.6477 33.3214 19.7279 33.5234 19.7279C33.7255 19.7279 33.9192 19.6477 34.0621 19.5048C34.2049 19.362 34.2852 19.1682 34.2852 18.9662V18.212C35.3336 18.5414 36.2209 19.2513 36.7724 20.2019C37.4013 21.2556 37.7456 22.6584 37.8189 24.4743H34.3593C34.5379 24.0798 34.6147 23.6468 34.5828 23.215C34.5508 22.7832 34.4111 22.3662 34.1764 22.0023C33.9417 21.6385 33.6196 21.3392 33.2393 21.132C32.8591 20.9248 32.433 20.8162 32 20.8162C31.567 20.8162 31.1409 20.9248 30.7607 21.132C30.3804 21.3392 30.0583 21.6385 29.8236 22.0023C29.5889 22.3662 29.4492 22.7832 29.4172 23.215C29.3853 23.6468 29.4621 24.0798 29.6407 24.4743H26.181C26.3212 20.9796 27.4592 18.9591 29.7148 18.2123ZM33.0664 23.4082C33.0661 23.6898 32.9544 23.96 32.7557 24.1597C32.5571 24.3594 32.2875 24.4724 32.0059 24.4743H31.9941C31.7835 24.4731 31.5779 24.4095 31.4034 24.2916C31.2288 24.1738 31.0931 24.0068 31.0133 23.8119C30.9335 23.6169 30.9133 23.4027 30.9551 23.1963C30.9969 22.9898 31.099 22.8004 31.2484 22.6519C31.3977 22.5034 31.5877 22.4024 31.7944 22.3618C32.0011 22.3211 32.2152 22.3426 32.4097 22.4235C32.6042 22.5044 32.7703 22.6411 32.8872 22.8164C33.0041 22.9916 33.0664 23.1975 33.0664 23.4082ZM27.1136 25.998H36.8864C36.7079 28.0669 35.6815 30.2826 34.2391 31.4823C34.2059 31.5056 34.1746 31.5316 34.1456 31.56C33.4979 32.0724 32.7702 32.3799 32 32.3799C31.2298 32.3799 30.5021 32.0724 29.8544 31.56C29.8254 31.5316 29.7941 31.5056 29.7609 31.4823C28.3185 30.2826 27.2921 28.0669 27.1136 25.998V25.998ZM34.739 34.1373C34.3123 35.1111 33.4512 35.8185 32.479 35.9692C31.1749 36.1712 29.8664 35.4067 29.2651 34.1281L29.6497 33.257C30.3607 33.68 31.1727 33.9033 32 33.9033C32.8273 33.9033 33.6393 33.68 34.3503 33.257L34.739 34.1373ZM12.0696 28.8812C12.1399 27.5534 12.4026 26.5222 12.8668 25.7441C13.2444 25.0942 13.8312 24.5916 14.5312 24.3182V24.6956C14.5312 24.8977 14.6115 25.0914 14.7544 25.2343C14.8972 25.3771 15.0909 25.4574 15.293 25.4574C15.495 25.4574 15.6887 25.3771 15.8316 25.2343C15.9744 25.0914 16.0547 24.8977 16.0547 24.6956V24.0013C16.2002 23.9922 16.3485 23.9861 16.5026 23.9861C16.6632 23.9861 16.8175 23.9927 16.9688 24.0025V24.6956C16.9688 24.8977 17.049 25.0914 17.1919 25.2343C17.3347 25.3771 17.5284 25.4574 17.7305 25.4574C17.9325 25.4574 18.1262 25.3771 18.2691 25.2343C18.4119 25.0914 18.4922 24.8977 18.4922 24.6956V24.326C19.1844 24.6008 19.7641 25.1002 20.1384 25.7441C20.6026 26.5222 20.8653 27.5534 20.9356 28.8812H18.6007C18.7089 28.5499 18.737 28.1976 18.6828 27.8533C18.6286 27.509 18.4937 27.1825 18.289 26.9003C18.0843 26.6182 17.8157 26.3886 17.5052 26.2303C17.1947 26.0719 16.8511 25.9894 16.5026 25.9894C16.154 25.9894 15.8104 26.0719 15.4999 26.2303C15.1894 26.3886 14.9208 26.6182 14.7162 26.9003C14.5115 27.1825 14.3765 27.509 14.3223 27.8533C14.2681 28.1976 14.2963 28.5499 14.4044 28.8812H12.0696ZM17.1862 28.1976C17.1862 28.3328 17.1461 28.4649 17.071 28.5774C16.9959 28.6898 16.8891 28.7774 16.7642 28.8291C16.6392 28.8809 16.5018 28.8944 16.3692 28.868C16.2366 28.8417 16.1148 28.7765 16.0191 28.6809C15.9235 28.5853 15.8584 28.4635 15.8321 28.3309C15.8057 28.1983 15.8192 28.0608 15.871 27.9359C15.9227 27.811 16.0104 27.7042 16.1228 27.6291C16.2352 27.554 16.3674 27.5139 16.5026 27.5139C16.6838 27.5141 16.8576 27.5862 16.9858 27.7144C17.1139 27.8425 17.186 28.0163 17.1862 28.1976ZM12.8129 30.4047H20.1923C19.9283 32.8787 18.2307 35.1312 16.5026 35.1312C14.7744 35.1312 13.0769 32.8787 12.8129 30.4047ZM18.4931 36.6801C18.1686 37.3678 17.5507 37.8635 16.8569 37.971C15.9182 38.1159 14.9757 37.5769 14.5174 36.668L14.721 36.2068C15.2688 36.5009 15.8808 36.6547 16.5025 36.6546C17.1242 36.6545 17.7362 36.5005 18.2838 36.2062L18.4931 36.6801ZM18.9177 42.4853V45.52H12.3413V43.2805C12.3413 43.0785 12.261 42.8847 12.1182 42.7419C11.9753 42.599 11.7816 42.5188 11.5795 42.5188C11.3775 42.5188 11.1838 42.599 11.0409 42.7419C10.8981 42.8847 10.8178 43.0785 10.8178 43.2805V45.52H7.52344V43.2806C7.52499 42.4044 7.77682 41.5469 8.24928 40.8091C8.72175 40.0712 9.39518 39.4837 10.1903 39.1156L13.332 37.6682C14.0402 38.8086 15.263 39.5178 16.5526 39.5178C16.7326 39.5178 16.9123 39.504 17.0902 39.4764C17.6298 39.3874 18.1428 39.1797 18.5923 38.8682C19.0418 38.5568 19.4165 38.1494 19.6893 37.6754L20.4029 38.004C19.4403 39.3 18.9196 40.871 18.9177 42.4853ZM43.5588 45.52H40.512V42.4855C40.512 42.2835 40.4317 42.0898 40.2889 41.9469C40.146 41.8041 39.9523 41.7238 39.7502 41.7238C39.5482 41.7238 39.3545 41.8041 39.2116 41.9469C39.0688 42.0898 38.9885 42.2835 38.9885 42.4855V45.52H25.2776V42.4855C25.2776 42.2835 25.1973 42.0898 25.0545 41.9469C24.9116 41.8041 24.7179 41.7238 24.5159 41.7238C24.3138 41.7238 24.1201 41.8041 23.9772 41.9469C23.8344 42.0898 23.7541 42.2835 23.7541 42.4855V45.52H20.4412V42.4853C20.4433 41.3388 20.7729 40.2167 21.3911 39.2511C22.0093 38.2855 22.8904 37.5165 23.9308 37.0346L28.0697 35.1272C28.9122 36.6003 30.4445 37.5247 32.0628 37.5247C32.2803 37.5247 32.4974 37.5079 32.7123 37.4746C34.0832 37.2621 35.2645 36.3899 35.9458 35.1344L40.0691 37.0346C41.1095 37.5165 41.9906 38.2854 42.6089 39.2511C43.2271 40.2167 43.5567 41.3388 43.5588 42.4853V45.52ZM56.4766 45.52H54.3866V43.2805C54.3866 43.0785 54.3064 42.8847 54.1635 42.7419C54.0207 42.599 53.8269 42.5188 53.6249 42.5188C53.4229 42.5188 53.2292 42.599 53.0863 42.7419C52.9435 42.8847 52.8632 43.0785 52.8632 43.2805V45.52H45.0823V42.4853C45.0804 40.871 44.5598 39.3001 43.5972 38.0041L44.3268 37.6681C45.035 38.8085 46.2579 39.5178 47.5475 39.5178C47.7275 39.5178 47.9072 39.504 48.0851 39.4764C48.6246 39.3874 49.1376 39.1797 49.5871 38.8683C50.0365 38.5569 50.4112 38.1495 50.684 37.6756L53.8098 39.1157C54.6049 39.4837 55.2783 40.0713 55.7507 40.8091C56.2232 41.547 56.475 42.4044 56.4766 43.2806L56.4766 45.52Z" fill="#010407"/>
</g>
<defs>
<clipPath id="clip0_1344_12261">
<rect width="52" height="52" fill="white" transform="translate(6 5)"/>
</clipPath>
</defs>
</svg>
