<svg width="64" height="64" viewBox="0 0 64 64" fill="none" xmlns="http://www.w3.org/2000/svg">
<rect width="64" height="64" rx="13" fill="#11FACD"/>
<path d="M47.0812 27.3121C46.8466 23.7195 45.26 20.3491 42.6406 17.8792C40.0212 15.4093 36.5635 14.0232 32.9633 14L32.9222 14C29.1601 14 25.552 15.4945 22.8918 18.1547C20.2316 20.8149 18.7371 24.4229 18.7371 28.185C18.7382 28.9551 18.5761 29.7166 18.2616 30.4195L16.0741 35.3263C15.9554 35.5929 15.8938 35.8814 15.8933 36.1732C15.8928 36.4651 15.9535 36.7538 16.0715 37.0207C16.1894 37.2877 16.3619 37.5269 16.578 37.7231C16.794 37.9193 17.0487 38.0681 17.3258 38.1598L18.7371 38.6267V42.9872C18.7371 43.8688 19.0874 44.7144 19.7108 45.3378C20.3342 45.9612 21.1797 46.3114 22.0614 46.3114H26.4753L27.3425 49.361C27.4782 49.8326 27.7634 50.2474 28.1552 50.543C28.5469 50.8386 29.0241 50.9989 29.5148 51C29.726 50.9998 29.9362 50.9701 30.1392 50.9118L43.8574 46.9972C44.4342 46.8321 44.9219 46.4449 45.2134 45.9205C45.505 45.3962 45.5766 44.7776 45.4125 44.2005L43.5279 37.5969C44.7697 36.2019 45.7229 34.5748 46.3324 32.8094C46.9419 31.044 47.1957 29.1753 47.079 27.3113L47.0812 27.3121ZM41.8058 36.6979C41.6922 36.8163 41.6116 36.9624 41.5721 37.1217C41.5325 37.2809 41.5353 37.4478 41.5803 37.6056L43.6081 44.7129C43.6359 44.8107 43.6238 44.9156 43.5743 45.0045C43.5249 45.0934 43.4421 45.159 43.3443 45.187L29.6211 49.1059C29.5232 49.1338 29.4183 49.1216 29.3294 49.0722C29.2405 49.0227 29.1749 48.94 29.147 48.8421L28.0825 45.1111C28.0265 44.9148 27.908 44.742 27.745 44.6191C27.582 44.4961 27.3834 44.4296 27.1792 44.4296H22.0585C21.6751 44.4296 21.3075 44.2773 21.0365 44.0063C20.7654 43.7352 20.6132 43.3676 20.6132 42.9843V37.9488C20.6131 37.7513 20.5508 37.5588 20.4351 37.3987C20.3193 37.2386 20.1561 37.1191 19.9685 37.0571L17.914 36.3763C17.8862 36.3671 17.8607 36.3521 17.839 36.3324C17.8173 36.3126 17.8 36.2886 17.7882 36.2618C17.7763 36.235 17.7702 36.206 17.7702 36.1767C17.7703 36.1474 17.7764 36.1184 17.7883 36.0916L19.9758 31.184C20.3978 30.2406 20.6153 29.2185 20.6139 28.185C20.6139 26.5688 20.9323 24.9684 21.5508 23.4752C22.1694 21.982 23.0761 20.6253 24.219 19.4825C25.362 18.3398 26.7188 17.4333 28.2121 16.815C29.7054 16.1967 31.3059 15.8786 32.9222 15.8789H32.9583C35.3671 15.885 37.7211 16.5981 39.7283 17.9298C41.7355 19.2615 43.3076 21.1532 44.2495 23.3702C45.1914 25.5872 45.4617 28.0319 45.0269 30.4012C44.5921 32.7704 43.4714 34.9598 41.8036 36.6979H41.8058Z" fill="black"/>
<path d="M32.9619 19.2653C31.2004 19.2653 29.4785 19.7876 28.0139 20.7663C26.5494 21.7449 25.4079 23.1358 24.7338 24.7632C24.0597 26.3905 23.8833 28.1812 24.227 29.9088C24.5706 31.6364 25.4188 33.2233 26.6644 34.4688C27.9099 35.7144 29.4968 36.5626 31.2244 36.9062C32.952 37.2499 34.7427 37.0735 36.3701 36.3994C37.9974 35.7253 39.3883 34.5838 40.3669 33.1193C41.3456 31.6547 41.8679 29.9328 41.8679 28.1713C41.8652 25.8101 40.926 23.5464 39.2564 21.8768C37.5868 20.2072 35.3231 19.268 32.9619 19.2653ZM32.9619 35.1984C31.572 35.1984 30.2134 34.7863 29.0578 34.0142C27.9022 33.242 27.0015 32.1445 26.4697 30.8605C25.9378 29.5765 25.7986 28.1635 26.0698 26.8004C26.3409 25.4373 27.0102 24.1852 27.9929 23.2024C28.9757 22.2197 30.2278 21.5504 31.5909 21.2792C32.9541 21.0081 34.367 21.1473 35.651 21.6791C36.9351 22.211 38.0325 23.1117 38.8047 24.2673C39.5768 25.4229 39.989 26.7815 39.989 28.1713C39.9869 30.0344 39.2458 31.8205 37.9285 33.1379C36.6111 34.4553 34.8249 35.1963 32.9619 35.1984Z" fill="black"/>
<path d="M35.3475 25.4324C34.0744 26.3156 32.9312 27.3724 31.951 28.5724C31.5304 28.1162 31.0431 27.7263 30.5057 27.4161C30.2898 27.2915 30.0332 27.2578 29.7925 27.3224C29.5517 27.387 29.3464 27.5446 29.2219 27.7605C29.0973 27.9764 29.0636 28.2329 29.1282 28.4737C29.1927 28.7144 29.3503 28.9197 29.5662 29.0443C30.2156 29.4188 30.7548 29.958 31.1293 30.6074C31.2083 30.7445 31.3207 30.8595 31.456 30.9416C31.5913 31.0237 31.7452 31.0703 31.9033 31.0771H31.943C32.0945 31.077 32.2438 31.0403 32.3781 30.9701C32.5123 30.8999 32.6276 30.7983 32.7141 30.6739C33.7171 29.2294 34.9704 27.9761 36.4148 26.9731C36.6194 26.8309 36.7592 26.6133 36.8033 26.368C36.8474 26.1228 36.7923 25.8701 36.6501 25.6655C36.5078 25.4609 36.2902 25.3212 36.0449 25.2771C35.7997 25.2329 35.547 25.2881 35.3424 25.4303L35.3475 25.4324Z" fill="black"/>
</svg>
