<svg width="64" height="64" viewBox="0 0 64 64" fill="none" xmlns="http://www.w3.org/2000/svg">
<g clip-path="url(#clip0_1259_849)">
<path d="M49.6349 0H14.3651C6.43147 0 0 6.43147 0 14.3651V49.6349C0 57.5685 6.43147 64 14.3651 64H49.6349C57.5685 64 64 57.5685 64 49.6349V14.3651C64 6.43147 57.5685 0 49.6349 0Z" fill="#FFC327"/>
<path d="M15.8746 33.1121H12.8518C12.3811 33.1121 12 33.4948 12 33.9675V41.337C12 41.8095 12.3811 42.1924 12.8518 42.1924H15.8746V33.1121Z" fill="#1B1914"/>
<path d="M12.8518 29.9535H15.8746V20.8733H12.8518C12.3811 20.8733 12 21.256 12 21.7286V29.0982C12 29.5707 12.3811 29.9535 12.8518 29.9535Z" fill="#1B1914"/>
<path d="M15.0581 47.9543C15.0581 48.8747 15.808 49.6278 16.7246 49.6278H49.4969C50.4135 49.6278 51.1634 48.8747 51.1634 47.9543V15.0455C51.1634 14.1251 50.4135 13.3721 49.4969 13.3721H16.7246C15.808 13.3721 15.0581 14.1251 15.0581 15.0455V47.9543Z" fill="#896B1E"/>
<path d="M46.1195 41.3801L39.8322 35.0929C40.397 34.0283 40.7176 32.814 40.7176 31.5245C40.7176 30.235 40.3972 29.0209 39.8322 27.9563L46.1191 21.6688C46.9944 20.7931 46.9948 19.3739 46.1191 18.4982C45.2435 17.6227 43.8243 17.6227 42.9487 18.4982L36.6616 24.7857C35.5969 24.2205 34.3826 23.9001 33.0932 23.9001C31.8037 23.9001 30.5895 24.2205 29.5248 24.7857L23.2375 18.4986C22.3618 17.6231 20.9426 17.6231 20.067 18.4986C19.1914 19.3743 19.1914 20.7936 20.067 21.6692L26.3545 27.9563C25.7896 29.021 25.469 30.2352 25.469 31.5246C25.469 32.814 25.7893 34.0283 26.3545 35.093L20.0673 41.3802C19.192 42.2558 19.1917 43.675 20.0673 44.5506C20.9429 45.4263 22.3622 45.4263 23.2378 44.5506L29.5249 38.2635C30.5896 38.8285 31.8038 39.149 33.093 39.149C34.3824 39.149 35.5967 38.8285 36.6614 38.2635L42.9489 44.5506C43.8245 45.4263 45.2437 45.4263 46.1193 44.5506C46.9951 43.6753 46.9951 42.2557 46.1195 41.3801Z" fill="white"/>
<path d="M44.5339 46.0439C43.7117 46.0439 42.9386 45.7236 42.357 45.1421L36.4896 39.2751C35.4244 39.7414 34.2623 39.9857 33.093 39.9857C31.9241 39.9857 30.7619 39.7414 29.6967 39.2751L23.8296 45.1422C23.2481 45.7237 22.4749 46.044 21.6527 46.044C20.8304 46.044 20.0573 45.7237 19.4758 45.1422C18.2757 43.942 18.2757 41.989 19.4756 40.7886L25.3428 34.9213C24.8766 33.8564 24.6322 32.6939 24.6322 31.5246C24.6322 30.3557 24.8766 29.1934 25.3428 28.1281L19.4754 22.2609C18.2752 21.0606 18.2751 19.1074 19.4754 17.907C20.0571 17.3255 20.8301 17.0053 21.6524 17.0053C22.4746 17.0053 23.2477 17.3255 23.8293 17.907L29.6966 23.7741C30.7617 23.3078 31.9241 23.0635 33.0934 23.0635C34.2627 23.0635 35.425 23.3078 36.49 23.7741L42.3571 17.9066C42.9387 17.3251 43.7117 17.0049 44.534 17.0049C45.3562 17.0049 46.1293 17.3251 46.7108 17.9066C47.9109 19.1067 47.9109 21.0598 46.7109 22.2603L40.8438 28.128C41.31 29.1932 41.5543 30.3553 41.5543 31.5246C41.5543 32.6936 41.31 33.856 40.8438 34.9212L46.7111 40.7884C47.2927 41.37 47.613 42.1432 47.6129 42.9655C47.6129 43.7879 47.2924 44.561 46.7107 45.1424C46.1293 45.7237 45.3561 46.0439 44.5339 46.0439ZM36.661 37.4267C36.8779 37.4267 37.092 37.511 37.2529 37.6718L43.5404 43.9589C43.8058 44.2244 44.1587 44.3706 44.534 44.3706C44.9092 44.3706 45.2621 44.2245 45.5276 43.9589C45.7933 43.6936 45.9394 43.3407 45.9394 42.9655C45.9394 42.5902 45.7933 42.2373 45.5278 41.9719L39.2406 35.6847C38.9806 35.4248 38.9207 35.0256 39.0931 34.7009C39.6085 33.7295 39.8809 32.6312 39.8809 31.5247C39.8809 30.418 39.6084 29.3198 39.0931 28.3487C38.9207 28.024 38.9806 27.6248 39.2405 27.3647L45.5274 21.0773C46.0752 20.5293 46.0752 19.6379 45.5274 19.09C45.262 18.8247 44.9091 18.6784 44.5339 18.6784C44.1586 18.6784 43.8057 18.8246 43.5404 19.09L37.2532 25.3775C36.9933 25.6376 36.594 25.6974 36.2692 25.525C35.2982 25.0095 34.2 24.737 33.0932 24.737C31.9864 24.737 30.8882 25.0094 29.9172 25.525C29.5925 25.6974 29.1932 25.6375 28.9332 25.3776L22.6458 19.0904C22.3804 18.825 22.0275 18.6788 21.6522 18.6788C21.277 18.6788 20.924 18.8249 20.6586 19.0904C20.1108 19.6383 20.1108 20.5297 20.6587 21.0776L26.9461 27.3647C27.2061 27.6246 27.2659 28.0239 27.0936 28.3485C26.5781 29.3199 26.3057 30.4183 26.3057 31.5246C26.3057 32.6313 26.5781 33.7296 27.0935 34.7005C27.266 35.0253 27.2061 35.4245 26.9462 35.6845L20.659 41.9717C20.1113 42.5196 20.1113 43.411 20.659 43.9588C20.9244 44.2242 21.2774 44.3705 21.6525 44.3705C22.0278 44.3705 22.3807 44.2243 22.6461 43.9588L28.9331 37.6717C29.193 37.4118 29.5923 37.3519 29.9169 37.5243C30.8883 38.0397 31.9865 38.3122 33.0928 38.3122C34.1995 38.3122 35.2977 38.0398 36.2689 37.5243C36.3927 37.4587 36.5274 37.4267 36.661 37.4267Z" fill="black"/>
<path d="M33.0931 35.1215C35.0802 35.1215 36.6911 33.5106 36.6911 31.5235C36.6911 29.5364 35.0802 27.9255 33.0931 27.9255C31.106 27.9255 29.4951 29.5364 29.4951 31.5235C29.4951 33.5106 31.106 35.1215 33.0931 35.1215Z" fill="#1B1914"/>
<path d="M33.0931 33.1134C32.2165 33.1134 31.5033 32.4002 31.5033 31.5236C31.5033 30.647 32.2165 29.9338 33.0931 29.9338C33.9697 29.9338 34.6829 30.647 34.6829 31.5236C34.6829 32.4002 33.9697 33.1134 33.0931 33.1134Z" fill="black"/>
<path d="M33.0931 35.9583C30.6478 35.9583 28.6583 33.9689 28.6583 31.5236C28.6583 29.0782 30.6478 27.0889 33.0931 27.0889C35.5383 27.0889 37.5278 29.0783 37.5278 31.5236C37.5278 33.9689 35.5383 35.9583 33.0931 35.9583ZM33.0931 28.7624C31.5705 28.7624 30.3318 30.0011 30.3318 31.5237C30.3318 33.0462 31.5705 34.2849 33.0931 34.2849C34.6156 34.2849 35.8543 33.0462 35.8543 31.5237C35.8543 30.0011 34.6156 28.7624 33.0931 28.7624Z" fill="black"/>
<path d="M47.5291 27.1069C47.067 27.1069 46.6924 26.7323 46.6924 26.2702V25.8956C46.6924 25.4334 47.067 25.0588 47.5291 25.0588C47.9913 25.0588 48.3659 25.4334 48.3659 25.8956V26.2702C48.3659 26.7323 47.9913 27.1069 47.5291 27.1069Z" fill="black"/>
<path d="M47.5291 37.9411C47.067 37.9411 46.6924 37.5665 46.6924 37.1044V28.9771C46.6924 28.515 47.067 28.1404 47.5291 28.1404C47.9913 28.1404 48.3659 28.515 48.3659 28.9771V37.1044C48.3659 37.5665 47.9913 37.9411 47.5291 37.9411Z" fill="black"/>
<path d="M49.4898 50.4646H16.581C15.1968 50.4646 14.0708 49.3385 14.0708 47.9544V43.029H12.6921C11.7591 43.029 11 42.27 11 41.337V33.9674C11 33.0344 11.7591 32.2753 12.6921 32.2753H14.0708V30.7902H12.6921C11.7591 30.7902 11 30.0312 11 29.0982V21.7286C11 20.7956 11.7591 20.0366 12.6921 20.0366H14.0708V15.0456C14.0708 13.6615 15.1968 12.5354 16.581 12.5354H49.4898C50.8739 12.5354 52 13.6615 52 15.0456V47.9544C52 49.3385 50.8739 50.4646 49.4898 50.4646ZM12.6921 33.9488C12.6816 33.9488 12.6735 33.9569 12.6735 33.9674V41.337C12.6735 41.3474 12.6816 41.3556 12.6921 41.3556H14.9075C15.3696 41.3556 15.7442 41.7302 15.7442 42.1923V47.9544C15.7442 48.4158 16.1196 48.7912 16.581 48.7912H49.4898C49.9512 48.7912 50.3265 48.4158 50.3265 47.9544V15.0456C50.3265 14.5842 49.9512 14.2089 49.4898 14.2089H16.581C16.1196 14.2089 15.7442 14.5842 15.7442 15.0456V20.8733C15.7442 21.3354 15.3696 21.71 14.9075 21.71H12.6921C12.6816 21.71 12.6735 21.7181 12.6735 21.7286V29.0982C12.6735 29.1086 12.6816 29.1168 12.6921 29.1168H14.9075C15.3696 29.1168 15.7442 29.4914 15.7442 29.9535V33.112C15.7442 33.5742 15.3696 33.9488 14.9075 33.9488H12.6921Z" fill="black"/>
</g>
<defs>
<clipPath id="clip0_1259_849">
<rect width="64" height="64" fill="white"/>
</clipPath>
</defs>
</svg>
