<svg width="70" height="70" viewBox="0 0 70 70" fill="none" xmlns="http://www.w3.org/2000/svg">
<rect width="70" height="70" rx="16" fill="url(#paint0_linear_4269_370)"/>
<g filter="url(#filter0_d_4269_370)">
<path d="M45.6667 19H24.3333C22.9188 19 21.5623 19.5619 20.5621 20.5621C19.5619 21.5623 19 22.9188 19 24.3333V40.3333C19 41.7478 19.5619 43.1044 20.5621 44.1046C21.5623 45.1048 22.9188 45.6667 24.3333 45.6667H28.2L34.1347 50.684C34.3754 50.8877 34.6806 50.9995 34.996 50.9995C35.3114 50.9995 35.6166 50.8877 35.8573 50.684L41.8 45.6667H45.6667C47.0812 45.6667 48.4377 45.1048 49.4379 44.1046C50.4381 43.1044 51 41.7478 51 40.3333V24.3333C51 22.9188 50.4381 21.5623 49.4379 20.5621C48.4377 19.5619 47.0812 19 45.6667 19ZM28.3333 25.6667H35C35.3536 25.6667 35.6928 25.8071 35.9428 26.0572C36.1929 26.3072 36.3333 26.6464 36.3333 27C36.3333 27.3536 36.1929 27.6928 35.9428 27.9428C35.6928 28.1929 35.3536 28.3333 35 28.3333H28.3333C27.9797 28.3333 27.6406 28.1929 27.3905 27.9428C27.1405 27.6928 27 27.3536 27 27C27 26.6464 27.1405 26.3072 27.3905 26.0572C27.6406 25.8071 27.9797 25.6667 28.3333 25.6667ZM41.6667 39H28.3333C27.9797 39 27.6406 38.8595 27.3905 38.6095C27.1405 38.3594 27 38.0203 27 37.6667C27 37.313 27.1405 36.9739 27.3905 36.7239C27.6406 36.4738 27.9797 36.3333 28.3333 36.3333H41.6667C42.0203 36.3333 42.3594 36.4738 42.6095 36.7239C42.8595 36.9739 43 37.313 43 37.6667C43 38.0203 42.8595 38.3594 42.6095 38.6095C42.3594 38.8595 42.0203 39 41.6667 39ZM41.6667 33.6667H28.3333C27.9797 33.6667 27.6406 33.5262 27.3905 33.2761C27.1405 33.0261 27 32.687 27 32.3333C27 31.9797 27.1405 31.6406 27.3905 31.3905C27.6406 31.1405 27.9797 31 28.3333 31H41.6667C42.0203 31 42.3594 31.1405 42.6095 31.3905C42.8595 31.6406 43 31.9797 43 32.3333C43 32.687 42.8595 33.0261 42.6095 33.2761C42.3594 33.5262 42.0203 33.6667 41.6667 33.6667Z" fill="white"/>
</g>
<defs>
<filter id="filter0_d_4269_370" x="11" y="15" width="48" height="48" filterUnits="userSpaceOnUse" color-interpolation-filters="sRGB">
<feFlood flood-opacity="0" result="BackgroundImageFix"/>
<feColorMatrix in="SourceAlpha" type="matrix" values="0 0 0 0 0 0 0 0 0 0 0 0 0 0 0 0 0 0 127 0" result="hardAlpha"/>
<feOffset dy="4"/>
<feGaussianBlur stdDeviation="4"/>
<feComposite in2="hardAlpha" operator="out"/>
<feColorMatrix type="matrix" values="0 0 0 0 0 0 0 0 0 0 0 0 0 0 0 0 0 0 0.25 0"/>
<feBlend mode="normal" in2="BackgroundImageFix" result="effect1_dropShadow_4269_370"/>
<feBlend mode="normal" in="SourceGraphic" in2="effect1_dropShadow_4269_370" result="shape"/>
</filter>
<linearGradient id="paint0_linear_4269_370" x1="35" y1="0" x2="35" y2="70" gradientUnits="userSpaceOnUse">
<stop stop-color="#0063AA"/>
<stop offset="1" stop-color="#004171"/>
</linearGradient>
</defs>
</svg>
