<svg width="64" height="64" viewBox="0 0 64 64" fill="none" xmlns="http://www.w3.org/2000/svg">
<rect width="64" height="64" rx="13" fill="#23005C"/>
<path d="M30.7863 27.9915L32.0412 27.0503L38.4888 34.1187L37.2336 35.0604L30.7863 27.9915Z" fill="#00FF38"/>
<path d="M26.1429 14.9187L15.8146 22.665L21.6867 29.1243L32.0149 21.3783L26.1429 14.9187Z" fill="#00FF38"/>
<path d="M35.0148 24.8528L33.7604 25.7934L40.2088 32.8616L41.4632 31.921L35.0148 24.8528Z" fill="#00FF38"/>
<path d="M28.0726 30.073L29.327 29.1318L35.7751 36.2003L34.5196 37.142L28.0726 30.073Z" fill="#00FF38"/>
<path d="M24.8468 32.4857L24.89 32.4467L26.0974 31.5409L32.5325 38.619L31.2778 39.5599L24.8468 32.4857Z" fill="#00FF38"/>
<path d="M32.0477 7.00464L28.7671 9.51353L27.0398 7.57318L8.34183 21.6242V30.2109L31.7235 55.9711L54.6438 38.06L54.8869 32.1804L32.0477 7.00464ZM30.199 46.6038V47.3844V51.9328L9.90305 29.6073V22.4048L26.8403 9.67433L48.1307 33.1138L30.7959 46.1354L30.199 46.6038ZM53.1305 37.2729L31.7602 53.8989V47.3844L34.9217 44.9859L37.3062 47.6277L53.2047 35.1361L53.1305 37.2729ZM37.4654 45.5023L36.1397 44.0447L50.4218 33.3331L29.8477 10.7021L31.8807 9.14248L53.4794 32.9132L37.4654 45.5023Z" fill="#00FF38"/>
</svg>
