<svg width="64" height="64" viewBox="0 0 64 64" fill="none" xmlns="http://www.w3.org/2000/svg">
<path d="M49.6349 0H14.3651C6.43147 0 0 6.43147 0 14.3651V49.6349C0 57.5685 6.43147 64 14.3651 64H49.6349C57.5685 64 64 57.5685 64 49.6349V14.3651C64 6.43147 57.5685 0 49.6349 0Z" fill="#FFDC26"/>
<path d="M33.0518 22.1267C31.6765 23.4038 30.4809 24.5318 30.3864 24.6156C30.2265 24.7739 30.2639 24.8299 31.2243 25.8274C31.7705 26.4056 32.2507 26.8717 32.2886 26.8717C32.326 26.8717 32.7216 26.5269 33.1738 26.1168L34.0024 25.3521L34.3793 25.7154L34.7469 26.0695L29.454 31.3187L24.1611 36.5581L23.8221 36.3808C22.249 35.5883 19.8479 36.2503 18.9248 37.7324L18.7176 38.0588H13.3588H8V40.0168V41.9748H13.3588H18.7176L18.9248 42.3012C19.038 42.4785 19.3204 42.795 19.5556 43.0006C21.1567 44.399 23.549 44.3152 25.0463 42.8233C25.9693 41.9003 26.4023 40.6232 26.1858 39.4484L26.082 38.8517L32.5528 32.4467L39.0325 26.0325L37.6386 24.6526L36.2446 23.2728L36.9605 22.5923C37.3561 22.21 37.6578 21.8744 37.6479 21.8374C37.5913 21.6976 35.7078 19.7863 35.6325 19.7956C35.5853 19.7961 34.4265 20.8398 33.0518 22.1267Z" fill="black"/>
<path d="M41.1513 36.1012C40.4732 36.2503 39.7293 36.6604 39.1639 37.2108C37.5815 38.7772 37.5815 41.2569 39.1639 42.8233C40.8777 44.5203 43.6749 44.3615 45.1348 42.4785L45.5304 41.9753H50.8799H56.22V40.0173V38.0593H50.8705H45.5304L45.2007 37.6209C44.7771 37.0617 44.0705 36.5211 43.4304 36.2878C42.837 36.0642 41.754 35.9804 41.1513 36.1012Z" fill="black"/>
</svg>
