<svg width="64" height="64" viewBox="0 0 64 64" fill="none" xmlns="http://www.w3.org/2000/svg">
<path d="M0 13C0 5.8203 5.8203 0 13 0H51C58.1797 0 64 5.8203 64 13V51C64 58.1797 58.1797 64 51 64H13C5.8203 64 0 58.1797 0 51V13Z" fill="#273648"/>
<path opacity="0.4" d="M54.0403 46.89L44.0496 53.181C43.5387 53.5027 42.9632 53.7087 42.3639 53.7844C41.7645 53.8601 41.1558 53.8037 40.5807 53.6191L29.6291 50.1041C29.0503 49.9184 28.4376 49.8624 27.8347 49.9402C27.2318 50.0181 26.6535 50.2278 26.141 50.5544L18.123 55.6648C17.877 55.8201 17.5982 55.9159 17.3086 55.9448C17.0191 55.9736 16.7268 55.9347 16.4549 55.8311C16.1831 55.7274 15.9391 55.562 15.7425 55.3478C15.5458 55.1336 15.4019 54.8766 15.3221 54.5972L8.40227 30.3741C8.29131 29.9857 8.3093 29.5718 8.45356 29.1945C8.59782 28.8171 8.86059 28.4965 9.20253 28.2808L19.2998 21.9088C19.8596 21.5555 20.4902 21.3292 21.1472 21.2459C21.8042 21.1626 22.4715 21.2243 23.102 21.4267L33.7045 24.8296C34.3372 25.0326 35.007 25.094 35.6662 25.0094C36.3254 24.9248 36.9578 24.6962 37.5185 24.3399L45.1109 19.5156C45.3568 19.3593 45.6359 19.2625 45.9259 19.2329C46.2158 19.2034 46.5087 19.2418 46.7812 19.3452C47.0537 19.4485 47.2982 19.614 47.4954 19.8284C47.6925 20.0428 47.8368 20.3002 47.9168 20.5801L54.8356 44.7997C54.9463 45.1872 54.9287 45.6 54.7853 45.9767C54.642 46.3533 54.3807 46.6736 54.0403 46.89Z" fill="#40536A"/>
<path d="M54.4303 44.3191L45.8991 49.7401C45.3384 50.0964 44.7059 50.325 44.0467 50.4096C43.3875 50.4942 42.7177 50.4328 42.085 50.2297L31.4825 46.8268C30.852 46.6245 30.1847 46.5628 29.5277 46.6461C28.8708 46.7294 28.2401 46.9557 27.6803 47.3089L18.5131 53.094C18.2671 53.2493 17.9883 53.3451 17.6987 53.374C17.4092 53.4028 17.1169 53.3639 16.845 53.2603C16.5731 53.1566 16.3292 52.9912 16.1326 52.777C15.9359 52.5628 15.792 52.3058 15.7121 52.0264L8.79234 27.8033C8.68138 27.4149 8.69938 27.001 8.84364 26.6237C8.9879 26.2463 9.25066 25.9257 9.59261 25.71L19.6898 19.338C20.2497 18.9847 20.8803 18.7584 21.5373 18.6751C22.1943 18.5918 22.8616 18.6535 23.492 18.8559L34.0945 22.2588C34.7273 22.4618 35.3971 22.5232 36.0563 22.4386C36.7155 22.354 37.3479 22.1254 37.9086 21.7691L45.501 16.9448C45.7469 16.7885 46.026 16.6917 46.3159 16.6621C46.6059 16.6326 46.8988 16.671 47.1713 16.7744C47.4438 16.8777 47.6883 17.0432 47.8855 17.2576C48.0826 17.472 48.2269 17.7294 48.3069 18.0093L55.2257 42.2289C55.3364 42.6164 55.3187 43.0292 55.1754 43.4058C55.0321 43.7825 54.7708 44.1028 54.4303 44.3191Z" fill="#314155"/>
<path opacity="0.1" d="M30.4648 44.0887L28.8784 39.6195L21.3818 42.1822L19.0377 35.4004L12.9318 36.6137L17.2126 51.599C17.2315 51.6648 17.2714 51.7225 17.3262 51.7635C17.381 51.8045 17.4477 51.8266 17.5162 51.8263C17.5742 51.8261 17.631 51.8089 17.6795 51.777L26.3949 46.277C26.3567 46.2327 30.4648 44.0887 30.4648 44.0887Z" fill="#EAF4F7"/>
<path d="M54.4303 44.3191L45.8991 49.7401C45.3384 50.0964 44.7059 50.325 44.0467 50.4096C43.3875 50.4942 42.7177 50.4328 42.085 50.2297L31.4825 46.8268C30.852 46.6245 30.1847 46.5628 29.5277 46.6461C28.8708 46.7294 28.2401 46.9557 27.6803 47.3089L18.5131 53.094C18.2671 53.2493 17.9883 53.3451 17.6987 53.374C17.4092 53.4028 17.1169 53.3639 16.845 53.2603C16.5731 53.1566 16.3292 52.9912 16.1326 52.777C15.9359 52.5628 15.792 52.3058 15.7121 52.0264L8.79234 27.8033C8.68138 27.4149 8.69938 27.001 8.84364 26.6237C8.9879 26.2463 9.25066 25.9257 9.59261 25.71L19.6898 19.338C20.2497 18.9847 20.8803 18.7584 21.5373 18.6751C22.1943 18.5918 22.8616 18.6535 23.492 18.8559L34.0945 22.2588C34.7273 22.4618 35.3971 22.5232 36.0563 22.4386C36.7155 22.354 37.3479 22.1254 37.9086 21.7691L45.501 16.9448C45.7469 16.7885 46.026 16.6917 46.3159 16.6621C46.6059 16.6326 46.8988 16.671 47.1713 16.7744C47.4438 16.8777 47.6883 17.0432 47.8855 17.2576C48.0826 17.472 48.2269 17.7294 48.3069 18.0093L55.2257 42.2289C55.3364 42.6164 55.3187 43.0292 55.1754 43.4058C55.0321 43.7825 54.7708 44.1028 54.4303 44.3191V44.3191Z" stroke="#192431" stroke-width="0.664615" stroke-miterlimit="10"/>
<path d="M22.596 41.3101C22.596 41.3101 22.7261 41.2763 22.9452 41.2123" stroke="#363A5A" stroke-width="0.443077" stroke-linecap="round" stroke-linejoin="round"/>
<path d="M24 40.8752C25.5408 40.34 27.8016 39.3579 27.8288 38.1963C27.8649 36.6531 20.3748 28.9324 24.4017 28.4656C37.8458 26.9075 31.8219 38.0727 37.9535 37.8231C40.5439 37.7176 35.7535 34.1615 43.1546 31.591C44.2517 31.2099 43.7067 28.4238 43.3386 26.967" stroke="white" stroke-width="0.443077" stroke-linecap="round" stroke-linejoin="round" stroke-dasharray="1.13 1.69"/>
<path d="M43.1963 26.4324C43.135 26.2138 43.0948 26.0848 43.0948 26.0848" stroke="#363A5A" stroke-width="0.443077" stroke-linecap="round" stroke-linejoin="round"/>
<path opacity="0.22" d="M22.1277 44.9903C24.0589 44.9903 25.6244 43.4271 25.6244 41.4987C25.6244 39.5704 24.0589 38.0072 22.1277 38.0072C20.1965 38.0072 18.631 39.5704 18.631 41.4987C18.631 43.4271 20.1965 44.9903 22.1277 44.9903Z" fill="#3DC0CB"/>
<path d="M22.1277 43.5234C23.2476 43.5234 24.1555 42.6169 24.1555 41.4987C24.1555 40.3805 23.2476 39.474 22.1277 39.474C21.0079 39.474 20.1 40.3805 20.1 41.4987C20.1 42.6169 21.0079 43.5234 22.1277 43.5234Z" fill="white"/>
<path d="M22.1277 43.5234C23.2476 43.5234 24.1555 42.6169 24.1555 41.4987C24.1555 40.3805 23.2476 39.474 22.1277 39.474C21.0079 39.474 20.1 40.3805 20.1 41.4987C20.1 42.6169 21.0079 43.5234 22.1277 43.5234Z" stroke="#3DC0CB" stroke-width="0.664615" stroke-miterlimit="10"/>
<path d="M23.0518 23.4341L28.8674 24.5348L27.5318 22.1909L22.7184 20.514C22.44 20.417 22.1452 20.3758 21.8508 20.3926C21.5564 20.4094 21.2682 20.4839 21.0027 20.6119L10.4263 27.027C10.3695 27.0631 10.3259 27.1166 10.3018 27.1794C10.2778 27.2422 10.2747 27.3111 10.2929 27.3759L11.9985 33.3467L16.6485 32.1985L15.7947 28.7781L23.0518 23.4341Z" fill="#87D5F7" fill-opacity="0.19"/>
<path opacity="0.1" d="M32.2683 38.2205L35.587 39.0548L37.1915 42.7267L33.6164 42.1414L32.2683 38.2205Z" fill="#FDDCBF"/>
<path d="M43.1561 28.2782C40.4601 28.2782 38.2745 27.4975 38.2745 26.5344C38.2745 25.5713 40.4601 24.7905 43.1561 24.7905C45.8521 24.7905 48.0376 25.5713 48.0376 26.5344C48.0376 27.4975 45.8521 28.2782 43.1561 28.2782Z" fill="#3DC0CB"/>
<path opacity="0.1" d="M44.6879 37.1016L50.7775 34.4547L53.1832 41.7729L43.3224 47.3684L41.515 42.2751L45.3707 40.1095L44.6879 37.1016Z" fill="#FDDCBF"/>
<path d="M50.3434 16.9744C50.3434 12.7868 46.9394 9.41463 42.8146 9.61041C39.1214 9.7857 35.973 12.9273 35.973 16.7196C35.973 22.2053 43.1561 26.4354 43.1561 26.4354C43.1561 26.4354 50.3434 22.2053 50.3434 16.9744Z" fill="#3DC0CB"/>
<path d="M45.7798 24.3124C45.2134 24.7536 44.515 24.9921 43.7966 24.9897C43.0782 24.9872 42.3815 24.7439 41.8181 24.2988C39.692 22.6176 36.6174 19.5661 36.6174 15.9771C36.6227 14.4533 37.1275 12.9731 38.0547 11.7627C36.7796 13.0484 35.973 14.8005 35.973 16.7196C35.973 22.2053 43.1561 26.4354 43.1561 26.4354C43.1561 26.4354 46.0856 24.7109 48.2041 22.1028C47.4563 22.9028 46.6457 23.6417 45.7798 24.3124Z" fill="#22848C"/>
<path d="M42.8146 9.61041C41.5197 9.67702 40.2676 10.096 39.194 10.822C40.0395 10.4149 40.9581 10.1812 41.8956 10.1348C46.0204 9.939 49.4244 13.3111 49.4244 17.4988C49.4244 21.6003 45.006 25.0861 43.0979 26.4003C43.1353 26.4231 43.1561 26.4354 43.1561 26.4354C43.1561 26.4354 50.3434 22.2053 50.3434 16.9744C50.3434 12.7868 46.9394 9.41464 42.8146 9.61041Z" fill="#5AE3EE"/>
<path d="M43.1561 19.7944C42.5712 19.7944 41.9995 19.6213 41.5132 19.2968C41.0269 18.9724 40.6478 18.5112 40.424 17.9717C40.2002 17.4321 40.1416 16.8384 40.2557 16.2656C40.3698 15.6928 40.6515 15.1667 41.065 14.7538C41.4786 14.3408 42.0055 14.0596 42.5792 13.9457C43.1528 13.8317 43.7474 13.8902 44.2877 14.1137C44.8281 14.3372 45.2899 14.7156 45.6148 15.2012C45.9398 15.6868 46.1132 16.2577 46.1132 16.8417C46.1132 17.6248 45.8017 18.3758 45.2471 18.9296C44.6925 19.4834 43.9403 19.7944 43.1561 19.7944Z" fill="white"/>
<path d="M43.1561 19.7944C42.5712 19.7944 41.9995 19.6213 41.5132 19.2968C41.0269 18.9724 40.6478 18.5112 40.424 17.9717C40.2002 17.4321 40.1416 16.8384 40.2557 16.2656C40.3698 15.6928 40.6515 15.1667 41.065 14.7538C41.4786 14.3408 42.0055 14.0596 42.5792 13.9457C43.1528 13.8317 43.7474 13.8902 44.2877 14.1137C44.8281 14.3372 45.2899 14.7156 45.6148 15.2012C45.9398 15.6868 46.1132 16.2577 46.1132 16.8417C46.1132 17.6248 45.8017 18.3758 45.2471 18.9296C44.6925 19.4834 43.9403 19.7944 43.1561 19.7944Z" stroke="#363A5A" stroke-width="0.664615" stroke-miterlimit="10"/>
<path d="M50.3434 16.9744C50.3434 12.7868 46.9394 9.41463 42.8146 9.61041C39.1214 9.7857 35.973 12.9273 35.973 16.7196C35.973 22.2053 43.1561 26.4354 43.1561 26.4354C43.1561 26.4354 50.3434 22.2053 50.3434 16.9744Z" stroke="#363A5A" stroke-width="0.664615" stroke-linecap="round" stroke-linejoin="round"/>
</svg>
