<svg width="64" height="64" viewBox="0 0 64 64" fill="none" xmlns="http://www.w3.org/2000/svg">
<rect width="64" height="64" rx="13" fill="#02041F"/>
<g clip-path="url(#clip0_3283_14343)">
<path d="M44.4574 25.5677L45.1021 32.1097L41.5831 35.4687L41.2882 32.293L43.4686 31.1147L43.068 28.9278C42.8594 27.7868 41.8854 26.4286 39.0489 26.8642L39.7485 26.3183L35.2996 25.0608L36.0403 22.6573C39.2981 24.0522 43.5715 23.8876 43.5715 23.8876L44.4574 25.5677Z" fill="url(#paint0_linear_3283_14343)"/>
<path d="M41.4356 33.8808L41.2881 32.293L43.4686 31.1147L43.0679 28.9278C42.913 28.0821 42.338 27.1176 40.8966 26.8523L43.2937 26.4671L44.2967 31.6871L41.4356 33.8808Z" fill="#020C6A"/>
<path d="M42.5055 23.8837C40.6823 24.8108 39.5238 24.0307 39.0186 23.5228C38.6265 23.4498 38.227 23.3627 37.8286 23.2592C38.7208 23.7864 39.5764 24.3419 40.4371 25.0631L43.5715 23.8871C43.5715 23.8871 43.1645 23.9029 42.5055 23.8837Z" fill="#020C6A"/>
<path d="M42.8044 28.1585L44.5853 26.8659L44.4573 25.5677L42.1294 27.366C42.4317 27.5934 42.6506 27.8683 42.8044 28.1585Z" fill="#020C6A"/>
<path d="M44.4573 25.5677L45.102 32.1097L41.5831 35.4687L41.2881 32.293L43.4686 31.1147L43.0679 28.9278C42.9485 28.2744 42.5775 27.5498 41.75 27.1318V26.9541C41.8831 27.0169 42.0117 27.0899 42.1352 27.1742C42.7313 27.5826 43.0976 28.1992 43.2257 28.8995L43.6469 31.199L41.4573 32.3823L41.7122 35.1242L44.9346 32.0486L44.3007 25.6141L43.476 24.0494C42.8084 24.0698 42.1026 24.0375 41.4419 23.99C39.9593 23.8831 38.4299 23.6438 37.0141 23.189C36.7198 23.0946 36.4277 22.9893 36.1414 22.8722L35.567 24.7361H35.3995L36.0402 22.6573C39.298 24.0522 43.5715 23.8871 43.5715 23.8871L44.4573 25.5677Z" fill="#5EFAF7"/>
<path d="M27.654 35.5258C25.9 37.694 26.0331 40.8488 27.9541 42.8648C29.8756 44.8809 30.6158 45.7996 30.0591 47.8682L33.2986 53H36.8261L32.4653 47.8807C37.0342 39.2491 30.3151 36.7392 31.1244 31.1775L27.654 35.5258Z" fill="url(#paint1_linear_3283_14343)"/>
<path d="M35.0624 53H36.8262L32.4653 47.8807C35.5562 42.0418 33.4815 39.0041 32.0658 35.928L31.2313 39.3362C32.9471 43.0905 31.2319 47.9186 31.2319 47.9186L35.0624 53Z" fill="#020C6A"/>
<path d="M27.1465 36.2685C25.9502 38.3694 26.2429 41.0688 27.9541 42.8648C29.8756 44.8809 30.6158 45.7996 30.0591 47.8682L33.2986 53H36.8261L32.4653 47.8807C35.4419 42.2573 33.6272 39.2321 32.2252 36.2685H32.0475C32.1835 36.557 32.323 36.8432 32.4601 37.13C32.9048 38.0583 33.3272 38.9866 33.5975 39.9822C34.3531 42.7658 33.6455 45.3086 32.323 47.8071L32.2732 47.9016L36.4809 52.8411H33.3872L30.2322 47.8422C30.3997 47.1951 30.4723 46.5412 30.3037 45.8844C30.1642 45.3402 29.8773 44.8617 29.5407 44.4148C29.1012 43.8327 28.5748 43.2846 28.0712 42.7557C26.384 40.9857 26.1331 38.3219 27.3374 36.2685H27.1465Z" fill="#5EFAF7"/>
<path d="M27.5528 35.6548C25.9062 37.8173 26.0708 40.8884 27.9541 42.8648C29.2532 44.2275 30.0116 45.0891 30.1957 46.1429C30.6963 42.8795 32.4567 40.0008 33.3426 38.719C32.7036 37.0916 31.8074 35.6582 31.3496 34.0799C30.3408 34.3633 29.0857 34.8634 27.5528 35.6548Z" fill="#020C6A"/>
<path d="M29.7167 29.8657C30.8095 27.4231 29.2332 23.9187 28.8874 20.2775C28.4942 16.1407 31.9206 12.2851 36.6032 12C36.5741 12.7212 36.613 13.4634 36.745 14.1795L29.7167 29.8657Z" fill="url(#paint2_linear_3283_14343)"/>
<path d="M29.7167 29.8657C29.7419 29.8097 29.7653 29.7531 29.7876 29.696L29.9871 29.2157C30.2929 28.2433 30.266 27.1035 30.1305 25.8652C29.9591 24.2966 29.595 22.4519 29.543 20.7459C29.4184 16.677 32.5813 13.3751 36.613 13.2665H36.6255C36.6501 13.5731 36.6896 13.8786 36.745 14.1795L29.7167 29.8657Z" fill="#056677"/>
<path d="M29.7167 29.8657C30.8095 27.4231 29.2326 23.9187 28.8874 20.2775C28.4942 16.1407 31.9206 12.2851 36.6032 12C36.5741 12.7212 36.613 13.4634 36.745 14.1795L35.3298 17.3377H35.1544L36.5781 14.1597C36.4615 13.5058 36.4203 12.8349 36.4369 12.1708C34.8532 12.2992 33.338 12.853 32.0658 13.8034C30.8444 14.7164 29.8933 15.9642 29.3955 17.4005C29.0766 18.322 28.9549 19.2932 29.0469 20.2628C29.2155 22.0379 29.6784 23.7451 29.9996 25.4924C30.1619 26.3777 30.3054 27.3586 30.2425 28.301L33.6992 20.5858H33.8747L29.7167 29.8657Z" fill="#ECF955"/>
<path d="M39.1969 29.6309C39.206 31.3539 38.463 33.0504 37.1925 34.2966C34.9943 36.4722 32.2532 38.1251 30.1642 40.4053L27.8478 37.2737L27.754 32.3235L29.0852 30.6683C29.3481 30.4223 29.5572 30.1508 29.7224 29.856L29.7173 29.8662C33.7044 25.6525 39.3581 28.4209 39.1969 29.6309Z" fill="url(#paint3_linear_3283_14343)"/>
<path d="M39.1969 29.6309C39.206 31.3539 38.463 33.0504 37.1925 34.2966C34.9943 36.4721 32.2532 38.125 30.1642 40.4053L28.401 38.0221C30.1785 36.7244 34.2405 33.2297 35.487 27.6465H35.4904L36.5506 27.8264C38.1584 28.2218 39.27 29.085 39.1969 29.6309Z" fill="#1F32B4"/>
<path d="M39.1969 29.6309C39.206 31.3539 38.463 33.0504 37.1925 34.2966C34.9943 36.4721 32.2532 38.125 30.1642 40.4053L27.8478 37.2737L27.754 32.3235L29.0852 30.6683C29.3481 30.4223 29.5572 30.1507 29.7224 29.856L29.7173 29.8662C29.8396 29.7367 29.9642 29.6139 30.0899 29.4974C29.8419 30.0993 29.1852 30.8703 28.6496 31.324L28.7337 31.3607L27.9158 32.3778L28.0072 37.2205L30.1779 40.1552C32.2646 37.931 34.912 36.3217 37.0788 34.184C38.2944 32.9853 39.0454 31.3392 39.0369 29.6315V29.6207L39.038 29.61C39.082 29.2813 38.491 28.8474 38.2573 28.6981C38.0875 28.5895 37.9069 28.4911 37.7189 28.4023H38.0692C38.8082 28.805 39.2438 29.2824 39.1969 29.6309ZM31.9783 28.4023C31.4999 28.6285 31.045 28.9131 30.6186 29.2536L30.602 29.2225L30.0905 29.4968C30.5832 29.0392 31.097 28.6794 31.6188 28.4023H31.9783Z" fill="#F6DCFD"/>
<path d="M39.1969 29.6309C39.1992 30.0065 39.1655 30.3816 39.098 30.7504C38.3527 30.3567 33.4678 27.9305 29.7173 29.8662C33.4735 27.2941 39.1889 29.6275 39.1969 29.6309Z" fill="#020C6A"/>
<path d="M35.9596 19.3933C35.7379 20.553 35.9676 21.5316 36.3957 22.5096L30.2179 26.0536C30.091 24.5019 29.7904 22.7846 29.7904 21.0626C29.7904 17.2613 32.9042 14.1795 36.7449 14.1795L35.9596 19.3933Z" fill="url(#paint4_radial_3283_14343)"/>
<path d="M35.9596 19.3934C35.7379 20.553 35.9676 21.5316 36.3957 22.5096L33.3597 24.2514C31.8337 20.3867 32.8716 16.505 32.8716 16.505C33.9158 16.0118 35.1681 15.8522 36.478 15.9512L35.9596 19.3934Z" fill="#1F32B4"/>
<path d="M35.9596 19.3934C35.7379 20.553 35.9676 21.5316 36.3957 22.5096L30.2179 26.0536C30.091 24.5019 29.7904 22.7846 29.7904 21.0627C29.7904 19.6756 30.2053 18.3848 30.9181 17.3043H31.1107C30.3785 18.3774 29.951 19.6705 29.951 21.0627C29.951 22.6556 30.2133 24.2118 30.3562 25.7906L36.1928 22.4423C35.771 21.4366 35.5916 20.4664 35.8013 19.3668L36.1117 17.3043H36.274L35.9596 19.3934Z" fill="#5EFAF7"/>
<path d="M36.1414 21.8523C36.2146 22.0729 36.3003 22.2913 36.3957 22.5096L30.3174 25.9965C30.2579 25.6938 30.1916 25.3861 30.1213 25.0733C33.3426 23.8571 33.8787 21.3065 36.1414 21.8523Z" fill="#020C6A"/>
<path d="M29.7173 29.8668C33.4758 27.2924 39.1975 29.6309 39.1975 29.6309L45.0038 25.1462L47.7683 28.0487L52 27.883L45.6319 23.1143L40.4371 25.0631C39.3335 24.1382 38.2384 23.486 37.0639 22.8168C34.3879 21.2912 33.7461 24.1388 30.1214 25.0733C30.326 26.9264 30.4306 28.6048 29.7173 29.8662V29.8668Z" fill="url(#paint5_linear_3283_14343)"/>
<path d="M29.7173 29.8668C33.4758 27.2924 39.1975 29.6309 39.1975 29.6309L45.0038 25.1463L47.7683 28.0487L49.8842 27.9656L45.3095 24.0998L39.0489 26.8642C33.9919 24.8634 30.2723 27.1301 30.2723 27.1301C30.2848 28.1613 30.1551 29.0924 29.7173 29.8662V29.8668Z" fill="#056677"/>
<path d="M29.7173 29.8668C33.4758 27.2924 39.1975 29.6309 39.1975 29.6309L45.0038 25.1462L47.7683 28.0487L49.5813 27.9774V27.823L47.8335 27.8915L45.0198 24.9375L39.1723 29.4538C38.8808 29.3396 38.5716 29.2406 38.2744 29.1518C37.492 28.9159 36.6844 28.736 35.8745 28.6246C33.9216 28.3559 31.8177 28.473 30.0819 29.4561C30.586 28.1556 30.438 26.531 30.2911 25.1881C31.3856 24.8866 32.2635 24.3984 33.1911 23.7462C33.773 23.3372 34.5011 22.7427 35.2024 22.5803C35.8425 22.4321 36.4329 22.6352 36.9862 22.9503C38.1687 23.6246 39.2895 24.3034 40.336 25.1813L40.4063 25.2401L45.6067 23.2891L51.5577 27.7455L51.2553 27.7574V27.9118L52 27.883L45.6319 23.1143L40.4371 25.0631C39.3335 24.1382 38.2384 23.486 37.0639 22.8168C34.3879 21.2912 33.7461 24.1388 30.1214 25.0733C30.326 26.9264 30.4306 28.6048 29.7173 29.8662V29.8668Z" fill="#ECF955"/>
<path d="M29.8847 22.9051C29.8293 22.2964 29.7904 21.6798 29.7904 21.0627C29.7904 17.2613 32.9042 14.1795 36.7449 14.1795C36.7449 14.1795 37.3919 13.0058 38.3133 12.3841L38.4813 15.3692L40.9526 20.5111C40.9526 20.5111 39.8844 23.206 38.0623 21.5887L37.0987 20.428C37.0987 20.428 34.836 19.5574 34.9829 17.422C34.9829 17.422 30.2951 17.5046 29.8847 22.9051Z" fill="url(#paint6_linear_3283_14343)"/>
<path d="M40.9526 20.5111C40.9526 20.5111 39.8844 23.206 38.0623 21.5887L37.0987 20.428C37.0987 20.428 34.8359 19.5574 34.9828 17.422C34.9828 17.422 30.3831 17.504 29.8978 22.7552C29.8687 22.5102 29.8527 22.2608 29.8527 22.0079C29.8527 18.675 32.4835 15.923 35.8453 15.738C35.8453 15.738 35.8459 18.1359 38.1783 19.3272L39.0556 20.8166C39.0556 20.8166 40.1913 21.5955 40.9526 20.5111Z" fill="#1F32B4"/>
<path d="M29.8847 22.9051C29.8293 22.2964 29.7904 21.6798 29.7904 21.0627C29.7904 20.5264 29.8521 20.0043 29.9693 19.5037H30.1345C30.0145 20.0037 29.951 20.5258 29.951 21.0627C29.951 21.1945 29.9527 21.3268 29.9562 21.4592C30.3248 20.0286 31.1141 18.7886 32.4949 18.0007C33.0213 17.7003 33.6026 17.4865 34.1976 17.3637C34.4416 17.3134 34.7285 17.2676 34.98 17.263L35.1549 17.2596L35.1429 17.4327C35.0835 18.2999 35.4435 19.0341 36.0871 19.6049C36.3717 19.8572 36.7958 20.1412 37.1565 20.2798L37.1959 20.295L38.1784 21.4784C38.6036 21.8529 39.1214 22.1046 39.6735 21.8354C40.1468 21.6051 40.5703 21.0021 40.7777 20.5156L38.3224 15.4093L38.1698 12.6907C37.6697 13.1014 37.1765 13.727 36.8855 14.2553L36.8398 14.3385H36.7449C33.7918 14.3385 31.2798 16.203 30.3431 18.8067H30.1728C31.1164 16.1136 33.702 14.1795 36.7449 14.1795C36.7449 14.1795 37.3919 13.0058 38.3133 12.3841L38.4813 15.3692L40.9526 20.5111C40.9526 20.5111 39.8844 23.206 38.0623 21.5887L37.0987 20.428C37.0987 20.428 34.836 19.5574 34.9829 17.422C34.9829 17.422 30.2951 17.5046 29.8847 22.9051Z" fill="#8EFFC1"/>
<path d="M24.2322 36.2979C15.9151 35.5043 16.0197 44.1806 12 46.2657C22.2238 47.7851 17.2599 40.4336 23.5012 37.8298L24.2322 36.2979Z" fill="url(#paint7_linear_3283_14343)"/>
<path d="M12 46.2657C22.2238 47.785 17.2599 40.4336 23.5012 37.8298L23.8669 37.0638C16.4255 37.7364 19.2072 46.0812 12 46.2657Z" fill="#021B8D"/>
<path d="M24.2322 36.2979C15.9151 35.5043 16.0197 44.1806 12 46.2657C22.2238 47.7851 17.2599 40.4336 23.5012 37.8298L23.8247 37.1515H23.6475L23.3823 37.7076C21.7254 38.413 20.7206 39.4861 20.0096 41.1146C19.7313 41.7527 19.5209 42.4129 19.2786 43.0645C19.0614 43.65 18.8111 44.2445 18.4373 44.7513C17.9115 45.4641 17.2268 45.8748 16.3694 46.0988C15.1726 46.4116 13.7312 46.3341 12.4727 46.1712C13.3317 45.5999 13.9775 44.7412 14.5216 43.883C15.2298 42.767 15.8185 41.5796 16.5278 40.4618C16.9518 39.7944 17.4188 39.1478 17.9669 38.5736C19.6341 36.8291 21.6294 36.2572 23.9887 36.4365L23.7944 36.8438H23.9715L24.2322 36.2979Z" fill="#F6DCFD"/>
<path d="M24.2321 36.2979C23.9315 36.2696 23.6434 36.2544 23.3645 36.2498C23.0359 36.8608 22.8278 37.5232 22.7427 38.1997C22.9759 38.0685 23.2273 37.9446 23.5011 37.8298L24.2321 36.2979Z" fill="#020C6A"/>
<path d="M25.1261 34.5868C23.1291 36.5378 22.8897 39.6863 24.5603 41.9105C26.2309 44.1342 26.8579 45.132 26.0617 47.1226L28.8686 53H32.1784L28.4496 47.4128C34.0039 39.3667 26.4081 36.4167 29.0852 30.6683L25.1261 34.5868Z" fill="url(#paint8_linear_3283_14343)"/>
<path d="M30.5237 53H32.1783L28.4496 47.4128C34.0038 39.3667 26.408 36.4167 29.0851 30.6683L26.5481 33.1794C24.1361 38.3575 30.0596 41.2657 27.1985 47.673L27.2008 47.6702L30.5237 53Z" fill="#1F32B4"/>
<path d="M25.1261 34.5868C23.1291 36.5378 22.8897 39.6863 24.5603 41.9105C26.2309 44.1342 26.8579 45.132 26.0617 47.1226L28.8589 52.9796L28.9703 52.841L26.2366 47.1164C26.4789 46.493 26.6281 45.8521 26.5384 45.1807C26.4641 44.6235 26.2349 44.1155 25.9531 43.633C25.5856 43.004 25.1272 42.3987 24.6894 41.8155C23.939 40.8165 23.5664 39.5884 23.6212 38.3462C23.683 36.9728 24.2568 35.6717 25.2398 34.6988L28.6497 31.324C28.3005 32.3631 28.2444 33.4034 28.4639 34.5279C28.6474 35.4686 28.996 36.3703 29.3361 37.2635C29.6876 38.1873 30.0299 39.1082 30.2197 40.0806C30.4323 41.1701 30.4317 42.2262 30.1905 43.3117C29.8693 44.7576 29.1561 46.1078 28.3176 47.3229L28.2564 47.4111L31.88 52.841L32.1784 53L28.4496 47.4128C34.0039 39.3667 26.4081 36.4167 29.0852 30.6683L25.1261 34.5868Z" fill="#5EFAF7"/>
<path d="M30.2363 46.5225C34.576 38.4158 27.1374 36.3664 29.0852 30.6683C26.6864 35.8182 32.5322 38.7235 29.7813 45.0579C30.0602 45.5337 30.2134 45.9975 30.2363 46.5225Z" fill="#020C6A"/>
<path d="M35.8888 20.6491C35.8631 20.3318 35.8694 20.0048 35.9157 19.662C35.5082 19.2825 35.1252 18.7519 35.0104 18.0504C34.9784 17.8541 34.9675 17.6448 34.9829 17.422C34.9829 17.422 30.2951 17.5046 29.8848 22.905C30.7329 18.3055 34.2416 18.2207 34.2416 18.2207C34.2639 18.5629 34.3651 18.8791 34.5114 19.1642C34.8652 19.8538 35.483 20.3663 35.8888 20.6491Z" fill="#020C6A"/>
</g>
<defs>
<linearGradient id="paint0_linear_3283_14343" x1="38.3676" y1="22.1584" x2="44.5172" y2="35.2717" gradientUnits="userSpaceOnUse">
<stop stop-color="#021B8D"/>
<stop offset="1" stop-color="#2DDAFF"/>
</linearGradient>
<linearGradient id="paint1_linear_3283_14343" x1="31.6234" y1="38.8723" x2="31.6234" y2="58.3032" gradientUnits="userSpaceOnUse">
<stop stop-color="#021B8D"/>
<stop offset="1" stop-color="#2DDAFF"/>
</linearGradient>
<linearGradient id="paint2_linear_3283_14343" x1="28.2273" y1="24.9822" x2="45.568" y2="1.39308" gradientUnits="userSpaceOnUse">
<stop stop-color="#16A085"/>
<stop offset="1" stop-color="#ECF955"/>
</linearGradient>
<linearGradient id="paint3_linear_3283_14343" x1="35.8294" y1="27.4293" x2="25.7411" y2="46.4553" gradientUnits="userSpaceOnUse">
<stop stop-color="#0049E7"/>
<stop offset="1" stop-color="#F98AFE"/>
</linearGradient>
<radialGradient id="paint4_radial_3283_14343" cx="0" cy="0" r="1" gradientUnits="userSpaceOnUse" gradientTransform="translate(39.5529 23.2852) scale(9.31272 9.21708)">
<stop stop-color="#2DDAFF"/>
<stop offset="1" stop-color="#0049E7"/>
</radialGradient>
<linearGradient id="paint5_linear_3283_14343" x1="55.4127" y1="26.1215" x2="9.87332" y2="26.1215" gradientUnits="userSpaceOnUse">
<stop stop-color="#16A085"/>
<stop offset="1" stop-color="#ECF955"/>
</linearGradient>
<linearGradient id="paint6_linear_3283_14343" x1="29.1709" y1="21.7709" x2="42.2378" y2="15.5582" gradientUnits="userSpaceOnUse">
<stop stop-color="#0463EF"/>
<stop offset="1" stop-color="#4EEC91"/>
</linearGradient>
<linearGradient id="paint7_linear_3283_14343" x1="26.3417" y1="40.8793" x2="9.06662" y2="42.0064" gradientUnits="userSpaceOnUse">
<stop stop-color="#114FEE"/>
<stop offset="1" stop-color="#F98AFE"/>
</linearGradient>
<linearGradient id="paint8_linear_3283_14343" x1="27.8146" y1="48.56" x2="27.8141" y2="31.2317" gradientUnits="userSpaceOnUse">
<stop stop-color="#114FEE"/>
<stop offset="0.75" stop-color="#57CAF9"/>
<stop offset="1" stop-color="#51F5EA"/>
</linearGradient>
<clipPath id="clip0_3283_14343">
<rect width="40" height="41" fill="white" transform="translate(12 12)"/>
</clipPath>
</defs>
</svg>
