<svg width="70" height="70" viewBox="0 0 70 70" fill="none" xmlns="http://www.w3.org/2000/svg">
<rect width="70" height="70" rx="12" fill="url(#paint0_linear_8499_5576)"/>
<g filter="url(#filter0_d_8499_5576)">
<path d="M27.5594 38.4325C27.5594 38.9594 27.1378 39.396 26.6033 39.396C26.3398 39.396 26.0989 39.2907 25.9258 39.1175C25.7526 38.9444 25.6472 38.7035 25.6472 38.44C25.6472 37.913 26.0688 37.4764 26.6033 37.4764C27.1227 37.4764 27.5594 37.9055 27.5594 38.4325ZM28.1992 43.2128C27.8228 43.5892 27.8304 44.1914 28.1992 44.5678C28.5756 44.9367 29.1854 44.9367 29.5543 44.5603C29.9307 44.1839 29.9232 43.5741 29.5468 43.2053C29.1779 42.8364 28.5682 42.8364 28.1992 43.2128ZM34.3196 31.6421C34.8466 31.6421 35.2832 31.213 35.2832 30.6785C35.2832 30.144 34.8541 29.7149 34.3196 29.7149C33.7852 29.7149 33.3561 30.144 33.3561 30.6785C33.3561 30.942 33.4614 31.1829 33.6346 31.3561C33.8153 31.5367 34.0562 31.6421 34.3196 31.6421ZM28.1616 33.6521C28.538 34.021 29.1478 34.021 29.5167 33.6446L29.5242 33.6371C29.5317 33.6295 29.5317 33.6295 29.5392 33.622C29.9156 33.2456 29.9156 32.6434 29.5392 32.267C29.1628 31.8905 28.5531 31.8905 28.1842 32.267C28.1767 32.2745 28.1767 32.2745 28.1691 32.282C28.1616 32.2895 28.1616 32.2895 28.1541 32.2971C27.7852 32.6659 27.7852 33.2757 28.1616 33.6521ZM34.3422 45.1776C33.8077 45.1776 33.3862 45.6067 33.3862 46.1412C33.3862 46.4047 33.4916 46.6456 33.6647 46.8187C33.8379 46.9919 34.0787 47.0973 34.3498 47.0973C34.8767 47.0973 35.3058 46.6682 35.3058 46.1337C35.3058 45.6067 34.8767 45.1776 34.3422 45.1776ZM39.1225 43.1827C38.7461 43.5591 38.7461 44.1689 39.1225 44.5377C39.4989 44.9141 40.1087 44.9141 40.4775 44.5377C40.854 44.1613 40.8464 43.5516 40.4775 43.1751C40.1011 42.8063 39.4914 42.8063 39.1225 43.1827ZM42.051 37.4387C41.5165 37.4387 41.0874 37.8678 41.0874 38.4023C41.0874 38.6658 41.1928 38.9067 41.3659 39.0799C41.5391 39.253 41.78 39.3659 42.0435 39.3584C42.578 39.3584 42.9995 38.9293 43.0071 38.3948C43.0146 37.8678 42.5854 37.4387 42.051 37.4387ZM34.3648 53.7897C25.8957 53.7897 19 46.894 19 38.4249C19 30.5656 24.9397 24.0689 32.5656 23.173V20.8469H31.6095C31.1277 20.8469 30.7438 20.4554 30.7438 19.9811V17.8657C30.7438 17.3839 31.1353 17 31.6095 17H37.1201C37.6019 17 37.9858 17.3915 37.9858 17.8657V19.9811C37.9858 20.4629 37.5944 20.8469 37.1201 20.8469H36.164V23.1655C39.0623 23.5043 41.7122 24.6561 43.8878 26.38L45.1375 25.1303L45.0246 25.0174C44.6858 24.6786 44.6858 24.1291 45.0246 23.7903L46.741 22.0739C47.0797 21.7352 47.6293 21.7352 47.9681 22.0739L50.7459 24.8518C51.0847 25.1906 51.0847 25.7401 50.7459 26.0789L49.0295 27.7953C48.6908 28.134 48.1412 28.134 47.8024 27.7953L47.6895 27.6824L46.4399 28.932C48.5026 31.5443 49.7296 34.8416 49.7296 38.4174C49.7296 46.894 42.8339 53.7897 34.3648 53.7897ZM46.1612 38.4249C46.1612 31.9207 40.869 26.6284 34.3647 26.6284C27.8605 26.6284 22.5682 31.9207 22.5682 38.4249C22.5682 44.9292 27.853 50.2214 34.3647 50.2214C40.8691 50.2214 46.1612 44.9292 46.1612 38.4249ZM40.5378 32.1917C40.8917 32.5455 40.9143 33.1176 40.5905 33.494L36.6759 38.0786C36.7738 38.7938 36.5555 39.5391 36.0059 40.0886C35.08 41.0146 33.5744 41.0146 32.6409 40.0886C31.7149 39.1627 31.7149 37.6571 32.6409 36.7236C33.1904 36.174 33.9357 35.9557 34.6509 36.0536L39.2355 32.139C39.6193 31.8153 40.184 31.8379 40.5378 32.1917ZM35.0047 37.7323C34.6283 37.3559 34.0185 37.3559 33.6496 37.7323C33.2732 38.1087 33.2732 38.7185 33.6496 39.0874C34.0261 39.4638 34.6358 39.4638 35.0047 39.0874C35.3811 38.711 35.3811 38.1087 35.0047 37.7323Z" fill="white"/>
</g>
<defs>
<filter id="filter0_d_8499_5576" x="11" y="13" width="48" height="52.7896" filterUnits="userSpaceOnUse" color-interpolation-filters="sRGB">
<feFlood flood-opacity="0" result="BackgroundImageFix"/>
<feColorMatrix in="SourceAlpha" type="matrix" values="0 0 0 0 0 0 0 0 0 0 0 0 0 0 0 0 0 0 127 0" result="hardAlpha"/>
<feOffset dy="4"/>
<feGaussianBlur stdDeviation="4"/>
<feComposite in2="hardAlpha" operator="out"/>
<feColorMatrix type="matrix" values="0 0 0 0 0 0 0 0 0 0 0 0 0 0 0 0 0 0 0.25 0"/>
<feBlend mode="normal" in2="BackgroundImageFix" result="effect1_dropShadow_8499_5576"/>
<feBlend mode="normal" in="SourceGraphic" in2="effect1_dropShadow_8499_5576" result="shape"/>
</filter>
<linearGradient id="paint0_linear_8499_5576" x1="35" y1="0" x2="35" y2="70" gradientUnits="userSpaceOnUse">
<stop stop-color="#7B7B7B"/>
<stop offset="1" stop-color="#474747"/>
</linearGradient>
</defs>
</svg>
