<svg width="64" height="64" viewBox="0 0 64 64" fill="none" xmlns="http://www.w3.org/2000/svg">
<rect width="64" height="64" rx="13" fill="#444B54"/>
<g clip-path="url(#clip0_3112_13530)">
<path d="M45.4857 17.3714H18.9714C16.64 17.3714 14.6743 19.1543 14.4 21.4857L12.5714 40.2285H51.8857L50.0114 21.4857C49.7829 19.1543 47.8172 17.3714 45.4857 17.3714Z" fill="#FCCA3D"/>
<path d="M51.8857 40.2286L50.0115 21.4857C50.0115 21.3486 49.9657 21.2571 49.9657 21.12C49.5086 18.56 45.6686 19.2 45.9429 21.76L46.3086 25.6C46.8572 30.9943 42.6057 35.6571 37.2115 35.6571H22.1715C19.5657 35.6571 17.3715 37.6228 17.1429 40.2286H51.8857V40.2286Z" fill="#F2A50C"/>
<path d="M51.8857 46.6286H12.5714C10.7886 46.6286 9.37143 45.2114 9.37143 43.4286C9.37143 41.6457 10.7886 40.2286 12.5714 40.2286H51.8857C53.6686 40.2286 55.0857 41.6457 55.0857 43.4286C55.0857 45.2114 53.6686 46.6286 51.8857 46.6286Z" fill="white"/>
<path d="M51.8857 48H12.5714C10.0571 48 8 45.9428 8 43.4285C8 40.9143 10.0571 38.8571 12.5714 38.8571H51.8857C54.4 38.8571 56.4571 40.9143 56.4571 43.4285C56.4571 45.9428 54.4 48 51.8857 48ZM12.5714 41.6C11.5657 41.6 10.7429 42.4228 10.7429 43.4285C10.7429 44.4343 11.5657 45.2571 12.5714 45.2571H51.8857C52.8914 45.2571 53.7143 44.4343 53.7143 43.4285C53.7143 42.4228 52.8914 41.6 51.8857 41.6H12.5714Z" fill="#444B54"/>
<path d="M51.8857 41.6C51.2 41.6 50.6057 41.0514 50.5143 40.3657L48.64 21.6229C48.4572 19.9771 47.0857 18.7429 45.44 18.7429H18.9715C17.3257 18.7429 15.9543 19.9771 15.7715 21.6229L14.3543 35.7943C14.2629 36.5257 13.6229 37.0743 12.8457 37.0286C12.1143 36.9371 11.52 36.2971 11.6115 35.52L13.0286 21.3486C13.3943 18.2857 15.9086 16 18.9715 16H45.4857C48.5486 16 51.1086 18.2857 51.3829 21.3486L53.2572 40.0914C53.3486 40.8229 52.8 41.5086 52.0229 41.6C51.9772 41.6 51.9315 41.6 51.8857 41.6Z" fill="#444B54"/>
<path d="M25.3714 24.2286H20.8V28.8H25.3714V24.2286Z" fill="#444B54"/>
<path d="M34.5143 24.2286H29.9429V28.8H34.5143V24.2286Z" fill="#444B54"/>
<path d="M29.9429 28.8H25.3714V33.3714H29.9429V28.8Z" fill="#444B54"/>
<path d="M43.6572 24.2286H39.0857V28.8H43.6572V24.2286Z" fill="#444B54"/>
<path d="M39.0857 28.8H34.5143V33.3714H39.0857V28.8Z" fill="#444B54"/>
</g>
<defs>
<clipPath id="clip0_3112_13530">
<rect width="48.4571" height="32" fill="white" transform="translate(8 16)"/>
</clipPath>
</defs>
</svg>
