<svg width="70" height="70" viewBox="0 0 70 70" fill="none" xmlns="http://www.w3.org/2000/svg">
<g id="Frame 112">
<rect width="70" height="70" rx="12" fill="url(#paint0_linear_8076_572)"/>
<g id="Group" filter="url(#filter0_d_8076_572)">
<path id="Vector" d="M36.7048 47.4318C36.4086 47.6729 36.1109 47.8623 35.8114 48.0054C35.6079 48.0271 35.4031 48.043 35.1972 48.0551V45.6675C34.7048 45.2645 34.2096 44.846 33.7127 44.416V48.0555C33.5069 48.043 33.3021 48.027 33.0991 48.0053C32.7995 47.8622 32.5014 47.6728 32.2052 47.4317C31.2397 46.646 30.3361 45.3196 29.6432 43.6125H32.7986C32.2607 43.1317 31.7224 42.6364 31.1842 42.1281H29.1242C28.8782 41.31 28.6802 40.4277 28.5294 39.5023C27.9433 38.8959 27.3741 38.288 26.8212 37.6811C26.9454 39.2612 27.2001 40.7601 27.5794 42.1281H23.7877C22.7261 40.4122 22.0679 38.4234 21.9432 36.2866H25.5832C25.1532 35.7899 24.7347 35.2945 24.3322 34.8022H21.9433C21.9945 33.9266 22.14 33.078 22.3608 32.2609C21.8568 31.5734 21.3842 30.8959 20.9484 30.2324C20.3004 31.8782 19.9404 33.669 19.9404 35.5449C19.9409 43.5612 26.4381 50.058 34.4546 50.0585C36.3299 50.0585 38.1207 49.6985 39.7659 49.051C38.8822 48.4697 37.9727 47.8237 37.0479 47.1235C36.9343 47.2332 36.8203 47.3376 36.7048 47.4318ZM25.5911 44.4084C25.3369 44.1542 25.0952 43.8875 24.8638 43.6125H28.0612C28.2994 44.262 28.5613 44.8805 28.8546 45.4487C29.2001 46.1165 29.5828 46.7239 30.0007 47.2622C28.3317 46.6277 26.8329 45.6493 25.5911 44.4084Z" fill="white"/>
<path id="Vector_2" d="M23.9026 25.5845C24.2196 26.1523 24.58 26.7438 24.9768 27.353C25.1749 27.123 25.3759 26.8959 25.5909 26.6809C26.8352 25.4376 28.3375 24.4571 30.0103 23.8227C29.2328 24.821 28.579 26.0595 28.0587 27.4763H25.0556C25.3735 27.9604 25.7161 28.4562 26.079 28.9606H27.5832C27.4465 29.453 27.329 29.9653 27.2232 30.489C27.6209 31.0003 28.037 31.5173 28.4699 32.0382C28.626 30.9471 28.8453 29.9106 29.1315 28.9606H33.7127V34.8021H30.8927C31.3513 35.2983 31.821 35.7936 32.3018 36.2865H33.7127V37.6975C34.2056 38.1778 34.7009 38.6485 35.1972 39.1065V36.2865H40.6816C40.6207 38.4175 40.2975 40.4064 39.779 42.128H38.6922C39.4055 42.7025 40.1095 43.2433 40.7981 43.7453C40.815 43.6998 40.8348 43.6583 40.8517 43.6124H44.0462C43.8143 43.8873 43.5731 44.1541 43.319 44.4083C43.1044 44.6228 42.8792 44.8267 42.6492 45.0248C43.2576 45.421 43.848 45.7805 44.4144 46.0975C47.2175 43.4515 48.9696 39.7037 48.9696 35.5448C48.969 27.5285 42.4713 21.0308 34.4545 21.0303C30.2955 21.0308 26.5487 22.7824 23.9026 25.5845ZM45.1222 42.1281H41.3266C41.8166 40.362 42.1133 38.3856 42.1708 36.2866H46.9667C46.842 38.4234 46.1838 40.4122 45.1222 42.1281ZM45.1212 28.9606C46.1833 30.6765 46.8415 32.6659 46.9666 34.8021H42.1659C42.1079 32.705 41.82 30.7258 41.33 28.9606H45.1212ZM43.3183 26.6809C43.5725 26.9351 43.8136 27.2013 44.0451 27.4763H40.8487C40.6105 26.8273 40.3481 26.2088 40.0553 25.6406C39.7098 24.9733 39.3271 24.3659 38.9096 23.8271C40.5781 24.4615 42.0766 25.4405 43.3183 26.6809ZM35.1971 23.0336C35.4034 23.0462 35.6083 23.0621 35.8117 23.0839C36.1113 23.2265 36.4085 23.4159 36.7047 23.657C37.6702 24.4422 38.5733 25.7691 39.2662 27.4762H35.1971V23.0336ZM35.1971 28.9606H39.7851C40.3036 30.6818 40.625 32.6731 40.6863 34.8021H35.1971V28.9606ZM32.2051 23.657C32.5013 23.4158 32.7985 23.2265 33.0981 23.0834C33.3015 23.0616 33.5064 23.0457 33.7127 23.0331V27.4763H29.6513C29.8151 27.0718 29.9872 26.6814 30.1732 26.3219C30.7695 25.166 31.4711 24.2566 32.2051 23.657Z" fill="white"/>
<path id="Vector_3" d="M50.4409 45.5156C50.1404 44.7053 49.7229 43.8293 49.2117 42.9005C48.8623 43.5973 48.4661 44.2675 48.0254 44.9044C48.2491 45.3668 48.4366 45.8017 48.5849 46.2028C48.8869 47.0121 49.0232 47.6871 49.0208 48.1385C49.0208 48.3526 48.9922 48.5134 48.955 48.6217C48.9174 48.7304 48.8777 48.787 48.8323 48.8339C48.7864 48.8783 48.7303 48.9174 48.6211 48.9556C48.5134 48.9923 48.3525 49.0208 48.1384 49.0208C47.7122 49.0228 47.086 48.9024 46.3365 48.6343C45.5856 48.368 44.7096 47.9606 43.7485 47.4263C40.4535 45.5949 36.1737 42.2694 31.9539 38.0467C27.7311 33.8269 24.4057 29.5471 22.5738 26.2516C22.0394 25.2904 21.6326 24.4149 21.3658 23.6639C21.0981 22.9145 20.9773 22.2883 20.9792 21.8621C20.9792 21.6475 21.0083 21.4866 21.045 21.3793C21.0827 21.2701 21.1219 21.2146 21.1667 21.1682C21.2141 21.1223 21.2701 21.0826 21.3794 21.045C21.4871 21.0083 21.648 20.9792 21.8631 20.9792C22.3139 20.9769 22.9889 21.1131 23.7969 21.4142C24.1994 21.563 24.6362 21.7514 25.1011 21.9756C25.738 21.5349 26.4067 21.1387 27.104 20.7894C26.1733 20.2766 25.2954 19.8587 24.4836 19.5581C23.5336 19.2088 22.6711 19.0029 21.8631 19C21.4789 19.0006 21.1039 19.0489 20.7444 19.1702C20.3859 19.2909 20.0437 19.491 19.7669 19.7693C19.4895 20.0452 19.2899 20.3869 19.1701 20.7449C19.0488 21.1039 19.0005 21.4784 19 21.8621C19.0024 22.6256 19.1865 23.4369 19.5011 24.3265C19.8171 25.2151 20.2698 26.1796 20.8444 27.2137C22.8129 30.7464 26.2264 35.1161 30.5544 39.4461C34.8845 43.7742 39.2542 47.1876 42.7864 49.1562C43.8209 49.7307 44.7854 50.1834 45.6741 50.4995C46.5636 50.8136 47.3749 50.9977 48.1384 51.0001C48.5221 51.0001 48.8966 50.9513 49.2556 50.8305C49.6132 50.7102 49.9548 50.5111 50.2312 50.2338C50.5096 49.9564 50.7096 49.6142 50.8299 49.2567C50.9512 48.8972 50.9996 48.5222 51 48.1386C50.9971 47.3296 50.7912 46.4666 50.4409 45.5156Z" fill="white"/>
</g>
</g>
<defs>
<filter id="filter0_d_8076_572" x="11" y="15" width="48" height="48" filterUnits="userSpaceOnUse" color-interpolation-filters="sRGB">
<feFlood flood-opacity="0" result="BackgroundImageFix"/>
<feColorMatrix in="SourceAlpha" type="matrix" values="0 0 0 0 0 0 0 0 0 0 0 0 0 0 0 0 0 0 127 0" result="hardAlpha"/>
<feOffset dy="4"/>
<feGaussianBlur stdDeviation="4"/>
<feComposite in2="hardAlpha" operator="out"/>
<feColorMatrix type="matrix" values="0 0 0 0 0 0 0 0 0 0 0 0 0 0 0 0 0 0 0.25 0"/>
<feBlend mode="normal" in2="BackgroundImageFix" result="effect1_dropShadow_8076_572"/>
<feBlend mode="normal" in="SourceGraphic" in2="effect1_dropShadow_8076_572" result="shape"/>
</filter>
<linearGradient id="paint0_linear_8076_572" x1="35" y1="0" x2="35" y2="70" gradientUnits="userSpaceOnUse">
<stop stop-color="#9F64FF"/>
<stop offset="1" stop-color="#332052"/>
</linearGradient>
</defs>
</svg>
