<svg width="70" height="70" viewBox="0 0 70 70" fill="none" xmlns="http://www.w3.org/2000/svg">
<g id="Frame 112">
<rect width="70" height="70" rx="12" fill="url(#paint0_linear_8316_583)"/>
<g id="Group" filter="url(#filter0_d_8316_583)">
<g id="Group_2">
<g id="Group_3">
<path id="Vector" d="M22.4189 28.0254C20.8728 28.322 19.7209 28.771 19.6645 28.7932C19.1655 28.9896 18.8952 29.5308 19.038 30.0476C19.119 30.3406 21.0846 37.2878 26.6553 42.8584C26.7799 42.983 26.9054 43.1052 27.0314 43.2263C25.763 45.1754 25.9825 47.8172 27.6911 49.5257C29.6571 51.4917 32.8388 51.4918 34.8049 49.5257C35.0092 49.3215 35.1908 49.1033 35.3525 48.8751C37.6609 49.9659 39.3259 50.4369 39.4662 50.4756C39.9832 50.6185 40.5243 50.3479 40.7206 49.8492C40.7429 49.7926 41.1919 48.6408 41.4885 47.0948C32.4234 44.2101 25.3036 37.0903 22.4189 28.0254Z" fill="white"/>
<path id="Vector_2" d="M49.4452 20.0682C48.0211 18.644 45.716 18.6439 44.2916 20.0682L42.8574 21.5024C41.5504 20.914 40.1218 20.6039 38.6455 20.6039C35.9039 20.6039 33.3263 21.6715 31.3877 23.61L30.8597 24.138C29.8264 25.1714 28.6523 26.0121 27.3733 26.6429C29.7699 33.9776 35.5358 39.7435 42.8705 42.1401C43.5027 40.8596 44.3465 39.6825 45.3843 38.6447L45.9033 38.1257C47.8419 36.1871 48.9095 33.6095 48.9095 30.8679C48.9095 29.3916 48.5994 27.9631 48.011 26.656L49.4451 25.2219C50.8693 23.7978 50.8697 21.4925 49.4452 20.0682Z" fill="white"/>
</g>
</g>
</g>
</g>
<defs>
<filter id="filter0_d_8316_583" x="11" y="15" width="47.5134" height="48" filterUnits="userSpaceOnUse" color-interpolation-filters="sRGB">
<feFlood flood-opacity="0" result="BackgroundImageFix"/>
<feColorMatrix in="SourceAlpha" type="matrix" values="0 0 0 0 0 0 0 0 0 0 0 0 0 0 0 0 0 0 127 0" result="hardAlpha"/>
<feOffset dy="4"/>
<feGaussianBlur stdDeviation="4"/>
<feComposite in2="hardAlpha" operator="out"/>
<feColorMatrix type="matrix" values="0 0 0 0 0 0 0 0 0 0 0 0 0 0 0 0 0 0 0.25 0"/>
<feBlend mode="normal" in2="BackgroundImageFix" result="effect1_dropShadow_8316_583"/>
<feBlend mode="normal" in="SourceGraphic" in2="effect1_dropShadow_8316_583" result="shape"/>
</filter>
<linearGradient id="paint0_linear_8316_583" x1="35" y1="0" x2="35" y2="70" gradientUnits="userSpaceOnUse">
<stop stop-color="#FFD027"/>
<stop offset="1" stop-color="#7A6413"/>
</linearGradient>
</defs>
</svg>
