<svg width="20" height="20" viewBox="0 0 20 20" fill="none" xmlns="http://www.w3.org/2000/svg">
<g id="bank-note-01">
<path id="Icon" d="M5.00008 9.16683V12.5002M15.0001 7.50016V10.8335M14.1667 3.3335C16.2073 3.3335 17.311 3.6458 17.8602 3.88803C17.9333 3.92029 17.9699 3.93642 18.0754 4.03714C18.1387 4.09751 18.2542 4.27466 18.2839 4.3569C18.3334 4.49411 18.3334 4.56911 18.3334 4.71911V13.6761C18.3334 14.4334 18.3334 14.8121 18.2198 15.0067C18.1043 15.2047 17.9929 15.2967 17.7767 15.3728C17.5641 15.4476 17.1351 15.3652 16.2769 15.2003C15.6762 15.0849 14.9638 15.0002 14.1667 15.0002C11.6667 15.0002 9.16675 16.6668 5.83341 16.6668C3.79283 16.6668 2.68914 16.3545 2.13998 16.1123C2.06685 16.08 2.03028 16.0639 1.92475 15.9632C1.86149 15.9028 1.74601 15.7257 1.71631 15.6434C1.66675 15.5062 1.66675 15.4312 1.66675 15.2812L1.66675 6.32421C1.66675 5.5669 1.66675 5.18825 1.78031 4.99362C1.89583 4.79563 2.00724 4.70359 2.22346 4.62751C2.43603 4.55271 2.86511 4.63515 3.72327 4.80004C4.32393 4.91545 5.03631 5.00016 5.83341 5.00016C8.33341 5.00016 10.8334 3.3335 14.1667 3.3335ZM12.0834 10.0002C12.0834 11.1508 11.1507 12.0835 10.0001 12.0835C8.84949 12.0835 7.91675 11.1508 7.91675 10.0002C7.91675 8.84957 8.84949 7.91683 10.0001 7.91683C11.1507 7.91683 12.0834 8.84957 12.0834 10.0002Z" stroke="black" stroke-width="1.66667" stroke-linecap="round" stroke-linejoin="round"/>
</g>
</svg>
