<svg width="20" height="20" viewBox="0 0 20 20" fill="none" xmlns="http://www.w3.org/2000/svg">
<g id="phone-02">
<path id="Icon" d="M12.5001 1.6665V2.83317C12.5001 3.29988 12.5001 3.53324 12.4093 3.7115C12.3294 3.8683 12.2019 3.99578 12.0451 4.07568C11.8668 4.1665 11.6335 4.1665 11.1667 4.1665H8.83341C8.3667 4.1665 8.13335 4.1665 7.95509 4.07568C7.79829 3.99578 7.6708 3.8683 7.59091 3.7115C7.50008 3.53324 7.50008 3.29988 7.50008 2.83317V1.6665M6.83341 18.3332H13.1667C14.1002 18.3332 14.5669 18.3332 14.9234 18.1515C15.237 17.9917 15.492 17.7368 15.6518 17.4232C15.8334 17.0666 15.8334 16.5999 15.8334 15.6665V4.33317C15.8334 3.39975 15.8334 2.93304 15.6518 2.57652C15.492 2.26292 15.237 2.00795 14.9234 1.84816C14.5669 1.6665 14.1002 1.6665 13.1667 1.6665H6.83341C5.89999 1.6665 5.43328 1.6665 5.07676 1.84816C4.76316 2.00795 4.50819 2.26292 4.3484 2.57652C4.16675 2.93304 4.16675 3.39975 4.16675 4.33317V15.6665C4.16675 16.5999 4.16675 17.0666 4.3484 17.4232C4.50819 17.7368 4.76316 17.9917 5.07676 18.1515C5.43328 18.3332 5.89999 18.3332 6.83341 18.3332Z" stroke="black" stroke-width="1.66667" stroke-linecap="round" stroke-linejoin="round"/>
</g>
</svg>
