<svg width="36" height="23" viewBox="0 0 36 23" fill="none" xmlns="http://www.w3.org/2000/svg">
<path d="M2.25017 17.7815C3.57667 17.7815 4.23817 18.6182 4.77011 19.2924C5.26367 19.9181 5.57517 20.2708 6.18767 20.2708C6.47113 20.2708 6.68817 20.1912 6.88767 20.0495C5.58211 18.9294 4.82264 17.3115 4.82264 15.576V15.0332C4.82264 13.799 5.83767 12.7964 7.08717 12.7964H28.9097C30.1592 12.7964 31.1742 13.799 31.1742 15.0332V15.576C31.1742 17.3114 30.4147 18.9294 29.1092 20.0495C29.3122 20.1913 29.5291 20.2708 29.8127 20.2708C30.4252 20.2708 30.7367 19.9182 31.2303 19.2924C31.7622 18.6183 32.4238 17.7815 33.7502 17.7815C34.1352 17.7815 34.4502 18.0927 34.4502 18.473C34.4502 18.8532 34.1352 19.1644 33.7502 19.1644C33.1377 19.1644 32.8262 19.517 32.3326 20.1428C31.8007 20.8169 31.1391 21.6536 29.8127 21.6536C28.4862 21.6536 27.8247 20.817 27.2928 20.1428C26.7992 19.5171 26.4877 19.1644 25.8752 19.1644C25.2627 19.1644 24.9547 19.517 24.4576 20.1428C23.9257 20.8169 23.2641 21.6536 21.9377 21.6536C20.6112 21.6536 19.9497 20.817 19.4178 20.1428C18.9242 19.5171 18.6127 19.1644 18.0002 19.1644C17.3877 19.1644 17.0762 19.517 16.5826 20.1428C16.0507 20.8169 15.3891 21.6536 14.0627 21.6536C12.7362 21.6536 12.0747 20.817 11.5428 20.1428C11.0492 19.5171 10.7377 19.1644 10.1252 19.1644C9.5127 19.1644 9.2012 19.517 8.70764 20.1428C8.1757 20.8169 7.51067 21.6536 6.1877 21.6536C4.8612 21.6536 4.1997 20.817 3.66776 20.1428C3.1742 19.5171 2.8627 19.1644 2.2502 19.1644C1.86523 19.1644 1.5502 18.8532 1.5502 18.473C1.5502 18.0927 1.86523 17.7815 2.2502 17.7815H2.25017ZM10.1287 17.7815C11.4552 17.7815 12.1167 18.6182 12.6486 19.2924C13.1422 19.9181 13.4537 20.2708 14.0662 20.2708C14.6787 20.2708 14.9902 19.9182 15.4837 19.2924C16.0157 18.6183 16.6773 17.7815 18.0037 17.7815C19.3302 17.7815 19.9917 18.6182 20.5236 19.2924C21.0172 19.9181 21.3287 20.2708 21.9412 20.2708C22.5537 20.2708 22.8616 19.9182 23.3587 19.2924C23.8907 18.6183 24.5523 17.7815 25.8787 17.7815C27.0302 17.7815 27.6777 18.4107 28.1782 19.0192C29.1861 18.1618 29.7777 16.9173 29.7777 15.5794V15.0366C29.7777 14.5664 29.3892 14.1827 28.9131 14.1827H7.09064C6.61464 14.1827 6.22611 14.5664 6.22611 15.0366V15.5794C6.22611 16.9173 6.81764 18.1654 7.82561 19.0227C8.32611 18.4142 8.97711 17.7815 10.1286 17.7815L10.1287 17.7815Z" fill="white"/>
<path d="M9.35159 11.8526C8.96661 11.8526 8.65159 11.5414 8.65159 11.1611C8.65159 5.75071 13.1071 1.34631 18.5881 1.34631C18.9731 1.34631 19.2881 1.65749 19.2881 2.03774V11.1611C19.2881 11.5414 18.9731 11.8526 18.5881 11.8526H9.35159ZM17.8881 2.75683C13.7371 3.0922 10.4191 6.36954 10.0796 10.4697H17.8881V2.75683Z" fill="white"/>
<path d="M21.1362 11.8525C20.7512 11.8525 20.4362 11.5413 20.4362 11.1611V5.71609C20.4362 5.33583 20.7512 5.02466 21.1362 5.02466C24.5592 5.02466 27.3452 7.77654 27.3452 11.1576C27.3452 11.5379 27.0302 11.8491 26.6452 11.8491L21.1362 11.8492V11.8525ZM21.8362 6.45937V10.4697H25.8962C25.5918 8.39886 23.9293 6.76014 21.8362 6.45937Z" fill="white"/>
</svg>
