<svg width="16" height="16" viewBox="0 0 16 16" fill="none" xmlns="http://www.w3.org/2000/svg">
<path d="M14.395 2.5H7.71C7.13688 2.5003 6.57018 2.62082 6.04654 2.85379C5.5229 3.08676 5.05395 3.42699 4.67 3.8525L1.485 7.38C1.01086 7.90601 0.748936 8.58934 0.750003 9.2975V11.0625C0.750003 11.45 0.750003 12.265 0.750003 12.6575C0.750003 12.8843 0.840083 13.1017 1.00043 13.2621C1.16077 13.4224 1.37824 13.5125 1.605 13.5125H14.395C14.6218 13.5125 14.8392 13.4224 14.9996 13.2621C15.1599 13.1017 15.25 12.8843 15.25 12.6575C15.25 12.26 15.25 11.4525 15.25 11.0625V3.3425C15.2467 3.11791 15.1552 2.90364 14.9952 2.74599C14.8352 2.58834 14.6196 2.49998 14.395 2.5ZM1.8575 7.715L5.0425 4.175C5.38035 3.80363 5.79228 3.50719 6.25173 3.30481C6.71118 3.10242 7.20795 2.99859 7.71 3H14.395C14.487 2.99994 14.5755 3.03562 14.6417 3.09952C14.7079 3.16342 14.7468 3.25053 14.75 3.3425V10.8125H1.25V9.2975C1.2493 8.71292 1.46581 8.14894 1.8575 7.715ZM14.75 11.5H1.25V11.3025H14.75V11.5ZM14.395 13H1.605C1.51298 13.0001 1.42453 12.9644 1.3583 12.9005C1.29207 12.8366 1.25324 12.7495 1.25 12.6575V12H14.75V12.6475C14.7513 12.695 14.7431 12.7422 14.7259 12.7864C14.7087 12.8307 14.6827 12.871 14.6496 12.905C14.6165 12.939 14.5769 12.9661 14.5332 12.9846C14.4895 13.003 14.4425 13.0125 14.395 13.0125V13Z" fill="white"/>
<path d="M13.47 8.78503H11.47C11.3015 8.78503 11.14 8.85194 11.0209 8.97102C10.9019 9.09011 10.835 9.25162 10.835 9.42003C10.835 9.58845 10.9019 9.74996 11.0209 9.86905C11.14 9.98813 11.3015 10.055 11.47 10.055H13.47C13.6384 10.055 13.7999 9.98813 13.919 9.86905C14.0381 9.74996 14.105 9.58845 14.105 9.42003C14.105 9.25162 14.0381 9.09011 13.919 8.97102C13.7999 8.85194 13.6384 8.78503 13.47 8.78503ZM13.47 9.55503H11.47C11.4342 9.55503 11.3998 9.54081 11.3745 9.51549C11.3492 9.49018 11.335 9.45584 11.335 9.42003C11.335 9.38423 11.3492 9.34989 11.3745 9.32457C11.3998 9.29926 11.4342 9.28503 11.47 9.28503H13.47C13.5058 9.28503 13.5401 9.29926 13.5654 9.32457C13.5907 9.34989 13.605 9.38423 13.605 9.42003C13.605 9.45584 13.5907 9.49018 13.5654 9.51549C13.5401 9.54081 13.5058 9.55503 13.47 9.55503Z" fill="white"/>
<path d="M3.96762 8.565C4.41012 8.565 13.5626 8.565 14.2501 8.565C14.3164 8.565 14.38 8.53866 14.4269 8.49178C14.4738 8.44489 14.5001 8.3813 14.5001 8.315V3.5C14.5001 3.4337 14.4738 3.37011 14.4269 3.32322C14.38 3.27634 14.3164 3.25 14.2501 3.25H7.71012C7.24242 3.25028 6.77999 3.34879 6.35277 3.53914C5.92556 3.72949 5.54309 4.00744 5.23012 4.355L3.37262 6.4175C3.35533 6.44242 3.33947 6.46829 3.32512 6.495C3.32512 6.525 3.32512 6.555 3.30762 6.585V7.915C3.31088 8.0881 3.38178 8.25304 3.50513 8.37453C3.62848 8.49601 3.79449 8.56438 3.96762 8.565ZM3.96762 8.065C3.92452 8.065 3.88319 8.04788 3.85271 8.0174C3.82224 7.98693 3.80512 7.9456 3.80512 7.9025V6.7975H6.02762L5.82512 7.5125C5.77965 7.67121 5.6839 7.81087 5.55226 7.9105C5.42063 8.01013 5.26021 8.06435 5.09512 8.065H3.96762ZM5.60012 4.6775C5.86756 4.38413 6.19348 4.15004 6.55689 3.99029C6.9203 3.83055 7.31315 3.74869 7.71012 3.75H14.0001V8.065H6.09762C6.31262 7.83 6.44012 7.1275 6.54012 6.83C6.55741 6.76779 6.56013 6.70242 6.54806 6.63899C6.53599 6.57555 6.50946 6.51575 6.47052 6.46424C6.43158 6.41272 6.38129 6.37088 6.32355 6.34196C6.26582 6.31305 6.20219 6.29783 6.13762 6.2975H4.13762L5.60012 4.6775Z" fill="white"/>
</svg>
