<svg width="24" height="21" viewBox="0 0 24 21" fill="none" xmlns="http://www.w3.org/2000/svg">
<g clip-path="url(#clip0_4140_16539)">
<path d="M20.2497 12.3047C20.7551 12.3047 21.1663 12.7095 21.1663 13.207C21.1663 13.7045 20.7551 14.1094 20.2497 14.1094H17.958C17.7053 14.1094 17.4997 13.907 17.4997 13.6582V12.7559C17.4997 12.5071 17.7053 12.3047 17.958 12.3047H20.2497ZM20.2497 11.4023H17.958C17.1986 11.4023 16.583 12.0083 16.583 12.7559V13.6582C16.583 14.4057 17.1986 15.0117 17.958 15.0117H20.2497C21.2622 15.0117 22.083 14.2037 22.083 13.207C22.083 12.2103 21.2622 11.4023 20.2497 11.4023Z" fill="white"/>
<path d="M6.0415 12.3047C6.29426 12.3047 6.49984 12.5071 6.49984 12.7559V13.6582C6.49984 13.907 6.29425 14.1094 6.0415 14.1094H3.74984C3.24442 14.1094 2.83317 13.7045 2.83317 13.207C2.83317 12.7095 3.24442 12.3047 3.74984 12.3047H6.0415ZM6.0415 11.4023H3.74984C2.7373 11.4023 1.9165 12.2103 1.9165 13.207C1.9165 14.2037 2.7373 15.0117 3.74984 15.0117H6.0415C6.80089 15.0117 7.4165 14.4057 7.4165 13.6582V12.7559C7.4165 12.0083 6.80089 11.4023 6.0415 11.4023Z" fill="white"/>
<path d="M23.9165 7.79297V6.89062C23.9165 6.39227 23.5061 5.98828 22.9998 5.98828H22.0134C21.1281 3.36619 19.5008 0.574219 16.5831 0.574219H7.4164C4.49871 0.574219 2.87145 3.36619 1.98607 5.98828H0.999687C0.493418 5.98828 0.0830201 6.39227 0.0830201 6.89062V7.79297C0.0830201 8.51756 0.52082 9.13416 1.14692 9.42058C1.11836 9.59503 1.09449 9.75322 1.07511 9.89035C0.228623 10.4519 0.0830078 11.2376 0.0830078 12.3048V17.7188C0.0830078 18.2172 0.493406 18.6212 0.999675 18.6212C0.999675 19.6179 1.82047 20.4259 2.83301 20.4259H4.66634C5.67888 20.4259 6.49967 19.6179 6.49967 18.6212H17.4997C17.4997 19.6179 18.3205 20.4259 19.333 20.4259H21.1663C22.1789 20.4259 22.9997 19.6179 22.9997 18.6212C23.5059 18.6212 23.9163 18.2172 23.9163 17.7188V12.3048C23.9163 11.2377 23.7707 10.452 22.9242 9.89035C22.9049 9.75312 22.8809 9.59494 22.8523 9.42039C23.4784 9.13409 23.9163 8.51749 23.9163 7.79297H23.9165ZM7.41645 1.47656H16.5831C18.4313 1.47656 19.9112 2.93667 20.9817 5.81647C21.482 7.16248 21.7682 8.51412 21.924 9.43403C20.2856 8.90814 17.3275 8.69553 11.9998 8.69553C6.67214 8.69553 3.71412 8.90814 2.07561 9.43403C2.23144 8.51412 2.51761 7.16258 3.01797 5.81647C4.08836 2.93667 5.56826 1.47656 7.4165 1.47656H7.41645ZM0.999785 7.79297V6.89062H1.70858C1.55064 7.44859 1.42661 7.97579 1.32817 8.45281C1.13319 8.29227 0.999785 8.06432 0.999785 7.79297ZM14.7498 17.7187H9.24979V15.9141H14.7498V17.7187ZM22.9998 12.3047V17.7187H22.0831V18.6211C22.0831 19.1186 21.6719 19.5234 21.1665 19.5234H19.3331C18.8277 19.5234 18.4165 19.1186 18.4165 18.6211V17.7187H15.6665V15.4629C15.6665 15.2137 15.4613 15.0117 15.2081 15.0117H8.79145C8.53833 15.0117 8.33312 15.2137 8.33312 15.4629V17.7187H5.58312V18.6211C5.58312 19.1186 5.17186 19.5234 4.66645 19.5234H2.83312C2.3277 19.5234 1.91645 19.1186 1.91645 18.6211V17.7187H0.999785V12.3047C0.999785 10.5024 0.999785 9.59766 11.9998 9.59766C22.9998 9.59766 22.9998 10.5024 22.9998 12.3047ZM22.9998 7.79297C22.9998 8.06432 22.8665 8.29226 22.6714 8.45281C22.5731 7.97579 22.4489 7.44859 22.291 6.89062H22.9998V7.79297Z" fill="white"/>
</g>
<defs>
<clipPath id="clip0_4140_16539">
<rect width="24" height="21" fill="white"/>
</clipPath>
</defs>
</svg>
