<svg width="15" height="15" viewBox="0 0 15 15" fill="none" xmlns="http://www.w3.org/2000/svg">
<path d="M13.6575 5.122H12.769C12.609 5.12213 12.4556 5.18575 12.3424 5.2989C12.2293 5.41205 12.1656 5.56548 12.1655 5.7255V6.516H10.823L9.6145 4.32C9.54727 4.19601 9.44781 4.09248 9.32663 4.02032C9.20545 3.94815 9.06704 3.91004 8.926 3.91H7.3665V2.11999H9.036C9.13546 2.11999 9.23084 2.08049 9.30116 2.01016C9.37149 1.93983 9.411 1.84445 9.411 1.745C9.411 1.64554 9.37149 1.55016 9.30116 1.47983C9.23084 1.4095 9.13546 1.37 9.036 1.37H4.95C4.85054 1.37 4.75516 1.4095 4.68483 1.47983C4.61451 1.55016 4.575 1.64554 4.575 1.745C4.575 1.84445 4.61451 1.93983 4.68483 2.01016C4.75516 2.08049 4.85054 2.11999 4.95 2.11999H6.619V3.91H5.278C5.08033 3.91045 4.8875 3.9712 4.72525 4.08413C4.56301 4.19705 4.43908 4.35678 4.37 4.542L4.1175 5.223H2.687C2.47902 5.22313 2.27961 5.30584 2.1326 5.45295C1.98558 5.60005 1.903 5.79952 1.903 6.0075V7.75H0.875V5.33549C0.875 5.23604 0.835491 5.14066 0.765165 5.07033C0.694839 5 0.599456 4.9605 0.5 4.9605C0.400544 4.9605 0.305161 5 0.234835 5.07033C0.164509 5.14066 0.125 5.23604 0.125 5.33549V10.911C0.125 11.0105 0.164509 11.1058 0.234835 11.1762C0.305161 11.2465 0.400544 11.286 0.5 11.286C0.599456 11.286 0.694839 11.2465 0.765165 11.1762C0.835491 11.1058 0.875 11.0105 0.875 10.911V8.5H1.903V10.423C1.90313 10.6309 1.98577 10.8302 2.13277 10.9772C2.27977 11.1242 2.47911 11.2069 2.687 11.207H4.1585L5.2875 13.229C5.35571 13.3508 5.4551 13.4523 5.57548 13.523C5.69586 13.5938 5.83288 13.6312 5.9725 13.6315H10.192C10.4 13.6314 10.5994 13.5487 10.7464 13.4015C10.8934 13.2544 10.976 13.055 10.976 12.847V10.947H12.1655V11.7775C12.1656 11.9375 12.2293 12.0909 12.3424 12.2041C12.4556 12.3172 12.609 12.3809 12.769 12.381H13.6575C13.8176 12.3809 13.9762 12.3492 14.1241 12.2877C14.272 12.2263 14.4063 12.1363 14.5193 12.0229C14.6324 11.9095 14.722 11.7749 14.7831 11.6268C14.8441 11.4788 14.8753 11.3201 14.875 11.16V6.3395C14.8747 6.01668 14.7464 5.70715 14.5181 5.47889C14.2898 5.25062 13.9803 5.12226 13.6575 5.122ZM5.943 12.8625L4.7065 10.65C4.67388 10.5918 4.62636 10.5432 4.56881 10.5094C4.51126 10.4756 4.44575 10.4577 4.379 10.4575H2.687C2.68252 10.4576 2.67807 10.4567 2.67391 10.455C2.66975 10.4534 2.66598 10.4509 2.66281 10.4477C2.65964 10.4445 2.65714 10.4407 2.65545 10.4366C2.65377 10.4324 2.65293 10.428 2.653 10.4235L2.687 5.9735H4.379C4.4553 5.97325 4.5297 5.9497 4.59225 5.90601C4.6548 5.86231 4.70251 5.80055 4.729 5.729L5.0735 4.8C5.0892 4.7584 5.11715 4.72255 5.15367 4.6972C5.19019 4.67184 5.23354 4.65817 5.278 4.658L8.9565 4.6775L10.226 6.9855V10.566L10.192 12.878L5.943 12.8625ZM10.976 10.193V7.266H12.1655V10.193H10.976ZM14.126 11.16C14.1259 11.2839 14.0766 11.4027 13.9889 11.4902C13.9012 11.5778 13.7824 11.627 13.6585 11.627H12.9155V5.872H13.6575C13.7815 5.872 13.9004 5.92125 13.9881 6.00892C14.0757 6.0966 14.125 6.21551 14.125 6.3395L14.126 11.16Z" fill="white"/>
</svg>
