<svg width="16" height="16" viewBox="0 0 16 16" fill="none" xmlns="http://www.w3.org/2000/svg">
<path d="M4.8002 12V6.80005H8.0002V12H4.8002ZM4.8002 6.00005V4.81605C4.8002 4.34405 5.1442 4.00005 5.6162 4.00005H7.1842C7.6562 4.00005 8.0002 4.34405 8.0002 4.81605V6.00005H4.8002ZM10.0002 10.12C10.0002 12.112 12.8002 12.104 12.8002 10.12V6.00005C12.8002 4.89605 11.9042 4.00005 10.8002 4.00005H10.4002V4.80005H10.8002C11.4642 4.80005 12.0002 5.33605 12.0002 6.00005V10.12C12.0002 11.088 10.8002 11.08 10.8002 10.12V8.00005C10.8002 6.89605 9.9042 6.00005 8.8002 6.00005H8.4002V6.80805H8.8002C9.4642 6.80805 10.0002 7.34405 10.0002 8.00005V10.12ZM3.2002 12.8H9.6002V12.016H8.8002V4.83205C8.8002 3.88805 8.1122 3.20005 7.1682 3.20005H5.6322C4.6882 3.20005 4.0002 3.88805 4.0002 4.83205V12.016H3.2002V12.8Z" fill="white"/>
</svg>
