<svg width="24" height="23" viewBox="0 0 24 23" fill="none" xmlns="http://www.w3.org/2000/svg">
<g clip-path="url(#clip0_4140_15503)">
<path d="M22.7069 4.2878L22.7304 4.31124C22.9235 4.50435 22.9235 4.81811 22.7304 5.01122C22.5372 5.20433 22.2235 5.20434 22.0304 5.01121L20.6095 3.59031L20.0612 4.13854C20.0554 5.18093 19.6825 6.30346 19.0684 7.44898L22.7069 4.2878ZM22.7069 4.2878L22.706 4.28748M22.7069 4.2878L22.706 4.28748M22.706 4.28748C21.9277 3.50874 21.149 2.73022 20.3703 1.9516C19.9763 1.55773 19.5824 1.16383 19.1884 0.769867C19.1884 0.769866 19.1884 0.769865 19.1884 0.769864L19.0823 0.87593L22.706 4.28748ZM1.37483 15.1678L1.26877 15.0617L1.26877 15.0617L2.4038 13.9267L2.40449 13.926C2.55251 13.7799 2.78439 13.737 2.97989 13.8372L2.98005 13.8373L5.06756 14.9106C5.32608 14.5862 5.60084 14.2462 5.88927 13.8937L5.88942 13.8935C6.57166 13.0623 7.33012 12.1708 8.13348 11.2775L2.55682 5.70087C2.36371 5.50775 2.3637 5.194 2.55683 5.00089L2.55689 5.00082C3.57647 3.98263 4.9185 3.47342 6.25855 3.47342C7.58927 3.47342 8.92159 3.97573 9.93748 4.9795L9.95662 4.99739L9.96031 5.00084L9.96025 5.00091L12.1825 7.22314C13.2864 6.25314 14.4828 5.3157 15.7728 4.58397L15.7728 4.58396C17.015 3.87951 18.2345 3.44456 19.3611 3.43894L19.9093 2.89075L3.0918 18.954L3.09181 18.954C3.21022 19.2847 3.40905 19.589 3.65883 19.8388M1.37483 15.1678C1.24029 15.3023 1.24029 15.5211 1.37483 15.6556L3.27578 17.5566M1.37483 15.1678L2.50986 14.0327L1.37483 15.1678ZM3.27578 17.5566L3.13961 17.4937C3.12469 17.526 3.11082 17.5584 3.09796 17.5909L3.16971 17.6626L3.27578 17.5566ZM3.27578 17.5566C3.07019 18.0017 3.07917 18.4736 3.23303 18.9035C3.34347 19.2119 3.52975 19.4976 3.76506 19.7329M3.76506 19.7329L3.65883 19.8388M3.76506 19.7329L3.65899 19.8389C3.65894 19.8389 3.65888 19.8388 3.65883 19.8388M3.76506 19.7329C3.99897 19.9675 4.28601 20.1545 4.59515 20.2656C5.02573 20.4194 5.49905 20.4291 5.94341 20.2242M3.65883 19.8388L7.73829 22.2312C7.9314 22.4243 8.24515 22.4243 8.43827 22.2312L9.5733 21.0962C9.73692 20.9326 9.7608 20.6833 9.64884 20.4936M5.94341 20.2242L5.83734 20.3302L5.90903 20.4019C5.94154 20.3891 5.97395 20.3753 6.00622 20.3604L5.94341 20.2242ZM5.94341 20.2242L7.84436 22.1251C7.97889 22.2597 8.19767 22.2597 8.33221 22.1251L9.46724 20.9901C9.58179 20.8755 9.59833 20.6996 9.51762 20.5664M9.51762 20.5664L9.65103 20.4978L9.64884 20.4936M9.51762 20.5664L8.39982 18.3921M9.51762 20.5664L9.64591 20.4887C9.6469 20.4903 9.64787 20.4919 9.64884 20.4936M9.64884 20.4936L8.39982 18.3921M8.39982 18.3921C8.5792 18.2493 8.76414 18.1017 8.95318 17.9491C9.96269 17.1342 11.0916 16.1862 12.228 15.1594L17.9054 20.8368M8.39982 18.3921L17.9054 20.8368M17.9054 20.8368C18.0399 20.9713 18.2587 20.9713 18.3932 20.8368C19.382 19.848 19.8767 18.5445 19.8767 17.2411C19.8767 15.9389 19.382 14.6356 18.3932 13.6455L16.0714 11.3236L17.9054 20.8368ZM8.83409 11.9774L11.5231 14.6664C10.4451 15.6349 9.38105 16.5276 8.42916 17.296L8.42913 17.296C7.5589 17.9989 6.67229 18.6873 5.7747 19.3551L5.75201 19.3711C5.73626 19.3802 5.72177 19.3899 5.70794 19.4002C5.4438 19.5658 5.15036 19.5749 4.87766 19.4776C4.6898 19.4098 4.51036 19.2929 4.35976 19.1417C4.20958 18.9909 4.09192 18.8106 4.02416 18.6215C3.92564 18.3466 3.93599 18.0503 4.10463 17.7865C4.10481 17.7862 4.10499 17.7859 4.10517 17.7856L4.12523 17.7552L4.14476 17.728C4.14503 17.7276 4.14529 17.7273 4.14555 17.7269C4.9533 16.6404 5.79263 15.567 6.65264 14.5204L6.65266 14.5204C7.31021 13.7198 8.04519 12.8556 8.83409 11.9774ZM6.75845 19.8512C7.06713 19.6188 7.41685 19.3516 7.79856 19.0549L8.61865 20.6499L8.08789 21.1807L6.75845 19.8512ZM17.8 14.2394L17.8439 14.2833H17.844C18.6391 15.1018 19.0374 16.1705 19.0374 17.241C19.0374 18.1736 18.7344 19.1062 18.1297 19.8724L3.62795 5.37065C4.394 4.76595 5.32603 4.463 6.25941 4.463C7.34167 4.463 8.42217 4.87028 9.24485 5.68347C10.3835 6.82217 11.5221 7.96094 12.6607 9.09971C14.3738 10.813 16.0869 12.5263 17.8 14.2394ZM12.8841 7.92369C13.7736 7.14498 14.6683 6.44633 15.5413 5.88092C16.2373 5.91364 16.7327 6.1092 17.0567 6.43809L17.0567 6.4381C17.3826 6.76881 17.5739 7.27226 17.6168 7.96368C17.0524 8.83501 16.3548 9.72853 15.5772 10.6167L12.8841 7.92369ZM17.761 5.74528C17.5032 5.48357 17.1925 5.282 16.83 5.14031C17.6214 4.7482 18.3723 4.50196 19.0594 4.44117C18.9983 5.13205 18.7498 5.88737 18.3544 6.68321C18.215 6.32055 18.0179 6.00667 17.7611 5.74538L17.761 5.74528ZM2.84974 14.8818L4.44585 15.7021C4.14866 16.0843 3.88127 16.4337 3.64874 16.7424L2.31896 15.4126L2.84974 14.8818Z" fill="white" stroke="white" stroke-width="0.3"/>
</g>
<defs>
<clipPath id="clip0_4140_15503">
<rect width="23" height="23" fill="white" transform="translate(0.5)"/>
</clipPath>
</defs>
</svg>
