<svg width="30" height="23" viewBox="0 0 30 23" fill="none" xmlns="http://www.w3.org/2000/svg">
<path d="M0 6C0 4.34315 1.34315 3 3 3H27C28.6569 3 30 4.34315 30 6V20C30 21.6569 28.6569 23 27 23H3C1.34315 23 0 21.6569 0 20V6Z" fill="#99999A"/>
<path d="M20.8964 2.84453C20.9407 2.91099 20.893 3 20.8131 3H9.18685C9.10698 3 9.05934 2.91099 9.10365 2.84453L10.7031 0.4453C10.8886 0.167101 11.2008 0 11.5352 0H18.4648C18.7992 0 19.1114 0.167101 19.2969 0.4453L20.8964 2.84453Z" fill="#99999A"/>
<circle cx="15" cy="13" r="6" stroke="#FFFCFC" stroke-width="2"/>
<circle cx="23.5" cy="7.5" r="1.5" fill="white"/>
</svg>
