<svg width="40" height="40" viewBox="0 0 40 40" fill="none" xmlns="http://www.w3.org/2000/svg">
<path d="M35.9 5H5.1C4.80826 5 4.52848 5.1159 4.32218 5.32218C4.1159 5.52848 4 5.80826 4 6.1C4 6.39174 4.1159 6.67152 4.32218 6.87781C4.52848 7.08409 4.80826 7.19999 5.1 7.19999H8.4V32.5C8.4 33.2222 8.54226 33.9374 8.81866 34.6046C9.09506 35.272 9.5002 35.8782 10.0109 36.389C10.5216 36.8998 11.1279 37.3048 11.7952 37.5812C12.4625 37.8576 13.1777 38 13.9 38H27.1C27.8222 38 28.5374 37.8576 29.2048 37.5812C29.872 37.3048 30.4784 36.8998 30.989 36.389C31.4998 35.8782 31.905 35.272 32.1814 34.6046C32.4578 33.9374 32.6 33.2222 32.6 32.5V7.19999H35.9C36.1918 7.19999 36.4716 7.08409 36.6778 6.87781C36.8842 6.67152 37 6.39174 37 6.1C37 5.80826 36.8842 5.52848 36.6778 5.32218C36.4716 5.1159 36.1918 5 35.9 5ZM30.4 32.5C30.4 33.3752 30.0524 34.2144 29.4334 34.8334C28.8146 35.4522 27.9752 35.8 27.1 35.8H13.9C13.0248 35.8 12.1854 35.4522 11.5665 34.8334C10.9477 34.2144 10.6 33.3752 10.6 32.5V7.19999H30.4V32.5Z" fill="#EEEEEE"/>
<path d="M16.1 3H24.9C25.1918 3 25.4716 2.89464 25.6778 2.70711C25.8842 2.51956 26 2.26522 26 2C26 1.73478 25.8842 1.48044 25.6778 1.29289C25.4716 1.10536 25.1918 1 24.9 1H16.1C15.8083 1 15.5285 1.10536 15.3222 1.29289C15.1159 1.48044 15 1.73478 15 2C15 2.26522 15.1159 2.51956 15.3222 2.70711C15.5285 2.89464 15.8083 3 16.1 3Z" fill="#EEEEEE"/>
<path d="M17 29C17.2653 29 17.5196 28.8872 17.7071 28.6862C17.8947 28.4853 18 28.2128 18 27.9286V15.0714C18 14.7872 17.8947 14.5147 17.7071 14.3138C17.5196 14.1129 17.2653 14 17 14C16.7347 14 16.4804 14.1129 16.2929 14.3138C16.1055 14.5147 16 14.7872 16 15.0714V27.9286C16 28.2128 16.1055 28.4853 16.2929 28.6862C16.4804 28.8872 16.7347 29 17 29Z" fill="#EEEEEE"/>
<path d="M24 29C24.2653 29 24.5196 28.8872 24.7071 28.6862C24.8947 28.4853 25 28.2128 25 27.9286V15.0714C25 14.7872 24.8947 14.5147 24.7071 14.3138C24.5196 14.1129 24.2653 14 24 14C23.7347 14 23.4804 14.1129 23.2929 14.3138C23.1055 14.5147 23 14.7872 23 15.0714V27.9286C23 28.2128 23.1055 28.4853 23.2929 28.6862C23.4804 28.8872 23.7347 29 24 29Z" fill="#EEEEEE"/>
</svg>
