<svg width="25" height="25" viewBox="0 0 25 25" fill="none" xmlns="http://www.w3.org/2000/svg">
<path d="M2.08325 12.5H5.20825" stroke="#99999A" stroke-width="2" stroke-linecap="round" stroke-linejoin="round"/>
<path d="M19.7917 12.5H22.9167" stroke="#99999A" stroke-width="2" stroke-linecap="round" stroke-linejoin="round"/>
<path d="M12.5 2.08333V5.20833" stroke="#99999A" stroke-width="2" stroke-linecap="round" stroke-linejoin="round"/>
<path d="M12.5 19.7917V22.9167" stroke="#99999A" stroke-width="2" stroke-linecap="round" stroke-linejoin="round"/>
<path d="M12.4999 19.7917C16.527 19.7917 19.7916 16.5271 19.7916 12.5C19.7916 8.47292 16.527 5.20833 12.4999 5.20833C8.47284 5.20833 5.20825 8.47292 5.20825 12.5C5.20825 16.5271 8.47284 19.7917 12.4999 19.7917Z" stroke="#99999A" stroke-width="2" stroke-linecap="round" stroke-linejoin="round"/>
<path d="M12.5 15.625C14.2259 15.625 15.625 14.2259 15.625 12.5C15.625 10.7741 14.2259 9.375 12.5 9.375C10.7741 9.375 9.375 10.7741 9.375 12.5C9.375 14.2259 10.7741 15.625 12.5 15.625Z" stroke="#99999A" stroke-width="2" stroke-linecap="round" stroke-linejoin="round"/>
</svg>
