<svg width="14" height="14" viewBox="0 0 14 14" fill="none" xmlns="http://www.w3.org/2000/svg">
<path d="M2.23535 3.82349H3.29418H11.7648" stroke="white" stroke-width="1.05882" stroke-linecap="round" stroke-linejoin="round"/>
<path d="M10.706 3.82346V11.2352C10.706 11.516 10.5944 11.7854 10.3958 11.9839C10.1973 12.1825 9.92795 12.294 9.64713 12.294H4.35301C4.0722 12.294 3.80288 12.1825 3.60431 11.9839C3.40574 11.7854 3.29419 11.516 3.29419 11.2352V3.82346M4.88242 3.82346V2.76463C4.88242 2.48382 4.99398 2.2145 5.19255 2.01593C5.39111 1.81736 5.66043 1.70581 5.94125 1.70581H8.0589C8.33971 1.70581 8.60903 1.81736 8.8076 2.01593C9.00616 2.2145 9.11772 2.48382 9.11772 2.76463V3.82346" stroke="white" stroke-width="1.05882" stroke-linecap="round" stroke-linejoin="round"/>
</svg>
