<svg width="23" height="23" viewBox="0 0 23 23" fill="none" xmlns="http://www.w3.org/2000/svg">
<g id="ShieldCheckered">
<path id="Vector" d="M18.6875 3.59375H4.3125C3.93125 3.59375 3.56562 3.7452 3.29603 4.01478C3.02645 4.28437 2.875 4.65 2.875 5.03125V10.3114C2.875 18.3632 9.68695 21.0333 11.0508 21.4861C11.342 21.5858 11.658 21.5858 11.9492 21.4861C13.3148 21.0324 20.125 18.3623 20.125 10.3105V5.03125C20.125 4.65 19.9735 4.28437 19.704 4.01478C19.4344 3.7452 19.0687 3.59375 18.6875 3.59375ZM4.3718 11.5H11.5V5.03125H18.6875V10.3114C18.6878 10.7077 18.668 11.1038 18.6282 11.4982H11.5V20.1232C10.3554 19.7414 4.99441 17.6327 4.3718 11.5Z" fill="url(#paint0_linear_12_64)"/>
</g>
<defs>
<linearGradient id="paint0_linear_12_64" x1="11.5" y1="3.59375" x2="11.5" y2="21.5609" gradientUnits="userSpaceOnUse">
<stop stop-color="#989898"/>
<stop offset="1" stop-color="#3E3E3E"/>
</linearGradient>
</defs>
</svg>
