<svg width="42" height="42" viewBox="0 0 42 42" fill="none" xmlns="http://www.w3.org/2000/svg">
<g id="blueprint 1">
<path id="Vector" d="M35.8571 11.6818H13V9.22727C13 8.90178 12.8796 8.58962 12.6653 8.35946C12.4509 8.1293 12.1602 8 11.8571 8H9.57143C8.35901 8 7.19625 8.51721 6.33894 9.43784C5.48163 10.3585 5 11.6071 5 12.9091V30.0909C5 31.3929 5.48163 32.6415 6.33894 33.5622C7.19625 34.4828 8.35901 35 9.57143 35H35.8571C36.1602 35 36.4509 34.8707 36.6653 34.6405C36.8796 34.4104 37 34.0982 37 33.7727V12.9091C37 12.5836 36.8796 12.2714 36.6653 12.0413C36.4509 11.8111 36.1602 11.6818 35.8571 11.6818ZM7.28571 12.9091C7.28571 12.2581 7.52653 11.6338 7.95518 11.1735C8.38384 10.7131 8.96522 10.4545 9.57143 10.4545H10.7143V25.1818H9.57143C8.76878 25.1806 7.98015 25.4077 7.28571 25.8399V12.9091ZM34.7143 32.5455H9.57143C8.96522 32.5455 8.38384 32.2869 7.95518 31.8265C7.52653 31.3662 7.28571 30.7419 7.28571 30.0909C7.28571 29.4399 7.52653 28.8156 7.95518 28.3553C8.38384 27.895 8.96522 27.6364 9.57143 27.6364H11.8571C12.1602 27.6364 12.4509 27.5071 12.6653 27.2769C12.8796 27.0467 13 26.7346 13 26.4091V14.1364H34.7143V32.5455ZM17.5714 23.9545C17.2683 23.9545 16.9776 24.0838 16.7633 24.314C16.549 24.5442 16.4286 24.8563 16.4286 25.1818C16.4286 25.5073 16.549 25.8195 16.7633 26.0496C16.9776 26.2798 17.2683 26.4091 17.5714 26.4091H19.8571V27.6364C19.8571 27.9619 19.9776 28.274 20.1919 28.5042C20.4062 28.7343 20.6969 28.8636 21 28.8636C21.3031 28.8636 21.5938 28.7343 21.8081 28.5042C22.0225 28.274 22.1429 27.9619 22.1429 27.6364V26.4091H25.5714V27.6364C25.5714 27.9619 25.6918 28.274 25.9062 28.5042C26.1205 28.7343 26.4112 28.8636 26.7143 28.8636C27.0174 28.8636 27.3081 28.7343 27.5224 28.5042C27.7367 28.274 27.8571 27.9619 27.8571 27.6364V26.4091H30.1429C30.446 26.4091 30.7367 26.2798 30.951 26.0496C31.1653 25.8195 31.2857 25.5073 31.2857 25.1818C31.2857 24.8563 31.1653 24.5442 30.951 24.314C30.7367 24.0838 30.446 23.9545 30.1429 23.9545H27.8571V21.5H30.1429C30.446 21.5 30.7367 21.3707 30.951 21.1405C31.1653 20.9104 31.2857 20.5982 31.2857 20.2727C31.2857 19.9472 31.1653 19.6351 30.951 19.4049C30.7367 19.1748 30.446 19.0455 30.1429 19.0455H27.8571V17.8182C27.8571 17.4927 27.7367 17.1805 27.5224 16.9504C27.3081 16.7202 27.0174 16.5909 26.7143 16.5909C26.4112 16.5909 26.1205 16.7202 25.9062 16.9504C25.6918 17.1805 25.5714 17.4927 25.5714 17.8182V19.0455H22.1429V17.8182C22.1429 17.4927 22.0225 17.1805 21.8081 16.9504C21.5938 16.7202 21.3031 16.5909 21 16.5909C20.6969 16.5909 20.4062 16.7202 20.1919 16.9504C19.9776 17.1805 19.8571 17.4927 19.8571 17.8182V19.0455H17.5714C17.2683 19.0455 16.9776 19.1748 16.7633 19.4049C16.549 19.6351 16.4286 19.9472 16.4286 20.2727C16.4286 20.5982 16.549 20.9104 16.7633 21.1405C16.9776 21.3707 17.2683 21.5 17.5714 21.5H19.8571V23.9545H17.5714ZM22.1429 21.5H25.5714V23.9545H22.1429V21.5Z" fill="#F5F5F5" fill-opacity="0.5"/>
</g>
</svg>
