<svg width="556" height="69" viewBox="0 0 556 69" fill="none" xmlns="http://www.w3.org/2000/svg">
<path d="M540.235 0H522.55L527.425 17H545.11L540.235 0Z" fill="#0D0D0F"/>
<path d="M15.5818 0H33.2669L28.3923 17H10.7072L15.5818 0Z" fill="#0D0D0F"/>
<path d="M549.943 35H533.258L538.685 52L556 52L549.943 35Z" fill="#0D0D0F"/>
<path d="M538.685 52L520.56 52L524.875 69H543.56L538.685 52Z" fill="#0D0D0F"/>
<path d="M4.87467 35L23.2576 35L18.1322 52L0 52L4.87467 35Z" fill="#0D0D0F"/>
<path d="M527.425 17H509.56L515.685 35H533.258L527.425 17Z" fill="#0D0D0F"/>
<path d="M18.1322 52H35.8173L30.9427 69H13.2576L18.1322 52Z" fill="#0D0D0F"/>
<path d="M28.419 17H46.1041L40.9427 35H23.2576L28.419 17Z" fill="#0D0D0F"/>
<path d="M504.685 0H487H68.8173H51L46.1041 17L63.9427 17L58.8173 35L40.9427 35L35.8173 52L53.9427 52L49 69H508.5L502.875 52H520.56L515.685 35H498L492.297 17H509.56L504.685 0Z" fill="#0D0D0F"/>
</svg>
