<svg width="18" height="18" viewBox="0 0 18 18" fill="none" xmlns="http://www.w3.org/2000/svg">
<g id="GasPump">
<path id="Vector" d="M16.9453 4.89797L15.5855 3.53953C15.4799 3.43398 15.3368 3.37469 15.1875 3.37469C15.0382 3.37469 14.8951 3.43398 14.7895 3.53953C14.684 3.64508 14.6247 3.78823 14.6247 3.9375C14.6247 4.08677 14.684 4.22992 14.7895 4.33547L16.148 5.69531C16.2529 5.80037 16.3121 5.94267 16.3125 6.09117V11.8125C16.3125 11.9617 16.2532 12.1048 16.1477 12.2102C16.0423 12.3157 15.8992 12.375 15.75 12.375C15.6008 12.375 15.4577 12.3157 15.3523 12.2102C15.2468 12.1048 15.1875 11.9617 15.1875 11.8125V9C15.1875 8.55245 15.0097 8.12322 14.6932 7.80676C14.3768 7.49029 13.9476 7.3125 13.5 7.3125H12.375V3.9375C12.375 3.48995 12.1972 3.06072 11.8807 2.74426C11.5643 2.42779 11.1351 2.25 10.6875 2.25H5.0625C4.61495 2.25 4.18572 2.42779 3.86926 2.74426C3.55279 3.06072 3.375 3.48995 3.375 3.9375V14.625H2.25C2.10082 14.625 1.95774 14.6843 1.85225 14.7898C1.74676 14.8952 1.6875 15.0383 1.6875 15.1875C1.6875 15.3367 1.74676 15.4798 1.85225 15.5852C1.95774 15.6907 2.10082 15.75 2.25 15.75H13.5C13.6492 15.75 13.7923 15.6907 13.8977 15.5852C14.0032 15.4798 14.0625 15.3367 14.0625 15.1875C14.0625 15.0383 14.0032 14.8952 13.8977 14.7898C13.7923 14.6843 13.6492 14.625 13.5 14.625H12.375V8.4375H13.5C13.6492 8.4375 13.7923 8.49676 13.8977 8.60225C14.0032 8.70774 14.0625 8.85082 14.0625 9V11.8125C14.0625 12.2601 14.2403 12.6893 14.5568 13.0057C14.8732 13.3222 15.3024 13.5 15.75 13.5C16.1976 13.5 16.6268 13.3222 16.9432 13.0057C17.2597 12.6893 17.4375 12.2601 17.4375 11.8125V6.09117C17.4383 5.86963 17.3953 5.65012 17.3108 5.44532C17.2263 5.24052 17.1021 5.05449 16.9453 4.89797ZM10.125 8.4375H5.625C5.47582 8.4375 5.33274 8.37824 5.22725 8.27275C5.12176 8.16726 5.0625 8.02418 5.0625 7.875C5.0625 7.72582 5.12176 7.58274 5.22725 7.47725C5.33274 7.37176 5.47582 7.3125 5.625 7.3125H10.125C10.2742 7.3125 10.4173 7.37176 10.5227 7.47725C10.6282 7.58274 10.6875 7.72582 10.6875 7.875C10.6875 8.02418 10.6282 8.16726 10.5227 8.27275C10.4173 8.37824 10.2742 8.4375 10.125 8.4375Z" fill="black"/>
</g>
</svg>
