<svg width="13" height="13" viewBox="0 0 13 13" fill="none" xmlns="http://www.w3.org/2000/svg">
<path d="M10.1563 1.21875H6.26184C6.1551 1.21841 6.04936 1.23929 5.95076 1.28018C5.85217 1.32106 5.76268 1.38114 5.6875 1.45692L5.16243 1.98047L4.63684 1.45692C4.48448 1.30466 4.2779 1.21913 4.0625 1.21913C3.84711 1.21913 3.64053 1.30466 3.48817 1.45692L2.26942 2.67567C2.11716 2.82803 2.03163 3.03461 2.03163 3.25C2.03163 3.4654 2.11716 3.67198 2.26942 3.82434L2.79297 4.34993L2.26942 4.875C2.19364 4.95018 2.13356 5.03967 2.09268 5.13826C2.05179 5.23686 2.03091 5.3426 2.03125 5.44934V10.9688C2.03125 11.1842 2.11686 11.3909 2.26923 11.5433C2.4216 11.6957 2.62827 11.7813 2.84375 11.7813H10.1563C10.3717 11.7813 10.5784 11.6957 10.7308 11.5433C10.8832 11.3909 10.9688 11.1842 10.9688 10.9688V2.03125C10.9688 1.81577 10.8832 1.6091 10.7308 1.45673C10.5784 1.30436 10.3717 1.21875 10.1563 1.21875ZM2.84375 3.25L4.0625 2.03125L4.58758 2.55633L3.36883 3.77508L2.84375 3.25ZM9.18125 9.425C9.22393 9.45701 9.25989 9.49712 9.28707 9.54302C9.31425 9.58893 9.33213 9.63974 9.33967 9.69255C9.34722 9.74536 9.34428 9.79915 9.33104 9.85083C9.3178 9.90251 9.29451 9.95107 9.2625 9.99375C9.23049 10.0364 9.19039 10.0724 9.14449 10.0996C9.09858 10.1268 9.04777 10.1446 8.99496 10.1522C8.94214 10.1597 8.88836 10.1568 8.83668 10.1435C8.785 10.1303 8.73643 10.107 8.69375 10.075L6.5 8.42969L4.30625 10.075C4.22006 10.1397 4.11171 10.1674 4.00505 10.1522C3.89839 10.1369 3.80215 10.0799 3.7375 9.99375C3.67286 9.90756 3.6451 9.79921 3.66034 9.69255C3.67557 9.58589 3.73256 9.48965 3.81875 9.425L5.82309 7.92188L3.81875 6.41875C3.73256 6.35411 3.67557 6.25787 3.66034 6.15121C3.6451 6.04455 3.67286 5.9362 3.7375 5.85C3.80215 5.76381 3.89839 5.70682 4.00505 5.69159C4.11171 5.67635 4.22006 5.70411 4.30625 5.76875L6.5 7.41407L8.69375 5.76875C8.77995 5.70411 8.8883 5.67635 8.99496 5.69159C9.10162 5.70682 9.19786 5.76381 9.2625 5.85C9.32715 5.9362 9.35491 6.04455 9.33967 6.15121C9.32443 6.25787 9.26745 6.35411 9.18125 6.41875L7.17692 7.92188L9.18125 9.425ZM8.9375 3.65625H6.90625C6.79851 3.65625 6.69518 3.61345 6.61899 3.53727C6.54281 3.46108 6.5 3.35775 6.5 3.25C6.5 3.14226 6.54281 3.03893 6.61899 2.96274C6.69518 2.88656 6.79851 2.84375 6.90625 2.84375H8.9375C9.04525 2.84375 9.14858 2.88656 9.22477 2.96274C9.30095 3.03893 9.34375 3.14226 9.34375 3.25C9.34375 3.35775 9.30095 3.46108 9.22477 3.53727C9.14858 3.61345 9.04525 3.65625 8.9375 3.65625Z" fill="black"/>
</svg>
