<svg width="12" height="16" viewBox="0 0 12 16" fill="none" xmlns="http://www.w3.org/2000/svg">
<g id="Location">
<path id="Vector" fill-rule="evenodd" clip-rule="evenodd" d="M8.08499 14.0243C9.81718 11.8154 11.9991 8.6063 11.9991 6.45604C11.9991 2.89047 9.31302 0 5.99956 0C2.68609 0 0 2.89047 0 6.45604C0 8.6063 2.18193 11.8154 3.91412 14.0243C4.81783 15.1767 5.26968 15.7529 5.99956 15.7529C6.72943 15.7529 7.18128 15.1767 8.08499 14.0243ZM5.99956 8.99933C4.75701 8.99933 3.74972 7.99205 3.74972 6.7495C3.74972 5.50695 4.75701 4.49967 5.99956 4.49967C7.2421 4.49967 8.24939 5.50695 8.24939 6.7495C8.24939 7.99205 7.2421 8.99933 5.99956 8.99933Z" fill="url(#paint0_linear_52_29)"/>
</g>
<defs>
<linearGradient id="paint0_linear_52_29" x1="5.99956" y1="0" x2="5.99956" y2="15.7529" gradientUnits="userSpaceOnUse">
<stop stop-color="#4A8DF1"/>
<stop offset="1" stop-color="#0B3779"/>
</linearGradient>
</defs>
</svg>
