<svg width="42" height="42" viewBox="0 0 42 42" fill="none" xmlns="http://www.w3.org/2000/svg">
<g id="hammer-fill 1">
<path id="Vector" d="M35.3952 19.9995L26.6729 11.5098C24.3434 9.26227 21.1867 8 17.8956 8C14.6045 8 11.4478 9.26227 9.11831 11.5098L9.10668 11.521L7.32627 13.2997C7.14184 13.4913 7.04247 13.7452 7.04949 14.0069C7.05651 14.2685 7.16937 14.5171 7.36383 14.6992C7.5583 14.8813 7.81886 14.9824 8.0896 14.9809C8.36033 14.9793 8.61965 14.8752 8.81188 14.6909L10.5871 12.9185C11.3013 12.2282 12.1164 11.6428 13.0063 11.181L19.0185 16.9996L6.60609 28.9992C6.41394 29.185 6.26151 29.4054 6.15752 29.6481C6.05353 29.8908 6 30.1509 6 30.4136C6 30.6762 6.05353 30.9363 6.15752 31.179C6.26151 31.4217 6.41394 31.6422 6.60609 31.8279L9.28123 34.4141C9.47333 34.5998 9.70141 34.7472 9.95243 34.8477C10.2035 34.9483 10.4725 35 10.7442 35C11.0159 35 11.285 34.9483 11.536 34.8477C11.787 34.7472 12.0151 34.5998 12.2072 34.4141L24.6196 22.4144L28.7571 26.4143C28.9492 26.6001 29.1773 26.7474 29.4283 26.848C29.6794 26.9485 29.9484 27.0002 30.2201 27.0002C30.4918 27.0002 30.7609 26.9485 31.0119 26.848C31.2629 26.7474 31.491 26.6001 31.6831 26.4143L35.3926 22.8282C35.5849 22.6426 35.7376 22.4223 35.8418 22.1797C35.946 21.9371 35.9998 21.677 36 21.4144C36.0002 21.1517 35.947 20.8915 35.8432 20.6488C35.7394 20.406 35.5872 20.1854 35.3952 19.9995ZM23.8878 20.2908L20.9994 23.0832L18.3242 20.4995L21.214 17.7058C21.3102 17.613 21.3865 17.5027 21.4385 17.3813C21.4906 17.2599 21.5174 17.1298 21.5174 16.9984C21.5174 16.867 21.4906 16.7368 21.4385 16.6154C21.3865 16.494 21.3102 16.3838 21.214 16.2909L15.0931 10.3748C16.8615 9.89333 18.7307 9.87588 20.5084 10.3243C22.2861 10.7726 23.9082 11.6707 25.2079 12.926L30.9254 18.4896L27.2056 22.082L25.3515 20.2895C25.2554 20.1965 25.1413 20.1228 25.0158 20.0725C24.8902 20.0221 24.7556 19.9962 24.6196 19.9962C24.4837 19.9962 24.3491 20.0221 24.2235 20.0725C24.098 20.1228 23.9839 20.1965 23.8878 20.2895V20.2908ZM30.2234 24.9981L28.6718 23.4982L32.3774 19.9058L33.929 21.4057L30.2234 24.9981Z" fill="#F5F5F5" fill-opacity="0.5"/>
</g>
</svg>
