<svg width="24" height="24" viewBox="0 0 24 24" fill="none" xmlns="http://www.w3.org/2000/svg">
<g id="Frame 1410113573" clip-path="url(#clip0_6_15)">
<g id="Group 9168" filter="url(#filter0_d_6_15)">
<path id="Vector" d="M1 8.7126C1 12.7307 5.30974 16.9805 8.46455 19.5531C9.89275 20.7178 10.6068 21.3001 11.7223 21.3001C12.8377 21.3001 13.5518 20.7178 14.98 19.5531C18.1348 16.9805 22.4445 12.7308 22.4445 8.71257C22.4445 2.37454 16.5471 -0.506182 11.7223 4.67925C6.89742 -0.506182 1 2.37474 1 8.7126Z" fill="url(#paint0_linear_6_15)"/>
<path id="Vector_2" d="M9.67802 10.3058C9.77403 10.1686 9.85375 10.0548 9.92473 9.9573C9.9848 10.0619 10.0518 10.1836 10.1325 10.3303L11.9663 13.6645C12.1443 13.9884 12.3189 14.306 12.4943 14.5365C12.6818 14.7832 13.0117 15.1212 13.5404 15.1312C14.0691 15.1411 14.4114 14.8157 14.6081 14.5763C14.792 14.3525 14.9784 14.0416 15.1685 13.7246L15.2279 13.6256C15.4646 13.231 15.6137 12.9843 15.7456 12.8061C15.8672 12.6419 15.9374 12.5884 15.9898 12.5587C16.0422 12.529 16.1242 12.4964 16.3276 12.4766C16.5482 12.4552 16.8364 12.4543 17.2966 12.4543H18.1559C18.6001 12.4543 18.9601 12.0943 18.9601 11.6501C18.9601 11.206 18.6001 10.846 18.1559 10.846L17.262 10.846C16.8468 10.8459 16.4797 10.8459 16.172 10.8758C15.8384 10.9083 15.5137 10.98 15.1974 11.1591C14.881 11.3382 14.6524 11.5797 14.453 11.8491C14.269 12.0976 14.0802 12.4124 13.8666 12.7683L13.8666 12.7684L13.8157 12.8533C13.7227 13.0083 13.6451 13.1374 13.5758 13.2482C13.5106 13.1349 13.438 13.003 13.3509 12.8446L11.518 9.51199L11.518 9.51198C11.3527 9.21134 11.1881 8.91183 11.0211 8.69225C10.8387 8.45238 10.5259 8.1352 10.0246 8.10814C9.5233 8.08107 9.17816 8.36272 8.97095 8.58156C8.78127 8.78188 8.58535 9.06193 8.38869 9.34303L8.05696 9.81694C7.81341 10.1649 7.66071 10.3817 7.52854 10.538C7.40687 10.6819 7.33924 10.7291 7.28932 10.7551C7.2394 10.7811 7.162 10.8094 6.97432 10.8266C6.77043 10.8452 6.50526 10.846 6.08055 10.846H5.28922C4.84509 10.846 4.48505 11.206 4.48505 11.6501C4.48505 12.0943 4.84509 12.4543 5.28922 12.4543L6.11281 12.4543H6.11283C6.49557 12.4543 6.83486 12.4543 7.12059 12.4283C7.43053 12.4 7.73286 12.3374 8.03207 12.1816C8.33128 12.0259 8.55587 11.814 8.7568 11.5764C8.94203 11.3572 9.13659 11.0793 9.35607 10.7657L9.67802 10.3058Z" fill="#3E0000"/>
</g>
</g>
<defs>
<filter id="filter0_d_6_15" x="-0.0722264" y="2" width="23.589" height="21.4445" filterUnits="userSpaceOnUse" color-interpolation-filters="sRGB">
<feFlood flood-opacity="0" result="BackgroundImageFix"/>
<feColorMatrix in="SourceAlpha" type="matrix" values="0 0 0 0 0 0 0 0 0 0 0 0 0 0 0 0 0 0 127 0" result="hardAlpha"/>
<feOffset dy="1.07223"/>
<feGaussianBlur stdDeviation="0.536113"/>
<feComposite in2="hardAlpha" operator="out"/>
<feColorMatrix type="matrix" values="0 0 0 0 0 0 0 0 0 0 0 0 0 0 0 0 0 0 0.25 0"/>
<feBlend mode="normal" in2="BackgroundImageFix" result="effect1_dropShadow_6_15"/>
<feBlend mode="normal" in="SourceGraphic" in2="effect1_dropShadow_6_15" result="shape"/>
</filter>
<linearGradient id="paint0_linear_6_15" x1="11.7223" y1="2" x2="11.7223" y2="21.3001" gradientUnits="userSpaceOnUse">
<stop stop-color="#F54F4F"/>
<stop offset="1" stop-color="#790B0B"/>
</linearGradient>
<clipPath id="clip0_6_15">
<rect width="24" height="24" fill="white"/>
</clipPath>
</defs>
</svg>
