<svg width="24" height="24" viewBox="0 0 24 24" fill="none" xmlns="http://www.w3.org/2000/svg">
<g id="icon / ionicons / filled / pizza">
<g id="Vector">
<path d="M20.709 3.17959C17.9725 2.09678 14.8722 1.50006 11.9781 1.50006C8.99873 1.50006 5.89373 2.0874 3.2331 3.15287C2.28154 3.53865 2.11795 4.21881 2.28201 4.726L2.47279 5.20319C2.51022 5.29663 2.56608 5.38159 2.63704 5.45299C2.708 5.5244 2.79261 5.58078 2.88582 5.6188C2.97903 5.65681 3.07894 5.67566 3.1796 5.67424C3.28025 5.67282 3.37959 5.65116 3.4717 5.61053C3.97795 5.3874 4.59342 5.11647 4.73732 5.05834C6.80029 4.20194 9.31326 3.75006 11.9987 3.75006C14.6926 3.75006 17.0654 4.18319 19.2531 5.07428C19.4603 5.15865 19.9506 5.37522 20.4798 5.61147C20.5717 5.65252 20.671 5.67465 20.7716 5.67654C20.8723 5.67843 20.9723 5.66004 21.0656 5.62247C21.159 5.58489 21.2439 5.52891 21.3152 5.45784C21.3865 5.38677 21.4427 5.30208 21.4806 5.20881L21.655 4.78131L21.6709 4.73912C21.8326 4.26053 21.6775 3.5649 20.709 3.17959Z" fill="url(#paint0_linear_6_7)"/>
<path d="M19.1791 6.60287C17.0458 5.74365 14.4212 5.25006 11.9781 5.25006C9.51283 5.25168 7.06926 5.71086 4.77155 6.60428C4.74671 6.61412 4.67499 6.64553 4.57046 6.6924C4.48009 6.73291 4.39863 6.79091 4.33079 6.86306C4.26295 6.93521 4.21007 7.02009 4.17521 7.11278C4.14034 7.20548 4.12418 7.30416 4.12766 7.40313C4.13114 7.50211 4.15418 7.59941 4.19546 7.68944C4.38296 8.09772 4.63702 8.65412 4.92202 9.27803C6.46468 12.6563 9.33671 18.9376 10.6516 21.6563C10.7733 21.9099 10.9646 22.1238 11.203 22.2732C11.4415 22.4225 11.7174 22.5012 11.9987 22.5001C12.2806 22.5012 12.5569 22.4222 12.7956 22.2723C13.0343 22.1224 13.2254 21.9078 13.3469 21.6535L19.7856 7.69881C19.8282 7.60753 19.8519 7.50859 19.8552 7.40792C19.8586 7.30726 19.8416 7.20695 19.8052 7.11303C19.7688 7.01912 19.7138 6.93352 19.6435 6.8614C19.5732 6.78928 19.489 6.73211 19.3961 6.69334C19.2901 6.64881 19.2156 6.61787 19.1851 6.60569L19.1791 6.60287ZM9.09624 10.4968C8.79189 10.5166 8.48873 10.4432 8.22716 10.2864C7.9656 10.1295 7.75807 9.89662 7.63224 9.61879C7.50641 9.34096 7.46827 9.03137 7.52289 8.73131C7.57752 8.43125 7.72231 8.15496 7.93798 7.9393C8.15364 7.72363 8.42993 7.57884 8.72999 7.52421C9.03005 7.46959 9.33964 7.50773 9.61747 7.63356C9.8953 7.75939 10.1282 7.96692 10.285 8.22848C10.4419 8.49004 10.5153 8.79321 10.4955 9.09756C10.4718 9.46088 10.3167 9.80317 10.0593 10.0606C9.80185 10.3181 9.45956 10.4731 9.09624 10.4968ZM12.0962 16.4968C11.7919 16.5166 11.4887 16.4432 11.2272 16.2864C10.9656 16.1295 10.7581 15.8966 10.6322 15.6188C10.5064 15.341 10.4683 15.0314 10.5229 14.7313C10.5775 14.4312 10.7223 14.155 10.938 13.9393C11.1536 13.7236 11.4299 13.5788 11.73 13.5242C12.0301 13.4696 12.3396 13.5077 12.6175 13.6336C12.8953 13.7594 13.1282 13.9669 13.285 14.2285C13.4419 14.49 13.5153 14.7932 13.4955 15.0976C13.4718 15.4609 13.3167 15.8032 13.0593 16.0606C12.8019 16.3181 12.4596 16.4731 12.0962 16.4968ZM15.0962 11.2468C14.7919 11.2666 14.4887 11.1932 14.2272 11.0364C13.9656 10.8795 13.7581 10.6466 13.6322 10.3688C13.5064 10.091 13.4683 9.78137 13.5229 9.48131C13.5775 9.18125 13.7223 8.90496 13.938 8.6893C14.1536 8.47363 14.4299 8.32884 14.73 8.27421C15.0301 8.21959 15.3396 8.25773 15.6175 8.38356C15.8953 8.50939 16.1282 8.71692 16.285 8.97848C16.4419 9.24004 16.5153 9.54321 16.4955 9.84756C16.4718 10.2109 16.3167 10.5532 16.0593 10.8106C15.8019 11.0681 15.4596 11.2231 15.0962 11.2468Z" fill="url(#paint1_linear_6_7)"/>
</g>
</g>
<defs>
<linearGradient id="paint0_linear_6_7" x1="11.9763" y1="1.50006" x2="11.9763" y2="22.5001" gradientUnits="userSpaceOnUse">
<stop stop-color="#F6CF82"/>
<stop offset="1" stop-color="#794D0B"/>
</linearGradient>
<linearGradient id="paint1_linear_6_7" x1="11.9763" y1="1.50006" x2="11.9763" y2="22.5001" gradientUnits="userSpaceOnUse">
<stop stop-color="#F6CF82"/>
<stop offset="1" stop-color="#794D0B"/>
</linearGradient>
</defs>
</svg>
