<svg width="255" height="69" viewBox="0 0 255 69" fill="none" xmlns="http://www.w3.org/2000/svg">
<path d="M17.6851 0H0L4.87467 17L22.7133 17L17.6851 0Z" fill="#0D0D0F"/>
<path d="M27.8747 35L10 35L14.8747 52L33 52L27.8747 35Z" fill="#0D0D0F"/>
<path d="M50.1322 52L33 52L37.8747 69H55.5598L50.1322 52Z" fill="#0D0D0F"/>
<path d="M40.3984 17H22.7133L27.8747 35H45.5598L40.3984 17Z" fill="#0D0D0F"/>
<path d="M254.56 0H52.5H35.5504L40.4251 17L57.4276 17L62.9427 35L45.5598 35L45.2576 35L50.1322 52H67.8173L72.5 69L254.56 68V0Z" fill="#0D0D0F"/>
</svg>
