<svg width="23" height="23" viewBox="0 0 23 23" fill="none" xmlns="http://www.w3.org/2000/svg">
<g id="SwimmingPool">
<path id="Vector" d="M2.15625 15.0938C2.15625 14.9031 2.23198 14.7203 2.36677 14.5855C2.50156 14.4507 2.68438 14.375 2.875 14.375C4.17055 14.375 4.86863 14.8404 5.43016 15.2141C5.92969 15.5484 6.3268 15.8125 7.1875 15.8125C8.0482 15.8125 8.44531 15.5484 8.94484 15.2141C9.50547 14.8404 10.2027 14.375 11.4991 14.375C12.7955 14.375 13.4936 14.8404 14.0543 15.2141C14.5556 15.5484 14.9527 15.8125 15.8125 15.8125C16.6723 15.8125 17.0703 15.5484 17.5698 15.2141C18.1314 14.8404 18.8277 14.375 20.125 14.375C20.3156 14.375 20.4984 14.4507 20.6332 14.5855C20.768 14.7203 20.8438 14.9031 20.8438 15.0938C20.8438 15.2844 20.768 15.4672 20.6332 15.602C20.4984 15.7368 20.3156 15.8125 20.125 15.8125C19.2643 15.8125 18.8672 16.0766 18.3677 16.4109C17.8061 16.7846 17.1098 17.25 15.8125 17.25C14.5152 17.25 13.818 16.7846 13.2573 16.4109C12.7578 16.0766 12.3598 15.8125 11.5 15.8125C10.6402 15.8125 10.2422 16.0766 9.74266 16.4109C9.18203 16.7846 8.48484 17.25 7.1884 17.25C5.89195 17.25 5.19477 16.7846 4.63324 16.4109C4.13281 16.0766 3.7357 15.8125 2.875 15.8125C2.68438 15.8125 2.50156 15.7368 2.36677 15.602C2.23198 15.4672 2.15625 15.2844 2.15625 15.0938ZM20.125 17.9688C18.8295 17.9688 18.1314 18.4341 17.5698 18.8079C17.0703 19.1421 16.6732 19.4062 15.8125 19.4062C14.9518 19.4062 14.5547 19.1421 14.0543 18.8079C13.4936 18.4341 12.7964 17.9688 11.4991 17.9688C10.2018 17.9688 9.50547 18.4341 8.94484 18.8079C8.44531 19.1421 8.0473 19.4062 7.1875 19.4062C6.3277 19.4062 5.92969 19.1421 5.43016 18.8079C4.86863 18.4341 4.17055 17.9688 2.875 17.9688C2.68438 17.9688 2.50156 18.0445 2.36677 18.1793C2.23198 18.3141 2.15625 18.4969 2.15625 18.6875C2.15625 18.8781 2.23198 19.0609 2.36677 19.1957C2.50156 19.3305 2.68438 19.4062 2.875 19.4062C3.7357 19.4062 4.13281 19.6704 4.63234 20.0046C5.19387 20.3784 5.89016 20.8438 7.1875 20.8438C8.48484 20.8438 9.18113 20.3784 9.74176 20.0046C10.2431 19.6704 10.6402 19.4062 11.4991 19.4062C12.358 19.4062 12.7569 19.6704 13.2573 20.0046C13.818 20.3784 14.5152 20.8438 15.8125 20.8438C17.1098 20.8438 17.8061 20.3784 18.3677 20.0046C18.8681 19.6704 19.2661 19.4062 20.125 19.4062C20.3156 19.4062 20.4984 19.3305 20.6332 19.1957C20.768 19.0609 20.8438 18.8781 20.8438 18.6875C20.8438 18.4969 20.768 18.3141 20.6332 18.1793C20.4984 18.0445 20.3156 17.9688 20.125 17.9688ZM7.1875 12.703V2.875C7.1875 2.68438 7.26323 2.50156 7.39802 2.36677C7.53281 2.23198 7.71563 2.15625 7.90625 2.15625C8.09687 2.15625 8.27969 2.23198 8.41448 2.36677C8.54927 2.50156 8.625 2.68438 8.625 2.875V3.59375H14.375V2.875C14.375 2.68438 14.4507 2.50156 14.5855 2.36677C14.7203 2.23198 14.9031 2.15625 15.0938 2.15625C15.2844 2.15625 15.4672 2.23198 15.602 2.36677C15.7368 2.50156 15.8125 2.68438 15.8125 2.875V12.8737C15.8125 13.0643 15.7368 13.2472 15.602 13.3819C15.4672 13.5167 15.2844 13.5925 15.0938 13.5925C14.9031 13.5925 14.7203 13.5167 14.5855 13.3819C14.4507 13.2472 14.375 13.0643 14.375 12.8737V12.2188H8.625V12.703C8.625 12.8936 8.54927 13.0764 8.41448 13.2112C8.27969 13.346 8.09687 13.4218 7.90625 13.4218C7.71563 13.4218 7.53281 13.346 7.39802 13.2112C7.26323 13.0764 7.1875 12.8936 7.1875 12.703ZM8.625 6.46875C8.625 6.65937 8.70073 6.84219 8.83552 6.97698C8.97031 7.11177 9.15313 7.1875 9.34375 7.1875H13.6562C13.8469 7.1875 14.0297 7.11177 14.1645 6.97698C14.2993 6.84219 14.375 6.65937 14.375 6.46875C14.375 6.27813 14.2993 6.09531 14.1645 5.96052C14.0297 5.82573 13.8469 5.75 13.6562 5.75H9.34375C9.15313 5.75 8.97031 5.82573 8.83552 5.96052C8.70073 6.09531 8.625 6.27813 8.625 6.46875ZM8.625 9.34375C8.625 9.53437 8.70073 9.71719 8.83552 9.85198C8.97031 9.98677 9.15313 10.0625 9.34375 10.0625H13.6562C13.8469 10.0625 14.0297 9.98677 14.1645 9.85198C14.2993 9.71719 14.375 9.53437 14.375 9.34375C14.375 9.15313 14.2993 8.97031 14.1645 8.83552C14.0297 8.70073 13.8469 8.625 13.6562 8.625H9.34375C9.15313 8.625 8.97031 8.70073 8.83552 8.83552C8.70073 8.97031 8.625 9.15313 8.625 9.34375Z" fill="url(#paint0_linear_12_76)"/>
</g>
<defs>
<linearGradient id="paint0_linear_12_76" x1="11.5" y1="2.15625" x2="11.5" y2="20.8438" gradientUnits="userSpaceOnUse">
<stop stop-color="#4A84F1"/>
<stop offset="1" stop-color="#0B3E79"/>
</linearGradient>
</defs>
</svg>
