<svg width="22" height="22" viewBox="0 0 22 22" fill="none" xmlns="http://www.w3.org/2000/svg">
<g id="Frame 37">
<path id="Vector" d="M17.4165 12.3242H11.9165V17.8242C11.9165 18.0673 11.8199 18.3005 11.648 18.4724C11.4761 18.6443 11.243 18.7409 10.9998 18.7409C10.7567 18.7409 10.5236 18.6443 10.3517 18.4724C10.1797 18.3005 10.0832 18.0673 10.0832 17.8242V12.3242H4.58317C4.34006 12.3242 4.1069 12.2276 3.93499 12.0557C3.76308 11.8838 3.6665 11.6507 3.6665 11.4076C3.6665 11.1644 3.76308 10.9313 3.93499 10.7594C4.1069 10.5875 4.34006 10.4909 4.58317 10.4909H10.0832V4.99089C10.0832 4.74777 10.1797 4.51461 10.3517 4.3427C10.5236 4.1708 10.7567 4.07422 10.9998 4.07422C11.243 4.07422 11.4761 4.1708 11.648 4.3427C11.8199 4.51461 11.9165 4.74777 11.9165 4.99089V10.4909H17.4165C17.6596 10.4909 17.8928 10.5875 18.0647 10.7594C18.2366 10.9313 18.3332 11.1644 18.3332 11.4076C18.3332 11.6507 18.2366 11.8838 18.0647 12.0557C17.8928 12.2276 17.6596 12.3242 17.4165 12.3242Z" fill="#F5F5F5"/>
</g>
</svg>
