<svg width="255" height="69" viewBox="0 0 255 69" fill="none" xmlns="http://www.w3.org/2000/svg">
<g id="Vector">
<path d="M236.875 0H254.56L249.685 17L231.846 17L236.875 0Z" fill="#0D0D0F"/>
<path d="M226.685 35L244.56 35L239.685 52L221.56 52L226.685 35Z" fill="#0D0D0F"/>
<path d="M204.428 52L221.56 52L216.685 69H199L204.428 52Z" fill="#0D0D0F"/>
<path d="M214.161 17H231.846L226.685 35H209L214.161 17Z" fill="#0D0D0F"/>
<path d="M1.52588e-05 0H202.06H219.009L214.135 17L197.132 17L191.617 35L209 35L209.302 35L204.428 52H186.742L182.06 69L1.52588e-05 68V0Z" fill="#0D0D0F"/>
</g>
</svg>
