<svg width="19" height="19" viewBox="0 0 19 19" fill="none" xmlns="http://www.w3.org/2000/svg">
<path d="M12.7748 1.5251C12.7748 1.20921 12.5187 0.953125 12.2029 0.953125C11.887 0.953125 11.6309 1.20921 11.6309 1.5251V2.50732C10.9379 2.4784 10.1274 2.4784 9.17615 2.4784L9.11778 2.4784C7.71717 2.4784 6.61927 2.47839 5.74823 2.57276C4.85934 2.66907 4.13912 2.86912 3.52419 3.3159C3.15191 3.58637 2.82452 3.91376 2.55405 4.28604C2.1449 4.84918 1.94224 5.50148 1.83716 6.2916H16.4674C16.3623 5.50148 16.1597 4.84918 15.7505 4.28604C15.4801 3.91376 15.1527 3.58637 14.7804 3.3159C14.2173 2.90676 13.565 2.70409 12.7748 2.59901V1.5251Z" fill="url(#paint0_linear_7955_483)"/>
<path d="M6.48305 10.4861C5.74596 10.4861 5.14843 11.0837 5.14843 11.8207C5.14843 12.5578 5.74596 13.1554 6.48305 13.1554C7.22014 13.1554 7.81767 12.5578 7.81767 11.8207C7.81767 11.0837 7.22014 10.4861 6.48305 10.4861Z" fill="url(#paint1_linear_7955_483)"/>
<path fill-rule="evenodd" clip-rule="evenodd" d="M16.5591 7.43556H1.74547C1.71655 8.12855 1.71655 8.93902 1.71655 9.89028V9.94865C1.71655 11.3493 1.71654 12.4472 1.81091 13.3182C1.90722 14.2071 2.10727 14.9273 2.55405 15.5422C2.82452 15.9145 3.15191 16.2419 3.52419 16.5124C4.13912 16.9592 4.85935 17.1592 5.74823 17.2555C6.61925 17.3499 7.71713 17.3499 9.11771 17.3499H9.18682C10.5874 17.3499 11.6853 17.3499 12.5564 17.2555C13.4452 17.1592 14.1655 16.9592 14.7804 16.5124C15.1527 16.2419 15.4801 15.9145 15.7505 15.5422C16.1973 14.9273 16.3974 14.2071 16.4937 13.3182C16.588 12.4472 16.588 11.3493 16.588 9.94873V9.89026C16.588 8.93901 16.588 8.12855 16.5591 7.43556ZM4.00447 11.8207C4.00447 10.4519 5.11417 9.34216 6.48305 9.34216C7.85193 9.34216 8.96163 10.4519 8.96163 11.8207C8.96163 13.1896 7.85193 14.2993 6.48305 14.2993C5.11417 14.2993 4.00447 13.1896 4.00447 11.8207ZM10.1056 10.6768C10.1056 10.3609 10.3617 10.1048 10.6776 10.1048H13.7281C14.044 10.1048 14.3001 10.3609 14.3001 10.6768C14.3001 10.9927 14.044 11.2488 13.7281 11.2488H10.6776C10.3617 11.2488 10.1056 10.9927 10.1056 10.6768ZM10.1056 12.9647C10.1056 12.6488 10.3617 12.3927 10.6776 12.3927H13.7281C14.044 12.3927 14.3001 12.6488 14.3001 12.9647C14.3001 13.2806 14.044 13.5367 13.7281 13.5367H10.6776C10.3617 13.5367 10.1056 13.2806 10.1056 12.9647Z" fill="url(#paint2_linear_7955_483)"/>
<defs>
<linearGradient id="paint0_linear_7955_483" x1="9.15229" y1="0.953125" x2="9.15229" y2="17.3499" gradientUnits="userSpaceOnUse">
<stop stop-color="#4A8DF1"/>
<stop offset="1" stop-color="#0B3779"/>
</linearGradient>
<linearGradient id="paint1_linear_7955_483" x1="9.15229" y1="0.953125" x2="9.15229" y2="17.3499" gradientUnits="userSpaceOnUse">
<stop stop-color="#4A8DF1"/>
<stop offset="1" stop-color="#0B3779"/>
</linearGradient>
<linearGradient id="paint2_linear_7955_483" x1="9.15229" y1="0.953125" x2="9.15229" y2="17.3499" gradientUnits="userSpaceOnUse">
<stop stop-color="#4A8DF1"/>
<stop offset="1" stop-color="#0B3779"/>
</linearGradient>
</defs>
</svg>
