<svg width="18" height="18" viewBox="0 0 18 18" fill="none" xmlns="http://www.w3.org/2000/svg">
<g id="Frame 9170">
<g id="pasy">
<path id="Vector" d="M9.66705 10.7579L7.24196 8.3332C6.79703 7.88893 6.06988 7.88893 5.62546 8.3332L4.00862 9.94975C3.5642 10.3945 3.56369 11.1219 4.00862 11.5661L2 13.5748L2.80825 14.3829L4.81687 12.3742L5.62563 13.183L3.61633 15.1912L4.42509 16L6.43388 13.9911C6.87813 14.4356 7.60596 14.4356 8.05021 13.9911L9.66671 12.3748C10.1113 11.93 10.1108 11.2026 9.66705 10.7579ZM7.24196 13.183L4.81687 10.7579L6.43371 9.14147L8.8588 11.5661L7.24196 13.183Z" fill="black"/>
<path id="Vector_2" d="M16 4.61065L15.1292 3.74056L12.9662 5.90333L12.0961 5.03379L14.2596 2.87028L13.3888 2L11.226 4.16277L10.3557 3.29268L8.61537 5.0336V6.77398L8.18042 7.20893C7.93986 7.44949 7.93986 7.83884 8.18042 8.07921L9.92079 9.81958C10.1619 10.0601 10.5505 10.0601 10.7911 9.81958L11.2266 9.38463H12.9671L14.7075 7.64426L13.8372 6.77398L16 4.61065ZM12.4569 8.15379H10.7163L10.3557 8.51435L9.48565 7.64426L9.8462 7.2837V5.54333L10.3557 5.03305L12.9671 7.64426L12.4569 8.15379Z" fill="black"/>
</g>
</g>
</svg>
