<svg width="14" height="14" viewBox="0 0 14 14" fill="none" xmlns="http://www.w3.org/2000/svg">
<path fill-rule="evenodd" clip-rule="evenodd" d="M3.5 9.625V4.375C3.5 4.25897 3.45391 4.14769 3.37186 4.06564C3.28981 3.98359 3.17853 3.9375 3.0625 3.9375C2.94647 3.9375 2.83519 3.98359 2.75314 4.06564C2.67109 4.14769 2.625 4.25897 2.625 4.375H0.4375C0.321468 4.375 0.210188 4.42109 0.128141 4.50314C0.0460936 4.58519 0 4.69647 0 4.8125V9.1875C0 9.30353 0.0460936 9.41481 0.128141 9.49686C0.210188 9.57891 0.321468 9.625 0.4375 9.625H2.625C2.625 9.74103 2.67109 9.85231 2.75314 9.93436C2.83519 10.0164 2.94647 10.0625 3.0625 10.0625C3.17853 10.0625 3.28981 10.0164 3.37186 9.93436C3.45391 9.85231 3.5 9.74103 3.5 9.625ZM14 9.1875V4.8125C14 4.69647 13.9539 4.58519 13.8719 4.50314C13.7898 4.42109 13.6785 4.375 13.5625 4.375H10.3813C10.3047 4.2422 10.1944 4.13187 10.0617 4.05509C9.92894 3.9783 9.77835 3.93775 9.625 3.9375H6.125C5.97165 3.93775 5.82106 3.9783 5.68832 4.05509C5.55558 4.13187 5.44535 4.2422 5.36867 4.375H4.59375C4.53573 4.375 4.48009 4.39805 4.43907 4.43907C4.39805 4.48009 4.375 4.53573 4.375 4.59375V9.40625C4.375 9.46427 4.39805 9.51991 4.43907 9.56093C4.48009 9.60195 4.53573 9.625 4.59375 9.625H5.36867C5.44535 9.7578 5.55558 9.86813 5.68832 9.94491C5.82106 10.0217 5.97165 10.0622 6.125 10.0625H9.625C9.77835 10.0622 9.92894 10.0217 10.0617 9.94491C10.1944 9.86813 10.3047 9.7578 10.3813 9.625H13.5625C13.6785 9.625 13.7898 9.57891 13.8719 9.49686C13.9539 9.41481 14 9.30353 14 9.1875ZM9.625 4.8125V9.17656V9.1875H6.125V4.8125H9.625Z" fill="black"/>
</svg>
