<svg width="24" height="24" viewBox="0 0 24 24" fill="none" xmlns="http://www.w3.org/2000/svg">
<g id="icon / ionicons / filled / water">
<path id="Vector" d="M12.4291 2.81804C12.3763 2.75637 12.3108 2.70686 12.2371 2.67292C12.1633 2.63898 12.0831 2.6214 12.0019 2.6214C11.9207 2.6214 11.8405 2.63898 11.7667 2.67292C11.693 2.70686 11.6274 2.75637 11.5746 2.81804C10.0906 4.55382 5.25165 10.5548 5.25165 14.9999C5.25165 19.1423 7.85977 21.7499 12.0016 21.7499C16.1435 21.7499 18.7517 19.1423 18.7517 14.9999C18.7517 10.5548 13.9127 4.55382 12.4291 2.81804ZM12.7516 19.3124C12.6616 19.3126 12.5727 19.2912 12.4927 19.2499C12.4126 19.2086 12.3436 19.1487 12.2915 19.0752C12.2394 19.0017 12.2057 18.9167 12.1933 18.8275C12.1809 18.7383 12.1901 18.6474 12.2201 18.5624C12.2584 18.4516 12.3308 18.3557 12.4268 18.2884C12.5228 18.221 12.6377 18.1857 12.7549 18.1874C13.4995 18.1858 14.2131 17.8893 14.7396 17.3628C15.2661 16.8364 15.5625 16.1228 15.5641 15.3782C15.5624 15.2609 15.5978 15.1461 15.6651 15.0501C15.7324 14.9541 15.8283 14.8817 15.9391 14.8434C16.0241 14.8133 16.115 14.8041 16.2042 14.8166C16.2935 14.829 16.3784 14.8627 16.4519 14.9148C16.5254 14.9669 16.5853 15.0358 16.6266 15.1159C16.6679 15.196 16.6893 15.2848 16.6891 15.3749C16.688 16.4189 16.2728 17.4197 15.5346 18.1579C14.7965 18.8961 13.7956 19.3113 12.7516 19.3124Z" fill="url(#paint0_linear_6_9)"/>
</g>
<defs>
<linearGradient id="paint0_linear_6_9" x1="12.0016" y1="2.6214" x2="12.0016" y2="21.7499" gradientUnits="userSpaceOnUse">
<stop stop-color="#33D5F1"/>
<stop offset="1" stop-color="#0B5F79"/>
</linearGradient>
</defs>
</svg>
