<svg width="19" height="18" viewBox="0 0 19 18" fill="none" xmlns="http://www.w3.org/2000/svg">
<g id="Hicon / Bold / Time Circle 3" clip-path="url(#clip0_1_36)">
<g id="Time Circle 3">
<g id="Vector">
<path d="M5.03322 1.3768C5.2758 1.18273 5.31513 0.828757 5.12106 0.586172C4.92699 0.343587 4.57302 0.304256 4.33043 0.498324L2.45543 1.99832C2.21285 2.19239 2.17352 2.54637 2.36759 2.78895C2.56165 3.03154 2.91563 3.07087 3.15821 2.8768L5.03322 1.3768Z" fill="url(#paint0_linear_1_36)"/>
<path d="M14.7832 0.498324C14.5406 0.304256 14.1867 0.343587 13.9926 0.586172C13.7985 0.828757 13.8378 1.18273 14.0804 1.3768L15.9554 2.8768C16.198 3.07087 16.552 3.03154 16.7461 2.78895C16.9401 2.54637 16.9008 2.19239 16.6582 1.99832L14.7832 0.498324Z" fill="url(#paint1_linear_1_36)"/>
<path fill-rule="evenodd" clip-rule="evenodd" d="M9.55682 0.937565C5.10403 0.937565 1.49432 4.54727 1.49432 9.00006C1.49432 13.4529 5.10403 17.0626 9.55682 17.0626C14.0096 17.0626 17.6193 13.4529 17.6193 9.00006C17.6193 4.54727 14.0096 0.937565 9.55682 0.937565ZM10.1193 6.00006C10.1193 5.6894 9.86748 5.43756 9.55682 5.43756C9.24616 5.43756 8.99432 5.6894 8.99432 6.00006V8.04414C8.99431 8.4445 8.9943 8.78505 9.02216 9.06766C9.05184 9.36872 9.11619 9.64776 9.27065 9.91529C9.42511 10.1828 9.63459 10.3781 9.88048 10.5543C10.1113 10.7197 10.4062 10.89 10.753 11.0902L11.2242 11.3622C11.4932 11.5175 11.8372 11.4254 11.9926 11.1563C12.1479 10.8873 12.0557 10.5432 11.7867 10.3879L11.3381 10.1289C10.9626 9.91215 10.7163 9.76922 10.5358 9.63989C10.3655 9.51778 10.2914 9.43333 10.2449 9.35278C10.1984 9.27223 10.1623 9.16591 10.1417 8.95729C10.12 8.73636 10.1193 8.45159 10.1193 8.01799L10.1193 6.00006Z" fill="url(#paint2_linear_1_36)"/>
</g>
</g>
</g>
<defs>
<linearGradient id="paint0_linear_1_36" x1="9.55682" y1="0.375042" x2="9.55682" y2="17.0626" gradientUnits="userSpaceOnUse">
<stop stop-color="#4A8DF1"/>
<stop offset="1" stop-color="#0B3779"/>
</linearGradient>
<linearGradient id="paint1_linear_1_36" x1="9.55682" y1="0.375042" x2="9.55682" y2="17.0626" gradientUnits="userSpaceOnUse">
<stop stop-color="#4A8DF1"/>
<stop offset="1" stop-color="#0B3779"/>
</linearGradient>
<linearGradient id="paint2_linear_1_36" x1="9.55682" y1="0.375042" x2="9.55682" y2="17.0626" gradientUnits="userSpaceOnUse">
<stop stop-color="#4A8DF1"/>
<stop offset="1" stop-color="#0B3779"/>
</linearGradient>
<clipPath id="clip0_1_36">
<rect width="18" height="18" fill="white" transform="translate(0.559448 4.00543e-05)"/>
</clipPath>
</defs>
</svg>
