<svg width="14" height="14" viewBox="0 0 14 14" fill="none" xmlns="http://www.w3.org/2000/svg">
<path d="M12.6876 5.24989C12.6882 5.90473 12.5256 6.54939 12.2143 7.12551C11.903 7.70164 11.453 8.19103 10.9049 8.5494C10.3568 8.90776 9.72801 9.12377 9.07541 9.17788C8.42281 9.23198 7.76703 9.12248 7.16742 8.85927L4.32039 12.1525C4.31382 12.1602 4.30617 12.1684 4.29906 12.1755C3.97083 12.5037 3.52566 12.6881 3.06148 12.6881C2.5973 12.6881 2.15213 12.5037 1.8239 12.1755C1.49567 11.8473 1.31128 11.4021 1.31128 10.9379C1.31128 10.4738 1.49567 10.0286 1.8239 9.70036C1.83156 9.69325 1.83921 9.6856 1.84742 9.67903L5.1407 6.83255C4.84564 6.1576 4.74563 5.41347 4.85203 4.68457C4.95842 3.95567 5.26695 3.27117 5.74263 2.70872C6.2183 2.14627 6.84208 1.72838 7.5432 1.50246C8.24432 1.27653 8.99472 1.25161 9.70929 1.43052C9.78295 1.44898 9.85054 1.4863 9.90541 1.5388C9.96027 1.5913 10.0005 1.65718 10.0222 1.72996C10.0439 1.80274 10.0463 1.87991 10.0291 1.95388C10.0119 2.02785 9.97576 2.09608 9.92421 2.15184L7.87507 4.37489L8.1846 5.81591L9.62507 6.12489L11.8481 4.07302C11.9039 4.02147 11.9721 3.98533 12.0461 3.96815C12.1201 3.95097 12.1972 3.95333 12.27 3.97502C12.3428 3.9967 12.4087 4.03696 12.4612 4.09182C12.5137 4.14669 12.551 4.21428 12.5694 4.28794C12.648 4.60256 12.6876 4.92562 12.6876 5.24989Z" fill="black"/>
</svg>
